<?xml version="1.0" encoding="utf-8"?>
<svg xmlns="http://www.w3.org/2000/svg" xmlns:xlink="http://www.w3.org/1999/xlink" width="672" height="480" viewBox="0 0 2688 1920">
<defs>
  <clipPath id="clip330">
    <rect x="0" y="0" width="2688" height="1920"/>
  </clipPath>
</defs>
<path clip-path="url(#clip330)" d="M0 1920 L2688 1920 L2688 0 L0 0  Z" fill="#ffffff" fill-rule="evenodd" fill-opacity="1"/>
<defs>
  <clipPath id="clip331">
    <rect x="537" y="0" width="1883" height="1883"/>
  </clipPath>
</defs>
<path clip-path="url(#clip330)" d="M270.562 1734.12 L2640.76 1734.12 L2640.76 47.2441 L270.562 47.2441  Z" fill="#ffffff" fill-rule="evenodd" fill-opacity="1"/>
<defs>
  <clipPath id="clip332">
    <rect x="270" y="47" width="2371" height="1688"/>
  </clipPath>
</defs>
<polyline clip-path="url(#clip332)" style="stroke:#5f9ea0; stroke-linecap:round; stroke-linejoin:round; stroke-width:8; stroke-opacity:0.4; fill:none" stroke-dasharray="32, 16, 4, 16" points="498.138,1734.12 498.138,47.2441 "/>
<polyline clip-path="url(#clip332)" style="stroke:#5f9ea0; stroke-linecap:round; stroke-linejoin:round; stroke-width:8; stroke-opacity:0.4; fill:none" stroke-dasharray="32, 16, 4, 16" points="1096.11,1734.12 1096.11,47.2441 "/>
<polyline clip-path="url(#clip332)" style="stroke:#5f9ea0; stroke-linecap:round; stroke-linejoin:round; stroke-width:8; stroke-opacity:0.4; fill:none" stroke-dasharray="32, 16, 4, 16" points="1694.08,1734.12 1694.08,47.2441 "/>
<polyline clip-path="url(#clip332)" style="stroke:#5f9ea0; stroke-linecap:round; stroke-linejoin:round; stroke-width:8; stroke-opacity:0.4; fill:none" stroke-dasharray="32, 16, 4, 16" points="2292.05,1734.12 2292.05,47.2441 "/>
<polyline clip-path="url(#clip330)" style="stroke:#000000; stroke-linecap:round; stroke-linejoin:round; stroke-width:4; stroke-opacity:1; fill:none" points="270.562,1734.12 2640.76,1734.12 "/>
<polyline clip-path="url(#clip330)" style="stroke:#000000; stroke-linecap:round; stroke-linejoin:round; stroke-width:4; stroke-opacity:1; fill:none" points="270.562,47.2441 2640.76,47.2441 "/>
<polyline clip-path="url(#clip330)" style="stroke:#000000; stroke-linecap:round; stroke-linejoin:round; stroke-width:4; stroke-opacity:1; fill:none" points="498.138,1734.12 498.138,1715.22 "/>
<polyline clip-path="url(#clip330)" style="stroke:#000000; stroke-linecap:round; stroke-linejoin:round; stroke-width:4; stroke-opacity:1; fill:none" points="1096.11,1734.12 1096.11,1715.22 "/>
<polyline clip-path="url(#clip330)" style="stroke:#000000; stroke-linecap:round; stroke-linejoin:round; stroke-width:4; stroke-opacity:1; fill:none" points="1694.08,1734.12 1694.08,1715.22 "/>
<polyline clip-path="url(#clip330)" style="stroke:#000000; stroke-linecap:round; stroke-linejoin:round; stroke-width:4; stroke-opacity:1; fill:none" points="2292.05,1734.12 2292.05,1715.22 "/>
<path clip-path="url(#clip330)" d="M471.9 1780.19 Q475.256 1780.9 477.131 1783.17 Q479.03 1785.44 479.03 1788.77 Q479.03 1793.89 475.511 1796.69 Q471.993 1799.49 465.511 1799.49 Q463.335 1799.49 461.02 1799.05 Q458.729 1798.64 456.275 1797.78 L456.275 1793.27 Q458.219 1794.4 460.534 1794.98 Q462.849 1795.56 465.372 1795.56 Q469.77 1795.56 472.062 1793.82 Q474.377 1792.08 474.377 1788.77 Q474.377 1785.72 472.224 1784.01 Q470.094 1782.27 466.275 1782.27 L462.247 1782.27 L462.247 1778.43 L466.46 1778.43 Q469.909 1778.43 471.738 1777.06 Q473.567 1775.67 473.567 1773.08 Q473.567 1770.42 471.668 1769.01 Q469.793 1767.57 466.275 1767.57 Q464.354 1767.57 462.155 1767.99 Q459.956 1768.4 457.317 1769.28 L457.317 1765.12 Q459.979 1764.38 462.294 1764.01 Q464.631 1763.64 466.692 1763.64 Q472.016 1763.64 475.118 1766.07 Q478.219 1768.47 478.219 1772.59 Q478.219 1775.46 476.576 1777.46 Q474.932 1779.42 471.9 1780.19 Z" fill="#000000" fill-rule="evenodd" fill-opacity="1" /><path clip-path="url(#clip330)" d="M497.895 1767.34 Q494.284 1767.34 492.455 1770.9 Q490.65 1774.45 490.65 1781.58 Q490.65 1788.68 492.455 1792.25 Q494.284 1795.79 497.895 1795.79 Q501.529 1795.79 503.335 1792.25 Q505.164 1788.68 505.164 1781.58 Q505.164 1774.45 503.335 1770.9 Q501.529 1767.34 497.895 1767.34 M497.895 1763.64 Q503.705 1763.64 506.761 1768.24 Q509.84 1772.83 509.84 1781.58 Q509.84 1790.3 506.761 1794.91 Q503.705 1799.49 497.895 1799.49 Q492.085 1799.49 489.006 1794.91 Q485.951 1790.3 485.951 1781.58 Q485.951 1772.83 489.006 1768.24 Q492.085 1763.64 497.895 1763.64 Z" fill="#000000" fill-rule="evenodd" fill-opacity="1" /><path clip-path="url(#clip330)" d="M528.057 1767.34 Q524.446 1767.34 522.617 1770.9 Q520.812 1774.45 520.812 1781.58 Q520.812 1788.68 522.617 1792.25 Q524.446 1795.79 528.057 1795.79 Q531.691 1795.79 533.497 1792.25 Q535.326 1788.68 535.326 1781.58 Q535.326 1774.45 533.497 1770.9 Q531.691 1767.34 528.057 1767.34 M528.057 1763.64 Q533.867 1763.64 536.923 1768.24 Q540.001 1772.83 540.001 1781.58 Q540.001 1790.3 536.923 1794.91 Q533.867 1799.49 528.057 1799.49 Q522.247 1799.49 519.168 1794.91 Q516.113 1790.3 516.113 1781.58 Q516.113 1772.83 519.168 1768.24 Q522.247 1763.64 528.057 1763.64 Z" fill="#000000" fill-rule="evenodd" fill-opacity="1" /><path clip-path="url(#clip330)" d="M1069.2 1768.34 L1057.4 1786.78 L1069.2 1786.78 L1069.2 1768.34 M1067.97 1764.26 L1073.85 1764.26 L1073.85 1786.78 L1078.78 1786.78 L1078.78 1790.67 L1073.85 1790.67 L1073.85 1798.82 L1069.2 1798.82 L1069.2 1790.67 L1053.6 1790.67 L1053.6 1786.16 L1067.97 1764.26 Z" fill="#000000" fill-rule="evenodd" fill-opacity="1" /><path clip-path="url(#clip330)" d="M1096.52 1767.34 Q1092.9 1767.34 1091.08 1770.9 Q1089.27 1774.45 1089.27 1781.58 Q1089.27 1788.68 1091.08 1792.25 Q1092.9 1795.79 1096.52 1795.79 Q1100.15 1795.79 1101.96 1792.25 Q1103.78 1788.68 1103.78 1781.58 Q1103.78 1774.45 1101.96 1770.9 Q1100.15 1767.34 1096.52 1767.34 M1096.52 1763.64 Q1102.33 1763.64 1105.38 1768.24 Q1108.46 1772.83 1108.46 1781.58 Q1108.46 1790.3 1105.38 1794.91 Q1102.33 1799.49 1096.52 1799.49 Q1090.71 1799.49 1087.63 1794.91 Q1084.57 1790.3 1084.57 1781.58 Q1084.57 1772.83 1087.63 1768.24 Q1090.71 1763.64 1096.52 1763.64 Z" fill="#000000" fill-rule="evenodd" fill-opacity="1" /><path clip-path="url(#clip330)" d="M1126.68 1767.34 Q1123.07 1767.34 1121.24 1770.9 Q1119.43 1774.45 1119.43 1781.58 Q1119.43 1788.68 1121.24 1792.25 Q1123.07 1795.79 1126.68 1795.79 Q1130.31 1795.79 1132.12 1792.25 Q1133.95 1788.68 1133.95 1781.58 Q1133.95 1774.45 1132.12 1770.9 Q1130.31 1767.34 1126.68 1767.34 M1126.68 1763.64 Q1132.49 1763.64 1135.54 1768.24 Q1138.62 1772.83 1138.62 1781.58 Q1138.62 1790.3 1135.54 1794.91 Q1132.49 1799.49 1126.68 1799.49 Q1120.87 1799.49 1117.79 1794.91 Q1114.73 1790.3 1114.73 1781.58 Q1114.73 1772.83 1117.79 1768.24 Q1120.87 1763.64 1126.68 1763.64 Z" fill="#000000" fill-rule="evenodd" fill-opacity="1" /><path clip-path="url(#clip330)" d="M1653.7 1764.26 L1672.06 1764.26 L1672.06 1768.2 L1657.98 1768.2 L1657.98 1776.67 Q1659 1776.32 1660.02 1776.16 Q1661.04 1775.97 1662.06 1775.97 Q1667.84 1775.97 1671.22 1779.15 Q1674.6 1782.32 1674.6 1787.73 Q1674.6 1793.31 1671.13 1796.41 Q1667.66 1799.49 1661.34 1799.49 Q1659.16 1799.49 1656.89 1799.12 Q1654.65 1798.75 1652.24 1798.01 L1652.24 1793.31 Q1654.33 1794.45 1656.55 1795 Q1658.77 1795.56 1661.25 1795.56 Q1665.25 1795.56 1667.59 1793.45 Q1669.93 1791.34 1669.93 1787.73 Q1669.93 1784.12 1667.59 1782.02 Q1665.25 1779.91 1661.25 1779.91 Q1659.37 1779.91 1657.5 1780.33 Q1655.64 1780.74 1653.7 1781.62 L1653.7 1764.26 Z" fill="#000000" fill-rule="evenodd" fill-opacity="1" /><path clip-path="url(#clip330)" d="M1693.82 1767.34 Q1690.2 1767.34 1688.38 1770.9 Q1686.57 1774.45 1686.57 1781.58 Q1686.57 1788.68 1688.38 1792.25 Q1690.2 1795.79 1693.82 1795.79 Q1697.45 1795.79 1699.26 1792.25 Q1701.08 1788.68 1701.08 1781.58 Q1701.08 1774.45 1699.26 1770.9 Q1697.45 1767.34 1693.82 1767.34 M1693.82 1763.64 Q1699.63 1763.64 1702.68 1768.24 Q1705.76 1772.83 1705.76 1781.58 Q1705.76 1790.3 1702.68 1794.91 Q1699.63 1799.49 1693.82 1799.49 Q1688.01 1799.49 1684.93 1794.91 Q1681.87 1790.3 1681.87 1781.58 Q1681.87 1772.83 1684.93 1768.24 Q1688.01 1763.64 1693.82 1763.64 Z" fill="#000000" fill-rule="evenodd" fill-opacity="1" /><path clip-path="url(#clip330)" d="M1723.98 1767.34 Q1720.37 1767.34 1718.54 1770.9 Q1716.73 1774.45 1716.73 1781.58 Q1716.73 1788.68 1718.54 1792.25 Q1720.37 1795.79 1723.98 1795.79 Q1727.61 1795.79 1729.42 1792.25 Q1731.25 1788.68 1731.25 1781.58 Q1731.25 1774.45 1729.42 1770.9 Q1727.61 1767.34 1723.98 1767.34 M1723.98 1763.64 Q1729.79 1763.64 1732.84 1768.24 Q1735.92 1772.83 1735.92 1781.58 Q1735.92 1790.3 1732.84 1794.91 Q1729.79 1799.49 1723.98 1799.49 Q1718.17 1799.49 1715.09 1794.91 Q1712.03 1790.3 1712.03 1781.58 Q1712.03 1772.83 1715.09 1768.24 Q1718.17 1763.64 1723.98 1763.64 Z" fill="#000000" fill-rule="evenodd" fill-opacity="1" /><path clip-path="url(#clip330)" d="M2262.38 1779.68 Q2259.23 1779.68 2257.38 1781.83 Q2255.55 1783.98 2255.55 1787.73 Q2255.55 1791.46 2257.38 1793.64 Q2259.23 1795.79 2262.38 1795.79 Q2265.53 1795.79 2267.36 1793.64 Q2269.21 1791.46 2269.21 1787.73 Q2269.21 1783.98 2267.36 1781.83 Q2265.53 1779.68 2262.38 1779.68 M2271.66 1765.02 L2271.66 1769.28 Q2269.9 1768.45 2268.1 1768.01 Q2266.31 1767.57 2264.55 1767.57 Q2259.92 1767.57 2257.47 1770.7 Q2255.04 1773.82 2254.69 1780.14 Q2256.06 1778.13 2258.12 1777.06 Q2260.18 1775.97 2262.66 1775.97 Q2267.86 1775.97 2270.87 1779.15 Q2273.91 1782.29 2273.91 1787.73 Q2273.91 1793.06 2270.76 1796.27 Q2267.61 1799.49 2262.38 1799.49 Q2256.38 1799.49 2253.21 1794.91 Q2250.04 1790.3 2250.04 1781.58 Q2250.04 1773.38 2253.93 1768.52 Q2257.82 1763.64 2264.37 1763.64 Q2266.13 1763.64 2267.91 1763.98 Q2269.72 1764.33 2271.66 1765.02 Z" fill="#000000" fill-rule="evenodd" fill-opacity="1" /><path clip-path="url(#clip330)" d="M2291.96 1767.34 Q2288.35 1767.34 2286.52 1770.9 Q2284.72 1774.45 2284.72 1781.58 Q2284.72 1788.68 2286.52 1792.25 Q2288.35 1795.79 2291.96 1795.79 Q2295.6 1795.79 2297.4 1792.25 Q2299.23 1788.68 2299.23 1781.58 Q2299.23 1774.45 2297.4 1770.9 Q2295.6 1767.34 2291.96 1767.34 M2291.96 1763.64 Q2297.77 1763.64 2300.83 1768.24 Q2303.91 1772.83 2303.91 1781.58 Q2303.91 1790.3 2300.83 1794.91 Q2297.77 1799.49 2291.96 1799.49 Q2286.15 1799.49 2283.07 1794.91 Q2280.02 1790.3 2280.02 1781.58 Q2280.02 1772.83 2283.07 1768.24 Q2286.15 1763.64 2291.96 1763.64 Z" fill="#000000" fill-rule="evenodd" fill-opacity="1" /><path clip-path="url(#clip330)" d="M2322.12 1767.34 Q2318.51 1767.34 2316.68 1770.9 Q2314.88 1774.45 2314.88 1781.58 Q2314.88 1788.68 2316.68 1792.25 Q2318.51 1795.79 2322.12 1795.79 Q2325.76 1795.79 2327.56 1792.25 Q2329.39 1788.68 2329.39 1781.58 Q2329.39 1774.45 2327.56 1770.9 Q2325.76 1767.34 2322.12 1767.34 M2322.12 1763.64 Q2327.93 1763.64 2330.99 1768.24 Q2334.07 1772.83 2334.07 1781.58 Q2334.07 1790.3 2330.99 1794.91 Q2327.93 1799.49 2322.12 1799.49 Q2316.31 1799.49 2313.23 1794.91 Q2310.18 1790.3 2310.18 1781.58 Q2310.18 1772.83 2313.23 1768.24 Q2316.31 1763.64 2322.12 1763.64 Z" fill="#000000" fill-rule="evenodd" fill-opacity="1" /><path clip-path="url(#clip330)" d="M1194.74 1835.78 L1234.94 1835.78 L1234.94 1841.19 L1218.07 1841.19 L1218.07 1883.3 L1211.61 1883.3 L1211.61 1841.19 L1194.74 1841.19 L1194.74 1835.78 Z" fill="#000000" fill-rule="evenodd" fill-opacity="1" /><path clip-path="url(#clip330)" d="M1260.31 1864.01 L1260.31 1866.88 L1233.38 1866.88 Q1233.77 1872.92 1237.01 1876.11 Q1240.29 1879.26 1246.12 1879.26 Q1249.49 1879.26 1252.64 1878.43 Q1255.82 1877.6 1258.94 1875.95 L1258.94 1881.49 Q1255.79 1882.82 1252.48 1883.52 Q1249.17 1884.22 1245.77 1884.22 Q1237.24 1884.22 1232.24 1879.26 Q1227.27 1874.29 1227.27 1865.83 Q1227.27 1857.07 1231.98 1851.95 Q1236.73 1846.79 1244.75 1846.79 Q1251.94 1846.79 1256.11 1851.44 Q1260.31 1856.06 1260.31 1864.01 M1254.45 1862.29 Q1254.39 1857.49 1251.75 1854.62 Q1249.14 1851.76 1244.81 1851.76 Q1239.91 1851.76 1236.95 1854.53 Q1234.02 1857.3 1233.58 1862.33 L1254.45 1862.29 Z" fill="#000000" fill-rule="evenodd" fill-opacity="1" /><path clip-path="url(#clip330)" d="M1297.68 1854.5 Q1299.87 1850.55 1302.93 1848.67 Q1305.99 1846.79 1310.12 1846.79 Q1315.69 1846.79 1318.72 1850.71 Q1321.74 1854.59 1321.74 1861.78 L1321.74 1883.3 L1315.85 1883.3 L1315.85 1861.98 Q1315.85 1856.85 1314.04 1854.37 Q1312.22 1851.89 1308.5 1851.89 Q1303.95 1851.89 1301.31 1854.91 Q1298.66 1857.93 1298.66 1863.15 L1298.66 1883.3 L1292.78 1883.3 L1292.78 1861.98 Q1292.78 1856.82 1290.96 1854.37 Q1289.15 1851.89 1285.36 1851.89 Q1280.87 1851.89 1278.23 1854.94 Q1275.59 1857.97 1275.59 1863.15 L1275.59 1883.3 L1269.7 1883.3 L1269.7 1847.65 L1275.59 1847.65 L1275.59 1853.19 Q1277.59 1849.91 1280.39 1848.35 Q1283.2 1846.79 1287.05 1846.79 Q1290.93 1846.79 1293.64 1848.77 Q1296.37 1850.74 1297.68 1854.5 Z" fill="#000000" fill-rule="evenodd" fill-opacity="1" /><path clip-path="url(#clip330)" d="M1339.09 1877.95 L1339.09 1896.86 L1333.2 1896.86 L1333.2 1847.65 L1339.09 1847.65 L1339.09 1853.06 Q1340.93 1849.88 1343.73 1848.35 Q1346.57 1846.79 1350.48 1846.79 Q1356.97 1846.79 1361.02 1851.95 Q1365.09 1857.11 1365.09 1865.51 Q1365.09 1873.91 1361.02 1879.07 Q1356.97 1884.22 1350.48 1884.22 Q1346.57 1884.22 1343.73 1882.7 Q1340.93 1881.14 1339.09 1877.95 M1359.01 1865.51 Q1359.01 1859.05 1356.34 1855.39 Q1353.7 1851.7 1349.05 1851.7 Q1344.4 1851.7 1341.73 1855.39 Q1339.09 1859.05 1339.09 1865.51 Q1339.09 1871.97 1341.73 1875.66 Q1344.4 1879.32 1349.05 1879.32 Q1353.7 1879.32 1356.34 1875.66 Q1359.01 1871.97 1359.01 1865.51 Z" fill="#000000" fill-rule="evenodd" fill-opacity="1" /><path clip-path="url(#clip330)" d="M1405.29 1864.01 L1405.29 1866.88 L1378.36 1866.88 Q1378.75 1872.92 1381.99 1876.11 Q1385.27 1879.26 1391.09 1879.26 Q1394.47 1879.26 1397.62 1878.43 Q1400.8 1877.6 1403.92 1875.95 L1403.92 1881.49 Q1400.77 1882.82 1397.46 1883.52 Q1394.15 1884.22 1390.74 1884.22 Q1382.21 1884.22 1377.22 1879.26 Q1372.25 1874.29 1372.25 1865.83 Q1372.25 1857.07 1376.96 1851.95 Q1381.71 1846.79 1389.73 1846.79 Q1396.92 1846.79 1401.09 1851.44 Q1405.29 1856.06 1405.29 1864.01 M1399.43 1862.29 Q1399.37 1857.49 1396.73 1854.62 Q1394.12 1851.76 1389.79 1851.76 Q1384.89 1851.76 1381.93 1854.53 Q1379 1857.3 1378.55 1862.33 L1399.43 1862.29 Z" fill="#000000" fill-rule="evenodd" fill-opacity="1" /><path clip-path="url(#clip330)" d="M1435.56 1853.13 Q1434.57 1852.55 1433.39 1852.3 Q1432.25 1852.01 1430.85 1852.01 Q1425.88 1852.01 1423.21 1855.26 Q1420.57 1858.47 1420.57 1864.52 L1420.57 1883.3 L1414.68 1883.3 L1414.68 1847.65 L1420.57 1847.65 L1420.57 1853.19 Q1422.41 1849.94 1425.37 1848.39 Q1428.33 1846.79 1432.57 1846.79 Q1433.17 1846.79 1433.9 1846.89 Q1434.64 1846.95 1435.53 1847.11 L1435.56 1853.13 Z" fill="#000000" fill-rule="evenodd" fill-opacity="1" /><path clip-path="url(#clip330)" d="M1457.9 1865.38 Q1450.8 1865.38 1448.07 1867 Q1445.33 1868.63 1445.33 1872.54 Q1445.33 1875.66 1447.37 1877.51 Q1449.44 1879.32 1452.97 1879.32 Q1457.84 1879.32 1460.77 1875.88 Q1463.73 1872.42 1463.73 1866.69 L1463.73 1865.38 L1457.9 1865.38 M1469.58 1862.96 L1469.58 1883.3 L1463.73 1883.3 L1463.73 1877.89 Q1461.72 1881.14 1458.73 1882.7 Q1455.74 1884.22 1451.41 1884.22 Q1445.94 1884.22 1442.69 1881.17 Q1439.47 1878.08 1439.47 1872.92 Q1439.47 1866.91 1443.48 1863.85 Q1447.53 1860.8 1455.52 1860.8 L1463.73 1860.8 L1463.73 1860.23 Q1463.73 1856.18 1461.05 1853.99 Q1458.41 1851.76 1453.61 1851.76 Q1450.55 1851.76 1447.65 1852.49 Q1444.76 1853.22 1442.08 1854.69 L1442.08 1849.28 Q1445.3 1848.03 1448.32 1847.43 Q1451.35 1846.79 1454.21 1846.79 Q1461.94 1846.79 1465.76 1850.8 Q1469.58 1854.81 1469.58 1862.96 Z" fill="#000000" fill-rule="evenodd" fill-opacity="1" /><path clip-path="url(#clip330)" d="M1487.44 1837.53 L1487.44 1847.65 L1499.5 1847.65 L1499.5 1852.2 L1487.44 1852.2 L1487.44 1871.56 Q1487.44 1875.92 1488.62 1877.16 Q1489.83 1878.4 1493.49 1878.4 L1499.5 1878.4 L1499.5 1883.3 L1493.49 1883.3 Q1486.71 1883.3 1484.13 1880.79 Q1481.55 1878.24 1481.55 1871.56 L1481.55 1852.2 L1477.25 1852.2 L1477.25 1847.65 L1481.55 1847.65 L1481.55 1837.53 L1487.44 1837.53 Z" fill="#000000" fill-rule="evenodd" fill-opacity="1" /><path clip-path="url(#clip330)" d="M1506.6 1869.23 L1506.6 1847.65 L1512.46 1847.65 L1512.46 1869.01 Q1512.46 1874.07 1514.43 1876.62 Q1516.4 1879.13 1520.35 1879.13 Q1525.09 1879.13 1527.83 1876.11 Q1530.6 1873.08 1530.6 1867.86 L1530.6 1847.65 L1536.46 1847.65 L1536.46 1883.3 L1530.6 1883.3 L1530.6 1877.83 Q1528.47 1881.07 1525.63 1882.66 Q1522.83 1884.22 1519.11 1884.22 Q1512.97 1884.22 1509.78 1880.4 Q1506.6 1876.59 1506.6 1869.23 M1521.34 1846.79 L1521.34 1846.79 Z" fill="#000000" fill-rule="evenodd" fill-opacity="1" /><path clip-path="url(#clip330)" d="M1569.18 1853.13 Q1568.19 1852.55 1567.01 1852.3 Q1565.87 1852.01 1564.46 1852.01 Q1559.5 1852.01 1556.83 1855.26 Q1554.18 1858.47 1554.18 1864.52 L1554.18 1883.3 L1548.3 1883.3 L1548.3 1847.65 L1554.18 1847.65 L1554.18 1853.19 Q1556.03 1849.94 1558.99 1848.39 Q1561.95 1846.79 1566.18 1846.79 Q1566.79 1846.79 1567.52 1846.89 Q1568.25 1846.95 1569.14 1847.11 L1569.18 1853.13 Z" fill="#000000" fill-rule="evenodd" fill-opacity="1" /><path clip-path="url(#clip330)" d="M1604.38 1864.01 L1604.38 1866.88 L1577.45 1866.88 Q1577.83 1872.92 1581.08 1876.11 Q1584.36 1879.26 1590.18 1879.26 Q1593.56 1879.26 1596.71 1878.43 Q1599.89 1877.6 1603.01 1875.95 L1603.01 1881.49 Q1599.86 1882.82 1596.55 1883.52 Q1593.24 1884.22 1589.83 1884.22 Q1581.3 1884.22 1576.3 1879.26 Q1571.34 1874.29 1571.34 1865.83 Q1571.34 1857.07 1576.05 1851.95 Q1580.79 1846.79 1588.81 1846.79 Q1596.01 1846.79 1600.18 1851.44 Q1604.38 1856.06 1604.38 1864.01 M1598.52 1862.29 Q1598.46 1857.49 1595.82 1854.62 Q1593.21 1851.76 1588.88 1851.76 Q1583.98 1851.76 1581.02 1854.53 Q1578.09 1857.3 1577.64 1862.33 L1598.52 1862.29 Z" fill="#000000" fill-rule="evenodd" fill-opacity="1" /><path clip-path="url(#clip330)" d="M1634.17 1833.78 L1647.66 1833.78 L1647.66 1838.33 L1640.03 1838.33 L1640.03 1887.34 L1647.66 1887.34 L1647.66 1891.89 L1634.17 1891.89 L1634.17 1833.78 Z" fill="#000000" fill-rule="evenodd" fill-opacity="1" /><path clip-path="url(#clip330)" d="M1660.4 1835.78 L1666.83 1835.78 L1666.83 1855.86 L1688.15 1835.78 L1696.43 1835.78 L1672.84 1857.93 L1698.11 1883.3 L1689.65 1883.3 L1666.83 1860.42 L1666.83 1883.3 L1660.4 1883.3 L1660.4 1835.78 Z" fill="#000000" fill-rule="evenodd" fill-opacity="1" /><path clip-path="url(#clip330)" d="M1716.57 1833.78 L1716.57 1891.89 L1703.08 1891.89 L1703.08 1887.34 L1710.68 1887.34 L1710.68 1838.33 L1703.08 1838.33 L1703.08 1833.78 L1716.57 1833.78 Z" fill="#000000" fill-rule="evenodd" fill-opacity="1" /><polyline clip-path="url(#clip332)" style="stroke:#5f9ea0; stroke-linecap:round; stroke-linejoin:round; stroke-width:8; stroke-opacity:0.4; fill:none" stroke-dasharray="32, 16, 4, 16" points="270.562,1686.38 2640.76,1686.38 "/>
<polyline clip-path="url(#clip332)" style="stroke:#5f9ea0; stroke-linecap:round; stroke-linejoin:round; stroke-width:8; stroke-opacity:0.4; fill:none" stroke-dasharray="32, 16, 4, 16" points="270.562,1368.17 2640.76,1368.17 "/>
<polyline clip-path="url(#clip332)" style="stroke:#5f9ea0; stroke-linecap:round; stroke-linejoin:round; stroke-width:8; stroke-opacity:0.4; fill:none" stroke-dasharray="32, 16, 4, 16" points="270.562,1049.96 2640.76,1049.96 "/>
<polyline clip-path="url(#clip332)" style="stroke:#5f9ea0; stroke-linecap:round; stroke-linejoin:round; stroke-width:8; stroke-opacity:0.4; fill:none" stroke-dasharray="32, 16, 4, 16" points="270.562,731.747 2640.76,731.747 "/>
<polyline clip-path="url(#clip332)" style="stroke:#5f9ea0; stroke-linecap:round; stroke-linejoin:round; stroke-width:8; stroke-opacity:0.4; fill:none" stroke-dasharray="32, 16, 4, 16" points="270.562,413.538 2640.76,413.538 "/>
<polyline clip-path="url(#clip332)" style="stroke:#5f9ea0; stroke-linecap:round; stroke-linejoin:round; stroke-width:8; stroke-opacity:0.4; fill:none" stroke-dasharray="32, 16, 4, 16" points="270.562,95.3282 2640.76,95.3282 "/>
<polyline clip-path="url(#clip330)" style="stroke:#000000; stroke-linecap:round; stroke-linejoin:round; stroke-width:4; stroke-opacity:1; fill:none" points="270.562,1734.12 270.562,47.2441 "/>
<polyline clip-path="url(#clip330)" style="stroke:#000000; stroke-linecap:round; stroke-linejoin:round; stroke-width:4; stroke-opacity:1; fill:none" points="2640.76,1734.12 2640.76,47.2441 "/>
<polyline clip-path="url(#clip330)" style="stroke:#000000; stroke-linecap:round; stroke-linejoin:round; stroke-width:4; stroke-opacity:1; fill:none" points="270.562,1686.38 289.459,1686.38 "/>
<polyline clip-path="url(#clip330)" style="stroke:#000000; stroke-linecap:round; stroke-linejoin:round; stroke-width:4; stroke-opacity:1; fill:none" points="270.562,1368.17 289.459,1368.17 "/>
<polyline clip-path="url(#clip330)" style="stroke:#000000; stroke-linecap:round; stroke-linejoin:round; stroke-width:4; stroke-opacity:1; fill:none" points="270.562,1049.96 289.459,1049.96 "/>
<polyline clip-path="url(#clip330)" style="stroke:#000000; stroke-linecap:round; stroke-linejoin:round; stroke-width:4; stroke-opacity:1; fill:none" points="270.562,731.747 289.459,731.747 "/>
<polyline clip-path="url(#clip330)" style="stroke:#000000; stroke-linecap:round; stroke-linejoin:round; stroke-width:4; stroke-opacity:1; fill:none" points="270.562,413.538 289.459,413.538 "/>
<polyline clip-path="url(#clip330)" style="stroke:#000000; stroke-linecap:round; stroke-linejoin:round; stroke-width:4; stroke-opacity:1; fill:none" points="270.562,95.3282 289.459,95.3282 "/>
<path clip-path="url(#clip330)" d="M218.297 1672.17 Q214.686 1672.17 212.857 1675.74 Q211.052 1679.28 211.052 1686.41 Q211.052 1693.52 212.857 1697.08 Q214.686 1700.62 218.297 1700.62 Q221.931 1700.62 223.737 1697.08 Q225.566 1693.52 225.566 1686.41 Q225.566 1679.28 223.737 1675.74 Q221.931 1672.17 218.297 1672.17 M218.297 1668.47 Q224.107 1668.47 227.163 1673.08 Q230.242 1677.66 230.242 1686.41 Q230.242 1695.14 227.163 1699.74 Q224.107 1704.33 218.297 1704.33 Q212.487 1704.33 209.408 1699.74 Q206.353 1695.14 206.353 1686.41 Q206.353 1677.66 209.408 1673.08 Q212.487 1668.47 218.297 1668.47 Z" fill="#000000" fill-rule="evenodd" fill-opacity="1" /><path clip-path="url(#clip330)" d="M148.02 1350.89 L166.376 1350.89 L166.376 1354.82 L152.302 1354.82 L152.302 1363.29 Q153.321 1362.95 154.339 1362.78 Q155.358 1362.6 156.376 1362.6 Q162.163 1362.6 165.543 1365.77 Q168.922 1368.94 168.922 1374.36 Q168.922 1379.94 165.45 1383.04 Q161.978 1386.12 155.659 1386.12 Q153.483 1386.12 151.214 1385.75 Q148.969 1385.38 146.562 1384.64 L146.562 1379.94 Q148.645 1381.07 150.867 1381.63 Q153.089 1382.18 155.566 1382.18 Q159.571 1382.18 161.909 1380.08 Q164.247 1377.97 164.247 1374.36 Q164.247 1370.75 161.909 1368.64 Q159.571 1366.53 155.566 1366.53 Q153.691 1366.53 151.816 1366.95 Q149.964 1367.37 148.02 1368.25 L148.02 1350.89 Z" fill="#000000" fill-rule="evenodd" fill-opacity="1" /><path clip-path="url(#clip330)" d="M188.135 1353.96 Q184.524 1353.96 182.696 1357.53 Q180.89 1361.07 180.89 1368.2 Q180.89 1375.31 182.696 1378.87 Q184.524 1382.41 188.135 1382.41 Q191.77 1382.41 193.575 1378.87 Q195.404 1375.31 195.404 1368.2 Q195.404 1361.07 193.575 1357.53 Q191.77 1353.96 188.135 1353.96 M188.135 1350.26 Q193.946 1350.26 197.001 1354.87 Q200.08 1359.45 200.08 1368.2 Q200.08 1376.93 197.001 1381.53 Q193.946 1386.12 188.135 1386.12 Q182.325 1386.12 179.247 1381.53 Q176.191 1376.93 176.191 1368.2 Q176.191 1359.45 179.247 1354.87 Q182.325 1350.26 188.135 1350.26 Z" fill="#000000" fill-rule="evenodd" fill-opacity="1" /><path clip-path="url(#clip330)" d="M218.297 1353.96 Q214.686 1353.96 212.857 1357.53 Q211.052 1361.07 211.052 1368.2 Q211.052 1375.31 212.857 1378.87 Q214.686 1382.41 218.297 1382.41 Q221.931 1382.41 223.737 1378.87 Q225.566 1375.31 225.566 1368.2 Q225.566 1361.07 223.737 1357.53 Q221.931 1353.96 218.297 1353.96 M218.297 1350.26 Q224.107 1350.26 227.163 1354.87 Q230.242 1359.45 230.242 1368.2 Q230.242 1376.93 227.163 1381.53 Q224.107 1386.12 218.297 1386.12 Q212.487 1386.12 209.408 1381.53 Q206.353 1376.93 206.353 1368.2 Q206.353 1359.45 209.408 1354.87 Q212.487 1350.26 218.297 1350.26 Z" fill="#000000" fill-rule="evenodd" fill-opacity="1" /><path clip-path="url(#clip330)" d="M118.622 1063.3 L126.261 1063.3 L126.261 1036.94 L117.951 1038.6 L117.951 1034.34 L126.214 1032.68 L130.89 1032.68 L130.89 1063.3 L138.529 1063.3 L138.529 1067.24 L118.622 1067.24 L118.622 1063.3 Z" fill="#000000" fill-rule="evenodd" fill-opacity="1" /><path clip-path="url(#clip330)" d="M157.973 1035.76 Q154.362 1035.76 152.534 1039.32 Q150.728 1042.86 150.728 1049.99 Q150.728 1057.1 152.534 1060.66 Q154.362 1064.2 157.973 1064.2 Q161.608 1064.2 163.413 1060.66 Q165.242 1057.1 165.242 1049.99 Q165.242 1042.86 163.413 1039.32 Q161.608 1035.76 157.973 1035.76 M157.973 1032.05 Q163.784 1032.05 166.839 1036.66 Q169.918 1041.24 169.918 1049.99 Q169.918 1058.72 166.839 1063.32 Q163.784 1067.91 157.973 1067.91 Q152.163 1067.91 149.085 1063.32 Q146.029 1058.72 146.029 1049.99 Q146.029 1041.24 149.085 1036.66 Q152.163 1032.05 157.973 1032.05 Z" fill="#000000" fill-rule="evenodd" fill-opacity="1" /><path clip-path="url(#clip330)" d="M188.135 1035.76 Q184.524 1035.76 182.696 1039.32 Q180.89 1042.86 180.89 1049.99 Q180.89 1057.1 182.696 1060.66 Q184.524 1064.2 188.135 1064.2 Q191.77 1064.2 193.575 1060.66 Q195.404 1057.1 195.404 1049.99 Q195.404 1042.86 193.575 1039.32 Q191.77 1035.76 188.135 1035.76 M188.135 1032.05 Q193.946 1032.05 197.001 1036.66 Q200.08 1041.24 200.08 1049.99 Q200.08 1058.72 197.001 1063.32 Q193.946 1067.91 188.135 1067.91 Q182.325 1067.91 179.247 1063.32 Q176.191 1058.72 176.191 1049.99 Q176.191 1041.24 179.247 1036.66 Q182.325 1032.05 188.135 1032.05 Z" fill="#000000" fill-rule="evenodd" fill-opacity="1" /><path clip-path="url(#clip330)" d="M218.297 1035.76 Q214.686 1035.76 212.857 1039.32 Q211.052 1042.86 211.052 1049.99 Q211.052 1057.1 212.857 1060.66 Q214.686 1064.2 218.297 1064.2 Q221.931 1064.2 223.737 1060.66 Q225.566 1057.1 225.566 1049.99 Q225.566 1042.86 223.737 1039.32 Q221.931 1035.76 218.297 1035.76 M218.297 1032.05 Q224.107 1032.05 227.163 1036.66 Q230.242 1041.24 230.242 1049.99 Q230.242 1058.72 227.163 1063.32 Q224.107 1067.91 218.297 1067.91 Q212.487 1067.91 209.408 1063.32 Q206.353 1058.72 206.353 1049.99 Q206.353 1041.24 209.408 1036.66 Q212.487 1032.05 218.297 1032.05 Z" fill="#000000" fill-rule="evenodd" fill-opacity="1" /><path clip-path="url(#clip330)" d="M118.622 745.092 L126.261 745.092 L126.261 718.726 L117.951 720.393 L117.951 716.134 L126.214 714.467 L130.89 714.467 L130.89 745.092 L138.529 745.092 L138.529 749.027 L118.622 749.027 L118.622 745.092 Z" fill="#000000" fill-rule="evenodd" fill-opacity="1" /><path clip-path="url(#clip330)" d="M148.02 714.467 L166.376 714.467 L166.376 718.402 L152.302 718.402 L152.302 726.874 Q153.321 726.527 154.339 726.365 Q155.358 726.18 156.376 726.18 Q162.163 726.18 165.543 729.351 Q168.922 732.522 168.922 737.939 Q168.922 743.518 165.45 746.62 Q161.978 749.698 155.659 749.698 Q153.483 749.698 151.214 749.328 Q148.969 748.958 146.562 748.217 L146.562 743.518 Q148.645 744.652 150.867 745.208 Q153.089 745.763 155.566 745.763 Q159.571 745.763 161.909 743.657 Q164.247 741.55 164.247 737.939 Q164.247 734.328 161.909 732.222 Q159.571 730.115 155.566 730.115 Q153.691 730.115 151.816 730.532 Q149.964 730.948 148.02 731.828 L148.02 714.467 Z" fill="#000000" fill-rule="evenodd" fill-opacity="1" /><path clip-path="url(#clip330)" d="M188.135 717.546 Q184.524 717.546 182.696 721.111 Q180.89 724.652 180.89 731.782 Q180.89 738.888 182.696 742.453 Q184.524 745.995 188.135 745.995 Q191.77 745.995 193.575 742.453 Q195.404 738.888 195.404 731.782 Q195.404 724.652 193.575 721.111 Q191.77 717.546 188.135 717.546 M188.135 713.842 Q193.946 713.842 197.001 718.448 Q200.08 723.032 200.08 731.782 Q200.08 740.509 197.001 745.115 Q193.946 749.698 188.135 749.698 Q182.325 749.698 179.247 745.115 Q176.191 740.509 176.191 731.782 Q176.191 723.032 179.247 718.448 Q182.325 713.842 188.135 713.842 Z" fill="#000000" fill-rule="evenodd" fill-opacity="1" /><path clip-path="url(#clip330)" d="M218.297 717.546 Q214.686 717.546 212.857 721.111 Q211.052 724.652 211.052 731.782 Q211.052 738.888 212.857 742.453 Q214.686 745.995 218.297 745.995 Q221.931 745.995 223.737 742.453 Q225.566 738.888 225.566 731.782 Q225.566 724.652 223.737 721.111 Q221.931 717.546 218.297 717.546 M218.297 713.842 Q224.107 713.842 227.163 718.448 Q230.242 723.032 230.242 731.782 Q230.242 740.509 227.163 745.115 Q224.107 749.698 218.297 749.698 Q212.487 749.698 209.408 745.115 Q206.353 740.509 206.353 731.782 Q206.353 723.032 209.408 718.448 Q212.487 713.842 218.297 713.842 Z" fill="#000000" fill-rule="evenodd" fill-opacity="1" /><path clip-path="url(#clip330)" d="M121.839 426.882 L138.159 426.882 L138.159 430.818 L116.214 430.818 L116.214 426.882 Q118.876 424.128 123.46 419.498 Q128.066 414.845 129.247 413.503 Q131.492 410.98 132.372 409.244 Q133.275 407.484 133.275 405.795 Q133.275 403.04 131.33 401.304 Q129.409 399.568 126.307 399.568 Q124.108 399.568 121.654 400.332 Q119.224 401.096 116.446 402.646 L116.446 397.924 Q119.27 396.79 121.724 396.211 Q124.177 395.633 126.214 395.633 Q131.585 395.633 134.779 398.318 Q137.974 401.003 137.974 405.494 Q137.974 407.623 137.163 409.545 Q136.376 411.443 134.27 414.035 Q133.691 414.707 130.589 417.924 Q127.488 421.119 121.839 426.882 Z" fill="#000000" fill-rule="evenodd" fill-opacity="1" /><path clip-path="url(#clip330)" d="M157.973 399.336 Q154.362 399.336 152.534 402.901 Q150.728 406.443 150.728 413.572 Q150.728 420.679 152.534 424.244 Q154.362 427.785 157.973 427.785 Q161.608 427.785 163.413 424.244 Q165.242 420.679 165.242 413.572 Q165.242 406.443 163.413 402.901 Q161.608 399.336 157.973 399.336 M157.973 395.633 Q163.784 395.633 166.839 400.239 Q169.918 404.822 169.918 413.572 Q169.918 422.299 166.839 426.906 Q163.784 431.489 157.973 431.489 Q152.163 431.489 149.085 426.906 Q146.029 422.299 146.029 413.572 Q146.029 404.822 149.085 400.239 Q152.163 395.633 157.973 395.633 Z" fill="#000000" fill-rule="evenodd" fill-opacity="1" /><path clip-path="url(#clip330)" d="M188.135 399.336 Q184.524 399.336 182.696 402.901 Q180.89 406.443 180.89 413.572 Q180.89 420.679 182.696 424.244 Q184.524 427.785 188.135 427.785 Q191.77 427.785 193.575 424.244 Q195.404 420.679 195.404 413.572 Q195.404 406.443 193.575 402.901 Q191.77 399.336 188.135 399.336 M188.135 395.633 Q193.946 395.633 197.001 400.239 Q200.08 404.822 200.08 413.572 Q200.08 422.299 197.001 426.906 Q193.946 431.489 188.135 431.489 Q182.325 431.489 179.247 426.906 Q176.191 422.299 176.191 413.572 Q176.191 404.822 179.247 400.239 Q182.325 395.633 188.135 395.633 Z" fill="#000000" fill-rule="evenodd" fill-opacity="1" /><path clip-path="url(#clip330)" d="M218.297 399.336 Q214.686 399.336 212.857 402.901 Q211.052 406.443 211.052 413.572 Q211.052 420.679 212.857 424.244 Q214.686 427.785 218.297 427.785 Q221.931 427.785 223.737 424.244 Q225.566 420.679 225.566 413.572 Q225.566 406.443 223.737 402.901 Q221.931 399.336 218.297 399.336 M218.297 395.633 Q224.107 395.633 227.163 400.239 Q230.242 404.822 230.242 413.572 Q230.242 422.299 227.163 426.906 Q224.107 431.489 218.297 431.489 Q212.487 431.489 209.408 426.906 Q206.353 422.299 206.353 413.572 Q206.353 404.822 209.408 400.239 Q212.487 395.633 218.297 395.633 Z" fill="#000000" fill-rule="evenodd" fill-opacity="1" /><path clip-path="url(#clip330)" d="M121.839 108.673 L138.159 108.673 L138.159 112.608 L116.214 112.608 L116.214 108.673 Q118.876 105.918 123.46 101.289 Q128.066 96.636 129.247 95.2934 Q131.492 92.7703 132.372 91.0342 Q133.275 89.275 133.275 87.5852 Q133.275 84.8305 131.33 83.0944 Q129.409 81.3583 126.307 81.3583 Q124.108 81.3583 121.654 82.1222 Q119.224 82.8861 116.446 84.437 L116.446 79.7148 Q119.27 78.5806 121.724 78.0019 Q124.177 77.4232 126.214 77.4232 Q131.585 77.4232 134.779 80.1083 Q137.974 82.7935 137.974 87.2842 Q137.974 89.4138 137.163 91.3351 Q136.376 93.2333 134.27 95.8259 Q133.691 96.4971 130.589 99.7147 Q127.488 102.909 121.839 108.673 Z" fill="#000000" fill-rule="evenodd" fill-opacity="1" /><path clip-path="url(#clip330)" d="M148.02 78.0482 L166.376 78.0482 L166.376 81.9833 L152.302 81.9833 L152.302 90.4555 Q153.321 90.1083 154.339 89.9463 Q155.358 89.7611 156.376 89.7611 Q162.163 89.7611 165.543 92.9323 Q168.922 96.1036 168.922 101.52 Q168.922 107.099 165.45 110.201 Q161.978 113.279 155.659 113.279 Q153.483 113.279 151.214 112.909 Q148.969 112.539 146.562 111.798 L146.562 107.099 Q148.645 108.233 150.867 108.789 Q153.089 109.344 155.566 109.344 Q159.571 109.344 161.909 107.238 Q164.247 105.131 164.247 101.52 Q164.247 97.9092 161.909 95.8027 Q159.571 93.6962 155.566 93.6962 Q153.691 93.6962 151.816 94.1129 Q149.964 94.5296 148.02 95.4092 L148.02 78.0482 Z" fill="#000000" fill-rule="evenodd" fill-opacity="1" /><path clip-path="url(#clip330)" d="M188.135 81.1269 Q184.524 81.1269 182.696 84.6917 Q180.89 88.2333 180.89 95.3629 Q180.89 102.469 182.696 106.034 Q184.524 109.576 188.135 109.576 Q191.77 109.576 193.575 106.034 Q195.404 102.469 195.404 95.3629 Q195.404 88.2333 193.575 84.6917 Q191.77 81.1269 188.135 81.1269 M188.135 77.4232 Q193.946 77.4232 197.001 82.0296 Q200.08 86.6129 200.08 95.3629 Q200.08 104.09 197.001 108.696 Q193.946 113.279 188.135 113.279 Q182.325 113.279 179.247 108.696 Q176.191 104.09 176.191 95.3629 Q176.191 86.6129 179.247 82.0296 Q182.325 77.4232 188.135 77.4232 Z" fill="#000000" fill-rule="evenodd" fill-opacity="1" /><path clip-path="url(#clip330)" d="M218.297 81.1269 Q214.686 81.1269 212.857 84.6917 Q211.052 88.2333 211.052 95.3629 Q211.052 102.469 212.857 106.034 Q214.686 109.576 218.297 109.576 Q221.931 109.576 223.737 106.034 Q225.566 102.469 225.566 95.3629 Q225.566 88.2333 223.737 84.6917 Q221.931 81.1269 218.297 81.1269 M218.297 77.4232 Q224.107 77.4232 227.163 82.0296 Q230.242 86.6129 230.242 95.3629 Q230.242 104.09 227.163 108.696 Q224.107 113.279 218.297 113.279 Q212.487 113.279 209.408 108.696 Q206.353 104.09 206.353 95.3629 Q206.353 86.6129 209.408 82.0296 Q212.487 77.4232 218.297 77.4232 Z" fill="#000000" fill-rule="evenodd" fill-opacity="1" /><path clip-path="url(#clip330)" d="M14.1184 1441.71 L14.1184 1435.28 L56.2276 1435.28 L56.2276 1412.14 L61.6384 1412.14 L61.6384 1441.71 L14.1184 1441.71 Z" fill="#000000" fill-rule="evenodd" fill-opacity="1" /><path clip-path="url(#clip330)" d="M43.719 1389.45 Q43.719 1396.55 45.3422 1399.28 Q46.9655 1402.02 50.8804 1402.02 Q53.9996 1402.02 55.8457 1399.98 Q57.6599 1397.92 57.6599 1394.38 Q57.6599 1389.51 54.2224 1386.59 Q50.7531 1383.62 45.0239 1383.62 L43.719 1383.62 L43.719 1389.45 M41.3 1377.77 L61.6384 1377.77 L61.6384 1383.62 L56.2276 1383.62 Q59.4741 1385.63 61.0337 1388.62 Q62.5615 1391.61 62.5615 1395.94 Q62.5615 1401.42 59.5059 1404.66 Q56.4186 1407.88 51.2623 1407.88 Q45.2467 1407.88 42.1912 1403.87 Q39.1357 1399.83 39.1357 1391.84 L39.1357 1383.62 L38.5628 1383.62 Q34.5205 1383.62 32.3244 1386.3 Q30.0964 1388.94 30.0964 1393.75 Q30.0964 1396.8 30.8284 1399.7 Q31.5605 1402.59 33.0246 1405.27 L27.6137 1405.27 Q26.3724 1402.05 25.7677 1399.03 Q25.1311 1396.01 25.1311 1393.14 Q25.1311 1385.41 29.1415 1381.59 Q33.1519 1377.77 41.3 1377.77 Z" fill="#000000" fill-rule="evenodd" fill-opacity="1" /><path clip-path="url(#clip330)" d="M15.869 1359.91 L25.9905 1359.91 L25.9905 1347.85 L30.542 1347.85 L30.542 1359.91 L49.8937 1359.91 Q54.2542 1359.91 55.4955 1358.74 Q56.7368 1357.53 56.7368 1353.87 L56.7368 1347.85 L61.6384 1347.85 L61.6384 1353.87 Q61.6384 1360.64 59.124 1363.22 Q56.5777 1365.8 49.8937 1365.8 L30.542 1365.8 L30.542 1370.1 L25.9905 1370.1 L25.9905 1365.8 L15.869 1365.8 L15.869 1359.91 Z" fill="#000000" fill-rule="evenodd" fill-opacity="1" /><path clip-path="url(#clip330)" d="M42.3504 1309.66 L45.2149 1309.66 L45.2149 1336.58 Q51.2623 1336.2 54.4452 1332.95 Q57.5962 1329.68 57.5962 1323.85 Q57.5962 1320.48 56.7687 1317.33 Q55.9411 1314.14 54.2861 1311.02 L59.8242 1311.02 Q61.161 1314.18 61.8612 1317.49 Q62.5615 1320.8 62.5615 1324.2 Q62.5615 1332.73 57.5962 1337.73 Q52.631 1342.69 44.1646 1342.69 Q35.4117 1342.69 30.2873 1337.98 Q25.1311 1333.24 25.1311 1325.22 Q25.1311 1318.03 29.7781 1313.86 Q34.3932 1309.66 42.3504 1309.66 M40.6316 1315.51 Q35.8255 1315.58 32.9609 1318.22 Q30.0964 1320.83 30.0964 1325.16 Q30.0964 1330.06 32.8654 1333.02 Q35.6345 1335.95 40.6634 1336.39 L40.6316 1315.51 Z" fill="#000000" fill-rule="evenodd" fill-opacity="1" /><path clip-path="url(#clip330)" d="M40.1224 1270.41 L61.6384 1270.41 L61.6384 1276.27 L40.3133 1276.27 Q35.2526 1276.27 32.7381 1278.24 Q30.2237 1280.21 30.2237 1284.16 Q30.2237 1288.9 33.2474 1291.64 Q36.2711 1294.38 41.491 1294.38 L61.6384 1294.38 L61.6384 1300.27 L25.9905 1300.27 L25.9905 1294.38 L31.5287 1294.38 Q28.314 1292.28 26.7225 1289.44 Q25.1311 1286.58 25.1311 1282.86 Q25.1311 1276.71 28.9505 1273.56 Q32.7381 1270.41 40.1224 1270.41 Z" fill="#000000" fill-rule="evenodd" fill-opacity="1" /><path clip-path="url(#clip330)" d="M15.869 1252.94 L25.9905 1252.94 L25.9905 1240.87 L30.542 1240.87 L30.542 1252.94 L49.8937 1252.94 Q54.2542 1252.94 55.4955 1251.76 Q56.7368 1250.55 56.7368 1246.89 L56.7368 1240.87 L61.6384 1240.87 L61.6384 1246.89 Q61.6384 1253.67 59.124 1256.25 Q56.5777 1258.83 49.8937 1258.83 L30.542 1258.83 L30.542 1263.12 L25.9905 1263.12 L25.9905 1258.83 L15.869 1258.83 L15.869 1252.94 Z" fill="#000000" fill-rule="evenodd" fill-opacity="1" /><path clip-path="url(#clip330)" d="M40.1224 1182.82 L61.6384 1182.82 L61.6384 1188.68 L40.3133 1188.68 Q35.2526 1188.68 32.7381 1190.65 Q30.2237 1192.62 30.2237 1196.57 Q30.2237 1201.31 33.2474 1204.05 Q36.2711 1206.79 41.491 1206.79 L61.6384 1206.79 L61.6384 1212.67 L12.1132 1212.67 L12.1132 1206.79 L31.5287 1206.79 Q28.314 1204.68 26.7225 1201.85 Q25.1311 1198.99 25.1311 1195.26 Q25.1311 1189.12 28.9505 1185.97 Q32.7381 1182.82 40.1224 1182.82 Z" fill="#000000" fill-rule="evenodd" fill-opacity="1" /><path clip-path="url(#clip330)" d="M42.3504 1140.65 L45.2149 1140.65 L45.2149 1167.57 Q51.2623 1167.19 54.4452 1163.94 Q57.5962 1160.67 57.5962 1154.84 Q57.5962 1151.47 56.7687 1148.32 Q55.9411 1145.13 54.2861 1142.01 L59.8242 1142.01 Q61.161 1145.17 61.8612 1148.48 Q62.5615 1151.79 62.5615 1155.19 Q62.5615 1163.72 57.5962 1168.72 Q52.631 1173.68 44.1646 1173.68 Q35.4117 1173.68 30.2873 1168.97 Q25.1311 1164.23 25.1311 1156.21 Q25.1311 1149.02 29.7781 1144.85 Q34.3932 1140.65 42.3504 1140.65 M40.6316 1146.5 Q35.8255 1146.57 32.9609 1149.21 Q30.0964 1151.82 30.0964 1156.15 Q30.0964 1161.05 32.8654 1164.01 Q35.6345 1166.94 40.6634 1167.38 L40.6316 1146.5 Z" fill="#000000" fill-rule="evenodd" fill-opacity="1" /><path clip-path="url(#clip330)" d="M43.719 1114.83 Q43.719 1121.93 45.3422 1124.67 Q46.9655 1127.41 50.8804 1127.41 Q53.9996 1127.41 55.8457 1125.37 Q57.6599 1123.3 57.6599 1119.77 Q57.6599 1114.9 54.2224 1111.97 Q50.7531 1109.01 45.0239 1109.01 L43.719 1109.01 L43.719 1114.83 M41.3 1103.15 L61.6384 1103.15 L61.6384 1109.01 L56.2276 1109.01 Q59.4741 1111.01 61.0337 1114.01 Q62.5615 1117 62.5615 1121.33 Q62.5615 1126.8 59.5059 1130.05 Q56.4186 1133.26 51.2623 1133.26 Q45.2467 1133.26 42.1912 1129.25 Q39.1357 1125.21 39.1357 1117.22 L39.1357 1109.01 L38.5628 1109.01 Q34.5205 1109.01 32.3244 1111.68 Q30.0964 1114.32 30.0964 1119.13 Q30.0964 1122.19 30.8284 1125.08 Q31.5605 1127.98 33.0246 1130.65 L27.6137 1130.65 Q26.3724 1127.44 25.7677 1124.41 Q25.1311 1121.39 25.1311 1118.53 Q25.1311 1110.79 29.1415 1106.97 Q33.1519 1103.15 41.3 1103.15 Z" fill="#000000" fill-rule="evenodd" fill-opacity="1" /><path clip-path="url(#clip330)" d="M15.869 1085.3 L25.9905 1085.3 L25.9905 1073.23 L30.542 1073.23 L30.542 1085.3 L49.8937 1085.3 Q54.2542 1085.3 55.4955 1084.12 Q56.7368 1082.91 56.7368 1079.25 L56.7368 1073.23 L61.6384 1073.23 L61.6384 1079.25 Q61.6384 1086.03 59.124 1088.61 Q56.5777 1091.18 49.8937 1091.18 L30.542 1091.18 L30.542 1095.48 L25.9905 1095.48 L25.9905 1091.18 L15.869 1091.18 L15.869 1085.3 Z" fill="#000000" fill-rule="evenodd" fill-opacity="1" /><path clip-path="url(#clip330)" d="M30.0964 1031 Q30.0964 1035.71 33.7885 1038.44 Q37.4488 1041.18 43.8463 1041.18 Q50.2438 1041.18 53.9359 1038.48 Q57.5962 1035.74 57.5962 1031 Q57.5962 1026.32 53.9041 1023.58 Q50.212 1020.84 43.8463 1020.84 Q37.5124 1020.84 33.8203 1023.58 Q30.0964 1026.32 30.0964 1031 M25.1311 1031 Q25.1311 1023.36 30.0964 1019 Q35.0616 1014.64 43.8463 1014.64 Q52.5991 1014.64 57.5962 1019 Q62.5615 1023.36 62.5615 1031 Q62.5615 1038.67 57.5962 1043.03 Q52.5991 1047.36 43.8463 1047.36 Q35.0616 1047.36 30.0964 1043.03 Q25.1311 1038.67 25.1311 1031 Z" fill="#000000" fill-rule="evenodd" fill-opacity="1" /><path clip-path="url(#clip330)" d="M12.1132 986.882 L16.983 986.882 L16.983 992.484 Q16.983 995.635 18.2562 996.876 Q19.5293 998.086 22.8395 998.086 L25.9905 998.086 L25.9905 988.442 L30.542 988.442 L30.542 998.086 L61.6384 998.086 L61.6384 1003.97 L30.542 1003.97 L30.542 1009.58 L25.9905 1009.58 L25.9905 1003.97 L23.5079 1003.97 Q17.5559 1003.97 14.8505 1001.21 Q12.1132 998.436 12.1132 992.42 L12.1132 986.882 Z" fill="#000000" fill-rule="evenodd" fill-opacity="1" /><path clip-path="url(#clip330)" d="M25.9905 965.462 L25.9905 959.255 L55.9093 948.115 L25.9905 936.975 L25.9905 930.769 L61.6384 944.137 L61.6384 952.094 L25.9905 965.462 Z" fill="#000000" fill-rule="evenodd" fill-opacity="1" /><path clip-path="url(#clip330)" d="M43.719 906.483 Q43.719 913.581 45.3422 916.318 Q46.9655 919.056 50.8804 919.056 Q53.9996 919.056 55.8457 917.019 Q57.6599 914.95 57.6599 911.417 Q57.6599 906.547 54.2224 903.619 Q50.7531 900.659 45.0239 900.659 L43.719 900.659 L43.719 906.483 M41.3 894.802 L61.6384 894.802 L61.6384 900.659 L56.2276 900.659 Q59.4741 902.664 61.0337 905.656 Q62.5615 908.648 62.5615 912.976 Q62.5615 918.451 59.5059 921.697 Q56.4186 924.912 51.2623 924.912 Q45.2467 924.912 42.1912 920.902 Q39.1357 916.86 39.1357 908.871 L39.1357 900.659 L38.5628 900.659 Q34.5205 900.659 32.3244 903.332 Q30.0964 905.974 30.0964 910.78 Q30.0964 913.836 30.8284 916.732 Q31.5605 919.629 33.0246 922.302 L27.6137 922.302 Q26.3724 919.088 25.7677 916.064 Q25.1311 913.04 25.1311 910.176 Q25.1311 902.441 29.1415 898.622 Q33.1519 894.802 41.3 894.802 Z" fill="#000000" fill-rule="evenodd" fill-opacity="1" /><path clip-path="url(#clip330)" d="M56.2912 877.074 L75.1974 877.074 L75.1974 882.962 L25.9905 882.962 L25.9905 877.074 L31.4013 877.074 Q28.2185 875.228 26.6907 872.427 Q25.1311 869.594 25.1311 865.679 Q25.1311 859.186 30.2873 855.144 Q35.4436 851.07 43.8463 851.07 Q52.249 851.07 57.4052 855.144 Q62.5615 859.186 62.5615 865.679 Q62.5615 869.594 61.0337 872.427 Q59.4741 875.228 56.2912 877.074 M43.8463 857.149 Q37.3851 857.149 33.7248 859.823 Q30.0327 862.465 30.0327 867.112 Q30.0327 871.758 33.7248 874.432 Q37.3851 877.074 43.8463 877.074 Q50.3075 877.074 53.9996 874.432 Q57.6599 871.758 57.6599 867.112 Q57.6599 862.465 53.9996 859.823 Q50.3075 857.149 43.8463 857.149 Z" fill="#000000" fill-rule="evenodd" fill-opacity="1" /><path clip-path="url(#clip330)" d="M30.0964 827.549 Q30.0964 832.259 33.7885 834.997 Q37.4488 837.734 43.8463 837.734 Q50.2438 837.734 53.9359 835.028 Q57.5962 832.291 57.5962 827.549 Q57.5962 822.87 53.9041 820.133 Q50.212 817.395 43.8463 817.395 Q37.5124 817.395 33.8203 820.133 Q30.0964 822.87 30.0964 827.549 M25.1311 827.549 Q25.1311 819.91 30.0964 815.549 Q35.0616 811.189 43.8463 811.189 Q52.5991 811.189 57.5962 815.549 Q62.5615 819.91 62.5615 827.549 Q62.5615 835.219 57.5962 839.58 Q52.5991 843.909 43.8463 843.909 Q35.0616 843.909 30.0964 839.58 Q25.1311 835.219 25.1311 827.549 Z" fill="#000000" fill-rule="evenodd" fill-opacity="1" /><path clip-path="url(#clip330)" d="M31.465 780.824 Q30.8921 781.811 30.6375 782.989 Q30.351 784.135 30.351 785.535 Q30.351 790.5 33.5975 793.174 Q36.8122 795.816 42.8596 795.816 L61.6384 795.816 L61.6384 801.704 L25.9905 801.704 L25.9905 795.816 L31.5287 795.816 Q28.2821 793.97 26.7225 791.009 Q25.1311 788.049 25.1311 783.816 Q25.1311 783.211 25.2266 782.479 Q25.2903 781.747 25.4494 780.856 L31.465 780.824 Z" fill="#000000" fill-rule="evenodd" fill-opacity="1" /><path clip-path="url(#clip330)" d="M25.9905 774.681 L25.9905 768.825 L61.6384 768.825 L61.6384 774.681 L25.9905 774.681 M12.1132 774.681 L12.1132 768.825 L19.5293 768.825 L19.5293 774.681 L12.1132 774.681 Z" fill="#000000" fill-rule="evenodd" fill-opacity="1" /><path clip-path="url(#clip330)" d="M25.9905 759.117 L25.9905 731.299 L31.3377 731.299 L56.9596 753.325 L56.9596 731.299 L61.6384 731.299 L61.6384 759.913 L56.2912 759.913 L30.6693 737.888 L30.6693 759.117 L25.9905 759.117 Z" fill="#000000" fill-rule="evenodd" fill-opacity="1" /><path clip-path="url(#clip330)" d="M43.719 706.155 Q43.719 713.252 45.3422 715.99 Q46.9655 718.727 50.8804 718.727 Q53.9996 718.727 55.8457 716.69 Q57.6599 714.621 57.6599 711.088 Q57.6599 706.218 54.2224 703.29 Q50.7531 700.33 45.0239 700.33 L43.719 700.33 L43.719 706.155 M41.3 694.474 L61.6384 694.474 L61.6384 700.33 L56.2276 700.33 Q59.4741 702.335 61.0337 705.327 Q62.5615 708.319 62.5615 712.648 Q62.5615 718.122 59.5059 721.369 Q56.4186 724.583 51.2623 724.583 Q45.2467 724.583 42.1912 720.573 Q39.1357 716.531 39.1357 708.542 L39.1357 700.33 L38.5628 700.33 Q34.5205 700.33 32.3244 703.004 Q30.0964 705.645 30.0964 710.451 Q30.0964 713.507 30.8284 716.403 Q31.5605 719.3 33.0246 721.973 L27.6137 721.973 Q26.3724 718.759 25.7677 715.735 Q25.1311 712.711 25.1311 709.847 Q25.1311 702.112 29.1415 698.293 Q33.1519 694.474 41.3 694.474 Z" fill="#000000" fill-rule="evenodd" fill-opacity="1" /><path clip-path="url(#clip330)" d="M15.869 676.618 L25.9905 676.618 L25.9905 664.555 L30.542 664.555 L30.542 676.618 L49.8937 676.618 Q54.2542 676.618 55.4955 675.44 Q56.7368 674.231 56.7368 670.57 L56.7368 664.555 L61.6384 664.555 L61.6384 670.57 Q61.6384 677.35 59.124 679.928 Q56.5777 682.506 49.8937 682.506 L30.542 682.506 L30.542 686.803 L25.9905 686.803 L25.9905 682.506 L15.869 682.506 L15.869 676.618 Z" fill="#000000" fill-rule="evenodd" fill-opacity="1" /><path clip-path="url(#clip330)" d="M25.9905 656.852 L25.9905 650.996 L61.6384 650.996 L61.6384 656.852 L25.9905 656.852 M12.1132 656.852 L12.1132 650.996 L19.5293 650.996 L19.5293 656.852 L12.1132 656.852 Z" fill="#000000" fill-rule="evenodd" fill-opacity="1" /><path clip-path="url(#clip330)" d="M30.0964 624.928 Q30.0964 629.639 33.7885 632.376 Q37.4488 635.113 43.8463 635.113 Q50.2438 635.113 53.9359 632.408 Q57.5962 629.671 57.5962 624.928 Q57.5962 620.249 53.9041 617.512 Q50.212 614.775 43.8463 614.775 Q37.5124 614.775 33.8203 617.512 Q30.0964 620.249 30.0964 624.928 M25.1311 624.928 Q25.1311 617.289 30.0964 612.929 Q35.0616 608.568 43.8463 608.568 Q52.5991 608.568 57.5962 612.929 Q62.5615 617.289 62.5615 624.928 Q62.5615 632.599 57.5962 636.959 Q52.5991 641.288 43.8463 641.288 Q35.0616 641.288 30.0964 636.959 Q25.1311 632.599 25.1311 624.928 Z" fill="#000000" fill-rule="evenodd" fill-opacity="1" /><path clip-path="url(#clip330)" d="M40.1224 569.228 L61.6384 569.228 L61.6384 575.085 L40.3133 575.085 Q35.2526 575.085 32.7381 577.058 Q30.2237 579.031 30.2237 582.978 Q30.2237 587.721 33.2474 590.458 Q36.2711 593.195 41.491 593.195 L61.6384 593.195 L61.6384 599.083 L25.9905 599.083 L25.9905 593.195 L31.5287 593.195 Q28.314 591.094 26.7225 588.262 Q25.1311 585.397 25.1311 581.673 Q25.1311 575.53 28.9505 572.379 Q32.7381 569.228 40.1224 569.228 Z" fill="#000000" fill-rule="evenodd" fill-opacity="1" /><path clip-path="url(#clip330)" d="M12.1132 537.368 L12.1132 523.873 L16.6647 523.873 L16.6647 531.511 L65.6807 531.511 L65.6807 523.873 L70.2321 523.873 L70.2321 537.368 L12.1132 537.368 Z" fill="#000000" fill-rule="evenodd" fill-opacity="1" /><path clip-path="url(#clip330)" d="M12.1132 511.619 L12.1132 505.73 L41.3637 505.73 L25.9905 488.256 L25.9905 480.777 L42.6686 499.683 L61.6384 479.981 L61.6384 487.62 L44.2282 505.73 L61.6384 505.73 L61.6384 511.619 L12.1132 511.619 Z" fill="#000000" fill-rule="evenodd" fill-opacity="1" /><path clip-path="url(#clip330)" d="M14.1184 473.393 L14.1184 466.963 L58.3283 466.963 Q66.922 466.963 70.8051 470.242 Q74.6881 473.488 74.6881 480.713 L74.6881 483.164 L69.2773 483.164 L69.2773 481.159 Q69.2773 476.894 66.8902 475.143 Q64.503 473.393 58.3283 473.393 L14.1184 473.393 Z" fill="#000000" fill-rule="evenodd" fill-opacity="1" /><path clip-path="url(#clip330)" d="M14.1184 444.015 L14.1184 438.604 L67.6859 455.155 L67.6859 460.566 L14.1184 444.015 Z" fill="#000000" fill-rule="evenodd" fill-opacity="1" /><path clip-path="url(#clip330)" d="M12.1132 432.684 L12.1132 426.796 L41.3637 426.796 L25.9905 409.322 L25.9905 401.842 L42.6686 420.748 L61.6384 401.046 L61.6384 408.685 L44.2282 426.796 L61.6384 426.796 L61.6384 432.684 L12.1132 432.684 Z" fill="#000000" fill-rule="evenodd" fill-opacity="1" /><path clip-path="url(#clip330)" d="M43.4007 371.255 Q37.035 371.255 33.5338 373.897 Q30.0327 376.507 30.0327 381.249 Q30.0327 385.96 33.5338 388.601 Q37.035 391.211 43.4007 391.211 Q49.7346 391.211 53.2357 388.601 Q56.7368 385.96 56.7368 381.249 Q56.7368 376.507 53.2357 373.897 Q49.7346 371.255 43.4007 371.255 M57.2143 365.398 Q66.3172 365.398 70.7414 369.441 Q75.1974 373.483 75.1974 381.822 Q75.1974 384.909 74.72 387.646 Q74.2744 390.384 73.3195 392.962 L67.6222 392.962 Q69.0227 390.384 69.6911 387.869 Q70.3595 385.355 70.3595 382.745 Q70.3595 376.984 67.3358 374.119 Q64.3439 371.255 58.2646 371.255 L55.3682 371.255 Q58.5192 373.069 60.0788 375.902 Q61.6384 378.734 61.6384 382.681 Q61.6384 389.238 56.6414 393.248 Q51.6443 397.259 43.4007 397.259 Q35.1253 397.259 30.1282 393.248 Q25.1311 389.238 25.1311 382.681 Q25.1311 378.734 26.6907 375.902 Q28.2503 373.069 31.4013 371.255 L25.9905 371.255 L25.9905 365.398 L57.2143 365.398 Z" fill="#000000" fill-rule="evenodd" fill-opacity="1" /><path clip-path="url(#clip330)" d="M12.1132 339.649 L70.2321 339.649 L70.2321 353.144 L65.6807 353.144 L65.6807 345.537 L16.6647 345.537 L16.6647 353.144 L12.1132 353.144 L12.1132 339.649 Z" fill="#000000" fill-rule="evenodd" fill-opacity="1" /><polyline clip-path="url(#clip332)" style="stroke:#009af9; stroke-linecap:round; stroke-linejoin:round; stroke-width:12; stroke-opacity:1; fill:none" points="337.643,94.9858 342.666,96.2165 348.645,97.6849 354.625,99.1567 360.605,100.632 366.584,102.11 372.564,103.59 378.544,105.074 384.524,106.559 390.503,108.047 396.483,109.538 402.463,111.03 408.442,112.524 414.422,114.02 420.402,115.517 426.382,117.017 432.361,118.517 438.341,120.02 444.321,121.523 450.3,123.028 456.28,124.534 462.26,126.041 468.24,127.55 474.219,129.059 480.199,130.57 486.179,132.081 492.159,133.594 498.138,135.108 504.118,136.622 510.098,138.138 516.077,139.654 522.057,141.172 528.037,142.69 534.017,144.209 539.996,145.729 545.976,147.25 551.956,148.773 557.935,150.296 563.915,151.82 569.895,153.345 575.875,154.871 581.854,156.398 587.834,157.926 593.814,159.456 599.793,160.986 605.773,162.518 611.753,164.051 617.733,165.585 623.712,167.12 629.692,168.657 635.672,170.195 641.652,171.734 647.631,173.275 653.611,174.818 659.591,176.362 665.57,177.907 671.55,179.454 677.53,181.003 683.51,182.553 689.489,184.106 695.469,185.66 701.449,187.216 707.428,188.774 713.408,190.333 719.388,191.895 725.368,193.459 731.347,195.025 737.327,196.594 743.307,198.164 749.286,199.737 755.266,201.312 761.246,202.89 767.226,204.47 773.205,206.053 779.185,207.639 785.165,209.227 791.145,210.817 797.124,212.411 803.104,214.007 809.084,215.607 815.063,217.209 821.043,218.815 827.023,220.423 833.003,222.035 838.982,223.65 844.962,225.268 850.942,226.89 856.921,228.515 862.901,230.143 868.881,231.775 874.861,233.411 880.84,235.051 886.82,236.694 892.8,238.341 898.779,239.992 904.759,241.646 910.739,243.305 916.719,244.968 922.698,246.635 928.678,248.307 934.658,249.982 940.637,251.662 946.617,253.347 952.597,255.036 958.577,256.729 964.556,258.427 970.536,260.13 976.516,261.837 982.496,263.55 988.475,265.267 994.455,266.989 1000.43,268.717 1006.41,270.449 1012.39,272.186 1018.37,273.929 1024.35,275.677 1030.33,277.431 1036.31,279.19 1042.29,280.954 1048.27,282.724 1054.25,284.5 1060.23,286.281 1066.21,288.068 1072.19,289.861 1078.17,291.66 1084.15,293.465 1090.13,295.276 1096.11,297.094 1102.09,298.917 1108.07,300.747 1114.05,302.583 1120.03,304.426 1126.01,306.275 1131.99,308.13 1137.97,309.992 1143.95,311.861 1149.93,313.737 1155.91,315.62 1161.89,317.509 1167.87,319.406 1173.85,321.31 1179.83,323.22 1185.81,325.138 1191.79,327.064 1197.77,328.996 1203.75,330.937 1209.72,332.884 1215.7,334.84 1221.68,336.803 1227.66,338.773 1233.64,340.752 1239.62,342.738 1245.6,344.733 1251.58,346.735 1257.56,348.746 1263.54,350.765 1269.52,352.792 1275.5,354.828 1281.48,356.872 1287.46,358.924 1293.44,360.985 1299.42,363.055 1305.4,365.134 1311.38,367.221 1317.36,369.318 1323.34,371.423 1329.32,373.538 1335.3,375.662 1341.28,377.795 1347.26,379.937 1353.24,382.089 1359.22,384.25 1365.2,386.421 1371.18,388.602 1377.16,390.792 1383.14,392.993 1389.12,395.203 1395.1,397.423 1401.08,399.654 1407.06,401.895 1413.04,404.146 1419.02,406.407 1424.99,408.68 1430.97,410.962 1436.95,413.256 1442.93,415.56 1448.91,417.875 1454.89,420.201 1460.87,422.539 1466.85,424.887 1472.83,427.247 1478.81,429.618 1484.79,432.001 1490.77,434.396 1496.75,436.802 1502.73,439.22 1508.71,441.65 1514.69,444.092 1520.67,446.546 1526.65,449.013 1532.63,451.492 1538.61,453.983 1544.59,456.487 1550.57,459.004 1556.55,461.534 1562.53,464.076 1568.51,466.632 1574.49,469.201 1580.47,471.784 1586.45,474.38 1592.43,476.989 1598.41,479.613 1604.39,482.25 1610.37,484.901 1616.35,487.566 1622.33,490.246 1628.31,492.94 1634.28,495.649 1640.26,498.372 1646.24,501.11 1652.22,503.864 1658.2,506.632 1664.18,509.416 1670.16,512.215 1676.14,515.03 1682.12,517.86 1688.1,520.707 1694.08,523.57 1700.06,526.448 1706.04,529.344 1712.02,532.256 1718,535.184 1723.98,538.13 1729.96,541.093 1735.94,544.073 1741.92,547.07 1747.9,550.086 1753.88,553.119 1759.86,556.17 1765.84,559.24 1771.82,562.327 1777.8,565.434 1783.78,568.559 1789.76,571.704 1795.74,574.868 1801.72,578.051 1807.7,581.254 1813.68,584.477 1819.66,587.72 1825.64,590.984 1831.62,594.268 1837.6,597.573 1843.58,600.899 1849.55,604.247 1855.53,607.616 1861.51,611.008 1867.49,614.421 1873.47,617.857 1879.45,621.315 1885.43,624.797 1891.41,628.301 1897.39,631.829 1903.37,635.382 1909.35,638.958 1915.33,642.559 1921.31,646.184 1927.29,649.835 1933.27,653.511 1939.25,657.213 1945.23,660.941 1951.21,664.695 1957.19,668.476 1963.17,672.285 1969.15,676.121 1975.13,679.984 1981.11,683.877 1987.09,687.798 1993.07,691.748 1999.05,695.728 2005.03,699.737 2011.01,703.777 2016.99,707.848 2022.97,711.951 2028.95,716.085 2034.93,720.252 2040.91,724.451 2046.89,728.684 2052.87,732.95 2058.85,737.252 2064.82,741.588 2070.8,745.959 2076.78,750.367 2082.76,754.811 2088.74,759.293 2094.72,763.813 2100.7,768.372 2106.68,772.97 2112.66,777.608 2118.64,782.287 2124.62,787.007 2130.6,791.77 2136.58,796.576 2142.56,801.426 2148.54,806.321 2154.52,811.261 2160.5,816.248 2166.48,821.283 2172.46,826.367 2178.44,831.5 2184.42,836.684 2190.4,841.919 2196.38,847.208 2202.36,852.55 2208.34,857.949 2214.32,863.403 2220.3,868.916 2226.28,874.489 2232.26,880.122 2238.24,885.818 2244.22,891.578 2250.2,897.404 2256.18,903.297 2262.16,909.259 2268.14,915.293 2274.11,921.401 2280.09,927.584 2286.07,933.844 2292.05,940.185 2298.03,946.609 2304.01,953.118 2309.99,959.714 2315.97,966.402 2321.95,973.185 2327.93,980.064 2333.91,987.045 2339.89,994.131 2345.87,1001.33 2351.85,1008.63 2357.83,1016.06 2363.81,1023.61 2369.79,1031.28 2375.77,1039.09 2381.75,1047.04 2387.73,1055.14 2393.71,1063.39 2399.69,1071.8 2405.67,1080.38 2411.65,1089.14 2417.63,1098.09 2423.61,1107.25 2429.59,1116.61 2435.57,1126.2 2441.55,1136.04 2447.53,1146.13 2453.51,1156.5 2459.49,1167.18 2465.47,1178.18 2471.45,1189.53 2477.43,1201.27 2483.41,1213.43 2489.38,1226.07 2495.36,1239.23 2501.34,1252.97 2507.32,1267.39 2513.3,1282.56 2519.28,1298.63 2525.26,1315.74 2531.24,1334.12 2537.22,1354.06 2543.2,1375.99 2549.18,1400.61 2555.16,1429.05 2561.14,1463.64 2567.12,1510.42 2573.1,1611.39 2573.67,1686.38 "/>
<circle clip-path="url(#clip332)" cx="2573.67" cy="1686.38" r="21.6" fill="#e26f46" fill-rule="evenodd" fill-opacity="1" stroke="#000000" stroke-opacity="1" stroke-width="3.84"/>
<path clip-path="url(#clip330)" d="M1531.56 297.873 L2561.75 297.873 L2561.75 103.473 L1531.56 103.473  Z" fill="#ffffff" fill-rule="evenodd" fill-opacity="1"/>
<polyline clip-path="url(#clip330)" style="stroke:#000000; stroke-linecap:round; stroke-linejoin:round; stroke-width:4; stroke-opacity:1; fill:none" points="1531.56,297.873 2561.75,297.873 2561.75,103.473 1531.56,103.473 1531.56,297.873 "/>
<polyline clip-path="url(#clip330)" style="stroke:#009af9; stroke-linecap:round; stroke-linejoin:round; stroke-width:15; stroke-opacity:1; fill:none" points="1557.9,168.273 1715.91,168.273 "/>
<path clip-path="url(#clip330)" d="M1742.25 146.673 L1748.09 146.673 L1748.09 184.954 L1769.13 184.954 L1769.13 189.873 L1742.25 189.873 L1742.25 146.673 Z" fill="#000000" fill-rule="evenodd" fill-opacity="1" /><path clip-path="url(#clip330)" d="M1789.76 173.583 Q1783.31 173.583 1780.82 175.058 Q1778.33 176.534 1778.33 180.093 Q1778.33 182.929 1780.18 184.607 Q1782.06 186.256 1785.27 186.256 Q1789.7 186.256 1792.36 183.131 Q1795.05 179.977 1795.05 174.769 L1795.05 173.583 L1789.76 173.583 M1800.38 171.384 L1800.38 189.873 L1795.05 189.873 L1795.05 184.954 Q1793.23 187.906 1790.51 189.323 Q1787.79 190.712 1783.86 190.712 Q1778.88 190.712 1775.93 187.935 Q1773 185.128 1773 180.44 Q1773 174.972 1776.65 172.194 Q1780.33 169.416 1787.59 169.416 L1795.05 169.416 L1795.05 168.895 Q1795.05 165.221 1792.62 163.224 Q1790.22 161.199 1785.85 161.199 Q1783.07 161.199 1780.44 161.864 Q1777.81 162.53 1775.38 163.861 L1775.38 158.942 Q1778.3 157.813 1781.05 157.263 Q1783.8 156.685 1786.4 156.685 Q1793.43 156.685 1796.91 160.331 Q1800.38 163.976 1800.38 171.384 Z" fill="#000000" fill-rule="evenodd" fill-opacity="1" /><path clip-path="url(#clip330)" d="M1816.61 148.265 L1816.61 157.466 L1827.58 157.466 L1827.58 161.604 L1816.61 161.604 L1816.61 179.196 Q1816.61 183.16 1817.68 184.289 Q1818.78 185.417 1822.11 185.417 L1827.58 185.417 L1827.58 189.873 L1822.11 189.873 Q1815.94 189.873 1813.6 187.587 Q1811.26 185.273 1811.26 179.196 L1811.26 161.604 L1807.35 161.604 L1807.35 157.466 L1811.26 157.466 L1811.26 148.265 L1816.61 148.265 Z" fill="#000000" fill-rule="evenodd" fill-opacity="1" /><path clip-path="url(#clip330)" d="M1862.3 172.339 L1862.3 174.943 L1837.82 174.943 Q1838.17 180.44 1841.12 183.334 Q1844.1 186.198 1849.39 186.198 Q1852.46 186.198 1855.32 185.446 Q1858.22 184.694 1861.05 183.189 L1861.05 188.224 Q1858.19 189.439 1855.18 190.076 Q1852.17 190.712 1849.08 190.712 Q1841.32 190.712 1836.78 186.198 Q1832.26 181.685 1832.26 173.988 Q1832.26 166.031 1836.55 161.372 Q1840.86 156.685 1848.15 156.685 Q1854.69 156.685 1858.48 160.909 Q1862.3 165.105 1862.3 172.339 M1856.97 170.776 Q1856.92 166.407 1854.51 163.803 Q1852.14 161.199 1848.21 161.199 Q1843.75 161.199 1841.06 163.716 Q1838.4 166.233 1837.99 170.805 L1856.97 170.776 Z" fill="#000000" fill-rule="evenodd" fill-opacity="1" /><path clip-path="url(#clip330)" d="M1897.98 170.313 L1897.98 189.873 L1892.65 189.873 L1892.65 170.487 Q1892.65 165.886 1890.86 163.6 Q1889.06 161.314 1885.48 161.314 Q1881.16 161.314 1878.68 164.063 Q1876.19 166.812 1876.19 171.557 L1876.19 189.873 L1870.83 189.873 L1870.83 157.466 L1876.19 157.466 L1876.19 162.501 Q1878.1 159.578 1880.67 158.131 Q1883.28 156.685 1886.66 156.685 Q1892.25 156.685 1895.11 160.157 Q1897.98 163.6 1897.98 170.313 Z" fill="#000000" fill-rule="evenodd" fill-opacity="1" /><path clip-path="url(#clip330)" d="M1913.86 148.265 L1913.86 157.466 L1924.83 157.466 L1924.83 161.604 L1913.86 161.604 L1913.86 179.196 Q1913.86 183.16 1914.93 184.289 Q1916.03 185.417 1919.36 185.417 L1924.83 185.417 L1924.83 189.873 L1919.36 189.873 Q1913.2 189.873 1910.85 187.587 Q1908.51 185.273 1908.51 179.196 L1908.51 161.604 L1904.6 161.604 L1904.6 157.466 L1908.51 157.466 L1908.51 148.265 L1913.86 148.265 Z" fill="#000000" fill-rule="evenodd" fill-opacity="1" /><path clip-path="url(#clip330)" d="M1977.6 170.313 L1977.6 189.873 L1972.28 189.873 L1972.28 170.487 Q1972.28 165.886 1970.49 163.6 Q1968.69 161.314 1965.1 161.314 Q1960.79 161.314 1958.3 164.063 Q1955.82 166.812 1955.82 171.557 L1955.82 189.873 L1950.46 189.873 L1950.46 144.85 L1955.82 144.85 L1955.82 162.501 Q1957.73 159.578 1960.3 158.131 Q1962.91 156.685 1966.29 156.685 Q1971.88 156.685 1974.74 160.157 Q1977.6 163.6 1977.6 170.313 Z" fill="#000000" fill-rule="evenodd" fill-opacity="1" /><path clip-path="url(#clip330)" d="M2015.94 172.339 L2015.94 174.943 L1991.46 174.943 Q1991.81 180.44 1994.76 183.334 Q1997.74 186.198 2003.04 186.198 Q2006.11 186.198 2008.97 185.446 Q2011.86 184.694 2014.7 183.189 L2014.7 188.224 Q2011.83 189.439 2008.83 190.076 Q2005.82 190.712 2002.72 190.712 Q1994.97 190.712 1990.42 186.198 Q1985.91 181.685 1985.91 173.988 Q1985.91 166.031 1990.19 161.372 Q1994.5 156.685 2001.79 156.685 Q2008.33 156.685 2012.12 160.909 Q2015.94 165.105 2015.94 172.339 M2010.62 170.776 Q2010.56 166.407 2008.16 163.803 Q2005.79 161.199 2001.85 161.199 Q1997.4 161.199 1994.71 163.716 Q1992.04 166.233 1991.64 170.805 L2010.62 170.776 Z" fill="#000000" fill-rule="evenodd" fill-opacity="1" /><path clip-path="url(#clip330)" d="M2039.41 173.583 Q2032.96 173.583 2030.47 175.058 Q2027.98 176.534 2027.98 180.093 Q2027.98 182.929 2029.83 184.607 Q2031.71 186.256 2034.92 186.256 Q2039.35 186.256 2042.01 183.131 Q2044.7 179.977 2044.7 174.769 L2044.7 173.583 L2039.41 173.583 M2050.03 171.384 L2050.03 189.873 L2044.7 189.873 L2044.7 184.954 Q2042.88 187.906 2040.16 189.323 Q2037.44 190.712 2033.51 190.712 Q2028.53 190.712 2025.58 187.935 Q2022.66 185.128 2022.66 180.44 Q2022.66 174.972 2026.3 172.194 Q2029.98 169.416 2037.24 169.416 L2044.7 169.416 L2044.7 168.895 Q2044.7 165.221 2042.27 163.224 Q2039.87 161.199 2035.5 161.199 Q2032.73 161.199 2030.09 161.864 Q2027.46 162.53 2025.03 163.861 L2025.03 158.942 Q2027.95 157.813 2030.7 157.263 Q2033.45 156.685 2036.05 156.685 Q2043.08 156.685 2046.56 160.331 Q2050.03 163.976 2050.03 171.384 Z" fill="#000000" fill-rule="evenodd" fill-opacity="1" /><path clip-path="url(#clip330)" d="M2066.26 148.265 L2066.26 157.466 L2077.23 157.466 L2077.23 161.604 L2066.26 161.604 L2066.26 179.196 Q2066.26 183.16 2067.33 184.289 Q2068.43 185.417 2071.76 185.417 L2077.23 185.417 L2077.23 189.873 L2071.76 189.873 Q2065.6 189.873 2063.25 187.587 Q2060.91 185.273 2060.91 179.196 L2060.91 161.604 L2057 161.604 L2057 157.466 L2060.91 157.466 L2060.91 148.265 L2066.26 148.265 Z" fill="#000000" fill-rule="evenodd" fill-opacity="1" /><path clip-path="url(#clip330)" d="M2115.62 161.199 Q2111.34 161.199 2108.85 164.555 Q2106.37 167.883 2106.37 173.699 Q2106.37 179.514 2108.82 182.871 Q2111.31 186.198 2115.62 186.198 Q2119.88 186.198 2122.37 182.842 Q2124.85 179.486 2124.85 173.699 Q2124.85 167.94 2122.37 164.584 Q2119.88 161.199 2115.62 161.199 M2115.62 156.685 Q2122.57 156.685 2126.53 161.199 Q2130.5 165.712 2130.5 173.699 Q2130.5 181.656 2126.53 186.198 Q2122.57 190.712 2115.62 190.712 Q2108.65 190.712 2104.69 186.198 Q2100.75 181.656 2100.75 173.699 Q2100.75 165.712 2104.69 161.199 Q2108.65 156.685 2115.62 156.685 Z" fill="#000000" fill-rule="evenodd" fill-opacity="1" /><path clip-path="url(#clip330)" d="M2155.73 144.85 L2155.73 149.277 L2150.64 149.277 Q2147.77 149.277 2146.64 150.435 Q2145.54 151.592 2145.54 154.601 L2145.54 157.466 L2154.31 157.466 L2154.31 161.604 L2145.54 161.604 L2145.54 189.873 L2140.19 189.873 L2140.19 161.604 L2135.1 161.604 L2135.1 157.466 L2140.19 157.466 L2140.19 155.209 Q2140.19 149.798 2142.71 147.339 Q2145.23 144.85 2150.69 144.85 L2155.73 144.85 Z" fill="#000000" fill-rule="evenodd" fill-opacity="1" /><path clip-path="url(#clip330)" d="M2175.2 157.466 L2180.84 157.466 L2190.97 184.665 L2201.1 157.466 L2206.74 157.466 L2194.59 189.873 L2187.35 189.873 L2175.2 157.466 Z" fill="#000000" fill-rule="evenodd" fill-opacity="1" /><path clip-path="url(#clip330)" d="M2228.82 173.583 Q2222.37 173.583 2219.88 175.058 Q2217.39 176.534 2217.39 180.093 Q2217.39 182.929 2219.24 184.607 Q2221.12 186.256 2224.33 186.256 Q2228.76 186.256 2231.42 183.131 Q2234.11 179.977 2234.11 174.769 L2234.11 173.583 L2228.82 173.583 M2239.44 171.384 L2239.44 189.873 L2234.11 189.873 L2234.11 184.954 Q2232.29 187.906 2229.57 189.323 Q2226.85 190.712 2222.92 190.712 Q2217.94 190.712 2214.99 187.935 Q2212.06 185.128 2212.06 180.44 Q2212.06 174.972 2215.71 172.194 Q2219.39 169.416 2226.65 169.416 L2234.11 169.416 L2234.11 168.895 Q2234.11 165.221 2231.68 163.224 Q2229.28 161.199 2224.91 161.199 Q2222.13 161.199 2219.5 161.864 Q2216.87 162.53 2214.44 163.861 L2214.44 158.942 Q2217.36 157.813 2220.11 157.263 Q2222.86 156.685 2225.46 156.685 Q2232.49 156.685 2235.97 160.331 Q2239.44 163.976 2239.44 171.384 Z" fill="#000000" fill-rule="evenodd" fill-opacity="1" /><path clip-path="url(#clip330)" d="M2255.55 185.012 L2255.55 202.2 L2250.2 202.2 L2250.2 157.466 L2255.55 157.466 L2255.55 162.385 Q2257.23 159.491 2259.78 158.103 Q2262.35 156.685 2265.91 156.685 Q2271.82 156.685 2275.49 161.372 Q2279.19 166.06 2279.19 173.699 Q2279.19 181.337 2275.49 186.025 Q2271.82 190.712 2265.91 190.712 Q2262.35 190.712 2259.78 189.323 Q2257.23 187.906 2255.55 185.012 M2273.67 173.699 Q2273.67 167.825 2271.24 164.497 Q2268.84 161.141 2264.61 161.141 Q2260.39 161.141 2257.96 164.497 Q2255.55 167.825 2255.55 173.699 Q2255.55 179.572 2257.96 182.929 Q2260.39 186.256 2264.61 186.256 Q2268.84 186.256 2271.24 182.929 Q2273.67 179.572 2273.67 173.699 Z" fill="#000000" fill-rule="evenodd" fill-opacity="1" /><path clip-path="url(#clip330)" d="M2300.58 161.199 Q2296.29 161.199 2293.81 164.555 Q2291.32 167.883 2291.32 173.699 Q2291.32 179.514 2293.78 182.871 Q2296.27 186.198 2300.58 186.198 Q2304.83 186.198 2307.32 182.842 Q2309.81 179.486 2309.81 173.699 Q2309.81 167.94 2307.32 164.584 Q2304.83 161.199 2300.58 161.199 M2300.58 156.685 Q2307.52 156.685 2311.49 161.199 Q2315.45 165.712 2315.45 173.699 Q2315.45 181.656 2311.49 186.198 Q2307.52 190.712 2300.58 190.712 Q2293.6 190.712 2289.64 186.198 Q2285.7 181.656 2285.7 173.699 Q2285.7 165.712 2289.64 161.199 Q2293.6 156.685 2300.58 156.685 Z" fill="#000000" fill-rule="evenodd" fill-opacity="1" /><path clip-path="url(#clip330)" d="M2343.05 162.443 Q2342.16 161.922 2341.09 161.69 Q2340.04 161.43 2338.77 161.43 Q2334.26 161.43 2331.83 164.381 Q2329.43 167.304 2329.43 172.802 L2329.43 189.873 L2324.07 189.873 L2324.07 157.466 L2329.43 157.466 L2329.43 162.501 Q2331.1 159.549 2333.79 158.131 Q2336.49 156.685 2340.33 156.685 Q2340.88 156.685 2341.55 156.772 Q2342.21 156.829 2343.02 156.974 L2343.05 162.443 Z" fill="#000000" fill-rule="evenodd" fill-opacity="1" /><path clip-path="url(#clip330)" d="M2348.64 157.466 L2353.96 157.466 L2353.96 189.873 L2348.64 189.873 L2348.64 157.466 M2348.64 144.85 L2353.96 144.85 L2353.96 151.592 L2348.64 151.592 L2348.64 144.85 Z" fill="#000000" fill-rule="evenodd" fill-opacity="1" /><path clip-path="url(#clip330)" d="M2362.79 157.466 L2388.08 157.466 L2388.08 162.327 L2368.05 185.62 L2388.08 185.62 L2388.08 189.873 L2362.06 189.873 L2362.06 185.012 L2382.09 161.719 L2362.79 161.719 L2362.79 157.466 Z" fill="#000000" fill-rule="evenodd" fill-opacity="1" /><path clip-path="url(#clip330)" d="M2410.94 173.583 Q2404.48 173.583 2401.99 175.058 Q2399.51 176.534 2399.51 180.093 Q2399.51 182.929 2401.36 184.607 Q2403.24 186.256 2406.45 186.256 Q2410.88 186.256 2413.54 183.131 Q2416.23 179.977 2416.23 174.769 L2416.23 173.583 L2410.94 173.583 M2421.55 171.384 L2421.55 189.873 L2416.23 189.873 L2416.23 184.954 Q2414.41 187.906 2411.69 189.323 Q2408.97 190.712 2405.03 190.712 Q2400.06 190.712 2397.1 187.935 Q2394.18 185.128 2394.18 180.44 Q2394.18 174.972 2397.83 172.194 Q2401.5 169.416 2408.77 169.416 L2416.23 169.416 L2416.23 168.895 Q2416.23 165.221 2413.8 163.224 Q2411.4 161.199 2407.03 161.199 Q2404.25 161.199 2401.62 161.864 Q2398.99 162.53 2396.55 163.861 L2396.55 158.942 Q2399.48 157.813 2402.23 157.263 Q2404.97 156.685 2407.58 156.685 Q2414.61 156.685 2418.08 160.331 Q2421.55 163.976 2421.55 171.384 Z" fill="#000000" fill-rule="evenodd" fill-opacity="1" /><path clip-path="url(#clip330)" d="M2437.79 148.265 L2437.79 157.466 L2448.75 157.466 L2448.75 161.604 L2437.79 161.604 L2437.79 179.196 Q2437.79 183.16 2438.86 184.289 Q2439.96 185.417 2443.28 185.417 L2448.75 185.417 L2448.75 189.873 L2443.28 189.873 Q2437.12 189.873 2434.78 187.587 Q2432.43 185.273 2432.43 179.196 L2432.43 161.604 L2428.53 161.604 L2428.53 157.466 L2432.43 157.466 L2432.43 148.265 L2437.79 148.265 Z" fill="#000000" fill-rule="evenodd" fill-opacity="1" /><path clip-path="url(#clip330)" d="M2455.76 157.466 L2461.08 157.466 L2461.08 189.873 L2455.76 189.873 L2455.76 157.466 M2455.76 144.85 L2461.08 144.85 L2461.08 151.592 L2455.76 151.592 L2455.76 144.85 Z" fill="#000000" fill-rule="evenodd" fill-opacity="1" /><path clip-path="url(#clip330)" d="M2484.78 161.199 Q2480.5 161.199 2478.01 164.555 Q2475.52 167.883 2475.52 173.699 Q2475.52 179.514 2477.98 182.871 Q2480.47 186.198 2484.78 186.198 Q2489.03 186.198 2491.52 182.842 Q2494.01 179.486 2494.01 173.699 Q2494.01 167.94 2491.52 164.584 Q2489.03 161.199 2484.78 161.199 M2484.78 156.685 Q2491.72 156.685 2495.69 161.199 Q2499.65 165.712 2499.65 173.699 Q2499.65 181.656 2495.69 186.198 Q2491.72 190.712 2484.78 190.712 Q2477.8 190.712 2473.84 186.198 Q2469.91 181.656 2469.91 173.699 Q2469.91 165.712 2473.84 161.199 Q2477.8 156.685 2484.78 156.685 Z" fill="#000000" fill-rule="evenodd" fill-opacity="1" /><path clip-path="url(#clip330)" d="M2535.41 170.313 L2535.41 189.873 L2530.09 189.873 L2530.09 170.487 Q2530.09 165.886 2528.3 163.6 Q2526.5 161.314 2522.91 161.314 Q2518.6 161.314 2516.11 164.063 Q2513.63 166.812 2513.63 171.557 L2513.63 189.873 L2508.27 189.873 L2508.27 157.466 L2513.63 157.466 L2513.63 162.501 Q2515.54 159.578 2518.11 158.131 Q2520.71 156.685 2524.1 156.685 Q2529.68 156.685 2532.55 160.157 Q2535.41 163.6 2535.41 170.313 Z" fill="#000000" fill-rule="evenodd" fill-opacity="1" /><circle clip-path="url(#clip330)" cx="1636.9" cy="233.073" r="28.8" fill="#e26f46" fill-rule="evenodd" fill-opacity="1" stroke="#000000" stroke-opacity="1" stroke-width="5.12"/>
<path clip-path="url(#clip330)" d="M1777.08 214.801 L1777.08 220.964 Q1774.13 218.215 1770.78 216.855 Q1767.45 215.495 1763.69 215.495 Q1756.28 215.495 1752.35 220.038 Q1748.41 224.552 1748.41 233.117 Q1748.41 241.652 1752.35 246.195 Q1756.28 250.709 1763.69 250.709 Q1767.45 250.709 1770.78 249.349 Q1774.13 247.989 1777.08 245.24 L1777.08 251.346 Q1774.02 253.429 1770.57 254.471 Q1767.16 255.512 1763.34 255.512 Q1753.53 255.512 1747.89 249.523 Q1742.25 243.504 1742.25 233.117 Q1742.25 222.7 1747.89 216.71 Q1753.53 210.692 1763.34 210.692 Q1767.22 210.692 1770.63 211.734 Q1774.08 212.746 1777.08 214.801 Z" fill="#000000" fill-rule="evenodd" fill-opacity="1" /><path clip-path="url(#clip330)" d="M1804.66 227.243 Q1803.76 226.722 1802.69 226.49 Q1801.65 226.23 1800.38 226.23 Q1795.86 226.23 1793.43 229.181 Q1791.03 232.104 1791.03 237.602 L1791.03 254.673 L1785.68 254.673 L1785.68 222.266 L1791.03 222.266 L1791.03 227.301 Q1792.71 224.349 1795.4 222.931 Q1798.09 221.485 1801.94 221.485 Q1802.49 221.485 1803.16 221.572 Q1803.82 221.629 1804.63 221.774 L1804.66 227.243 Z" fill="#000000" fill-rule="evenodd" fill-opacity="1" /><path clip-path="url(#clip330)" d="M1810.24 222.266 L1815.57 222.266 L1815.57 254.673 L1810.24 254.673 L1810.24 222.266 M1810.24 209.65 L1815.57 209.65 L1815.57 216.392 L1810.24 216.392 L1810.24 209.65 Z" fill="#000000" fill-rule="evenodd" fill-opacity="1" /><path clip-path="url(#clip330)" d="M1831.97 213.065 L1831.97 222.266 L1842.94 222.266 L1842.94 226.404 L1831.97 226.404 L1831.97 243.996 Q1831.97 247.96 1833.05 249.089 Q1834.14 250.217 1837.47 250.217 L1842.94 250.217 L1842.94 254.673 L1837.47 254.673 Q1831.31 254.673 1828.97 252.387 Q1826.62 250.073 1826.62 243.996 L1826.62 226.404 L1822.72 226.404 L1822.72 222.266 L1826.62 222.266 L1826.62 213.065 L1831.97 213.065 Z" fill="#000000" fill-rule="evenodd" fill-opacity="1" /><path clip-path="url(#clip330)" d="M1849.94 222.266 L1855.27 222.266 L1855.27 254.673 L1849.94 254.673 L1849.94 222.266 M1849.94 209.65 L1855.27 209.65 L1855.27 216.392 L1849.94 216.392 L1849.94 209.65 Z" fill="#000000" fill-rule="evenodd" fill-opacity="1" /><path clip-path="url(#clip330)" d="M1889.73 223.51 L1889.73 228.487 Q1887.47 227.243 1885.19 226.635 Q1882.93 225.999 1880.61 225.999 Q1875.43 225.999 1872.57 229.297 Q1869.71 232.567 1869.71 238.499 Q1869.71 244.43 1872.57 247.729 Q1875.43 250.998 1880.61 250.998 Q1882.93 250.998 1885.19 250.391 Q1887.47 249.754 1889.73 248.51 L1889.73 253.429 Q1887.5 254.471 1885.1 254.991 Q1882.73 255.512 1880.04 255.512 Q1872.71 255.512 1868.4 250.912 Q1864.09 246.311 1864.09 238.499 Q1864.09 230.57 1868.43 226.028 Q1872.8 221.485 1880.38 221.485 Q1882.84 221.485 1885.19 222.006 Q1887.53 222.497 1889.73 223.51 Z" fill="#000000" fill-rule="evenodd" fill-opacity="1" /><path clip-path="url(#clip330)" d="M1913.72 238.383 Q1907.26 238.383 1904.77 239.858 Q1902.29 241.334 1902.29 244.893 Q1902.29 247.729 1904.14 249.407 Q1906.02 251.056 1909.23 251.056 Q1913.66 251.056 1916.32 247.931 Q1919.01 244.777 1919.01 239.569 L1919.01 238.383 L1913.72 238.383 M1924.34 236.184 L1924.34 254.673 L1919.01 254.673 L1919.01 249.754 Q1917.19 252.706 1914.47 254.123 Q1911.75 255.512 1907.81 255.512 Q1902.84 255.512 1899.88 252.735 Q1896.96 249.928 1896.96 245.24 Q1896.96 239.772 1900.61 236.994 Q1904.28 234.216 1911.55 234.216 L1919.01 234.216 L1919.01 233.695 Q1919.01 230.021 1916.58 228.024 Q1914.18 225.999 1909.81 225.999 Q1907.03 225.999 1904.4 226.664 Q1901.77 227.33 1899.34 228.661 L1899.34 223.742 Q1902.26 222.613 1905.01 222.063 Q1907.76 221.485 1910.36 221.485 Q1917.39 221.485 1920.86 225.131 Q1924.34 228.776 1924.34 236.184 Z" fill="#000000" fill-rule="evenodd" fill-opacity="1" /><path clip-path="url(#clip330)" d="M1935.3 209.65 L1940.63 209.65 L1940.63 254.673 L1935.3 254.673 L1935.3 209.65 Z" fill="#000000" fill-rule="evenodd" fill-opacity="1" /><path clip-path="url(#clip330)" d="M1975.75 249.812 L1975.75 267 L1970.4 267 L1970.4 222.266 L1975.75 222.266 L1975.75 227.185 Q1977.43 224.291 1979.98 222.903 Q1982.55 221.485 1986.11 221.485 Q1992.01 221.485 1995.69 226.172 Q1999.39 230.86 1999.39 238.499 Q1999.39 246.137 1995.69 250.825 Q1992.01 255.512 1986.11 255.512 Q1982.55 255.512 1979.98 254.123 Q1977.43 252.706 1975.75 249.812 M1993.87 238.499 Q1993.87 232.625 1991.44 229.297 Q1989.03 225.941 1984.81 225.941 Q1980.58 225.941 1978.15 229.297 Q1975.75 232.625 1975.75 238.499 Q1975.75 244.372 1978.15 247.729 Q1980.58 251.056 1984.81 251.056 Q1989.03 251.056 1991.44 247.729 Q1993.87 244.372 1993.87 238.499 Z" fill="#000000" fill-rule="evenodd" fill-opacity="1" /><path clip-path="url(#clip330)" d="M2020.78 225.999 Q2016.49 225.999 2014 229.355 Q2011.52 232.683 2011.52 238.499 Q2011.52 244.314 2013.98 247.671 Q2016.46 250.998 2020.78 250.998 Q2025.03 250.998 2027.52 247.642 Q2030.01 244.286 2030.01 238.499 Q2030.01 232.74 2027.52 229.384 Q2025.03 225.999 2020.78 225.999 M2020.78 221.485 Q2027.72 221.485 2031.68 225.999 Q2035.65 230.512 2035.65 238.499 Q2035.65 246.456 2031.68 250.998 Q2027.72 255.512 2020.78 255.512 Q2013.8 255.512 2009.84 250.998 Q2005.9 246.456 2005.9 238.499 Q2005.9 230.512 2009.84 225.999 Q2013.8 221.485 2020.78 221.485 Z" fill="#000000" fill-rule="evenodd" fill-opacity="1" /><path clip-path="url(#clip330)" d="M2044.47 222.266 L2049.8 222.266 L2049.8 254.673 L2044.47 254.673 L2044.47 222.266 M2044.47 209.65 L2049.8 209.65 L2049.8 216.392 L2044.47 216.392 L2044.47 209.65 Z" fill="#000000" fill-rule="evenodd" fill-opacity="1" /><path clip-path="url(#clip330)" d="M2087.88 235.113 L2087.88 254.673 L2082.55 254.673 L2082.55 235.287 Q2082.55 230.686 2080.76 228.4 Q2078.96 226.114 2075.38 226.114 Q2071.06 226.114 2068.58 228.863 Q2066.09 231.612 2066.09 236.357 L2066.09 254.673 L2060.73 254.673 L2060.73 222.266 L2066.09 222.266 L2066.09 227.301 Q2068 224.378 2070.57 222.931 Q2073.18 221.485 2076.56 221.485 Q2082.15 221.485 2085.01 224.957 Q2087.88 228.4 2087.88 235.113 Z" fill="#000000" fill-rule="evenodd" fill-opacity="1" /><path clip-path="url(#clip330)" d="M2103.76 213.065 L2103.76 222.266 L2114.73 222.266 L2114.73 226.404 L2103.76 226.404 L2103.76 243.996 Q2103.76 247.96 2104.83 249.089 Q2105.93 250.217 2109.26 250.217 L2114.73 250.217 L2114.73 254.673 L2109.26 254.673 Q2103.1 254.673 2100.75 252.387 Q2098.41 250.073 2098.41 243.996 L2098.41 226.404 L2094.5 226.404 L2094.5 222.266 L2098.41 222.266 L2098.41 213.065 L2103.76 213.065 Z" fill="#000000" fill-rule="evenodd" fill-opacity="1" /></svg>
