<?xml version="1.0" encoding="utf-8"?>
<svg xmlns="http://www.w3.org/2000/svg" xmlns:xlink="http://www.w3.org/1999/xlink" width="672" height="480" viewBox="0 0 2688 1920">
<defs>
  <clipPath id="clip850">
    <rect x="0" y="0" width="2688" height="1920"/>
  </clipPath>
</defs>
<path clip-path="url(#clip850)" d="M0 1920 L2688 1920 L2688 0 L0 0  Z" fill="#ffffff" fill-rule="evenodd" fill-opacity="1"/>
<defs>
  <clipPath id="clip851">
    <rect x="537" y="0" width="1883" height="1883"/>
  </clipPath>
</defs>
<path clip-path="url(#clip850)" d="M270.562 1734.12 L2640.76 1734.12 L2640.76 47.2441 L270.562 47.2441  Z" fill="#ffffff" fill-rule="evenodd" fill-opacity="1"/>
<defs>
  <clipPath id="clip852">
    <rect x="270" y="47" width="2371" height="1688"/>
  </clipPath>
</defs>
<polyline clip-path="url(#clip852)" style="stroke:#5f9ea0; stroke-linecap:round; stroke-linejoin:round; stroke-width:8; stroke-opacity:0.4; fill:none" stroke-dasharray="32, 16, 4, 16" points="498.138,1734.12 498.138,47.2441 "/>
<polyline clip-path="url(#clip852)" style="stroke:#5f9ea0; stroke-linecap:round; stroke-linejoin:round; stroke-width:8; stroke-opacity:0.4; fill:none" stroke-dasharray="32, 16, 4, 16" points="1096.11,1734.12 1096.11,47.2441 "/>
<polyline clip-path="url(#clip852)" style="stroke:#5f9ea0; stroke-linecap:round; stroke-linejoin:round; stroke-width:8; stroke-opacity:0.4; fill:none" stroke-dasharray="32, 16, 4, 16" points="1694.08,1734.12 1694.08,47.2441 "/>
<polyline clip-path="url(#clip852)" style="stroke:#5f9ea0; stroke-linecap:round; stroke-linejoin:round; stroke-width:8; stroke-opacity:0.4; fill:none" stroke-dasharray="32, 16, 4, 16" points="2292.05,1734.12 2292.05,47.2441 "/>
<polyline clip-path="url(#clip850)" style="stroke:#000000; stroke-linecap:round; stroke-linejoin:round; stroke-width:4; stroke-opacity:1; fill:none" points="270.562,1734.12 2640.76,1734.12 "/>
<polyline clip-path="url(#clip850)" style="stroke:#000000; stroke-linecap:round; stroke-linejoin:round; stroke-width:4; stroke-opacity:1; fill:none" points="270.562,47.2441 2640.76,47.2441 "/>
<polyline clip-path="url(#clip850)" style="stroke:#000000; stroke-linecap:round; stroke-linejoin:round; stroke-width:4; stroke-opacity:1; fill:none" points="498.138,1734.12 498.138,1715.22 "/>
<polyline clip-path="url(#clip850)" style="stroke:#000000; stroke-linecap:round; stroke-linejoin:round; stroke-width:4; stroke-opacity:1; fill:none" points="1096.11,1734.12 1096.11,1715.22 "/>
<polyline clip-path="url(#clip850)" style="stroke:#000000; stroke-linecap:round; stroke-linejoin:round; stroke-width:4; stroke-opacity:1; fill:none" points="1694.08,1734.12 1694.08,1715.22 "/>
<polyline clip-path="url(#clip850)" style="stroke:#000000; stroke-linecap:round; stroke-linejoin:round; stroke-width:4; stroke-opacity:1; fill:none" points="2292.05,1734.12 2292.05,1715.22 "/>
<path clip-path="url(#clip850)" d="M471.9 1780.19 Q475.256 1780.9 477.131 1783.17 Q479.03 1785.44 479.03 1788.77 Q479.03 1793.89 475.511 1796.69 Q471.993 1799.49 465.511 1799.49 Q463.335 1799.49 461.02 1799.05 Q458.729 1798.64 456.275 1797.78 L456.275 1793.27 Q458.219 1794.4 460.534 1794.98 Q462.849 1795.56 465.372 1795.56 Q469.77 1795.56 472.062 1793.82 Q474.377 1792.08 474.377 1788.77 Q474.377 1785.72 472.224 1784.01 Q470.094 1782.27 466.275 1782.27 L462.247 1782.27 L462.247 1778.43 L466.46 1778.43 Q469.909 1778.43 471.738 1777.06 Q473.567 1775.67 473.567 1773.08 Q473.567 1770.42 471.668 1769.01 Q469.793 1767.57 466.275 1767.57 Q464.354 1767.57 462.155 1767.99 Q459.956 1768.4 457.317 1769.28 L457.317 1765.12 Q459.979 1764.38 462.294 1764.01 Q464.631 1763.64 466.692 1763.64 Q472.016 1763.64 475.118 1766.07 Q478.219 1768.47 478.219 1772.59 Q478.219 1775.46 476.576 1777.46 Q474.932 1779.42 471.9 1780.19 Z" fill="#000000" fill-rule="evenodd" fill-opacity="1" /><path clip-path="url(#clip850)" d="M497.895 1767.34 Q494.284 1767.34 492.455 1770.9 Q490.65 1774.45 490.65 1781.58 Q490.65 1788.68 492.455 1792.25 Q494.284 1795.79 497.895 1795.79 Q501.529 1795.79 503.335 1792.25 Q505.164 1788.68 505.164 1781.58 Q505.164 1774.45 503.335 1770.9 Q501.529 1767.34 497.895 1767.34 M497.895 1763.64 Q503.705 1763.64 506.761 1768.24 Q509.84 1772.83 509.84 1781.58 Q509.84 1790.3 506.761 1794.91 Q503.705 1799.49 497.895 1799.49 Q492.085 1799.49 489.006 1794.91 Q485.951 1790.3 485.951 1781.58 Q485.951 1772.83 489.006 1768.24 Q492.085 1763.64 497.895 1763.64 Z" fill="#000000" fill-rule="evenodd" fill-opacity="1" /><path clip-path="url(#clip850)" d="M528.057 1767.34 Q524.446 1767.34 522.617 1770.9 Q520.812 1774.45 520.812 1781.58 Q520.812 1788.68 522.617 1792.25 Q524.446 1795.79 528.057 1795.79 Q531.691 1795.79 533.497 1792.25 Q535.326 1788.68 535.326 1781.58 Q535.326 1774.45 533.497 1770.9 Q531.691 1767.34 528.057 1767.34 M528.057 1763.64 Q533.867 1763.64 536.923 1768.24 Q540.001 1772.83 540.001 1781.58 Q540.001 1790.3 536.923 1794.91 Q533.867 1799.49 528.057 1799.49 Q522.247 1799.49 519.168 1794.91 Q516.113 1790.3 516.113 1781.58 Q516.113 1772.83 519.168 1768.24 Q522.247 1763.64 528.057 1763.64 Z" fill="#000000" fill-rule="evenodd" fill-opacity="1" /><path clip-path="url(#clip850)" d="M1069.2 1768.34 L1057.4 1786.78 L1069.2 1786.78 L1069.2 1768.34 M1067.97 1764.26 L1073.85 1764.26 L1073.85 1786.78 L1078.78 1786.78 L1078.78 1790.67 L1073.85 1790.67 L1073.85 1798.82 L1069.2 1798.82 L1069.2 1790.67 L1053.6 1790.67 L1053.6 1786.16 L1067.97 1764.26 Z" fill="#000000" fill-rule="evenodd" fill-opacity="1" /><path clip-path="url(#clip850)" d="M1096.52 1767.34 Q1092.9 1767.34 1091.08 1770.9 Q1089.27 1774.45 1089.27 1781.58 Q1089.27 1788.68 1091.08 1792.25 Q1092.9 1795.79 1096.52 1795.79 Q1100.15 1795.79 1101.96 1792.25 Q1103.78 1788.68 1103.78 1781.58 Q1103.78 1774.45 1101.96 1770.9 Q1100.15 1767.34 1096.52 1767.34 M1096.52 1763.64 Q1102.33 1763.64 1105.38 1768.24 Q1108.46 1772.83 1108.46 1781.58 Q1108.46 1790.3 1105.38 1794.91 Q1102.33 1799.49 1096.52 1799.49 Q1090.71 1799.49 1087.63 1794.91 Q1084.57 1790.3 1084.57 1781.58 Q1084.57 1772.83 1087.63 1768.24 Q1090.71 1763.64 1096.52 1763.64 Z" fill="#000000" fill-rule="evenodd" fill-opacity="1" /><path clip-path="url(#clip850)" d="M1126.68 1767.34 Q1123.07 1767.34 1121.24 1770.9 Q1119.43 1774.45 1119.43 1781.58 Q1119.43 1788.68 1121.24 1792.25 Q1123.07 1795.79 1126.68 1795.79 Q1130.31 1795.79 1132.12 1792.25 Q1133.95 1788.68 1133.95 1781.58 Q1133.95 1774.45 1132.12 1770.9 Q1130.31 1767.34 1126.68 1767.34 M1126.68 1763.64 Q1132.49 1763.64 1135.54 1768.24 Q1138.62 1772.83 1138.62 1781.58 Q1138.62 1790.3 1135.54 1794.91 Q1132.49 1799.49 1126.68 1799.49 Q1120.87 1799.49 1117.79 1794.91 Q1114.73 1790.3 1114.73 1781.58 Q1114.73 1772.83 1117.79 1768.24 Q1120.87 1763.64 1126.68 1763.64 Z" fill="#000000" fill-rule="evenodd" fill-opacity="1" /><path clip-path="url(#clip850)" d="M1653.7 1764.26 L1672.06 1764.26 L1672.06 1768.2 L1657.98 1768.2 L1657.98 1776.67 Q1659 1776.32 1660.02 1776.16 Q1661.04 1775.97 1662.06 1775.97 Q1667.84 1775.97 1671.22 1779.15 Q1674.6 1782.32 1674.6 1787.73 Q1674.6 1793.31 1671.13 1796.41 Q1667.66 1799.49 1661.34 1799.49 Q1659.16 1799.49 1656.89 1799.12 Q1654.65 1798.75 1652.24 1798.01 L1652.24 1793.31 Q1654.33 1794.45 1656.55 1795 Q1658.77 1795.56 1661.25 1795.56 Q1665.25 1795.56 1667.59 1793.45 Q1669.93 1791.34 1669.93 1787.73 Q1669.93 1784.12 1667.59 1782.02 Q1665.25 1779.91 1661.25 1779.91 Q1659.37 1779.91 1657.5 1780.33 Q1655.64 1780.74 1653.7 1781.62 L1653.7 1764.26 Z" fill="#000000" fill-rule="evenodd" fill-opacity="1" /><path clip-path="url(#clip850)" d="M1693.82 1767.34 Q1690.2 1767.34 1688.38 1770.9 Q1686.57 1774.45 1686.57 1781.58 Q1686.57 1788.68 1688.38 1792.25 Q1690.2 1795.79 1693.82 1795.79 Q1697.45 1795.79 1699.26 1792.25 Q1701.08 1788.68 1701.08 1781.58 Q1701.08 1774.45 1699.26 1770.9 Q1697.45 1767.34 1693.82 1767.34 M1693.82 1763.64 Q1699.63 1763.64 1702.68 1768.24 Q1705.76 1772.83 1705.76 1781.58 Q1705.76 1790.3 1702.68 1794.91 Q1699.63 1799.49 1693.82 1799.49 Q1688.01 1799.49 1684.93 1794.91 Q1681.87 1790.3 1681.87 1781.58 Q1681.87 1772.83 1684.93 1768.24 Q1688.01 1763.64 1693.82 1763.64 Z" fill="#000000" fill-rule="evenodd" fill-opacity="1" /><path clip-path="url(#clip850)" d="M1723.98 1767.34 Q1720.37 1767.34 1718.54 1770.9 Q1716.73 1774.45 1716.73 1781.58 Q1716.73 1788.68 1718.54 1792.25 Q1720.37 1795.79 1723.98 1795.79 Q1727.61 1795.79 1729.42 1792.25 Q1731.25 1788.68 1731.25 1781.58 Q1731.25 1774.45 1729.42 1770.9 Q1727.61 1767.34 1723.98 1767.34 M1723.98 1763.64 Q1729.79 1763.64 1732.84 1768.24 Q1735.92 1772.83 1735.92 1781.58 Q1735.92 1790.3 1732.84 1794.91 Q1729.79 1799.49 1723.98 1799.49 Q1718.17 1799.49 1715.09 1794.91 Q1712.03 1790.3 1712.03 1781.58 Q1712.03 1772.83 1715.09 1768.24 Q1718.17 1763.64 1723.98 1763.64 Z" fill="#000000" fill-rule="evenodd" fill-opacity="1" /><path clip-path="url(#clip850)" d="M2262.38 1779.68 Q2259.23 1779.68 2257.38 1781.83 Q2255.55 1783.98 2255.55 1787.73 Q2255.55 1791.46 2257.38 1793.64 Q2259.23 1795.79 2262.38 1795.79 Q2265.53 1795.79 2267.36 1793.64 Q2269.21 1791.46 2269.21 1787.73 Q2269.21 1783.98 2267.36 1781.83 Q2265.53 1779.68 2262.38 1779.68 M2271.66 1765.02 L2271.66 1769.28 Q2269.9 1768.45 2268.1 1768.01 Q2266.31 1767.57 2264.55 1767.57 Q2259.92 1767.57 2257.47 1770.7 Q2255.04 1773.82 2254.69 1780.14 Q2256.06 1778.13 2258.12 1777.06 Q2260.18 1775.97 2262.66 1775.97 Q2267.86 1775.97 2270.87 1779.15 Q2273.91 1782.29 2273.91 1787.73 Q2273.91 1793.06 2270.76 1796.27 Q2267.61 1799.49 2262.38 1799.49 Q2256.38 1799.49 2253.21 1794.91 Q2250.04 1790.3 2250.04 1781.58 Q2250.04 1773.38 2253.93 1768.52 Q2257.82 1763.64 2264.37 1763.64 Q2266.13 1763.64 2267.91 1763.98 Q2269.72 1764.33 2271.66 1765.02 Z" fill="#000000" fill-rule="evenodd" fill-opacity="1" /><path clip-path="url(#clip850)" d="M2291.96 1767.34 Q2288.35 1767.34 2286.52 1770.9 Q2284.72 1774.45 2284.72 1781.58 Q2284.72 1788.68 2286.52 1792.25 Q2288.35 1795.79 2291.96 1795.79 Q2295.6 1795.79 2297.4 1792.25 Q2299.23 1788.68 2299.23 1781.58 Q2299.23 1774.45 2297.4 1770.9 Q2295.6 1767.34 2291.96 1767.34 M2291.96 1763.64 Q2297.77 1763.64 2300.83 1768.24 Q2303.91 1772.83 2303.91 1781.58 Q2303.91 1790.3 2300.83 1794.91 Q2297.77 1799.49 2291.96 1799.49 Q2286.15 1799.49 2283.07 1794.91 Q2280.02 1790.3 2280.02 1781.58 Q2280.02 1772.83 2283.07 1768.24 Q2286.15 1763.64 2291.96 1763.64 Z" fill="#000000" fill-rule="evenodd" fill-opacity="1" /><path clip-path="url(#clip850)" d="M2322.12 1767.34 Q2318.51 1767.34 2316.68 1770.9 Q2314.88 1774.45 2314.88 1781.58 Q2314.88 1788.68 2316.68 1792.25 Q2318.51 1795.79 2322.12 1795.79 Q2325.76 1795.79 2327.56 1792.25 Q2329.39 1788.68 2329.39 1781.58 Q2329.39 1774.45 2327.56 1770.9 Q2325.76 1767.34 2322.12 1767.34 M2322.12 1763.64 Q2327.93 1763.64 2330.99 1768.24 Q2334.07 1772.83 2334.07 1781.58 Q2334.07 1790.3 2330.99 1794.91 Q2327.93 1799.49 2322.12 1799.49 Q2316.31 1799.49 2313.23 1794.91 Q2310.18 1790.3 2310.18 1781.58 Q2310.18 1772.83 2313.23 1768.24 Q2316.31 1763.64 2322.12 1763.64 Z" fill="#000000" fill-rule="evenodd" fill-opacity="1" /><path clip-path="url(#clip850)" d="M1194.74 1835.78 L1234.94 1835.78 L1234.94 1841.19 L1218.07 1841.19 L1218.07 1883.3 L1211.61 1883.3 L1211.61 1841.19 L1194.74 1841.19 L1194.74 1835.78 Z" fill="#000000" fill-rule="evenodd" fill-opacity="1" /><path clip-path="url(#clip850)" d="M1260.31 1864.01 L1260.31 1866.88 L1233.38 1866.88 Q1233.77 1872.92 1237.01 1876.11 Q1240.29 1879.26 1246.12 1879.26 Q1249.49 1879.26 1252.64 1878.43 Q1255.82 1877.6 1258.94 1875.95 L1258.94 1881.49 Q1255.79 1882.82 1252.48 1883.52 Q1249.17 1884.22 1245.77 1884.22 Q1237.24 1884.22 1232.24 1879.26 Q1227.27 1874.29 1227.27 1865.83 Q1227.27 1857.07 1231.98 1851.95 Q1236.73 1846.79 1244.75 1846.79 Q1251.94 1846.79 1256.11 1851.44 Q1260.31 1856.06 1260.31 1864.01 M1254.45 1862.29 Q1254.39 1857.49 1251.75 1854.62 Q1249.14 1851.76 1244.81 1851.76 Q1239.91 1851.76 1236.95 1854.53 Q1234.02 1857.3 1233.58 1862.33 L1254.45 1862.29 Z" fill="#000000" fill-rule="evenodd" fill-opacity="1" /><path clip-path="url(#clip850)" d="M1297.68 1854.5 Q1299.87 1850.55 1302.93 1848.67 Q1305.99 1846.79 1310.12 1846.79 Q1315.69 1846.79 1318.72 1850.71 Q1321.74 1854.59 1321.74 1861.78 L1321.74 1883.3 L1315.85 1883.3 L1315.85 1861.98 Q1315.85 1856.85 1314.04 1854.37 Q1312.22 1851.89 1308.5 1851.89 Q1303.95 1851.89 1301.31 1854.91 Q1298.66 1857.93 1298.66 1863.15 L1298.66 1883.3 L1292.78 1883.3 L1292.78 1861.98 Q1292.78 1856.82 1290.96 1854.37 Q1289.15 1851.89 1285.36 1851.89 Q1280.87 1851.89 1278.23 1854.94 Q1275.59 1857.97 1275.59 1863.15 L1275.59 1883.3 L1269.7 1883.3 L1269.7 1847.65 L1275.59 1847.65 L1275.59 1853.19 Q1277.59 1849.91 1280.39 1848.35 Q1283.2 1846.79 1287.05 1846.79 Q1290.93 1846.79 1293.64 1848.77 Q1296.37 1850.74 1297.68 1854.5 Z" fill="#000000" fill-rule="evenodd" fill-opacity="1" /><path clip-path="url(#clip850)" d="M1339.09 1877.95 L1339.09 1896.86 L1333.2 1896.86 L1333.2 1847.65 L1339.09 1847.65 L1339.09 1853.06 Q1340.93 1849.88 1343.73 1848.35 Q1346.57 1846.79 1350.48 1846.79 Q1356.97 1846.79 1361.02 1851.95 Q1365.09 1857.11 1365.09 1865.51 Q1365.09 1873.91 1361.02 1879.07 Q1356.97 1884.22 1350.48 1884.22 Q1346.57 1884.22 1343.73 1882.7 Q1340.93 1881.14 1339.09 1877.95 M1359.01 1865.51 Q1359.01 1859.05 1356.34 1855.39 Q1353.7 1851.7 1349.05 1851.7 Q1344.4 1851.7 1341.73 1855.39 Q1339.09 1859.05 1339.09 1865.51 Q1339.09 1871.97 1341.73 1875.66 Q1344.4 1879.32 1349.05 1879.32 Q1353.7 1879.32 1356.34 1875.66 Q1359.01 1871.97 1359.01 1865.51 Z" fill="#000000" fill-rule="evenodd" fill-opacity="1" /><path clip-path="url(#clip850)" d="M1405.29 1864.01 L1405.29 1866.88 L1378.36 1866.88 Q1378.75 1872.92 1381.99 1876.11 Q1385.27 1879.26 1391.09 1879.26 Q1394.47 1879.26 1397.62 1878.43 Q1400.8 1877.6 1403.92 1875.95 L1403.92 1881.49 Q1400.77 1882.82 1397.46 1883.52 Q1394.15 1884.22 1390.74 1884.22 Q1382.21 1884.22 1377.22 1879.26 Q1372.25 1874.29 1372.25 1865.83 Q1372.25 1857.07 1376.96 1851.95 Q1381.71 1846.79 1389.73 1846.79 Q1396.92 1846.79 1401.09 1851.44 Q1405.29 1856.06 1405.29 1864.01 M1399.43 1862.29 Q1399.37 1857.49 1396.73 1854.62 Q1394.12 1851.76 1389.79 1851.76 Q1384.89 1851.76 1381.93 1854.53 Q1379 1857.3 1378.55 1862.33 L1399.43 1862.29 Z" fill="#000000" fill-rule="evenodd" fill-opacity="1" /><path clip-path="url(#clip850)" d="M1435.56 1853.13 Q1434.57 1852.55 1433.39 1852.3 Q1432.25 1852.01 1430.85 1852.01 Q1425.88 1852.01 1423.21 1855.26 Q1420.57 1858.47 1420.57 1864.52 L1420.57 1883.3 L1414.68 1883.3 L1414.68 1847.65 L1420.57 1847.65 L1420.57 1853.19 Q1422.41 1849.94 1425.37 1848.39 Q1428.33 1846.79 1432.57 1846.79 Q1433.17 1846.79 1433.9 1846.89 Q1434.64 1846.95 1435.53 1847.11 L1435.56 1853.13 Z" fill="#000000" fill-rule="evenodd" fill-opacity="1" /><path clip-path="url(#clip850)" d="M1457.9 1865.38 Q1450.8 1865.38 1448.07 1867 Q1445.33 1868.63 1445.33 1872.54 Q1445.33 1875.66 1447.37 1877.51 Q1449.44 1879.32 1452.97 1879.32 Q1457.84 1879.32 1460.77 1875.88 Q1463.73 1872.42 1463.73 1866.69 L1463.73 1865.38 L1457.9 1865.38 M1469.58 1862.96 L1469.58 1883.3 L1463.73 1883.3 L1463.73 1877.89 Q1461.72 1881.14 1458.73 1882.7 Q1455.74 1884.22 1451.41 1884.22 Q1445.94 1884.22 1442.69 1881.17 Q1439.47 1878.08 1439.47 1872.92 Q1439.47 1866.91 1443.48 1863.85 Q1447.53 1860.8 1455.52 1860.8 L1463.73 1860.8 L1463.73 1860.23 Q1463.73 1856.18 1461.05 1853.99 Q1458.41 1851.76 1453.61 1851.76 Q1450.55 1851.76 1447.65 1852.49 Q1444.76 1853.22 1442.08 1854.69 L1442.08 1849.28 Q1445.3 1848.03 1448.32 1847.43 Q1451.35 1846.79 1454.21 1846.79 Q1461.94 1846.79 1465.76 1850.8 Q1469.58 1854.81 1469.58 1862.96 Z" fill="#000000" fill-rule="evenodd" fill-opacity="1" /><path clip-path="url(#clip850)" d="M1487.44 1837.53 L1487.44 1847.65 L1499.5 1847.65 L1499.5 1852.2 L1487.44 1852.2 L1487.44 1871.56 Q1487.44 1875.92 1488.62 1877.16 Q1489.83 1878.4 1493.49 1878.4 L1499.5 1878.4 L1499.5 1883.3 L1493.49 1883.3 Q1486.71 1883.3 1484.13 1880.79 Q1481.55 1878.24 1481.55 1871.56 L1481.55 1852.2 L1477.25 1852.2 L1477.25 1847.65 L1481.55 1847.65 L1481.55 1837.53 L1487.44 1837.53 Z" fill="#000000" fill-rule="evenodd" fill-opacity="1" /><path clip-path="url(#clip850)" d="M1506.6 1869.23 L1506.6 1847.65 L1512.46 1847.65 L1512.46 1869.01 Q1512.46 1874.07 1514.43 1876.62 Q1516.4 1879.13 1520.35 1879.13 Q1525.09 1879.13 1527.83 1876.11 Q1530.6 1873.08 1530.6 1867.86 L1530.6 1847.65 L1536.46 1847.65 L1536.46 1883.3 L1530.6 1883.3 L1530.6 1877.83 Q1528.47 1881.07 1525.63 1882.66 Q1522.83 1884.22 1519.11 1884.22 Q1512.97 1884.22 1509.78 1880.4 Q1506.6 1876.59 1506.6 1869.23 M1521.34 1846.79 L1521.34 1846.79 Z" fill="#000000" fill-rule="evenodd" fill-opacity="1" /><path clip-path="url(#clip850)" d="M1569.18 1853.13 Q1568.19 1852.55 1567.01 1852.3 Q1565.87 1852.01 1564.46 1852.01 Q1559.5 1852.01 1556.83 1855.26 Q1554.18 1858.47 1554.18 1864.52 L1554.18 1883.3 L1548.3 1883.3 L1548.3 1847.65 L1554.18 1847.65 L1554.18 1853.19 Q1556.03 1849.94 1558.99 1848.39 Q1561.95 1846.79 1566.18 1846.79 Q1566.79 1846.79 1567.52 1846.89 Q1568.25 1846.95 1569.14 1847.11 L1569.18 1853.13 Z" fill="#000000" fill-rule="evenodd" fill-opacity="1" /><path clip-path="url(#clip850)" d="M1604.38 1864.01 L1604.38 1866.88 L1577.45 1866.88 Q1577.83 1872.92 1581.08 1876.11 Q1584.36 1879.26 1590.18 1879.26 Q1593.56 1879.26 1596.71 1878.43 Q1599.89 1877.6 1603.01 1875.95 L1603.01 1881.49 Q1599.86 1882.82 1596.55 1883.52 Q1593.24 1884.22 1589.83 1884.22 Q1581.3 1884.22 1576.3 1879.26 Q1571.34 1874.29 1571.34 1865.83 Q1571.34 1857.07 1576.05 1851.95 Q1580.79 1846.79 1588.81 1846.79 Q1596.01 1846.79 1600.18 1851.44 Q1604.38 1856.06 1604.38 1864.01 M1598.52 1862.29 Q1598.46 1857.49 1595.82 1854.62 Q1593.21 1851.76 1588.88 1851.76 Q1583.98 1851.76 1581.02 1854.53 Q1578.09 1857.3 1577.64 1862.33 L1598.52 1862.29 Z" fill="#000000" fill-rule="evenodd" fill-opacity="1" /><path clip-path="url(#clip850)" d="M1634.17 1833.78 L1647.66 1833.78 L1647.66 1838.33 L1640.03 1838.33 L1640.03 1887.34 L1647.66 1887.34 L1647.66 1891.89 L1634.17 1891.89 L1634.17 1833.78 Z" fill="#000000" fill-rule="evenodd" fill-opacity="1" /><path clip-path="url(#clip850)" d="M1660.4 1835.78 L1666.83 1835.78 L1666.83 1855.86 L1688.15 1835.78 L1696.43 1835.78 L1672.84 1857.93 L1698.11 1883.3 L1689.65 1883.3 L1666.83 1860.42 L1666.83 1883.3 L1660.4 1883.3 L1660.4 1835.78 Z" fill="#000000" fill-rule="evenodd" fill-opacity="1" /><path clip-path="url(#clip850)" d="M1716.57 1833.78 L1716.57 1891.89 L1703.08 1891.89 L1703.08 1887.34 L1710.68 1887.34 L1710.68 1838.33 L1703.08 1838.33 L1703.08 1833.78 L1716.57 1833.78 Z" fill="#000000" fill-rule="evenodd" fill-opacity="1" /><polyline clip-path="url(#clip852)" style="stroke:#5f9ea0; stroke-linecap:round; stroke-linejoin:round; stroke-width:8; stroke-opacity:0.4; fill:none" stroke-dasharray="32, 16, 4, 16" points="270.562,1686.38 2640.76,1686.38 "/>
<polyline clip-path="url(#clip852)" style="stroke:#5f9ea0; stroke-linecap:round; stroke-linejoin:round; stroke-width:8; stroke-opacity:0.4; fill:none" stroke-dasharray="32, 16, 4, 16" points="270.562,1402.51 2640.76,1402.51 "/>
<polyline clip-path="url(#clip852)" style="stroke:#5f9ea0; stroke-linecap:round; stroke-linejoin:round; stroke-width:8; stroke-opacity:0.4; fill:none" stroke-dasharray="32, 16, 4, 16" points="270.562,1118.65 2640.76,1118.65 "/>
<polyline clip-path="url(#clip852)" style="stroke:#5f9ea0; stroke-linecap:round; stroke-linejoin:round; stroke-width:8; stroke-opacity:0.4; fill:none" stroke-dasharray="32, 16, 4, 16" points="270.562,834.789 2640.76,834.789 "/>
<polyline clip-path="url(#clip852)" style="stroke:#5f9ea0; stroke-linecap:round; stroke-linejoin:round; stroke-width:8; stroke-opacity:0.4; fill:none" stroke-dasharray="32, 16, 4, 16" points="270.562,550.927 2640.76,550.927 "/>
<polyline clip-path="url(#clip852)" style="stroke:#5f9ea0; stroke-linecap:round; stroke-linejoin:round; stroke-width:8; stroke-opacity:0.4; fill:none" stroke-dasharray="32, 16, 4, 16" points="270.562,267.065 2640.76,267.065 "/>
<polyline clip-path="url(#clip850)" style="stroke:#000000; stroke-linecap:round; stroke-linejoin:round; stroke-width:4; stroke-opacity:1; fill:none" points="270.562,1734.12 270.562,47.2441 "/>
<polyline clip-path="url(#clip850)" style="stroke:#000000; stroke-linecap:round; stroke-linejoin:round; stroke-width:4; stroke-opacity:1; fill:none" points="2640.76,1734.12 2640.76,47.2441 "/>
<polyline clip-path="url(#clip850)" style="stroke:#000000; stroke-linecap:round; stroke-linejoin:round; stroke-width:4; stroke-opacity:1; fill:none" points="270.562,1686.38 289.459,1686.38 "/>
<polyline clip-path="url(#clip850)" style="stroke:#000000; stroke-linecap:round; stroke-linejoin:round; stroke-width:4; stroke-opacity:1; fill:none" points="270.562,1402.51 289.459,1402.51 "/>
<polyline clip-path="url(#clip850)" style="stroke:#000000; stroke-linecap:round; stroke-linejoin:round; stroke-width:4; stroke-opacity:1; fill:none" points="270.562,1118.65 289.459,1118.65 "/>
<polyline clip-path="url(#clip850)" style="stroke:#000000; stroke-linecap:round; stroke-linejoin:round; stroke-width:4; stroke-opacity:1; fill:none" points="270.562,834.789 289.459,834.789 "/>
<polyline clip-path="url(#clip850)" style="stroke:#000000; stroke-linecap:round; stroke-linejoin:round; stroke-width:4; stroke-opacity:1; fill:none" points="270.562,550.927 289.459,550.927 "/>
<polyline clip-path="url(#clip850)" style="stroke:#000000; stroke-linecap:round; stroke-linejoin:round; stroke-width:4; stroke-opacity:1; fill:none" points="270.562,267.065 289.459,267.065 "/>
<path clip-path="url(#clip850)" d="M218.297 1672.17 Q214.686 1672.17 212.857 1675.74 Q211.052 1679.28 211.052 1686.41 Q211.052 1693.52 212.857 1697.08 Q214.686 1700.62 218.297 1700.62 Q221.931 1700.62 223.737 1697.08 Q225.566 1693.52 225.566 1686.41 Q225.566 1679.28 223.737 1675.74 Q221.931 1672.17 218.297 1672.17 M218.297 1668.47 Q224.107 1668.47 227.163 1673.08 Q230.242 1677.66 230.242 1686.41 Q230.242 1695.14 227.163 1699.74 Q224.107 1704.33 218.297 1704.33 Q212.487 1704.33 209.408 1699.74 Q206.353 1695.14 206.353 1686.41 Q206.353 1677.66 209.408 1673.08 Q212.487 1668.47 218.297 1668.47 Z" fill="#000000" fill-rule="evenodd" fill-opacity="1" /><path clip-path="url(#clip850)" d="M148.02 1385.23 L166.376 1385.23 L166.376 1389.17 L152.302 1389.17 L152.302 1397.64 Q153.321 1397.29 154.339 1397.13 Q155.358 1396.95 156.376 1396.95 Q162.163 1396.95 165.543 1400.12 Q168.922 1403.29 168.922 1408.71 Q168.922 1414.28 165.45 1417.39 Q161.978 1420.46 155.659 1420.46 Q153.483 1420.46 151.214 1420.09 Q148.969 1419.72 146.562 1418.98 L146.562 1414.28 Q148.645 1415.42 150.867 1415.97 Q153.089 1416.53 155.566 1416.53 Q159.571 1416.53 161.909 1414.42 Q164.247 1412.32 164.247 1408.71 Q164.247 1405.09 161.909 1402.99 Q159.571 1400.88 155.566 1400.88 Q153.691 1400.88 151.816 1401.3 Q149.964 1401.71 148.02 1402.59 L148.02 1385.23 Z" fill="#000000" fill-rule="evenodd" fill-opacity="1" /><path clip-path="url(#clip850)" d="M188.135 1388.31 Q184.524 1388.31 182.696 1391.88 Q180.89 1395.42 180.89 1402.55 Q180.89 1409.65 182.696 1413.22 Q184.524 1416.76 188.135 1416.76 Q191.77 1416.76 193.575 1413.22 Q195.404 1409.65 195.404 1402.55 Q195.404 1395.42 193.575 1391.88 Q191.77 1388.31 188.135 1388.31 M188.135 1384.61 Q193.946 1384.61 197.001 1389.21 Q200.08 1393.8 200.08 1402.55 Q200.08 1411.27 197.001 1415.88 Q193.946 1420.46 188.135 1420.46 Q182.325 1420.46 179.247 1415.88 Q176.191 1411.27 176.191 1402.55 Q176.191 1393.8 179.247 1389.21 Q182.325 1384.61 188.135 1384.61 Z" fill="#000000" fill-rule="evenodd" fill-opacity="1" /><path clip-path="url(#clip850)" d="M218.297 1388.31 Q214.686 1388.31 212.857 1391.88 Q211.052 1395.42 211.052 1402.55 Q211.052 1409.65 212.857 1413.22 Q214.686 1416.76 218.297 1416.76 Q221.931 1416.76 223.737 1413.22 Q225.566 1409.65 225.566 1402.55 Q225.566 1395.42 223.737 1391.88 Q221.931 1388.31 218.297 1388.31 M218.297 1384.61 Q224.107 1384.61 227.163 1389.21 Q230.242 1393.8 230.242 1402.55 Q230.242 1411.27 227.163 1415.88 Q224.107 1420.46 218.297 1420.46 Q212.487 1420.46 209.408 1415.88 Q206.353 1411.27 206.353 1402.55 Q206.353 1393.8 209.408 1389.21 Q212.487 1384.61 218.297 1384.61 Z" fill="#000000" fill-rule="evenodd" fill-opacity="1" /><path clip-path="url(#clip850)" d="M118.622 1132 L126.261 1132 L126.261 1105.63 L117.951 1107.3 L117.951 1103.04 L126.214 1101.37 L130.89 1101.37 L130.89 1132 L138.529 1132 L138.529 1135.93 L118.622 1135.93 L118.622 1132 Z" fill="#000000" fill-rule="evenodd" fill-opacity="1" /><path clip-path="url(#clip850)" d="M157.973 1104.45 Q154.362 1104.45 152.534 1108.01 Q150.728 1111.56 150.728 1118.69 Q150.728 1125.79 152.534 1129.36 Q154.362 1132.9 157.973 1132.9 Q161.608 1132.9 163.413 1129.36 Q165.242 1125.79 165.242 1118.69 Q165.242 1111.56 163.413 1108.01 Q161.608 1104.45 157.973 1104.45 M157.973 1100.75 Q163.784 1100.75 166.839 1105.35 Q169.918 1109.94 169.918 1118.69 Q169.918 1127.41 166.839 1132.02 Q163.784 1136.6 157.973 1136.6 Q152.163 1136.6 149.085 1132.02 Q146.029 1127.41 146.029 1118.69 Q146.029 1109.94 149.085 1105.35 Q152.163 1100.75 157.973 1100.75 Z" fill="#000000" fill-rule="evenodd" fill-opacity="1" /><path clip-path="url(#clip850)" d="M188.135 1104.45 Q184.524 1104.45 182.696 1108.01 Q180.89 1111.56 180.89 1118.69 Q180.89 1125.79 182.696 1129.36 Q184.524 1132.9 188.135 1132.9 Q191.77 1132.9 193.575 1129.36 Q195.404 1125.79 195.404 1118.69 Q195.404 1111.56 193.575 1108.01 Q191.77 1104.45 188.135 1104.45 M188.135 1100.75 Q193.946 1100.75 197.001 1105.35 Q200.08 1109.94 200.08 1118.69 Q200.08 1127.41 197.001 1132.02 Q193.946 1136.6 188.135 1136.6 Q182.325 1136.6 179.247 1132.02 Q176.191 1127.41 176.191 1118.69 Q176.191 1109.94 179.247 1105.35 Q182.325 1100.75 188.135 1100.75 Z" fill="#000000" fill-rule="evenodd" fill-opacity="1" /><path clip-path="url(#clip850)" d="M218.297 1104.45 Q214.686 1104.45 212.857 1108.01 Q211.052 1111.56 211.052 1118.69 Q211.052 1125.79 212.857 1129.36 Q214.686 1132.9 218.297 1132.9 Q221.931 1132.9 223.737 1129.36 Q225.566 1125.79 225.566 1118.69 Q225.566 1111.56 223.737 1108.01 Q221.931 1104.45 218.297 1104.45 M218.297 1100.75 Q224.107 1100.75 227.163 1105.35 Q230.242 1109.94 230.242 1118.69 Q230.242 1127.41 227.163 1132.02 Q224.107 1136.6 218.297 1136.6 Q212.487 1136.6 209.408 1132.02 Q206.353 1127.41 206.353 1118.69 Q206.353 1109.94 209.408 1105.35 Q212.487 1100.75 218.297 1100.75 Z" fill="#000000" fill-rule="evenodd" fill-opacity="1" /><path clip-path="url(#clip850)" d="M118.622 848.134 L126.261 848.134 L126.261 821.768 L117.951 823.435 L117.951 819.176 L126.214 817.509 L130.89 817.509 L130.89 848.134 L138.529 848.134 L138.529 852.069 L118.622 852.069 L118.622 848.134 Z" fill="#000000" fill-rule="evenodd" fill-opacity="1" /><path clip-path="url(#clip850)" d="M148.02 817.509 L166.376 817.509 L166.376 821.444 L152.302 821.444 L152.302 829.916 Q153.321 829.569 154.339 829.407 Q155.358 829.222 156.376 829.222 Q162.163 829.222 165.543 832.393 Q168.922 835.565 168.922 840.981 Q168.922 846.56 165.45 849.662 Q161.978 852.74 155.659 852.74 Q153.483 852.74 151.214 852.37 Q148.969 852 146.562 851.259 L146.562 846.56 Q148.645 847.694 150.867 848.25 Q153.089 848.805 155.566 848.805 Q159.571 848.805 161.909 846.699 Q164.247 844.592 164.247 840.981 Q164.247 837.37 161.909 835.264 Q159.571 833.157 155.566 833.157 Q153.691 833.157 151.816 833.574 Q149.964 833.99 148.02 834.87 L148.02 817.509 Z" fill="#000000" fill-rule="evenodd" fill-opacity="1" /><path clip-path="url(#clip850)" d="M188.135 820.588 Q184.524 820.588 182.696 824.153 Q180.89 827.694 180.89 834.824 Q180.89 841.93 182.696 845.495 Q184.524 849.037 188.135 849.037 Q191.77 849.037 193.575 845.495 Q195.404 841.93 195.404 834.824 Q195.404 827.694 193.575 824.153 Q191.77 820.588 188.135 820.588 M188.135 816.884 Q193.946 816.884 197.001 821.491 Q200.08 826.074 200.08 834.824 Q200.08 843.551 197.001 848.157 Q193.946 852.74 188.135 852.74 Q182.325 852.74 179.247 848.157 Q176.191 843.551 176.191 834.824 Q176.191 826.074 179.247 821.491 Q182.325 816.884 188.135 816.884 Z" fill="#000000" fill-rule="evenodd" fill-opacity="1" /><path clip-path="url(#clip850)" d="M218.297 820.588 Q214.686 820.588 212.857 824.153 Q211.052 827.694 211.052 834.824 Q211.052 841.93 212.857 845.495 Q214.686 849.037 218.297 849.037 Q221.931 849.037 223.737 845.495 Q225.566 841.93 225.566 834.824 Q225.566 827.694 223.737 824.153 Q221.931 820.588 218.297 820.588 M218.297 816.884 Q224.107 816.884 227.163 821.491 Q230.242 826.074 230.242 834.824 Q230.242 843.551 227.163 848.157 Q224.107 852.74 218.297 852.74 Q212.487 852.74 209.408 848.157 Q206.353 843.551 206.353 834.824 Q206.353 826.074 209.408 821.491 Q212.487 816.884 218.297 816.884 Z" fill="#000000" fill-rule="evenodd" fill-opacity="1" /><path clip-path="url(#clip850)" d="M121.839 564.272 L138.159 564.272 L138.159 568.207 L116.214 568.207 L116.214 564.272 Q118.876 561.517 123.46 556.888 Q128.066 552.235 129.247 550.892 Q131.492 548.369 132.372 546.633 Q133.275 544.874 133.275 543.184 Q133.275 540.429 131.33 538.693 Q129.409 536.957 126.307 536.957 Q124.108 536.957 121.654 537.721 Q119.224 538.485 116.446 540.036 L116.446 535.314 Q119.27 534.179 121.724 533.601 Q124.177 533.022 126.214 533.022 Q131.585 533.022 134.779 535.707 Q137.974 538.392 137.974 542.883 Q137.974 545.013 137.163 546.934 Q136.376 548.832 134.27 551.425 Q133.691 552.096 130.589 555.313 Q127.488 558.508 121.839 564.272 Z" fill="#000000" fill-rule="evenodd" fill-opacity="1" /><path clip-path="url(#clip850)" d="M157.973 536.726 Q154.362 536.726 152.534 540.29 Q150.728 543.832 150.728 550.962 Q150.728 558.068 152.534 561.633 Q154.362 565.174 157.973 565.174 Q161.608 565.174 163.413 561.633 Q165.242 558.068 165.242 550.962 Q165.242 543.832 163.413 540.29 Q161.608 536.726 157.973 536.726 M157.973 533.022 Q163.784 533.022 166.839 537.628 Q169.918 542.212 169.918 550.962 Q169.918 559.688 166.839 564.295 Q163.784 568.878 157.973 568.878 Q152.163 568.878 149.085 564.295 Q146.029 559.688 146.029 550.962 Q146.029 542.212 149.085 537.628 Q152.163 533.022 157.973 533.022 Z" fill="#000000" fill-rule="evenodd" fill-opacity="1" /><path clip-path="url(#clip850)" d="M188.135 536.726 Q184.524 536.726 182.696 540.29 Q180.89 543.832 180.89 550.962 Q180.89 558.068 182.696 561.633 Q184.524 565.174 188.135 565.174 Q191.77 565.174 193.575 561.633 Q195.404 558.068 195.404 550.962 Q195.404 543.832 193.575 540.29 Q191.77 536.726 188.135 536.726 M188.135 533.022 Q193.946 533.022 197.001 537.628 Q200.08 542.212 200.08 550.962 Q200.08 559.688 197.001 564.295 Q193.946 568.878 188.135 568.878 Q182.325 568.878 179.247 564.295 Q176.191 559.688 176.191 550.962 Q176.191 542.212 179.247 537.628 Q182.325 533.022 188.135 533.022 Z" fill="#000000" fill-rule="evenodd" fill-opacity="1" /><path clip-path="url(#clip850)" d="M218.297 536.726 Q214.686 536.726 212.857 540.29 Q211.052 543.832 211.052 550.962 Q211.052 558.068 212.857 561.633 Q214.686 565.174 218.297 565.174 Q221.931 565.174 223.737 561.633 Q225.566 558.068 225.566 550.962 Q225.566 543.832 223.737 540.29 Q221.931 536.726 218.297 536.726 M218.297 533.022 Q224.107 533.022 227.163 537.628 Q230.242 542.212 230.242 550.962 Q230.242 559.688 227.163 564.295 Q224.107 568.878 218.297 568.878 Q212.487 568.878 209.408 564.295 Q206.353 559.688 206.353 550.962 Q206.353 542.212 209.408 537.628 Q212.487 533.022 218.297 533.022 Z" fill="#000000" fill-rule="evenodd" fill-opacity="1" /><path clip-path="url(#clip850)" d="M121.839 280.41 L138.159 280.41 L138.159 284.345 L116.214 284.345 L116.214 280.41 Q118.876 277.655 123.46 273.025 Q128.066 268.373 129.247 267.03 Q131.492 264.507 132.372 262.771 Q133.275 261.011 133.275 259.322 Q133.275 256.567 131.33 254.831 Q129.409 253.095 126.307 253.095 Q124.108 253.095 121.654 253.859 Q119.224 254.623 116.446 256.174 L116.446 251.451 Q119.27 250.317 121.724 249.738 Q124.177 249.16 126.214 249.16 Q131.585 249.16 134.779 251.845 Q137.974 254.53 137.974 259.021 Q137.974 261.15 137.163 263.072 Q136.376 264.97 134.27 267.562 Q133.691 268.234 130.589 271.451 Q127.488 274.646 121.839 280.41 Z" fill="#000000" fill-rule="evenodd" fill-opacity="1" /><path clip-path="url(#clip850)" d="M148.02 249.785 L166.376 249.785 L166.376 253.72 L152.302 253.72 L152.302 262.192 Q153.321 261.845 154.339 261.683 Q155.358 261.498 156.376 261.498 Q162.163 261.498 165.543 264.669 Q168.922 267.84 168.922 273.257 Q168.922 278.835 165.45 281.937 Q161.978 285.016 155.659 285.016 Q153.483 285.016 151.214 284.646 Q148.969 284.275 146.562 283.535 L146.562 278.835 Q148.645 279.97 150.867 280.525 Q153.089 281.081 155.566 281.081 Q159.571 281.081 161.909 278.974 Q164.247 276.868 164.247 273.257 Q164.247 269.646 161.909 267.539 Q159.571 265.433 155.566 265.433 Q153.691 265.433 151.816 265.849 Q149.964 266.266 148.02 267.146 L148.02 249.785 Z" fill="#000000" fill-rule="evenodd" fill-opacity="1" /><path clip-path="url(#clip850)" d="M188.135 252.863 Q184.524 252.863 182.696 256.428 Q180.89 259.97 180.89 267.099 Q180.89 274.206 182.696 277.771 Q184.524 281.312 188.135 281.312 Q191.77 281.312 193.575 277.771 Q195.404 274.206 195.404 267.099 Q195.404 259.97 193.575 256.428 Q191.77 252.863 188.135 252.863 M188.135 249.16 Q193.946 249.16 197.001 253.766 Q200.08 258.349 200.08 267.099 Q200.08 275.826 197.001 280.433 Q193.946 285.016 188.135 285.016 Q182.325 285.016 179.247 280.433 Q176.191 275.826 176.191 267.099 Q176.191 258.349 179.247 253.766 Q182.325 249.16 188.135 249.16 Z" fill="#000000" fill-rule="evenodd" fill-opacity="1" /><path clip-path="url(#clip850)" d="M218.297 252.863 Q214.686 252.863 212.857 256.428 Q211.052 259.97 211.052 267.099 Q211.052 274.206 212.857 277.771 Q214.686 281.312 218.297 281.312 Q221.931 281.312 223.737 277.771 Q225.566 274.206 225.566 267.099 Q225.566 259.97 223.737 256.428 Q221.931 252.863 218.297 252.863 M218.297 249.16 Q224.107 249.16 227.163 253.766 Q230.242 258.349 230.242 267.099 Q230.242 275.826 227.163 280.433 Q224.107 285.016 218.297 285.016 Q212.487 285.016 209.408 280.433 Q206.353 275.826 206.353 267.099 Q206.353 258.349 209.408 253.766 Q212.487 249.16 218.297 249.16 Z" fill="#000000" fill-rule="evenodd" fill-opacity="1" /><path clip-path="url(#clip850)" d="M14.1184 1143.19 L14.1184 1113.15 L19.5293 1113.15 L19.5293 1136.76 L33.5975 1136.76 L33.5975 1114.13 L39.0084 1114.13 L39.0084 1136.76 L56.2276 1136.76 L56.2276 1112.57 L61.6384 1112.57 L61.6384 1143.19 L14.1184 1143.19 Z" fill="#000000" fill-rule="evenodd" fill-opacity="1" /><path clip-path="url(#clip850)" d="M40.1224 1072.63 L61.6384 1072.63 L61.6384 1078.48 L40.3133 1078.48 Q35.2526 1078.48 32.7381 1080.46 Q30.2237 1082.43 30.2237 1086.38 Q30.2237 1091.12 33.2474 1093.86 Q36.2711 1096.6 41.491 1096.6 L61.6384 1096.6 L61.6384 1102.48 L25.9905 1102.48 L25.9905 1096.6 L31.5287 1096.6 Q28.314 1094.49 26.7225 1091.66 Q25.1311 1088.8 25.1311 1085.07 Q25.1311 1078.93 28.9505 1075.78 Q32.7381 1072.63 40.1224 1072.63 Z" fill="#000000" fill-rule="evenodd" fill-opacity="1" /><path clip-path="url(#clip850)" d="M15.869 1055.15 L25.9905 1055.15 L25.9905 1043.09 L30.542 1043.09 L30.542 1055.15 L49.8937 1055.15 Q54.2542 1055.15 55.4955 1053.98 Q56.7368 1052.77 56.7368 1049.11 L56.7368 1043.09 L61.6384 1043.09 L61.6384 1049.11 Q61.6384 1055.89 59.124 1058.46 Q56.5777 1061.04 49.8937 1061.04 L30.542 1061.04 L30.542 1065.34 L25.9905 1065.34 L25.9905 1061.04 L15.869 1061.04 L15.869 1055.15 Z" fill="#000000" fill-rule="evenodd" fill-opacity="1" /><path clip-path="url(#clip850)" d="M40.1224 1005.76 L61.6384 1005.76 L61.6384 1011.61 L40.3133 1011.61 Q35.2526 1011.61 32.7381 1013.59 Q30.2237 1015.56 30.2237 1019.51 Q30.2237 1024.25 33.2474 1026.99 Q36.2711 1029.72 41.491 1029.72 L61.6384 1029.72 L61.6384 1035.61 L12.1132 1035.61 L12.1132 1029.72 L31.5287 1029.72 Q28.314 1027.62 26.7225 1024.79 Q25.1311 1021.93 25.1311 1018.2 Q25.1311 1012.06 28.9505 1008.91 Q32.7381 1005.76 40.1224 1005.76 Z" fill="#000000" fill-rule="evenodd" fill-opacity="1" /><path clip-path="url(#clip850)" d="M43.719 977.875 Q43.719 984.973 45.3422 987.71 Q46.9655 990.447 50.8804 990.447 Q53.9996 990.447 55.8457 988.41 Q57.6599 986.341 57.6599 982.808 Q57.6599 977.938 54.2224 975.01 Q50.7531 972.05 45.0239 972.05 L43.719 972.05 L43.719 977.875 M41.3 966.194 L61.6384 966.194 L61.6384 972.05 L56.2276 972.05 Q59.4741 974.055 61.0337 977.047 Q62.5615 980.039 62.5615 984.368 Q62.5615 989.842 59.5059 993.089 Q56.4186 996.304 51.2623 996.304 Q45.2467 996.304 42.1912 992.293 Q39.1357 988.251 39.1357 980.262 L39.1357 972.05 L38.5628 972.05 Q34.5205 972.05 32.3244 974.724 Q30.0964 977.366 30.0964 982.172 Q30.0964 985.227 30.8284 988.124 Q31.5605 991.02 33.0246 993.694 L27.6137 993.694 Q26.3724 990.479 25.7677 987.455 Q25.1311 984.431 25.1311 981.567 Q25.1311 973.833 29.1415 970.013 Q33.1519 966.194 41.3 966.194 Z" fill="#000000" fill-rule="evenodd" fill-opacity="1" /><path clip-path="url(#clip850)" d="M12.1132 954.131 L12.1132 948.274 L61.6384 948.274 L61.6384 954.131 L12.1132 954.131 Z" fill="#000000" fill-rule="evenodd" fill-opacity="1" /><path clip-path="url(#clip850)" d="M56.2912 930.355 L75.1974 930.355 L75.1974 936.243 L25.9905 936.243 L25.9905 930.355 L31.4013 930.355 Q28.2185 928.509 26.6907 925.708 Q25.1311 922.875 25.1311 918.96 Q25.1311 912.467 30.2873 908.425 Q35.4436 904.351 43.8463 904.351 Q52.249 904.351 57.4052 908.425 Q62.5615 912.467 62.5615 918.96 Q62.5615 922.875 61.0337 925.708 Q59.4741 928.509 56.2912 930.355 M43.8463 910.43 Q37.3851 910.43 33.7248 913.104 Q30.0327 915.746 30.0327 920.392 Q30.0327 925.039 33.7248 927.713 Q37.3851 930.355 43.8463 930.355 Q50.3075 930.355 53.9996 927.713 Q57.6599 925.039 57.6599 920.392 Q57.6599 915.746 53.9996 913.104 Q50.3075 910.43 43.8463 910.43 Z" fill="#000000" fill-rule="evenodd" fill-opacity="1" /><path clip-path="url(#clip850)" d="M64.9486 879.811 Q71.3143 882.294 73.2559 884.649 Q75.1974 887.004 75.1974 890.951 L75.1974 895.63 L70.2958 895.63 L70.2958 892.192 Q70.2958 889.773 69.15 888.437 Q68.0041 887.1 63.7391 885.477 L61.0655 884.426 L25.9905 898.845 L25.9905 892.638 L53.8723 881.498 L25.9905 870.358 L25.9905 864.151 L64.9486 879.811 Z" fill="#000000" fill-rule="evenodd" fill-opacity="1" /><path clip-path="url(#clip850)" d="M12.1132 835.888 L12.1132 822.392 L16.6647 822.392 L16.6647 830.031 L65.6807 830.031 L65.6807 822.392 L70.2321 822.392 L70.2321 835.888 L12.1132 835.888 Z" fill="#000000" fill-rule="evenodd" fill-opacity="1" /><path clip-path="url(#clip850)" d="M12.1132 810.138 L12.1132 804.25 L41.3637 804.25 L25.9905 786.776 L25.9905 779.297 L42.6686 798.203 L61.6384 778.501 L61.6384 786.14 L44.2282 804.25 L61.6384 804.25 L61.6384 810.138 L12.1132 810.138 Z" fill="#000000" fill-rule="evenodd" fill-opacity="1" /><path clip-path="url(#clip850)" d="M14.1184 771.912 L14.1184 765.483 L58.3283 765.483 Q66.922 765.483 70.8051 768.761 Q74.6881 772.008 74.6881 779.233 L74.6881 781.684 L69.2773 781.684 L69.2773 779.679 Q69.2773 775.414 66.8902 773.663 Q64.503 771.912 58.3283 771.912 L14.1184 771.912 Z" fill="#000000" fill-rule="evenodd" fill-opacity="1" /><path clip-path="url(#clip850)" d="M14.1184 742.535 L14.1184 737.124 L67.6859 753.675 L67.6859 759.085 L14.1184 742.535 Z" fill="#000000" fill-rule="evenodd" fill-opacity="1" /><path clip-path="url(#clip850)" d="M12.1132 731.204 L12.1132 725.315 L41.3637 725.315 L25.9905 707.842 L25.9905 700.362 L42.6686 719.268 L61.6384 699.566 L61.6384 707.205 L44.2282 725.315 L61.6384 725.315 L61.6384 731.204 L12.1132 731.204 Z" fill="#000000" fill-rule="evenodd" fill-opacity="1" /><path clip-path="url(#clip850)" d="M43.4007 669.775 Q37.035 669.775 33.5338 672.416 Q30.0327 675.026 30.0327 679.769 Q30.0327 684.479 33.5338 687.121 Q37.035 689.731 43.4007 689.731 Q49.7346 689.731 53.2357 687.121 Q56.7368 684.479 56.7368 679.769 Q56.7368 675.026 53.2357 672.416 Q49.7346 669.775 43.4007 669.775 M57.2143 663.918 Q66.3172 663.918 70.7414 667.96 Q75.1974 672.003 75.1974 680.342 Q75.1974 683.429 74.72 686.166 Q74.2744 688.904 73.3195 691.482 L67.6222 691.482 Q69.0227 688.904 69.6911 686.389 Q70.3595 683.875 70.3595 681.265 Q70.3595 675.504 67.3358 672.639 Q64.3439 669.775 58.2646 669.775 L55.3682 669.775 Q58.5192 671.589 60.0788 674.422 Q61.6384 677.254 61.6384 681.201 Q61.6384 687.758 56.6414 691.768 Q51.6443 695.779 43.4007 695.779 Q35.1253 695.779 30.1282 691.768 Q25.1311 687.758 25.1311 681.201 Q25.1311 677.254 26.6907 674.422 Q28.2503 671.589 31.4013 669.775 L25.9905 669.775 L25.9905 663.918 L57.2143 663.918 Z" fill="#000000" fill-rule="evenodd" fill-opacity="1" /><path clip-path="url(#clip850)" d="M12.1132 638.169 L70.2321 638.169 L70.2321 651.664 L65.6807 651.664 L65.6807 644.057 L16.6647 644.057 L16.6647 651.664 L12.1132 651.664 L12.1132 638.169 Z" fill="#000000" fill-rule="evenodd" fill-opacity="1" /><polyline clip-path="url(#clip852)" style="stroke:#009af9; stroke-linecap:round; stroke-linejoin:round; stroke-width:12; stroke-opacity:1; fill:none" points="337.643,1686.38 342.666,1684.36 348.645,1681.97 354.625,1679.58 360.605,1677.19 366.584,1674.8 372.564,1672.41 378.544,1670.03 384.524,1667.64 390.503,1665.26 396.483,1662.88 402.463,1660.5 408.442,1658.11 414.422,1655.73 420.402,1653.36 426.382,1650.98 432.361,1648.6 438.341,1646.22 444.321,1643.84 450.3,1641.47 456.28,1639.09 462.26,1636.72 468.24,1634.34 474.219,1631.97 480.199,1629.59 486.179,1627.22 492.159,1624.84 498.138,1622.47 504.118,1620.1 510.098,1617.72 516.077,1615.35 522.057,1612.98 528.037,1610.6 534.017,1608.23 539.996,1605.86 545.976,1603.48 551.956,1601.11 557.935,1598.74 563.915,1596.36 569.895,1593.99 575.875,1591.62 581.854,1589.25 587.834,1586.87 593.814,1584.5 599.793,1582.13 605.773,1579.75 611.753,1577.38 617.733,1575 623.712,1572.63 629.692,1570.26 635.672,1567.88 641.652,1565.51 647.631,1563.13 653.611,1560.76 659.591,1558.38 665.57,1556.01 671.55,1553.63 677.53,1551.26 683.51,1548.88 689.489,1546.51 695.469,1544.13 701.449,1541.75 707.428,1539.38 713.408,1537 719.388,1534.62 725.368,1532.24 731.347,1529.87 737.327,1527.49 743.307,1525.11 749.286,1522.73 755.266,1520.35 761.246,1517.97 767.226,1515.59 773.205,1513.21 779.185,1510.83 785.165,1508.45 791.145,1506.07 797.124,1503.69 803.104,1501.3 809.084,1498.92 815.063,1496.54 821.043,1494.15 827.023,1491.77 833.003,1489.39 838.982,1487 844.962,1484.62 850.942,1482.23 856.921,1479.84 862.901,1477.46 868.881,1475.07 874.861,1472.68 880.84,1470.29 886.82,1467.9 892.8,1465.51 898.779,1463.12 904.759,1460.73 910.739,1458.34 916.719,1455.95 922.698,1453.55 928.678,1451.16 934.658,1448.77 940.637,1446.37 946.617,1443.98 952.597,1441.58 958.577,1439.18 964.556,1436.78 970.536,1434.39 976.516,1431.99 982.496,1429.59 988.475,1427.18 994.455,1424.78 1000.43,1422.38 1006.41,1419.98 1012.39,1417.57 1018.37,1415.17 1024.35,1412.76 1030.33,1410.35 1036.31,1407.95 1042.29,1405.54 1048.27,1403.13 1054.25,1400.72 1060.23,1398.3 1066.21,1395.89 1072.19,1393.48 1078.17,1391.06 1084.15,1388.65 1090.13,1386.23 1096.11,1383.81 1102.09,1381.39 1108.07,1378.97 1114.05,1376.55 1120.03,1374.13 1126.01,1371.71 1131.99,1369.28 1137.97,1366.86 1143.95,1364.43 1149.93,1362 1155.91,1359.57 1161.89,1357.14 1167.87,1354.71 1173.85,1352.27 1179.83,1349.84 1185.81,1347.4 1191.79,1344.96 1197.77,1342.52 1203.75,1340.08 1209.72,1337.64 1215.7,1335.2 1221.68,1332.75 1227.66,1330.31 1233.64,1327.86 1239.62,1325.41 1245.6,1322.96 1251.58,1320.5 1257.56,1318.05 1263.54,1315.59 1269.52,1313.14 1275.5,1310.68 1281.48,1308.21 1287.46,1305.75 1293.44,1303.29 1299.42,1300.82 1305.4,1298.35 1311.38,1295.88 1317.36,1293.41 1323.34,1290.94 1329.32,1288.46 1335.3,1285.98 1341.28,1283.5 1347.26,1281.02 1353.24,1278.54 1359.22,1276.05 1365.2,1273.57 1371.18,1271.08 1377.16,1268.58 1383.14,1266.09 1389.12,1263.59 1395.1,1261.1 1401.08,1258.59 1407.06,1256.09 1413.04,1253.59 1419.02,1251.08 1424.99,1248.57 1430.97,1246.06 1436.95,1243.54 1442.93,1241.03 1448.91,1238.51 1454.89,1235.98 1460.87,1233.46 1466.85,1230.93 1472.83,1228.4 1478.81,1225.87 1484.79,1223.34 1490.77,1220.8 1496.75,1218.26 1502.73,1215.72 1508.71,1213.17 1514.69,1210.62 1520.67,1208.07 1526.65,1205.52 1532.63,1202.96 1538.61,1200.4 1544.59,1197.84 1550.57,1195.27 1556.55,1192.7 1562.53,1190.13 1568.51,1187.55 1574.49,1184.97 1580.47,1182.39 1586.45,1179.81 1592.43,1177.22 1598.41,1174.63 1604.39,1172.03 1610.37,1169.43 1616.35,1166.83 1622.33,1164.23 1628.31,1161.62 1634.28,1159.01 1640.26,1156.39 1646.24,1153.77 1652.22,1151.15 1658.2,1148.52 1664.18,1145.89 1670.16,1143.25 1676.14,1140.61 1682.12,1137.97 1688.1,1135.32 1694.08,1132.67 1700.06,1130.02 1706.04,1127.36 1712.02,1124.7 1718,1122.03 1723.98,1119.36 1729.96,1116.68 1735.94,1114 1741.92,1111.32 1747.9,1108.63 1753.88,1105.93 1759.86,1103.23 1765.84,1100.53 1771.82,1097.82 1777.8,1095.11 1783.78,1092.39 1789.76,1089.67 1795.74,1086.94 1801.72,1084.21 1807.7,1081.47 1813.68,1078.72 1819.66,1075.97 1825.64,1073.22 1831.62,1070.46 1837.6,1067.7 1843.58,1064.93 1849.55,1062.15 1855.53,1059.37 1861.51,1056.58 1867.49,1053.79 1873.47,1050.99 1879.45,1048.18 1885.43,1045.37 1891.41,1042.55 1897.39,1039.73 1903.37,1036.89 1909.35,1034.06 1915.33,1031.21 1921.31,1028.36 1927.29,1025.51 1933.27,1022.64 1939.25,1019.77 1945.23,1016.89 1951.21,1014 1957.19,1011.11 1963.17,1008.21 1969.15,1005.3 1975.13,1002.39 1981.11,999.463 1987.09,996.532 1993.07,993.592 1999.05,990.644 2005.03,987.688 2011.01,984.723 2016.99,981.75 2022.97,978.767 2028.95,975.776 2034.93,972.776 2040.91,969.767 2046.89,966.748 2052.87,963.72 2058.85,960.682 2064.82,957.633 2070.8,954.575 2076.78,951.507 2082.76,948.428 2088.74,945.338 2094.72,942.238 2100.7,939.126 2106.68,936.003 2112.66,932.868 2118.64,929.722 2124.62,926.563 2130.6,923.393 2136.58,920.209 2142.56,917.013 2148.54,913.804 2154.52,910.581 2160.5,907.344 2166.48,904.094 2172.46,900.829 2178.44,897.55 2184.42,894.255 2190.4,890.945 2196.38,887.619 2202.36,884.278 2208.34,880.919 2214.32,877.544 2220.3,874.151 2226.28,870.74 2232.26,867.311 2238.24,863.863 2244.22,860.395 2250.2,856.908 2256.18,853.4 2262.16,849.87 2268.14,846.319 2274.11,842.746 2280.09,839.149 2286.07,835.528 2292.05,831.883 2298.03,828.212 2304.01,824.515 2309.99,820.79 2315.97,817.037 2321.95,813.255 2327.93,809.442 2333.91,805.597 2339.89,801.72 2345.87,797.809 2351.85,793.862 2357.83,789.877 2363.81,785.855 2369.79,781.791 2375.77,777.685 2381.75,773.535 2387.73,769.338 2393.71,765.093 2399.69,760.795 2405.67,756.444 2411.65,752.035 2417.63,747.565 2423.61,743.03 2429.59,738.427 2435.57,733.751 2441.55,728.996 2447.53,724.158 2453.51,719.229 2459.49,714.203 2465.47,709.07 2471.45,703.823 2477.43,698.449 2483.41,692.935 2489.38,687.268 2495.36,681.429 2501.34,675.395 2507.32,669.141 2513.3,662.633 2519.28,655.829 2525.26,648.673 2531.24,641.09 2537.22,632.978 2543.2,624.18 2549.18,614.456 2555.16,603.384 2561.14,590.115 2567.12,572.36 2573.1,533.404 2573.67,501.777 "/>
<polyline clip-path="url(#clip852)" style="stroke:#e26f46; stroke-linecap:round; stroke-linejoin:round; stroke-width:12; stroke-opacity:1; fill:none" points="337.643,266.759 342.666,265.845 348.645,264.761 354.625,263.683 360.605,262.608 366.584,261.538 372.564,260.472 378.544,259.41 384.524,258.35 390.503,257.294 396.483,256.241 402.463,255.191 408.442,254.143 414.422,253.098 420.402,252.055 426.382,251.013 432.361,249.974 438.341,248.937 444.321,247.902 450.3,246.868 456.28,245.835 462.26,244.804 468.24,243.775 474.219,242.746 480.199,241.719 486.179,240.694 492.159,239.669 498.138,238.645 504.118,237.622 510.098,236.601 516.077,235.58 522.057,234.56 528.037,233.542 534.017,232.524 539.996,231.507 545.976,230.491 551.956,229.475 557.935,228.461 563.915,227.447 569.895,226.435 575.875,225.423 581.854,224.412 587.834,223.402 593.814,222.393 599.793,221.385 605.773,220.378 611.753,219.372 617.733,218.366 623.712,217.362 629.692,216.359 635.672,215.357 641.652,214.356 647.631,213.356 653.611,212.357 659.591,211.359 665.57,210.363 671.55,209.368 677.53,208.374 683.51,207.381 689.489,206.39 695.469,205.4 701.449,204.411 707.428,203.424 713.408,202.439 719.388,201.455 725.368,200.472 731.347,199.492 737.327,198.512 743.307,197.535 749.286,196.559 755.266,195.585 761.246,194.613 767.226,193.643 773.205,192.674 779.185,191.708 785.165,190.743 791.145,189.781 797.124,188.821 803.104,187.863 809.084,186.907 815.063,185.953 821.043,185.001 827.023,184.052 833.003,183.105 838.982,182.161 844.962,181.219 850.942,180.28 856.921,179.343 862.901,178.408 868.881,177.477 874.861,176.548 880.84,175.622 886.82,174.698 892.8,173.777 898.779,172.86 904.759,171.945 910.739,171.033 916.719,170.124 922.698,169.218 928.678,168.315 934.658,167.416 940.637,166.519 946.617,165.626 952.597,164.737 958.577,163.85 964.556,162.967 970.536,162.087 976.516,161.211 982.496,160.338 988.475,159.469 994.455,158.604 1000.43,157.742 1006.41,156.884 1012.39,156.03 1018.37,155.179 1024.35,154.332 1030.33,153.49 1036.31,152.651 1042.29,151.816 1048.27,150.985 1054.25,150.158 1060.23,149.336 1066.21,148.517 1072.19,147.703 1078.17,146.893 1084.15,146.087 1090.13,145.286 1096.11,144.489 1102.09,143.697 1108.07,142.909 1114.05,142.125 1120.03,141.346 1126.01,140.572 1131.99,139.803 1137.97,139.038 1143.95,138.278 1149.93,137.522 1155.91,136.772 1161.89,136.027 1167.87,135.286 1173.85,134.55 1179.83,133.82 1185.81,133.094 1191.79,132.374 1197.77,131.659 1203.75,130.949 1209.72,130.244 1215.7,129.545 1221.68,128.851 1227.66,128.163 1233.64,127.48 1239.62,126.802 1245.6,126.13 1251.58,125.463 1257.56,124.803 1263.54,124.147 1269.52,123.498 1275.5,122.854 1281.48,122.217 1287.46,121.585 1293.44,120.959 1299.42,120.339 1305.4,119.725 1311.38,119.117 1317.36,118.515 1323.34,117.92 1329.32,117.33 1335.3,116.747 1341.28,116.17 1347.26,115.6 1353.24,115.036 1359.22,114.478 1365.2,113.927 1371.18,113.383 1377.16,112.845 1383.14,112.314 1389.12,111.789 1395.1,111.272 1401.08,110.761 1407.06,110.257 1413.04,109.76 1419.02,109.27 1424.99,108.787 1430.97,108.311 1436.95,107.843 1442.93,107.381 1448.91,106.927 1454.89,106.48 1460.87,106.041 1466.85,105.609 1472.83,105.185 1478.81,104.768 1484.79,104.359 1490.77,103.957 1496.75,103.564 1502.73,103.178 1508.71,102.8 1514.69,102.43 1520.67,102.068 1526.65,101.714 1532.63,101.368 1538.61,101.03 1544.59,100.701 1550.57,100.38 1556.55,100.067 1562.53,99.7634 1568.51,99.468 1574.49,99.1812 1580.47,98.9031 1586.45,98.6338 1592.43,98.3733 1598.41,98.1218 1604.39,97.8793 1610.37,97.646 1616.35,97.4217 1622.33,97.2068 1628.31,97.0011 1634.28,96.8049 1640.26,96.6182 1646.24,96.4411 1652.22,96.2737 1658.2,96.116 1664.18,95.9682 1670.16,95.8303 1676.14,95.7024 1682.12,95.5847 1688.1,95.4772 1694.08,95.38 1700.06,95.2932 1706.04,95.217 1712.02,95.1513 1718,95.0964 1723.98,95.0522 1729.96,95.019 1735.94,94.9968 1741.92,94.9858 1747.9,94.986 1753.88,94.9975 1759.86,95.0205 1765.84,95.0552 1771.82,95.1015 1777.8,95.1596 1783.78,95.2296 1789.76,95.3118 1795.74,95.4061 1801.72,95.5127 1807.7,95.6318 1813.68,95.7635 1819.66,95.9078 1825.64,96.0651 1831.62,96.2353 1837.6,96.4186 1843.58,96.6152 1849.55,96.8252 1855.53,97.0488 1861.51,97.2861 1867.49,97.5372 1873.47,97.8024 1879.45,98.0818 1885.43,98.3755 1891.41,98.6838 1897.39,99.0067 1903.37,99.3445 1909.35,99.6974 1915.33,100.065 1921.31,100.449 1927.29,100.848 1933.27,101.263 1939.25,101.694 1945.23,102.14 1951.21,102.604 1957.19,103.084 1963.17,103.58 1969.15,104.094 1975.13,104.625 1981.11,105.174 1987.09,105.74 1993.07,106.324 1999.05,106.926 2005.03,107.547 2011.01,108.186 2016.99,108.844 2022.97,109.522 2028.95,110.218 2034.93,110.935 2040.91,111.672 2046.89,112.429 2052.87,113.207 2058.85,114.005 2064.82,114.825 2070.8,115.667 2076.78,116.53 2082.76,117.416 2088.74,118.325 2094.72,119.256 2100.7,120.211 2106.68,121.189 2112.66,122.192 2118.64,123.22 2124.62,124.272 2130.6,125.35 2136.58,126.454 2142.56,127.584 2148.54,128.741 2154.52,129.926 2160.5,131.138 2166.48,132.379 2172.46,133.649 2178.44,134.949 2184.42,136.278 2190.4,137.639 2196.38,139.031 2202.36,140.455 2208.34,141.912 2214.32,143.403 2220.3,144.928 2226.28,146.488 2232.26,148.084 2238.24,149.717 2244.22,151.387 2250.2,153.097 2256.18,154.846 2262.16,156.636 2268.14,158.467 2274.11,160.342 2280.09,162.261 2286.07,164.225 2292.05,166.236 2298.03,168.295 2304.01,170.404 2309.99,172.564 2315.97,174.777 2321.95,177.045 2327.93,179.369 2333.91,181.752 2339.89,184.196 2345.87,186.702 2351.85,189.274 2357.83,191.914 2363.81,194.625 2369.79,197.409 2375.77,200.27 2381.75,203.212 2387.73,206.237 2393.71,209.351 2399.69,212.557 2405.67,215.861 2411.65,219.267 2417.63,222.782 2423.61,226.411 2429.59,230.162 2435.57,234.043 2441.55,238.061 2447.53,242.227 2453.51,246.551 2459.49,251.046 2465.47,255.725 2471.45,260.605 2477.43,265.704 2483.41,271.042 2489.38,276.646 2495.36,282.544 2501.34,288.773 2507.32,295.376 2513.3,302.407 2519.28,309.934 2525.26,318.044 2531.24,326.855 2537.22,336.529 2543.2,347.301 2549.18,359.531 2555.16,373.836 2561.14,391.419 2567.12,415.394 2573.1,466.517 2573.67,501.777 "/>
<circle clip-path="url(#clip852)" cx="2573.67" cy="501.777" r="21.6" fill="#3da44d" fill-rule="evenodd" fill-opacity="1" stroke="#000000" stroke-opacity="1" stroke-width="3.84"/>
<path clip-path="url(#clip850)" d="M1746.84 1677.89 L2561.75 1677.89 L2561.75 1418.69 L1746.84 1418.69  Z" fill="#ffffff" fill-rule="evenodd" fill-opacity="1"/>
<polyline clip-path="url(#clip850)" style="stroke:#000000; stroke-linecap:round; stroke-linejoin:round; stroke-width:4; stroke-opacity:1; fill:none" points="1746.84,1677.89 2561.75,1677.89 2561.75,1418.69 1746.84,1418.69 1746.84,1677.89 "/>
<polyline clip-path="url(#clip850)" style="stroke:#009af9; stroke-linecap:round; stroke-linejoin:round; stroke-width:15; stroke-opacity:1; fill:none" points="1773.18,1483.49 1931.19,1483.49 "/>
<path clip-path="url(#clip850)" d="M1985.33 1463.31 L1985.33 1469.01 Q1982 1467.41 1979.05 1466.63 Q1976.1 1465.85 1973.35 1465.85 Q1968.58 1465.85 1965.97 1467.7 Q1963.4 1469.56 1963.4 1472.97 Q1963.4 1475.83 1965.1 1477.31 Q1966.84 1478.76 1971.64 1479.65 L1975.17 1480.38 Q1981.71 1481.62 1984.81 1484.78 Q1987.93 1487.9 1987.93 1493.17 Q1987.93 1499.45 1983.71 1502.69 Q1979.51 1505.93 1971.38 1505.93 Q1968.32 1505.93 1964.84 1505.23 Q1961.4 1504.54 1957.7 1503.18 L1957.7 1497.16 Q1961.26 1499.16 1964.67 1500.17 Q1968.08 1501.18 1971.38 1501.18 Q1976.39 1501.18 1979.11 1499.21 Q1981.83 1497.25 1981.83 1493.6 Q1981.83 1490.42 1979.86 1488.62 Q1977.92 1486.83 1973.47 1485.93 L1969.91 1485.24 Q1963.37 1483.94 1960.45 1481.16 Q1957.52 1478.38 1957.52 1473.43 Q1957.52 1467.7 1961.55 1464.41 Q1965.6 1461.11 1972.69 1461.11 Q1975.72 1461.11 1978.88 1461.66 Q1982.03 1462.21 1985.33 1463.31 Z" fill="#000000" fill-rule="evenodd" fill-opacity="1" /><path clip-path="url(#clip850)" d="M2011.55 1488.8 Q2005.09 1488.8 2002.6 1490.27 Q2000.12 1491.75 2000.12 1495.31 Q2000.12 1498.14 2001.97 1499.82 Q2003.85 1501.47 2007.06 1501.47 Q2011.49 1501.47 2014.15 1498.35 Q2016.84 1495.19 2016.84 1489.98 L2016.84 1488.8 L2011.55 1488.8 M2022.16 1486.6 L2022.16 1505.09 L2016.84 1505.09 L2016.84 1500.17 Q2015.02 1503.12 2012.3 1504.54 Q2009.58 1505.93 2005.64 1505.93 Q2000.67 1505.93 1997.71 1503.15 Q1994.79 1500.34 1994.79 1495.66 Q1994.79 1490.19 1998.44 1487.41 Q2002.11 1484.63 2009.38 1484.63 L2016.84 1484.63 L2016.84 1484.11 Q2016.84 1480.44 2014.41 1478.44 Q2012.01 1476.41 2007.64 1476.41 Q2004.86 1476.41 2002.23 1477.08 Q1999.6 1477.74 1997.16 1479.08 L1997.16 1474.16 Q2000.09 1473.03 2002.84 1472.48 Q2005.58 1471.9 2008.19 1471.9 Q2015.22 1471.9 2018.69 1475.55 Q2022.16 1479.19 2022.16 1486.6 Z" fill="#000000" fill-rule="evenodd" fill-opacity="1" /><path clip-path="url(#clip850)" d="M2038.4 1463.48 L2038.4 1472.68 L2049.36 1472.68 L2049.36 1476.82 L2038.4 1476.82 L2038.4 1494.41 Q2038.4 1498.37 2039.47 1499.5 Q2040.57 1500.63 2043.89 1500.63 L2049.36 1500.63 L2049.36 1505.09 L2043.89 1505.09 Q2037.73 1505.09 2035.39 1502.8 Q2033.04 1500.49 2033.04 1494.41 L2033.04 1476.82 L2029.14 1476.82 L2029.14 1472.68 L2033.04 1472.68 L2033.04 1463.48 L2038.4 1463.48 Z" fill="#000000" fill-rule="evenodd" fill-opacity="1" /><path clip-path="url(#clip850)" d="M2057.12 1497.74 L2063.22 1497.74 L2063.22 1505.09 L2057.12 1505.09 L2057.12 1497.74 Z" fill="#000000" fill-rule="evenodd" fill-opacity="1" /><path clip-path="url(#clip850)" d="M2094.04 1460.06 L2099.36 1460.06 L2099.36 1505.09 L2094.04 1505.09 L2094.04 1460.06 Z" fill="#000000" fill-rule="evenodd" fill-opacity="1" /><path clip-path="url(#clip850)" d="M2110.5 1472.68 L2115.83 1472.68 L2115.83 1505.09 L2110.5 1505.09 L2110.5 1472.68 M2110.5 1460.06 L2115.83 1460.06 L2115.83 1466.81 L2110.5 1466.81 L2110.5 1460.06 Z" fill="#000000" fill-rule="evenodd" fill-opacity="1" /><path clip-path="url(#clip850)" d="M2130.15 1488.91 Q2130.15 1494.79 2132.55 1498.14 Q2134.98 1501.47 2139.21 1501.47 Q2143.43 1501.47 2145.86 1498.14 Q2148.29 1494.79 2148.29 1488.91 Q2148.29 1483.04 2145.86 1479.71 Q2143.43 1476.36 2139.21 1476.36 Q2134.98 1476.36 2132.55 1479.71 Q2130.15 1483.04 2130.15 1488.91 M2148.29 1500.23 Q2146.61 1503.12 2144.04 1504.54 Q2141.49 1505.93 2137.9 1505.93 Q2132.03 1505.93 2128.33 1501.24 Q2124.65 1496.55 2124.65 1488.91 Q2124.65 1481.27 2128.33 1476.59 Q2132.03 1471.9 2137.9 1471.9 Q2141.49 1471.9 2144.04 1473.32 Q2146.61 1474.71 2148.29 1477.6 L2148.29 1472.68 L2153.62 1472.68 L2153.62 1517.41 L2148.29 1517.41 L2148.29 1500.23 Z" fill="#000000" fill-rule="evenodd" fill-opacity="1" /><path clip-path="url(#clip850)" d="M2164.03 1492.3 L2164.03 1472.68 L2169.36 1472.68 L2169.36 1492.1 Q2169.36 1496.7 2171.15 1499.01 Q2172.94 1501.3 2176.53 1501.3 Q2180.84 1501.3 2183.33 1498.55 Q2185.85 1495.8 2185.85 1491.05 L2185.85 1472.68 L2191.17 1472.68 L2191.17 1505.09 L2185.85 1505.09 L2185.85 1500.11 Q2183.91 1503.06 2181.34 1504.51 Q2178.79 1505.93 2175.4 1505.93 Q2169.82 1505.93 2166.93 1502.45 Q2164.03 1498.98 2164.03 1492.3 M2177.43 1471.9 L2177.43 1471.9 Z" fill="#000000" fill-rule="evenodd" fill-opacity="1" /><path clip-path="url(#clip850)" d="M2202.14 1472.68 L2207.46 1472.68 L2207.46 1505.09 L2202.14 1505.09 L2202.14 1472.68 M2202.14 1460.06 L2207.46 1460.06 L2207.46 1466.81 L2202.14 1466.81 L2202.14 1460.06 Z" fill="#000000" fill-rule="evenodd" fill-opacity="1" /><path clip-path="url(#clip850)" d="M2239.93 1477.6 L2239.93 1460.06 L2245.25 1460.06 L2245.25 1505.09 L2239.93 1505.09 L2239.93 1500.23 Q2238.25 1503.12 2235.68 1504.54 Q2233.13 1505.93 2229.54 1505.93 Q2223.67 1505.93 2219.96 1501.24 Q2216.29 1496.55 2216.29 1488.91 Q2216.29 1481.27 2219.96 1476.59 Q2223.67 1471.9 2229.54 1471.9 Q2233.13 1471.9 2235.68 1473.32 Q2238.25 1474.71 2239.93 1477.6 M2221.79 1488.91 Q2221.79 1494.79 2224.19 1498.14 Q2226.62 1501.47 2230.84 1501.47 Q2235.07 1501.47 2237.5 1498.14 Q2239.93 1494.79 2239.93 1488.91 Q2239.93 1483.04 2237.5 1479.71 Q2235.07 1476.36 2230.84 1476.36 Q2226.62 1476.36 2224.19 1479.71 Q2221.79 1483.04 2221.79 1488.91 Z" fill="#000000" fill-rule="evenodd" fill-opacity="1" /><path clip-path="url(#clip850)" d="M2302.78 1487.55 L2302.78 1490.16 L2278.3 1490.16 Q2278.64 1495.66 2281.6 1498.55 Q2284.58 1501.41 2289.87 1501.41 Q2292.94 1501.41 2295.8 1500.66 Q2298.7 1499.91 2301.53 1498.4 L2301.53 1503.44 Q2298.67 1504.65 2295.66 1505.29 Q2292.65 1505.93 2289.55 1505.93 Q2281.8 1505.93 2277.26 1501.41 Q2272.74 1496.9 2272.74 1489.2 Q2272.74 1481.25 2277.02 1476.59 Q2281.34 1471.9 2288.63 1471.9 Q2295.17 1471.9 2298.96 1476.12 Q2302.78 1480.32 2302.78 1487.55 M2297.45 1485.99 Q2297.39 1481.62 2294.99 1479.02 Q2292.62 1476.41 2288.68 1476.41 Q2284.23 1476.41 2281.54 1478.93 Q2278.88 1481.45 2278.47 1486.02 L2297.45 1485.99 Z" fill="#000000" fill-rule="evenodd" fill-opacity="1" /><path clip-path="url(#clip850)" d="M2338.45 1485.53 L2338.45 1505.09 L2333.13 1505.09 L2333.13 1485.7 Q2333.13 1481.1 2331.34 1478.81 Q2329.54 1476.53 2325.95 1476.53 Q2321.64 1476.53 2319.15 1479.28 Q2316.67 1482.03 2316.67 1486.77 L2316.67 1505.09 L2311.31 1505.09 L2311.31 1472.68 L2316.67 1472.68 L2316.67 1477.72 Q2318.57 1474.79 2321.15 1473.35 Q2323.75 1471.9 2327.14 1471.9 Q2332.72 1471.9 2335.59 1475.37 Q2338.45 1478.81 2338.45 1485.53 Z" fill="#000000" fill-rule="evenodd" fill-opacity="1" /><path clip-path="url(#clip850)" d="M2354.34 1463.48 L2354.34 1472.68 L2365.3 1472.68 L2365.3 1476.82 L2354.34 1476.82 L2354.34 1494.41 Q2354.34 1498.37 2355.41 1499.5 Q2356.51 1500.63 2359.84 1500.63 L2365.3 1500.63 L2365.3 1505.09 L2359.84 1505.09 Q2353.67 1505.09 2351.33 1502.8 Q2348.99 1500.49 2348.99 1494.41 L2348.99 1476.82 L2345.08 1476.82 L2345.08 1472.68 L2348.99 1472.68 L2348.99 1463.48 L2354.34 1463.48 Z" fill="#000000" fill-rule="evenodd" fill-opacity="1" /><path clip-path="url(#clip850)" d="M2399.25 1485.53 L2399.25 1505.09 L2393.92 1505.09 L2393.92 1485.7 Q2393.92 1481.1 2392.13 1478.81 Q2390.33 1476.53 2386.75 1476.53 Q2382.43 1476.53 2379.95 1479.28 Q2377.46 1482.03 2377.46 1486.77 L2377.46 1505.09 L2372.1 1505.09 L2372.1 1460.06 L2377.46 1460.06 L2377.46 1477.72 Q2379.37 1474.79 2381.94 1473.35 Q2384.55 1471.9 2387.93 1471.9 Q2393.52 1471.9 2396.38 1475.37 Q2399.25 1478.81 2399.25 1485.53 Z" fill="#000000" fill-rule="evenodd" fill-opacity="1" /><path clip-path="url(#clip850)" d="M2424.59 1488.8 Q2418.14 1488.8 2415.65 1490.27 Q2413.16 1491.75 2413.16 1495.31 Q2413.16 1498.14 2415.02 1499.82 Q2416.9 1501.47 2420.11 1501.47 Q2424.53 1501.47 2427.2 1498.35 Q2429.89 1495.19 2429.89 1489.98 L2429.89 1488.8 L2424.59 1488.8 M2435.21 1486.6 L2435.21 1505.09 L2429.89 1505.09 L2429.89 1500.17 Q2428.06 1503.12 2425.35 1504.54 Q2422.63 1505.93 2418.69 1505.93 Q2413.71 1505.93 2410.76 1503.15 Q2407.84 1500.34 2407.84 1495.66 Q2407.84 1490.19 2411.49 1487.41 Q2415.16 1484.63 2422.42 1484.63 L2429.89 1484.63 L2429.89 1484.11 Q2429.89 1480.44 2427.46 1478.44 Q2425.06 1476.41 2420.69 1476.41 Q2417.91 1476.41 2415.28 1477.08 Q2412.64 1477.74 2410.21 1479.08 L2410.21 1474.16 Q2413.13 1473.03 2415.88 1472.48 Q2418.63 1471.9 2421.24 1471.9 Q2428.27 1471.9 2431.74 1475.55 Q2435.21 1479.19 2435.21 1486.6 Z" fill="#000000" fill-rule="evenodd" fill-opacity="1" /><path clip-path="url(#clip850)" d="M2446.18 1460.06 L2451.5 1460.06 L2451.5 1505.09 L2446.18 1505.09 L2446.18 1460.06 Z" fill="#000000" fill-rule="evenodd" fill-opacity="1" /><path clip-path="url(#clip850)" d="M2467.79 1500.23 L2467.79 1517.41 L2462.44 1517.41 L2462.44 1472.68 L2467.79 1472.68 L2467.79 1477.6 Q2469.47 1474.71 2472.02 1473.32 Q2474.59 1471.9 2478.15 1471.9 Q2484.05 1471.9 2487.73 1476.59 Q2491.43 1481.27 2491.43 1488.91 Q2491.43 1496.55 2487.73 1501.24 Q2484.05 1505.93 2478.15 1505.93 Q2474.59 1505.93 2472.02 1504.54 Q2469.47 1503.12 2467.79 1500.23 M2485.91 1488.91 Q2485.91 1483.04 2483.48 1479.71 Q2481.07 1476.36 2476.85 1476.36 Q2472.62 1476.36 2470.19 1479.71 Q2467.79 1483.04 2467.79 1488.91 Q2467.79 1494.79 2470.19 1498.14 Q2472.62 1501.47 2476.85 1501.47 Q2481.07 1501.47 2483.48 1498.14 Q2485.91 1494.79 2485.91 1488.91 Z" fill="#000000" fill-rule="evenodd" fill-opacity="1" /><path clip-path="url(#clip850)" d="M2513.74 1508.1 Q2511.48 1513.88 2509.34 1515.65 Q2507.2 1517.41 2503.61 1517.41 L2499.36 1517.41 L2499.36 1512.96 L2502.49 1512.96 Q2504.68 1512.96 2505.9 1511.92 Q2507.12 1510.87 2508.59 1507 L2509.55 1504.57 L2496.44 1472.68 L2502.08 1472.68 L2512.21 1498.03 L2522.34 1472.68 L2527.98 1472.68 L2513.74 1508.1 Z" fill="#000000" fill-rule="evenodd" fill-opacity="1" /><polyline clip-path="url(#clip850)" style="stroke:#e26f46; stroke-linecap:round; stroke-linejoin:round; stroke-width:15; stroke-opacity:1; fill:none" points="1773.18,1548.29 1931.19,1548.29 "/>
<path clip-path="url(#clip850)" d="M1985.33 1528.11 L1985.33 1533.81 Q1982 1532.21 1979.05 1531.43 Q1976.1 1530.65 1973.35 1530.65 Q1968.58 1530.65 1965.97 1532.5 Q1963.4 1534.36 1963.4 1537.77 Q1963.4 1540.63 1965.1 1542.11 Q1966.84 1543.56 1971.64 1544.45 L1975.17 1545.18 Q1981.71 1546.42 1984.81 1549.58 Q1987.93 1552.7 1987.93 1557.97 Q1987.93 1564.25 1983.71 1567.49 Q1979.51 1570.73 1971.38 1570.73 Q1968.32 1570.73 1964.84 1570.03 Q1961.4 1569.34 1957.7 1567.98 L1957.7 1561.96 Q1961.26 1563.96 1964.67 1564.97 Q1968.08 1565.98 1971.38 1565.98 Q1976.39 1565.98 1979.11 1564.01 Q1981.83 1562.05 1981.83 1558.4 Q1981.83 1555.22 1979.86 1553.42 Q1977.92 1551.63 1973.47 1550.73 L1969.91 1550.04 Q1963.37 1548.74 1960.45 1545.96 Q1957.52 1543.18 1957.52 1538.23 Q1957.52 1532.5 1961.55 1529.21 Q1965.6 1525.91 1972.69 1525.91 Q1975.72 1525.91 1978.88 1526.46 Q1982.03 1527.01 1985.33 1528.11 Z" fill="#000000" fill-rule="evenodd" fill-opacity="1" /><path clip-path="url(#clip850)" d="M2011.55 1553.6 Q2005.09 1553.6 2002.6 1555.07 Q2000.12 1556.55 2000.12 1560.11 Q2000.12 1562.94 2001.97 1564.62 Q2003.85 1566.27 2007.06 1566.27 Q2011.49 1566.27 2014.15 1563.15 Q2016.84 1559.99 2016.84 1554.78 L2016.84 1553.6 L2011.55 1553.6 M2022.16 1551.4 L2022.16 1569.89 L2016.84 1569.89 L2016.84 1564.97 Q2015.02 1567.92 2012.3 1569.34 Q2009.58 1570.73 2005.64 1570.73 Q2000.67 1570.73 1997.71 1567.95 Q1994.79 1565.14 1994.79 1560.46 Q1994.79 1554.99 1998.44 1552.21 Q2002.11 1549.43 2009.38 1549.43 L2016.84 1549.43 L2016.84 1548.91 Q2016.84 1545.24 2014.41 1543.24 Q2012.01 1541.21 2007.64 1541.21 Q2004.86 1541.21 2002.23 1541.88 Q1999.6 1542.54 1997.16 1543.88 L1997.16 1538.96 Q2000.09 1537.83 2002.84 1537.28 Q2005.58 1536.7 2008.19 1536.7 Q2015.22 1536.7 2018.69 1540.35 Q2022.16 1543.99 2022.16 1551.4 Z" fill="#000000" fill-rule="evenodd" fill-opacity="1" /><path clip-path="url(#clip850)" d="M2038.4 1528.28 L2038.4 1537.48 L2049.36 1537.48 L2049.36 1541.62 L2038.4 1541.62 L2038.4 1559.21 Q2038.4 1563.17 2039.47 1564.3 Q2040.57 1565.43 2043.89 1565.43 L2049.36 1565.43 L2049.36 1569.89 L2043.89 1569.89 Q2037.73 1569.89 2035.39 1567.6 Q2033.04 1565.29 2033.04 1559.21 L2033.04 1541.62 L2029.14 1541.62 L2029.14 1537.48 L2033.04 1537.48 L2033.04 1528.28 L2038.4 1528.28 Z" fill="#000000" fill-rule="evenodd" fill-opacity="1" /><path clip-path="url(#clip850)" d="M2057.12 1562.54 L2063.22 1562.54 L2063.22 1569.89 L2057.12 1569.89 L2057.12 1562.54 Z" fill="#000000" fill-rule="evenodd" fill-opacity="1" /><path clip-path="url(#clip850)" d="M2090.22 1537.48 L2095.86 1537.48 L2105.99 1564.68 L2116.12 1537.48 L2121.76 1537.48 L2109.61 1569.89 L2102.37 1569.89 L2090.22 1537.48 Z" fill="#000000" fill-rule="evenodd" fill-opacity="1" /><path clip-path="url(#clip850)" d="M2143.84 1553.6 Q2137.38 1553.6 2134.9 1555.07 Q2132.41 1556.55 2132.41 1560.11 Q2132.41 1562.94 2134.26 1564.62 Q2136.14 1566.27 2139.35 1566.27 Q2143.78 1566.27 2146.44 1563.15 Q2149.13 1559.99 2149.13 1554.78 L2149.13 1553.6 L2143.84 1553.6 M2154.46 1551.4 L2154.46 1569.89 L2149.13 1569.89 L2149.13 1564.97 Q2147.31 1567.92 2144.59 1569.34 Q2141.87 1570.73 2137.93 1570.73 Q2132.96 1570.73 2130.01 1567.95 Q2127.08 1565.14 2127.08 1560.46 Q2127.08 1554.99 2130.73 1552.21 Q2134.4 1549.43 2141.67 1549.43 L2149.13 1549.43 L2149.13 1548.91 Q2149.13 1545.24 2146.7 1543.24 Q2144.3 1541.21 2139.93 1541.21 Q2137.15 1541.21 2134.52 1541.88 Q2131.89 1542.54 2129.46 1543.88 L2129.46 1538.96 Q2132.38 1537.83 2135.13 1537.28 Q2137.88 1536.7 2140.48 1536.7 Q2147.51 1536.7 2150.98 1540.35 Q2154.46 1543.99 2154.46 1551.4 Z" fill="#000000" fill-rule="evenodd" fill-opacity="1" /><path clip-path="url(#clip850)" d="M2170.57 1565.03 L2170.57 1582.21 L2165.22 1582.21 L2165.22 1537.48 L2170.57 1537.48 L2170.57 1542.4 Q2172.25 1539.51 2174.8 1538.12 Q2177.37 1536.7 2180.93 1536.7 Q2186.83 1536.7 2190.51 1541.39 Q2194.21 1546.07 2194.21 1553.71 Q2194.21 1561.35 2190.51 1566.04 Q2186.83 1570.73 2180.93 1570.73 Q2177.37 1570.73 2174.8 1569.34 Q2172.25 1567.92 2170.57 1565.03 M2188.69 1553.71 Q2188.69 1547.84 2186.25 1544.51 Q2183.85 1541.16 2179.63 1541.16 Q2175.4 1541.16 2172.97 1544.51 Q2170.57 1547.84 2170.57 1553.71 Q2170.57 1559.59 2172.97 1562.94 Q2175.4 1566.27 2179.63 1566.27 Q2183.85 1566.27 2186.25 1562.94 Q2188.69 1559.59 2188.69 1553.71 Z" fill="#000000" fill-rule="evenodd" fill-opacity="1" /><path clip-path="url(#clip850)" d="M2215.6 1541.21 Q2211.31 1541.21 2208.82 1544.57 Q2206.34 1547.9 2206.34 1553.71 Q2206.34 1559.53 2208.8 1562.89 Q2211.28 1566.21 2215.6 1566.21 Q2219.85 1566.21 2222.34 1562.86 Q2224.83 1559.5 2224.83 1553.71 Q2224.83 1547.96 2222.34 1544.6 Q2219.85 1541.21 2215.6 1541.21 M2215.6 1536.7 Q2222.54 1536.7 2226.5 1541.21 Q2230.47 1545.73 2230.47 1553.71 Q2230.47 1561.67 2226.5 1566.21 Q2222.54 1570.73 2215.6 1570.73 Q2208.62 1570.73 2204.66 1566.21 Q2200.72 1561.67 2200.72 1553.71 Q2200.72 1545.73 2204.66 1541.21 Q2208.62 1536.7 2215.6 1536.7 Z" fill="#000000" fill-rule="evenodd" fill-opacity="1" /><path clip-path="url(#clip850)" d="M2258.07 1542.46 Q2257.17 1541.94 2256.1 1541.71 Q2255.06 1541.44 2253.79 1541.44 Q2249.28 1541.44 2246.84 1544.4 Q2244.44 1547.32 2244.44 1552.82 L2244.44 1569.89 L2239.09 1569.89 L2239.09 1537.48 L2244.44 1537.48 L2244.44 1542.52 Q2246.12 1539.56 2248.81 1538.15 Q2251.5 1536.7 2255.35 1536.7 Q2255.9 1536.7 2256.57 1536.79 Q2257.23 1536.84 2258.04 1536.99 L2258.07 1542.46 Z" fill="#000000" fill-rule="evenodd" fill-opacity="1" /><path clip-path="url(#clip850)" d="M2310.21 1552.35 L2310.21 1554.96 L2285.73 1554.96 Q2286.08 1560.46 2289.03 1563.35 Q2292.01 1566.21 2297.31 1566.21 Q2300.37 1566.21 2303.24 1565.46 Q2306.13 1564.71 2308.97 1563.2 L2308.97 1568.24 Q2306.1 1569.45 2303.09 1570.09 Q2300.09 1570.73 2296.99 1570.73 Q2289.23 1570.73 2284.69 1566.21 Q2280.18 1561.7 2280.18 1554 Q2280.18 1546.05 2284.46 1541.39 Q2288.77 1536.7 2296.06 1536.7 Q2302.6 1536.7 2306.39 1540.92 Q2310.21 1545.12 2310.21 1552.35 M2304.89 1550.79 Q2304.83 1546.42 2302.43 1543.82 Q2300.06 1541.21 2296.12 1541.21 Q2291.67 1541.21 2288.97 1543.73 Q2286.31 1546.25 2285.91 1550.82 L2304.89 1550.79 Z" fill="#000000" fill-rule="evenodd" fill-opacity="1" /><path clip-path="url(#clip850)" d="M2345.89 1550.33 L2345.89 1569.89 L2340.57 1569.89 L2340.57 1550.5 Q2340.57 1545.9 2338.77 1543.61 Q2336.98 1541.33 2333.39 1541.33 Q2329.08 1541.33 2326.59 1544.08 Q2324.1 1546.83 2324.1 1551.57 L2324.1 1569.89 L2318.75 1569.89 L2318.75 1537.48 L2324.1 1537.48 L2324.1 1542.52 Q2326.01 1539.59 2328.59 1538.15 Q2331.19 1536.7 2334.58 1536.7 Q2340.16 1536.7 2343.02 1540.17 Q2345.89 1543.61 2345.89 1550.33 Z" fill="#000000" fill-rule="evenodd" fill-opacity="1" /><path clip-path="url(#clip850)" d="M2361.77 1528.28 L2361.77 1537.48 L2372.74 1537.48 L2372.74 1541.62 L2361.77 1541.62 L2361.77 1559.21 Q2361.77 1563.17 2362.85 1564.3 Q2363.94 1565.43 2367.27 1565.43 L2372.74 1565.43 L2372.74 1569.89 L2367.27 1569.89 Q2361.11 1569.89 2358.77 1567.6 Q2356.42 1565.29 2356.42 1559.21 L2356.42 1541.62 L2352.52 1541.62 L2352.52 1537.48 L2356.42 1537.48 L2356.42 1528.28 L2361.77 1528.28 Z" fill="#000000" fill-rule="evenodd" fill-opacity="1" /><path clip-path="url(#clip850)" d="M2406.68 1550.33 L2406.68 1569.89 L2401.36 1569.89 L2401.36 1550.5 Q2401.36 1545.9 2399.56 1543.61 Q2397.77 1541.33 2394.18 1541.33 Q2389.87 1541.33 2387.38 1544.08 Q2384.89 1546.83 2384.89 1551.57 L2384.89 1569.89 L2379.54 1569.89 L2379.54 1524.86 L2384.89 1524.86 L2384.89 1542.52 Q2386.8 1539.59 2389.38 1538.15 Q2391.98 1536.7 2395.37 1536.7 Q2400.95 1536.7 2403.82 1540.17 Q2406.68 1543.61 2406.68 1550.33 Z" fill="#000000" fill-rule="evenodd" fill-opacity="1" /><path clip-path="url(#clip850)" d="M2432.03 1553.6 Q2425.58 1553.6 2423.09 1555.07 Q2420.6 1556.55 2420.6 1560.11 Q2420.6 1562.94 2422.45 1564.62 Q2424.33 1566.27 2427.54 1566.27 Q2431.97 1566.27 2434.63 1563.15 Q2437.32 1559.99 2437.32 1554.78 L2437.32 1553.6 L2432.03 1553.6 M2442.65 1551.4 L2442.65 1569.89 L2437.32 1569.89 L2437.32 1564.97 Q2435.5 1567.92 2432.78 1569.34 Q2430.06 1570.73 2426.13 1570.73 Q2421.15 1570.73 2418.2 1567.95 Q2415.28 1565.14 2415.28 1560.46 Q2415.28 1554.99 2418.92 1552.21 Q2422.6 1549.43 2429.86 1549.43 L2437.32 1549.43 L2437.32 1548.91 Q2437.32 1545.24 2434.89 1543.24 Q2432.49 1541.21 2428.12 1541.21 Q2425.35 1541.21 2422.71 1541.88 Q2420.08 1542.54 2417.65 1543.88 L2417.65 1538.96 Q2420.57 1537.83 2423.32 1537.28 Q2426.07 1536.7 2428.67 1536.7 Q2435.7 1536.7 2439.18 1540.35 Q2442.65 1543.99 2442.65 1551.4 Z" fill="#000000" fill-rule="evenodd" fill-opacity="1" /><path clip-path="url(#clip850)" d="M2453.61 1524.86 L2458.94 1524.86 L2458.94 1569.89 L2453.61 1569.89 L2453.61 1524.86 Z" fill="#000000" fill-rule="evenodd" fill-opacity="1" /><path clip-path="url(#clip850)" d="M2475.23 1565.03 L2475.23 1582.21 L2469.88 1582.21 L2469.88 1537.48 L2475.23 1537.48 L2475.23 1542.4 Q2476.91 1539.51 2479.45 1538.12 Q2482.03 1536.7 2485.59 1536.7 Q2491.49 1536.7 2495.17 1541.39 Q2498.87 1546.07 2498.87 1553.71 Q2498.87 1561.35 2495.17 1566.04 Q2491.49 1570.73 2485.59 1570.73 Q2482.03 1570.73 2479.45 1569.34 Q2476.91 1567.92 2475.23 1565.03 M2493.34 1553.71 Q2493.34 1547.84 2490.91 1544.51 Q2488.51 1541.16 2484.29 1541.16 Q2480.06 1541.16 2477.63 1544.51 Q2475.23 1547.84 2475.23 1553.71 Q2475.23 1559.59 2477.63 1562.94 Q2480.06 1566.27 2484.29 1566.27 Q2488.51 1566.27 2490.91 1562.94 Q2493.34 1559.59 2493.34 1553.71 Z" fill="#000000" fill-rule="evenodd" fill-opacity="1" /><path clip-path="url(#clip850)" d="M2521.18 1572.9 Q2518.92 1578.68 2516.78 1580.45 Q2514.64 1582.21 2511.05 1582.21 L2506.8 1582.21 L2506.8 1577.76 L2509.92 1577.76 Q2512.12 1577.76 2513.34 1576.72 Q2514.55 1575.67 2516.03 1571.8 L2516.98 1569.37 L2503.87 1537.48 L2509.52 1537.48 L2519.64 1562.83 L2529.77 1537.48 L2535.41 1537.48 L2521.18 1572.9 Z" fill="#000000" fill-rule="evenodd" fill-opacity="1" /><circle clip-path="url(#clip850)" cx="1852.18" cy="1613.09" r="28.8" fill="#3da44d" fill-rule="evenodd" fill-opacity="1" stroke="#000000" stroke-opacity="1" stroke-width="5.12"/>
<path clip-path="url(#clip850)" d="M1992.36 1594.82 L1992.36 1600.98 Q1989.41 1598.23 1986.05 1596.87 Q1982.73 1595.51 1978.96 1595.51 Q1971.56 1595.51 1967.62 1600.05 Q1963.69 1604.57 1963.69 1613.13 Q1963.69 1621.67 1967.62 1626.21 Q1971.56 1630.72 1978.96 1630.72 Q1982.73 1630.72 1986.05 1629.36 Q1989.41 1628 1992.36 1625.26 L1992.36 1631.36 Q1989.29 1633.44 1985.85 1634.49 Q1982.44 1635.53 1978.62 1635.53 Q1968.81 1635.53 1963.17 1629.54 Q1957.52 1623.52 1957.52 1613.13 Q1957.52 1602.71 1963.17 1596.73 Q1968.81 1590.71 1978.62 1590.71 Q1982.49 1590.71 1985.91 1591.75 Q1989.35 1592.76 1992.36 1594.82 Z" fill="#000000" fill-rule="evenodd" fill-opacity="1" /><path clip-path="url(#clip850)" d="M2019.94 1607.26 Q2019.04 1606.74 2017.97 1606.51 Q2016.93 1606.24 2015.65 1606.24 Q2011.14 1606.24 2008.71 1609.2 Q2006.31 1612.12 2006.31 1617.62 L2006.31 1634.69 L2000.95 1634.69 L2000.95 1602.28 L2006.31 1602.28 L2006.31 1607.32 Q2007.99 1604.36 2010.68 1602.95 Q2013.37 1601.5 2017.22 1601.5 Q2017.77 1601.5 2018.43 1601.59 Q2019.1 1601.64 2019.91 1601.79 L2019.94 1607.26 Z" fill="#000000" fill-rule="evenodd" fill-opacity="1" /><path clip-path="url(#clip850)" d="M2025.52 1602.28 L2030.84 1602.28 L2030.84 1634.69 L2025.52 1634.69 L2025.52 1602.28 M2025.52 1589.66 L2030.84 1589.66 L2030.84 1596.41 L2025.52 1596.41 L2025.52 1589.66 Z" fill="#000000" fill-rule="evenodd" fill-opacity="1" /><path clip-path="url(#clip850)" d="M2047.25 1593.08 L2047.25 1602.28 L2058.22 1602.28 L2058.22 1606.42 L2047.25 1606.42 L2047.25 1624.01 Q2047.25 1627.97 2048.32 1629.1 Q2049.42 1630.23 2052.75 1630.23 L2058.22 1630.23 L2058.22 1634.69 L2052.75 1634.69 Q2046.59 1634.69 2044.24 1632.4 Q2041.9 1630.09 2041.9 1624.01 L2041.9 1606.42 L2037.99 1606.42 L2037.99 1602.28 L2041.9 1602.28 L2041.9 1593.08 L2047.25 1593.08 Z" fill="#000000" fill-rule="evenodd" fill-opacity="1" /><path clip-path="url(#clip850)" d="M2065.22 1602.28 L2070.54 1602.28 L2070.54 1634.69 L2065.22 1634.69 L2065.22 1602.28 M2065.22 1589.66 L2070.54 1589.66 L2070.54 1596.41 L2065.22 1596.41 L2065.22 1589.66 Z" fill="#000000" fill-rule="evenodd" fill-opacity="1" /><path clip-path="url(#clip850)" d="M2105.01 1603.52 L2105.01 1608.5 Q2102.75 1607.26 2100.46 1606.65 Q2098.21 1606.01 2095.89 1606.01 Q2090.71 1606.01 2087.85 1609.31 Q2084.98 1612.58 2084.98 1618.51 Q2084.98 1624.44 2087.85 1627.74 Q2090.71 1631.01 2095.89 1631.01 Q2098.21 1631.01 2100.46 1630.41 Q2102.75 1629.77 2105.01 1628.52 L2105.01 1633.44 Q2102.78 1634.49 2100.38 1635.01 Q2098 1635.53 2095.31 1635.53 Q2087.99 1635.53 2083.68 1630.93 Q2079.37 1626.33 2079.37 1618.51 Q2079.37 1610.59 2083.71 1606.04 Q2088.08 1601.5 2095.66 1601.5 Q2098.12 1601.5 2100.46 1602.02 Q2102.81 1602.51 2105.01 1603.52 Z" fill="#000000" fill-rule="evenodd" fill-opacity="1" /><path clip-path="url(#clip850)" d="M2128.99 1618.4 Q2122.54 1618.4 2120.05 1619.87 Q2117.56 1621.35 2117.56 1624.91 Q2117.56 1627.74 2119.42 1629.42 Q2121.3 1631.07 2124.51 1631.07 Q2128.93 1631.07 2131.6 1627.95 Q2134.29 1624.79 2134.29 1619.58 L2134.29 1618.4 L2128.99 1618.4 M2139.61 1616.2 L2139.61 1634.69 L2134.29 1634.69 L2134.29 1629.77 Q2132.46 1632.72 2129.74 1634.14 Q2127.02 1635.53 2123.09 1635.53 Q2118.11 1635.53 2115.16 1632.75 Q2112.24 1629.94 2112.24 1625.26 Q2112.24 1619.79 2115.88 1617.01 Q2119.56 1614.23 2126.82 1614.23 L2134.29 1614.23 L2134.29 1613.71 Q2134.29 1610.04 2131.86 1608.04 Q2129.46 1606.01 2125.09 1606.01 Q2122.31 1606.01 2119.68 1606.68 Q2117.04 1607.34 2114.61 1608.68 L2114.61 1603.76 Q2117.53 1602.63 2120.28 1602.08 Q2123.03 1601.5 2125.64 1601.5 Q2132.67 1601.5 2136.14 1605.15 Q2139.61 1608.79 2139.61 1616.2 Z" fill="#000000" fill-rule="evenodd" fill-opacity="1" /><path clip-path="url(#clip850)" d="M2150.58 1589.66 L2155.9 1589.66 L2155.9 1634.69 L2150.58 1634.69 L2150.58 1589.66 Z" fill="#000000" fill-rule="evenodd" fill-opacity="1" /><path clip-path="url(#clip850)" d="M2191.03 1629.83 L2191.03 1647.01 L2185.68 1647.01 L2185.68 1602.28 L2191.03 1602.28 L2191.03 1607.2 Q2192.71 1604.31 2195.25 1602.92 Q2197.83 1601.5 2201.39 1601.5 Q2207.29 1601.5 2210.97 1606.19 Q2214.67 1610.87 2214.67 1618.51 Q2214.67 1626.15 2210.97 1630.84 Q2207.29 1635.53 2201.39 1635.53 Q2197.83 1635.53 2195.25 1634.14 Q2192.71 1632.72 2191.03 1629.83 M2209.14 1618.51 Q2209.14 1612.64 2206.71 1609.31 Q2204.31 1605.96 2200.09 1605.96 Q2195.86 1605.96 2193.43 1609.31 Q2191.03 1612.64 2191.03 1618.51 Q2191.03 1624.39 2193.43 1627.74 Q2195.86 1631.07 2200.09 1631.07 Q2204.31 1631.07 2206.71 1627.74 Q2209.14 1624.39 2209.14 1618.51 Z" fill="#000000" fill-rule="evenodd" fill-opacity="1" /><path clip-path="url(#clip850)" d="M2236.05 1606.01 Q2231.77 1606.01 2229.28 1609.37 Q2226.79 1612.7 2226.79 1618.51 Q2226.79 1624.33 2229.25 1627.69 Q2231.74 1631.01 2236.05 1631.01 Q2240.31 1631.01 2242.79 1627.66 Q2245.28 1624.3 2245.28 1618.51 Q2245.28 1612.76 2242.79 1609.4 Q2240.31 1606.01 2236.05 1606.01 M2236.05 1601.5 Q2243 1601.5 2246.96 1606.01 Q2250.92 1610.53 2250.92 1618.51 Q2250.92 1626.47 2246.96 1631.01 Q2243 1635.53 2236.05 1635.53 Q2229.08 1635.53 2225.11 1631.01 Q2221.18 1626.47 2221.18 1618.51 Q2221.18 1610.53 2225.11 1606.01 Q2229.08 1601.5 2236.05 1601.5 Z" fill="#000000" fill-rule="evenodd" fill-opacity="1" /><path clip-path="url(#clip850)" d="M2259.75 1602.28 L2265.07 1602.28 L2265.07 1634.69 L2259.75 1634.69 L2259.75 1602.28 M2259.75 1589.66 L2265.07 1589.66 L2265.07 1596.41 L2259.75 1596.41 L2259.75 1589.66 Z" fill="#000000" fill-rule="evenodd" fill-opacity="1" /><path clip-path="url(#clip850)" d="M2303.15 1615.13 L2303.15 1634.69 L2297.83 1634.69 L2297.83 1615.3 Q2297.83 1610.7 2296.03 1608.41 Q2294.24 1606.13 2290.65 1606.13 Q2286.34 1606.13 2283.85 1608.88 Q2281.36 1611.63 2281.36 1616.37 L2281.36 1634.69 L2276.01 1634.69 L2276.01 1602.28 L2281.36 1602.28 L2281.36 1607.32 Q2283.27 1604.39 2285.85 1602.95 Q2288.45 1601.5 2291.84 1601.5 Q2297.42 1601.5 2300.29 1604.97 Q2303.15 1608.41 2303.15 1615.13 Z" fill="#000000" fill-rule="evenodd" fill-opacity="1" /><path clip-path="url(#clip850)" d="M2319.04 1593.08 L2319.04 1602.28 L2330 1602.28 L2330 1606.42 L2319.04 1606.42 L2319.04 1624.01 Q2319.04 1627.97 2320.11 1629.1 Q2321.21 1630.23 2324.54 1630.23 L2330 1630.23 L2330 1634.69 L2324.54 1634.69 Q2318.37 1634.69 2316.03 1632.4 Q2313.68 1630.09 2313.68 1624.01 L2313.68 1606.42 L2309.78 1606.42 L2309.78 1602.28 L2313.68 1602.28 L2313.68 1593.08 L2319.04 1593.08 Z" fill="#000000" fill-rule="evenodd" fill-opacity="1" /></svg>
