<?xml version="1.0" encoding="utf-8"?>
<svg xmlns="http://www.w3.org/2000/svg" xmlns:xlink="http://www.w3.org/1999/xlink" width="672" height="480" viewBox="0 0 2688 1920">
<defs>
  <clipPath id="clip250">
    <rect x="0" y="0" width="2688" height="1920"/>
  </clipPath>
</defs>
<path clip-path="url(#clip250)" d="M0 1920 L2688 1920 L2688 0 L0 0  Z" fill="#ffffff" fill-rule="evenodd" fill-opacity="1"/>
<defs>
  <clipPath id="clip251">
    <rect x="537" y="0" width="1883" height="1883"/>
  </clipPath>
</defs>
<path clip-path="url(#clip250)" d="M268.826 1734.12 L2640.76 1734.12 L2640.76 47.2441 L268.826 47.2441  Z" fill="#ffffff" fill-rule="evenodd" fill-opacity="1"/>
<defs>
  <clipPath id="clip252">
    <rect x="268" y="47" width="2373" height="1688"/>
  </clipPath>
</defs>
<polyline clip-path="url(#clip252)" style="stroke:#5f9ea0; stroke-linecap:round; stroke-linejoin:round; stroke-width:8; stroke-opacity:0.4; fill:none" stroke-dasharray="32, 16, 4, 16" points="496.569,1734.12 496.569,47.2441 "/>
<polyline clip-path="url(#clip252)" style="stroke:#5f9ea0; stroke-linecap:round; stroke-linejoin:round; stroke-width:8; stroke-opacity:0.4; fill:none" stroke-dasharray="32, 16, 4, 16" points="1094.98,1734.12 1094.98,47.2441 "/>
<polyline clip-path="url(#clip252)" style="stroke:#5f9ea0; stroke-linecap:round; stroke-linejoin:round; stroke-width:8; stroke-opacity:0.4; fill:none" stroke-dasharray="32, 16, 4, 16" points="1693.39,1734.12 1693.39,47.2441 "/>
<polyline clip-path="url(#clip252)" style="stroke:#5f9ea0; stroke-linecap:round; stroke-linejoin:round; stroke-width:8; stroke-opacity:0.4; fill:none" stroke-dasharray="32, 16, 4, 16" points="2291.8,1734.12 2291.8,47.2441 "/>
<polyline clip-path="url(#clip250)" style="stroke:#000000; stroke-linecap:round; stroke-linejoin:round; stroke-width:4; stroke-opacity:1; fill:none" points="268.826,1734.12 2640.76,1734.12 "/>
<polyline clip-path="url(#clip250)" style="stroke:#000000; stroke-linecap:round; stroke-linejoin:round; stroke-width:4; stroke-opacity:1; fill:none" points="268.826,47.2441 2640.76,47.2441 "/>
<polyline clip-path="url(#clip250)" style="stroke:#000000; stroke-linecap:round; stroke-linejoin:round; stroke-width:4; stroke-opacity:1; fill:none" points="496.569,1734.12 496.569,1715.22 "/>
<polyline clip-path="url(#clip250)" style="stroke:#000000; stroke-linecap:round; stroke-linejoin:round; stroke-width:4; stroke-opacity:1; fill:none" points="1094.98,1734.12 1094.98,1715.22 "/>
<polyline clip-path="url(#clip250)" style="stroke:#000000; stroke-linecap:round; stroke-linejoin:round; stroke-width:4; stroke-opacity:1; fill:none" points="1693.39,1734.12 1693.39,1715.22 "/>
<polyline clip-path="url(#clip250)" style="stroke:#000000; stroke-linecap:round; stroke-linejoin:round; stroke-width:4; stroke-opacity:1; fill:none" points="2291.8,1734.12 2291.8,1715.22 "/>
<path clip-path="url(#clip250)" d="M470.331 1780.19 Q473.687 1780.9 475.562 1783.17 Q477.46 1785.44 477.46 1788.77 Q477.46 1793.89 473.942 1796.69 Q470.423 1799.49 463.942 1799.49 Q461.766 1799.49 459.451 1799.05 Q457.159 1798.64 454.706 1797.78 L454.706 1793.27 Q456.65 1794.4 458.965 1794.98 Q461.28 1795.56 463.803 1795.56 Q468.201 1795.56 470.493 1793.82 Q472.807 1792.08 472.807 1788.77 Q472.807 1785.72 470.655 1784.01 Q468.525 1782.27 464.706 1782.27 L460.678 1782.27 L460.678 1778.43 L464.891 1778.43 Q468.34 1778.43 470.169 1777.06 Q471.997 1775.67 471.997 1773.08 Q471.997 1770.42 470.099 1769.01 Q468.224 1767.57 464.706 1767.57 Q462.784 1767.57 460.585 1767.99 Q458.386 1768.4 455.747 1769.28 L455.747 1765.12 Q458.409 1764.38 460.724 1764.01 Q463.062 1763.64 465.122 1763.64 Q470.446 1763.64 473.548 1766.07 Q476.65 1768.47 476.65 1772.59 Q476.65 1775.46 475.006 1777.46 Q473.363 1779.42 470.331 1780.19 Z" fill="#000000" fill-rule="evenodd" fill-opacity="1" /><path clip-path="url(#clip250)" d="M496.326 1767.34 Q492.715 1767.34 490.886 1770.9 Q489.08 1774.45 489.08 1781.58 Q489.08 1788.68 490.886 1792.25 Q492.715 1795.79 496.326 1795.79 Q499.96 1795.79 501.766 1792.25 Q503.594 1788.68 503.594 1781.58 Q503.594 1774.45 501.766 1770.9 Q499.96 1767.34 496.326 1767.34 M496.326 1763.64 Q502.136 1763.64 505.191 1768.24 Q508.27 1772.83 508.27 1781.58 Q508.27 1790.3 505.191 1794.91 Q502.136 1799.49 496.326 1799.49 Q490.516 1799.49 487.437 1794.91 Q484.381 1790.3 484.381 1781.58 Q484.381 1772.83 487.437 1768.24 Q490.516 1763.64 496.326 1763.64 Z" fill="#000000" fill-rule="evenodd" fill-opacity="1" /><path clip-path="url(#clip250)" d="M526.488 1767.34 Q522.877 1767.34 521.048 1770.9 Q519.242 1774.45 519.242 1781.58 Q519.242 1788.68 521.048 1792.25 Q522.877 1795.79 526.488 1795.79 Q530.122 1795.79 531.927 1792.25 Q533.756 1788.68 533.756 1781.58 Q533.756 1774.45 531.927 1770.9 Q530.122 1767.34 526.488 1767.34 M526.488 1763.64 Q532.298 1763.64 535.353 1768.24 Q538.432 1772.83 538.432 1781.58 Q538.432 1790.3 535.353 1794.91 Q532.298 1799.49 526.488 1799.49 Q520.678 1799.49 517.599 1794.91 Q514.543 1790.3 514.543 1781.58 Q514.543 1772.83 517.599 1768.24 Q520.678 1763.64 526.488 1763.64 Z" fill="#000000" fill-rule="evenodd" fill-opacity="1" /><path clip-path="url(#clip250)" d="M1068.07 1768.34 L1056.26 1786.78 L1068.07 1786.78 L1068.07 1768.34 M1066.84 1764.26 L1072.72 1764.26 L1072.72 1786.78 L1077.65 1786.78 L1077.65 1790.67 L1072.72 1790.67 L1072.72 1798.82 L1068.07 1798.82 L1068.07 1790.67 L1052.47 1790.67 L1052.47 1786.16 L1066.84 1764.26 Z" fill="#000000" fill-rule="evenodd" fill-opacity="1" /><path clip-path="url(#clip250)" d="M1095.38 1767.34 Q1091.77 1767.34 1089.94 1770.9 Q1088.14 1774.45 1088.14 1781.58 Q1088.14 1788.68 1089.94 1792.25 Q1091.77 1795.79 1095.38 1795.79 Q1099.02 1795.79 1100.82 1792.25 Q1102.65 1788.68 1102.65 1781.58 Q1102.65 1774.45 1100.82 1770.9 Q1099.02 1767.34 1095.38 1767.34 M1095.38 1763.64 Q1101.19 1763.64 1104.25 1768.24 Q1107.33 1772.83 1107.33 1781.58 Q1107.33 1790.3 1104.25 1794.91 Q1101.19 1799.49 1095.38 1799.49 Q1089.57 1799.49 1086.5 1794.91 Q1083.44 1790.3 1083.44 1781.58 Q1083.44 1772.83 1086.5 1768.24 Q1089.57 1763.64 1095.38 1763.64 Z" fill="#000000" fill-rule="evenodd" fill-opacity="1" /><path clip-path="url(#clip250)" d="M1125.55 1767.34 Q1121.93 1767.34 1120.11 1770.9 Q1118.3 1774.45 1118.3 1781.58 Q1118.3 1788.68 1120.11 1792.25 Q1121.93 1795.79 1125.55 1795.79 Q1129.18 1795.79 1130.99 1792.25 Q1132.81 1788.68 1132.81 1781.58 Q1132.81 1774.45 1130.99 1770.9 Q1129.18 1767.34 1125.55 1767.34 M1125.55 1763.64 Q1131.36 1763.64 1134.41 1768.24 Q1137.49 1772.83 1137.49 1781.58 Q1137.49 1790.3 1134.41 1794.91 Q1131.36 1799.49 1125.55 1799.49 Q1119.74 1799.49 1116.66 1794.91 Q1113.6 1790.3 1113.6 1781.58 Q1113.6 1772.83 1116.66 1768.24 Q1119.74 1763.64 1125.55 1763.64 Z" fill="#000000" fill-rule="evenodd" fill-opacity="1" /><path clip-path="url(#clip250)" d="M1653.01 1764.26 L1671.36 1764.26 L1671.36 1768.2 L1657.29 1768.2 L1657.29 1776.67 Q1658.31 1776.32 1659.33 1776.16 Q1660.34 1775.97 1661.36 1775.97 Q1667.15 1775.97 1670.53 1779.15 Q1673.91 1782.32 1673.91 1787.73 Q1673.91 1793.31 1670.44 1796.41 Q1666.97 1799.49 1660.65 1799.49 Q1658.47 1799.49 1656.2 1799.12 Q1653.96 1798.75 1651.55 1798.01 L1651.55 1793.31 Q1653.63 1794.45 1655.85 1795 Q1658.08 1795.56 1660.55 1795.56 Q1664.56 1795.56 1666.9 1793.45 Q1669.23 1791.34 1669.23 1787.73 Q1669.23 1784.12 1666.9 1782.02 Q1664.56 1779.91 1660.55 1779.91 Q1658.68 1779.91 1656.8 1780.33 Q1654.95 1780.74 1653.01 1781.62 L1653.01 1764.26 Z" fill="#000000" fill-rule="evenodd" fill-opacity="1" /><path clip-path="url(#clip250)" d="M1693.12 1767.34 Q1689.51 1767.34 1687.68 1770.9 Q1685.88 1774.45 1685.88 1781.58 Q1685.88 1788.68 1687.68 1792.25 Q1689.51 1795.79 1693.12 1795.79 Q1696.76 1795.79 1698.56 1792.25 Q1700.39 1788.68 1700.39 1781.58 Q1700.39 1774.45 1698.56 1770.9 Q1696.76 1767.34 1693.12 1767.34 M1693.12 1763.64 Q1698.93 1763.64 1701.99 1768.24 Q1705.07 1772.83 1705.07 1781.58 Q1705.07 1790.3 1701.99 1794.91 Q1698.93 1799.49 1693.12 1799.49 Q1687.31 1799.49 1684.23 1794.91 Q1681.18 1790.3 1681.18 1781.58 Q1681.18 1772.83 1684.23 1768.24 Q1687.31 1763.64 1693.12 1763.64 Z" fill="#000000" fill-rule="evenodd" fill-opacity="1" /><path clip-path="url(#clip250)" d="M1723.28 1767.34 Q1719.67 1767.34 1717.84 1770.9 Q1716.04 1774.45 1716.04 1781.58 Q1716.04 1788.68 1717.84 1792.25 Q1719.67 1795.79 1723.28 1795.79 Q1726.92 1795.79 1728.72 1792.25 Q1730.55 1788.68 1730.55 1781.58 Q1730.55 1774.45 1728.72 1770.9 Q1726.92 1767.34 1723.28 1767.34 M1723.28 1763.64 Q1729.09 1763.64 1732.15 1768.24 Q1735.23 1772.83 1735.23 1781.58 Q1735.23 1790.3 1732.15 1794.91 Q1729.09 1799.49 1723.28 1799.49 Q1717.47 1799.49 1714.4 1794.91 Q1711.34 1790.3 1711.34 1781.58 Q1711.34 1772.83 1714.4 1768.24 Q1717.47 1763.64 1723.28 1763.64 Z" fill="#000000" fill-rule="evenodd" fill-opacity="1" /><path clip-path="url(#clip250)" d="M2262.12 1779.68 Q2258.97 1779.68 2257.12 1781.83 Q2255.29 1783.98 2255.29 1787.73 Q2255.29 1791.46 2257.12 1793.64 Q2258.97 1795.79 2262.12 1795.79 Q2265.27 1795.79 2267.1 1793.64 Q2268.95 1791.46 2268.95 1787.73 Q2268.95 1783.98 2267.1 1781.83 Q2265.27 1779.68 2262.12 1779.68 M2271.41 1765.02 L2271.41 1769.28 Q2269.65 1768.45 2267.84 1768.01 Q2266.06 1767.57 2264.3 1767.57 Q2259.67 1767.57 2257.22 1770.7 Q2254.78 1773.82 2254.44 1780.14 Q2255.8 1778.13 2257.86 1777.06 Q2259.92 1775.97 2262.4 1775.97 Q2267.61 1775.97 2270.62 1779.15 Q2273.65 1782.29 2273.65 1787.73 Q2273.65 1793.06 2270.5 1796.27 Q2267.35 1799.49 2262.12 1799.49 Q2256.13 1799.49 2252.96 1794.91 Q2249.78 1790.3 2249.78 1781.58 Q2249.78 1773.38 2253.67 1768.52 Q2257.56 1763.64 2264.11 1763.64 Q2265.87 1763.64 2267.66 1763.98 Q2269.46 1764.33 2271.41 1765.02 Z" fill="#000000" fill-rule="evenodd" fill-opacity="1" /><path clip-path="url(#clip250)" d="M2291.71 1767.34 Q2288.09 1767.34 2286.27 1770.9 Q2284.46 1774.45 2284.46 1781.58 Q2284.46 1788.68 2286.27 1792.25 Q2288.09 1795.79 2291.71 1795.79 Q2295.34 1795.79 2297.15 1792.25 Q2298.97 1788.68 2298.97 1781.58 Q2298.97 1774.45 2297.15 1770.9 Q2295.34 1767.34 2291.71 1767.34 M2291.71 1763.64 Q2297.52 1763.64 2300.57 1768.24 Q2303.65 1772.83 2303.65 1781.58 Q2303.65 1790.3 2300.57 1794.91 Q2297.52 1799.49 2291.71 1799.49 Q2285.9 1799.49 2282.82 1794.91 Q2279.76 1790.3 2279.76 1781.58 Q2279.76 1772.83 2282.82 1768.24 Q2285.9 1763.64 2291.71 1763.64 Z" fill="#000000" fill-rule="evenodd" fill-opacity="1" /><path clip-path="url(#clip250)" d="M2321.87 1767.34 Q2318.26 1767.34 2316.43 1770.9 Q2314.62 1774.45 2314.62 1781.58 Q2314.62 1788.68 2316.43 1792.25 Q2318.26 1795.79 2321.87 1795.79 Q2325.5 1795.79 2327.31 1792.25 Q2329.14 1788.68 2329.14 1781.58 Q2329.14 1774.45 2327.31 1770.9 Q2325.5 1767.34 2321.87 1767.34 M2321.87 1763.64 Q2327.68 1763.64 2330.73 1768.24 Q2333.81 1772.83 2333.81 1781.58 Q2333.81 1790.3 2330.73 1794.91 Q2327.68 1799.49 2321.87 1799.49 Q2316.06 1799.49 2312.98 1794.91 Q2309.92 1790.3 2309.92 1781.58 Q2309.92 1772.83 2312.98 1768.24 Q2316.06 1763.64 2321.87 1763.64 Z" fill="#000000" fill-rule="evenodd" fill-opacity="1" /><path clip-path="url(#clip250)" d="M1193.88 1835.78 L1234.08 1835.78 L1234.08 1841.19 L1217.21 1841.19 L1217.21 1883.3 L1210.75 1883.3 L1210.75 1841.19 L1193.88 1841.19 L1193.88 1835.78 Z" fill="#000000" fill-rule="evenodd" fill-opacity="1" /><path clip-path="url(#clip250)" d="M1259.44 1864.01 L1259.44 1866.88 L1232.52 1866.88 Q1232.9 1872.92 1236.14 1876.11 Q1239.42 1879.26 1245.25 1879.26 Q1248.62 1879.26 1251.77 1878.43 Q1254.96 1877.6 1258.07 1875.95 L1258.07 1881.49 Q1254.92 1882.82 1251.61 1883.52 Q1248.3 1884.22 1244.9 1884.22 Q1236.37 1884.22 1231.37 1879.26 Q1226.41 1874.29 1226.41 1865.83 Q1226.41 1857.07 1231.12 1851.95 Q1235.86 1846.79 1243.88 1846.79 Q1251.07 1846.79 1255.24 1851.44 Q1259.44 1856.06 1259.44 1864.01 M1253.59 1862.29 Q1253.52 1857.49 1250.88 1854.62 Q1248.27 1851.76 1243.94 1851.76 Q1239.04 1851.76 1236.08 1854.53 Q1233.15 1857.3 1232.71 1862.33 L1253.59 1862.29 Z" fill="#000000" fill-rule="evenodd" fill-opacity="1" /><path clip-path="url(#clip250)" d="M1296.81 1854.5 Q1299.01 1850.55 1302.06 1848.67 Q1305.12 1846.79 1309.25 1846.79 Q1314.82 1846.79 1317.85 1850.71 Q1320.87 1854.59 1320.87 1861.78 L1320.87 1883.3 L1314.98 1883.3 L1314.98 1861.98 Q1314.98 1856.85 1313.17 1854.37 Q1311.36 1851.89 1307.63 1851.89 Q1303.08 1851.89 1300.44 1854.91 Q1297.8 1857.93 1297.8 1863.15 L1297.8 1883.3 L1291.91 1883.3 L1291.91 1861.98 Q1291.91 1856.82 1290.09 1854.37 Q1288.28 1851.89 1284.49 1851.89 Q1280 1851.89 1277.36 1854.94 Q1274.72 1857.97 1274.72 1863.15 L1274.72 1883.3 L1268.83 1883.3 L1268.83 1847.65 L1274.72 1847.65 L1274.72 1853.19 Q1276.73 1849.91 1279.53 1848.35 Q1282.33 1846.79 1286.18 1846.79 Q1290.06 1846.79 1292.77 1848.77 Q1295.5 1850.74 1296.81 1854.5 Z" fill="#000000" fill-rule="evenodd" fill-opacity="1" /><path clip-path="url(#clip250)" d="M1338.22 1877.95 L1338.22 1896.86 L1332.33 1896.86 L1332.33 1847.65 L1338.22 1847.65 L1338.22 1853.06 Q1340.06 1849.88 1342.87 1848.35 Q1345.7 1846.79 1349.61 1846.79 Q1356.11 1846.79 1360.15 1851.95 Q1364.22 1857.11 1364.22 1865.51 Q1364.22 1873.91 1360.15 1879.07 Q1356.11 1884.22 1349.61 1884.22 Q1345.7 1884.22 1342.87 1882.7 Q1340.06 1881.14 1338.22 1877.95 M1358.14 1865.51 Q1358.14 1859.05 1355.47 1855.39 Q1352.83 1851.7 1348.18 1851.7 Q1343.53 1851.7 1340.86 1855.39 Q1338.22 1859.05 1338.22 1865.51 Q1338.22 1871.97 1340.86 1875.66 Q1343.53 1879.32 1348.18 1879.32 Q1352.83 1879.32 1355.47 1875.66 Q1358.14 1871.97 1358.14 1865.51 Z" fill="#000000" fill-rule="evenodd" fill-opacity="1" /><path clip-path="url(#clip250)" d="M1404.42 1864.01 L1404.42 1866.88 L1377.5 1866.88 Q1377.88 1872.92 1381.12 1876.11 Q1384.4 1879.26 1390.23 1879.26 Q1393.6 1879.26 1396.75 1878.43 Q1399.93 1877.6 1403.05 1875.95 L1403.05 1881.49 Q1399.9 1882.82 1396.59 1883.52 Q1393.28 1884.22 1389.88 1884.22 Q1381.35 1884.22 1376.35 1879.26 Q1371.38 1874.29 1371.38 1865.83 Q1371.38 1857.07 1376.09 1851.95 Q1380.84 1846.79 1388.86 1846.79 Q1396.05 1846.79 1400.22 1851.44 Q1404.42 1856.06 1404.42 1864.01 M1398.57 1862.29 Q1398.5 1857.49 1395.86 1854.62 Q1393.25 1851.76 1388.92 1851.76 Q1384.02 1851.76 1381.06 1854.53 Q1378.13 1857.3 1377.69 1862.33 L1398.57 1862.29 Z" fill="#000000" fill-rule="evenodd" fill-opacity="1" /><path clip-path="url(#clip250)" d="M1434.69 1853.13 Q1433.7 1852.55 1432.53 1852.3 Q1431.38 1852.01 1429.98 1852.01 Q1425.02 1852.01 1422.34 1855.26 Q1419.7 1858.47 1419.7 1864.52 L1419.7 1883.3 L1413.81 1883.3 L1413.81 1847.65 L1419.7 1847.65 L1419.7 1853.19 Q1421.55 1849.94 1424.51 1848.39 Q1427.47 1846.79 1431.7 1846.79 Q1432.3 1846.79 1433.04 1846.89 Q1433.77 1846.95 1434.66 1847.11 L1434.69 1853.13 Z" fill="#000000" fill-rule="evenodd" fill-opacity="1" /><path clip-path="url(#clip250)" d="M1457.03 1865.38 Q1449.94 1865.38 1447.2 1867 Q1444.46 1868.63 1444.46 1872.54 Q1444.46 1875.66 1446.5 1877.51 Q1448.57 1879.32 1452.1 1879.32 Q1456.97 1879.32 1459.9 1875.88 Q1462.86 1872.42 1462.86 1866.69 L1462.86 1865.38 L1457.03 1865.38 M1468.72 1862.96 L1468.72 1883.3 L1462.86 1883.3 L1462.86 1877.89 Q1460.85 1881.14 1457.86 1882.7 Q1454.87 1884.22 1450.54 1884.22 Q1445.07 1884.22 1441.82 1881.17 Q1438.61 1878.08 1438.61 1872.92 Q1438.61 1866.91 1442.62 1863.85 Q1446.66 1860.8 1454.65 1860.8 L1462.86 1860.8 L1462.86 1860.23 Q1462.86 1856.18 1460.19 1853.99 Q1457.54 1851.76 1452.74 1851.76 Q1449.68 1851.76 1446.79 1852.49 Q1443.89 1853.22 1441.22 1854.69 L1441.22 1849.28 Q1444.43 1848.03 1447.45 1847.43 Q1450.48 1846.79 1453.34 1846.79 Q1461.08 1846.79 1464.9 1850.8 Q1468.72 1854.81 1468.72 1862.96 Z" fill="#000000" fill-rule="evenodd" fill-opacity="1" /><path clip-path="url(#clip250)" d="M1486.57 1837.53 L1486.57 1847.65 L1498.63 1847.65 L1498.63 1852.2 L1486.57 1852.2 L1486.57 1871.56 Q1486.57 1875.92 1487.75 1877.16 Q1488.96 1878.4 1492.62 1878.4 L1498.63 1878.4 L1498.63 1883.3 L1492.62 1883.3 Q1485.84 1883.3 1483.26 1880.79 Q1480.68 1878.24 1480.68 1871.56 L1480.68 1852.2 L1476.39 1852.2 L1476.39 1847.65 L1480.68 1847.65 L1480.68 1837.53 L1486.57 1837.53 Z" fill="#000000" fill-rule="evenodd" fill-opacity="1" /><path clip-path="url(#clip250)" d="M1505.73 1869.23 L1505.73 1847.65 L1511.59 1847.65 L1511.59 1869.01 Q1511.59 1874.07 1513.56 1876.62 Q1515.54 1879.13 1519.48 1879.13 Q1524.22 1879.13 1526.96 1876.11 Q1529.73 1873.08 1529.73 1867.86 L1529.73 1847.65 L1535.59 1847.65 L1535.59 1883.3 L1529.73 1883.3 L1529.73 1877.83 Q1527.6 1881.07 1524.77 1882.66 Q1521.96 1884.22 1518.24 1884.22 Q1512.1 1884.22 1508.92 1880.4 Q1505.73 1876.59 1505.73 1869.23 M1520.47 1846.79 L1520.47 1846.79 Z" fill="#000000" fill-rule="evenodd" fill-opacity="1" /><path clip-path="url(#clip250)" d="M1568.31 1853.13 Q1567.32 1852.55 1566.14 1852.3 Q1565 1852.01 1563.6 1852.01 Q1558.63 1852.01 1555.96 1855.26 Q1553.32 1858.47 1553.32 1864.52 L1553.32 1883.3 L1547.43 1883.3 L1547.43 1847.65 L1553.32 1847.65 L1553.32 1853.19 Q1555.16 1849.94 1558.12 1848.39 Q1561.08 1846.79 1565.32 1846.79 Q1565.92 1846.79 1566.65 1846.89 Q1567.38 1846.95 1568.28 1847.11 L1568.31 1853.13 Z" fill="#000000" fill-rule="evenodd" fill-opacity="1" /><path clip-path="url(#clip250)" d="M1603.51 1864.01 L1603.51 1866.88 L1576.58 1866.88 Q1576.96 1872.92 1580.21 1876.11 Q1583.49 1879.26 1589.31 1879.26 Q1592.69 1879.26 1595.84 1878.43 Q1599.02 1877.6 1602.14 1875.95 L1602.14 1881.49 Q1598.99 1882.82 1595.68 1883.52 Q1592.37 1884.22 1588.96 1884.22 Q1580.43 1884.22 1575.44 1879.26 Q1570.47 1874.29 1570.47 1865.83 Q1570.47 1857.07 1575.18 1851.95 Q1579.92 1846.79 1587.95 1846.79 Q1595.14 1846.79 1599.31 1851.44 Q1603.51 1856.06 1603.51 1864.01 M1597.65 1862.29 Q1597.59 1857.49 1594.95 1854.62 Q1592.34 1851.76 1588.01 1851.76 Q1583.11 1851.76 1580.15 1854.53 Q1577.22 1857.3 1576.77 1862.33 L1597.65 1862.29 Z" fill="#000000" fill-rule="evenodd" fill-opacity="1" /><path clip-path="url(#clip250)" d="M1633.3 1833.78 L1646.8 1833.78 L1646.8 1838.33 L1639.16 1838.33 L1639.16 1887.34 L1646.8 1887.34 L1646.8 1891.89 L1633.3 1891.89 L1633.3 1833.78 Z" fill="#000000" fill-rule="evenodd" fill-opacity="1" /><path clip-path="url(#clip250)" d="M1659.53 1835.78 L1665.96 1835.78 L1665.96 1855.86 L1687.28 1835.78 L1695.56 1835.78 L1671.97 1857.93 L1697.24 1883.3 L1688.78 1883.3 L1665.96 1860.42 L1665.96 1883.3 L1659.53 1883.3 L1659.53 1835.78 Z" fill="#000000" fill-rule="evenodd" fill-opacity="1" /><path clip-path="url(#clip250)" d="M1715.71 1833.78 L1715.71 1891.89 L1702.21 1891.89 L1702.21 1887.34 L1709.82 1887.34 L1709.82 1838.33 L1702.21 1838.33 L1702.21 1833.78 L1715.71 1833.78 Z" fill="#000000" fill-rule="evenodd" fill-opacity="1" /><polyline clip-path="url(#clip252)" style="stroke:#5f9ea0; stroke-linecap:round; stroke-linejoin:round; stroke-width:8; stroke-opacity:0.4; fill:none" stroke-dasharray="32, 16, 4, 16" points="268.826,1686.38 2640.76,1686.38 "/>
<polyline clip-path="url(#clip252)" style="stroke:#5f9ea0; stroke-linecap:round; stroke-linejoin:round; stroke-width:8; stroke-opacity:0.4; fill:none" stroke-dasharray="32, 16, 4, 16" points="268.826,1288.5 2640.76,1288.5 "/>
<polyline clip-path="url(#clip252)" style="stroke:#5f9ea0; stroke-linecap:round; stroke-linejoin:round; stroke-width:8; stroke-opacity:0.4; fill:none" stroke-dasharray="32, 16, 4, 16" points="268.826,890.622 2640.76,890.622 "/>
<polyline clip-path="url(#clip252)" style="stroke:#5f9ea0; stroke-linecap:round; stroke-linejoin:round; stroke-width:8; stroke-opacity:0.4; fill:none" stroke-dasharray="32, 16, 4, 16" points="268.826,492.742 2640.76,492.742 "/>
<polyline clip-path="url(#clip252)" style="stroke:#5f9ea0; stroke-linecap:round; stroke-linejoin:round; stroke-width:8; stroke-opacity:0.4; fill:none" stroke-dasharray="32, 16, 4, 16" points="268.826,94.8617 2640.76,94.8617 "/>
<polyline clip-path="url(#clip250)" style="stroke:#000000; stroke-linecap:round; stroke-linejoin:round; stroke-width:4; stroke-opacity:1; fill:none" points="268.826,1734.12 268.826,47.2441 "/>
<polyline clip-path="url(#clip250)" style="stroke:#000000; stroke-linecap:round; stroke-linejoin:round; stroke-width:4; stroke-opacity:1; fill:none" points="2640.76,1734.12 2640.76,47.2441 "/>
<polyline clip-path="url(#clip250)" style="stroke:#000000; stroke-linecap:round; stroke-linejoin:round; stroke-width:4; stroke-opacity:1; fill:none" points="268.826,1686.38 287.723,1686.38 "/>
<polyline clip-path="url(#clip250)" style="stroke:#000000; stroke-linecap:round; stroke-linejoin:round; stroke-width:4; stroke-opacity:1; fill:none" points="268.826,1288.5 287.723,1288.5 "/>
<polyline clip-path="url(#clip250)" style="stroke:#000000; stroke-linecap:round; stroke-linejoin:round; stroke-width:4; stroke-opacity:1; fill:none" points="268.826,890.622 287.723,890.622 "/>
<polyline clip-path="url(#clip250)" style="stroke:#000000; stroke-linecap:round; stroke-linejoin:round; stroke-width:4; stroke-opacity:1; fill:none" points="268.826,492.742 287.723,492.742 "/>
<polyline clip-path="url(#clip250)" style="stroke:#000000; stroke-linecap:round; stroke-linejoin:round; stroke-width:4; stroke-opacity:1; fill:none" points="268.826,94.8617 287.723,94.8617 "/>
<path clip-path="url(#clip250)" d="M216.561 1672.18 Q212.95 1672.18 211.121 1675.75 Q209.316 1679.29 209.316 1686.42 Q209.316 1693.52 211.121 1697.09 Q212.95 1700.63 216.561 1700.63 Q220.195 1700.63 222.001 1697.09 Q223.83 1693.52 223.83 1686.42 Q223.83 1679.29 222.001 1675.75 Q220.195 1672.18 216.561 1672.18 M216.561 1668.48 Q222.371 1668.48 225.427 1673.08 Q228.506 1677.67 228.506 1686.42 Q228.506 1695.14 225.427 1699.75 Q222.371 1704.33 216.561 1704.33 Q210.751 1704.33 207.672 1699.75 Q204.617 1695.14 204.617 1686.42 Q204.617 1677.67 207.672 1673.08 Q210.751 1668.48 216.561 1668.48 Z" fill="#000000" fill-rule="evenodd" fill-opacity="1" /><path clip-path="url(#clip250)" d="M150.265 1301.85 L166.585 1301.85 L166.585 1305.78 L144.64 1305.78 L144.64 1301.85 Q147.302 1299.09 151.886 1294.46 Q156.492 1289.81 157.673 1288.47 Q159.918 1285.94 160.798 1284.21 Q161.7 1282.45 161.7 1280.76 Q161.7 1278.01 159.756 1276.27 Q157.835 1274.53 154.733 1274.53 Q152.534 1274.53 150.08 1275.3 Q147.649 1276.06 144.872 1277.61 L144.872 1272.89 Q147.696 1271.76 150.149 1271.18 Q152.603 1270.6 154.64 1270.6 Q160.011 1270.6 163.205 1273.28 Q166.399 1275.97 166.399 1280.46 Q166.399 1282.59 165.589 1284.51 Q164.802 1286.41 162.696 1289 Q162.117 1289.67 159.015 1292.89 Q155.913 1296.08 150.265 1301.85 Z" fill="#000000" fill-rule="evenodd" fill-opacity="1" /><path clip-path="url(#clip250)" d="M176.446 1271.22 L194.802 1271.22 L194.802 1275.16 L180.728 1275.16 L180.728 1283.63 Q181.746 1283.28 182.765 1283.12 Q183.784 1282.94 184.802 1282.94 Q190.589 1282.94 193.969 1286.11 Q197.348 1289.28 197.348 1294.69 Q197.348 1300.27 193.876 1303.38 Q190.404 1306.45 184.084 1306.45 Q181.909 1306.45 179.64 1306.08 Q177.395 1305.71 174.987 1304.97 L174.987 1300.27 Q177.071 1301.41 179.293 1301.96 Q181.515 1302.52 183.992 1302.52 Q187.996 1302.52 190.334 1300.41 Q192.672 1298.31 192.672 1294.69 Q192.672 1291.08 190.334 1288.98 Q187.996 1286.87 183.992 1286.87 Q182.117 1286.87 180.242 1287.29 Q178.39 1287.7 176.446 1288.58 L176.446 1271.22 Z" fill="#000000" fill-rule="evenodd" fill-opacity="1" /><path clip-path="url(#clip250)" d="M216.561 1274.3 Q212.95 1274.3 211.121 1277.87 Q209.316 1281.41 209.316 1288.54 Q209.316 1295.64 211.121 1299.21 Q212.95 1302.75 216.561 1302.75 Q220.195 1302.75 222.001 1299.21 Q223.83 1295.64 223.83 1288.54 Q223.83 1281.41 222.001 1277.87 Q220.195 1274.3 216.561 1274.3 M216.561 1270.6 Q222.371 1270.6 225.427 1275.2 Q228.506 1279.79 228.506 1288.54 Q228.506 1297.26 225.427 1301.87 Q222.371 1306.45 216.561 1306.45 Q210.751 1306.45 207.672 1301.87 Q204.617 1297.26 204.617 1288.54 Q204.617 1279.79 207.672 1275.2 Q210.751 1270.6 216.561 1270.6 Z" fill="#000000" fill-rule="evenodd" fill-opacity="1" /><path clip-path="url(#clip250)" d="M146.284 873.342 L164.64 873.342 L164.64 877.278 L150.566 877.278 L150.566 885.75 Q151.585 885.402 152.603 885.24 Q153.622 885.055 154.64 885.055 Q160.427 885.055 163.807 888.227 Q167.186 891.398 167.186 896.814 Q167.186 902.393 163.714 905.495 Q160.242 908.574 153.923 908.574 Q151.747 908.574 149.478 908.203 Q147.233 907.833 144.825 907.092 L144.825 902.393 Q146.909 903.527 149.131 904.083 Q151.353 904.638 153.83 904.638 Q157.835 904.638 160.173 902.532 Q162.51 900.426 162.51 896.814 Q162.51 893.203 160.173 891.097 Q157.835 888.99 153.83 888.99 Q151.955 888.99 150.08 889.407 Q148.228 889.824 146.284 890.703 L146.284 873.342 Z" fill="#000000" fill-rule="evenodd" fill-opacity="1" /><path clip-path="url(#clip250)" d="M186.399 876.421 Q182.788 876.421 180.959 879.986 Q179.154 883.527 179.154 890.657 Q179.154 897.764 180.959 901.328 Q182.788 904.87 186.399 904.87 Q190.033 904.87 191.839 901.328 Q193.668 897.764 193.668 890.657 Q193.668 883.527 191.839 879.986 Q190.033 876.421 186.399 876.421 M186.399 872.717 Q192.209 872.717 195.265 877.324 Q198.344 881.907 198.344 890.657 Q198.344 899.384 195.265 903.99 Q192.209 908.574 186.399 908.574 Q180.589 908.574 177.51 903.99 Q174.455 899.384 174.455 890.657 Q174.455 881.907 177.51 877.324 Q180.589 872.717 186.399 872.717 Z" fill="#000000" fill-rule="evenodd" fill-opacity="1" /><path clip-path="url(#clip250)" d="M216.561 876.421 Q212.95 876.421 211.121 879.986 Q209.316 883.527 209.316 890.657 Q209.316 897.764 211.121 901.328 Q212.95 904.87 216.561 904.87 Q220.195 904.87 222.001 901.328 Q223.83 897.764 223.83 890.657 Q223.83 883.527 222.001 879.986 Q220.195 876.421 216.561 876.421 M216.561 872.717 Q222.371 872.717 225.427 877.324 Q228.506 881.907 228.506 890.657 Q228.506 899.384 225.427 903.99 Q222.371 908.574 216.561 908.574 Q210.751 908.574 207.672 903.99 Q204.617 899.384 204.617 890.657 Q204.617 881.907 207.672 877.324 Q210.751 872.717 216.561 872.717 Z" fill="#000000" fill-rule="evenodd" fill-opacity="1" /><path clip-path="url(#clip250)" d="M145.057 475.462 L167.279 475.462 L167.279 477.453 L154.733 510.022 L149.849 510.022 L161.654 479.397 L145.057 479.397 L145.057 475.462 Z" fill="#000000" fill-rule="evenodd" fill-opacity="1" /><path clip-path="url(#clip250)" d="M176.446 475.462 L194.802 475.462 L194.802 479.397 L180.728 479.397 L180.728 487.869 Q181.746 487.522 182.765 487.36 Q183.784 487.175 184.802 487.175 Q190.589 487.175 193.969 490.346 Q197.348 493.517 197.348 498.934 Q197.348 504.513 193.876 507.615 Q190.404 510.693 184.084 510.693 Q181.909 510.693 179.64 510.323 Q177.395 509.953 174.987 509.212 L174.987 504.513 Q177.071 505.647 179.293 506.203 Q181.515 506.758 183.992 506.758 Q187.996 506.758 190.334 504.652 Q192.672 502.545 192.672 498.934 Q192.672 495.323 190.334 493.217 Q187.996 491.11 183.992 491.11 Q182.117 491.11 180.242 491.527 Q178.39 491.943 176.446 492.823 L176.446 475.462 Z" fill="#000000" fill-rule="evenodd" fill-opacity="1" /><path clip-path="url(#clip250)" d="M216.561 478.541 Q212.95 478.541 211.121 482.106 Q209.316 485.647 209.316 492.777 Q209.316 499.883 211.121 503.448 Q212.95 506.99 216.561 506.99 Q220.195 506.99 222.001 503.448 Q223.83 499.883 223.83 492.777 Q223.83 485.647 222.001 482.106 Q220.195 478.541 216.561 478.541 M216.561 474.837 Q222.371 474.837 225.427 479.443 Q228.506 484.027 228.506 492.777 Q228.506 501.504 225.427 506.11 Q222.371 510.693 216.561 510.693 Q210.751 510.693 207.672 506.11 Q204.617 501.504 204.617 492.777 Q204.617 484.027 207.672 479.443 Q210.751 474.837 216.561 474.837 Z" fill="#000000" fill-rule="evenodd" fill-opacity="1" /><path clip-path="url(#clip250)" d="M116.886 108.207 L124.525 108.207 L124.525 81.8409 L116.214 83.5076 L116.214 79.2484 L124.478 77.5817 L129.154 77.5817 L129.154 108.207 L136.793 108.207 L136.793 112.142 L116.886 112.142 L116.886 108.207 Z" fill="#000000" fill-rule="evenodd" fill-opacity="1" /><path clip-path="url(#clip250)" d="M156.237 80.6604 Q152.626 80.6604 150.798 84.2252 Q148.992 87.7668 148.992 94.8964 Q148.992 102.003 150.798 105.568 Q152.626 109.109 156.237 109.109 Q159.872 109.109 161.677 105.568 Q163.506 102.003 163.506 94.8964 Q163.506 87.7668 161.677 84.2252 Q159.872 80.6604 156.237 80.6604 M156.237 76.9567 Q162.048 76.9567 165.103 81.5632 Q168.182 86.1465 168.182 94.8964 Q168.182 103.623 165.103 108.23 Q162.048 112.813 156.237 112.813 Q150.427 112.813 147.349 108.23 Q144.293 103.623 144.293 94.8964 Q144.293 86.1465 147.349 81.5632 Q150.427 76.9567 156.237 76.9567 Z" fill="#000000" fill-rule="evenodd" fill-opacity="1" /><path clip-path="url(#clip250)" d="M186.399 80.6604 Q182.788 80.6604 180.959 84.2252 Q179.154 87.7668 179.154 94.8964 Q179.154 102.003 180.959 105.568 Q182.788 109.109 186.399 109.109 Q190.033 109.109 191.839 105.568 Q193.668 102.003 193.668 94.8964 Q193.668 87.7668 191.839 84.2252 Q190.033 80.6604 186.399 80.6604 M186.399 76.9567 Q192.209 76.9567 195.265 81.5632 Q198.344 86.1465 198.344 94.8964 Q198.344 103.623 195.265 108.23 Q192.209 112.813 186.399 112.813 Q180.589 112.813 177.51 108.23 Q174.455 103.623 174.455 94.8964 Q174.455 86.1465 177.51 81.5632 Q180.589 76.9567 186.399 76.9567 Z" fill="#000000" fill-rule="evenodd" fill-opacity="1" /><path clip-path="url(#clip250)" d="M216.561 80.6604 Q212.95 80.6604 211.121 84.2252 Q209.316 87.7668 209.316 94.8964 Q209.316 102.003 211.121 105.568 Q212.95 109.109 216.561 109.109 Q220.195 109.109 222.001 105.568 Q223.83 102.003 223.83 94.8964 Q223.83 87.7668 222.001 84.2252 Q220.195 80.6604 216.561 80.6604 M216.561 76.9567 Q222.371 76.9567 225.427 81.5632 Q228.506 86.1465 228.506 94.8964 Q228.506 103.623 225.427 108.23 Q222.371 112.813 216.561 112.813 Q210.751 112.813 207.672 108.23 Q204.617 103.623 204.617 94.8964 Q204.617 86.1465 207.672 81.5632 Q210.751 76.9567 216.561 76.9567 Z" fill="#000000" fill-rule="evenodd" fill-opacity="1" /><path clip-path="url(#clip250)" d="M19.402 1133.31 L56.3549 1133.31 L56.3549 1125.54 Q56.3549 1115.71 51.8989 1111.16 Q47.4429 1106.57 37.8307 1106.57 Q28.2821 1106.57 23.858 1111.16 Q19.402 1115.71 19.402 1125.54 L19.402 1133.31 M14.1184 1139.74 L14.1184 1126.53 Q14.1184 1112.72 19.8794 1106.26 Q25.6085 1099.79 37.8307 1099.79 Q50.1165 1099.79 55.8775 1106.29 Q61.6384 1112.78 61.6384 1126.53 L61.6384 1139.74 L14.1184 1139.74 Z" fill="#000000" fill-rule="evenodd" fill-opacity="1" /><path clip-path="url(#clip250)" d="M42.3504 1059.31 L45.2149 1059.31 L45.2149 1086.24 Q51.2623 1085.85 54.4452 1082.61 Q57.5962 1079.33 57.5962 1073.5 Q57.5962 1070.13 56.7687 1066.98 Q55.9411 1063.8 54.2861 1060.68 L59.8242 1060.68 Q61.161 1063.83 61.8612 1067.14 Q62.5615 1070.45 62.5615 1073.85 Q62.5615 1082.38 57.5962 1087.38 Q52.631 1092.35 44.1646 1092.35 Q35.4117 1092.35 30.2873 1087.64 Q25.1311 1082.89 25.1311 1074.87 Q25.1311 1067.68 29.7781 1063.51 Q34.3932 1059.31 42.3504 1059.31 M40.6316 1065.16 Q35.8255 1065.23 32.9609 1067.87 Q30.0964 1070.48 30.0964 1074.81 Q30.0964 1079.71 32.8654 1082.67 Q35.6345 1085.6 40.6634 1086.04 L40.6316 1065.16 Z" fill="#000000" fill-rule="evenodd" fill-opacity="1" /><path clip-path="url(#clip250)" d="M40.1224 1020.06 L61.6384 1020.06 L61.6384 1025.92 L40.3133 1025.92 Q35.2526 1025.92 32.7381 1027.89 Q30.2237 1029.87 30.2237 1033.81 Q30.2237 1038.56 33.2474 1041.29 Q36.2711 1044.03 41.491 1044.03 L61.6384 1044.03 L61.6384 1049.92 L25.9905 1049.92 L25.9905 1044.03 L31.5287 1044.03 Q28.314 1041.93 26.7225 1039.1 Q25.1311 1036.23 25.1311 1032.51 Q25.1311 1026.37 28.9505 1023.21 Q32.7381 1020.06 40.1224 1020.06 Z" fill="#000000" fill-rule="evenodd" fill-opacity="1" /><path clip-path="url(#clip250)" d="M27.0408 985.657 L32.579 985.657 Q31.3059 988.14 30.6693 990.813 Q30.0327 993.487 30.0327 996.351 Q30.0327 1000.71 31.3695 1002.91 Q32.7063 1005.07 35.3799 1005.07 Q37.4169 1005.07 38.5946 1003.51 Q39.7404 1001.95 40.7908 997.242 L41.2364 995.237 Q42.5732 988.999 45.0239 986.389 Q47.4429 983.747 51.8034 983.747 Q56.7687 983.747 59.6651 987.694 Q62.5615 991.609 62.5615 998.484 Q62.5615 1001.35 61.9886 1004.47 Q61.4475 1007.55 60.3335 1010.99 L54.2861 1010.99 Q55.973 1007.75 56.8323 1004.59 Q57.6599 1001.44 57.6599 998.356 Q57.6599 994.219 56.2594 991.991 Q54.8271 989.763 52.249 989.763 Q49.8619 989.763 48.5887 991.386 Q47.3156 992.977 46.1379 998.42 L45.6605 1000.46 Q44.5147 1005.9 42.1594 1008.32 Q39.7722 1010.74 35.6345 1010.74 Q30.6056 1010.74 27.8684 1007.17 Q25.1311 1003.61 25.1311 997.051 Q25.1311 993.805 25.6085 990.94 Q26.086 988.076 27.0408 985.657 Z" fill="#000000" fill-rule="evenodd" fill-opacity="1" /><path clip-path="url(#clip250)" d="M25.9905 974.421 L25.9905 968.565 L61.6384 968.565 L61.6384 974.421 L25.9905 974.421 M12.1132 974.421 L12.1132 968.565 L19.5293 968.565 L19.5293 974.421 L12.1132 974.421 Z" fill="#000000" fill-rule="evenodd" fill-opacity="1" /><path clip-path="url(#clip250)" d="M15.869 950.518 L25.9905 950.518 L25.9905 938.455 L30.542 938.455 L30.542 950.518 L49.8937 950.518 Q54.2542 950.518 55.4955 949.341 Q56.7368 948.131 56.7368 944.471 L56.7368 938.455 L61.6384 938.455 L61.6384 944.471 Q61.6384 951.25 59.124 953.828 Q56.5777 956.406 49.8937 956.406 L30.542 956.406 L30.542 960.703 L25.9905 960.703 L25.9905 956.406 L15.869 956.406 L15.869 950.518 Z" fill="#000000" fill-rule="evenodd" fill-opacity="1" /><path clip-path="url(#clip250)" d="M64.9486 915.921 Q71.3143 918.403 73.2559 920.759 Q75.1974 923.114 75.1974 927.061 L75.1974 931.739 L70.2958 931.739 L70.2958 928.302 Q70.2958 925.883 69.15 924.546 Q68.0041 923.209 63.7391 921.586 L61.0655 920.536 L25.9905 934.954 L25.9905 928.747 L53.8723 917.607 L25.9905 906.467 L25.9905 900.261 L64.9486 915.921 Z" fill="#000000" fill-rule="evenodd" fill-opacity="1" /><path clip-path="url(#clip250)" d="M12.1132 871.997 L12.1132 858.502 L16.6647 858.502 L16.6647 866.141 L65.6807 866.141 L65.6807 858.502 L70.2321 858.502 L70.2321 871.997 L12.1132 871.997 Z" fill="#000000" fill-rule="evenodd" fill-opacity="1" /><path clip-path="url(#clip250)" d="M12.1132 846.248 L12.1132 840.36 L41.3637 840.36 L25.9905 822.886 L25.9905 815.406 L42.6686 834.312 L61.6384 814.61 L61.6384 822.249 L44.2282 840.36 L61.6384 840.36 L61.6384 846.248 L12.1132 846.248 Z" fill="#000000" fill-rule="evenodd" fill-opacity="1" /><path clip-path="url(#clip250)" d="M43.4007 784.819 Q37.035 784.819 33.5338 787.461 Q30.0327 790.071 30.0327 794.813 Q30.0327 799.524 33.5338 802.165 Q37.035 804.775 43.4007 804.775 Q49.7346 804.775 53.2357 802.165 Q56.7368 799.524 56.7368 794.813 Q56.7368 790.071 53.2357 787.461 Q49.7346 784.819 43.4007 784.819 M57.2143 778.962 Q66.3172 778.962 70.7414 783.005 Q75.1974 787.047 75.1974 795.386 Q75.1974 798.473 74.72 801.211 Q74.2744 803.948 73.3195 806.526 L67.6222 806.526 Q69.0227 803.948 69.6911 801.433 Q70.3595 798.919 70.3595 796.309 Q70.3595 790.548 67.3358 787.683 Q64.3439 784.819 58.2646 784.819 L55.3682 784.819 Q58.5192 786.633 60.0788 789.466 Q61.6384 792.299 61.6384 796.245 Q61.6384 802.802 56.6414 806.812 Q51.6443 810.823 43.4007 810.823 Q35.1253 810.823 30.1282 806.812 Q25.1311 802.802 25.1311 796.245 Q25.1311 792.299 26.6907 789.466 Q28.2503 786.633 31.4013 784.819 L25.9905 784.819 L25.9905 778.962 L57.2143 778.962 Z" fill="#000000" fill-rule="evenodd" fill-opacity="1" /><path clip-path="url(#clip250)" d="M14.1184 756.491 L14.1184 751.081 L67.6859 767.631 L67.6859 773.042 L14.1184 756.491 Z" fill="#000000" fill-rule="evenodd" fill-opacity="1" /><path clip-path="url(#clip250)" d="M32.8336 717.183 Q28.8869 714.987 27.009 711.931 Q25.1311 708.876 25.1311 704.738 Q25.1311 699.168 29.046 696.145 Q32.9291 693.121 40.1224 693.121 L61.6384 693.121 L61.6384 699.009 L40.3133 699.009 Q35.1889 699.009 32.7063 700.823 Q30.2237 702.638 30.2237 706.362 Q30.2237 710.913 33.2474 713.555 Q36.2711 716.197 41.491 716.197 L61.6384 716.197 L61.6384 722.085 L40.3133 722.085 Q35.1571 722.085 32.7063 723.899 Q30.2237 725.713 30.2237 729.501 Q30.2237 733.989 33.2792 736.63 Q36.3029 739.272 41.491 739.272 L61.6384 739.272 L61.6384 745.16 L25.9905 745.16 L25.9905 739.272 L31.5287 739.272 Q28.2503 737.267 26.6907 734.466 Q25.1311 731.665 25.1311 727.814 Q25.1311 723.931 27.1045 721.225 Q29.0779 718.488 32.8336 717.183 Z" fill="#000000" fill-rule="evenodd" fill-opacity="1" /><path clip-path="url(#clip250)" d="M25.9905 670.905 Q26.5634 667.976 28.314 666.385 Q30.0327 664.762 32.6426 664.762 Q36.5894 664.762 38.7219 667.785 Q40.8544 670.809 40.8544 676.443 Q40.8544 678.257 40.5361 680.262 Q40.186 682.235 39.5494 684.463 L35.6982 684.463 Q36.5576 682.808 36.9713 680.931 Q37.3851 679.021 37.3851 676.888 Q37.3851 673.419 36.1438 671.509 Q34.8706 669.6 32.6426 669.6 Q30.2873 669.6 29.0779 671.382 Q27.8684 673.133 27.8684 676.57 L27.8684 679.307 L24.4309 679.307 L24.4309 676.315 Q24.4309 673.323 23.4442 671.796 Q22.4257 670.236 20.516 670.236 Q18.6699 670.236 17.7151 671.828 Q16.7284 673.419 16.7284 676.443 Q16.7284 677.716 17.0148 679.339 Q17.3013 680.962 18.0334 683.54 L14.3731 683.54 Q13.832 681.217 13.5455 679.18 Q13.2591 677.143 13.2591 675.392 Q13.2591 670.809 15.137 668.135 Q17.0148 665.43 20.1659 665.43 Q22.362 665.43 23.8898 666.862 Q25.4176 668.295 25.9905 670.905 Z" fill="#000000" fill-rule="evenodd" fill-opacity="1" /><path clip-path="url(#clip250)" d="M12.1132 641.622 L70.2321 641.622 L70.2321 655.118 L65.6807 655.118 L65.6807 647.511 L16.6647 647.511 L16.6647 655.118 L12.1132 655.118 L12.1132 641.622 Z" fill="#000000" fill-rule="evenodd" fill-opacity="1" /><polyline clip-path="url(#clip252)" style="stroke:#009af9; stroke-linecap:round; stroke-linejoin:round; stroke-width:12; stroke-opacity:1; fill:none" points="335.956,95.1973 340.982,95.1163 346.966,95.0458 352.95,95.0026 358.935,94.9858 364.919,94.9945 370.903,95.0281 376.887,95.0856 382.871,95.1665 388.855,95.27 394.839,95.3955 400.823,95.5425 406.807,95.7103 412.791,95.8985 418.776,96.1064 424.76,96.3337 430.744,96.5798 436.728,96.8443 442.712,97.1268 448.696,97.4269 454.68,97.7441 460.664,98.0783 466.648,98.4289 472.632,98.7956 478.617,99.1782 484.601,99.5762 490.585,99.9895 496.569,100.418 502.553,100.861 508.537,101.318 514.521,101.789 520.505,102.275 526.489,102.774 532.473,103.286 538.458,103.812 544.442,104.35 550.426,104.902 556.41,105.466 562.394,106.042 568.378,106.631 574.362,107.231 580.346,107.844 586.33,108.468 592.314,109.104 598.299,109.752 604.283,110.41 610.267,111.08 616.251,111.76 622.235,112.452 628.219,113.154 634.203,113.867 640.187,114.59 646.171,115.323 652.155,116.067 658.14,116.821 664.124,117.585 670.108,118.358 676.092,119.142 682.076,119.935 688.06,120.737 694.044,121.549 700.028,122.371 706.012,123.202 711.996,124.042 717.981,124.891 723.965,125.749 729.949,126.616 735.933,127.492 741.917,128.377 747.901,129.27 753.885,130.173 759.869,131.083 765.853,132.003 771.837,132.93 777.822,133.867 783.806,134.811 789.79,135.764 795.774,136.725 801.758,137.694 807.742,138.671 813.726,139.656 819.71,140.65 825.694,141.651 831.678,142.66 837.663,143.677 843.647,144.702 849.631,145.734 855.615,146.775 861.599,147.822 867.583,148.878 873.567,149.941 879.551,151.012 885.535,152.09 891.519,153.176 897.503,154.269 903.488,155.37 909.472,156.477 915.456,157.593 921.44,158.715 927.424,159.845 933.408,160.982 939.392,162.127 945.376,163.278 951.36,164.437 957.344,165.603 963.329,166.776 969.313,167.956 975.297,169.144 981.281,170.338 987.265,171.539 993.249,172.748 999.233,173.963 1005.22,175.186 1011.2,176.415 1017.19,177.651 1023.17,178.895 1029.15,180.145 1035.14,181.402 1041.12,182.666 1047.11,183.937 1053.09,185.215 1059.07,186.5 1065.06,187.791 1071.04,189.09 1077.03,190.395 1083.01,191.707 1088.99,193.026 1094.98,194.351 1100.96,195.684 1106.95,197.023 1112.93,198.369 1118.92,199.722 1124.9,201.082 1130.88,202.449 1136.87,203.822 1142.85,205.202 1148.84,206.589 1154.82,207.983 1160.8,209.383 1166.79,210.79 1172.77,212.204 1178.76,213.625 1184.74,215.053 1190.72,216.487 1196.71,217.929 1202.69,219.377 1208.68,220.832 1214.66,222.294 1220.64,223.762 1226.63,225.238 1232.61,226.72 1238.6,228.209 1244.58,229.705 1250.57,231.208 1256.55,232.718 1262.53,234.234 1268.52,235.758 1274.5,237.289 1280.49,238.826 1286.47,240.371 1292.45,241.922 1298.44,243.481 1304.42,245.046 1310.41,246.618 1316.39,248.198 1322.37,249.784 1328.36,251.378 1334.34,252.979 1340.33,254.587 1346.31,256.202 1352.3,257.824 1358.28,259.453 1364.26,261.09 1370.25,262.734 1376.23,264.385 1382.22,266.043 1388.2,267.709 1394.18,269.382 1400.17,271.062 1406.15,272.75 1412.14,274.445 1418.12,276.148 1424.1,277.858 1430.09,279.576 1436.07,281.301 1442.06,283.034 1448.04,284.775 1454.02,286.523 1460.01,288.279 1465.99,290.042 1471.98,291.814 1477.96,293.593 1483.95,295.38 1489.93,297.175 1495.91,298.978 1501.9,300.788 1507.88,302.607 1513.87,304.434 1519.85,306.269 1525.83,308.112 1531.82,309.964 1537.8,311.823 1543.79,313.691 1549.77,315.568 1555.75,317.452 1561.74,319.346 1567.72,321.247 1573.71,323.158 1579.69,325.076 1585.67,327.004 1591.66,328.94 1597.64,330.886 1603.63,332.84 1609.61,334.802 1615.6,336.774 1621.58,338.755 1627.56,340.746 1633.55,342.745 1639.53,344.754 1645.52,346.772 1651.5,348.799 1657.48,350.836 1663.47,352.882 1669.45,354.938 1675.44,357.004 1681.42,359.08 1687.4,361.165 1693.39,363.26 1699.37,365.366 1705.36,367.481 1711.34,369.607 1717.33,371.743 1723.31,373.89 1729.29,376.047 1735.28,378.215 1741.26,380.393 1747.25,382.582 1753.23,384.782 1759.21,386.994 1765.2,389.216 1771.18,391.449 1777.17,393.694 1783.15,395.95 1789.13,398.218 1795.12,400.498 1801.1,402.789 1807.09,405.092 1813.07,407.408 1819.05,409.735 1825.04,412.075 1831.02,414.427 1837.01,416.792 1842.99,419.17 1848.98,421.561 1854.96,423.964 1860.94,426.381 1866.93,428.811 1872.91,431.255 1878.9,433.713 1884.88,436.184 1890.86,438.669 1896.85,441.169 1902.83,443.682 1908.82,446.211 1914.8,448.754 1920.78,451.312 1926.77,453.885 1932.75,456.474 1938.74,459.078 1944.72,461.698 1950.7,464.333 1956.69,466.985 1962.67,469.654 1968.66,472.339 1974.64,475.041 1980.63,477.76 1986.61,480.497 1992.59,483.251 1998.58,486.023 2004.56,488.814 2010.55,491.622 2016.53,494.45 2022.51,497.297 2028.5,500.163 2034.48,503.049 2040.47,505.955 2046.45,508.881 2052.43,511.828 2058.42,514.796 2064.4,517.786 2070.39,520.797 2076.37,523.831 2082.36,526.887 2088.34,529.967 2094.32,533.07 2100.31,536.196 2106.29,539.347 2112.28,542.523 2118.26,545.725 2124.24,548.952 2130.23,552.205 2136.21,555.486 2142.2,558.794 2148.18,562.13 2154.16,565.494 2160.15,568.888 2166.13,572.312 2172.12,575.767 2178.1,579.252 2184.08,582.77 2190.07,586.321 2196.05,589.905 2202.04,593.524 2208.02,597.178 2214.01,600.869 2219.99,604.596 2225.97,608.361 2231.96,612.166 2237.94,616.011 2243.93,619.897 2249.91,623.825 2255.89,627.798 2261.88,631.815 2267.86,635.879 2273.85,639.99 2279.83,644.15 2285.81,648.362 2291.8,652.626 2297.78,656.944 2303.77,661.318 2309.75,665.75 2315.74,670.243 2321.72,674.798 2327.7,679.417 2333.69,684.104 2339.67,688.86 2345.66,693.689 2351.64,698.594 2357.62,703.578 2363.61,708.644 2369.59,713.796 2375.58,719.039 2381.56,724.376 2387.54,729.812 2393.53,735.353 2399.51,741.004 2405.5,746.77 2411.48,752.66 2417.46,758.679 2423.45,764.837 2429.43,771.141 2435.42,777.602 2441.4,784.231 2447.39,791.04 2453.37,798.042 2459.35,805.255 2465.34,812.695 2471.32,820.383 2477.31,828.343 2483.29,836.603 2489.27,845.195 2495.26,854.158 2501.24,863.54 2507.23,873.397 2513.21,883.802 2519.19,894.845 2525.18,906.643 2531.16,919.357 2537.15,933.206 2543.13,948.512 2549.11,965.779 2555.1,985.868 2561.08,1010.5 2567.07,1044.18 2573.05,1118.27 2573.63,1173.91 "/>
<polyline clip-path="url(#clip252)" style="stroke:#e26f46; stroke-linecap:round; stroke-linejoin:round; stroke-width:12; stroke-opacity:1; fill:none" points="335.956,1686.38 340.982,1686.37 346.966,1686.37 352.95,1686.37 358.935,1686.37 364.919,1686.37 370.903,1686.37 376.887,1686.37 382.871,1686.37 388.855,1686.37 394.839,1686.37 400.823,1686.37 406.807,1686.37 412.791,1686.37 418.776,1686.36 424.76,1686.36 430.744,1686.36 436.728,1686.36 442.712,1686.36 448.696,1686.36 454.68,1686.36 460.664,1686.35 466.648,1686.35 472.632,1686.35 478.617,1686.35 484.601,1686.35 490.585,1686.34 496.569,1686.34 502.553,1686.34 508.537,1686.34 514.521,1686.34 520.505,1686.33 526.489,1686.33 532.473,1686.33 538.458,1686.32 544.442,1686.32 550.426,1686.32 556.41,1686.31 562.394,1686.31 568.378,1686.31 574.362,1686.3 580.346,1686.3 586.33,1686.29 592.314,1686.29 598.299,1686.28 604.283,1686.28 610.267,1686.27 616.251,1686.27 622.235,1686.26 628.219,1686.26 634.203,1686.25 640.187,1686.25 646.171,1686.24 652.155,1686.23 658.14,1686.23 664.124,1686.22 670.108,1686.21 676.092,1686.2 682.076,1686.19 688.06,1686.19 694.044,1686.18 700.028,1686.17 706.012,1686.16 711.996,1686.15 717.981,1686.14 723.965,1686.13 729.949,1686.12 735.933,1686.11 741.917,1686.09 747.901,1686.08 753.885,1686.07 759.869,1686.06 765.853,1686.04 771.837,1686.03 777.822,1686.01 783.806,1686 789.79,1685.98 795.774,1685.97 801.758,1685.95 807.742,1685.94 813.726,1685.92 819.71,1685.9 825.694,1685.88 831.678,1685.86 837.663,1685.84 843.647,1685.82 849.631,1685.8 855.615,1685.78 861.599,1685.76 867.583,1685.74 873.567,1685.71 879.551,1685.69 885.535,1685.66 891.519,1685.64 897.503,1685.61 903.488,1685.58 909.472,1685.56 915.456,1685.53 921.44,1685.5 927.424,1685.47 933.408,1685.44 939.392,1685.4 945.376,1685.37 951.36,1685.34 957.344,1685.3 963.329,1685.27 969.313,1685.23 975.297,1685.19 981.281,1685.15 987.265,1685.11 993.249,1685.07 999.233,1685.03 1005.22,1684.99 1011.2,1684.94 1017.19,1684.9 1023.17,1684.85 1029.15,1684.81 1035.14,1684.76 1041.12,1684.71 1047.11,1684.66 1053.09,1684.61 1059.07,1684.55 1065.06,1684.5 1071.04,1684.44 1077.03,1684.38 1083.01,1684.33 1088.99,1684.27 1094.98,1684.2 1100.96,1684.14 1106.95,1684.08 1112.93,1684.01 1118.92,1683.94 1124.9,1683.87 1130.88,1683.8 1136.87,1683.73 1142.85,1683.66 1148.84,1683.58 1154.82,1683.51 1160.8,1683.43 1166.79,1683.35 1172.77,1683.27 1178.76,1683.18 1184.74,1683.1 1190.72,1683.01 1196.71,1682.92 1202.69,1682.83 1208.68,1682.74 1214.66,1682.64 1220.64,1682.54 1226.63,1682.44 1232.61,1682.34 1238.6,1682.24 1244.58,1682.14 1250.57,1682.03 1256.55,1681.92 1262.53,1681.81 1268.52,1681.69 1274.5,1681.58 1280.49,1681.46 1286.47,1681.34 1292.45,1681.21 1298.44,1681.09 1304.42,1680.96 1310.41,1680.83 1316.39,1680.7 1322.37,1680.56 1328.36,1680.42 1334.34,1680.28 1340.33,1680.14 1346.31,1679.99 1352.3,1679.85 1358.28,1679.69 1364.26,1679.54 1370.25,1679.38 1376.23,1679.22 1382.22,1679.06 1388.2,1678.89 1394.18,1678.72 1400.17,1678.55 1406.15,1678.38 1412.14,1678.2 1418.12,1678.02 1424.1,1677.83 1430.09,1677.65 1436.07,1677.46 1442.06,1677.26 1448.04,1677.06 1454.02,1676.86 1460.01,1676.66 1465.99,1676.45 1471.98,1676.24 1477.96,1676.02 1483.95,1675.8 1489.93,1675.58 1495.91,1675.35 1501.9,1675.12 1507.88,1674.89 1513.87,1674.65 1519.85,1674.41 1525.83,1674.16 1531.82,1673.91 1537.8,1673.66 1543.79,1673.4 1549.77,1673.13 1555.75,1672.87 1561.74,1672.59 1567.72,1672.32 1573.71,1672.04 1579.69,1671.75 1585.67,1671.46 1591.66,1671.17 1597.64,1670.87 1603.63,1670.56 1609.61,1670.25 1615.6,1669.94 1621.58,1669.62 1627.56,1669.3 1633.55,1668.97 1639.53,1668.63 1645.52,1668.29 1651.5,1667.95 1657.48,1667.6 1663.47,1667.24 1669.45,1666.88 1675.44,1666.51 1681.42,1666.14 1687.4,1665.76 1693.39,1665.38 1699.37,1664.99 1705.36,1664.59 1711.34,1664.19 1717.33,1663.78 1723.31,1663.36 1729.29,1662.94 1735.28,1662.51 1741.26,1662.08 1747.25,1661.63 1753.23,1661.19 1759.21,1660.73 1765.2,1660.27 1771.18,1659.8 1777.17,1659.32 1783.15,1658.84 1789.13,1658.35 1795.12,1657.85 1801.1,1657.34 1807.09,1656.83 1813.07,1656.3 1819.05,1655.77 1825.04,1655.24 1831.02,1654.69 1837.01,1654.13 1842.99,1653.57 1848.98,1653 1854.96,1652.42 1860.94,1651.83 1866.93,1651.23 1872.91,1650.62 1878.9,1650.01 1884.88,1649.38 1890.86,1648.74 1896.85,1648.1 1902.83,1647.44 1908.82,1646.78 1914.8,1646.1 1920.78,1645.41 1926.77,1644.72 1932.75,1644.01 1938.74,1643.29 1944.72,1642.56 1950.7,1641.82 1956.69,1641.06 1962.67,1640.3 1968.66,1639.52 1974.64,1638.73 1980.63,1637.93 1986.61,1637.12 1992.59,1636.29 1998.58,1635.45 2004.56,1634.6 2010.55,1633.73 2016.53,1632.85 2022.51,1631.96 2028.5,1631.05 2034.48,1630.12 2040.47,1629.19 2046.45,1628.23 2052.43,1627.26 2058.42,1626.28 2064.4,1625.28 2070.39,1624.26 2076.37,1623.22 2082.36,1622.17 2088.34,1621.1 2094.32,1620.01 2100.31,1618.91 2106.29,1617.78 2112.28,1616.64 2118.26,1615.47 2124.24,1614.29 2130.23,1613.08 2136.21,1611.86 2142.2,1610.61 2148.18,1609.34 2154.16,1608.05 2160.15,1606.73 2166.13,1605.4 2172.12,1604.03 2178.1,1602.64 2184.08,1601.23 2190.07,1599.79 2196.05,1598.32 2202.04,1596.83 2208.02,1595.3 2214.01,1593.75 2219.99,1592.17 2225.97,1590.55 2231.96,1588.91 2237.94,1587.23 2243.93,1585.52 2249.91,1583.77 2255.89,1581.98 2261.88,1580.16 2267.86,1578.3 2273.85,1576.4 2279.83,1574.46 2285.81,1572.48 2291.8,1570.45 2297.78,1568.38 2303.77,1566.26 2309.75,1564.09 2315.74,1561.87 2321.72,1559.59 2327.7,1557.26 2333.69,1554.88 2339.67,1552.43 2345.66,1549.92 2351.64,1547.35 2357.62,1544.71 2363.61,1542 2369.59,1539.21 2375.58,1536.34 2381.56,1533.39 2387.54,1530.36 2393.53,1527.23 2399.51,1524.01 2405.5,1520.68 2411.48,1517.25 2417.46,1513.7 2423.45,1510.03 2429.43,1506.23 2435.42,1502.29 2441.4,1498.2 2447.39,1493.95 2453.37,1489.52 2459.35,1484.91 2465.34,1480.08 2471.32,1475.04 2477.31,1469.75 2483.29,1464.18 2489.27,1458.31 2495.26,1452.1 2501.24,1445.51 2507.23,1438.47 2513.21,1430.93 2519.19,1422.8 2525.18,1413.96 2531.16,1404.26 2537.15,1393.5 2543.13,1381.35 2549.11,1367.34 2555.1,1350.62 2561.08,1329.52 2567.07,1299.6 2573.05,1229.63 2573.63,1173.91 "/>
<circle clip-path="url(#clip252)" cx="2573.63" cy="1173.91" r="21.6" fill="#3da44d" fill-rule="evenodd" fill-opacity="1" stroke="#000000" stroke-opacity="1" stroke-width="3.84"/>
<path clip-path="url(#clip250)" d="M1789.61 362.673 L2561.69 362.673 L2561.69 103.473 L1789.61 103.473  Z" fill="#ffffff" fill-rule="evenodd" fill-opacity="1"/>
<polyline clip-path="url(#clip250)" style="stroke:#000000; stroke-linecap:round; stroke-linejoin:round; stroke-width:4; stroke-opacity:1; fill:none" points="1789.61,362.673 2561.69,362.673 2561.69,103.473 1789.61,103.473 1789.61,362.673 "/>
<polyline clip-path="url(#clip250)" style="stroke:#009af9; stroke-linecap:round; stroke-linejoin:round; stroke-width:15; stroke-opacity:1; fill:none" points="1815.96,168.273 1974.09,168.273 "/>
<path clip-path="url(#clip250)" d="M2028.25 148.091 L2028.25 153.791 Q2024.92 152.2 2021.97 151.419 Q2019.02 150.637 2016.27 150.637 Q2011.5 150.637 2008.89 152.489 Q2006.32 154.341 2006.32 157.755 Q2006.32 160.62 2008.02 162.096 Q2009.76 163.542 2014.56 164.439 L2018.09 165.163 Q2024.63 166.407 2027.73 169.561 Q2030.85 172.686 2030.85 177.952 Q2030.85 184.231 2026.63 187.472 Q2022.43 190.712 2014.3 190.712 Q2011.24 190.712 2007.76 190.018 Q2004.32 189.323 2000.62 187.963 L2000.62 181.945 Q2004.18 183.942 2007.59 184.954 Q2011.01 185.967 2014.3 185.967 Q2019.31 185.967 2022.03 183.999 Q2024.75 182.032 2024.75 178.386 Q2024.75 175.203 2022.78 173.409 Q2020.84 171.615 2016.39 170.718 L2012.83 170.024 Q2006.29 168.722 2003.37 165.944 Q2000.44 163.166 2000.44 158.218 Q2000.44 152.489 2004.47 149.191 Q2008.52 145.892 2015.61 145.892 Q2018.64 145.892 2021.8 146.442 Q2024.95 146.991 2028.25 148.091 Z" fill="#000000" fill-rule="evenodd" fill-opacity="1" /><path clip-path="url(#clip250)" d="M2054.47 173.583 Q2048.01 173.583 2045.52 175.058 Q2043.04 176.534 2043.04 180.093 Q2043.04 182.929 2044.89 184.607 Q2046.77 186.256 2049.98 186.256 Q2054.41 186.256 2057.07 183.131 Q2059.76 179.977 2059.76 174.769 L2059.76 173.583 L2054.47 173.583 M2065.08 171.384 L2065.08 189.873 L2059.76 189.873 L2059.76 184.954 Q2057.94 187.906 2055.22 189.323 Q2052.5 190.712 2048.56 190.712 Q2043.59 190.712 2040.63 187.935 Q2037.71 185.128 2037.71 180.44 Q2037.71 174.972 2041.36 172.194 Q2045.03 169.416 2052.3 169.416 L2059.76 169.416 L2059.76 168.895 Q2059.76 165.221 2057.33 163.224 Q2054.93 161.199 2050.56 161.199 Q2047.78 161.199 2045.15 161.864 Q2042.52 162.53 2040.08 163.861 L2040.08 158.942 Q2043.01 157.813 2045.76 157.263 Q2048.5 156.685 2051.11 156.685 Q2058.14 156.685 2061.61 160.331 Q2065.08 163.976 2065.08 171.384 Z" fill="#000000" fill-rule="evenodd" fill-opacity="1" /><path clip-path="url(#clip250)" d="M2081.32 148.265 L2081.32 157.466 L2092.28 157.466 L2092.28 161.604 L2081.32 161.604 L2081.32 179.196 Q2081.32 183.16 2082.39 184.289 Q2083.49 185.417 2086.81 185.417 L2092.28 185.417 L2092.28 189.873 L2086.81 189.873 Q2080.65 189.873 2078.31 187.587 Q2075.96 185.273 2075.96 179.196 L2075.96 161.604 L2072.06 161.604 L2072.06 157.466 L2075.96 157.466 L2075.96 148.265 L2081.32 148.265 Z" fill="#000000" fill-rule="evenodd" fill-opacity="1" /><path clip-path="url(#clip250)" d="M2100.04 182.524 L2106.14 182.524 L2106.14 189.873 L2100.04 189.873 L2100.04 182.524 Z" fill="#000000" fill-rule="evenodd" fill-opacity="1" /><path clip-path="url(#clip250)" d="M2136.96 144.85 L2142.28 144.85 L2142.28 189.873 L2136.96 189.873 L2136.96 144.85 Z" fill="#000000" fill-rule="evenodd" fill-opacity="1" /><path clip-path="url(#clip250)" d="M2153.42 157.466 L2158.75 157.466 L2158.75 189.873 L2153.42 189.873 L2153.42 157.466 M2153.42 144.85 L2158.75 144.85 L2158.75 151.592 L2153.42 151.592 L2153.42 144.85 Z" fill="#000000" fill-rule="evenodd" fill-opacity="1" /><path clip-path="url(#clip250)" d="M2173.07 173.699 Q2173.07 179.572 2175.47 182.929 Q2177.9 186.256 2182.13 186.256 Q2186.35 186.256 2188.78 182.929 Q2191.21 179.572 2191.21 173.699 Q2191.21 167.825 2188.78 164.497 Q2186.35 161.141 2182.13 161.141 Q2177.9 161.141 2175.47 164.497 Q2173.07 167.825 2173.07 173.699 M2191.21 185.012 Q2189.53 187.906 2186.96 189.323 Q2184.41 190.712 2180.82 190.712 Q2174.95 190.712 2171.25 186.025 Q2167.57 181.337 2167.57 173.699 Q2167.57 166.06 2171.25 161.372 Q2174.95 156.685 2180.82 156.685 Q2184.41 156.685 2186.96 158.103 Q2189.53 159.491 2191.21 162.385 L2191.21 157.466 L2196.54 157.466 L2196.54 202.2 L2191.21 202.2 L2191.21 185.012 Z" fill="#000000" fill-rule="evenodd" fill-opacity="1" /><path clip-path="url(#clip250)" d="M2206.95 177.084 L2206.95 157.466 L2212.28 157.466 L2212.28 176.881 Q2212.28 181.482 2214.07 183.797 Q2215.87 186.083 2219.45 186.083 Q2223.76 186.083 2226.25 183.334 Q2228.77 180.585 2228.77 175.84 L2228.77 157.466 L2234.09 157.466 L2234.09 189.873 L2228.77 189.873 L2228.77 184.896 Q2226.83 187.848 2224.26 189.294 Q2221.71 190.712 2218.32 190.712 Q2212.74 190.712 2209.85 187.24 Q2206.95 183.768 2206.95 177.084 M2220.35 156.685 L2220.35 156.685 Z" fill="#000000" fill-rule="evenodd" fill-opacity="1" /><path clip-path="url(#clip250)" d="M2245.06 157.466 L2250.38 157.466 L2250.38 189.873 L2245.06 189.873 L2245.06 157.466 M2245.06 144.85 L2250.38 144.85 L2250.38 151.592 L2245.06 151.592 L2245.06 144.85 Z" fill="#000000" fill-rule="evenodd" fill-opacity="1" /><path clip-path="url(#clip250)" d="M2282.85 162.385 L2282.85 144.85 L2288.17 144.85 L2288.17 189.873 L2282.85 189.873 L2282.85 185.012 Q2281.17 187.906 2278.6 189.323 Q2276.05 190.712 2272.46 190.712 Q2266.59 190.712 2262.88 186.025 Q2259.21 181.337 2259.21 173.699 Q2259.21 166.06 2262.88 161.372 Q2266.59 156.685 2272.46 156.685 Q2276.05 156.685 2278.6 158.103 Q2281.17 159.491 2282.85 162.385 M2264.71 173.699 Q2264.71 179.572 2267.11 182.929 Q2269.54 186.256 2273.76 186.256 Q2277.99 186.256 2280.42 182.929 Q2282.85 179.572 2282.85 173.699 Q2282.85 167.825 2280.42 164.497 Q2277.99 161.141 2273.76 161.141 Q2269.54 161.141 2267.11 164.497 Q2264.71 167.825 2264.71 173.699 Z" fill="#000000" fill-rule="evenodd" fill-opacity="1" /><path clip-path="url(#clip250)" d="M2339.3 162.385 L2339.3 144.85 L2344.63 144.85 L2344.63 189.873 L2339.3 189.873 L2339.3 185.012 Q2337.62 187.906 2335.05 189.323 Q2332.5 190.712 2328.91 190.712 Q2323.04 190.712 2319.34 186.025 Q2315.66 181.337 2315.66 173.699 Q2315.66 166.06 2319.34 161.372 Q2323.04 156.685 2328.91 156.685 Q2332.5 156.685 2335.05 158.103 Q2337.62 159.491 2339.3 162.385 M2321.16 173.699 Q2321.16 179.572 2323.56 182.929 Q2325.99 186.256 2330.22 186.256 Q2334.44 186.256 2336.87 182.929 Q2339.3 179.572 2339.3 173.699 Q2339.3 167.825 2336.87 164.497 Q2334.44 161.141 2330.22 161.141 Q2325.99 161.141 2323.56 164.497 Q2321.16 167.825 2321.16 173.699 Z" fill="#000000" fill-rule="evenodd" fill-opacity="1" /><path clip-path="url(#clip250)" d="M2383.31 172.339 L2383.31 174.943 L2358.83 174.943 Q2359.18 180.44 2362.13 183.334 Q2365.11 186.198 2370.41 186.198 Q2373.47 186.198 2376.34 185.446 Q2379.23 184.694 2382.07 183.189 L2382.07 188.224 Q2379.2 189.439 2376.19 190.076 Q2373.18 190.712 2370.09 190.712 Q2362.33 190.712 2357.79 186.198 Q2353.28 181.685 2353.28 173.988 Q2353.28 166.031 2357.56 161.372 Q2361.87 156.685 2369.16 156.685 Q2375.7 156.685 2379.49 160.909 Q2383.31 165.105 2383.31 172.339 M2377.99 170.776 Q2377.93 166.407 2375.53 163.803 Q2373.16 161.199 2369.22 161.199 Q2364.76 161.199 2362.07 163.716 Q2359.41 166.233 2359.01 170.805 L2377.99 170.776 Z" fill="#000000" fill-rule="evenodd" fill-opacity="1" /><path clip-path="url(#clip250)" d="M2418.99 170.313 L2418.99 189.873 L2413.66 189.873 L2413.66 170.487 Q2413.66 165.886 2411.87 163.6 Q2410.08 161.314 2406.49 161.314 Q2402.18 161.314 2399.69 164.063 Q2397.2 166.812 2397.2 171.557 L2397.2 189.873 L2391.85 189.873 L2391.85 157.466 L2397.2 157.466 L2397.2 162.501 Q2399.11 159.578 2401.69 158.131 Q2404.29 156.685 2407.68 156.685 Q2413.26 156.685 2416.12 160.157 Q2418.99 163.6 2418.99 170.313 Z" fill="#000000" fill-rule="evenodd" fill-opacity="1" /><path clip-path="url(#clip250)" d="M2450.27 158.421 L2450.27 163.456 Q2448.01 162.298 2445.58 161.719 Q2443.15 161.141 2440.55 161.141 Q2436.58 161.141 2434.59 162.356 Q2432.62 163.571 2432.62 166.002 Q2432.62 167.854 2434.04 168.924 Q2435.45 169.966 2439.74 170.921 L2441.56 171.326 Q2447.23 172.541 2449.6 174.769 Q2452 176.968 2452 180.932 Q2452 185.446 2448.42 188.079 Q2444.86 190.712 2438.61 190.712 Q2436 190.712 2433.17 190.191 Q2430.36 189.7 2427.24 188.687 L2427.24 183.189 Q2430.19 184.723 2433.05 185.504 Q2435.92 186.256 2438.72 186.256 Q2442.48 186.256 2444.51 184.983 Q2446.54 183.681 2446.54 181.337 Q2446.54 179.167 2445.06 178.01 Q2443.61 176.852 2438.66 175.782 L2436.81 175.348 Q2431.87 174.306 2429.67 172.165 Q2427.47 169.995 2427.47 166.233 Q2427.47 161.662 2430.71 159.173 Q2433.95 156.685 2439.91 156.685 Q2442.86 156.685 2445.46 157.119 Q2448.07 157.553 2450.27 158.421 Z" fill="#000000" fill-rule="evenodd" fill-opacity="1" /><path clip-path="url(#clip250)" d="M2460.48 157.466 L2465.81 157.466 L2465.81 189.873 L2460.48 189.873 L2460.48 157.466 M2460.48 144.85 L2465.81 144.85 L2465.81 151.592 L2460.48 151.592 L2460.48 144.85 Z" fill="#000000" fill-rule="evenodd" fill-opacity="1" /><path clip-path="url(#clip250)" d="M2482.21 148.265 L2482.21 157.466 L2493.18 157.466 L2493.18 161.604 L2482.21 161.604 L2482.21 179.196 Q2482.21 183.16 2483.28 184.289 Q2484.38 185.417 2487.71 185.417 L2493.18 185.417 L2493.18 189.873 L2487.71 189.873 Q2481.55 189.873 2479.2 187.587 Q2476.86 185.273 2476.86 179.196 L2476.86 161.604 L2472.95 161.604 L2472.95 157.466 L2476.86 157.466 L2476.86 148.265 L2482.21 148.265 Z" fill="#000000" fill-rule="evenodd" fill-opacity="1" /><path clip-path="url(#clip250)" d="M2513.66 192.882 Q2511.41 198.669 2509.27 200.434 Q2507.13 202.2 2503.54 202.2 L2499.28 202.2 L2499.28 197.744 L2502.41 197.744 Q2504.61 197.744 2505.82 196.702 Q2507.04 195.66 2508.51 191.783 L2509.47 189.352 L2496.36 157.466 L2502 157.466 L2512.13 182.813 L2522.26 157.466 L2527.9 157.466 L2513.66 192.882 Z" fill="#000000" fill-rule="evenodd" fill-opacity="1" /><polyline clip-path="url(#clip250)" style="stroke:#e26f46; stroke-linecap:round; stroke-linejoin:round; stroke-width:15; stroke-opacity:1; fill:none" points="1815.96,233.073 1974.09,233.073 "/>
<path clip-path="url(#clip250)" d="M2028.25 212.891 L2028.25 218.591 Q2024.92 217 2021.97 216.219 Q2019.02 215.437 2016.27 215.437 Q2011.5 215.437 2008.89 217.289 Q2006.32 219.141 2006.32 222.555 Q2006.32 225.42 2008.02 226.896 Q2009.76 228.342 2014.56 229.239 L2018.09 229.963 Q2024.63 231.207 2027.73 234.361 Q2030.85 237.486 2030.85 242.752 Q2030.85 249.031 2026.63 252.272 Q2022.43 255.512 2014.3 255.512 Q2011.24 255.512 2007.76 254.818 Q2004.32 254.123 2000.62 252.763 L2000.62 246.745 Q2004.18 248.742 2007.59 249.754 Q2011.01 250.767 2014.3 250.767 Q2019.31 250.767 2022.03 248.799 Q2024.75 246.832 2024.75 243.186 Q2024.75 240.003 2022.78 238.209 Q2020.84 236.415 2016.39 235.518 L2012.83 234.824 Q2006.29 233.522 2003.37 230.744 Q2000.44 227.966 2000.44 223.018 Q2000.44 217.289 2004.47 213.991 Q2008.52 210.692 2015.61 210.692 Q2018.64 210.692 2021.8 211.242 Q2024.95 211.791 2028.25 212.891 Z" fill="#000000" fill-rule="evenodd" fill-opacity="1" /><path clip-path="url(#clip250)" d="M2054.47 238.383 Q2048.01 238.383 2045.52 239.858 Q2043.04 241.334 2043.04 244.893 Q2043.04 247.729 2044.89 249.407 Q2046.77 251.056 2049.98 251.056 Q2054.41 251.056 2057.07 247.931 Q2059.76 244.777 2059.76 239.569 L2059.76 238.383 L2054.47 238.383 M2065.08 236.184 L2065.08 254.673 L2059.76 254.673 L2059.76 249.754 Q2057.94 252.706 2055.22 254.123 Q2052.5 255.512 2048.56 255.512 Q2043.59 255.512 2040.63 252.735 Q2037.71 249.928 2037.71 245.24 Q2037.71 239.772 2041.36 236.994 Q2045.03 234.216 2052.3 234.216 L2059.76 234.216 L2059.76 233.695 Q2059.76 230.021 2057.33 228.024 Q2054.93 225.999 2050.56 225.999 Q2047.78 225.999 2045.15 226.664 Q2042.52 227.33 2040.08 228.661 L2040.08 223.742 Q2043.01 222.613 2045.76 222.063 Q2048.5 221.485 2051.11 221.485 Q2058.14 221.485 2061.61 225.131 Q2065.08 228.776 2065.08 236.184 Z" fill="#000000" fill-rule="evenodd" fill-opacity="1" /><path clip-path="url(#clip250)" d="M2081.32 213.065 L2081.32 222.266 L2092.28 222.266 L2092.28 226.404 L2081.32 226.404 L2081.32 243.996 Q2081.32 247.96 2082.39 249.089 Q2083.49 250.217 2086.81 250.217 L2092.28 250.217 L2092.28 254.673 L2086.81 254.673 Q2080.65 254.673 2078.31 252.387 Q2075.96 250.073 2075.96 243.996 L2075.96 226.404 L2072.06 226.404 L2072.06 222.266 L2075.96 222.266 L2075.96 213.065 L2081.32 213.065 Z" fill="#000000" fill-rule="evenodd" fill-opacity="1" /><path clip-path="url(#clip250)" d="M2100.04 247.324 L2106.14 247.324 L2106.14 254.673 L2100.04 254.673 L2100.04 247.324 Z" fill="#000000" fill-rule="evenodd" fill-opacity="1" /><path clip-path="url(#clip250)" d="M2133.14 222.266 L2138.78 222.266 L2148.91 249.465 L2159.04 222.266 L2164.68 222.266 L2152.53 254.673 L2145.29 254.673 L2133.14 222.266 Z" fill="#000000" fill-rule="evenodd" fill-opacity="1" /><path clip-path="url(#clip250)" d="M2186.76 238.383 Q2180.3 238.383 2177.82 239.858 Q2175.33 241.334 2175.33 244.893 Q2175.33 247.729 2177.18 249.407 Q2179.06 251.056 2182.27 251.056 Q2186.7 251.056 2189.36 247.931 Q2192.05 244.777 2192.05 239.569 L2192.05 238.383 L2186.76 238.383 M2197.38 236.184 L2197.38 254.673 L2192.05 254.673 L2192.05 249.754 Q2190.23 252.706 2187.51 254.123 Q2184.79 255.512 2180.85 255.512 Q2175.88 255.512 2172.93 252.735 Q2170 249.928 2170 245.24 Q2170 239.772 2173.65 236.994 Q2177.32 234.216 2184.59 234.216 L2192.05 234.216 L2192.05 233.695 Q2192.05 230.021 2189.62 228.024 Q2187.22 225.999 2182.85 225.999 Q2180.07 225.999 2177.44 226.664 Q2174.81 227.33 2172.38 228.661 L2172.38 223.742 Q2175.3 222.613 2178.05 222.063 Q2180.8 221.485 2183.4 221.485 Q2190.43 221.485 2193.9 225.131 Q2197.38 228.776 2197.38 236.184 Z" fill="#000000" fill-rule="evenodd" fill-opacity="1" /><path clip-path="url(#clip250)" d="M2213.49 249.812 L2213.49 267 L2208.14 267 L2208.14 222.266 L2213.49 222.266 L2213.49 227.185 Q2215.17 224.291 2217.72 222.903 Q2220.29 221.485 2223.85 221.485 Q2229.75 221.485 2233.43 226.172 Q2237.13 230.86 2237.13 238.499 Q2237.13 246.137 2233.43 250.825 Q2229.75 255.512 2223.85 255.512 Q2220.29 255.512 2217.72 254.123 Q2215.17 252.706 2213.49 249.812 M2231.61 238.499 Q2231.61 232.625 2229.18 229.297 Q2226.77 225.941 2222.55 225.941 Q2218.32 225.941 2215.89 229.297 Q2213.49 232.625 2213.49 238.499 Q2213.49 244.372 2215.89 247.729 Q2218.32 251.056 2222.55 251.056 Q2226.77 251.056 2229.18 247.729 Q2231.61 244.372 2231.61 238.499 Z" fill="#000000" fill-rule="evenodd" fill-opacity="1" /><path clip-path="url(#clip250)" d="M2258.52 225.999 Q2254.23 225.999 2251.74 229.355 Q2249.26 232.683 2249.26 238.499 Q2249.26 244.314 2251.72 247.671 Q2254.2 250.998 2258.52 250.998 Q2262.77 250.998 2265.26 247.642 Q2267.75 244.286 2267.75 238.499 Q2267.75 232.74 2265.26 229.384 Q2262.77 225.999 2258.52 225.999 M2258.52 221.485 Q2265.46 221.485 2269.42 225.999 Q2273.39 230.512 2273.39 238.499 Q2273.39 246.456 2269.42 250.998 Q2265.46 255.512 2258.52 255.512 Q2251.54 255.512 2247.58 250.998 Q2243.64 246.456 2243.64 238.499 Q2243.64 230.512 2247.58 225.999 Q2251.54 221.485 2258.52 221.485 Z" fill="#000000" fill-rule="evenodd" fill-opacity="1" /><path clip-path="url(#clip250)" d="M2300.99 227.243 Q2300.09 226.722 2299.02 226.49 Q2297.98 226.23 2296.71 226.23 Q2292.2 226.23 2289.77 229.181 Q2287.36 232.104 2287.36 237.602 L2287.36 254.673 L2282.01 254.673 L2282.01 222.266 L2287.36 222.266 L2287.36 227.301 Q2289.04 224.349 2291.73 222.931 Q2294.42 221.485 2298.27 221.485 Q2298.82 221.485 2299.49 221.572 Q2300.15 221.629 2300.96 221.774 L2300.99 227.243 Z" fill="#000000" fill-rule="evenodd" fill-opacity="1" /><path clip-path="url(#clip250)" d="M2346.74 227.185 L2346.74 209.65 L2352.06 209.65 L2352.06 254.673 L2346.74 254.673 L2346.74 249.812 Q2345.06 252.706 2342.48 254.123 Q2339.94 255.512 2336.35 255.512 Q2330.48 255.512 2326.77 250.825 Q2323.1 246.137 2323.1 238.499 Q2323.1 230.86 2326.77 226.172 Q2330.48 221.485 2336.35 221.485 Q2339.94 221.485 2342.48 222.903 Q2345.06 224.291 2346.74 227.185 M2328.6 238.499 Q2328.6 244.372 2331 247.729 Q2333.43 251.056 2337.65 251.056 Q2341.88 251.056 2344.31 247.729 Q2346.74 244.372 2346.74 238.499 Q2346.74 232.625 2344.31 229.297 Q2341.88 225.941 2337.65 225.941 Q2333.43 225.941 2331 229.297 Q2328.6 232.625 2328.6 238.499 Z" fill="#000000" fill-rule="evenodd" fill-opacity="1" /><path clip-path="url(#clip250)" d="M2390.75 237.139 L2390.75 239.743 L2366.27 239.743 Q2366.62 245.24 2369.57 248.134 Q2372.55 250.998 2377.84 250.998 Q2380.91 250.998 2383.78 250.246 Q2386.67 249.494 2389.5 247.989 L2389.5 253.024 Q2386.64 254.239 2383.63 254.876 Q2380.62 255.512 2377.53 255.512 Q2369.77 255.512 2365.23 250.998 Q2360.71 246.485 2360.71 238.788 Q2360.71 230.831 2365 226.172 Q2369.31 221.485 2376.6 221.485 Q2383.14 221.485 2386.93 225.709 Q2390.75 229.905 2390.75 237.139 M2385.42 235.576 Q2385.37 231.207 2382.96 228.603 Q2380.59 225.999 2376.66 225.999 Q2372.2 225.999 2369.51 228.516 Q2366.85 231.033 2366.44 235.605 L2385.42 235.576 Z" fill="#000000" fill-rule="evenodd" fill-opacity="1" /><path clip-path="url(#clip250)" d="M2426.43 235.113 L2426.43 254.673 L2421.1 254.673 L2421.1 235.287 Q2421.1 230.686 2419.31 228.4 Q2417.51 226.114 2413.93 226.114 Q2409.61 226.114 2407.13 228.863 Q2404.64 231.612 2404.64 236.357 L2404.64 254.673 L2399.28 254.673 L2399.28 222.266 L2404.64 222.266 L2404.64 227.301 Q2406.55 224.378 2409.12 222.931 Q2411.73 221.485 2415.11 221.485 Q2420.7 221.485 2423.56 224.957 Q2426.43 228.4 2426.43 235.113 Z" fill="#000000" fill-rule="evenodd" fill-opacity="1" /><path clip-path="url(#clip250)" d="M2457.7 223.221 L2457.7 228.256 Q2455.45 227.098 2453.02 226.519 Q2450.59 225.941 2447.98 225.941 Q2444.02 225.941 2442.02 227.156 Q2440.05 228.371 2440.05 230.802 Q2440.05 232.654 2441.47 233.724 Q2442.89 234.766 2447.17 235.721 L2448.99 236.126 Q2454.67 237.341 2457.04 239.569 Q2459.44 241.768 2459.44 245.732 Q2459.44 250.246 2455.85 252.879 Q2452.29 255.512 2446.04 255.512 Q2443.44 255.512 2440.6 254.991 Q2437.8 254.5 2434.67 253.487 L2434.67 247.989 Q2437.62 249.523 2440.49 250.304 Q2443.35 251.056 2446.16 251.056 Q2449.92 251.056 2451.95 249.783 Q2453.97 248.481 2453.97 246.137 Q2453.97 243.967 2452.5 242.81 Q2451.05 241.652 2446.1 240.582 L2444.25 240.148 Q2439.3 239.106 2437.1 236.965 Q2434.9 234.795 2434.9 231.033 Q2434.9 226.462 2438.14 223.973 Q2441.38 221.485 2447.35 221.485 Q2450.3 221.485 2452.9 221.919 Q2455.51 222.353 2457.7 223.221 Z" fill="#000000" fill-rule="evenodd" fill-opacity="1" /><path clip-path="url(#clip250)" d="M2467.92 222.266 L2473.24 222.266 L2473.24 254.673 L2467.92 254.673 L2467.92 222.266 M2467.92 209.65 L2473.24 209.65 L2473.24 216.392 L2467.92 216.392 L2467.92 209.65 Z" fill="#000000" fill-rule="evenodd" fill-opacity="1" /><path clip-path="url(#clip250)" d="M2489.65 213.065 L2489.65 222.266 L2500.61 222.266 L2500.61 226.404 L2489.65 226.404 L2489.65 243.996 Q2489.65 247.96 2490.72 249.089 Q2491.82 250.217 2495.15 250.217 L2500.61 250.217 L2500.61 254.673 L2495.15 254.673 Q2488.98 254.673 2486.64 252.387 Q2484.3 250.073 2484.3 243.996 L2484.3 226.404 L2480.39 226.404 L2480.39 222.266 L2484.3 222.266 L2484.3 213.065 L2489.65 213.065 Z" fill="#000000" fill-rule="evenodd" fill-opacity="1" /><path clip-path="url(#clip250)" d="M2521.1 257.682 Q2518.84 263.469 2516.7 265.234 Q2514.56 267 2510.97 267 L2506.72 267 L2506.72 262.544 L2509.85 262.544 Q2512.04 262.544 2513.26 261.502 Q2514.47 260.46 2515.95 256.583 L2516.91 254.152 L2503.8 222.266 L2509.44 222.266 L2519.57 247.613 L2529.69 222.266 L2535.34 222.266 L2521.1 257.682 Z" fill="#000000" fill-rule="evenodd" fill-opacity="1" /><circle clip-path="url(#clip250)" cx="1895.02" cy="297.873" r="28.8" fill="#3da44d" fill-rule="evenodd" fill-opacity="1" stroke="#000000" stroke-opacity="1" stroke-width="5.12"/>
<path clip-path="url(#clip250)" d="M2035.28 279.601 L2035.28 285.764 Q2032.33 283.015 2028.97 281.655 Q2025.65 280.295 2021.88 280.295 Q2014.48 280.295 2010.54 284.838 Q2006.61 289.352 2006.61 297.917 Q2006.61 306.452 2010.54 310.995 Q2014.48 315.509 2021.88 315.509 Q2025.65 315.509 2028.97 314.149 Q2032.33 312.789 2035.28 310.04 L2035.28 316.146 Q2032.21 318.229 2028.77 319.271 Q2025.36 320.312 2021.54 320.312 Q2011.73 320.312 2006.09 314.323 Q2000.44 308.304 2000.44 297.917 Q2000.44 287.5 2006.09 281.51 Q2011.73 275.492 2021.54 275.492 Q2025.41 275.492 2028.83 276.534 Q2032.27 277.546 2035.28 279.601 Z" fill="#000000" fill-rule="evenodd" fill-opacity="1" /><path clip-path="url(#clip250)" d="M2062.86 292.043 Q2061.96 291.522 2060.89 291.29 Q2059.85 291.03 2058.57 291.03 Q2054.06 291.03 2051.63 293.981 Q2049.23 296.904 2049.23 302.402 L2049.23 319.473 L2043.88 319.473 L2043.88 287.066 L2049.23 287.066 L2049.23 292.101 Q2050.91 289.149 2053.6 287.731 Q2056.29 286.285 2060.14 286.285 Q2060.69 286.285 2061.35 286.372 Q2062.02 286.429 2062.83 286.574 L2062.86 292.043 Z" fill="#000000" fill-rule="evenodd" fill-opacity="1" /><path clip-path="url(#clip250)" d="M2068.44 287.066 L2073.77 287.066 L2073.77 319.473 L2068.44 319.473 L2068.44 287.066 M2068.44 274.45 L2073.77 274.45 L2073.77 281.192 L2068.44 281.192 L2068.44 274.45 Z" fill="#000000" fill-rule="evenodd" fill-opacity="1" /><path clip-path="url(#clip250)" d="M2090.17 277.865 L2090.17 287.066 L2101.14 287.066 L2101.14 291.204 L2090.17 291.204 L2090.17 308.796 Q2090.17 312.76 2091.24 313.889 Q2092.34 315.017 2095.67 315.017 L2101.14 315.017 L2101.14 319.473 L2095.67 319.473 Q2089.51 319.473 2087.16 317.187 Q2084.82 314.873 2084.82 308.796 L2084.82 291.204 L2080.91 291.204 L2080.91 287.066 L2084.82 287.066 L2084.82 277.865 L2090.17 277.865 Z" fill="#000000" fill-rule="evenodd" fill-opacity="1" /><path clip-path="url(#clip250)" d="M2108.14 287.066 L2113.46 287.066 L2113.46 319.473 L2108.14 319.473 L2108.14 287.066 M2108.14 274.45 L2113.46 274.45 L2113.46 281.192 L2108.14 281.192 L2108.14 274.45 Z" fill="#000000" fill-rule="evenodd" fill-opacity="1" /><path clip-path="url(#clip250)" d="M2147.93 288.31 L2147.93 293.287 Q2145.67 292.043 2143.38 291.435 Q2141.13 290.799 2138.81 290.799 Q2133.63 290.799 2130.77 294.097 Q2127.9 297.367 2127.9 303.299 Q2127.9 309.23 2130.77 312.529 Q2133.63 315.798 2138.81 315.798 Q2141.13 315.798 2143.38 315.191 Q2145.67 314.554 2147.93 313.31 L2147.93 318.229 Q2145.7 319.271 2143.3 319.791 Q2140.92 320.312 2138.23 320.312 Q2130.91 320.312 2126.6 315.712 Q2122.29 311.111 2122.29 303.299 Q2122.29 295.37 2126.63 290.828 Q2131 286.285 2138.58 286.285 Q2141.04 286.285 2143.38 286.806 Q2145.73 287.297 2147.93 288.31 Z" fill="#000000" fill-rule="evenodd" fill-opacity="1" /><path clip-path="url(#clip250)" d="M2171.91 303.183 Q2165.46 303.183 2162.97 304.658 Q2160.48 306.134 2160.48 309.693 Q2160.48 312.529 2162.34 314.207 Q2164.22 315.856 2167.43 315.856 Q2171.85 315.856 2174.52 312.731 Q2177.21 309.577 2177.21 304.369 L2177.21 303.183 L2171.91 303.183 M2182.53 300.984 L2182.53 319.473 L2177.21 319.473 L2177.21 314.554 Q2175.39 317.506 2172.67 318.923 Q2169.95 320.312 2166.01 320.312 Q2161.03 320.312 2158.08 317.535 Q2155.16 314.728 2155.16 310.04 Q2155.16 304.572 2158.81 301.794 Q2162.48 299.016 2169.74 299.016 L2177.21 299.016 L2177.21 298.495 Q2177.21 294.821 2174.78 292.824 Q2172.38 290.799 2168.01 290.799 Q2165.23 290.799 2162.6 291.464 Q2159.96 292.13 2157.53 293.461 L2157.53 288.542 Q2160.45 287.413 2163.2 286.863 Q2165.95 286.285 2168.56 286.285 Q2175.59 286.285 2179.06 289.931 Q2182.53 293.576 2182.53 300.984 Z" fill="#000000" fill-rule="evenodd" fill-opacity="1" /><path clip-path="url(#clip250)" d="M2193.5 274.45 L2198.82 274.45 L2198.82 319.473 L2193.5 319.473 L2193.5 274.45 Z" fill="#000000" fill-rule="evenodd" fill-opacity="1" /><path clip-path="url(#clip250)" d="M2233.95 314.612 L2233.95 331.8 L2228.6 331.8 L2228.6 287.066 L2233.95 287.066 L2233.95 291.985 Q2235.63 289.091 2238.17 287.703 Q2240.75 286.285 2244.31 286.285 Q2250.21 286.285 2253.89 290.972 Q2257.59 295.66 2257.59 303.299 Q2257.59 310.937 2253.89 315.625 Q2250.21 320.312 2244.31 320.312 Q2240.75 320.312 2238.17 318.923 Q2235.63 317.506 2233.95 314.612 M2252.06 303.299 Q2252.06 297.425 2249.63 294.097 Q2247.23 290.741 2243.01 290.741 Q2238.78 290.741 2236.35 294.097 Q2233.95 297.425 2233.95 303.299 Q2233.95 309.172 2236.35 312.529 Q2238.78 315.856 2243.01 315.856 Q2247.23 315.856 2249.63 312.529 Q2252.06 309.172 2252.06 303.299 Z" fill="#000000" fill-rule="evenodd" fill-opacity="1" /><path clip-path="url(#clip250)" d="M2278.97 290.799 Q2274.69 290.799 2272.2 294.155 Q2269.71 297.483 2269.71 303.299 Q2269.71 309.114 2272.17 312.471 Q2274.66 315.798 2278.97 315.798 Q2283.23 315.798 2285.71 312.442 Q2288.2 309.086 2288.2 303.299 Q2288.2 297.54 2285.71 294.184 Q2283.23 290.799 2278.97 290.799 M2278.97 286.285 Q2285.92 286.285 2289.88 290.799 Q2293.85 295.312 2293.85 303.299 Q2293.85 311.256 2289.88 315.798 Q2285.92 320.312 2278.97 320.312 Q2272 320.312 2268.03 315.798 Q2264.1 311.256 2264.1 303.299 Q2264.1 295.312 2268.03 290.799 Q2272 286.285 2278.97 286.285 Z" fill="#000000" fill-rule="evenodd" fill-opacity="1" /><path clip-path="url(#clip250)" d="M2302.67 287.066 L2307.99 287.066 L2307.99 319.473 L2302.67 319.473 L2302.67 287.066 M2302.67 274.45 L2307.99 274.45 L2307.99 281.192 L2302.67 281.192 L2302.67 274.45 Z" fill="#000000" fill-rule="evenodd" fill-opacity="1" /><path clip-path="url(#clip250)" d="M2346.07 299.913 L2346.07 319.473 L2340.75 319.473 L2340.75 300.087 Q2340.75 295.486 2338.95 293.2 Q2337.16 290.914 2333.57 290.914 Q2329.26 290.914 2326.77 293.663 Q2324.28 296.412 2324.28 301.157 L2324.28 319.473 L2318.93 319.473 L2318.93 287.066 L2324.28 287.066 L2324.28 292.101 Q2326.19 289.178 2328.77 287.731 Q2331.37 286.285 2334.76 286.285 Q2340.34 286.285 2343.21 289.757 Q2346.07 293.2 2346.07 299.913 Z" fill="#000000" fill-rule="evenodd" fill-opacity="1" /><path clip-path="url(#clip250)" d="M2361.96 277.865 L2361.96 287.066 L2372.92 287.066 L2372.92 291.204 L2361.96 291.204 L2361.96 308.796 Q2361.96 312.76 2363.03 313.889 Q2364.13 315.017 2367.46 315.017 L2372.92 315.017 L2372.92 319.473 L2367.46 319.473 Q2361.29 319.473 2358.95 317.187 Q2356.61 314.873 2356.61 308.796 L2356.61 291.204 L2352.7 291.204 L2352.7 287.066 L2356.61 287.066 L2356.61 277.865 L2361.96 277.865 Z" fill="#000000" fill-rule="evenodd" fill-opacity="1" /></svg>
