<?xml version="1.0" encoding="utf-8"?>
<svg xmlns="http://www.w3.org/2000/svg" xmlns:xlink="http://www.w3.org/1999/xlink" width="672" height="480" viewBox="0 0 2688 1920">
<defs>
  <clipPath id="clip320">
    <rect x="0" y="0" width="2688" height="1920"/>
  </clipPath>
</defs>
<path clip-path="url(#clip320)" d="M0 1920 L2688 1920 L2688 0 L0 0  Z" fill="#ffffff" fill-rule="evenodd" fill-opacity="1"/>
<defs>
  <clipPath id="clip321">
    <rect x="537" y="0" width="1883" height="1883"/>
  </clipPath>
</defs>
<path clip-path="url(#clip320)" d="M270.562 1734.12 L2640.76 1734.12 L2640.76 47.2441 L270.562 47.2441  Z" fill="#ffffff" fill-rule="evenodd" fill-opacity="1"/>
<defs>
  <clipPath id="clip322">
    <rect x="270" y="47" width="2371" height="1688"/>
  </clipPath>
</defs>
<polyline clip-path="url(#clip322)" style="stroke:#5f9ea0; stroke-linecap:round; stroke-linejoin:round; stroke-width:8; stroke-opacity:0.4; fill:none" stroke-dasharray="32, 16, 4, 16" points="448.169,1734.12 448.169,47.2441 "/>
<polyline clip-path="url(#clip322)" style="stroke:#5f9ea0; stroke-linecap:round; stroke-linejoin:round; stroke-width:8; stroke-opacity:0.4; fill:none" stroke-dasharray="32, 16, 4, 16" points="873.27,1734.12 873.27,47.2441 "/>
<polyline clip-path="url(#clip322)" style="stroke:#5f9ea0; stroke-linecap:round; stroke-linejoin:round; stroke-width:8; stroke-opacity:0.4; fill:none" stroke-dasharray="32, 16, 4, 16" points="1298.37,1734.12 1298.37,47.2441 "/>
<polyline clip-path="url(#clip322)" style="stroke:#5f9ea0; stroke-linecap:round; stroke-linejoin:round; stroke-width:8; stroke-opacity:0.4; fill:none" stroke-dasharray="32, 16, 4, 16" points="1723.47,1734.12 1723.47,47.2441 "/>
<polyline clip-path="url(#clip322)" style="stroke:#5f9ea0; stroke-linecap:round; stroke-linejoin:round; stroke-width:8; stroke-opacity:0.4; fill:none" stroke-dasharray="32, 16, 4, 16" points="2148.57,1734.12 2148.57,47.2441 "/>
<polyline clip-path="url(#clip322)" style="stroke:#5f9ea0; stroke-linecap:round; stroke-linejoin:round; stroke-width:8; stroke-opacity:0.4; fill:none" stroke-dasharray="32, 16, 4, 16" points="2573.67,1734.12 2573.67,47.2441 "/>
<polyline clip-path="url(#clip320)" style="stroke:#000000; stroke-linecap:round; stroke-linejoin:round; stroke-width:4; stroke-opacity:1; fill:none" points="270.562,1734.12 2640.76,1734.12 "/>
<polyline clip-path="url(#clip320)" style="stroke:#000000; stroke-linecap:round; stroke-linejoin:round; stroke-width:4; stroke-opacity:1; fill:none" points="270.562,47.2441 2640.76,47.2441 "/>
<polyline clip-path="url(#clip320)" style="stroke:#000000; stroke-linecap:round; stroke-linejoin:round; stroke-width:4; stroke-opacity:1; fill:none" points="448.169,1734.12 448.169,1715.22 "/>
<polyline clip-path="url(#clip320)" style="stroke:#000000; stroke-linecap:round; stroke-linejoin:round; stroke-width:4; stroke-opacity:1; fill:none" points="873.27,1734.12 873.27,1715.22 "/>
<polyline clip-path="url(#clip320)" style="stroke:#000000; stroke-linecap:round; stroke-linejoin:round; stroke-width:4; stroke-opacity:1; fill:none" points="1298.37,1734.12 1298.37,1715.22 "/>
<polyline clip-path="url(#clip320)" style="stroke:#000000; stroke-linecap:round; stroke-linejoin:round; stroke-width:4; stroke-opacity:1; fill:none" points="1723.47,1734.12 1723.47,1715.22 "/>
<polyline clip-path="url(#clip320)" style="stroke:#000000; stroke-linecap:round; stroke-linejoin:round; stroke-width:4; stroke-opacity:1; fill:none" points="2148.57,1734.12 2148.57,1715.22 "/>
<polyline clip-path="url(#clip320)" style="stroke:#000000; stroke-linecap:round; stroke-linejoin:round; stroke-width:4; stroke-opacity:1; fill:none" points="2573.67,1734.12 2573.67,1715.22 "/>
<path clip-path="url(#clip320)" d="M421.931 1780.19 Q425.287 1780.9 427.162 1783.17 Q429.06 1785.44 429.06 1788.77 Q429.06 1793.89 425.542 1796.69 Q422.023 1799.49 415.542 1799.49 Q413.366 1799.49 411.051 1799.05 Q408.759 1798.64 406.306 1797.78 L406.306 1793.27 Q408.25 1794.4 410.565 1794.98 Q412.88 1795.56 415.403 1795.56 Q419.801 1795.56 422.093 1793.82 Q424.407 1792.08 424.407 1788.77 Q424.407 1785.72 422.255 1784.01 Q420.125 1782.27 416.306 1782.27 L412.278 1782.27 L412.278 1778.43 L416.491 1778.43 Q419.94 1778.43 421.769 1777.06 Q423.597 1775.67 423.597 1773.08 Q423.597 1770.42 421.699 1769.01 Q419.824 1767.57 416.306 1767.57 Q414.384 1767.57 412.185 1767.99 Q409.986 1768.4 407.347 1769.28 L407.347 1765.12 Q410.009 1764.38 412.324 1764.01 Q414.662 1763.64 416.722 1763.64 Q422.046 1763.64 425.148 1766.07 Q428.25 1768.47 428.25 1772.59 Q428.25 1775.46 426.607 1777.46 Q424.963 1779.42 421.931 1780.19 Z" fill="#000000" fill-rule="evenodd" fill-opacity="1" /><path clip-path="url(#clip320)" d="M447.926 1767.34 Q444.315 1767.34 442.486 1770.9 Q440.681 1774.45 440.681 1781.58 Q440.681 1788.68 442.486 1792.25 Q444.315 1795.79 447.926 1795.79 Q451.56 1795.79 453.366 1792.25 Q455.194 1788.68 455.194 1781.58 Q455.194 1774.45 453.366 1770.9 Q451.56 1767.34 447.926 1767.34 M447.926 1763.64 Q453.736 1763.64 456.792 1768.24 Q459.87 1772.83 459.87 1781.58 Q459.87 1790.3 456.792 1794.91 Q453.736 1799.49 447.926 1799.49 Q442.116 1799.49 439.037 1794.91 Q435.981 1790.3 435.981 1781.58 Q435.981 1772.83 439.037 1768.24 Q442.116 1763.64 447.926 1763.64 Z" fill="#000000" fill-rule="evenodd" fill-opacity="1" /><path clip-path="url(#clip320)" d="M478.088 1767.34 Q474.477 1767.34 472.648 1770.9 Q470.842 1774.45 470.842 1781.58 Q470.842 1788.68 472.648 1792.25 Q474.477 1795.79 478.088 1795.79 Q481.722 1795.79 483.528 1792.25 Q485.356 1788.68 485.356 1781.58 Q485.356 1774.45 483.528 1770.9 Q481.722 1767.34 478.088 1767.34 M478.088 1763.64 Q483.898 1763.64 486.953 1768.24 Q490.032 1772.83 490.032 1781.58 Q490.032 1790.3 486.953 1794.91 Q483.898 1799.49 478.088 1799.49 Q472.278 1799.49 469.199 1794.91 Q466.143 1790.3 466.143 1781.58 Q466.143 1772.83 469.199 1768.24 Q472.278 1763.64 478.088 1763.64 Z" fill="#000000" fill-rule="evenodd" fill-opacity="1" /><path clip-path="url(#clip320)" d="M846.361 1768.34 L834.555 1786.78 L846.361 1786.78 L846.361 1768.34 M845.134 1764.26 L851.013 1764.26 L851.013 1786.78 L855.944 1786.78 L855.944 1790.67 L851.013 1790.67 L851.013 1798.82 L846.361 1798.82 L846.361 1790.67 L830.759 1790.67 L830.759 1786.16 L845.134 1764.26 Z" fill="#000000" fill-rule="evenodd" fill-opacity="1" /><path clip-path="url(#clip320)" d="M873.675 1767.34 Q870.064 1767.34 868.235 1770.9 Q866.43 1774.45 866.43 1781.58 Q866.43 1788.68 868.235 1792.25 Q870.064 1795.79 873.675 1795.79 Q877.309 1795.79 879.115 1792.25 Q880.944 1788.68 880.944 1781.58 Q880.944 1774.45 879.115 1770.9 Q877.309 1767.34 873.675 1767.34 M873.675 1763.64 Q879.485 1763.64 882.541 1768.24 Q885.62 1772.83 885.62 1781.58 Q885.62 1790.3 882.541 1794.91 Q879.485 1799.49 873.675 1799.49 Q867.865 1799.49 864.786 1794.91 Q861.731 1790.3 861.731 1781.58 Q861.731 1772.83 864.786 1768.24 Q867.865 1763.64 873.675 1763.64 Z" fill="#000000" fill-rule="evenodd" fill-opacity="1" /><path clip-path="url(#clip320)" d="M903.837 1767.34 Q900.226 1767.34 898.397 1770.9 Q896.592 1774.45 896.592 1781.58 Q896.592 1788.68 898.397 1792.25 Q900.226 1795.79 903.837 1795.79 Q907.471 1795.79 909.277 1792.25 Q911.106 1788.68 911.106 1781.58 Q911.106 1774.45 909.277 1770.9 Q907.471 1767.34 903.837 1767.34 M903.837 1763.64 Q909.647 1763.64 912.703 1768.24 Q915.781 1772.83 915.781 1781.58 Q915.781 1790.3 912.703 1794.91 Q909.647 1799.49 903.837 1799.49 Q898.027 1799.49 894.948 1794.91 Q891.893 1790.3 891.893 1781.58 Q891.893 1772.83 894.948 1768.24 Q898.027 1763.64 903.837 1763.64 Z" fill="#000000" fill-rule="evenodd" fill-opacity="1" /><path clip-path="url(#clip320)" d="M1257.99 1764.26 L1276.35 1764.26 L1276.35 1768.2 L1262.27 1768.2 L1262.27 1776.67 Q1263.29 1776.32 1264.31 1776.16 Q1265.33 1775.97 1266.35 1775.97 Q1272.13 1775.97 1275.51 1779.15 Q1278.89 1782.32 1278.89 1787.73 Q1278.89 1793.31 1275.42 1796.41 Q1271.95 1799.49 1265.63 1799.49 Q1263.45 1799.49 1261.18 1799.12 Q1258.94 1798.75 1256.53 1798.01 L1256.53 1793.31 Q1258.61 1794.45 1260.84 1795 Q1263.06 1795.56 1265.54 1795.56 Q1269.54 1795.56 1271.88 1793.45 Q1274.22 1791.34 1274.22 1787.73 Q1274.22 1784.12 1271.88 1782.02 Q1269.54 1779.91 1265.54 1779.91 Q1263.66 1779.91 1261.79 1780.33 Q1259.93 1780.74 1257.99 1781.62 L1257.99 1764.26 Z" fill="#000000" fill-rule="evenodd" fill-opacity="1" /><path clip-path="url(#clip320)" d="M1298.11 1767.34 Q1294.49 1767.34 1292.67 1770.9 Q1290.86 1774.45 1290.86 1781.58 Q1290.86 1788.68 1292.67 1792.25 Q1294.49 1795.79 1298.11 1795.79 Q1301.74 1795.79 1303.54 1792.25 Q1305.37 1788.68 1305.37 1781.58 Q1305.37 1774.45 1303.54 1770.9 Q1301.74 1767.34 1298.11 1767.34 M1298.11 1763.64 Q1303.92 1763.64 1306.97 1768.24 Q1310.05 1772.83 1310.05 1781.58 Q1310.05 1790.3 1306.97 1794.91 Q1303.92 1799.49 1298.11 1799.49 Q1292.29 1799.49 1289.22 1794.91 Q1286.16 1790.3 1286.16 1781.58 Q1286.16 1772.83 1289.22 1768.24 Q1292.29 1763.64 1298.11 1763.64 Z" fill="#000000" fill-rule="evenodd" fill-opacity="1" /><path clip-path="url(#clip320)" d="M1328.27 1767.34 Q1324.66 1767.34 1322.83 1770.9 Q1321.02 1774.45 1321.02 1781.58 Q1321.02 1788.68 1322.83 1792.25 Q1324.66 1795.79 1328.27 1795.79 Q1331.9 1795.79 1333.71 1792.25 Q1335.54 1788.68 1335.54 1781.58 Q1335.54 1774.45 1333.71 1770.9 Q1331.9 1767.34 1328.27 1767.34 M1328.27 1763.64 Q1334.08 1763.64 1337.13 1768.24 Q1340.21 1772.83 1340.21 1781.58 Q1340.21 1790.3 1337.13 1794.91 Q1334.08 1799.49 1328.27 1799.49 Q1322.46 1799.49 1319.38 1794.91 Q1316.32 1790.3 1316.32 1781.58 Q1316.32 1772.83 1319.38 1768.24 Q1322.46 1763.64 1328.27 1763.64 Z" fill="#000000" fill-rule="evenodd" fill-opacity="1" /><path clip-path="url(#clip320)" d="M1693.8 1779.68 Q1690.65 1779.68 1688.8 1781.83 Q1686.97 1783.98 1686.97 1787.73 Q1686.97 1791.46 1688.8 1793.64 Q1690.65 1795.79 1693.8 1795.79 Q1696.94 1795.79 1698.77 1793.64 Q1700.63 1791.46 1700.63 1787.73 Q1700.63 1783.98 1698.77 1781.83 Q1696.94 1779.68 1693.8 1779.68 M1703.08 1765.02 L1703.08 1769.28 Q1701.32 1768.45 1699.51 1768.01 Q1697.73 1767.57 1695.97 1767.57 Q1691.34 1767.57 1688.89 1770.7 Q1686.46 1773.82 1686.11 1780.14 Q1687.48 1778.13 1689.54 1777.06 Q1691.6 1775.97 1694.07 1775.97 Q1699.28 1775.97 1702.29 1779.15 Q1705.32 1782.29 1705.32 1787.73 Q1705.32 1793.06 1702.18 1796.27 Q1699.03 1799.49 1693.8 1799.49 Q1687.8 1799.49 1684.63 1794.91 Q1681.46 1790.3 1681.46 1781.58 Q1681.46 1773.38 1685.35 1768.52 Q1689.24 1763.64 1695.79 1763.64 Q1697.55 1763.64 1699.33 1763.98 Q1701.13 1764.33 1703.08 1765.02 Z" fill="#000000" fill-rule="evenodd" fill-opacity="1" /><path clip-path="url(#clip320)" d="M1723.38 1767.34 Q1719.77 1767.34 1717.94 1770.9 Q1716.13 1774.45 1716.13 1781.58 Q1716.13 1788.68 1717.94 1792.25 Q1719.77 1795.79 1723.38 1795.79 Q1727.01 1795.79 1728.82 1792.25 Q1730.65 1788.68 1730.65 1781.58 Q1730.65 1774.45 1728.82 1770.9 Q1727.01 1767.34 1723.38 1767.34 M1723.38 1763.64 Q1729.19 1763.64 1732.25 1768.24 Q1735.32 1772.83 1735.32 1781.58 Q1735.32 1790.3 1732.25 1794.91 Q1729.19 1799.49 1723.38 1799.49 Q1717.57 1799.49 1714.49 1794.91 Q1711.44 1790.3 1711.44 1781.58 Q1711.44 1772.83 1714.49 1768.24 Q1717.57 1763.64 1723.38 1763.64 Z" fill="#000000" fill-rule="evenodd" fill-opacity="1" /><path clip-path="url(#clip320)" d="M1753.54 1767.34 Q1749.93 1767.34 1748.1 1770.9 Q1746.3 1774.45 1746.3 1781.58 Q1746.3 1788.68 1748.1 1792.25 Q1749.93 1795.79 1753.54 1795.79 Q1757.18 1795.79 1758.98 1792.25 Q1760.81 1788.68 1760.81 1781.58 Q1760.81 1774.45 1758.98 1770.9 Q1757.18 1767.34 1753.54 1767.34 M1753.54 1763.64 Q1759.35 1763.64 1762.41 1768.24 Q1765.49 1772.83 1765.49 1781.58 Q1765.49 1790.3 1762.41 1794.91 Q1759.35 1799.49 1753.54 1799.49 Q1747.73 1799.49 1744.65 1794.91 Q1741.6 1790.3 1741.6 1781.58 Q1741.6 1772.83 1744.65 1768.24 Q1747.73 1763.64 1753.54 1763.64 Z" fill="#000000" fill-rule="evenodd" fill-opacity="1" /><path clip-path="url(#clip320)" d="M2106.85 1764.26 L2129.07 1764.26 L2129.07 1766.25 L2116.53 1798.82 L2111.64 1798.82 L2123.45 1768.2 L2106.85 1768.2 L2106.85 1764.26 Z" fill="#000000" fill-rule="evenodd" fill-opacity="1" /><path clip-path="url(#clip320)" d="M2148.19 1767.34 Q2144.58 1767.34 2142.75 1770.9 Q2140.95 1774.45 2140.95 1781.58 Q2140.95 1788.68 2142.75 1792.25 Q2144.58 1795.79 2148.19 1795.79 Q2151.83 1795.79 2153.63 1792.25 Q2155.46 1788.68 2155.46 1781.58 Q2155.46 1774.45 2153.63 1770.9 Q2151.83 1767.34 2148.19 1767.34 M2148.19 1763.64 Q2154 1763.64 2157.06 1768.24 Q2160.14 1772.83 2160.14 1781.58 Q2160.14 1790.3 2157.06 1794.91 Q2154 1799.49 2148.19 1799.49 Q2142.38 1799.49 2139.3 1794.91 Q2136.25 1790.3 2136.25 1781.58 Q2136.25 1772.83 2139.3 1768.24 Q2142.38 1763.64 2148.19 1763.64 Z" fill="#000000" fill-rule="evenodd" fill-opacity="1" /><path clip-path="url(#clip320)" d="M2178.35 1767.34 Q2174.74 1767.34 2172.91 1770.9 Q2171.11 1774.45 2171.11 1781.58 Q2171.11 1788.68 2172.91 1792.25 Q2174.74 1795.79 2178.35 1795.79 Q2181.99 1795.79 2183.79 1792.25 Q2185.62 1788.68 2185.62 1781.58 Q2185.62 1774.45 2183.79 1770.9 Q2181.99 1767.34 2178.35 1767.34 M2178.35 1763.64 Q2184.16 1763.64 2187.22 1768.24 Q2190.3 1772.83 2190.3 1781.58 Q2190.3 1790.3 2187.22 1794.91 Q2184.16 1799.49 2178.35 1799.49 Q2172.54 1799.49 2169.46 1794.91 Q2166.41 1790.3 2166.41 1781.58 Q2166.41 1772.83 2169.46 1768.24 Q2172.54 1763.64 2178.35 1763.64 Z" fill="#000000" fill-rule="evenodd" fill-opacity="1" /><path clip-path="url(#clip320)" d="M2543.47 1782.41 Q2540.13 1782.41 2538.21 1784.19 Q2536.31 1785.97 2536.31 1789.1 Q2536.31 1792.22 2538.21 1794.01 Q2540.13 1795.79 2543.47 1795.79 Q2546.8 1795.79 2548.72 1794.01 Q2550.64 1792.2 2550.64 1789.1 Q2550.64 1785.97 2548.72 1784.19 Q2546.82 1782.41 2543.47 1782.41 M2538.79 1780.42 Q2535.78 1779.68 2534.09 1777.62 Q2532.43 1775.56 2532.43 1772.59 Q2532.43 1768.45 2535.36 1766.04 Q2538.33 1763.64 2543.47 1763.64 Q2548.63 1763.64 2551.57 1766.04 Q2554.51 1768.45 2554.51 1772.59 Q2554.51 1775.56 2552.82 1777.62 Q2551.15 1779.68 2548.17 1780.42 Q2551.55 1781.21 2553.42 1783.5 Q2555.32 1785.79 2555.32 1789.1 Q2555.32 1794.12 2552.24 1796.81 Q2549.18 1799.49 2543.47 1799.49 Q2537.75 1799.49 2534.67 1796.81 Q2531.61 1794.12 2531.61 1789.1 Q2531.61 1785.79 2533.51 1783.5 Q2535.41 1781.21 2538.79 1780.42 M2537.08 1773.03 Q2537.08 1775.72 2538.74 1777.22 Q2540.43 1778.73 2543.47 1778.73 Q2546.48 1778.73 2548.17 1777.22 Q2549.88 1775.72 2549.88 1773.03 Q2549.88 1770.35 2548.17 1768.84 Q2546.48 1767.34 2543.47 1767.34 Q2540.43 1767.34 2538.74 1768.84 Q2537.08 1770.35 2537.08 1773.03 Z" fill="#000000" fill-rule="evenodd" fill-opacity="1" /><path clip-path="url(#clip320)" d="M2573.63 1767.34 Q2570.02 1767.34 2568.19 1770.9 Q2566.38 1774.45 2566.38 1781.58 Q2566.38 1788.68 2568.19 1792.25 Q2570.02 1795.79 2573.63 1795.79 Q2577.26 1795.79 2579.07 1792.25 Q2580.9 1788.68 2580.9 1781.58 Q2580.9 1774.45 2579.07 1770.9 Q2577.26 1767.34 2573.63 1767.34 M2573.63 1763.64 Q2579.44 1763.64 2582.49 1768.24 Q2585.57 1772.83 2585.57 1781.58 Q2585.57 1790.3 2582.49 1794.91 Q2579.44 1799.49 2573.63 1799.49 Q2567.82 1799.49 2564.74 1794.91 Q2561.68 1790.3 2561.68 1781.58 Q2561.68 1772.83 2564.74 1768.24 Q2567.82 1763.64 2573.63 1763.64 Z" fill="#000000" fill-rule="evenodd" fill-opacity="1" /><path clip-path="url(#clip320)" d="M2603.79 1767.34 Q2600.18 1767.34 2598.35 1770.9 Q2596.55 1774.45 2596.55 1781.58 Q2596.55 1788.68 2598.35 1792.25 Q2600.18 1795.79 2603.79 1795.79 Q2607.42 1795.79 2609.23 1792.25 Q2611.06 1788.68 2611.06 1781.58 Q2611.06 1774.45 2609.23 1770.9 Q2607.42 1767.34 2603.79 1767.34 M2603.79 1763.64 Q2609.6 1763.64 2612.66 1768.24 Q2615.73 1772.83 2615.73 1781.58 Q2615.73 1790.3 2612.66 1794.91 Q2609.6 1799.49 2603.79 1799.49 Q2597.98 1799.49 2594.9 1794.91 Q2591.85 1790.3 2591.85 1781.58 Q2591.85 1772.83 2594.9 1768.24 Q2597.98 1763.64 2603.79 1763.64 Z" fill="#000000" fill-rule="evenodd" fill-opacity="1" /><path clip-path="url(#clip320)" d="M1194.74 1835.78 L1234.94 1835.78 L1234.94 1841.19 L1218.07 1841.19 L1218.07 1883.3 L1211.61 1883.3 L1211.61 1841.19 L1194.74 1841.19 L1194.74 1835.78 Z" fill="#000000" fill-rule="evenodd" fill-opacity="1" /><path clip-path="url(#clip320)" d="M1260.31 1864.01 L1260.31 1866.88 L1233.38 1866.88 Q1233.77 1872.92 1237.01 1876.11 Q1240.29 1879.26 1246.12 1879.26 Q1249.49 1879.26 1252.64 1878.43 Q1255.82 1877.6 1258.94 1875.95 L1258.94 1881.49 Q1255.79 1882.82 1252.48 1883.52 Q1249.17 1884.22 1245.77 1884.22 Q1237.24 1884.22 1232.24 1879.26 Q1227.27 1874.29 1227.27 1865.83 Q1227.27 1857.07 1231.98 1851.95 Q1236.73 1846.79 1244.75 1846.79 Q1251.94 1846.79 1256.11 1851.44 Q1260.31 1856.06 1260.31 1864.01 M1254.45 1862.29 Q1254.39 1857.49 1251.75 1854.62 Q1249.14 1851.76 1244.81 1851.76 Q1239.91 1851.76 1236.95 1854.53 Q1234.02 1857.3 1233.58 1862.33 L1254.45 1862.29 Z" fill="#000000" fill-rule="evenodd" fill-opacity="1" /><path clip-path="url(#clip320)" d="M1297.68 1854.5 Q1299.87 1850.55 1302.93 1848.67 Q1305.99 1846.79 1310.12 1846.79 Q1315.69 1846.79 1318.72 1850.71 Q1321.74 1854.59 1321.74 1861.78 L1321.74 1883.3 L1315.85 1883.3 L1315.85 1861.98 Q1315.85 1856.85 1314.04 1854.37 Q1312.22 1851.89 1308.5 1851.89 Q1303.95 1851.89 1301.31 1854.91 Q1298.66 1857.93 1298.66 1863.15 L1298.66 1883.3 L1292.78 1883.3 L1292.78 1861.98 Q1292.78 1856.82 1290.96 1854.37 Q1289.15 1851.89 1285.36 1851.89 Q1280.87 1851.89 1278.23 1854.94 Q1275.59 1857.97 1275.59 1863.15 L1275.59 1883.3 L1269.7 1883.3 L1269.7 1847.65 L1275.59 1847.65 L1275.59 1853.19 Q1277.59 1849.91 1280.39 1848.35 Q1283.2 1846.79 1287.05 1846.79 Q1290.93 1846.79 1293.64 1848.77 Q1296.37 1850.74 1297.68 1854.5 Z" fill="#000000" fill-rule="evenodd" fill-opacity="1" /><path clip-path="url(#clip320)" d="M1339.09 1877.95 L1339.09 1896.86 L1333.2 1896.86 L1333.2 1847.65 L1339.09 1847.65 L1339.09 1853.06 Q1340.93 1849.88 1343.73 1848.35 Q1346.57 1846.79 1350.48 1846.79 Q1356.97 1846.79 1361.02 1851.95 Q1365.09 1857.11 1365.09 1865.51 Q1365.09 1873.91 1361.02 1879.07 Q1356.97 1884.22 1350.48 1884.22 Q1346.57 1884.22 1343.73 1882.7 Q1340.93 1881.14 1339.09 1877.95 M1359.01 1865.51 Q1359.01 1859.05 1356.34 1855.39 Q1353.7 1851.7 1349.05 1851.7 Q1344.4 1851.7 1341.73 1855.39 Q1339.09 1859.05 1339.09 1865.51 Q1339.09 1871.97 1341.73 1875.66 Q1344.4 1879.32 1349.05 1879.32 Q1353.7 1879.32 1356.34 1875.66 Q1359.01 1871.97 1359.01 1865.51 Z" fill="#000000" fill-rule="evenodd" fill-opacity="1" /><path clip-path="url(#clip320)" d="M1405.29 1864.01 L1405.29 1866.88 L1378.36 1866.88 Q1378.75 1872.92 1381.99 1876.11 Q1385.27 1879.26 1391.09 1879.26 Q1394.47 1879.26 1397.62 1878.43 Q1400.8 1877.6 1403.92 1875.95 L1403.92 1881.49 Q1400.77 1882.82 1397.46 1883.52 Q1394.15 1884.22 1390.74 1884.22 Q1382.21 1884.22 1377.22 1879.26 Q1372.25 1874.29 1372.25 1865.83 Q1372.25 1857.07 1376.96 1851.95 Q1381.71 1846.79 1389.73 1846.79 Q1396.92 1846.79 1401.09 1851.44 Q1405.29 1856.06 1405.29 1864.01 M1399.43 1862.29 Q1399.37 1857.49 1396.73 1854.62 Q1394.12 1851.76 1389.79 1851.76 Q1384.89 1851.76 1381.93 1854.53 Q1379 1857.3 1378.55 1862.33 L1399.43 1862.29 Z" fill="#000000" fill-rule="evenodd" fill-opacity="1" /><path clip-path="url(#clip320)" d="M1435.56 1853.13 Q1434.57 1852.55 1433.39 1852.3 Q1432.25 1852.01 1430.85 1852.01 Q1425.88 1852.01 1423.21 1855.26 Q1420.57 1858.47 1420.57 1864.52 L1420.57 1883.3 L1414.68 1883.3 L1414.68 1847.65 L1420.57 1847.65 L1420.57 1853.19 Q1422.41 1849.94 1425.37 1848.39 Q1428.33 1846.79 1432.57 1846.79 Q1433.17 1846.79 1433.9 1846.89 Q1434.64 1846.95 1435.53 1847.11 L1435.56 1853.13 Z" fill="#000000" fill-rule="evenodd" fill-opacity="1" /><path clip-path="url(#clip320)" d="M1457.9 1865.38 Q1450.8 1865.38 1448.07 1867 Q1445.33 1868.63 1445.33 1872.54 Q1445.33 1875.66 1447.37 1877.51 Q1449.44 1879.32 1452.97 1879.32 Q1457.84 1879.32 1460.77 1875.88 Q1463.73 1872.42 1463.73 1866.69 L1463.73 1865.38 L1457.9 1865.38 M1469.58 1862.96 L1469.58 1883.3 L1463.73 1883.3 L1463.73 1877.89 Q1461.72 1881.14 1458.73 1882.7 Q1455.74 1884.22 1451.41 1884.22 Q1445.94 1884.22 1442.69 1881.17 Q1439.47 1878.08 1439.47 1872.92 Q1439.47 1866.91 1443.48 1863.85 Q1447.53 1860.8 1455.52 1860.8 L1463.73 1860.8 L1463.73 1860.23 Q1463.73 1856.18 1461.05 1853.99 Q1458.41 1851.76 1453.61 1851.76 Q1450.55 1851.76 1447.65 1852.49 Q1444.76 1853.22 1442.08 1854.69 L1442.08 1849.28 Q1445.3 1848.03 1448.32 1847.43 Q1451.35 1846.79 1454.21 1846.79 Q1461.94 1846.79 1465.76 1850.8 Q1469.58 1854.81 1469.58 1862.96 Z" fill="#000000" fill-rule="evenodd" fill-opacity="1" /><path clip-path="url(#clip320)" d="M1487.44 1837.53 L1487.44 1847.65 L1499.5 1847.65 L1499.5 1852.2 L1487.44 1852.2 L1487.44 1871.56 Q1487.44 1875.92 1488.62 1877.16 Q1489.83 1878.4 1493.49 1878.4 L1499.5 1878.4 L1499.5 1883.3 L1493.49 1883.3 Q1486.71 1883.3 1484.13 1880.79 Q1481.55 1878.24 1481.55 1871.56 L1481.55 1852.2 L1477.25 1852.2 L1477.25 1847.65 L1481.55 1847.65 L1481.55 1837.53 L1487.44 1837.53 Z" fill="#000000" fill-rule="evenodd" fill-opacity="1" /><path clip-path="url(#clip320)" d="M1506.6 1869.23 L1506.6 1847.65 L1512.46 1847.65 L1512.46 1869.01 Q1512.46 1874.07 1514.43 1876.62 Q1516.4 1879.13 1520.35 1879.13 Q1525.09 1879.13 1527.83 1876.11 Q1530.6 1873.08 1530.6 1867.86 L1530.6 1847.65 L1536.46 1847.65 L1536.46 1883.3 L1530.6 1883.3 L1530.6 1877.83 Q1528.47 1881.07 1525.63 1882.66 Q1522.83 1884.22 1519.11 1884.22 Q1512.97 1884.22 1509.78 1880.4 Q1506.6 1876.59 1506.6 1869.23 M1521.34 1846.79 L1521.34 1846.79 Z" fill="#000000" fill-rule="evenodd" fill-opacity="1" /><path clip-path="url(#clip320)" d="M1569.18 1853.13 Q1568.19 1852.55 1567.01 1852.3 Q1565.87 1852.01 1564.46 1852.01 Q1559.5 1852.01 1556.83 1855.26 Q1554.18 1858.47 1554.18 1864.52 L1554.18 1883.3 L1548.3 1883.3 L1548.3 1847.65 L1554.18 1847.65 L1554.18 1853.19 Q1556.03 1849.94 1558.99 1848.39 Q1561.95 1846.79 1566.18 1846.79 Q1566.79 1846.79 1567.52 1846.89 Q1568.25 1846.95 1569.14 1847.11 L1569.18 1853.13 Z" fill="#000000" fill-rule="evenodd" fill-opacity="1" /><path clip-path="url(#clip320)" d="M1604.38 1864.01 L1604.38 1866.88 L1577.45 1866.88 Q1577.83 1872.92 1581.08 1876.11 Q1584.36 1879.26 1590.18 1879.26 Q1593.56 1879.26 1596.71 1878.43 Q1599.89 1877.6 1603.01 1875.95 L1603.01 1881.49 Q1599.86 1882.82 1596.55 1883.52 Q1593.24 1884.22 1589.83 1884.22 Q1581.3 1884.22 1576.3 1879.26 Q1571.34 1874.29 1571.34 1865.83 Q1571.34 1857.07 1576.05 1851.95 Q1580.79 1846.79 1588.81 1846.79 Q1596.01 1846.79 1600.18 1851.44 Q1604.38 1856.06 1604.38 1864.01 M1598.52 1862.29 Q1598.46 1857.49 1595.82 1854.62 Q1593.21 1851.76 1588.88 1851.76 Q1583.98 1851.76 1581.02 1854.53 Q1578.09 1857.3 1577.64 1862.33 L1598.52 1862.29 Z" fill="#000000" fill-rule="evenodd" fill-opacity="1" /><path clip-path="url(#clip320)" d="M1634.17 1833.78 L1647.66 1833.78 L1647.66 1838.33 L1640.03 1838.33 L1640.03 1887.34 L1647.66 1887.34 L1647.66 1891.89 L1634.17 1891.89 L1634.17 1833.78 Z" fill="#000000" fill-rule="evenodd" fill-opacity="1" /><path clip-path="url(#clip320)" d="M1660.4 1835.78 L1666.83 1835.78 L1666.83 1855.86 L1688.15 1835.78 L1696.43 1835.78 L1672.84 1857.93 L1698.11 1883.3 L1689.65 1883.3 L1666.83 1860.42 L1666.83 1883.3 L1660.4 1883.3 L1660.4 1835.78 Z" fill="#000000" fill-rule="evenodd" fill-opacity="1" /><path clip-path="url(#clip320)" d="M1716.57 1833.78 L1716.57 1891.89 L1703.08 1891.89 L1703.08 1887.34 L1710.68 1887.34 L1710.68 1838.33 L1703.08 1838.33 L1703.08 1833.78 L1716.57 1833.78 Z" fill="#000000" fill-rule="evenodd" fill-opacity="1" /><polyline clip-path="url(#clip322)" style="stroke:#5f9ea0; stroke-linecap:round; stroke-linejoin:round; stroke-width:8; stroke-opacity:0.4; fill:none" stroke-dasharray="32, 16, 4, 16" points="270.562,1692.69 2640.76,1692.69 "/>
<polyline clip-path="url(#clip322)" style="stroke:#5f9ea0; stroke-linecap:round; stroke-linejoin:round; stroke-width:8; stroke-opacity:0.4; fill:none" stroke-dasharray="32, 16, 4, 16" points="270.562,1228.74 2640.76,1228.74 "/>
<polyline clip-path="url(#clip322)" style="stroke:#5f9ea0; stroke-linecap:round; stroke-linejoin:round; stroke-width:8; stroke-opacity:0.4; fill:none" stroke-dasharray="32, 16, 4, 16" points="270.562,764.79 2640.76,764.79 "/>
<polyline clip-path="url(#clip322)" style="stroke:#5f9ea0; stroke-linecap:round; stroke-linejoin:round; stroke-width:8; stroke-opacity:0.4; fill:none" stroke-dasharray="32, 16, 4, 16" points="270.562,300.839 2640.76,300.839 "/>
<polyline clip-path="url(#clip320)" style="stroke:#000000; stroke-linecap:round; stroke-linejoin:round; stroke-width:4; stroke-opacity:1; fill:none" points="270.562,1734.12 270.562,47.2441 "/>
<polyline clip-path="url(#clip320)" style="stroke:#000000; stroke-linecap:round; stroke-linejoin:round; stroke-width:4; stroke-opacity:1; fill:none" points="2640.76,1734.12 2640.76,47.2441 "/>
<polyline clip-path="url(#clip320)" style="stroke:#000000; stroke-linecap:round; stroke-linejoin:round; stroke-width:4; stroke-opacity:1; fill:none" points="270.562,1692.69 289.459,1692.69 "/>
<polyline clip-path="url(#clip320)" style="stroke:#000000; stroke-linecap:round; stroke-linejoin:round; stroke-width:4; stroke-opacity:1; fill:none" points="270.562,1228.74 289.459,1228.74 "/>
<polyline clip-path="url(#clip320)" style="stroke:#000000; stroke-linecap:round; stroke-linejoin:round; stroke-width:4; stroke-opacity:1; fill:none" points="270.562,764.79 289.459,764.79 "/>
<polyline clip-path="url(#clip320)" style="stroke:#000000; stroke-linecap:round; stroke-linejoin:round; stroke-width:4; stroke-opacity:1; fill:none" points="270.562,300.839 289.459,300.839 "/>
<path clip-path="url(#clip320)" d="M218.297 1678.49 Q214.686 1678.49 212.857 1682.06 Q211.052 1685.6 211.052 1692.73 Q211.052 1699.83 212.857 1703.4 Q214.686 1706.94 218.297 1706.94 Q221.931 1706.94 223.737 1703.4 Q225.566 1699.83 225.566 1692.73 Q225.566 1685.6 223.737 1682.06 Q221.931 1678.49 218.297 1678.49 M218.297 1674.79 Q224.107 1674.79 227.163 1679.39 Q230.242 1683.98 230.242 1692.73 Q230.242 1701.45 227.163 1706.06 Q224.107 1710.64 218.297 1710.64 Q212.487 1710.64 209.408 1706.06 Q206.353 1701.45 206.353 1692.73 Q206.353 1683.98 209.408 1679.39 Q212.487 1674.79 218.297 1674.79 Z" fill="#000000" fill-rule="evenodd" fill-opacity="1" /><path clip-path="url(#clip320)" d="M118.622 1242.09 L126.261 1242.09 L126.261 1215.72 L117.951 1217.39 L117.951 1213.13 L126.214 1211.46 L130.89 1211.46 L130.89 1242.09 L138.529 1242.09 L138.529 1246.02 L118.622 1246.02 L118.622 1242.09 Z" fill="#000000" fill-rule="evenodd" fill-opacity="1" /><path clip-path="url(#clip320)" d="M157.973 1214.54 Q154.362 1214.54 152.534 1218.1 Q150.728 1221.65 150.728 1228.78 Q150.728 1235.88 152.534 1239.45 Q154.362 1242.99 157.973 1242.99 Q161.608 1242.99 163.413 1239.45 Q165.242 1235.88 165.242 1228.78 Q165.242 1221.65 163.413 1218.1 Q161.608 1214.54 157.973 1214.54 M157.973 1210.84 Q163.784 1210.84 166.839 1215.44 Q169.918 1220.03 169.918 1228.78 Q169.918 1237.5 166.839 1242.11 Q163.784 1246.69 157.973 1246.69 Q152.163 1246.69 149.085 1242.11 Q146.029 1237.5 146.029 1228.78 Q146.029 1220.03 149.085 1215.44 Q152.163 1210.84 157.973 1210.84 Z" fill="#000000" fill-rule="evenodd" fill-opacity="1" /><path clip-path="url(#clip320)" d="M188.135 1214.54 Q184.524 1214.54 182.696 1218.1 Q180.89 1221.65 180.89 1228.78 Q180.89 1235.88 182.696 1239.45 Q184.524 1242.99 188.135 1242.99 Q191.77 1242.99 193.575 1239.45 Q195.404 1235.88 195.404 1228.78 Q195.404 1221.65 193.575 1218.1 Q191.77 1214.54 188.135 1214.54 M188.135 1210.84 Q193.946 1210.84 197.001 1215.44 Q200.08 1220.03 200.08 1228.78 Q200.08 1237.5 197.001 1242.11 Q193.946 1246.69 188.135 1246.69 Q182.325 1246.69 179.247 1242.11 Q176.191 1237.5 176.191 1228.78 Q176.191 1220.03 179.247 1215.44 Q182.325 1210.84 188.135 1210.84 Z" fill="#000000" fill-rule="evenodd" fill-opacity="1" /><path clip-path="url(#clip320)" d="M218.297 1214.54 Q214.686 1214.54 212.857 1218.1 Q211.052 1221.65 211.052 1228.78 Q211.052 1235.88 212.857 1239.45 Q214.686 1242.99 218.297 1242.99 Q221.931 1242.99 223.737 1239.45 Q225.566 1235.88 225.566 1228.78 Q225.566 1221.65 223.737 1218.1 Q221.931 1214.54 218.297 1214.54 M218.297 1210.84 Q224.107 1210.84 227.163 1215.44 Q230.242 1220.03 230.242 1228.78 Q230.242 1237.5 227.163 1242.11 Q224.107 1246.69 218.297 1246.69 Q212.487 1246.69 209.408 1242.11 Q206.353 1237.5 206.353 1228.78 Q206.353 1220.03 209.408 1215.44 Q212.487 1210.84 218.297 1210.84 Z" fill="#000000" fill-rule="evenodd" fill-opacity="1" /><path clip-path="url(#clip320)" d="M121.839 778.135 L138.159 778.135 L138.159 782.07 L116.214 782.07 L116.214 778.135 Q118.876 775.38 123.46 770.751 Q128.066 766.098 129.247 764.755 Q131.492 762.232 132.372 760.496 Q133.275 758.737 133.275 757.047 Q133.275 754.292 131.33 752.556 Q129.409 750.82 126.307 750.82 Q124.108 750.82 121.654 751.584 Q119.224 752.348 116.446 753.899 L116.446 749.177 Q119.27 748.042 121.724 747.464 Q124.177 746.885 126.214 746.885 Q131.585 746.885 134.779 749.57 Q137.974 752.255 137.974 756.746 Q137.974 758.876 137.163 760.797 Q136.376 762.695 134.27 765.288 Q133.691 765.959 130.589 769.177 Q127.488 772.371 121.839 778.135 Z" fill="#000000" fill-rule="evenodd" fill-opacity="1" /><path clip-path="url(#clip320)" d="M157.973 750.589 Q154.362 750.589 152.534 754.153 Q150.728 757.695 150.728 764.825 Q150.728 771.931 152.534 775.496 Q154.362 779.038 157.973 779.038 Q161.608 779.038 163.413 775.496 Q165.242 771.931 165.242 764.825 Q165.242 757.695 163.413 754.153 Q161.608 750.589 157.973 750.589 M157.973 746.885 Q163.784 746.885 166.839 751.491 Q169.918 756.075 169.918 764.825 Q169.918 773.551 166.839 778.158 Q163.784 782.741 157.973 782.741 Q152.163 782.741 149.085 778.158 Q146.029 773.551 146.029 764.825 Q146.029 756.075 149.085 751.491 Q152.163 746.885 157.973 746.885 Z" fill="#000000" fill-rule="evenodd" fill-opacity="1" /><path clip-path="url(#clip320)" d="M188.135 750.589 Q184.524 750.589 182.696 754.153 Q180.89 757.695 180.89 764.825 Q180.89 771.931 182.696 775.496 Q184.524 779.038 188.135 779.038 Q191.77 779.038 193.575 775.496 Q195.404 771.931 195.404 764.825 Q195.404 757.695 193.575 754.153 Q191.77 750.589 188.135 750.589 M188.135 746.885 Q193.946 746.885 197.001 751.491 Q200.08 756.075 200.08 764.825 Q200.08 773.551 197.001 778.158 Q193.946 782.741 188.135 782.741 Q182.325 782.741 179.247 778.158 Q176.191 773.551 176.191 764.825 Q176.191 756.075 179.247 751.491 Q182.325 746.885 188.135 746.885 Z" fill="#000000" fill-rule="evenodd" fill-opacity="1" /><path clip-path="url(#clip320)" d="M218.297 750.589 Q214.686 750.589 212.857 754.153 Q211.052 757.695 211.052 764.825 Q211.052 771.931 212.857 775.496 Q214.686 779.038 218.297 779.038 Q221.931 779.038 223.737 775.496 Q225.566 771.931 225.566 764.825 Q225.566 757.695 223.737 754.153 Q221.931 750.589 218.297 750.589 M218.297 746.885 Q224.107 746.885 227.163 751.491 Q230.242 756.075 230.242 764.825 Q230.242 773.551 227.163 778.158 Q224.107 782.741 218.297 782.741 Q212.487 782.741 209.408 778.158 Q206.353 773.551 206.353 764.825 Q206.353 756.075 209.408 751.491 Q212.487 746.885 218.297 746.885 Z" fill="#000000" fill-rule="evenodd" fill-opacity="1" /><path clip-path="url(#clip320)" d="M131.978 299.485 Q135.335 300.202 137.21 302.471 Q139.108 304.739 139.108 308.073 Q139.108 313.188 135.589 315.989 Q132.071 318.79 125.589 318.79 Q123.413 318.79 121.099 318.35 Q118.807 317.934 116.353 317.077 L116.353 312.563 Q118.298 313.698 120.613 314.276 Q122.927 314.855 125.451 314.855 Q129.849 314.855 132.14 313.119 Q134.455 311.383 134.455 308.073 Q134.455 305.017 132.302 303.304 Q130.173 301.568 126.353 301.568 L122.326 301.568 L122.326 297.726 L126.538 297.726 Q129.988 297.726 131.816 296.36 Q133.645 294.971 133.645 292.378 Q133.645 289.716 131.747 288.304 Q129.872 286.869 126.353 286.869 Q124.432 286.869 122.233 287.286 Q120.034 287.702 117.395 288.582 L117.395 284.415 Q120.057 283.675 122.372 283.304 Q124.71 282.934 126.77 282.934 Q132.094 282.934 135.196 285.364 Q138.298 287.772 138.298 291.892 Q138.298 294.763 136.654 296.753 Q135.011 298.721 131.978 299.485 Z" fill="#000000" fill-rule="evenodd" fill-opacity="1" /><path clip-path="url(#clip320)" d="M157.973 286.638 Q154.362 286.638 152.534 290.202 Q150.728 293.744 150.728 300.874 Q150.728 307.98 152.534 311.545 Q154.362 315.087 157.973 315.087 Q161.608 315.087 163.413 311.545 Q165.242 307.98 165.242 300.874 Q165.242 293.744 163.413 290.202 Q161.608 286.638 157.973 286.638 M157.973 282.934 Q163.784 282.934 166.839 287.54 Q169.918 292.124 169.918 300.874 Q169.918 309.6 166.839 314.207 Q163.784 318.79 157.973 318.79 Q152.163 318.79 149.085 314.207 Q146.029 309.6 146.029 300.874 Q146.029 292.124 149.085 287.54 Q152.163 282.934 157.973 282.934 Z" fill="#000000" fill-rule="evenodd" fill-opacity="1" /><path clip-path="url(#clip320)" d="M188.135 286.638 Q184.524 286.638 182.696 290.202 Q180.89 293.744 180.89 300.874 Q180.89 307.98 182.696 311.545 Q184.524 315.087 188.135 315.087 Q191.77 315.087 193.575 311.545 Q195.404 307.98 195.404 300.874 Q195.404 293.744 193.575 290.202 Q191.77 286.638 188.135 286.638 M188.135 282.934 Q193.946 282.934 197.001 287.54 Q200.08 292.124 200.08 300.874 Q200.08 309.6 197.001 314.207 Q193.946 318.79 188.135 318.79 Q182.325 318.79 179.247 314.207 Q176.191 309.6 176.191 300.874 Q176.191 292.124 179.247 287.54 Q182.325 282.934 188.135 282.934 Z" fill="#000000" fill-rule="evenodd" fill-opacity="1" /><path clip-path="url(#clip320)" d="M218.297 286.638 Q214.686 286.638 212.857 290.202 Q211.052 293.744 211.052 300.874 Q211.052 307.98 212.857 311.545 Q214.686 315.087 218.297 315.087 Q221.931 315.087 223.737 311.545 Q225.566 307.98 225.566 300.874 Q225.566 293.744 223.737 290.202 Q221.931 286.638 218.297 286.638 M218.297 282.934 Q224.107 282.934 227.163 287.54 Q230.242 292.124 230.242 300.874 Q230.242 309.6 227.163 314.207 Q224.107 318.79 218.297 318.79 Q212.487 318.79 209.408 314.207 Q206.353 309.6 206.353 300.874 Q206.353 292.124 209.408 287.54 Q212.487 282.934 218.297 282.934 Z" fill="#000000" fill-rule="evenodd" fill-opacity="1" /><path clip-path="url(#clip320)" d="M14.1184 1143.19 L14.1184 1113.15 L19.5293 1113.15 L19.5293 1136.76 L33.5975 1136.76 L33.5975 1114.13 L39.0084 1114.13 L39.0084 1136.76 L56.2276 1136.76 L56.2276 1112.57 L61.6384 1112.57 L61.6384 1143.19 L14.1184 1143.19 Z" fill="#000000" fill-rule="evenodd" fill-opacity="1" /><path clip-path="url(#clip320)" d="M40.1224 1072.63 L61.6384 1072.63 L61.6384 1078.48 L40.3133 1078.48 Q35.2526 1078.48 32.7381 1080.46 Q30.2237 1082.43 30.2237 1086.38 Q30.2237 1091.12 33.2474 1093.86 Q36.2711 1096.6 41.491 1096.6 L61.6384 1096.6 L61.6384 1102.48 L25.9905 1102.48 L25.9905 1096.6 L31.5287 1096.6 Q28.314 1094.49 26.7225 1091.66 Q25.1311 1088.8 25.1311 1085.07 Q25.1311 1078.93 28.9505 1075.78 Q32.7381 1072.63 40.1224 1072.63 Z" fill="#000000" fill-rule="evenodd" fill-opacity="1" /><path clip-path="url(#clip320)" d="M15.869 1055.15 L25.9905 1055.15 L25.9905 1043.09 L30.542 1043.09 L30.542 1055.15 L49.8937 1055.15 Q54.2542 1055.15 55.4955 1053.98 Q56.7368 1052.77 56.7368 1049.11 L56.7368 1043.09 L61.6384 1043.09 L61.6384 1049.11 Q61.6384 1055.89 59.124 1058.46 Q56.5777 1061.04 49.8937 1061.04 L30.542 1061.04 L30.542 1065.34 L25.9905 1065.34 L25.9905 1061.04 L15.869 1061.04 L15.869 1055.15 Z" fill="#000000" fill-rule="evenodd" fill-opacity="1" /><path clip-path="url(#clip320)" d="M40.1224 1005.76 L61.6384 1005.76 L61.6384 1011.61 L40.3133 1011.61 Q35.2526 1011.61 32.7381 1013.59 Q30.2237 1015.56 30.2237 1019.51 Q30.2237 1024.25 33.2474 1026.99 Q36.2711 1029.72 41.491 1029.72 L61.6384 1029.72 L61.6384 1035.61 L12.1132 1035.61 L12.1132 1029.72 L31.5287 1029.72 Q28.314 1027.62 26.7225 1024.79 Q25.1311 1021.93 25.1311 1018.2 Q25.1311 1012.06 28.9505 1008.91 Q32.7381 1005.76 40.1224 1005.76 Z" fill="#000000" fill-rule="evenodd" fill-opacity="1" /><path clip-path="url(#clip320)" d="M43.719 977.875 Q43.719 984.973 45.3422 987.71 Q46.9655 990.447 50.8804 990.447 Q53.9996 990.447 55.8457 988.41 Q57.6599 986.341 57.6599 982.808 Q57.6599 977.938 54.2224 975.01 Q50.7531 972.05 45.0239 972.05 L43.719 972.05 L43.719 977.875 M41.3 966.194 L61.6384 966.194 L61.6384 972.05 L56.2276 972.05 Q59.4741 974.055 61.0337 977.047 Q62.5615 980.039 62.5615 984.368 Q62.5615 989.842 59.5059 993.089 Q56.4186 996.304 51.2623 996.304 Q45.2467 996.304 42.1912 992.293 Q39.1357 988.251 39.1357 980.262 L39.1357 972.05 L38.5628 972.05 Q34.5205 972.05 32.3244 974.724 Q30.0964 977.366 30.0964 982.172 Q30.0964 985.227 30.8284 988.124 Q31.5605 991.02 33.0246 993.694 L27.6137 993.694 Q26.3724 990.479 25.7677 987.455 Q25.1311 984.431 25.1311 981.567 Q25.1311 973.833 29.1415 970.013 Q33.1519 966.194 41.3 966.194 Z" fill="#000000" fill-rule="evenodd" fill-opacity="1" /><path clip-path="url(#clip320)" d="M12.1132 954.131 L12.1132 948.274 L61.6384 948.274 L61.6384 954.131 L12.1132 954.131 Z" fill="#000000" fill-rule="evenodd" fill-opacity="1" /><path clip-path="url(#clip320)" d="M56.2912 930.355 L75.1974 930.355 L75.1974 936.243 L25.9905 936.243 L25.9905 930.355 L31.4013 930.355 Q28.2185 928.509 26.6907 925.708 Q25.1311 922.875 25.1311 918.96 Q25.1311 912.467 30.2873 908.425 Q35.4436 904.351 43.8463 904.351 Q52.249 904.351 57.4052 908.425 Q62.5615 912.467 62.5615 918.96 Q62.5615 922.875 61.0337 925.708 Q59.4741 928.509 56.2912 930.355 M43.8463 910.43 Q37.3851 910.43 33.7248 913.104 Q30.0327 915.746 30.0327 920.392 Q30.0327 925.039 33.7248 927.713 Q37.3851 930.355 43.8463 930.355 Q50.3075 930.355 53.9996 927.713 Q57.6599 925.039 57.6599 920.392 Q57.6599 915.746 53.9996 913.104 Q50.3075 910.43 43.8463 910.43 Z" fill="#000000" fill-rule="evenodd" fill-opacity="1" /><path clip-path="url(#clip320)" d="M64.9486 879.811 Q71.3143 882.294 73.2559 884.649 Q75.1974 887.004 75.1974 890.951 L75.1974 895.63 L70.2958 895.63 L70.2958 892.192 Q70.2958 889.773 69.15 888.437 Q68.0041 887.1 63.7391 885.477 L61.0655 884.426 L25.9905 898.845 L25.9905 892.638 L53.8723 881.498 L25.9905 870.358 L25.9905 864.151 L64.9486 879.811 Z" fill="#000000" fill-rule="evenodd" fill-opacity="1" /><path clip-path="url(#clip320)" d="M12.1132 835.888 L12.1132 822.392 L16.6647 822.392 L16.6647 830.031 L65.6807 830.031 L65.6807 822.392 L70.2321 822.392 L70.2321 835.888 L12.1132 835.888 Z" fill="#000000" fill-rule="evenodd" fill-opacity="1" /><path clip-path="url(#clip320)" d="M12.1132 810.138 L12.1132 804.25 L41.3637 804.25 L25.9905 786.776 L25.9905 779.297 L42.6686 798.203 L61.6384 778.501 L61.6384 786.14 L44.2282 804.25 L61.6384 804.25 L61.6384 810.138 L12.1132 810.138 Z" fill="#000000" fill-rule="evenodd" fill-opacity="1" /><path clip-path="url(#clip320)" d="M14.1184 771.912 L14.1184 765.483 L58.3283 765.483 Q66.922 765.483 70.8051 768.761 Q74.6881 772.008 74.6881 779.233 L74.6881 781.684 L69.2773 781.684 L69.2773 779.679 Q69.2773 775.414 66.8902 773.663 Q64.503 771.912 58.3283 771.912 L14.1184 771.912 Z" fill="#000000" fill-rule="evenodd" fill-opacity="1" /><path clip-path="url(#clip320)" d="M14.1184 742.535 L14.1184 737.124 L67.6859 753.675 L67.6859 759.085 L14.1184 742.535 Z" fill="#000000" fill-rule="evenodd" fill-opacity="1" /><path clip-path="url(#clip320)" d="M12.1132 731.204 L12.1132 725.315 L41.3637 725.315 L25.9905 707.842 L25.9905 700.362 L42.6686 719.268 L61.6384 699.566 L61.6384 707.205 L44.2282 725.315 L61.6384 725.315 L61.6384 731.204 L12.1132 731.204 Z" fill="#000000" fill-rule="evenodd" fill-opacity="1" /><path clip-path="url(#clip320)" d="M43.4007 669.775 Q37.035 669.775 33.5338 672.416 Q30.0327 675.026 30.0327 679.769 Q30.0327 684.479 33.5338 687.121 Q37.035 689.731 43.4007 689.731 Q49.7346 689.731 53.2357 687.121 Q56.7368 684.479 56.7368 679.769 Q56.7368 675.026 53.2357 672.416 Q49.7346 669.775 43.4007 669.775 M57.2143 663.918 Q66.3172 663.918 70.7414 667.96 Q75.1974 672.003 75.1974 680.342 Q75.1974 683.429 74.72 686.166 Q74.2744 688.904 73.3195 691.482 L67.6222 691.482 Q69.0227 688.904 69.6911 686.389 Q70.3595 683.875 70.3595 681.265 Q70.3595 675.504 67.3358 672.639 Q64.3439 669.775 58.2646 669.775 L55.3682 669.775 Q58.5192 671.589 60.0788 674.422 Q61.6384 677.254 61.6384 681.201 Q61.6384 687.758 56.6414 691.768 Q51.6443 695.779 43.4007 695.779 Q35.1253 695.779 30.1282 691.768 Q25.1311 687.758 25.1311 681.201 Q25.1311 677.254 26.6907 674.422 Q28.2503 671.589 31.4013 669.775 L25.9905 669.775 L25.9905 663.918 L57.2143 663.918 Z" fill="#000000" fill-rule="evenodd" fill-opacity="1" /><path clip-path="url(#clip320)" d="M12.1132 638.169 L70.2321 638.169 L70.2321 651.664 L65.6807 651.664 L65.6807 644.057 L16.6647 644.057 L16.6647 651.664 L12.1132 651.664 L12.1132 638.169 Z" fill="#000000" fill-rule="evenodd" fill-opacity="1" /><polyline clip-path="url(#clip322)" style="stroke:#009af9; stroke-linecap:round; stroke-linejoin:round; stroke-width:12; stroke-opacity:1; fill:none" points="337.643,1686.38 341.894,1684.44 346.145,1682.51 350.396,1680.57 354.647,1678.64 358.898,1676.71 363.149,1674.78 367.4,1672.85 371.651,1670.92 375.902,1668.99 380.153,1667.06 384.404,1665.13 388.655,1663.2 392.906,1661.27 397.157,1659.34 401.408,1657.41 405.659,1655.48 409.91,1653.56 414.161,1651.63 418.412,1649.7 422.663,1647.77 426.914,1645.85 431.165,1643.92 435.416,1641.99 439.667,1640.06 443.918,1638.14 448.169,1636.21 452.42,1634.28 456.671,1632.35 460.922,1630.43 465.173,1628.5 469.424,1626.57 473.675,1624.64 477.926,1622.72 482.177,1620.79 486.428,1618.86 490.679,1616.93 494.93,1615.01 499.181,1613.08 503.432,1611.15 507.683,1609.22 511.934,1607.3 516.185,1605.37 520.436,1603.44 524.687,1601.51 528.938,1599.58 533.189,1597.66 537.44,1595.73 541.691,1593.8 545.942,1591.87 550.193,1589.94 554.444,1588.01 558.695,1586.08 562.946,1584.15 567.197,1582.22 571.448,1580.3 575.699,1578.37 579.95,1576.44 584.201,1574.5 588.452,1572.57 592.703,1570.64 596.954,1568.71 601.205,1566.78 605.456,1564.85 609.707,1562.92 613.958,1560.99 618.209,1559.05 622.46,1557.12 626.711,1555.19 630.962,1553.26 635.213,1551.32 639.464,1549.39 643.715,1547.45 647.966,1545.52 652.217,1543.59 656.468,1541.65 660.719,1539.72 664.971,1537.78 669.222,1535.84 673.473,1533.91 677.724,1531.97 681.975,1530.03 686.226,1528.1 690.477,1526.16 694.728,1524.22 698.979,1522.28 703.23,1520.34 707.481,1518.4 711.732,1516.46 715.983,1514.52 720.234,1512.58 724.485,1510.64 728.736,1508.7 732.987,1506.75 737.238,1504.81 741.489,1502.87 745.74,1500.92 749.991,1498.98 754.242,1497.03 758.493,1495.09 762.744,1493.14 766.995,1491.19 771.246,1489.25 775.497,1487.3 779.748,1485.35 783.999,1483.4 788.25,1481.45 792.501,1479.5 796.752,1477.55 801.003,1475.6 805.254,1473.65 809.505,1471.69 813.756,1469.74 818.007,1467.79 822.258,1465.83 826.509,1463.87 830.76,1461.92 835.011,1459.96 839.262,1458 843.513,1456.05 847.764,1454.09 852.015,1452.13 856.266,1450.17 860.517,1448.2 864.768,1446.24 869.019,1444.28 873.27,1442.32 877.521,1440.35 881.772,1438.39 886.023,1436.42 890.274,1434.45 894.525,1432.48 898.776,1430.52 903.027,1428.55 907.278,1426.58 911.529,1424.6 915.78,1422.63 920.031,1420.66 924.282,1418.68 928.533,1416.71 932.784,1414.73 937.035,1412.76 941.286,1410.78 945.537,1408.8 949.788,1406.82 954.039,1404.84 958.29,1402.86 962.541,1400.87 966.792,1398.89 971.043,1396.9 975.294,1394.92 979.545,1392.93 983.796,1390.94 988.047,1388.95 992.298,1386.96 996.549,1384.97 1000.8,1382.98 1005.05,1380.98 1009.3,1378.99 1013.55,1376.99 1017.8,1374.99 1022.06,1372.99 1026.31,1370.99 1030.56,1368.99 1034.81,1366.99 1039.06,1364.98 1043.31,1362.98 1047.56,1360.97 1051.81,1358.96 1056.06,1356.95 1060.31,1354.94 1064.57,1352.93 1068.82,1350.91 1073.07,1348.9 1077.32,1346.88 1081.57,1344.86 1085.82,1342.84 1090.07,1340.82 1094.32,1338.79 1098.57,1336.77 1102.82,1334.74 1107.08,1332.71 1111.33,1330.68 1115.58,1328.65 1119.83,1326.62 1124.08,1324.58 1128.33,1322.55 1132.58,1320.51 1136.83,1318.47 1141.08,1316.43 1145.33,1314.38 1149.59,1312.34 1153.84,1310.29 1158.09,1308.24 1162.34,1306.19 1166.59,1304.13 1170.84,1302.08 1175.09,1300.02 1179.34,1297.96 1183.59,1295.9 1187.84,1293.83 1192.1,1291.77 1196.35,1289.7 1200.6,1287.63 1204.85,1285.56 1209.1,1283.48 1213.35,1281.4 1217.6,1279.32 1221.85,1277.24 1226.1,1275.16 1230.36,1273.07 1234.61,1270.98 1238.86,1268.89 1243.11,1266.79 1247.36,1264.7 1251.61,1262.6 1255.86,1260.49 1260.11,1258.39 1264.36,1256.28 1268.61,1254.17 1272.87,1252.06 1277.12,1249.94 1281.37,1247.82 1285.62,1245.7 1289.87,1243.57 1294.12,1241.44 1298.37,1239.31 1302.62,1237.18 1306.87,1235.04 1311.12,1232.9 1315.38,1230.75 1319.63,1228.61 1323.88,1226.46 1328.13,1224.3 1332.38,1222.14 1336.63,1219.98 1340.88,1217.82 1345.13,1215.65 1349.38,1213.47 1353.63,1211.3 1357.89,1209.12 1362.14,1206.93 1366.39,1204.74 1370.64,1202.55 1374.89,1200.35 1379.14,1198.15 1383.39,1195.95 1387.64,1193.74 1391.89,1191.52 1396.14,1189.31 1400.4,1187.08 1404.65,1184.85 1408.9,1182.62 1413.15,1180.38 1417.4,1178.14 1421.65,1175.89 1425.9,1173.64 1430.15,1171.38 1434.4,1169.12 1438.65,1166.85 1442.91,1164.58 1447.16,1162.3 1451.41,1160.01 1455.66,1157.72 1459.91,1155.43 1464.16,1153.12 1468.41,1150.81 1472.66,1148.5 1476.91,1146.17 1481.16,1143.85 1485.42,1141.51 1489.67,1139.17 1493.92,1136.82 1498.17,1134.46 1502.42,1132.1 1506.67,1129.72 1510.92,1127.34 1515.17,1124.96 1519.42,1122.56 1523.67,1120.16 1527.93,1117.75 1532.18,1115.32 1536.43,1112.89 1540.68,1110.46 1544.93,1108.01 1549.18,1105.55 1553.43,1103.08 1557.68,1100.6 1561.93,1098.11 1566.19,1095.61 1570.44,1093.1 1574.69,1090.58 1578.94,1088.05 1583.19,1085.5 1587.44,1082.95 1591.69,1080.38 1595.94,1077.79 1600.19,1075.19 1604.44,1072.58 1608.7,1069.96 1612.95,1067.31 1617.2,1064.66 1621.45,1061.98 1625.7,1059.29 1629.95,1056.59 1634.2,1053.86 1638.45,1051.12 1642.7,1048.35 1646.95,1045.57 1651.21,1042.76 1655.46,1039.94 1659.71,425.424 1663.96,422.245 1668.21,419.154 1672.46,416.144 1676.71,413.206 1680.96,410.335 1685.21,407.525 1689.46,404.773 1693.72,402.074 1697.97,399.425 1702.22,396.822 1706.47,394.264 1710.72,391.748 1714.97,389.272 1719.22,386.833 1723.47,384.431 1727.72,382.062 1731.97,379.727 1736.23,377.424 1740.48,375.15 1744.73,372.905 1748.98,370.688 1753.23,368.498 1757.48,366.334 1761.73,364.194 1765.98,362.078 1770.23,359.985 1774.48,357.914 1778.74,355.864 1782.99,353.835 1787.24,351.826 1791.49,349.837 1795.74,347.866 1799.99,345.912 1804.24,343.977 1808.49,342.058 1812.74,340.156 1816.99,338.269 1821.25,336.398 1825.5,334.542 1829.75,332.7 1834,330.873 1838.25,329.059 1842.5,327.259 1846.75,325.471 1851,323.696 1855.25,321.934 1859.5,320.183 1863.76,318.444 1868.01,316.716 1872.26,315 1876.51,313.294 1880.76,311.598 1885.01,309.913 1889.26,308.238 1893.51,306.572 1897.76,304.916 1902.02,303.269 1906.27,301.632 1910.52,300.003 1914.77,298.383 1919.02,296.771 1923.27,295.168 1927.52,293.572 1931.77,291.985 1936.02,290.405 1940.27,288.833 1944.53,287.268 1948.78,285.711 1953.03,284.16 1957.28,282.617 1961.53,281.08 1965.78,279.55 1970.03,278.027 1974.28,276.51 1978.53,274.999 1982.78,273.494 1987.04,271.996 1991.29,270.503 1995.54,269.016 1999.79,267.535 2004.04,266.059 2008.29,264.589 2012.54,263.124 2016.79,261.665 2021.04,260.21 2025.29,258.761 2029.55,257.317 2033.8,255.877 2038.05,254.442 2042.3,253.013 2046.55,251.587 2050.8,250.166 2055.05,248.75 2059.3,247.338 2063.55,245.931 2067.8,244.527 2072.06,243.128 2076.31,241.733 2080.56,240.342 2084.81,238.955 2089.06,237.572 2093.31,236.192 2097.56,234.817 2101.81,233.445 2106.06,232.077 2110.31,230.712 2114.57,229.351 2118.82,227.993 2123.07,226.639 2127.32,225.288 2131.57,223.94 2135.82,222.595 2140.07,221.254 2144.32,219.916 2148.57,218.581 2152.82,217.249 2157.08,215.92 2161.33,214.594 2165.58,213.271 2169.83,211.95 2174.08,210.633 2178.33,209.318 2182.58,208.006 2186.83,206.697 2191.08,205.39 2195.33,204.086 2199.59,202.784 2203.84,201.485 2208.09,200.189 2212.34,198.894 2216.59,197.603 2220.84,196.313 2225.09,195.026 2229.34,193.742 2233.59,192.459 2237.84,191.179 2242.1,189.901 2246.35,188.625 2250.6,187.351 2254.85,186.08 2259.1,184.81 2263.35,183.543 2267.6,182.277 2271.85,181.014 2276.1,179.752 2280.36,178.492 2284.61,177.235 2288.86,175.979 2293.11,174.725 2297.36,173.472 2301.61,172.222 2305.86,170.973 2310.11,169.726 2314.36,168.481 2318.61,167.238 2322.87,165.996 2327.12,164.756 2331.37,163.517 2335.62,162.28 2339.87,161.044 2344.12,159.811 2348.37,158.578 2352.62,157.347 2356.87,156.118 2361.12,154.89 2365.38,153.664 2369.63,152.439 2373.88,151.215 2378.13,149.993 2382.38,148.772 2386.63,147.552 2390.88,146.334 2395.13,145.117 2399.38,143.902 2403.63,142.688 2407.89,141.474 2412.14,140.263 2416.39,139.052 2420.64,137.843 2424.89,136.635 2429.14,135.428 2433.39,134.222 2437.64,133.017 2441.89,131.813 2446.14,130.611 2450.4,129.41 2454.65,128.209 2458.9,127.01 2463.15,125.812 2467.4,124.615 2471.65,123.419 2475.9,122.223 2480.15,121.029 2484.4,119.836 2488.65,118.644 2492.91,117.453 2497.16,116.263 2501.41,115.073 2505.66,113.885 2509.91,112.697 2514.16,111.511 2518.41,110.325 2522.66,109.14 2526.91,107.956 2531.16,106.773 2535.42,105.591 2539.67,104.409 2543.92,103.229 2548.17,102.049 2552.42,100.87 2556.67,99.6914 2560.92,98.5138 2565.17,97.3371 2569.42,96.1611 2573.67,94.9858 "/>
<path clip-path="url(#clip320)" d="M1820.65 1677.89 L2561.75 1677.89 L2561.75 1548.29 L1820.65 1548.29  Z" fill="#ffffff" fill-rule="evenodd" fill-opacity="1"/>
<polyline clip-path="url(#clip320)" style="stroke:#000000; stroke-linecap:round; stroke-linejoin:round; stroke-width:4; stroke-opacity:1; fill:none" points="1820.65,1677.89 2561.75,1677.89 2561.75,1548.29 1820.65,1548.29 1820.65,1677.89 "/>
<polyline clip-path="url(#clip320)" style="stroke:#009af9; stroke-linecap:round; stroke-linejoin:round; stroke-width:15; stroke-opacity:1; fill:none" points="1846.99,1613.09 2005,1613.09 "/>
<path clip-path="url(#clip320)" d="M2059.14 1592.91 L2059.14 1598.61 Q2055.82 1597.01 2052.86 1596.23 Q2049.91 1595.45 2047.16 1595.45 Q2042.39 1595.45 2039.79 1597.3 Q2037.21 1599.16 2037.21 1602.57 Q2037.21 1605.43 2038.92 1606.91 Q2040.65 1608.36 2045.46 1609.25 L2048.99 1609.98 Q2055.53 1611.22 2058.62 1614.38 Q2061.75 1617.5 2061.75 1622.77 Q2061.75 1629.05 2057.52 1632.29 Q2053.33 1635.53 2045.2 1635.53 Q2042.13 1635.53 2038.66 1634.83 Q2035.21 1634.14 2031.51 1632.78 L2031.51 1626.76 Q2035.07 1628.76 2038.48 1629.77 Q2041.9 1630.78 2045.2 1630.78 Q2050.2 1630.78 2052.92 1628.81 Q2055.64 1626.85 2055.64 1623.2 Q2055.64 1620.02 2053.67 1618.22 Q2051.74 1616.43 2047.28 1615.53 L2043.72 1614.84 Q2037.18 1613.54 2034.26 1610.76 Q2031.34 1607.98 2031.34 1603.03 Q2031.34 1597.3 2035.36 1594.01 Q2039.41 1590.71 2046.5 1590.71 Q2049.54 1590.71 2052.69 1591.26 Q2055.84 1591.81 2059.14 1592.91 Z" fill="#000000" fill-rule="evenodd" fill-opacity="1" /><path clip-path="url(#clip320)" d="M2075.78 1629.83 L2075.78 1647.01 L2070.43 1647.01 L2070.43 1602.28 L2075.78 1602.28 L2075.78 1607.2 Q2077.46 1604.31 2080.01 1602.92 Q2082.58 1601.5 2086.14 1601.5 Q2092.04 1601.5 2095.72 1606.19 Q2099.42 1610.87 2099.42 1618.51 Q2099.42 1626.15 2095.72 1630.84 Q2092.04 1635.53 2086.14 1635.53 Q2082.58 1635.53 2080.01 1634.14 Q2077.46 1632.72 2075.78 1629.83 M2093.89 1618.51 Q2093.89 1612.64 2091.46 1609.31 Q2089.06 1605.96 2084.84 1605.96 Q2080.61 1605.96 2078.18 1609.31 Q2075.78 1612.64 2075.78 1618.51 Q2075.78 1624.39 2078.18 1627.74 Q2080.61 1631.07 2084.84 1631.07 Q2089.06 1631.07 2091.46 1627.74 Q2093.89 1624.39 2093.89 1618.51 Z" fill="#000000" fill-rule="evenodd" fill-opacity="1" /><path clip-path="url(#clip320)" d="M2135.97 1617.15 L2135.97 1619.76 L2111.49 1619.76 Q2111.83 1625.26 2114.79 1628.15 Q2117.77 1631.01 2123.06 1631.01 Q2126.13 1631.01 2128.99 1630.26 Q2131.89 1629.51 2134.72 1628 L2134.72 1633.04 Q2131.86 1634.25 2128.85 1634.89 Q2125.84 1635.53 2122.74 1635.53 Q2114.99 1635.53 2110.45 1631.01 Q2105.93 1626.5 2105.93 1618.8 Q2105.93 1610.85 2110.21 1606.19 Q2114.52 1601.5 2121.82 1601.5 Q2128.36 1601.5 2132.15 1605.72 Q2135.97 1609.92 2135.97 1617.15 M2130.64 1615.59 Q2130.58 1611.22 2128.18 1608.62 Q2125.81 1606.01 2121.87 1606.01 Q2117.42 1606.01 2114.73 1608.53 Q2112.07 1611.05 2111.66 1615.62 L2130.64 1615.59 Z" fill="#000000" fill-rule="evenodd" fill-opacity="1" /><path clip-path="url(#clip320)" d="M2168.03 1603.52 L2168.03 1608.5 Q2165.77 1607.26 2163.48 1606.65 Q2161.23 1606.01 2158.91 1606.01 Q2153.73 1606.01 2150.87 1609.31 Q2148 1612.58 2148 1618.51 Q2148 1624.44 2150.87 1627.74 Q2153.73 1631.01 2158.91 1631.01 Q2161.23 1631.01 2163.48 1630.41 Q2165.77 1629.77 2168.03 1628.52 L2168.03 1633.44 Q2165.8 1634.49 2163.4 1635.01 Q2161.02 1635.53 2158.33 1635.53 Q2151.01 1635.53 2146.7 1630.93 Q2142.39 1626.33 2142.39 1618.51 Q2142.39 1610.59 2146.73 1606.04 Q2151.1 1601.5 2158.68 1601.5 Q2161.14 1601.5 2163.48 1602.02 Q2165.83 1602.51 2168.03 1603.52 Z" fill="#000000" fill-rule="evenodd" fill-opacity="1" /><path clip-path="url(#clip320)" d="M2177.29 1602.28 L2182.61 1602.28 L2182.61 1634.69 L2177.29 1634.69 L2177.29 1602.28 M2177.29 1589.66 L2182.61 1589.66 L2182.61 1596.41 L2177.29 1596.41 L2177.29 1589.66 Z" fill="#000000" fill-rule="evenodd" fill-opacity="1" /><path clip-path="url(#clip320)" d="M2210.16 1589.66 L2210.16 1594.09 L2205.06 1594.09 Q2202.2 1594.09 2201.07 1595.25 Q2199.97 1596.41 2199.97 1599.42 L2199.97 1602.28 L2208.74 1602.28 L2208.74 1606.42 L2199.97 1606.42 L2199.97 1634.69 L2194.62 1634.69 L2194.62 1606.42 L2189.52 1606.42 L2189.52 1602.28 L2194.62 1602.28 L2194.62 1600.02 Q2194.62 1594.61 2197.13 1592.15 Q2199.65 1589.66 2205.12 1589.66 L2210.16 1589.66 Z" fill="#000000" fill-rule="evenodd" fill-opacity="1" /><path clip-path="url(#clip320)" d="M2214.61 1602.28 L2219.94 1602.28 L2219.94 1634.69 L2214.61 1634.69 L2214.61 1602.28 M2214.61 1589.66 L2219.94 1589.66 L2219.94 1596.41 L2214.61 1596.41 L2214.61 1589.66 Z" fill="#000000" fill-rule="evenodd" fill-opacity="1" /><path clip-path="url(#clip320)" d="M2254.4 1603.52 L2254.4 1608.5 Q2252.14 1607.26 2249.85 1606.65 Q2247.6 1606.01 2245.28 1606.01 Q2240.1 1606.01 2237.24 1609.31 Q2234.37 1612.58 2234.37 1618.51 Q2234.37 1624.44 2237.24 1627.74 Q2240.1 1631.01 2245.28 1631.01 Q2247.6 1631.01 2249.85 1630.41 Q2252.14 1629.77 2254.4 1628.52 L2254.4 1633.44 Q2252.17 1634.49 2249.77 1635.01 Q2247.39 1635.53 2244.7 1635.53 Q2237.38 1635.53 2233.07 1630.93 Q2228.76 1626.33 2228.76 1618.51 Q2228.76 1610.59 2233.1 1606.04 Q2237.47 1601.5 2245.05 1601.5 Q2247.51 1601.5 2249.85 1602.02 Q2252.2 1602.51 2254.4 1603.52 Z" fill="#000000" fill-rule="evenodd" fill-opacity="1" /><path clip-path="url(#clip320)" d="M2310.21 1617.15 L2310.21 1619.76 L2285.73 1619.76 Q2286.08 1625.26 2289.03 1628.15 Q2292.01 1631.01 2297.31 1631.01 Q2300.37 1631.01 2303.24 1630.26 Q2306.13 1629.51 2308.97 1628 L2308.97 1633.04 Q2306.1 1634.25 2303.09 1634.89 Q2300.09 1635.53 2296.99 1635.53 Q2289.23 1635.53 2284.69 1631.01 Q2280.18 1626.5 2280.18 1618.8 Q2280.18 1610.85 2284.46 1606.19 Q2288.77 1601.5 2296.06 1601.5 Q2302.6 1601.5 2306.39 1605.72 Q2310.21 1609.92 2310.21 1617.15 M2304.89 1615.59 Q2304.83 1611.22 2302.43 1608.62 Q2300.06 1606.01 2296.12 1606.01 Q2291.67 1606.01 2288.97 1608.53 Q2286.31 1611.05 2285.91 1615.62 L2304.89 1615.59 Z" fill="#000000" fill-rule="evenodd" fill-opacity="1" /><path clip-path="url(#clip320)" d="M2345.89 1615.13 L2345.89 1634.69 L2340.57 1634.69 L2340.57 1615.3 Q2340.57 1610.7 2338.77 1608.41 Q2336.98 1606.13 2333.39 1606.13 Q2329.08 1606.13 2326.59 1608.88 Q2324.1 1611.63 2324.1 1616.37 L2324.1 1634.69 L2318.75 1634.69 L2318.75 1602.28 L2324.1 1602.28 L2324.1 1607.32 Q2326.01 1604.39 2328.59 1602.95 Q2331.19 1601.5 2334.58 1601.5 Q2340.16 1601.5 2343.02 1604.97 Q2345.89 1608.41 2345.89 1615.13 Z" fill="#000000" fill-rule="evenodd" fill-opacity="1" /><path clip-path="url(#clip320)" d="M2361.77 1593.08 L2361.77 1602.28 L2372.74 1602.28 L2372.74 1606.42 L2361.77 1606.42 L2361.77 1624.01 Q2361.77 1627.97 2362.85 1629.1 Q2363.94 1630.23 2367.27 1630.23 L2372.74 1630.23 L2372.74 1634.69 L2367.27 1634.69 Q2361.11 1634.69 2358.77 1632.4 Q2356.42 1630.09 2356.42 1624.01 L2356.42 1606.42 L2352.52 1606.42 L2352.52 1602.28 L2356.42 1602.28 L2356.42 1593.08 L2361.77 1593.08 Z" fill="#000000" fill-rule="evenodd" fill-opacity="1" /><path clip-path="url(#clip320)" d="M2406.68 1615.13 L2406.68 1634.69 L2401.36 1634.69 L2401.36 1615.3 Q2401.36 1610.7 2399.56 1608.41 Q2397.77 1606.13 2394.18 1606.13 Q2389.87 1606.13 2387.38 1608.88 Q2384.89 1611.63 2384.89 1616.37 L2384.89 1634.69 L2379.54 1634.69 L2379.54 1589.66 L2384.89 1589.66 L2384.89 1607.32 Q2386.8 1604.39 2389.38 1602.95 Q2391.98 1601.5 2395.37 1601.5 Q2400.95 1601.5 2403.82 1604.97 Q2406.68 1608.41 2406.68 1615.13 Z" fill="#000000" fill-rule="evenodd" fill-opacity="1" /><path clip-path="url(#clip320)" d="M2432.03 1618.4 Q2425.58 1618.4 2423.09 1619.87 Q2420.6 1621.35 2420.6 1624.91 Q2420.6 1627.74 2422.45 1629.42 Q2424.33 1631.07 2427.54 1631.07 Q2431.97 1631.07 2434.63 1627.95 Q2437.32 1624.79 2437.32 1619.58 L2437.32 1618.4 L2432.03 1618.4 M2442.65 1616.2 L2442.65 1634.69 L2437.32 1634.69 L2437.32 1629.77 Q2435.5 1632.72 2432.78 1634.14 Q2430.06 1635.53 2426.13 1635.53 Q2421.15 1635.53 2418.2 1632.75 Q2415.28 1629.94 2415.28 1625.26 Q2415.28 1619.79 2418.92 1617.01 Q2422.6 1614.23 2429.86 1614.23 L2437.32 1614.23 L2437.32 1613.71 Q2437.32 1610.04 2434.89 1608.04 Q2432.49 1606.01 2428.12 1606.01 Q2425.35 1606.01 2422.71 1606.68 Q2420.08 1607.34 2417.65 1608.68 L2417.65 1603.76 Q2420.57 1602.63 2423.32 1602.08 Q2426.07 1601.5 2428.67 1601.5 Q2435.7 1601.5 2439.18 1605.15 Q2442.65 1608.79 2442.65 1616.2 Z" fill="#000000" fill-rule="evenodd" fill-opacity="1" /><path clip-path="url(#clip320)" d="M2453.61 1589.66 L2458.94 1589.66 L2458.94 1634.69 L2453.61 1634.69 L2453.61 1589.66 Z" fill="#000000" fill-rule="evenodd" fill-opacity="1" /><path clip-path="url(#clip320)" d="M2475.23 1629.83 L2475.23 1647.01 L2469.88 1647.01 L2469.88 1602.28 L2475.23 1602.28 L2475.23 1607.2 Q2476.91 1604.31 2479.45 1602.92 Q2482.03 1601.5 2485.59 1601.5 Q2491.49 1601.5 2495.17 1606.19 Q2498.87 1610.87 2498.87 1618.51 Q2498.87 1626.15 2495.17 1630.84 Q2491.49 1635.53 2485.59 1635.53 Q2482.03 1635.53 2479.45 1634.14 Q2476.91 1632.72 2475.23 1629.83 M2493.34 1618.51 Q2493.34 1612.64 2490.91 1609.31 Q2488.51 1605.96 2484.29 1605.96 Q2480.06 1605.96 2477.63 1609.31 Q2475.23 1612.64 2475.23 1618.51 Q2475.23 1624.39 2477.63 1627.74 Q2480.06 1631.07 2484.29 1631.07 Q2488.51 1631.07 2490.91 1627.74 Q2493.34 1624.39 2493.34 1618.51 Z" fill="#000000" fill-rule="evenodd" fill-opacity="1" /><path clip-path="url(#clip320)" d="M2521.18 1637.7 Q2518.92 1643.48 2516.78 1645.25 Q2514.64 1647.01 2511.05 1647.01 L2506.8 1647.01 L2506.8 1642.56 L2509.92 1642.56 Q2512.12 1642.56 2513.34 1641.52 Q2514.55 1640.47 2516.03 1636.6 L2516.98 1634.17 L2503.87 1602.28 L2509.52 1602.28 L2519.64 1627.63 L2529.77 1602.28 L2535.41 1602.28 L2521.18 1637.7 Z" fill="#000000" fill-rule="evenodd" fill-opacity="1" /></svg>
