<?xml version="1.0" encoding="utf-8"?>
<svg xmlns="http://www.w3.org/2000/svg" xmlns:xlink="http://www.w3.org/1999/xlink" width="672" height="480" viewBox="0 0 2688 1920">
<defs>
  <clipPath id="clip600">
    <rect x="0" y="0" width="2688" height="1920"/>
  </clipPath>
</defs>
<path clip-path="url(#clip600)" d="M0 1920 L2688 1920 L2688 0 L0 0  Z" fill="#ffffff" fill-rule="evenodd" fill-opacity="1"/>
<defs>
  <clipPath id="clip601">
    <rect x="537" y="0" width="1883" height="1883"/>
  </clipPath>
</defs>
<path clip-path="url(#clip600)" d="M343.408 1734.12 L2640.76 1734.12 L2640.76 127.792 L343.408 127.792  Z" fill="#ffffff" fill-rule="evenodd" fill-opacity="1"/>
<defs>
  <clipPath id="clip602">
    <rect x="343" y="127" width="2298" height="1607"/>
  </clipPath>
</defs>
<polyline clip-path="url(#clip602)" style="stroke:#000000; stroke-linecap:round; stroke-linejoin:round; stroke-width:2; stroke-opacity:0.1; fill:none" points="408.428,1734.12 408.428,127.792 "/>
<polyline clip-path="url(#clip602)" style="stroke:#000000; stroke-linecap:round; stroke-linejoin:round; stroke-width:2; stroke-opacity:0.1; fill:none" points="915.092,1734.12 915.092,127.792 "/>
<polyline clip-path="url(#clip602)" style="stroke:#000000; stroke-linecap:round; stroke-linejoin:round; stroke-width:2; stroke-opacity:0.1; fill:none" points="1421.76,1734.12 1421.76,127.792 "/>
<polyline clip-path="url(#clip602)" style="stroke:#000000; stroke-linecap:round; stroke-linejoin:round; stroke-width:2; stroke-opacity:0.1; fill:none" points="1928.42,1734.12 1928.42,127.792 "/>
<polyline clip-path="url(#clip602)" style="stroke:#000000; stroke-linecap:round; stroke-linejoin:round; stroke-width:2; stroke-opacity:0.1; fill:none" points="2435.09,1734.12 2435.09,127.792 "/>
<polyline clip-path="url(#clip600)" style="stroke:#000000; stroke-linecap:round; stroke-linejoin:round; stroke-width:4; stroke-opacity:1; fill:none" points="343.408,1734.12 2640.76,1734.12 "/>
<polyline clip-path="url(#clip600)" style="stroke:#000000; stroke-linecap:round; stroke-linejoin:round; stroke-width:4; stroke-opacity:1; fill:none" points="408.428,1734.12 408.428,1715.22 "/>
<polyline clip-path="url(#clip600)" style="stroke:#000000; stroke-linecap:round; stroke-linejoin:round; stroke-width:4; stroke-opacity:1; fill:none" points="915.092,1734.12 915.092,1715.22 "/>
<polyline clip-path="url(#clip600)" style="stroke:#000000; stroke-linecap:round; stroke-linejoin:round; stroke-width:4; stroke-opacity:1; fill:none" points="1421.76,1734.12 1421.76,1715.22 "/>
<polyline clip-path="url(#clip600)" style="stroke:#000000; stroke-linecap:round; stroke-linejoin:round; stroke-width:4; stroke-opacity:1; fill:none" points="1928.42,1734.12 1928.42,1715.22 "/>
<polyline clip-path="url(#clip600)" style="stroke:#000000; stroke-linecap:round; stroke-linejoin:round; stroke-width:4; stroke-opacity:1; fill:none" points="2435.09,1734.12 2435.09,1715.22 "/>
<path clip-path="url(#clip600)" d="M385.812 1767.34 Q382.201 1767.34 380.372 1770.9 Q378.567 1774.45 378.567 1781.58 Q378.567 1788.68 380.372 1792.25 Q382.201 1795.79 385.812 1795.79 Q389.446 1795.79 391.252 1792.25 Q393.081 1788.68 393.081 1781.58 Q393.081 1774.45 391.252 1770.9 Q389.446 1767.34 385.812 1767.34 M385.812 1763.64 Q391.622 1763.64 394.678 1768.24 Q397.756 1772.83 397.756 1781.58 Q397.756 1790.3 394.678 1794.91 Q391.622 1799.49 385.812 1799.49 Q380.002 1799.49 376.923 1794.91 Q373.868 1790.3 373.868 1781.58 Q373.868 1772.83 376.923 1768.24 Q380.002 1763.64 385.812 1763.64 Z" fill="#000000" fill-rule="evenodd" fill-opacity="1" /><path clip-path="url(#clip600)" d="M405.974 1792.94 L410.858 1792.94 L410.858 1798.82 L405.974 1798.82 L405.974 1792.94 Z" fill="#000000" fill-rule="evenodd" fill-opacity="1" /><path clip-path="url(#clip600)" d="M431.043 1767.34 Q427.432 1767.34 425.604 1770.9 Q423.798 1774.45 423.798 1781.58 Q423.798 1788.68 425.604 1792.25 Q427.432 1795.79 431.043 1795.79 Q434.678 1795.79 436.483 1792.25 Q438.312 1788.68 438.312 1781.58 Q438.312 1774.45 436.483 1770.9 Q434.678 1767.34 431.043 1767.34 M431.043 1763.64 Q436.853 1763.64 439.909 1768.24 Q442.988 1772.83 442.988 1781.58 Q442.988 1790.3 439.909 1794.91 Q436.853 1799.49 431.043 1799.49 Q425.233 1799.49 422.154 1794.91 Q419.099 1790.3 419.099 1781.58 Q419.099 1772.83 422.154 1768.24 Q425.233 1763.64 431.043 1763.64 Z" fill="#000000" fill-rule="evenodd" fill-opacity="1" /><path clip-path="url(#clip600)" d="M886.829 1794.89 L903.148 1794.89 L903.148 1798.82 L881.204 1798.82 L881.204 1794.89 Q883.866 1792.13 888.449 1787.5 Q893.055 1782.85 894.236 1781.51 Q896.481 1778.98 897.361 1777.25 Q898.264 1775.49 898.264 1773.8 Q898.264 1771.04 896.319 1769.31 Q894.398 1767.57 891.296 1767.57 Q889.097 1767.57 886.643 1768.34 Q884.213 1769.1 881.435 1770.65 L881.435 1765.93 Q884.259 1764.79 886.713 1764.21 Q889.167 1763.64 891.204 1763.64 Q896.574 1763.64 899.768 1766.32 Q902.963 1769.01 902.963 1773.5 Q902.963 1775.63 902.153 1777.55 Q901.366 1779.45 899.259 1782.04 Q898.68 1782.71 895.579 1785.93 Q892.477 1789.12 886.829 1794.89 Z" fill="#000000" fill-rule="evenodd" fill-opacity="1" /><path clip-path="url(#clip600)" d="M912.963 1792.94 L917.847 1792.94 L917.847 1798.82 L912.963 1798.82 L912.963 1792.94 Z" fill="#000000" fill-rule="evenodd" fill-opacity="1" /><path clip-path="url(#clip600)" d="M928.078 1764.26 L946.435 1764.26 L946.435 1768.2 L932.361 1768.2 L932.361 1776.67 Q933.379 1776.32 934.398 1776.16 Q935.416 1775.97 936.435 1775.97 Q942.222 1775.97 945.602 1779.15 Q948.981 1782.32 948.981 1787.73 Q948.981 1793.31 945.509 1796.41 Q942.037 1799.49 935.717 1799.49 Q933.541 1799.49 931.273 1799.12 Q929.028 1798.75 926.62 1798.01 L926.62 1793.31 Q928.703 1794.45 930.926 1795 Q933.148 1795.56 935.625 1795.56 Q939.629 1795.56 941.967 1793.45 Q944.305 1791.34 944.305 1787.73 Q944.305 1784.12 941.967 1782.02 Q939.629 1779.91 935.625 1779.91 Q933.75 1779.91 931.875 1780.33 Q930.023 1780.74 928.078 1781.62 L928.078 1764.26 Z" fill="#000000" fill-rule="evenodd" fill-opacity="1" /><path clip-path="url(#clip600)" d="M1388.92 1764.26 L1407.28 1764.26 L1407.28 1768.2 L1393.2 1768.2 L1393.2 1776.67 Q1394.22 1776.32 1395.24 1776.16 Q1396.26 1775.97 1397.28 1775.97 Q1403.07 1775.97 1406.44 1779.15 Q1409.82 1782.32 1409.82 1787.73 Q1409.82 1793.31 1406.35 1796.41 Q1402.88 1799.49 1396.56 1799.49 Q1394.38 1799.49 1392.12 1799.12 Q1389.87 1798.75 1387.46 1798.01 L1387.46 1793.31 Q1389.55 1794.45 1391.77 1795 Q1393.99 1795.56 1396.47 1795.56 Q1400.47 1795.56 1402.81 1793.45 Q1405.15 1791.34 1405.15 1787.73 Q1405.15 1784.12 1402.81 1782.02 Q1400.47 1779.91 1396.47 1779.91 Q1394.59 1779.91 1392.72 1780.33 Q1390.87 1780.74 1388.92 1781.62 L1388.92 1764.26 Z" fill="#000000" fill-rule="evenodd" fill-opacity="1" /><path clip-path="url(#clip600)" d="M1419.04 1792.94 L1423.92 1792.94 L1423.92 1798.82 L1419.04 1798.82 L1419.04 1792.94 Z" fill="#000000" fill-rule="evenodd" fill-opacity="1" /><path clip-path="url(#clip600)" d="M1444.11 1767.34 Q1440.5 1767.34 1438.67 1770.9 Q1436.86 1774.45 1436.86 1781.58 Q1436.86 1788.68 1438.67 1792.25 Q1440.5 1795.79 1444.11 1795.79 Q1447.74 1795.79 1449.55 1792.25 Q1451.38 1788.68 1451.38 1781.58 Q1451.38 1774.45 1449.55 1770.9 Q1447.74 1767.34 1444.11 1767.34 M1444.11 1763.64 Q1449.92 1763.64 1452.97 1768.24 Q1456.05 1772.83 1456.05 1781.58 Q1456.05 1790.3 1452.97 1794.91 Q1449.92 1799.49 1444.11 1799.49 Q1438.3 1799.49 1435.22 1794.91 Q1432.16 1790.3 1432.16 1781.58 Q1432.16 1772.83 1435.22 1768.24 Q1438.3 1763.64 1444.11 1763.64 Z" fill="#000000" fill-rule="evenodd" fill-opacity="1" /><path clip-path="url(#clip600)" d="M1894.74 1764.26 L1916.96 1764.26 L1916.96 1766.25 L1904.42 1798.82 L1899.53 1798.82 L1911.34 1768.2 L1894.74 1768.2 L1894.74 1764.26 Z" fill="#000000" fill-rule="evenodd" fill-opacity="1" /><path clip-path="url(#clip600)" d="M1926.08 1792.94 L1930.97 1792.94 L1930.97 1798.82 L1926.08 1798.82 L1926.08 1792.94 Z" fill="#000000" fill-rule="evenodd" fill-opacity="1" /><path clip-path="url(#clip600)" d="M1941.2 1764.26 L1959.56 1764.26 L1959.56 1768.2 L1945.48 1768.2 L1945.48 1776.67 Q1946.5 1776.32 1947.52 1776.16 Q1948.54 1775.97 1949.56 1775.97 Q1955.34 1775.97 1958.72 1779.15 Q1962.1 1782.32 1962.1 1787.73 Q1962.1 1793.31 1958.63 1796.41 Q1955.16 1799.49 1948.84 1799.49 Q1946.66 1799.49 1944.39 1799.12 Q1942.15 1798.75 1939.74 1798.01 L1939.74 1793.31 Q1941.82 1794.45 1944.05 1795 Q1946.27 1795.56 1948.75 1795.56 Q1952.75 1795.56 1955.09 1793.45 Q1957.43 1791.34 1957.43 1787.73 Q1957.43 1784.12 1955.09 1782.02 Q1952.75 1779.91 1948.75 1779.91 Q1946.87 1779.91 1945 1780.33 Q1943.14 1780.74 1941.2 1781.62 L1941.2 1764.26 Z" fill="#000000" fill-rule="evenodd" fill-opacity="1" /><path clip-path="url(#clip600)" d="M2387.16 1794.89 L2394.8 1794.89 L2394.8 1768.52 L2386.49 1770.19 L2386.49 1765.93 L2394.75 1764.26 L2399.43 1764.26 L2399.43 1794.89 L2407.07 1794.89 L2407.07 1798.82 L2387.16 1798.82 L2387.16 1794.89 Z" fill="#000000" fill-rule="evenodd" fill-opacity="1" /><path clip-path="url(#clip600)" d="M2426.51 1767.34 Q2422.9 1767.34 2421.07 1770.9 Q2419.26 1774.45 2419.26 1781.58 Q2419.26 1788.68 2421.07 1792.25 Q2422.9 1795.79 2426.51 1795.79 Q2430.14 1795.79 2431.95 1792.25 Q2433.78 1788.68 2433.78 1781.58 Q2433.78 1774.45 2431.95 1770.9 Q2430.14 1767.34 2426.51 1767.34 M2426.51 1763.64 Q2432.32 1763.64 2435.38 1768.24 Q2438.45 1772.83 2438.45 1781.58 Q2438.45 1790.3 2435.38 1794.91 Q2432.32 1799.49 2426.51 1799.49 Q2420.7 1799.49 2417.62 1794.91 Q2414.57 1790.3 2414.57 1781.58 Q2414.57 1772.83 2417.62 1768.24 Q2420.7 1763.64 2426.51 1763.64 Z" fill="#000000" fill-rule="evenodd" fill-opacity="1" /><path clip-path="url(#clip600)" d="M2446.67 1792.94 L2451.56 1792.94 L2451.56 1798.82 L2446.67 1798.82 L2446.67 1792.94 Z" fill="#000000" fill-rule="evenodd" fill-opacity="1" /><path clip-path="url(#clip600)" d="M2471.74 1767.34 Q2468.13 1767.34 2466.3 1770.9 Q2464.5 1774.45 2464.5 1781.58 Q2464.5 1788.68 2466.3 1792.25 Q2468.13 1795.79 2471.74 1795.79 Q2475.38 1795.79 2477.18 1792.25 Q2479.01 1788.68 2479.01 1781.58 Q2479.01 1774.45 2477.18 1770.9 Q2475.38 1767.34 2471.74 1767.34 M2471.74 1763.64 Q2477.55 1763.64 2480.61 1768.24 Q2483.69 1772.83 2483.69 1781.58 Q2483.69 1790.3 2480.61 1794.91 Q2477.55 1799.49 2471.74 1799.49 Q2465.93 1799.49 2462.85 1794.91 Q2459.8 1790.3 2459.8 1781.58 Q2459.8 1772.83 2462.85 1768.24 Q2465.93 1763.64 2471.74 1763.64 Z" fill="#000000" fill-rule="evenodd" fill-opacity="1" /><path clip-path="url(#clip600)" d="M1310.23 1835.78 L1350.43 1835.78 L1350.43 1841.19 L1333.56 1841.19 L1333.56 1883.3 L1327.1 1883.3 L1327.1 1841.19 L1310.23 1841.19 L1310.23 1835.78 Z" fill="#000000" fill-rule="evenodd" fill-opacity="1" /><path clip-path="url(#clip600)" d="M1354.38 1847.65 L1360.23 1847.65 L1360.23 1883.3 L1354.38 1883.3 L1354.38 1847.65 M1354.38 1833.78 L1360.23 1833.78 L1360.23 1841.19 L1354.38 1841.19 L1354.38 1833.78 Z" fill="#000000" fill-rule="evenodd" fill-opacity="1" /><path clip-path="url(#clip600)" d="M1400.24 1854.5 Q1402.44 1850.55 1405.49 1848.67 Q1408.55 1846.79 1412.69 1846.79 Q1418.26 1846.79 1421.28 1850.71 Q1424.3 1854.59 1424.3 1861.78 L1424.3 1883.3 L1418.42 1883.3 L1418.42 1861.98 Q1418.42 1856.85 1416.6 1854.37 Q1414.79 1851.89 1411.06 1851.89 Q1406.51 1851.89 1403.87 1854.91 Q1401.23 1857.93 1401.23 1863.15 L1401.23 1883.3 L1395.34 1883.3 L1395.34 1861.98 Q1395.34 1856.82 1393.53 1854.37 Q1391.71 1851.89 1387.92 1851.89 Q1383.44 1851.89 1380.79 1854.94 Q1378.15 1857.97 1378.15 1863.15 L1378.15 1883.3 L1372.26 1883.3 L1372.26 1847.65 L1378.15 1847.65 L1378.15 1853.19 Q1380.16 1849.91 1382.96 1848.35 Q1385.76 1846.79 1389.61 1846.79 Q1393.49 1846.79 1396.2 1848.77 Q1398.94 1850.74 1400.24 1854.5 Z" fill="#000000" fill-rule="evenodd" fill-opacity="1" /><path clip-path="url(#clip600)" d="M1466.48 1864.01 L1466.48 1866.88 L1439.55 1866.88 Q1439.93 1872.92 1443.18 1876.11 Q1446.46 1879.26 1452.28 1879.26 Q1455.65 1879.26 1458.81 1878.43 Q1461.99 1877.6 1465.11 1875.95 L1465.11 1881.49 Q1461.96 1882.82 1458.65 1883.52 Q1455.34 1884.22 1451.93 1884.22 Q1443.4 1884.22 1438.4 1879.26 Q1433.44 1874.29 1433.44 1865.83 Q1433.44 1857.07 1438.15 1851.95 Q1442.89 1846.79 1450.91 1846.79 Q1458.11 1846.79 1462.27 1851.44 Q1466.48 1856.06 1466.48 1864.01 M1460.62 1862.29 Q1460.56 1857.49 1457.91 1854.62 Q1455.3 1851.76 1450.98 1851.76 Q1446.07 1851.76 1443.11 1854.53 Q1440.19 1857.3 1439.74 1862.33 L1460.62 1862.29 Z" fill="#000000" fill-rule="evenodd" fill-opacity="1" /><path clip-path="url(#clip600)" d="M1510.88 1833.84 Q1506.61 1841.16 1504.54 1848.32 Q1502.47 1855.48 1502.47 1862.84 Q1502.47 1870.19 1504.54 1877.41 Q1506.64 1884.61 1510.88 1891.89 L1505.78 1891.89 Q1501.01 1884.41 1498.62 1877.19 Q1496.27 1869.96 1496.27 1862.84 Q1496.27 1855.74 1498.62 1848.54 Q1500.98 1841.35 1505.78 1833.84 L1510.88 1833.84 Z" fill="#000000" fill-rule="evenodd" fill-opacity="1" /><path clip-path="url(#clip600)" d="M1515.97 1835.78 L1522.88 1835.78 L1536.05 1855.32 L1549.13 1835.78 L1556.04 1835.78 L1539.24 1860.67 L1539.24 1883.3 L1532.77 1883.3 L1532.77 1860.67 L1515.97 1835.78 Z" fill="#000000" fill-rule="evenodd" fill-opacity="1" /><path clip-path="url(#clip600)" d="M1583.89 1864.01 L1583.89 1866.88 L1556.96 1866.88 Q1557.35 1872.92 1560.59 1876.11 Q1563.87 1879.26 1569.7 1879.26 Q1573.07 1879.26 1576.22 1878.43 Q1579.4 1877.6 1582.52 1875.95 L1582.52 1881.49 Q1579.37 1882.82 1576.06 1883.52 Q1572.75 1884.22 1569.35 1884.22 Q1560.82 1884.22 1555.82 1879.26 Q1550.85 1874.29 1550.85 1865.83 Q1550.85 1857.07 1555.56 1851.95 Q1560.31 1846.79 1568.33 1846.79 Q1575.52 1846.79 1579.69 1851.44 Q1583.89 1856.06 1583.89 1864.01 M1578.04 1862.29 Q1577.97 1857.49 1575.33 1854.62 Q1572.72 1851.76 1568.39 1851.76 Q1563.49 1851.76 1560.53 1854.53 Q1557.6 1857.3 1557.16 1862.33 L1578.04 1862.29 Z" fill="#000000" fill-rule="evenodd" fill-opacity="1" /><path clip-path="url(#clip600)" d="M1609.7 1865.38 Q1602.61 1865.38 1599.87 1867 Q1597.13 1868.63 1597.13 1872.54 Q1597.13 1875.66 1599.17 1877.51 Q1601.24 1879.32 1604.77 1879.32 Q1609.64 1879.32 1612.57 1875.88 Q1615.53 1872.42 1615.53 1866.69 L1615.53 1865.38 L1609.7 1865.38 M1621.39 1862.96 L1621.39 1883.3 L1615.53 1883.3 L1615.53 1877.89 Q1613.52 1881.14 1610.53 1882.7 Q1607.54 1884.22 1603.21 1884.22 Q1597.74 1884.22 1594.49 1881.17 Q1591.28 1878.08 1591.28 1872.92 Q1591.28 1866.91 1595.29 1863.85 Q1599.33 1860.8 1607.32 1860.8 L1615.53 1860.8 L1615.53 1860.23 Q1615.53 1856.18 1612.86 1853.99 Q1610.21 1851.76 1605.41 1851.76 Q1602.35 1851.76 1599.46 1852.49 Q1596.56 1853.22 1593.89 1854.69 L1593.89 1849.28 Q1597.1 1848.03 1600.12 1847.43 Q1603.15 1846.79 1606.01 1846.79 Q1613.75 1846.79 1617.57 1850.8 Q1621.39 1854.81 1621.39 1862.96 Z" fill="#000000" fill-rule="evenodd" fill-opacity="1" /><path clip-path="url(#clip600)" d="M1654.11 1853.13 Q1653.12 1852.55 1651.94 1852.3 Q1650.8 1852.01 1649.39 1852.01 Q1644.43 1852.01 1641.76 1855.26 Q1639.11 1858.47 1639.11 1864.52 L1639.11 1883.3 L1633.23 1883.3 L1633.23 1847.65 L1639.11 1847.65 L1639.11 1853.19 Q1640.96 1849.94 1643.92 1848.39 Q1646.88 1846.79 1651.11 1846.79 Q1651.72 1846.79 1652.45 1846.89 Q1653.18 1846.95 1654.07 1847.11 L1654.11 1853.13 Z" fill="#000000" fill-rule="evenodd" fill-opacity="1" /><path clip-path="url(#clip600)" d="M1659.33 1833.84 L1664.42 1833.84 Q1669.19 1841.35 1671.55 1848.54 Q1673.93 1855.74 1673.93 1862.84 Q1673.93 1869.96 1671.55 1877.19 Q1669.19 1884.41 1664.42 1891.89 L1659.33 1891.89 Q1663.56 1884.61 1665.63 1877.41 Q1667.73 1870.19 1667.73 1862.84 Q1667.73 1855.48 1665.63 1848.32 Q1663.56 1841.16 1659.33 1833.84 Z" fill="#000000" fill-rule="evenodd" fill-opacity="1" /><polyline clip-path="url(#clip602)" style="stroke:#000000; stroke-linecap:round; stroke-linejoin:round; stroke-width:2; stroke-opacity:0.1; fill:none" points="343.408,1688.65 2640.76,1688.65 "/>
<polyline clip-path="url(#clip602)" style="stroke:#000000; stroke-linecap:round; stroke-linejoin:round; stroke-width:2; stroke-opacity:0.1; fill:none" points="343.408,1270.3 2640.76,1270.3 "/>
<polyline clip-path="url(#clip602)" style="stroke:#000000; stroke-linecap:round; stroke-linejoin:round; stroke-width:2; stroke-opacity:0.1; fill:none" points="343.408,851.935 2640.76,851.935 "/>
<polyline clip-path="url(#clip602)" style="stroke:#000000; stroke-linecap:round; stroke-linejoin:round; stroke-width:2; stroke-opacity:0.1; fill:none" points="343.408,433.576 2640.76,433.576 "/>
<polyline clip-path="url(#clip600)" style="stroke:#000000; stroke-linecap:round; stroke-linejoin:round; stroke-width:4; stroke-opacity:1; fill:none" points="343.408,1734.12 343.408,127.792 "/>
<polyline clip-path="url(#clip600)" style="stroke:#000000; stroke-linecap:round; stroke-linejoin:round; stroke-width:4; stroke-opacity:1; fill:none" points="343.408,1688.65 362.306,1688.65 "/>
<polyline clip-path="url(#clip600)" style="stroke:#000000; stroke-linecap:round; stroke-linejoin:round; stroke-width:4; stroke-opacity:1; fill:none" points="343.408,1270.3 362.306,1270.3 "/>
<polyline clip-path="url(#clip600)" style="stroke:#000000; stroke-linecap:round; stroke-linejoin:round; stroke-width:4; stroke-opacity:1; fill:none" points="343.408,851.935 362.306,851.935 "/>
<polyline clip-path="url(#clip600)" style="stroke:#000000; stroke-linecap:round; stroke-linejoin:round; stroke-width:4; stroke-opacity:1; fill:none" points="343.408,433.576 362.306,433.576 "/>
<path clip-path="url(#clip600)" d="M291.144 1674.45 Q287.533 1674.45 285.704 1678.02 Q283.899 1681.56 283.899 1688.69 Q283.899 1695.8 285.704 1699.36 Q287.533 1702.9 291.144 1702.9 Q294.778 1702.9 296.584 1699.36 Q298.413 1695.8 298.413 1688.69 Q298.413 1681.56 296.584 1678.02 Q294.778 1674.45 291.144 1674.45 M291.144 1670.75 Q296.954 1670.75 300.01 1675.36 Q303.088 1679.94 303.088 1688.69 Q303.088 1697.42 300.01 1702.02 Q296.954 1706.61 291.144 1706.61 Q285.334 1706.61 282.255 1702.02 Q279.2 1697.42 279.2 1688.69 Q279.2 1679.94 282.255 1675.36 Q285.334 1670.75 291.144 1670.75 Z" fill="#000000" fill-rule="evenodd" fill-opacity="1" /><path clip-path="url(#clip600)" d="M118.622 1290.09 L126.261 1290.09 L126.261 1263.72 L117.951 1265.39 L117.951 1261.13 L126.214 1259.46 L130.89 1259.46 L130.89 1290.09 L138.529 1290.09 L138.529 1294.02 L118.622 1294.02 L118.622 1290.09 Z" fill="#000000" fill-rule="evenodd" fill-opacity="1" /><path clip-path="url(#clip600)" d="M147.974 1288.14 L152.858 1288.14 L152.858 1294.02 L147.974 1294.02 L147.974 1288.14 Z" fill="#000000" fill-rule="evenodd" fill-opacity="1" /><path clip-path="url(#clip600)" d="M173.043 1262.54 Q169.432 1262.54 167.603 1266.11 Q165.798 1269.65 165.798 1276.78 Q165.798 1283.88 167.603 1287.45 Q169.432 1290.99 173.043 1290.99 Q176.677 1290.99 178.483 1287.45 Q180.311 1283.88 180.311 1276.78 Q180.311 1269.65 178.483 1266.11 Q176.677 1262.54 173.043 1262.54 M173.043 1258.84 Q178.853 1258.84 181.909 1263.44 Q184.987 1268.03 184.987 1276.78 Q184.987 1285.5 181.909 1290.11 Q178.853 1294.69 173.043 1294.69 Q167.233 1294.69 164.154 1290.11 Q161.098 1285.5 161.098 1276.78 Q161.098 1268.03 164.154 1263.44 Q167.233 1258.84 173.043 1258.84 Z" fill="#000000" fill-rule="evenodd" fill-opacity="1" /><path clip-path="url(#clip600)" d="M221.376 1268.56 L210.797 1279.18 L221.376 1289.76 L218.621 1292.56 L207.996 1281.94 L197.371 1292.56 L194.64 1289.76 L205.195 1279.18 L194.64 1268.56 L197.371 1265.76 L207.996 1276.38 L218.621 1265.76 L221.376 1268.56 Z" fill="#000000" fill-rule="evenodd" fill-opacity="1" /><path clip-path="url(#clip600)" d="M233.737 1290.09 L241.376 1290.09 L241.376 1263.72 L233.066 1265.39 L233.066 1261.13 L241.33 1259.46 L246.005 1259.46 L246.005 1290.09 L253.644 1290.09 L253.644 1294.02 L233.737 1294.02 L233.737 1290.09 Z" fill="#000000" fill-rule="evenodd" fill-opacity="1" /><path clip-path="url(#clip600)" d="M273.089 1262.54 Q269.478 1262.54 267.649 1266.11 Q265.843 1269.65 265.843 1276.78 Q265.843 1283.88 267.649 1287.45 Q269.478 1290.99 273.089 1290.99 Q276.723 1290.99 278.528 1287.45 Q280.357 1283.88 280.357 1276.78 Q280.357 1269.65 278.528 1266.11 Q276.723 1262.54 273.089 1262.54 M273.089 1258.84 Q278.899 1258.84 281.954 1263.44 Q285.033 1268.03 285.033 1276.78 Q285.033 1285.5 281.954 1290.11 Q278.899 1294.69 273.089 1294.69 Q267.278 1294.69 264.2 1290.11 Q261.144 1285.5 261.144 1276.78 Q261.144 1268.03 264.2 1263.44 Q267.278 1258.84 273.089 1258.84 Z" fill="#000000" fill-rule="evenodd" fill-opacity="1" /><path clip-path="url(#clip600)" d="M285.033 1238.53 L303.088 1238.53 L303.088 1240.15 L292.895 1266.61 L288.926 1266.61 L298.518 1241.73 L285.033 1241.73 L285.033 1238.53 Z" fill="#000000" fill-rule="evenodd" fill-opacity="1" /><path clip-path="url(#clip600)" d="M121.839 871.728 L138.159 871.728 L138.159 875.663 L116.214 875.663 L116.214 871.728 Q118.876 868.973 123.46 864.344 Q128.066 859.691 129.247 858.348 Q131.492 855.825 132.372 854.089 Q133.275 852.33 133.275 850.64 Q133.275 847.885 131.33 846.149 Q129.409 844.413 126.307 844.413 Q124.108 844.413 121.654 845.177 Q119.224 845.941 116.446 847.492 L116.446 842.77 Q119.27 841.635 121.724 841.057 Q124.177 840.478 126.214 840.478 Q131.585 840.478 134.779 843.163 Q137.974 845.848 137.974 850.339 Q137.974 852.469 137.163 854.39 Q136.376 856.288 134.27 858.881 Q133.691 859.552 130.589 862.77 Q127.488 865.964 121.839 871.728 Z" fill="#000000" fill-rule="evenodd" fill-opacity="1" /><path clip-path="url(#clip600)" d="M147.974 869.783 L152.858 869.783 L152.858 875.663 L147.974 875.663 L147.974 869.783 Z" fill="#000000" fill-rule="evenodd" fill-opacity="1" /><path clip-path="url(#clip600)" d="M173.043 844.182 Q169.432 844.182 167.603 847.746 Q165.798 851.288 165.798 858.418 Q165.798 865.524 167.603 869.089 Q169.432 872.631 173.043 872.631 Q176.677 872.631 178.483 869.089 Q180.311 865.524 180.311 858.418 Q180.311 851.288 178.483 847.746 Q176.677 844.182 173.043 844.182 M173.043 840.478 Q178.853 840.478 181.909 845.084 Q184.987 849.668 184.987 858.418 Q184.987 867.145 181.909 871.751 Q178.853 876.334 173.043 876.334 Q167.233 876.334 164.154 871.751 Q161.098 867.145 161.098 858.418 Q161.098 849.668 164.154 845.084 Q167.233 840.478 173.043 840.478 Z" fill="#000000" fill-rule="evenodd" fill-opacity="1" /><path clip-path="url(#clip600)" d="M221.376 850.2 L210.797 860.825 L221.376 871.404 L218.621 874.205 L207.996 863.58 L197.371 874.205 L194.64 871.404 L205.195 860.825 L194.64 850.2 L197.371 847.399 L207.996 858.024 L218.621 847.399 L221.376 850.2 Z" fill="#000000" fill-rule="evenodd" fill-opacity="1" /><path clip-path="url(#clip600)" d="M233.737 871.728 L241.376 871.728 L241.376 845.362 L233.066 847.029 L233.066 842.77 L241.33 841.103 L246.005 841.103 L246.005 871.728 L253.644 871.728 L253.644 875.663 L233.737 875.663 L233.737 871.728 Z" fill="#000000" fill-rule="evenodd" fill-opacity="1" /><path clip-path="url(#clip600)" d="M273.089 844.182 Q269.478 844.182 267.649 847.746 Q265.843 851.288 265.843 858.418 Q265.843 865.524 267.649 869.089 Q269.478 872.631 273.089 872.631 Q276.723 872.631 278.528 869.089 Q280.357 865.524 280.357 858.418 Q280.357 851.288 278.528 847.746 Q276.723 844.182 273.089 844.182 M273.089 840.478 Q278.899 840.478 281.954 845.084 Q285.033 849.668 285.033 858.418 Q285.033 867.145 281.954 871.751 Q278.899 876.334 273.089 876.334 Q267.278 876.334 264.2 871.751 Q261.144 867.145 261.144 858.418 Q261.144 849.668 264.2 845.084 Q267.278 840.478 273.089 840.478 Z" fill="#000000" fill-rule="evenodd" fill-opacity="1" /><path clip-path="url(#clip600)" d="M285.033 820.173 L303.088 820.173 L303.088 821.79 L292.895 848.253 L288.926 848.253 L298.518 823.37 L285.033 823.37 L285.033 820.173 Z" fill="#000000" fill-rule="evenodd" fill-opacity="1" /><path clip-path="url(#clip600)" d="M131.978 438.669 Q135.335 439.387 137.21 441.655 Q139.108 443.924 139.108 447.257 Q139.108 452.373 135.589 455.174 Q132.071 457.974 125.589 457.974 Q123.413 457.974 121.099 457.535 Q118.807 457.118 116.353 456.262 L116.353 451.748 Q118.298 452.882 120.613 453.461 Q122.927 454.039 125.451 454.039 Q129.849 454.039 132.14 452.303 Q134.455 450.567 134.455 447.257 Q134.455 444.201 132.302 442.488 Q130.173 440.752 126.353 440.752 L122.326 440.752 L122.326 436.91 L126.538 436.91 Q129.988 436.91 131.816 435.544 Q133.645 434.155 133.645 431.563 Q133.645 428.901 131.747 427.489 Q129.872 426.053 126.353 426.053 Q124.432 426.053 122.233 426.47 Q120.034 426.887 117.395 427.766 L117.395 423.6 Q120.057 422.859 122.372 422.489 Q124.71 422.118 126.77 422.118 Q132.094 422.118 135.196 424.549 Q138.298 426.956 138.298 431.076 Q138.298 433.947 136.654 435.938 Q135.011 437.905 131.978 438.669 Z" fill="#000000" fill-rule="evenodd" fill-opacity="1" /><path clip-path="url(#clip600)" d="M147.974 451.424 L152.858 451.424 L152.858 457.303 L147.974 457.303 L147.974 451.424 Z" fill="#000000" fill-rule="evenodd" fill-opacity="1" /><path clip-path="url(#clip600)" d="M173.043 425.822 Q169.432 425.822 167.603 429.387 Q165.798 432.928 165.798 440.058 Q165.798 447.164 167.603 450.729 Q169.432 454.271 173.043 454.271 Q176.677 454.271 178.483 450.729 Q180.311 447.164 180.311 440.058 Q180.311 432.928 178.483 429.387 Q176.677 425.822 173.043 425.822 M173.043 422.118 Q178.853 422.118 181.909 426.725 Q184.987 431.308 184.987 440.058 Q184.987 448.785 181.909 453.391 Q178.853 457.974 173.043 457.974 Q167.233 457.974 164.154 453.391 Q161.098 448.785 161.098 440.058 Q161.098 431.308 164.154 426.725 Q167.233 422.118 173.043 422.118 Z" fill="#000000" fill-rule="evenodd" fill-opacity="1" /><path clip-path="url(#clip600)" d="M221.376 431.84 L210.797 442.465 L221.376 453.044 L218.621 455.845 L207.996 445.22 L197.371 455.845 L194.64 453.044 L205.195 442.465 L194.64 431.84 L197.371 429.039 L207.996 439.664 L218.621 429.039 L221.376 431.84 Z" fill="#000000" fill-rule="evenodd" fill-opacity="1" /><path clip-path="url(#clip600)" d="M233.737 453.368 L241.376 453.368 L241.376 427.002 L233.066 428.669 L233.066 424.41 L241.33 422.743 L246.005 422.743 L246.005 453.368 L253.644 453.368 L253.644 457.303 L233.737 457.303 L233.737 453.368 Z" fill="#000000" fill-rule="evenodd" fill-opacity="1" /><path clip-path="url(#clip600)" d="M273.089 425.822 Q269.478 425.822 267.649 429.387 Q265.843 432.928 265.843 440.058 Q265.843 447.164 267.649 450.729 Q269.478 454.271 273.089 454.271 Q276.723 454.271 278.528 450.729 Q280.357 447.164 280.357 440.058 Q280.357 432.928 278.528 429.387 Q276.723 425.822 273.089 425.822 M273.089 422.118 Q278.899 422.118 281.954 426.725 Q285.033 431.308 285.033 440.058 Q285.033 448.785 281.954 453.391 Q278.899 457.974 273.089 457.974 Q267.278 457.974 264.2 453.391 Q261.144 448.785 261.144 440.058 Q261.144 431.308 264.2 426.725 Q267.278 422.118 273.089 422.118 Z" fill="#000000" fill-rule="evenodd" fill-opacity="1" /><path clip-path="url(#clip600)" d="M285.033 401.813 L303.088 401.813 L303.088 403.43 L292.895 429.893 L288.926 429.893 L298.518 405.01 L285.033 405.01 L285.033 401.813 Z" fill="#000000" fill-rule="evenodd" fill-opacity="1" /><path clip-path="url(#clip600)" d="M14.1184 1699.15 L14.1184 1692.72 L61.6384 1692.72 L61.6384 1699.15 L14.1184 1699.15 Z" fill="#000000" fill-rule="evenodd" fill-opacity="1" /><path clip-path="url(#clip600)" d="M40.1224 1650.55 L61.6384 1650.55 L61.6384 1656.41 L40.3133 1656.41 Q35.2526 1656.41 32.7381 1658.38 Q30.2237 1660.35 30.2237 1664.3 Q30.2237 1669.04 33.2474 1671.78 Q36.2711 1674.52 41.491 1674.52 L61.6384 1674.52 L61.6384 1680.41 L25.9905 1680.41 L25.9905 1674.52 L31.5287 1674.52 Q28.314 1672.42 26.7225 1669.58 Q25.1311 1666.72 25.1311 1662.99 Q25.1311 1656.85 28.9505 1653.7 Q32.7381 1650.55 40.1224 1650.55 Z" fill="#000000" fill-rule="evenodd" fill-opacity="1" /><path clip-path="url(#clip600)" d="M27.3591 1613.22 L32.8336 1613.22 Q31.465 1615.7 30.7966 1618.21 Q30.0964 1620.69 30.0964 1623.24 Q30.0964 1628.94 33.7248 1632.09 Q37.3214 1635.24 43.8463 1635.24 Q50.3711 1635.24 53.9996 1632.09 Q57.5962 1628.94 57.5962 1623.24 Q57.5962 1620.69 56.9278 1618.21 Q56.2276 1615.7 54.859 1613.22 L60.2698 1613.22 Q61.4156 1615.67 61.9886 1618.31 Q62.5615 1620.92 62.5615 1623.88 Q62.5615 1631.93 57.5007 1636.67 Q52.44 1641.42 43.8463 1641.42 Q35.1253 1641.42 30.1282 1636.64 Q25.1311 1631.83 25.1311 1623.5 Q25.1311 1620.79 25.704 1618.21 Q26.2451 1615.63 27.3591 1613.22 Z" fill="#000000" fill-rule="evenodd" fill-opacity="1" /><path clip-path="url(#clip600)" d="M31.465 1582.37 Q30.8921 1583.36 30.6375 1584.54 Q30.351 1585.68 30.351 1587.08 Q30.351 1592.05 33.5975 1594.72 Q36.8122 1597.36 42.8596 1597.36 L61.6384 1597.36 L61.6384 1603.25 L25.9905 1603.25 L25.9905 1597.36 L31.5287 1597.36 Q28.2821 1595.52 26.7225 1592.56 Q25.1311 1589.6 25.1311 1585.37 Q25.1311 1584.76 25.2266 1584.03 Q25.2903 1583.3 25.4494 1582.41 L31.465 1582.37 Z" fill="#000000" fill-rule="evenodd" fill-opacity="1" /><path clip-path="url(#clip600)" d="M42.3504 1547.17 L45.2149 1547.17 L45.2149 1574.1 Q51.2623 1573.72 54.4452 1570.47 Q57.5962 1567.19 57.5962 1561.37 Q57.5962 1557.99 56.7687 1554.84 Q55.9411 1551.66 54.2861 1548.54 L59.8242 1548.54 Q61.161 1551.69 61.8612 1555 Q62.5615 1558.31 62.5615 1561.72 Q62.5615 1570.25 57.5962 1575.24 Q52.631 1580.21 44.1646 1580.21 Q35.4117 1580.21 30.2873 1575.5 Q25.1311 1570.76 25.1311 1562.74 Q25.1311 1555.54 29.7781 1551.37 Q34.3932 1547.17 42.3504 1547.17 M40.6316 1553.03 Q35.8255 1553.09 32.9609 1555.73 Q30.0964 1558.34 30.0964 1562.67 Q30.0964 1567.57 32.8654 1570.53 Q35.6345 1573.46 40.6634 1573.91 L40.6316 1553.03 Z" fill="#000000" fill-rule="evenodd" fill-opacity="1" /><path clip-path="url(#clip600)" d="M43.719 1521.36 Q43.719 1528.46 45.3422 1531.19 Q46.9655 1533.93 50.8804 1533.93 Q53.9996 1533.93 55.8457 1531.89 Q57.6599 1529.82 57.6599 1526.29 Q57.6599 1521.42 54.2224 1518.49 Q50.7531 1515.53 45.0239 1515.53 L43.719 1515.53 L43.719 1521.36 M41.3 1509.68 L61.6384 1509.68 L61.6384 1515.53 L56.2276 1515.53 Q59.4741 1517.54 61.0337 1520.53 Q62.5615 1523.52 62.5615 1527.85 Q62.5615 1533.33 59.5059 1536.57 Q56.4186 1539.79 51.2623 1539.79 Q45.2467 1539.79 42.1912 1535.78 Q39.1357 1531.73 39.1357 1523.75 L39.1357 1515.53 L38.5628 1515.53 Q34.5205 1515.53 32.3244 1518.21 Q30.0964 1520.85 30.0964 1525.65 Q30.0964 1528.71 30.8284 1531.61 Q31.5605 1534.5 33.0246 1537.18 L27.6137 1537.18 Q26.3724 1533.96 25.7677 1530.94 Q25.1311 1527.91 25.1311 1525.05 Q25.1311 1517.32 29.1415 1513.5 Q33.1519 1509.68 41.3 1509.68 Z" fill="#000000" fill-rule="evenodd" fill-opacity="1" /><path clip-path="url(#clip600)" d="M32.8336 1469.86 Q28.8869 1467.66 27.009 1464.61 Q25.1311 1461.55 25.1311 1457.41 Q25.1311 1451.84 29.046 1448.82 Q32.9291 1445.8 40.1224 1445.8 L61.6384 1445.8 L61.6384 1451.69 L40.3133 1451.69 Q35.1889 1451.69 32.7063 1453.5 Q30.2237 1455.31 30.2237 1459.04 Q30.2237 1463.59 33.2474 1466.23 Q36.2711 1468.87 41.491 1468.87 L61.6384 1468.87 L61.6384 1474.76 L40.3133 1474.76 Q35.1571 1474.76 32.7063 1476.58 Q30.2237 1478.39 30.2237 1482.18 Q30.2237 1486.66 33.2792 1489.31 Q36.3029 1491.95 41.491 1491.95 L61.6384 1491.95 L61.6384 1497.84 L25.9905 1497.84 L25.9905 1491.95 L31.5287 1491.95 Q28.2503 1489.94 26.6907 1487.14 Q25.1311 1484.34 25.1311 1480.49 Q25.1311 1476.61 27.1045 1473.9 Q29.0779 1471.16 32.8336 1469.86 Z" fill="#000000" fill-rule="evenodd" fill-opacity="1" /><path clip-path="url(#clip600)" d="M42.3504 1403.62 L45.2149 1403.62 L45.2149 1430.55 Q51.2623 1430.17 54.4452 1426.92 Q57.5962 1423.64 57.5962 1417.82 Q57.5962 1414.45 56.7687 1411.29 Q55.9411 1408.11 54.2861 1404.99 L59.8242 1404.99 Q61.161 1408.14 61.8612 1411.45 Q62.5615 1414.76 62.5615 1418.17 Q62.5615 1426.7 57.5962 1431.7 Q52.631 1436.66 44.1646 1436.66 Q35.4117 1436.66 30.2873 1431.95 Q25.1311 1427.21 25.1311 1419.19 Q25.1311 1412 29.7781 1407.83 Q34.3932 1403.62 42.3504 1403.62 M40.6316 1409.48 Q35.8255 1409.54 32.9609 1412.19 Q30.0964 1414.8 30.0964 1419.12 Q30.0964 1424.03 32.8654 1426.99 Q35.6345 1429.91 40.6634 1430.36 L40.6316 1409.48 Z" fill="#000000" fill-rule="evenodd" fill-opacity="1" /><path clip-path="url(#clip600)" d="M40.1224 1364.38 L61.6384 1364.38 L61.6384 1370.24 L40.3133 1370.24 Q35.2526 1370.24 32.7381 1372.21 Q30.2237 1374.18 30.2237 1378.13 Q30.2237 1382.87 33.2474 1385.61 Q36.2711 1388.35 41.491 1388.35 L61.6384 1388.35 L61.6384 1394.23 L25.9905 1394.23 L25.9905 1388.35 L31.5287 1388.35 Q28.314 1386.25 26.7225 1383.41 Q25.1311 1380.55 25.1311 1376.82 Q25.1311 1370.68 28.9505 1367.53 Q32.7381 1364.38 40.1224 1364.38 Z" fill="#000000" fill-rule="evenodd" fill-opacity="1" /><path clip-path="url(#clip600)" d="M15.869 1346.91 L25.9905 1346.91 L25.9905 1334.84 L30.542 1334.84 L30.542 1346.91 L49.8937 1346.91 Q54.2542 1346.91 55.4955 1345.73 Q56.7368 1344.52 56.7368 1340.86 L56.7368 1334.84 L61.6384 1334.84 L61.6384 1340.86 Q61.6384 1347.64 59.124 1350.22 Q56.5777 1352.79 49.8937 1352.79 L30.542 1352.79 L30.542 1357.09 L25.9905 1357.09 L25.9905 1352.79 L15.869 1352.79 L15.869 1346.91 Z" fill="#000000" fill-rule="evenodd" fill-opacity="1" /><path clip-path="url(#clip600)" d="M43.719 1310.94 Q43.719 1318.04 45.3422 1320.77 Q46.9655 1323.51 50.8804 1323.51 Q53.9996 1323.51 55.8457 1321.47 Q57.6599 1319.41 57.6599 1315.87 Q57.6599 1311 54.2224 1308.07 Q50.7531 1305.11 45.0239 1305.11 L43.719 1305.11 L43.719 1310.94 M41.3 1299.26 L61.6384 1299.26 L61.6384 1305.11 L56.2276 1305.11 Q59.4741 1307.12 61.0337 1310.11 Q62.5615 1313.1 62.5615 1317.43 Q62.5615 1322.91 59.5059 1326.15 Q56.4186 1329.37 51.2623 1329.37 Q45.2467 1329.37 42.1912 1325.36 Q39.1357 1321.32 39.1357 1313.33 L39.1357 1305.11 L38.5628 1305.11 Q34.5205 1305.11 32.3244 1307.79 Q30.0964 1310.43 30.0964 1315.24 Q30.0964 1318.29 30.8284 1321.19 Q31.5605 1324.08 33.0246 1326.76 L27.6137 1326.76 Q26.3724 1323.54 25.7677 1320.52 Q25.1311 1317.5 25.1311 1314.63 Q25.1311 1306.9 29.1415 1303.08 Q33.1519 1299.26 41.3 1299.26 Z" fill="#000000" fill-rule="evenodd" fill-opacity="1" /><path clip-path="url(#clip600)" d="M12.1132 1287.2 L12.1132 1281.34 L61.6384 1281.34 L61.6384 1287.2 L12.1132 1287.2 Z" fill="#000000" fill-rule="evenodd" fill-opacity="1" /><path clip-path="url(#clip600)" d="M40.1224 1218.73 L61.6384 1218.73 L61.6384 1224.59 L40.3133 1224.59 Q35.2526 1224.59 32.7381 1226.56 Q30.2237 1228.54 30.2237 1232.48 Q30.2237 1237.22 33.2474 1239.96 Q36.2711 1242.7 41.491 1242.7 L61.6384 1242.7 L61.6384 1248.59 L12.1132 1248.59 L12.1132 1242.7 L31.5287 1242.7 Q28.314 1240.6 26.7225 1237.77 Q25.1311 1234.9 25.1311 1231.18 Q25.1311 1225.03 28.9505 1221.88 Q32.7381 1218.73 40.1224 1218.73 Z" fill="#000000" fill-rule="evenodd" fill-opacity="1" /><path clip-path="url(#clip600)" d="M42.3504 1176.56 L45.2149 1176.56 L45.2149 1203.49 Q51.2623 1203.1 54.4452 1199.86 Q57.5962 1196.58 57.5962 1190.75 Q57.5962 1187.38 56.7687 1184.23 Q55.9411 1181.05 54.2861 1177.93 L59.8242 1177.93 Q61.161 1181.08 61.8612 1184.39 Q62.5615 1187.7 62.5615 1191.11 Q62.5615 1199.64 57.5962 1204.63 Q52.631 1209.6 44.1646 1209.6 Q35.4117 1209.6 30.2873 1204.89 Q25.1311 1200.14 25.1311 1192.12 Q25.1311 1184.93 29.7781 1180.76 Q34.3932 1176.56 42.3504 1176.56 M40.6316 1182.42 Q35.8255 1182.48 32.9609 1185.12 Q30.0964 1187.73 30.0964 1192.06 Q30.0964 1196.96 32.8654 1199.92 Q35.6345 1202.85 40.6634 1203.3 L40.6316 1182.42 Z" fill="#000000" fill-rule="evenodd" fill-opacity="1" /><path clip-path="url(#clip600)" d="M43.719 1150.75 Q43.719 1157.84 45.3422 1160.58 Q46.9655 1163.32 50.8804 1163.32 Q53.9996 1163.32 55.8457 1161.28 Q57.6599 1159.21 57.6599 1155.68 Q57.6599 1150.81 54.2224 1147.88 Q50.7531 1144.92 45.0239 1144.92 L43.719 1144.92 L43.719 1150.75 M41.3 1139.07 L61.6384 1139.07 L61.6384 1144.92 L56.2276 1144.92 Q59.4741 1146.93 61.0337 1149.92 Q62.5615 1152.91 62.5615 1157.24 Q62.5615 1162.71 59.5059 1165.96 Q56.4186 1169.18 51.2623 1169.18 Q45.2467 1169.18 42.1912 1165.16 Q39.1357 1161.12 39.1357 1153.13 L39.1357 1144.92 L38.5628 1144.92 Q34.5205 1144.92 32.3244 1147.6 Q30.0964 1150.24 30.0964 1155.04 Q30.0964 1158.1 30.8284 1161 Q31.5605 1163.89 33.0246 1166.57 L27.6137 1166.57 Q26.3724 1163.35 25.7677 1160.33 Q25.1311 1157.3 25.1311 1154.44 Q25.1311 1146.7 29.1415 1142.88 Q33.1519 1139.07 41.3 1139.07 Z" fill="#000000" fill-rule="evenodd" fill-opacity="1" /><path clip-path="url(#clip600)" d="M15.869 1121.21 L25.9905 1121.21 L25.9905 1109.15 L30.542 1109.15 L30.542 1121.21 L49.8937 1121.21 Q54.2542 1121.21 55.4955 1120.03 Q56.7368 1118.82 56.7368 1115.16 L56.7368 1109.15 L61.6384 1109.15 L61.6384 1115.16 Q61.6384 1121.94 59.124 1124.52 Q56.5777 1127.1 49.8937 1127.1 L30.542 1127.1 L30.542 1131.39 L25.9905 1131.39 L25.9905 1127.1 L15.869 1127.1 L15.869 1121.21 Z" fill="#000000" fill-rule="evenodd" fill-opacity="1" /><path clip-path="url(#clip600)" d="M12.1132 1080.72 L12.1132 1074.87 L61.6384 1074.87 L61.6384 1080.72 L12.1132 1080.72 Z" fill="#000000" fill-rule="evenodd" fill-opacity="1" /><path clip-path="url(#clip600)" d="M30.0964 1048.8 Q30.0964 1053.51 33.7885 1056.25 Q37.4488 1058.98 43.8463 1058.98 Q50.2438 1058.98 53.9359 1056.28 Q57.5962 1053.54 57.5962 1048.8 Q57.5962 1044.12 53.9041 1041.38 Q50.212 1038.65 43.8463 1038.65 Q37.5124 1038.65 33.8203 1041.38 Q30.0964 1044.12 30.0964 1048.8 M25.1311 1048.8 Q25.1311 1041.16 30.0964 1036.8 Q35.0616 1032.44 43.8463 1032.44 Q52.5991 1032.44 57.5962 1036.8 Q62.5615 1041.16 62.5615 1048.8 Q62.5615 1056.47 57.5962 1060.83 Q52.5991 1065.16 43.8463 1065.16 Q35.0616 1065.16 30.0964 1060.83 Q25.1311 1056.47 25.1311 1048.8 Z" fill="#000000" fill-rule="evenodd" fill-opacity="1" /><path clip-path="url(#clip600)" d="M27.0408 1000.01 L32.579 1000.01 Q31.3059 1002.49 30.6693 1005.16 Q30.0327 1007.84 30.0327 1010.7 Q30.0327 1015.06 31.3695 1017.26 Q32.7063 1019.42 35.3799 1019.42 Q37.4169 1019.42 38.5946 1017.86 Q39.7404 1016.3 40.7908 1011.59 L41.2364 1009.59 Q42.5732 1003.35 45.0239 1000.74 Q47.4429 998.097 51.8034 998.097 Q56.7687 998.097 59.6651 1002.04 Q62.5615 1005.96 62.5615 1012.83 Q62.5615 1015.7 61.9886 1018.82 Q61.4475 1021.9 60.3335 1025.34 L54.2861 1025.34 Q55.973 1022.1 56.8323 1018.94 Q57.6599 1015.79 57.6599 1012.71 Q57.6599 1008.57 56.2594 1006.34 Q54.8271 1004.11 52.249 1004.11 Q49.8619 1004.11 48.5887 1005.74 Q47.3156 1007.33 46.1379 1012.77 L45.6605 1014.81 Q44.5147 1020.25 42.1594 1022.67 Q39.7722 1025.09 35.6345 1025.09 Q30.6056 1025.09 27.8684 1021.52 Q25.1311 1017.96 25.1311 1011.4 Q25.1311 1008.15 25.6085 1005.29 Q26.086 1002.43 27.0408 1000.01 Z" fill="#000000" fill-rule="evenodd" fill-opacity="1" /><path clip-path="url(#clip600)" d="M27.0408 966.046 L32.579 966.046 Q31.3059 968.528 30.6693 971.202 Q30.0327 973.875 30.0327 976.74 Q30.0327 981.1 31.3695 983.297 Q32.7063 985.461 35.3799 985.461 Q37.4169 985.461 38.5946 983.901 Q39.7404 982.342 40.7908 977.631 L41.2364 975.626 Q42.5732 969.388 45.0239 966.778 Q47.4429 964.136 51.8034 964.136 Q56.7687 964.136 59.6651 968.083 Q62.5615 971.997 62.5615 978.872 Q62.5615 981.737 61.9886 984.856 Q61.4475 987.944 60.3335 991.381 L54.2861 991.381 Q55.973 988.135 56.8323 984.983 Q57.6599 981.832 57.6599 978.745 Q57.6599 974.607 56.2594 972.379 Q54.8271 970.151 52.249 970.151 Q49.8619 970.151 48.5887 971.775 Q47.3156 973.366 46.1379 978.809 L45.6605 980.846 Q44.5147 986.288 42.1594 988.707 Q39.7722 991.126 35.6345 991.126 Q30.6056 991.126 27.8684 987.562 Q25.1311 983.997 25.1311 977.44 Q25.1311 974.194 25.6085 971.329 Q26.086 968.464 27.0408 966.046 Z" fill="#000000" fill-rule="evenodd" fill-opacity="1" /><path clip-path="url(#clip600)" d="M15.869 928.297 L25.9905 928.297 L25.9905 916.234 L30.542 916.234 L30.542 928.297 L49.8937 928.297 Q54.2542 928.297 55.4955 927.119 Q56.7368 925.91 56.7368 922.249 L56.7368 916.234 L61.6384 916.234 L61.6384 922.249 Q61.6384 929.029 59.124 931.607 Q56.5777 934.185 49.8937 934.185 L30.542 934.185 L30.542 938.482 L25.9905 938.482 L25.9905 934.185 L15.869 934.185 L15.869 928.297 Z" fill="#000000" fill-rule="evenodd" fill-opacity="1" /><path clip-path="url(#clip600)" d="M30.0964 894.718 Q30.0964 899.428 33.7885 902.166 Q37.4488 904.903 43.8463 904.903 Q50.2438 904.903 53.9359 902.197 Q57.5962 899.46 57.5962 894.718 Q57.5962 890.039 53.9041 887.302 Q50.212 884.564 43.8463 884.564 Q37.5124 884.564 33.8203 887.302 Q30.0964 890.039 30.0964 894.718 M25.1311 894.718 Q25.1311 887.079 30.0964 882.718 Q35.0616 878.358 43.8463 878.358 Q52.5991 878.358 57.5962 882.718 Q62.5615 887.079 62.5615 894.718 Q62.5615 902.388 57.5962 906.749 Q52.5991 911.078 43.8463 911.078 Q35.0616 911.078 30.0964 906.749 Q25.1311 902.388 25.1311 894.718 Z" fill="#000000" fill-rule="evenodd" fill-opacity="1" /><path clip-path="url(#clip600)" d="M30.0964 834.116 Q30.0964 838.827 33.7885 841.564 Q37.4488 844.301 43.8463 844.301 Q50.2438 844.301 53.9359 841.596 Q57.5962 838.859 57.5962 834.116 Q57.5962 829.437 53.9041 826.7 Q50.212 823.963 43.8463 823.963 Q37.5124 823.963 33.8203 826.7 Q30.0964 829.437 30.0964 834.116 M25.1311 834.116 Q25.1311 826.477 30.0964 822.117 Q35.0616 817.756 43.8463 817.756 Q52.5991 817.756 57.5962 822.117 Q62.5615 826.477 62.5615 834.116 Q62.5615 841.787 57.5962 846.147 Q52.5991 850.476 43.8463 850.476 Q35.0616 850.476 30.0964 846.147 Q25.1311 841.787 25.1311 834.116 Z" fill="#000000" fill-rule="evenodd" fill-opacity="1" /><path clip-path="url(#clip600)" d="M25.9905 812.25 L25.9905 806.043 L55.9093 794.903 L25.9905 783.764 L25.9905 777.557 L61.6384 790.925 L61.6384 798.882 L25.9905 812.25 Z" fill="#000000" fill-rule="evenodd" fill-opacity="1" /><path clip-path="url(#clip600)" d="M42.3504 738.981 L45.2149 738.981 L45.2149 765.908 Q51.2623 765.526 54.4452 762.279 Q57.5962 759.001 57.5962 753.176 Q57.5962 749.802 56.7687 746.651 Q55.9411 743.469 54.2861 740.349 L59.8242 740.349 Q61.161 743.5 61.8612 746.811 Q62.5615 750.121 62.5615 753.526 Q62.5615 762.056 57.5962 767.054 Q52.631 772.019 44.1646 772.019 Q35.4117 772.019 30.2873 767.308 Q25.1311 762.566 25.1311 754.545 Q25.1311 747.352 29.7781 743.182 Q34.3932 738.981 42.3504 738.981 M40.6316 744.837 Q35.8255 744.901 32.9609 747.543 Q30.0964 750.153 30.0964 754.481 Q30.0964 759.383 32.8654 762.343 Q35.6345 765.271 40.6634 765.717 L40.6316 744.837 Z" fill="#000000" fill-rule="evenodd" fill-opacity="1" /><path clip-path="url(#clip600)" d="M31.465 708.712 Q30.8921 709.699 30.6375 710.876 Q30.351 712.022 30.351 713.422 Q30.351 718.388 33.5975 721.061 Q36.8122 723.703 42.8596 723.703 L61.6384 723.703 L61.6384 729.591 L25.9905 729.591 L25.9905 723.703 L31.5287 723.703 Q28.2821 721.857 26.7225 718.897 Q25.1311 715.937 25.1311 711.704 Q25.1311 711.099 25.2266 710.367 Q25.2903 709.635 25.4494 708.744 L31.465 708.712 Z" fill="#000000" fill-rule="evenodd" fill-opacity="1" /><path clip-path="url(#clip600)" d="M43.8463 676.979 Q37.3851 676.979 33.7248 679.652 Q30.0327 682.294 30.0327 686.941 Q30.0327 691.588 33.7248 694.262 Q37.3851 696.903 43.8463 696.903 Q50.3075 696.903 53.9996 694.262 Q57.6599 691.588 57.6599 686.941 Q57.6599 682.294 53.9996 679.652 Q50.3075 676.979 43.8463 676.979 M31.4013 696.903 Q28.2185 695.057 26.6907 692.256 Q25.1311 689.424 25.1311 685.509 Q25.1311 679.016 30.2873 674.974 Q35.4436 670.9 43.8463 670.9 Q52.249 670.9 57.4052 674.974 Q62.5615 679.016 62.5615 685.509 Q62.5615 689.424 61.0337 692.256 Q59.4741 695.057 56.2912 696.903 L61.6384 696.903 L61.6384 702.792 L12.1132 702.792 L12.1132 696.903 L31.4013 696.903 Z" fill="#000000" fill-rule="evenodd" fill-opacity="1" /><path clip-path="url(#clip600)" d="M47.5702 661.797 L25.9905 661.797 L25.9905 655.94 L47.3474 655.94 Q52.4082 655.94 54.9545 653.967 Q57.4689 651.993 57.4689 648.047 Q57.4689 643.304 54.4452 640.567 Q51.4215 637.798 46.2016 637.798 L25.9905 637.798 L25.9905 631.941 L61.6384 631.941 L61.6384 637.798 L56.1639 637.798 Q59.4104 639.93 61.0019 642.763 Q62.5615 645.564 62.5615 649.288 Q62.5615 655.431 58.742 658.614 Q54.9226 661.797 47.5702 661.797 M25.1311 647.06 L25.1311 647.06 Z" fill="#000000" fill-rule="evenodd" fill-opacity="1" /><path clip-path="url(#clip600)" d="M31.465 599.222 Q30.8921 600.208 30.6375 601.386 Q30.351 602.532 30.351 603.932 Q30.351 608.898 33.5975 611.571 Q36.8122 614.213 42.8596 614.213 L61.6384 614.213 L61.6384 620.101 L25.9905 620.101 L25.9905 614.213 L31.5287 614.213 Q28.2821 612.367 26.7225 609.407 Q25.1311 606.447 25.1311 602.214 Q25.1311 601.609 25.2266 600.877 Q25.2903 600.145 25.4494 599.253 L31.465 599.222 Z" fill="#000000" fill-rule="evenodd" fill-opacity="1" /><path clip-path="url(#clip600)" d="M31.4013 570.767 L12.1132 570.767 L12.1132 564.911 L61.6384 564.911 L61.6384 570.767 L56.2912 570.767 Q59.4741 572.613 61.0337 575.446 Q62.5615 578.247 62.5615 582.193 Q62.5615 588.655 57.4052 592.729 Q52.249 596.771 43.8463 596.771 Q35.4436 596.771 30.2873 592.729 Q25.1311 588.655 25.1311 582.193 Q25.1311 578.247 26.6907 575.446 Q28.2185 572.613 31.4013 570.767 M43.8463 590.723 Q50.3075 590.723 53.9996 588.082 Q57.6599 585.408 57.6599 580.761 Q57.6599 576.114 53.9996 573.441 Q50.3075 570.767 43.8463 570.767 Q37.3851 570.767 33.7248 573.441 Q30.0327 576.114 30.0327 580.761 Q30.0327 585.408 33.7248 588.082 Q37.3851 590.723 43.8463 590.723 Z" fill="#000000" fill-rule="evenodd" fill-opacity="1" /><path clip-path="url(#clip600)" d="M42.3504 522.356 L45.2149 522.356 L45.2149 549.283 Q51.2623 548.901 54.4452 545.654 Q57.5962 542.376 57.5962 536.551 Q57.5962 533.177 56.7687 530.026 Q55.9411 526.844 54.2861 523.724 L59.8242 523.724 Q61.161 526.875 61.8612 530.186 Q62.5615 533.496 62.5615 536.901 Q62.5615 545.431 57.5962 550.429 Q52.631 555.394 44.1646 555.394 Q35.4117 555.394 30.2873 550.683 Q25.1311 545.941 25.1311 537.92 Q25.1311 530.727 29.7781 526.557 Q34.3932 522.356 42.3504 522.356 M40.6316 528.212 Q35.8255 528.276 32.9609 530.918 Q30.0964 533.528 30.0964 537.856 Q30.0964 542.758 32.8654 545.718 Q35.6345 548.646 40.6634 549.092 L40.6316 528.212 Z" fill="#000000" fill-rule="evenodd" fill-opacity="1" /><path clip-path="url(#clip600)" d="M40.1224 483.111 L61.6384 483.111 L61.6384 488.968 L40.3133 488.968 Q35.2526 488.968 32.7381 490.941 Q30.2237 492.914 30.2237 496.861 Q30.2237 501.604 33.2474 504.341 Q36.2711 507.078 41.491 507.078 L61.6384 507.078 L61.6384 512.966 L25.9905 512.966 L25.9905 507.078 L31.5287 507.078 Q28.314 504.977 26.7225 502.145 Q25.1311 499.28 25.1311 495.556 Q25.1311 489.413 28.9505 486.262 Q32.7381 483.111 40.1224 483.111 Z" fill="#000000" fill-rule="evenodd" fill-opacity="1" /><path clip-path="url(#clip600)" d="M12.1769 436.642 Q19.4975 440.907 26.6589 442.975 Q33.8203 445.044 41.1727 445.044 Q48.5251 445.044 55.7502 442.975 Q62.9434 440.875 70.2321 436.642 L70.2321 441.734 Q62.7524 446.508 55.5274 448.896 Q48.3023 451.251 41.1727 451.251 Q34.0749 451.251 26.8817 448.896 Q19.6884 446.54 12.1769 441.734 L12.1769 436.642 Z" fill="#000000" fill-rule="evenodd" fill-opacity="1" /><path clip-path="url(#clip600)" d="M14.1184 425.024 L14.1184 415.444 L46.4562 403.317 L14.1184 391.127 L14.1184 381.546 L61.6384 381.546 L61.6384 387.817 L19.9112 387.817 L52.5037 400.071 L52.5037 406.532 L19.9112 418.786 L61.6384 418.786 L61.6384 425.024 L14.1184 425.024 Z" fill="#000000" fill-rule="evenodd" fill-opacity="1" /><path clip-path="url(#clip600)" d="M14.1184 368.783 L14.1184 362.354 L58.3283 362.354 Q66.922 362.354 70.8051 365.632 Q74.6881 368.879 74.6881 376.104 L74.6881 378.554 L69.2773 378.554 L69.2773 376.549 Q69.2773 372.284 66.8902 370.534 Q64.503 368.783 58.3283 368.783 L14.1184 368.783 Z" fill="#000000" fill-rule="evenodd" fill-opacity="1" /><path clip-path="url(#clip600)" d="M30.0964 336 Q30.0964 340.71 33.7885 343.448 Q37.4488 346.185 43.8463 346.185 Q50.2438 346.185 53.9359 343.479 Q57.5962 340.742 57.5962 336 Q57.5962 331.321 53.9041 328.584 Q50.212 325.846 43.8463 325.846 Q37.5124 325.846 33.8203 328.584 Q30.0964 331.321 30.0964 336 M25.1311 336 Q25.1311 328.361 30.0964 324 Q35.0616 319.64 43.8463 319.64 Q52.5991 319.64 57.5962 324 Q62.5615 328.361 62.5615 336 Q62.5615 343.67 57.5962 348.031 Q52.5991 352.36 43.8463 352.36 Q35.0616 352.36 30.0964 348.031 Q25.1311 343.67 25.1311 336 Z" fill="#000000" fill-rule="evenodd" fill-opacity="1" /><path clip-path="url(#clip600)" d="M47.5702 310.537 L25.9905 310.537 L25.9905 304.68 L47.3474 304.68 Q52.4082 304.68 54.9545 302.707 Q57.4689 300.734 57.4689 296.787 Q57.4689 292.044 54.4452 289.307 Q51.4215 286.538 46.2016 286.538 L25.9905 286.538 L25.9905 280.682 L61.6384 280.682 L61.6384 286.538 L56.1639 286.538 Q59.4104 288.671 61.0019 291.503 Q62.5615 294.304 62.5615 298.028 Q62.5615 304.171 58.742 307.354 Q54.9226 310.537 47.5702 310.537 M25.1311 295.8 L25.1311 295.8 Z" fill="#000000" fill-rule="evenodd" fill-opacity="1" /><path clip-path="url(#clip600)" d="M12.1132 268.619 L12.1132 262.762 L61.6384 262.762 L61.6384 268.619 L12.1132 268.619 Z" fill="#000000" fill-rule="evenodd" fill-opacity="1" /><path clip-path="url(#clip600)" d="M42.3504 220.017 L45.2149 220.017 L45.2149 246.943 Q51.2623 246.562 54.4452 243.315 Q57.5962 240.037 57.5962 234.212 Q57.5962 230.838 56.7687 227.687 Q55.9411 224.504 54.2861 221.385 L59.8242 221.385 Q61.161 224.536 61.8612 227.846 Q62.5615 231.157 62.5615 234.562 Q62.5615 243.092 57.5962 248.089 Q52.631 253.055 44.1646 253.055 Q35.4117 253.055 30.2873 248.344 Q25.1311 243.601 25.1311 235.581 Q25.1311 228.387 29.7781 224.218 Q34.3932 220.017 42.3504 220.017 M40.6316 225.873 Q35.8255 225.937 32.9609 228.578 Q30.0964 231.188 30.0964 235.517 Q30.0964 240.419 32.8654 243.379 Q35.6345 246.307 40.6634 246.752 L40.6316 225.873 Z" fill="#000000" fill-rule="evenodd" fill-opacity="1" /><path clip-path="url(#clip600)" d="M27.0408 187.679 L32.579 187.679 Q31.3059 190.161 30.6693 192.835 Q30.0327 195.509 30.0327 198.373 Q30.0327 202.734 31.3695 204.93 Q32.7063 207.094 35.3799 207.094 Q37.4169 207.094 38.5946 205.535 Q39.7404 203.975 40.7908 199.264 L41.2364 197.259 Q42.5732 191.021 45.0239 188.411 Q47.4429 185.769 51.8034 185.769 Q56.7687 185.769 59.6651 189.716 Q62.5615 193.631 62.5615 200.506 Q62.5615 203.37 61.9886 206.489 Q61.4475 209.577 60.3335 213.014 L54.2861 213.014 Q55.973 209.768 56.8323 206.617 Q57.6599 203.466 57.6599 200.378 Q57.6599 196.241 56.2594 194.013 Q54.8271 191.785 52.249 191.785 Q49.8619 191.785 48.5887 193.408 Q47.3156 194.999 46.1379 200.442 L45.6605 202.479 Q44.5147 207.922 42.1594 210.341 Q39.7722 212.76 35.6345 212.76 Q30.6056 212.76 27.8684 209.195 Q25.1311 205.63 25.1311 199.073 Q25.1311 195.827 25.6085 192.962 Q26.086 190.098 27.0408 187.679 Z" fill="#000000" fill-rule="evenodd" fill-opacity="1" /><path clip-path="url(#clip600)" d="M12.1769 177.366 L12.1769 172.274 Q19.6884 167.499 26.8817 165.144 Q34.0749 162.757 41.1727 162.757 Q48.3023 162.757 55.5274 165.144 Q62.7524 167.499 70.2321 172.274 L70.2321 177.366 Q62.9434 173.133 55.7502 171.064 Q48.5251 168.964 41.1727 168.964 Q33.8203 168.964 26.6589 171.064 Q19.4975 173.133 12.1769 177.366 Z" fill="#000000" fill-rule="evenodd" fill-opacity="1" /><path clip-path="url(#clip600)" d="M693.183 12.096 L701.366 12.096 L701.366 72.576 L693.183 72.576 L693.183 12.096 Z" fill="#000000" fill-rule="evenodd" fill-opacity="1" /><path clip-path="url(#clip600)" d="M755.04 45.1919 L755.04 72.576 L747.587 72.576 L747.587 45.4349 Q747.587 38.994 745.075 35.7938 Q742.564 32.5936 737.54 32.5936 Q731.505 32.5936 728.021 36.4419 Q724.537 40.2903 724.537 46.9338 L724.537 72.576 L717.043 72.576 L717.043 27.2059 L724.537 27.2059 L724.537 34.2544 Q727.211 30.163 730.816 28.1376 Q734.462 26.1121 739.201 26.1121 Q747.02 26.1121 751.03 30.9732 Q755.04 35.7938 755.04 45.1919 Z" fill="#000000" fill-rule="evenodd" fill-opacity="1" /><path clip-path="url(#clip600)" d="M802.558 28.9478 L802.558 35.9153 Q799.398 34.1734 796.198 33.3227 Q793.038 32.4315 789.797 32.4315 Q782.546 32.4315 778.536 37.0496 Q774.525 41.6271 774.525 49.9314 Q774.525 58.2358 778.536 62.8538 Q782.546 67.4314 789.797 67.4314 Q793.038 67.4314 796.198 66.5807 Q799.398 65.6895 802.558 63.9476 L802.558 70.8341 Q799.438 72.2924 796.076 73.0216 Q792.754 73.7508 788.987 73.7508 Q778.738 73.7508 772.702 67.3098 Q766.667 60.8689 766.667 49.9314 Q766.667 38.832 772.743 32.472 Q778.86 26.1121 789.473 26.1121 Q792.916 26.1121 796.198 26.8413 Q799.479 27.5299 802.558 28.9478 Z" fill="#000000" fill-rule="evenodd" fill-opacity="1" /><path clip-path="url(#clip600)" d="M841.811 34.1734 Q840.555 33.4443 839.056 33.1202 Q837.598 32.7556 835.815 32.7556 Q829.496 32.7556 826.093 36.8875 Q822.731 40.9789 822.731 48.6757 L822.731 72.576 L815.237 72.576 L815.237 27.2059 L822.731 27.2059 L822.731 34.2544 Q825.081 30.1225 828.848 28.1376 Q832.615 26.1121 838.003 26.1121 Q838.773 26.1121 839.704 26.2337 Q840.636 26.3147 841.77 26.5172 L841.811 34.1734 Z" fill="#000000" fill-rule="evenodd" fill-opacity="1" /><path clip-path="url(#clip600)" d="M886.614 48.0275 L886.614 51.6733 L852.343 51.6733 Q852.829 59.3701 856.961 63.421 Q861.134 67.4314 868.547 67.4314 Q872.841 67.4314 876.851 66.3781 Q880.902 65.3249 884.872 63.2184 L884.872 70.267 Q880.861 71.9684 876.649 72.8596 Q872.436 73.7508 868.101 73.7508 Q857.245 73.7508 850.885 67.4314 Q844.565 61.1119 844.565 50.3365 Q844.565 39.1965 850.561 32.6746 Q856.597 26.1121 866.805 26.1121 Q875.96 26.1121 881.267 32.0264 Q886.614 37.9003 886.614 48.0275 M879.16 45.84 Q879.079 39.7232 875.717 36.0774 Q872.395 32.4315 866.886 32.4315 Q860.647 32.4315 856.88 35.9558 Q853.153 39.4801 852.586 45.8805 L879.16 45.84 Z" fill="#000000" fill-rule="evenodd" fill-opacity="1" /><path clip-path="url(#clip600)" d="M919.467 49.7694 Q910.433 49.7694 906.949 51.8354 Q903.466 53.9013 903.466 58.8839 Q903.466 62.8538 906.058 65.2034 Q908.691 67.5124 913.188 67.5124 Q919.386 67.5124 923.112 63.1374 Q926.88 58.7219 926.88 51.4303 L926.88 49.7694 L919.467 49.7694 M934.333 46.6907 L934.333 72.576 L926.88 72.576 L926.88 65.6895 Q924.328 69.8214 920.52 71.8063 Q916.712 73.7508 911.203 73.7508 Q904.235 73.7508 900.103 69.8619 Q896.012 65.9325 896.012 59.3701 Q896.012 51.7138 901.116 47.825 Q906.261 43.9361 916.428 43.9361 L926.88 43.9361 L926.88 43.2069 Q926.88 38.0623 923.477 35.2672 Q920.115 32.4315 913.998 32.4315 Q910.109 32.4315 906.423 33.3632 Q902.736 34.295 899.334 36.1584 L899.334 29.2718 Q903.425 27.692 907.273 26.9223 Q911.122 26.1121 914.768 26.1121 Q924.611 26.1121 929.472 31.2163 Q934.333 36.3204 934.333 46.6907 Z" fill="#000000" fill-rule="evenodd" fill-opacity="1" /><path clip-path="url(#clip600)" d="M985.01 35.9153 Q987.805 30.8922 991.694 28.5022 Q995.583 26.1121 1000.85 26.1121 Q1007.94 26.1121 1011.79 31.0947 Q1015.64 36.0368 1015.64 45.1919 L1015.64 72.576 L1008.14 72.576 L1008.14 45.4349 Q1008.14 38.913 1005.83 35.7533 Q1003.52 32.5936 998.783 32.5936 Q992.991 32.5936 989.628 36.4419 Q986.266 40.2903 986.266 46.9338 L986.266 72.576 L978.772 72.576 L978.772 45.4349 Q978.772 38.8725 976.463 35.7533 Q974.154 32.5936 969.333 32.5936 Q963.621 32.5936 960.259 36.4824 Q956.897 40.3308 956.897 46.9338 L956.897 72.576 L949.403 72.576 L949.403 27.2059 L956.897 27.2059 L956.897 34.2544 Q959.449 30.082 963.014 28.0971 Q966.579 26.1121 971.48 26.1121 Q976.422 26.1121 979.866 28.6237 Q983.349 31.1352 985.01 35.9153 Z" fill="#000000" fill-rule="evenodd" fill-opacity="1" /><path clip-path="url(#clip600)" d="M1069.31 48.0275 L1069.31 51.6733 L1035.04 51.6733 Q1035.53 59.3701 1039.66 63.421 Q1043.83 67.4314 1051.24 67.4314 Q1055.54 67.4314 1059.55 66.3781 Q1063.6 65.3249 1067.57 63.2184 L1067.57 70.267 Q1063.56 71.9684 1059.34 72.8596 Q1055.13 73.7508 1050.8 73.7508 Q1039.94 73.7508 1033.58 67.4314 Q1027.26 61.1119 1027.26 50.3365 Q1027.26 39.1965 1033.26 32.6746 Q1039.29 26.1121 1049.5 26.1121 Q1058.66 26.1121 1063.96 32.0264 Q1069.31 37.9003 1069.31 48.0275 M1061.86 45.84 Q1061.77 39.7232 1058.41 36.0774 Q1055.09 32.4315 1049.58 32.4315 Q1043.34 32.4315 1039.58 35.9558 Q1035.85 39.4801 1035.28 45.8805 L1061.86 45.84 Z" fill="#000000" fill-rule="evenodd" fill-opacity="1" /><path clip-path="url(#clip600)" d="M1119.26 45.1919 L1119.26 72.576 L1111.8 72.576 L1111.8 45.4349 Q1111.8 38.994 1109.29 35.7938 Q1106.78 32.5936 1101.76 32.5936 Q1095.72 32.5936 1092.24 36.4419 Q1088.75 40.2903 1088.75 46.9338 L1088.75 72.576 L1081.26 72.576 L1081.26 27.2059 L1088.75 27.2059 L1088.75 34.2544 Q1091.43 30.163 1095.03 28.1376 Q1098.68 26.1121 1103.42 26.1121 Q1111.24 26.1121 1115.25 30.9732 Q1119.26 35.7938 1119.26 45.1919 Z" fill="#000000" fill-rule="evenodd" fill-opacity="1" /><path clip-path="url(#clip600)" d="M1141.5 14.324 L1141.5 27.2059 L1156.85 27.2059 L1156.85 32.9987 L1141.5 32.9987 L1141.5 57.6282 Q1141.5 63.1779 1143 64.7578 Q1144.53 66.3376 1149.19 66.3376 L1156.85 66.3376 L1156.85 72.576 L1149.19 72.576 Q1140.56 72.576 1137.28 69.3758 Q1134 66.1351 1134 57.6282 L1134 32.9987 L1128.53 32.9987 L1128.53 27.2059 L1134 27.2059 L1134 14.324 L1141.5 14.324 Z" fill="#000000" fill-rule="evenodd" fill-opacity="1" /><path clip-path="url(#clip600)" d="M1187.27 49.7694 Q1178.24 49.7694 1174.75 51.8354 Q1171.27 53.9013 1171.27 58.8839 Q1171.27 62.8538 1173.86 65.2034 Q1176.5 67.5124 1180.99 67.5124 Q1187.19 67.5124 1190.92 63.1374 Q1194.69 58.7219 1194.69 51.4303 L1194.69 49.7694 L1187.27 49.7694 M1202.14 46.6907 L1202.14 72.576 L1194.69 72.576 L1194.69 65.6895 Q1192.13 69.8214 1188.33 71.8063 Q1184.52 73.7508 1179.01 73.7508 Q1172.04 73.7508 1167.91 69.8619 Q1163.82 65.9325 1163.82 59.3701 Q1163.82 51.7138 1168.92 47.825 Q1174.07 43.9361 1184.23 43.9361 L1194.69 43.9361 L1194.69 43.2069 Q1194.69 38.0623 1191.28 35.2672 Q1187.92 32.4315 1181.8 32.4315 Q1177.91 32.4315 1174.23 33.3632 Q1170.54 34.295 1167.14 36.1584 L1167.14 29.2718 Q1171.23 27.692 1175.08 26.9223 Q1178.93 26.1121 1182.57 26.1121 Q1192.42 26.1121 1197.28 31.2163 Q1202.14 36.3204 1202.14 46.6907 Z" fill="#000000" fill-rule="evenodd" fill-opacity="1" /><path clip-path="url(#clip600)" d="M1217.49 9.54393 L1224.95 9.54393 L1224.95 72.576 L1217.49 72.576 L1217.49 9.54393 Z" fill="#000000" fill-rule="evenodd" fill-opacity="1" /><path clip-path="url(#clip600)" d="M1267.24 12.096 L1275.42 12.096 L1275.42 36.8875 L1305.15 36.8875 L1305.15 12.096 L1313.34 12.096 L1313.34 72.576 L1305.15 72.576 L1305.15 43.7741 L1275.42 43.7741 L1275.42 72.576 L1267.24 72.576 L1267.24 12.096 Z" fill="#000000" fill-rule="evenodd" fill-opacity="1" /><path clip-path="url(#clip600)" d="M1368.1 48.0275 L1368.1 51.6733 L1333.83 51.6733 Q1334.32 59.3701 1338.45 63.421 Q1342.62 67.4314 1350.04 67.4314 Q1354.33 67.4314 1358.34 66.3781 Q1362.39 65.3249 1366.36 63.2184 L1366.36 70.267 Q1362.35 71.9684 1358.14 72.8596 Q1353.93 73.7508 1349.59 73.7508 Q1338.74 73.7508 1332.38 67.4314 Q1326.06 61.1119 1326.06 50.3365 Q1326.06 39.1965 1332.05 32.6746 Q1338.09 26.1121 1348.3 26.1121 Q1357.45 26.1121 1362.76 32.0264 Q1368.1 37.9003 1368.1 48.0275 M1360.65 45.84 Q1360.57 39.7232 1357.21 36.0774 Q1353.89 32.4315 1348.38 32.4315 Q1342.14 32.4315 1338.37 35.9558 Q1334.64 39.4801 1334.08 45.8805 L1360.65 45.84 Z" fill="#000000" fill-rule="evenodd" fill-opacity="1" /><path clip-path="url(#clip600)" d="M1400.96 49.7694 Q1391.92 49.7694 1388.44 51.8354 Q1384.96 53.9013 1384.96 58.8839 Q1384.96 62.8538 1387.55 65.2034 Q1390.18 67.5124 1394.68 67.5124 Q1400.88 67.5124 1404.6 63.1374 Q1408.37 58.7219 1408.37 51.4303 L1408.37 49.7694 L1400.96 49.7694 M1415.82 46.6907 L1415.82 72.576 L1408.37 72.576 L1408.37 65.6895 Q1405.82 69.8214 1402.01 71.8063 Q1398.2 73.7508 1392.69 73.7508 Q1385.73 73.7508 1381.59 69.8619 Q1377.5 65.9325 1377.5 59.3701 Q1377.5 51.7138 1382.61 47.825 Q1387.75 43.9361 1397.92 43.9361 L1408.37 43.9361 L1408.37 43.2069 Q1408.37 38.0623 1404.97 35.2672 Q1401.61 32.4315 1395.49 32.4315 Q1391.6 32.4315 1387.91 33.3632 Q1384.23 34.295 1380.82 36.1584 L1380.82 29.2718 Q1384.92 27.692 1388.76 26.9223 Q1392.61 26.1121 1396.26 26.1121 Q1406.1 26.1121 1410.96 31.2163 Q1415.82 36.3204 1415.82 46.6907 Z" fill="#000000" fill-rule="evenodd" fill-opacity="1" /><path clip-path="url(#clip600)" d="M1438.55 14.324 L1438.55 27.2059 L1453.9 27.2059 L1453.9 32.9987 L1438.55 32.9987 L1438.55 57.6282 Q1438.55 63.1779 1440.05 64.7578 Q1441.59 66.3376 1446.25 66.3376 L1453.9 66.3376 L1453.9 72.576 L1446.25 72.576 Q1437.62 72.576 1434.34 69.3758 Q1431.06 66.1351 1431.06 57.6282 L1431.06 32.9987 L1425.59 32.9987 L1425.59 27.2059 L1431.06 27.2059 L1431.06 14.324 L1438.55 14.324 Z" fill="#000000" fill-rule="evenodd" fill-opacity="1" /><path clip-path="url(#clip600)" d="M1490.4 12.096 L1498.58 12.096 L1498.58 65.6895 L1528.03 65.6895 L1528.03 72.576 L1490.4 72.576 L1490.4 12.096 Z" fill="#000000" fill-rule="evenodd" fill-opacity="1" /><path clip-path="url(#clip600)" d="M1552.42 32.4315 Q1546.43 32.4315 1542.94 37.1306 Q1539.46 41.7891 1539.46 49.9314 Q1539.46 58.0738 1542.9 62.7728 Q1546.38 67.4314 1552.42 67.4314 Q1558.38 67.4314 1561.86 62.7323 Q1565.34 58.0333 1565.34 49.9314 Q1565.34 41.8701 1561.86 37.1711 Q1558.38 32.4315 1552.42 32.4315 M1552.42 26.1121 Q1562.14 26.1121 1567.69 32.4315 Q1573.24 38.7509 1573.24 49.9314 Q1573.24 61.0714 1567.69 67.4314 Q1562.14 73.7508 1552.42 73.7508 Q1542.66 73.7508 1537.11 67.4314 Q1531.6 61.0714 1531.6 49.9314 Q1531.6 38.7509 1537.11 32.4315 Q1542.66 26.1121 1552.42 26.1121 Z" fill="#000000" fill-rule="evenodd" fill-opacity="1" /><path clip-path="url(#clip600)" d="M1614.52 28.5427 L1614.52 35.5912 Q1611.36 33.9709 1607.96 33.1607 Q1604.56 32.3505 1600.91 32.3505 Q1595.36 32.3505 1592.56 34.0519 Q1589.81 35.7533 1589.81 39.156 Q1589.81 41.7486 1591.8 43.2475 Q1593.78 44.7058 1599.78 46.0426 L1602.33 46.6097 Q1610.27 48.3111 1613.59 51.4303 Q1616.95 54.509 1616.95 60.0587 Q1616.95 66.3781 1611.93 70.0644 Q1606.95 73.7508 1598.2 73.7508 Q1594.55 73.7508 1590.58 73.0216 Q1586.65 72.3329 1582.28 70.9151 L1582.28 63.2184 Q1586.41 65.3654 1590.42 66.4591 Q1594.43 67.5124 1598.36 67.5124 Q1603.62 67.5124 1606.46 65.73 Q1609.3 63.9071 1609.3 60.6258 Q1609.3 57.5877 1607.23 55.9673 Q1605.2 54.3469 1598.28 52.8481 L1595.68 52.2405 Q1588.76 50.7821 1585.68 47.7845 Q1582.6 44.7463 1582.6 39.4801 Q1582.6 33.0797 1587.14 29.5959 Q1591.67 26.1121 1600.02 26.1121 Q1604.15 26.1121 1607.8 26.7198 Q1611.44 27.3274 1614.52 28.5427 Z" fill="#000000" fill-rule="evenodd" fill-opacity="1" /><path clip-path="url(#clip600)" d="M1657.74 28.5427 L1657.74 35.5912 Q1654.58 33.9709 1651.18 33.1607 Q1647.78 32.3505 1644.13 32.3505 Q1638.58 32.3505 1635.79 34.0519 Q1633.03 35.7533 1633.03 39.156 Q1633.03 41.7486 1635.02 43.2475 Q1637 44.7058 1643 46.0426 L1645.55 46.6097 Q1653.49 48.3111 1656.81 51.4303 Q1660.17 54.509 1660.17 60.0587 Q1660.17 66.3781 1655.15 70.0644 Q1650.17 73.7508 1641.42 73.7508 Q1637.77 73.7508 1633.8 73.0216 Q1629.87 72.3329 1625.5 70.9151 L1625.5 63.2184 Q1629.63 65.3654 1633.64 66.4591 Q1637.65 67.5124 1641.58 67.5124 Q1646.85 67.5124 1649.68 65.73 Q1652.52 63.9071 1652.52 60.6258 Q1652.52 57.5877 1650.45 55.9673 Q1648.43 54.3469 1641.5 52.8481 L1638.91 52.2405 Q1631.98 50.7821 1628.9 47.7845 Q1625.82 44.7463 1625.82 39.4801 Q1625.82 33.0797 1630.36 29.5959 Q1634.9 26.1121 1643.24 26.1121 Q1647.37 26.1121 1651.02 26.7198 Q1654.67 27.3274 1657.74 28.5427 Z" fill="#000000" fill-rule="evenodd" fill-opacity="1" /><path clip-path="url(#clip600)" d="M1690.35 12.096 L1741.52 12.096 L1741.52 18.9825 L1720.05 18.9825 L1720.05 72.576 L1711.82 72.576 L1711.82 18.9825 L1690.35 18.9825 L1690.35 12.096 Z" fill="#000000" fill-rule="evenodd" fill-opacity="1" /><path clip-path="url(#clip600)" d="M1752.58 32.4315 Q1746.58 32.4315 1743.1 37.1306 Q1739.61 41.7891 1739.61 49.9314 Q1739.61 58.0738 1743.06 62.7728 Q1746.54 67.4314 1752.58 67.4314 Q1758.53 67.4314 1762.01 62.7323 Q1765.5 58.0333 1765.5 49.9314 Q1765.5 41.8701 1762.01 37.1711 Q1758.53 32.4315 1752.58 32.4315 M1752.58 26.1121 Q1762.3 26.1121 1767.85 32.4315 Q1773.4 38.7509 1773.4 49.9314 Q1773.4 61.0714 1767.85 67.4314 Q1762.3 73.7508 1752.58 73.7508 Q1742.81 73.7508 1737.26 67.4314 Q1731.75 61.0714 1731.75 49.9314 Q1731.75 38.7509 1737.26 32.4315 Q1742.81 26.1121 1752.58 26.1121 Z" fill="#000000" fill-rule="evenodd" fill-opacity="1" /><path clip-path="url(#clip600)" d="M1837 17.6457 Q1828.08 17.6457 1822.82 24.2892 Q1817.59 30.9327 1817.59 42.3968 Q1817.59 53.8203 1822.82 60.4638 Q1828.08 67.1073 1837 67.1073 Q1845.91 67.1073 1851.09 60.4638 Q1856.32 53.8203 1856.32 42.3968 Q1856.32 30.9327 1851.09 24.2892 Q1845.91 17.6457 1837 17.6457 M1837 11.0023 Q1849.72 11.0023 1857.33 19.5497 Q1864.95 28.0566 1864.95 42.3968 Q1864.95 56.6965 1857.33 65.2439 Q1849.72 73.7508 1837 73.7508 Q1824.24 73.7508 1816.58 65.2439 Q1808.96 56.737 1808.96 42.3968 Q1808.96 28.0566 1816.58 19.5497 Q1824.24 11.0023 1837 11.0023 Z" fill="#000000" fill-rule="evenodd" fill-opacity="1" /><path clip-path="url(#clip600)" d="M1872.08 27.2059 L1879.98 27.2059 L1894.15 65.2844 L1908.33 27.2059 L1916.23 27.2059 L1899.22 72.576 L1889.09 72.576 L1872.08 27.2059 Z" fill="#000000" fill-rule="evenodd" fill-opacity="1" /><path clip-path="url(#clip600)" d="M1965.33 48.0275 L1965.33 51.6733 L1931.06 51.6733 Q1931.54 59.3701 1935.68 63.421 Q1939.85 67.4314 1947.26 67.4314 Q1951.56 67.4314 1955.57 66.3781 Q1959.62 65.3249 1963.59 63.2184 L1963.59 70.267 Q1959.58 71.9684 1955.36 72.8596 Q1951.15 73.7508 1946.82 73.7508 Q1935.96 73.7508 1929.6 67.4314 Q1923.28 61.1119 1923.28 50.3365 Q1923.28 39.1965 1929.28 32.6746 Q1935.31 26.1121 1945.52 26.1121 Q1954.68 26.1121 1959.98 32.0264 Q1965.33 37.9003 1965.33 48.0275 M1957.88 45.84 Q1957.79 39.7232 1954.43 36.0774 Q1951.11 32.4315 1945.6 32.4315 Q1939.36 32.4315 1935.6 35.9558 Q1931.87 39.4801 1931.3 45.8805 L1957.88 45.84 Z" fill="#000000" fill-rule="evenodd" fill-opacity="1" /><path clip-path="url(#clip600)" d="M2003.85 34.1734 Q2002.6 33.4443 2001.1 33.1202 Q1999.64 32.7556 1997.86 32.7556 Q1991.54 32.7556 1988.14 36.8875 Q1984.77 40.9789 1984.77 48.6757 L1984.77 72.576 L1977.28 72.576 L1977.28 27.2059 L1984.77 27.2059 L1984.77 34.2544 Q1987.12 30.1225 1990.89 28.1376 Q1994.66 26.1121 2000.05 26.1121 Q2000.81 26.1121 2001.75 26.2337 Q2002.68 26.3147 2003.81 26.5172 L2003.85 34.1734 Z" fill="#000000" fill-rule="evenodd" fill-opacity="1" /><path clip-path="url(#clip600)" d="M2044.24 49.9314 Q2044.24 41.7081 2040.84 37.0496 Q2037.48 32.3505 2031.56 32.3505 Q2025.65 32.3505 2022.24 37.0496 Q2018.88 41.7081 2018.88 49.9314 Q2018.88 58.1548 2022.24 62.8538 Q2025.65 67.5124 2031.56 67.5124 Q2037.48 67.5124 2040.84 62.8538 Q2044.24 58.1548 2044.24 49.9314 M2018.88 34.0924 Q2021.23 30.0415 2024.8 28.0971 Q2028.4 26.1121 2033.38 26.1121 Q2041.65 26.1121 2046.79 32.6746 Q2051.98 39.2371 2051.98 49.9314 Q2051.98 60.6258 2046.79 67.1883 Q2041.65 73.7508 2033.38 73.7508 Q2028.4 73.7508 2024.8 71.8063 Q2021.23 69.8214 2018.88 65.7705 L2018.88 72.576 L2011.39 72.576 L2011.39 9.54393 L2018.88 9.54393 L2018.88 34.0924 Z" fill="#000000" fill-rule="evenodd" fill-opacity="1" /><path clip-path="url(#clip600)" d="M2063.56 54.671 L2063.56 27.2059 L2071.02 27.2059 L2071.02 54.3874 Q2071.02 60.8284 2073.53 64.0691 Q2076.04 67.2693 2081.06 67.2693 Q2087.1 67.2693 2090.58 63.421 Q2094.11 59.5726 2094.11 52.9291 L2094.11 27.2059 L2101.56 27.2059 L2101.56 72.576 L2094.11 72.576 L2094.11 65.6084 Q2091.39 69.7404 2087.79 71.7658 Q2084.22 73.7508 2079.48 73.7508 Q2071.67 73.7508 2067.61 68.8897 Q2063.56 64.0286 2063.56 54.671 M2082.32 26.1121 L2082.32 26.1121 Z" fill="#000000" fill-rule="evenodd" fill-opacity="1" /><path clip-path="url(#clip600)" d="M2143.2 34.1734 Q2141.95 33.4443 2140.45 33.1202 Q2138.99 32.7556 2137.21 32.7556 Q2130.89 32.7556 2127.49 36.8875 Q2124.12 40.9789 2124.12 48.6757 L2124.12 72.576 L2116.63 72.576 L2116.63 27.2059 L2124.12 27.2059 L2124.12 34.2544 Q2126.47 30.1225 2130.24 28.1376 Q2134.01 26.1121 2139.4 26.1121 Q2140.17 26.1121 2141.1 26.2337 Q2142.03 26.3147 2143.16 26.5172 L2143.2 34.1734 Z" fill="#000000" fill-rule="evenodd" fill-opacity="1" /><path clip-path="url(#clip600)" d="M2179.42 34.0924 L2179.42 9.54393 L2186.87 9.54393 L2186.87 72.576 L2179.42 72.576 L2179.42 65.7705 Q2177.07 69.8214 2173.46 71.8063 Q2169.9 73.7508 2164.88 73.7508 Q2156.65 73.7508 2151.47 67.1883 Q2146.32 60.6258 2146.32 49.9314 Q2146.32 39.2371 2151.47 32.6746 Q2156.65 26.1121 2164.88 26.1121 Q2169.9 26.1121 2173.46 28.0971 Q2177.07 30.0415 2179.42 34.0924 M2154.02 49.9314 Q2154.02 58.1548 2157.38 62.8538 Q2160.79 67.5124 2166.7 67.5124 Q2172.61 67.5124 2176.02 62.8538 Q2179.42 58.1548 2179.42 49.9314 Q2179.42 41.7081 2176.02 37.0496 Q2172.61 32.3505 2166.7 32.3505 Q2160.79 32.3505 2157.38 37.0496 Q2154.02 41.7081 2154.02 49.9314 Z" fill="#000000" fill-rule="evenodd" fill-opacity="1" /><path clip-path="url(#clip600)" d="M2241.03 48.0275 L2241.03 51.6733 L2206.76 51.6733 Q2207.25 59.3701 2211.38 63.421 Q2215.55 67.4314 2222.97 67.4314 Q2227.26 67.4314 2231.27 66.3781 Q2235.32 65.3249 2239.29 63.2184 L2239.29 70.267 Q2235.28 71.9684 2231.07 72.8596 Q2226.86 73.7508 2222.52 73.7508 Q2211.66 73.7508 2205.3 67.4314 Q2198.99 61.1119 2198.99 50.3365 Q2198.99 39.1965 2204.98 32.6746 Q2211.02 26.1121 2221.22 26.1121 Q2230.38 26.1121 2235.69 32.0264 Q2241.03 37.9003 2241.03 48.0275 M2233.58 45.84 Q2233.5 39.7232 2230.14 36.0774 Q2226.81 32.4315 2221.31 32.4315 Q2215.07 32.4315 2211.3 35.9558 Q2207.57 39.4801 2207.01 45.8805 L2233.58 45.84 Z" fill="#000000" fill-rule="evenodd" fill-opacity="1" /><path clip-path="url(#clip600)" d="M2290.98 45.1919 L2290.98 72.576 L2283.53 72.576 L2283.53 45.4349 Q2283.53 38.994 2281.02 35.7938 Q2278.5 32.5936 2273.48 32.5936 Q2267.45 32.5936 2263.96 36.4419 Q2260.48 40.2903 2260.48 46.9338 L2260.48 72.576 L2252.98 72.576 L2252.98 27.2059 L2260.48 27.2059 L2260.48 34.2544 Q2263.15 30.163 2266.76 28.1376 Q2270.4 26.1121 2275.14 26.1121 Q2282.96 26.1121 2286.97 30.9732 Q2290.98 35.7938 2290.98 45.1919 Z" fill="#000000" fill-rule="evenodd" fill-opacity="1" /><path clip-path="url(#clip602)" d="M530.027 1360.84 L530.027 1688.65 L692.16 1688.65 L692.16 1360.84 L530.027 1360.84 L530.027 1360.84  Z" fill="#009af9" fill-rule="evenodd" fill-opacity="1"/>
<polyline clip-path="url(#clip602)" style="stroke:#000000; stroke-linecap:round; stroke-linejoin:round; stroke-width:12; stroke-opacity:1; fill:none" points="530.027,1360.84 530.027,1688.65 692.16,1688.65 692.16,1360.84 530.027,1360.84 "/>
<path clip-path="url(#clip602)" d="M732.693 1089.27 L732.693 1688.65 L894.826 1688.65 L894.826 1089.27 L732.693 1089.27 L732.693 1089.27  Z" fill="#009af9" fill-rule="evenodd" fill-opacity="1"/>
<polyline clip-path="url(#clip602)" style="stroke:#000000; stroke-linecap:round; stroke-linejoin:round; stroke-width:12; stroke-opacity:1; fill:none" points="732.693,1089.27 732.693,1688.65 894.826,1688.65 894.826,1089.27 732.693,1089.27 "/>
<path clip-path="url(#clip602)" d="M935.359 912.487 L935.359 1688.65 L1097.49 1688.65 L1097.49 912.487 L935.359 912.487 L935.359 912.487  Z" fill="#009af9" fill-rule="evenodd" fill-opacity="1"/>
<polyline clip-path="url(#clip602)" style="stroke:#000000; stroke-linecap:round; stroke-linejoin:round; stroke-width:12; stroke-opacity:1; fill:none" points="935.359,912.487 935.359,1688.65 1097.49,1688.65 1097.49,912.487 935.359,912.487 "/>
<path clip-path="url(#clip602)" d="M1138.02 769.521 L1138.02 1688.65 L1300.16 1688.65 L1300.16 769.521 L1138.02 769.521 L1138.02 769.521  Z" fill="#009af9" fill-rule="evenodd" fill-opacity="1"/>
<polyline clip-path="url(#clip602)" style="stroke:#000000; stroke-linecap:round; stroke-linejoin:round; stroke-width:12; stroke-opacity:1; fill:none" points="1138.02,769.521 1138.02,1688.65 1300.16,1688.65 1300.16,769.521 1138.02,769.521 "/>
<path clip-path="url(#clip602)" d="M1340.69 646.102 L1340.69 1688.65 L1502.82 1688.65 L1502.82 646.102 L1340.69 646.102 L1340.69 646.102  Z" fill="#009af9" fill-rule="evenodd" fill-opacity="1"/>
<polyline clip-path="url(#clip602)" style="stroke:#000000; stroke-linecap:round; stroke-linejoin:round; stroke-width:12; stroke-opacity:1; fill:none" points="1340.69,646.102 1340.69,1688.65 1502.82,1688.65 1502.82,646.102 1340.69,646.102 "/>
<path clip-path="url(#clip602)" d="M1543.36 535.872 L1543.36 1688.65 L1705.49 1688.65 L1705.49 535.872 L1543.36 535.872 L1543.36 535.872  Z" fill="#009af9" fill-rule="evenodd" fill-opacity="1"/>
<polyline clip-path="url(#clip602)" style="stroke:#000000; stroke-linecap:round; stroke-linejoin:round; stroke-width:12; stroke-opacity:1; fill:none" points="1543.36,535.872 1543.36,1688.65 1705.49,1688.65 1705.49,535.872 1543.36,535.872 "/>
<path clip-path="url(#clip602)" d="M1746.02 435.325 L1746.02 1688.65 L1908.16 1688.65 L1908.16 435.325 L1746.02 435.325 L1746.02 435.325  Z" fill="#009af9" fill-rule="evenodd" fill-opacity="1"/>
<polyline clip-path="url(#clip602)" style="stroke:#000000; stroke-linecap:round; stroke-linejoin:round; stroke-width:12; stroke-opacity:1; fill:none" points="1746.02,435.325 1746.02,1688.65 1908.16,1688.65 1908.16,435.325 1746.02,435.325 "/>
<path clip-path="url(#clip602)" d="M1948.69 342.28 L1948.69 1688.65 L2110.82 1688.65 L2110.82 342.28 L1948.69 342.28 L1948.69 342.28  Z" fill="#009af9" fill-rule="evenodd" fill-opacity="1"/>
<polyline clip-path="url(#clip602)" style="stroke:#000000; stroke-linecap:round; stroke-linejoin:round; stroke-width:12; stroke-opacity:1; fill:none" points="1948.69,342.28 1948.69,1688.65 2110.82,1688.65 2110.82,342.28 1948.69,342.28 "/>
<path clip-path="url(#clip602)" d="M2151.35 255.271 L2151.35 1688.65 L2313.49 1688.65 L2313.49 255.271 L2151.35 255.271 L2151.35 255.271  Z" fill="#009af9" fill-rule="evenodd" fill-opacity="1"/>
<polyline clip-path="url(#clip602)" style="stroke:#000000; stroke-linecap:round; stroke-linejoin:round; stroke-width:12; stroke-opacity:1; fill:none" points="2151.35,255.271 2151.35,1688.65 2313.49,1688.65 2313.49,255.271 2151.35,255.271 "/>
<path clip-path="url(#clip602)" d="M2354.02 173.254 L2354.02 1688.65 L2516.15 1688.65 L2516.15 173.254 L2354.02 173.254 L2354.02 173.254  Z" fill="#009af9" fill-rule="evenodd" fill-opacity="1"/>
<polyline clip-path="url(#clip602)" style="stroke:#000000; stroke-linecap:round; stroke-linejoin:round; stroke-width:12; stroke-opacity:1; fill:none" points="2354.02,173.254 2354.02,1688.65 2516.15,1688.65 2516.15,173.254 2354.02,173.254 "/>
<circle clip-path="url(#clip602)" style="fill:#009af9; stroke:none; fill-opacity:0" cx="611.094" cy="1360.84" r="2"/>
<circle clip-path="url(#clip602)" style="fill:#009af9; stroke:none; fill-opacity:0" cx="813.759" cy="1089.27" r="2"/>
<circle clip-path="url(#clip602)" style="fill:#009af9; stroke:none; fill-opacity:0" cx="1016.43" cy="912.487" r="2"/>
<circle clip-path="url(#clip602)" style="fill:#009af9; stroke:none; fill-opacity:0" cx="1219.09" cy="769.521" r="2"/>
<circle clip-path="url(#clip602)" style="fill:#009af9; stroke:none; fill-opacity:0" cx="1421.76" cy="646.102" r="2"/>
<circle clip-path="url(#clip602)" style="fill:#009af9; stroke:none; fill-opacity:0" cx="1624.42" cy="535.872" r="2"/>
<circle clip-path="url(#clip602)" style="fill:#009af9; stroke:none; fill-opacity:0" cx="1827.09" cy="435.325" r="2"/>
<circle clip-path="url(#clip602)" style="fill:#009af9; stroke:none; fill-opacity:0" cx="2029.75" cy="342.28" r="2"/>
<circle clip-path="url(#clip602)" style="fill:#009af9; stroke:none; fill-opacity:0" cx="2232.42" cy="255.271" r="2"/>
<circle clip-path="url(#clip602)" style="fill:#009af9; stroke:none; fill-opacity:0" cx="2435.09" cy="173.254" r="2"/>
<path clip-path="url(#clip600)" d="M419.987 285.016 L1194.93 285.016 L1194.93 181.336 L419.987 181.336  Z" fill="#ffffff" fill-rule="evenodd" fill-opacity="1"/>
<polyline clip-path="url(#clip600)" style="stroke:#000000; stroke-linecap:round; stroke-linejoin:round; stroke-width:4; stroke-opacity:1; fill:none" points="419.987,285.016 1194.93,285.016 1194.93,181.336 419.987,181.336 419.987,285.016 "/>
<path clip-path="url(#clip600)" d="M445.513 253.912 L598.669 253.912 L598.669 212.44 L445.513 212.44 L445.513 253.912  Z" fill="#009af9" fill-rule="evenodd" fill-opacity="1"/>
<polyline clip-path="url(#clip600)" style="stroke:#000000; stroke-linecap:round; stroke-linejoin:round; stroke-width:12; stroke-opacity:1; fill:none" points="445.513,253.912 598.669,253.912 598.669,212.44 445.513,212.44 445.513,253.912 "/>
<path clip-path="url(#clip600)" d="M640.029 220.503 L633.686 237.702 L646.394 237.702 L640.029 220.503 M637.39 215.896 L642.691 215.896 L655.862 250.456 L651.001 250.456 L647.853 241.591 L632.274 241.591 L629.126 250.456 L624.195 250.456 L637.39 215.896 Z" fill="#000000" fill-rule="evenodd" fill-opacity="1" /><path clip-path="url(#clip600)" d="M676.348 228.929 L706.024 228.929 L706.024 232.817 L676.348 232.817 L676.348 228.929 M676.348 238.373 L706.024 238.373 L706.024 242.308 L676.348 242.308 L676.348 238.373 Z" fill="#000000" fill-rule="evenodd" fill-opacity="1" /><path clip-path="url(#clip600)" d="M730.769 215.896 L735.445 215.896 L735.445 246.521 L752.273 246.521 L752.273 250.456 L730.769 250.456 L730.769 215.896 Z" fill="#000000" fill-rule="evenodd" fill-opacity="1" /><path clip-path="url(#clip600)" d="M756.996 224.531 L761.255 224.531 L761.255 250.456 L756.996 250.456 L756.996 224.531 M756.996 214.438 L761.255 214.438 L761.255 219.831 L756.996 219.831 L756.996 214.438 Z" fill="#000000" fill-rule="evenodd" fill-opacity="1" /><path clip-path="url(#clip600)" d="M791.718 234.808 L791.718 250.456 L787.458 250.456 L787.458 234.947 Q787.458 231.267 786.023 229.438 Q784.588 227.609 781.718 227.609 Q778.269 227.609 776.278 229.808 Q774.287 232.007 774.287 235.804 L774.287 250.456 L770.005 250.456 L770.005 224.531 L774.287 224.531 L774.287 228.558 Q775.815 226.22 777.875 225.063 Q779.958 223.906 782.667 223.906 Q787.134 223.906 789.426 226.683 Q791.718 229.438 791.718 234.808 Z" fill="#000000" fill-rule="evenodd" fill-opacity="1" /><path clip-path="url(#clip600)" d="M822.389 236.429 L822.389 238.512 L802.806 238.512 Q803.083 242.91 805.444 245.225 Q807.829 247.516 812.065 247.516 Q814.518 247.516 816.81 246.915 Q819.125 246.313 821.393 245.109 L821.393 249.137 Q819.102 250.109 816.694 250.618 Q814.287 251.128 811.81 251.128 Q805.606 251.128 801.972 247.516 Q798.361 243.905 798.361 237.748 Q798.361 231.382 801.787 227.655 Q805.236 223.906 811.069 223.906 Q816.301 223.906 819.333 227.285 Q822.389 230.642 822.389 236.429 M818.13 235.179 Q818.083 231.683 816.162 229.6 Q814.264 227.517 811.116 227.517 Q807.551 227.517 805.398 229.53 Q803.268 231.544 802.944 235.202 L818.13 235.179 Z" fill="#000000" fill-rule="evenodd" fill-opacity="1" /><path clip-path="url(#clip600)" d="M841.162 237.424 Q836 237.424 834.009 238.604 Q832.018 239.785 832.018 242.632 Q832.018 244.901 833.5 246.243 Q835.004 247.563 837.574 247.563 Q841.115 247.563 843.245 245.063 Q845.398 242.54 845.398 238.373 L845.398 237.424 L841.162 237.424 M849.657 235.665 L849.657 250.456 L845.398 250.456 L845.398 246.521 Q843.94 248.882 841.764 250.016 Q839.588 251.128 836.44 251.128 Q832.458 251.128 830.097 248.905 Q827.759 246.66 827.759 242.91 Q827.759 238.535 830.676 236.313 Q833.616 234.091 839.426 234.091 L845.398 234.091 L845.398 233.674 Q845.398 230.734 843.453 229.137 Q841.532 227.517 838.037 227.517 Q835.815 227.517 833.708 228.049 Q831.602 228.581 829.657 229.646 L829.657 225.711 Q831.995 224.808 834.194 224.368 Q836.393 223.906 838.477 223.906 Q844.102 223.906 846.879 226.822 Q849.657 229.739 849.657 235.665 Z" fill="#000000" fill-rule="evenodd" fill-opacity="1" /><path clip-path="url(#clip600)" d="M873.453 228.512 Q872.736 228.095 871.879 227.91 Q871.046 227.702 870.027 227.702 Q866.416 227.702 864.472 230.063 Q862.551 232.401 862.551 236.799 L862.551 250.456 L858.268 250.456 L858.268 224.531 L862.551 224.531 L862.551 228.558 Q863.893 226.197 866.046 225.063 Q868.199 223.906 871.277 223.906 Q871.717 223.906 872.25 223.975 Q872.782 224.021 873.43 224.137 L873.453 228.512 Z" fill="#000000" fill-rule="evenodd" fill-opacity="1" /><path clip-path="url(#clip600)" d="M877.921 214.438 L882.18 214.438 L882.18 250.456 L877.921 250.456 L877.921 214.438 Z" fill="#000000" fill-rule="evenodd" fill-opacity="1" /><path clip-path="url(#clip600)" d="M901.879 252.864 Q900.074 257.493 898.361 258.905 Q896.648 260.317 893.777 260.317 L890.374 260.317 L890.374 256.753 L892.874 256.753 Q894.634 256.753 895.606 255.919 Q896.578 255.086 897.759 251.984 L898.523 250.04 L888.037 224.531 L892.55 224.531 L900.652 244.808 L908.754 224.531 L913.268 224.531 L901.879 252.864 Z" fill="#000000" fill-rule="evenodd" fill-opacity="1" /><path clip-path="url(#clip600)" d="M934.217 224.531 L938.476 224.531 L938.476 250.456 L934.217 250.456 L934.217 224.531 M934.217 214.438 L938.476 214.438 L938.476 219.831 L934.217 219.831 L934.217 214.438 Z" fill="#000000" fill-rule="evenodd" fill-opacity="1" /><path clip-path="url(#clip600)" d="M968.939 234.808 L968.939 250.456 L964.68 250.456 L964.68 234.947 Q964.68 231.267 963.244 229.438 Q961.809 227.609 958.939 227.609 Q955.49 227.609 953.499 229.808 Q951.508 232.007 951.508 235.804 L951.508 250.456 L947.226 250.456 L947.226 224.531 L951.508 224.531 L951.508 228.558 Q953.036 226.22 955.096 225.063 Q957.18 223.906 959.888 223.906 Q964.356 223.906 966.647 226.683 Q968.939 229.438 968.939 234.808 Z" fill="#000000" fill-rule="evenodd" fill-opacity="1" /><path clip-path="url(#clip600)" d="M996.092 225.526 L996.092 229.507 Q994.286 228.512 992.457 228.026 Q990.652 227.517 988.8 227.517 Q984.656 227.517 982.365 230.155 Q980.073 232.771 980.073 237.517 Q980.073 242.262 982.365 244.901 Q984.656 247.516 988.8 247.516 Q990.652 247.516 992.457 247.03 Q994.286 246.521 996.092 245.526 L996.092 249.461 Q994.309 250.294 992.388 250.711 Q990.49 251.128 988.337 251.128 Q982.48 251.128 979.031 247.447 Q975.582 243.767 975.582 237.517 Q975.582 231.174 979.055 227.54 Q982.55 223.906 988.615 223.906 Q990.582 223.906 992.457 224.322 Q994.332 224.716 996.092 225.526 Z" fill="#000000" fill-rule="evenodd" fill-opacity="1" /><path clip-path="url(#clip600)" d="M1018.52 228.512 Q1017.8 228.095 1016.95 227.91 Q1016.11 227.702 1015.1 227.702 Q1011.48 227.702 1009.54 230.063 Q1007.62 232.401 1007.62 236.799 L1007.62 250.456 L1003.34 250.456 L1003.34 224.531 L1007.62 224.531 L1007.62 228.558 Q1008.96 226.197 1011.11 225.063 Q1013.27 223.906 1016.35 223.906 Q1016.79 223.906 1017.32 223.975 Q1017.85 224.021 1018.5 224.137 L1018.52 228.512 Z" fill="#000000" fill-rule="evenodd" fill-opacity="1" /><path clip-path="url(#clip600)" d="M1044.12 236.429 L1044.12 238.512 L1024.54 238.512 Q1024.82 242.91 1027.18 245.225 Q1029.56 247.516 1033.8 247.516 Q1036.25 247.516 1038.54 246.915 Q1040.86 246.313 1043.13 245.109 L1043.13 249.137 Q1040.84 250.109 1038.43 250.618 Q1036.02 251.128 1033.55 251.128 Q1027.34 251.128 1023.71 247.516 Q1020.1 243.905 1020.1 237.748 Q1020.1 231.382 1023.52 227.655 Q1026.97 223.906 1032.8 223.906 Q1038.04 223.906 1041.07 227.285 Q1044.12 230.642 1044.12 236.429 M1039.86 235.179 Q1039.82 231.683 1037.9 229.6 Q1036 227.517 1032.85 227.517 Q1029.29 227.517 1027.13 229.53 Q1025 231.544 1024.68 235.202 L1039.86 235.179 Z" fill="#000000" fill-rule="evenodd" fill-opacity="1" /><path clip-path="url(#clip600)" d="M1062.9 237.424 Q1057.73 237.424 1055.74 238.604 Q1053.75 239.785 1053.75 242.632 Q1053.75 244.901 1055.23 246.243 Q1056.74 247.563 1059.31 247.563 Q1062.85 247.563 1064.98 245.063 Q1067.13 242.54 1067.13 238.373 L1067.13 237.424 L1062.9 237.424 M1071.39 235.665 L1071.39 250.456 L1067.13 250.456 L1067.13 246.521 Q1065.67 248.882 1063.5 250.016 Q1061.32 251.128 1058.17 251.128 Q1054.19 251.128 1051.83 248.905 Q1049.49 246.66 1049.49 242.91 Q1049.49 238.535 1052.41 236.313 Q1055.35 234.091 1061.16 234.091 L1067.13 234.091 L1067.13 233.674 Q1067.13 230.734 1065.19 229.137 Q1063.27 227.517 1059.77 227.517 Q1057.55 227.517 1055.44 228.049 Q1053.34 228.581 1051.39 229.646 L1051.39 225.711 Q1053.73 224.808 1055.93 224.368 Q1058.13 223.906 1060.21 223.906 Q1065.84 223.906 1068.61 226.822 Q1071.39 229.739 1071.39 235.665 Z" fill="#000000" fill-rule="evenodd" fill-opacity="1" /><path clip-path="url(#clip600)" d="M1096.69 225.294 L1096.69 229.322 Q1094.89 228.396 1092.94 227.933 Q1091 227.47 1088.92 227.47 Q1085.74 227.47 1084.15 228.443 Q1082.57 229.415 1082.57 231.359 Q1082.57 232.841 1083.71 233.697 Q1084.84 234.53 1088.27 235.294 L1089.73 235.618 Q1094.26 236.591 1096.16 238.373 Q1098.08 240.132 1098.08 243.304 Q1098.08 246.915 1095.21 249.021 Q1092.36 251.128 1087.36 251.128 Q1085.28 251.128 1083.01 250.711 Q1080.77 250.317 1078.27 249.507 L1078.27 245.109 Q1080.63 246.336 1082.92 246.961 Q1085.21 247.563 1087.46 247.563 Q1090.47 247.563 1092.09 246.544 Q1093.71 245.503 1093.71 243.628 Q1093.71 241.892 1092.53 240.966 Q1091.37 240.04 1087.41 239.183 L1085.93 238.836 Q1081.97 238.003 1080.21 236.29 Q1078.45 234.554 1078.45 231.544 Q1078.45 227.887 1081.04 225.896 Q1083.64 223.906 1088.41 223.906 Q1090.77 223.906 1092.85 224.253 Q1094.93 224.6 1096.69 225.294 Z" fill="#000000" fill-rule="evenodd" fill-opacity="1" /><path clip-path="url(#clip600)" d="M1104.86 224.531 L1109.12 224.531 L1109.12 250.456 L1104.86 250.456 L1104.86 224.531 M1104.86 214.438 L1109.12 214.438 L1109.12 219.831 L1104.86 219.831 L1104.86 214.438 Z" fill="#000000" fill-rule="evenodd" fill-opacity="1" /><path clip-path="url(#clip600)" d="M1139.59 234.808 L1139.59 250.456 L1135.33 250.456 L1135.33 234.947 Q1135.33 231.267 1133.89 229.438 Q1132.46 227.609 1129.59 227.609 Q1126.14 227.609 1124.15 229.808 Q1122.16 232.007 1122.16 235.804 L1122.16 250.456 L1117.87 250.456 L1117.87 224.531 L1122.16 224.531 L1122.16 228.558 Q1123.68 226.22 1125.74 225.063 Q1127.83 223.906 1130.54 223.906 Q1135 223.906 1137.29 226.683 Q1139.59 229.438 1139.59 234.808 Z" fill="#000000" fill-rule="evenodd" fill-opacity="1" /><path clip-path="url(#clip600)" d="M1165.14 237.192 Q1165.14 232.563 1163.22 230.017 Q1161.32 227.47 1157.87 227.47 Q1154.45 227.47 1152.53 230.017 Q1150.63 232.563 1150.63 237.192 Q1150.63 241.799 1152.53 244.345 Q1154.45 246.891 1157.87 246.891 Q1161.32 246.891 1163.22 244.345 Q1165.14 241.799 1165.14 237.192 M1169.4 247.239 Q1169.4 253.859 1166.46 257.077 Q1163.52 260.317 1157.46 260.317 Q1155.21 260.317 1153.22 259.97 Q1151.23 259.646 1149.35 258.952 L1149.35 254.808 Q1151.23 255.827 1153.06 256.313 Q1154.89 256.799 1156.79 256.799 Q1160.97 256.799 1163.06 254.6 Q1165.14 252.424 1165.14 248.003 L1165.14 245.896 Q1163.82 248.188 1161.76 249.322 Q1159.7 250.456 1156.83 250.456 Q1152.06 250.456 1149.15 246.822 Q1146.23 243.188 1146.23 237.192 Q1146.23 231.174 1149.15 227.54 Q1152.06 223.906 1156.83 223.906 Q1159.7 223.906 1161.76 225.04 Q1163.82 226.174 1165.14 228.466 L1165.14 224.531 L1169.4 224.531 L1169.4 247.239 Z" fill="#000000" fill-rule="evenodd" fill-opacity="1" /></svg>
