<?xml version="1.0" encoding="utf-8"?>
<svg xmlns="http://www.w3.org/2000/svg" xmlns:xlink="http://www.w3.org/1999/xlink" width="672" height="480" viewBox="0 0 2688 1920">
<defs>
  <clipPath id="clip830">
    <rect x="0" y="0" width="2688" height="1920"/>
  </clipPath>
</defs>
<path clip-path="url(#clip830)" d="M0 1920 L2688 1920 L2688 0 L0 0  Z" fill="#ffffff" fill-rule="evenodd" fill-opacity="1"/>
<defs>
  <clipPath id="clip831">
    <rect x="537" y="0" width="1883" height="1883"/>
  </clipPath>
</defs>
<path clip-path="url(#clip830)" d="M344.679 1734.12 L2640.76 1734.12 L2640.76 127.792 L344.679 127.792  Z" fill="#ffffff" fill-rule="evenodd" fill-opacity="1"/>
<defs>
  <clipPath id="clip832">
    <rect x="344" y="127" width="2297" height="1607"/>
  </clipPath>
</defs>
<polyline clip-path="url(#clip832)" style="stroke:#000000; stroke-linecap:round; stroke-linejoin:round; stroke-width:2; stroke-opacity:0.1; fill:none" points="409.662,1734.12 409.662,127.792 "/>
<polyline clip-path="url(#clip832)" style="stroke:#000000; stroke-linecap:round; stroke-linejoin:round; stroke-width:2; stroke-opacity:0.1; fill:none" points="1003.12,1734.12 1003.12,127.792 "/>
<polyline clip-path="url(#clip832)" style="stroke:#000000; stroke-linecap:round; stroke-linejoin:round; stroke-width:2; stroke-opacity:0.1; fill:none" points="1596.57,1734.12 1596.57,127.792 "/>
<polyline clip-path="url(#clip832)" style="stroke:#000000; stroke-linecap:round; stroke-linejoin:round; stroke-width:2; stroke-opacity:0.1; fill:none" points="2190.03,1734.12 2190.03,127.792 "/>
<polyline clip-path="url(#clip830)" style="stroke:#000000; stroke-linecap:round; stroke-linejoin:round; stroke-width:4; stroke-opacity:1; fill:none" points="344.679,1734.12 2640.76,1734.12 "/>
<polyline clip-path="url(#clip830)" style="stroke:#000000; stroke-linecap:round; stroke-linejoin:round; stroke-width:4; stroke-opacity:1; fill:none" points="409.662,1734.12 409.662,1715.22 "/>
<polyline clip-path="url(#clip830)" style="stroke:#000000; stroke-linecap:round; stroke-linejoin:round; stroke-width:4; stroke-opacity:1; fill:none" points="1003.12,1734.12 1003.12,1715.22 "/>
<polyline clip-path="url(#clip830)" style="stroke:#000000; stroke-linecap:round; stroke-linejoin:round; stroke-width:4; stroke-opacity:1; fill:none" points="1596.57,1734.12 1596.57,1715.22 "/>
<polyline clip-path="url(#clip830)" style="stroke:#000000; stroke-linecap:round; stroke-linejoin:round; stroke-width:4; stroke-opacity:1; fill:none" points="2190.03,1734.12 2190.03,1715.22 "/>
<path clip-path="url(#clip830)" d="M409.662 1767.34 Q406.051 1767.34 404.222 1770.9 Q402.417 1774.45 402.417 1781.58 Q402.417 1788.68 404.222 1792.25 Q406.051 1795.79 409.662 1795.79 Q413.296 1795.79 415.102 1792.25 Q416.93 1788.68 416.93 1781.58 Q416.93 1774.45 415.102 1770.9 Q413.296 1767.34 409.662 1767.34 M409.662 1763.64 Q415.472 1763.64 418.528 1768.24 Q421.606 1772.83 421.606 1781.58 Q421.606 1790.3 418.528 1794.91 Q415.472 1799.49 409.662 1799.49 Q403.852 1799.49 400.773 1794.91 Q397.718 1790.3 397.718 1781.58 Q397.718 1772.83 400.773 1768.24 Q403.852 1763.64 409.662 1763.64 Z" fill="#000000" fill-rule="evenodd" fill-opacity="1" /><path clip-path="url(#clip830)" d="M947.643 1794.89 L955.282 1794.89 L955.282 1768.52 L946.971 1770.19 L946.971 1765.93 L955.235 1764.26 L959.911 1764.26 L959.911 1794.89 L967.55 1794.89 L967.55 1798.82 L947.643 1798.82 L947.643 1794.89 Z" fill="#000000" fill-rule="evenodd" fill-opacity="1" /><path clip-path="url(#clip830)" d="M986.994 1767.34 Q983.383 1767.34 981.555 1770.9 Q979.749 1774.45 979.749 1781.58 Q979.749 1788.68 981.555 1792.25 Q983.383 1795.79 986.994 1795.79 Q990.629 1795.79 992.434 1792.25 Q994.263 1788.68 994.263 1781.58 Q994.263 1774.45 992.434 1770.9 Q990.629 1767.34 986.994 1767.34 M986.994 1763.64 Q992.805 1763.64 995.86 1768.24 Q998.939 1772.83 998.939 1781.58 Q998.939 1790.3 995.86 1794.91 Q992.805 1799.49 986.994 1799.49 Q981.184 1799.49 978.106 1794.91 Q975.05 1790.3 975.05 1781.58 Q975.05 1772.83 978.106 1768.24 Q981.184 1763.64 986.994 1763.64 Z" fill="#000000" fill-rule="evenodd" fill-opacity="1" /><path clip-path="url(#clip830)" d="M1017.16 1767.34 Q1013.55 1767.34 1011.72 1770.9 Q1009.91 1774.45 1009.91 1781.58 Q1009.91 1788.68 1011.72 1792.25 Q1013.55 1795.79 1017.16 1795.79 Q1020.79 1795.79 1022.6 1792.25 Q1024.42 1788.68 1024.42 1781.58 Q1024.42 1774.45 1022.6 1770.9 Q1020.79 1767.34 1017.16 1767.34 M1017.16 1763.64 Q1022.97 1763.64 1026.02 1768.24 Q1029.1 1772.83 1029.1 1781.58 Q1029.1 1790.3 1026.02 1794.91 Q1022.97 1799.49 1017.16 1799.49 Q1011.35 1799.49 1008.27 1794.91 Q1005.21 1790.3 1005.21 1781.58 Q1005.21 1772.83 1008.27 1768.24 Q1011.35 1763.64 1017.16 1763.64 Z" fill="#000000" fill-rule="evenodd" fill-opacity="1" /><path clip-path="url(#clip830)" d="M1047.32 1767.34 Q1043.71 1767.34 1041.88 1770.9 Q1040.07 1774.45 1040.07 1781.58 Q1040.07 1788.68 1041.88 1792.25 Q1043.71 1795.79 1047.32 1795.79 Q1050.95 1795.79 1052.76 1792.25 Q1054.59 1788.68 1054.59 1781.58 Q1054.59 1774.45 1052.76 1770.9 Q1050.95 1767.34 1047.32 1767.34 M1047.32 1763.64 Q1053.13 1763.64 1056.18 1768.24 Q1059.26 1772.83 1059.26 1781.58 Q1059.26 1790.3 1056.18 1794.91 Q1053.13 1799.49 1047.32 1799.49 Q1041.51 1799.49 1038.43 1794.91 Q1035.37 1790.3 1035.37 1781.58 Q1035.37 1772.83 1038.43 1768.24 Q1041.51 1763.64 1047.32 1763.64 Z" fill="#000000" fill-rule="evenodd" fill-opacity="1" /><path clip-path="url(#clip830)" d="M1545.18 1794.89 L1561.5 1794.89 L1561.5 1798.82 L1539.56 1798.82 L1539.56 1794.89 Q1542.22 1792.13 1546.8 1787.5 Q1551.41 1782.85 1552.59 1781.51 Q1554.84 1778.98 1555.72 1777.25 Q1556.62 1775.49 1556.62 1773.8 Q1556.62 1771.04 1554.67 1769.31 Q1552.75 1767.57 1549.65 1767.57 Q1547.45 1767.57 1545 1768.34 Q1542.57 1769.1 1539.79 1770.65 L1539.79 1765.93 Q1542.61 1764.79 1545.07 1764.21 Q1547.52 1763.64 1549.56 1763.64 Q1554.93 1763.64 1558.12 1766.32 Q1561.32 1769.01 1561.32 1773.5 Q1561.32 1775.63 1560.51 1777.55 Q1559.72 1779.45 1557.61 1782.04 Q1557.04 1782.71 1553.93 1785.93 Q1550.83 1789.12 1545.18 1794.89 Z" fill="#000000" fill-rule="evenodd" fill-opacity="1" /><path clip-path="url(#clip830)" d="M1581.32 1767.34 Q1577.71 1767.34 1575.88 1770.9 Q1574.07 1774.45 1574.07 1781.58 Q1574.07 1788.68 1575.88 1792.25 Q1577.71 1795.79 1581.32 1795.79 Q1584.95 1795.79 1586.76 1792.25 Q1588.59 1788.68 1588.59 1781.58 Q1588.59 1774.45 1586.76 1770.9 Q1584.95 1767.34 1581.32 1767.34 M1581.32 1763.64 Q1587.13 1763.64 1590.18 1768.24 Q1593.26 1772.83 1593.26 1781.58 Q1593.26 1790.3 1590.18 1794.91 Q1587.13 1799.49 1581.32 1799.49 Q1575.51 1799.49 1572.43 1794.91 Q1569.37 1790.3 1569.37 1781.58 Q1569.37 1772.83 1572.43 1768.24 Q1575.51 1763.64 1581.32 1763.64 Z" fill="#000000" fill-rule="evenodd" fill-opacity="1" /><path clip-path="url(#clip830)" d="M1611.48 1767.34 Q1607.87 1767.34 1606.04 1770.9 Q1604.23 1774.45 1604.23 1781.58 Q1604.23 1788.68 1606.04 1792.25 Q1607.87 1795.79 1611.48 1795.79 Q1615.11 1795.79 1616.92 1792.25 Q1618.75 1788.68 1618.75 1781.58 Q1618.75 1774.45 1616.92 1770.9 Q1615.11 1767.34 1611.48 1767.34 M1611.48 1763.64 Q1617.29 1763.64 1620.34 1768.24 Q1623.42 1772.83 1623.42 1781.58 Q1623.42 1790.3 1620.34 1794.91 Q1617.29 1799.49 1611.48 1799.49 Q1605.67 1799.49 1602.59 1794.91 Q1599.53 1790.3 1599.53 1781.58 Q1599.53 1772.83 1602.59 1768.24 Q1605.67 1763.64 1611.48 1763.64 Z" fill="#000000" fill-rule="evenodd" fill-opacity="1" /><path clip-path="url(#clip830)" d="M1641.64 1767.34 Q1638.03 1767.34 1636.2 1770.9 Q1634.4 1774.45 1634.4 1781.58 Q1634.4 1788.68 1636.2 1792.25 Q1638.03 1795.79 1641.64 1795.79 Q1645.28 1795.79 1647.08 1792.25 Q1648.91 1788.68 1648.91 1781.58 Q1648.91 1774.45 1647.08 1770.9 Q1645.28 1767.34 1641.64 1767.34 M1641.64 1763.64 Q1647.45 1763.64 1650.51 1768.24 Q1653.59 1772.83 1653.59 1781.58 Q1653.59 1790.3 1650.51 1794.91 Q1647.45 1799.49 1641.64 1799.49 Q1635.83 1799.49 1632.75 1794.91 Q1629.7 1790.3 1629.7 1781.58 Q1629.7 1772.83 1632.75 1768.24 Q1635.83 1763.64 1641.64 1763.64 Z" fill="#000000" fill-rule="evenodd" fill-opacity="1" /><path clip-path="url(#clip830)" d="M2148.71 1780.19 Q2152.06 1780.9 2153.94 1783.17 Q2155.84 1785.44 2155.84 1788.77 Q2155.84 1793.89 2152.32 1796.69 Q2148.8 1799.49 2142.32 1799.49 Q2140.14 1799.49 2137.83 1799.05 Q2135.54 1798.64 2133.08 1797.78 L2133.08 1793.27 Q2135.03 1794.4 2137.34 1794.98 Q2139.66 1795.56 2142.18 1795.56 Q2146.58 1795.56 2148.87 1793.82 Q2151.18 1792.08 2151.18 1788.77 Q2151.18 1785.72 2149.03 1784.01 Q2146.9 1782.27 2143.08 1782.27 L2139.05 1782.27 L2139.05 1778.43 L2143.27 1778.43 Q2146.72 1778.43 2148.55 1777.06 Q2150.37 1775.67 2150.37 1773.08 Q2150.37 1770.42 2148.48 1769.01 Q2146.6 1767.57 2143.08 1767.57 Q2141.16 1767.57 2138.96 1767.99 Q2136.76 1768.4 2134.12 1769.28 L2134.12 1765.12 Q2136.79 1764.38 2139.1 1764.01 Q2141.44 1763.64 2143.5 1763.64 Q2148.82 1763.64 2151.93 1766.07 Q2155.03 1768.47 2155.03 1772.59 Q2155.03 1775.46 2153.38 1777.46 Q2151.74 1779.42 2148.71 1780.19 Z" fill="#000000" fill-rule="evenodd" fill-opacity="1" /><path clip-path="url(#clip830)" d="M2174.7 1767.34 Q2171.09 1767.34 2169.26 1770.9 Q2167.46 1774.45 2167.46 1781.58 Q2167.46 1788.68 2169.26 1792.25 Q2171.09 1795.79 2174.7 1795.79 Q2178.34 1795.79 2180.14 1792.25 Q2181.97 1788.68 2181.97 1781.58 Q2181.97 1774.45 2180.14 1770.9 Q2178.34 1767.34 2174.7 1767.34 M2174.7 1763.64 Q2180.51 1763.64 2183.57 1768.24 Q2186.65 1772.83 2186.65 1781.58 Q2186.65 1790.3 2183.57 1794.91 Q2180.51 1799.49 2174.7 1799.49 Q2168.89 1799.49 2165.81 1794.91 Q2162.76 1790.3 2162.76 1781.58 Q2162.76 1772.83 2165.81 1768.24 Q2168.89 1763.64 2174.7 1763.64 Z" fill="#000000" fill-rule="evenodd" fill-opacity="1" /><path clip-path="url(#clip830)" d="M2204.86 1767.34 Q2201.25 1767.34 2199.42 1770.9 Q2197.62 1774.45 2197.62 1781.58 Q2197.62 1788.68 2199.42 1792.25 Q2201.25 1795.79 2204.86 1795.79 Q2208.5 1795.79 2210.3 1792.25 Q2212.13 1788.68 2212.13 1781.58 Q2212.13 1774.45 2210.3 1770.9 Q2208.5 1767.34 2204.86 1767.34 M2204.86 1763.64 Q2210.67 1763.64 2213.73 1768.24 Q2216.81 1772.83 2216.81 1781.58 Q2216.81 1790.3 2213.73 1794.91 Q2210.67 1799.49 2204.86 1799.49 Q2199.05 1799.49 2195.98 1794.91 Q2192.92 1790.3 2192.92 1781.58 Q2192.92 1772.83 2195.98 1768.24 Q2199.05 1763.64 2204.86 1763.64 Z" fill="#000000" fill-rule="evenodd" fill-opacity="1" /><path clip-path="url(#clip830)" d="M2235.03 1767.34 Q2231.42 1767.34 2229.59 1770.9 Q2227.78 1774.45 2227.78 1781.58 Q2227.78 1788.68 2229.59 1792.25 Q2231.42 1795.79 2235.03 1795.79 Q2238.66 1795.79 2240.47 1792.25 Q2242.3 1788.68 2242.3 1781.58 Q2242.3 1774.45 2240.47 1770.9 Q2238.66 1767.34 2235.03 1767.34 M2235.03 1763.64 Q2240.84 1763.64 2243.89 1768.24 Q2246.97 1772.83 2246.97 1781.58 Q2246.97 1790.3 2243.89 1794.91 Q2240.84 1799.49 2235.03 1799.49 Q2229.22 1799.49 2226.14 1794.91 Q2223.08 1790.3 2223.08 1781.58 Q2223.08 1772.83 2226.14 1768.24 Q2229.22 1763.64 2235.03 1763.64 Z" fill="#000000" fill-rule="evenodd" fill-opacity="1" /><path clip-path="url(#clip830)" d="M1302.94 1835.78 L1343.14 1835.78 L1343.14 1841.19 L1326.27 1841.19 L1326.27 1883.3 L1319.81 1883.3 L1319.81 1841.19 L1302.94 1841.19 L1302.94 1835.78 Z" fill="#000000" fill-rule="evenodd" fill-opacity="1" /><path clip-path="url(#clip830)" d="M1347.09 1847.65 L1352.94 1847.65 L1352.94 1883.3 L1347.09 1883.3 L1347.09 1847.65 M1347.09 1833.78 L1352.94 1833.78 L1352.94 1841.19 L1347.09 1841.19 L1347.09 1833.78 Z" fill="#000000" fill-rule="evenodd" fill-opacity="1" /><path clip-path="url(#clip830)" d="M1392.95 1854.5 Q1395.15 1850.55 1398.2 1848.67 Q1401.26 1846.79 1405.4 1846.79 Q1410.97 1846.79 1413.99 1850.71 Q1417.01 1854.59 1417.01 1861.78 L1417.01 1883.3 L1411.12 1883.3 L1411.12 1861.98 Q1411.12 1856.85 1409.31 1854.37 Q1407.5 1851.89 1403.77 1851.89 Q1399.22 1851.89 1396.58 1854.91 Q1393.94 1857.93 1393.94 1863.15 L1393.94 1883.3 L1388.05 1883.3 L1388.05 1861.98 Q1388.05 1856.82 1386.23 1854.37 Q1384.42 1851.89 1380.63 1851.89 Q1376.15 1851.89 1373.5 1854.94 Q1370.86 1857.97 1370.86 1863.15 L1370.86 1883.3 L1364.97 1883.3 L1364.97 1847.65 L1370.86 1847.65 L1370.86 1853.19 Q1372.87 1849.91 1375.67 1848.35 Q1378.47 1846.79 1382.32 1846.79 Q1386.2 1846.79 1388.91 1848.77 Q1391.65 1850.74 1392.95 1854.5 Z" fill="#000000" fill-rule="evenodd" fill-opacity="1" /><path clip-path="url(#clip830)" d="M1459.19 1864.01 L1459.19 1866.88 L1432.26 1866.88 Q1432.64 1872.92 1435.89 1876.11 Q1439.17 1879.26 1444.99 1879.26 Q1448.36 1879.26 1451.52 1878.43 Q1454.7 1877.6 1457.82 1875.95 L1457.82 1881.49 Q1454.67 1882.82 1451.36 1883.52 Q1448.05 1884.22 1444.64 1884.22 Q1436.11 1884.22 1431.11 1879.26 Q1426.15 1874.29 1426.15 1865.83 Q1426.15 1857.07 1430.86 1851.95 Q1435.6 1846.79 1443.62 1846.79 Q1450.82 1846.79 1454.98 1851.44 Q1459.19 1856.06 1459.19 1864.01 M1453.33 1862.29 Q1453.27 1857.49 1450.62 1854.62 Q1448.01 1851.76 1443.69 1851.76 Q1438.78 1851.76 1435.82 1854.53 Q1432.9 1857.3 1432.45 1862.33 L1453.33 1862.29 Z" fill="#000000" fill-rule="evenodd" fill-opacity="1" /><path clip-path="url(#clip830)" d="M1503.59 1833.84 Q1499.32 1841.16 1497.25 1848.32 Q1495.18 1855.48 1495.18 1862.84 Q1495.18 1870.19 1497.25 1877.41 Q1499.35 1884.61 1503.59 1891.89 L1498.49 1891.89 Q1493.72 1884.41 1491.33 1877.19 Q1488.98 1869.96 1488.98 1862.84 Q1488.98 1855.74 1491.33 1848.54 Q1493.69 1841.35 1498.49 1833.84 L1503.59 1833.84 Z" fill="#000000" fill-rule="evenodd" fill-opacity="1" /><path clip-path="url(#clip830)" d="M1538.41 1853.06 L1538.41 1833.78 L1544.26 1833.78 L1544.26 1883.3 L1538.41 1883.3 L1538.41 1877.95 Q1536.56 1881.14 1533.73 1882.7 Q1530.93 1884.22 1526.98 1884.22 Q1520.52 1884.22 1516.45 1879.07 Q1512.4 1873.91 1512.4 1865.51 Q1512.4 1857.11 1516.45 1851.95 Q1520.52 1846.79 1526.98 1846.79 Q1530.93 1846.79 1533.73 1848.35 Q1536.56 1849.88 1538.41 1853.06 M1518.45 1865.51 Q1518.45 1871.97 1521.09 1875.66 Q1523.77 1879.32 1528.41 1879.32 Q1533.06 1879.32 1535.73 1875.66 Q1538.41 1871.97 1538.41 1865.51 Q1538.41 1859.05 1535.73 1855.39 Q1533.06 1851.7 1528.41 1851.7 Q1523.77 1851.7 1521.09 1855.39 Q1518.45 1859.05 1518.45 1865.51 Z" fill="#000000" fill-rule="evenodd" fill-opacity="1" /><path clip-path="url(#clip830)" d="M1572.53 1865.38 Q1565.43 1865.38 1562.69 1867 Q1559.96 1868.63 1559.96 1872.54 Q1559.96 1875.66 1561.99 1877.51 Q1564.06 1879.32 1567.59 1879.32 Q1572.46 1879.32 1575.39 1875.88 Q1578.35 1872.42 1578.35 1866.69 L1578.35 1865.38 L1572.53 1865.38 M1584.21 1862.96 L1584.21 1883.3 L1578.35 1883.3 L1578.35 1877.89 Q1576.35 1881.14 1573.35 1882.7 Q1570.36 1884.22 1566.03 1884.22 Q1560.56 1884.22 1557.31 1881.17 Q1554.1 1878.08 1554.1 1872.92 Q1554.1 1866.91 1558.11 1863.85 Q1562.15 1860.8 1570.14 1860.8 L1578.35 1860.8 L1578.35 1860.23 Q1578.35 1856.18 1575.68 1853.99 Q1573.04 1851.76 1568.23 1851.76 Q1565.17 1851.76 1562.28 1852.49 Q1559.38 1853.22 1556.71 1854.69 L1556.71 1849.28 Q1559.92 1848.03 1562.95 1847.43 Q1565.97 1846.79 1568.84 1846.79 Q1576.57 1846.79 1580.39 1850.8 Q1584.21 1854.81 1584.21 1862.96 Z" fill="#000000" fill-rule="evenodd" fill-opacity="1" /><path clip-path="url(#clip830)" d="M1611.1 1886.61 Q1608.62 1892.98 1606.27 1894.92 Q1603.91 1896.86 1599.96 1896.86 L1595.28 1896.86 L1595.28 1891.96 L1598.72 1891.96 Q1601.14 1891.96 1602.48 1890.81 Q1603.81 1889.67 1605.44 1885.4 L1606.49 1882.73 L1592.07 1847.65 L1598.28 1847.65 L1609.42 1875.53 L1620.56 1847.65 L1626.76 1847.65 L1611.1 1886.61 Z" fill="#000000" fill-rule="evenodd" fill-opacity="1" /><path clip-path="url(#clip830)" d="M1657.57 1848.7 L1657.57 1854.24 Q1655.09 1852.97 1652.42 1852.33 Q1649.74 1851.7 1646.88 1851.7 Q1642.52 1851.7 1640.32 1853.03 Q1638.16 1854.37 1638.16 1857.04 Q1638.16 1859.08 1639.72 1860.26 Q1641.28 1861.4 1645.99 1862.45 L1647.99 1862.9 Q1654.23 1864.24 1656.84 1866.69 Q1659.48 1869.11 1659.48 1873.47 Q1659.48 1878.43 1655.54 1881.33 Q1651.62 1884.22 1644.75 1884.22 Q1641.88 1884.22 1638.76 1883.65 Q1635.68 1883.11 1632.24 1882 L1632.24 1875.95 Q1635.48 1877.64 1638.64 1878.49 Q1641.79 1879.32 1644.87 1879.32 Q1649.01 1879.32 1651.24 1877.92 Q1653.47 1876.49 1653.47 1873.91 Q1653.47 1871.52 1651.84 1870.25 Q1650.25 1868.98 1644.81 1867.8 L1642.77 1867.32 Q1637.33 1866.18 1634.91 1863.82 Q1632.49 1861.43 1632.49 1857.3 Q1632.49 1852.27 1636.06 1849.53 Q1639.62 1846.79 1646.18 1846.79 Q1649.43 1846.79 1652.29 1847.27 Q1655.15 1847.75 1657.57 1848.7 Z" fill="#000000" fill-rule="evenodd" fill-opacity="1" /><path clip-path="url(#clip830)" d="M1667.89 1833.84 L1672.98 1833.84 Q1677.75 1841.35 1680.11 1848.54 Q1682.49 1855.74 1682.49 1862.84 Q1682.49 1869.96 1680.11 1877.19 Q1677.75 1884.41 1672.98 1891.89 L1667.89 1891.89 Q1672.12 1884.61 1674.19 1877.41 Q1676.29 1870.19 1676.29 1862.84 Q1676.29 1855.48 1674.19 1848.32 Q1672.12 1841.16 1667.89 1833.84 Z" fill="#000000" fill-rule="evenodd" fill-opacity="1" /><polyline clip-path="url(#clip832)" style="stroke:#000000; stroke-linecap:round; stroke-linejoin:round; stroke-width:2; stroke-opacity:0.1; fill:none" points="344.679,1443.21 2640.76,1443.21 "/>
<polyline clip-path="url(#clip832)" style="stroke:#000000; stroke-linecap:round; stroke-linejoin:round; stroke-width:2; stroke-opacity:0.1; fill:none" points="344.679,1113.95 2640.76,1113.95 "/>
<polyline clip-path="url(#clip832)" style="stroke:#000000; stroke-linecap:round; stroke-linejoin:round; stroke-width:2; stroke-opacity:0.1; fill:none" points="344.679,784.683 2640.76,784.683 "/>
<polyline clip-path="url(#clip832)" style="stroke:#000000; stroke-linecap:round; stroke-linejoin:round; stroke-width:2; stroke-opacity:0.1; fill:none" points="344.679,455.418 2640.76,455.418 "/>
<polyline clip-path="url(#clip830)" style="stroke:#000000; stroke-linecap:round; stroke-linejoin:round; stroke-width:4; stroke-opacity:1; fill:none" points="344.679,1734.12 344.679,127.792 "/>
<polyline clip-path="url(#clip830)" style="stroke:#000000; stroke-linecap:round; stroke-linejoin:round; stroke-width:4; stroke-opacity:1; fill:none" points="344.679,1443.21 363.576,1443.21 "/>
<polyline clip-path="url(#clip830)" style="stroke:#000000; stroke-linecap:round; stroke-linejoin:round; stroke-width:4; stroke-opacity:1; fill:none" points="344.679,1113.95 363.576,1113.95 "/>
<polyline clip-path="url(#clip830)" style="stroke:#000000; stroke-linecap:round; stroke-linejoin:round; stroke-width:4; stroke-opacity:1; fill:none" points="344.679,784.683 363.576,784.683 "/>
<polyline clip-path="url(#clip830)" style="stroke:#000000; stroke-linecap:round; stroke-linejoin:round; stroke-width:4; stroke-opacity:1; fill:none" points="344.679,455.418 363.576,455.418 "/>
<path clip-path="url(#clip830)" d="M122.997 1463 L139.316 1463 L139.316 1466.94 L117.372 1466.94 L117.372 1463 Q120.034 1460.25 124.617 1455.62 Q129.224 1450.97 130.404 1449.63 Q132.65 1447.1 133.529 1445.37 Q134.432 1443.61 134.432 1441.92 Q134.432 1439.16 132.488 1437.43 Q130.566 1435.69 127.464 1435.69 Q125.265 1435.69 122.812 1436.45 Q120.381 1437.22 117.603 1438.77 L117.603 1434.05 Q120.427 1432.91 122.881 1432.33 Q125.335 1431.75 127.372 1431.75 Q132.742 1431.75 135.937 1434.44 Q139.131 1437.13 139.131 1441.62 Q139.131 1443.75 138.321 1445.67 Q137.534 1447.56 135.427 1450.16 Q134.849 1450.83 131.747 1454.05 Q128.645 1457.24 122.997 1463 Z" fill="#000000" fill-rule="evenodd" fill-opacity="1" /><path clip-path="url(#clip830)" d="M149.131 1461.06 L154.015 1461.06 L154.015 1466.94 L149.131 1466.94 L149.131 1461.06 Z" fill="#000000" fill-rule="evenodd" fill-opacity="1" /><path clip-path="url(#clip830)" d="M174.2 1435.46 Q170.589 1435.46 168.76 1439.02 Q166.955 1442.57 166.955 1449.69 Q166.955 1456.8 168.76 1460.37 Q170.589 1463.91 174.2 1463.91 Q177.834 1463.91 179.64 1460.37 Q181.469 1456.8 181.469 1449.69 Q181.469 1442.57 179.64 1439.02 Q177.834 1435.46 174.2 1435.46 M174.2 1431.75 Q180.01 1431.75 183.066 1436.36 Q186.145 1440.94 186.145 1449.69 Q186.145 1458.42 183.066 1463.03 Q180.01 1467.61 174.2 1467.61 Q168.39 1467.61 165.311 1463.03 Q162.256 1458.42 162.256 1449.69 Q162.256 1440.94 165.311 1436.36 Q168.39 1431.75 174.2 1431.75 Z" fill="#000000" fill-rule="evenodd" fill-opacity="1" /><path clip-path="url(#clip830)" d="M222.533 1441.48 L211.955 1452.1 L222.533 1462.68 L219.779 1465.48 L209.154 1454.86 L198.529 1465.48 L195.797 1462.68 L206.353 1452.1 L195.797 1441.48 L198.529 1438.68 L209.154 1449.3 L219.779 1438.68 L222.533 1441.48 Z" fill="#000000" fill-rule="evenodd" fill-opacity="1" /><path clip-path="url(#clip830)" d="M234.894 1463 L242.533 1463 L242.533 1436.64 L234.223 1438.31 L234.223 1434.05 L242.487 1432.38 L247.163 1432.38 L247.163 1463 L254.802 1463 L254.802 1466.94 L234.894 1466.94 L234.894 1463 Z" fill="#000000" fill-rule="evenodd" fill-opacity="1" /><path clip-path="url(#clip830)" d="M274.246 1435.46 Q270.635 1435.46 268.806 1439.02 Q267.001 1442.57 267.001 1449.69 Q267.001 1456.8 268.806 1460.37 Q270.635 1463.91 274.246 1463.91 Q277.88 1463.91 279.686 1460.37 Q281.514 1456.8 281.514 1449.69 Q281.514 1442.57 279.686 1439.02 Q277.88 1435.46 274.246 1435.46 M274.246 1431.75 Q280.056 1431.75 283.112 1436.36 Q286.19 1440.94 286.19 1449.69 Q286.19 1458.42 283.112 1463.03 Q280.056 1467.61 274.246 1467.61 Q268.436 1467.61 265.357 1463.03 Q262.302 1458.42 262.302 1449.69 Q262.302 1440.94 265.357 1436.36 Q268.436 1431.75 274.246 1431.75 Z" fill="#000000" fill-rule="evenodd" fill-opacity="1" /><path clip-path="url(#clip830)" d="M287.375 1411.45 L302.29 1411.45 L302.29 1414.65 L290.855 1414.65 L290.855 1421.53 Q291.682 1421.25 292.51 1421.12 Q293.337 1420.97 294.165 1420.97 Q298.867 1420.97 301.613 1423.54 Q304.359 1426.12 304.359 1430.52 Q304.359 1435.05 301.538 1437.57 Q298.716 1440.07 293.582 1440.07 Q291.814 1440.07 289.971 1439.77 Q288.146 1439.47 286.19 1438.87 L286.19 1435.05 Q287.883 1435.97 289.689 1436.43 Q291.494 1436.88 293.507 1436.88 Q296.76 1436.88 298.66 1435.17 Q300.56 1433.45 300.56 1430.52 Q300.56 1427.59 298.66 1425.88 Q296.76 1424.16 293.507 1424.16 Q291.983 1424.16 290.46 1424.5 Q288.955 1424.84 287.375 1425.56 L287.375 1411.45 Z" fill="#000000" fill-rule="evenodd" fill-opacity="1" /><path clip-path="url(#clip830)" d="M131.816 1107.19 L120.011 1125.64 L131.816 1125.64 L131.816 1107.19 M130.589 1103.12 L136.469 1103.12 L136.469 1125.64 L141.399 1125.64 L141.399 1129.53 L136.469 1129.53 L136.469 1137.68 L131.816 1137.68 L131.816 1129.53 L116.214 1129.53 L116.214 1125.01 L130.589 1103.12 Z" fill="#000000" fill-rule="evenodd" fill-opacity="1" /><path clip-path="url(#clip830)" d="M149.131 1131.8 L154.015 1131.8 L154.015 1137.68 L149.131 1137.68 L149.131 1131.8 Z" fill="#000000" fill-rule="evenodd" fill-opacity="1" /><path clip-path="url(#clip830)" d="M174.2 1106.19 Q170.589 1106.19 168.76 1109.76 Q166.955 1113.3 166.955 1120.43 Q166.955 1127.54 168.76 1131.1 Q170.589 1134.64 174.2 1134.64 Q177.834 1134.64 179.64 1131.1 Q181.469 1127.54 181.469 1120.43 Q181.469 1113.3 179.64 1109.76 Q177.834 1106.19 174.2 1106.19 M174.2 1102.49 Q180.01 1102.49 183.066 1107.1 Q186.145 1111.68 186.145 1120.43 Q186.145 1129.16 183.066 1133.76 Q180.01 1138.35 174.2 1138.35 Q168.39 1138.35 165.311 1133.76 Q162.256 1129.16 162.256 1120.43 Q162.256 1111.68 165.311 1107.1 Q168.39 1102.49 174.2 1102.49 Z" fill="#000000" fill-rule="evenodd" fill-opacity="1" /><path clip-path="url(#clip830)" d="M222.533 1112.21 L211.955 1122.84 L222.533 1133.42 L219.779 1136.22 L209.154 1125.59 L198.529 1136.22 L195.797 1133.42 L206.353 1122.84 L195.797 1112.21 L198.529 1109.41 L209.154 1120.04 L219.779 1109.41 L222.533 1112.21 Z" fill="#000000" fill-rule="evenodd" fill-opacity="1" /><path clip-path="url(#clip830)" d="M234.894 1133.74 L242.533 1133.74 L242.533 1107.37 L234.223 1109.04 L234.223 1104.78 L242.487 1103.12 L247.163 1103.12 L247.163 1133.74 L254.802 1133.74 L254.802 1137.68 L234.894 1137.68 L234.894 1133.74 Z" fill="#000000" fill-rule="evenodd" fill-opacity="1" /><path clip-path="url(#clip830)" d="M274.246 1106.19 Q270.635 1106.19 268.806 1109.76 Q267.001 1113.3 267.001 1120.43 Q267.001 1127.54 268.806 1131.1 Q270.635 1134.64 274.246 1134.64 Q277.88 1134.64 279.686 1131.1 Q281.514 1127.54 281.514 1120.43 Q281.514 1113.3 279.686 1109.76 Q277.88 1106.19 274.246 1106.19 M274.246 1102.49 Q280.056 1102.49 283.112 1107.1 Q286.19 1111.68 286.19 1120.43 Q286.19 1129.16 283.112 1133.76 Q280.056 1138.35 274.246 1138.35 Q268.436 1138.35 265.357 1133.76 Q262.302 1129.16 262.302 1120.43 Q262.302 1111.68 265.357 1107.1 Q268.436 1102.49 274.246 1102.49 Z" fill="#000000" fill-rule="evenodd" fill-opacity="1" /><path clip-path="url(#clip830)" d="M287.375 1082.18 L302.29 1082.18 L302.29 1085.38 L290.855 1085.38 L290.855 1092.27 Q291.682 1091.98 292.51 1091.85 Q293.337 1091.7 294.165 1091.7 Q298.867 1091.7 301.613 1094.28 Q304.359 1096.85 304.359 1101.26 Q304.359 1105.79 301.538 1108.31 Q298.716 1110.81 293.582 1110.81 Q291.814 1110.81 289.971 1110.51 Q288.146 1110.21 286.19 1109.61 L286.19 1105.79 Q287.883 1106.71 289.689 1107.16 Q291.494 1107.61 293.507 1107.61 Q296.76 1107.61 298.66 1105.9 Q300.56 1104.19 300.56 1101.26 Q300.56 1098.32 298.66 1096.61 Q296.76 1094.9 293.507 1094.9 Q291.983 1094.9 290.46 1095.24 Q288.955 1095.58 287.375 1096.29 L287.375 1082.18 Z" fill="#000000" fill-rule="evenodd" fill-opacity="1" /><path clip-path="url(#clip830)" d="M129.548 789.267 Q126.4 789.267 124.548 791.42 Q122.719 793.573 122.719 797.322 Q122.719 801.049 124.548 803.225 Q126.4 805.378 129.548 805.378 Q132.696 805.378 134.525 803.225 Q136.376 801.049 136.376 797.322 Q136.376 793.573 134.525 791.42 Q132.696 789.267 129.548 789.267 M138.83 774.614 L138.83 778.874 Q137.071 778.04 135.265 777.6 Q133.483 777.161 131.724 777.161 Q127.094 777.161 124.64 780.286 Q122.21 783.411 121.863 789.73 Q123.228 787.716 125.288 786.651 Q127.349 785.563 129.825 785.563 Q135.034 785.563 138.043 788.735 Q141.075 791.883 141.075 797.322 Q141.075 802.647 137.927 805.864 Q134.779 809.082 129.548 809.082 Q123.552 809.082 120.381 804.498 Q117.21 799.892 117.21 791.165 Q117.21 782.971 121.099 778.11 Q124.988 773.225 131.538 773.225 Q133.298 773.225 135.08 773.573 Q136.886 773.92 138.83 774.614 Z" fill="#000000" fill-rule="evenodd" fill-opacity="1" /><path clip-path="url(#clip830)" d="M149.131 802.531 L154.015 802.531 L154.015 808.41 L149.131 808.41 L149.131 802.531 Z" fill="#000000" fill-rule="evenodd" fill-opacity="1" /><path clip-path="url(#clip830)" d="M174.2 776.929 Q170.589 776.929 168.76 780.494 Q166.955 784.036 166.955 791.165 Q166.955 798.272 168.76 801.836 Q170.589 805.378 174.2 805.378 Q177.834 805.378 179.64 801.836 Q181.469 798.272 181.469 791.165 Q181.469 784.036 179.64 780.494 Q177.834 776.929 174.2 776.929 M174.2 773.225 Q180.01 773.225 183.066 777.832 Q186.145 782.415 186.145 791.165 Q186.145 799.892 183.066 804.498 Q180.01 809.082 174.2 809.082 Q168.39 809.082 165.311 804.498 Q162.256 799.892 162.256 791.165 Q162.256 782.415 165.311 777.832 Q168.39 773.225 174.2 773.225 Z" fill="#000000" fill-rule="evenodd" fill-opacity="1" /><path clip-path="url(#clip830)" d="M222.533 782.948 L211.955 793.573 L222.533 804.151 L219.779 806.952 L209.154 796.327 L198.529 806.952 L195.797 804.151 L206.353 793.573 L195.797 782.948 L198.529 780.147 L209.154 790.772 L219.779 780.147 L222.533 782.948 Z" fill="#000000" fill-rule="evenodd" fill-opacity="1" /><path clip-path="url(#clip830)" d="M234.894 804.475 L242.533 804.475 L242.533 778.11 L234.223 779.776 L234.223 775.517 L242.487 773.85 L247.163 773.85 L247.163 804.475 L254.802 804.475 L254.802 808.41 L234.894 808.41 L234.894 804.475 Z" fill="#000000" fill-rule="evenodd" fill-opacity="1" /><path clip-path="url(#clip830)" d="M274.246 776.929 Q270.635 776.929 268.806 780.494 Q267.001 784.036 267.001 791.165 Q267.001 798.272 268.806 801.836 Q270.635 805.378 274.246 805.378 Q277.88 805.378 279.686 801.836 Q281.514 798.272 281.514 791.165 Q281.514 784.036 279.686 780.494 Q277.88 776.929 274.246 776.929 M274.246 773.225 Q280.056 773.225 283.112 777.832 Q286.19 782.415 286.19 791.165 Q286.19 799.892 283.112 804.498 Q280.056 809.082 274.246 809.082 Q268.436 809.082 265.357 804.498 Q262.302 799.892 262.302 791.165 Q262.302 782.415 265.357 777.832 Q268.436 773.225 274.246 773.225 Z" fill="#000000" fill-rule="evenodd" fill-opacity="1" /><path clip-path="url(#clip830)" d="M287.375 752.92 L302.29 752.92 L302.29 756.117 L290.855 756.117 L290.855 763.001 Q291.682 762.719 292.51 762.587 Q293.337 762.437 294.165 762.437 Q298.867 762.437 301.613 765.013 Q304.359 767.59 304.359 771.991 Q304.359 776.524 301.538 779.044 Q298.716 781.545 293.582 781.545 Q291.814 781.545 289.971 781.245 Q288.146 780.944 286.19 780.342 L286.19 776.524 Q287.883 777.445 289.689 777.897 Q291.494 778.348 293.507 778.348 Q296.76 778.348 298.66 776.637 Q300.56 774.925 300.56 771.991 Q300.56 769.057 298.66 767.346 Q296.76 765.634 293.507 765.634 Q291.983 765.634 290.46 765.973 Q288.955 766.311 287.375 767.026 L287.375 752.92 Z" fill="#000000" fill-rule="evenodd" fill-opacity="1" /><path clip-path="url(#clip830)" d="M128.969 462.734 Q125.636 462.734 123.714 464.516 Q121.816 466.299 121.816 469.423 Q121.816 472.548 123.714 474.331 Q125.636 476.113 128.969 476.113 Q132.302 476.113 134.224 474.331 Q136.145 472.525 136.145 469.423 Q136.145 466.299 134.224 464.516 Q132.325 462.734 128.969 462.734 M124.293 460.743 Q121.284 460.002 119.594 457.942 Q117.927 455.882 117.927 452.919 Q117.927 448.775 120.867 446.368 Q123.83 443.961 128.969 443.961 Q134.131 443.961 137.071 446.368 Q140.011 448.775 140.011 452.919 Q140.011 455.882 138.321 457.942 Q136.654 460.002 133.668 460.743 Q137.048 461.53 138.923 463.822 Q140.821 466.113 140.821 469.423 Q140.821 474.447 137.742 477.132 Q134.687 479.817 128.969 479.817 Q123.251 479.817 120.173 477.132 Q117.117 474.447 117.117 469.423 Q117.117 466.113 119.015 463.822 Q120.913 461.53 124.293 460.743 M122.58 453.359 Q122.58 456.044 124.247 457.549 Q125.937 459.053 128.969 459.053 Q131.978 459.053 133.668 457.549 Q135.381 456.044 135.381 453.359 Q135.381 450.674 133.668 449.169 Q131.978 447.664 128.969 447.664 Q125.937 447.664 124.247 449.169 Q122.58 450.674 122.58 453.359 Z" fill="#000000" fill-rule="evenodd" fill-opacity="1" /><path clip-path="url(#clip830)" d="M149.131 473.266 L154.015 473.266 L154.015 479.146 L149.131 479.146 L149.131 473.266 Z" fill="#000000" fill-rule="evenodd" fill-opacity="1" /><path clip-path="url(#clip830)" d="M174.2 447.664 Q170.589 447.664 168.76 451.229 Q166.955 454.771 166.955 461.9 Q166.955 469.007 168.76 472.572 Q170.589 476.113 174.2 476.113 Q177.834 476.113 179.64 472.572 Q181.469 469.007 181.469 461.9 Q181.469 454.771 179.64 451.229 Q177.834 447.664 174.2 447.664 M174.2 443.961 Q180.01 443.961 183.066 448.567 Q186.145 453.15 186.145 461.9 Q186.145 470.627 183.066 475.234 Q180.01 479.817 174.2 479.817 Q168.39 479.817 165.311 475.234 Q162.256 470.627 162.256 461.9 Q162.256 453.15 165.311 448.567 Q168.39 443.961 174.2 443.961 Z" fill="#000000" fill-rule="evenodd" fill-opacity="1" /><path clip-path="url(#clip830)" d="M222.533 453.683 L211.955 464.308 L222.533 474.886 L219.779 477.687 L209.154 467.062 L198.529 477.687 L195.797 474.886 L206.353 464.308 L195.797 453.683 L198.529 450.882 L209.154 461.507 L219.779 450.882 L222.533 453.683 Z" fill="#000000" fill-rule="evenodd" fill-opacity="1" /><path clip-path="url(#clip830)" d="M234.894 475.211 L242.533 475.211 L242.533 448.845 L234.223 450.512 L234.223 446.252 L242.487 444.586 L247.163 444.586 L247.163 475.211 L254.802 475.211 L254.802 479.146 L234.894 479.146 L234.894 475.211 Z" fill="#000000" fill-rule="evenodd" fill-opacity="1" /><path clip-path="url(#clip830)" d="M274.246 447.664 Q270.635 447.664 268.806 451.229 Q267.001 454.771 267.001 461.9 Q267.001 469.007 268.806 472.572 Q270.635 476.113 274.246 476.113 Q277.88 476.113 279.686 472.572 Q281.514 469.007 281.514 461.9 Q281.514 454.771 279.686 451.229 Q277.88 447.664 274.246 447.664 M274.246 443.961 Q280.056 443.961 283.112 448.567 Q286.19 453.15 286.19 461.9 Q286.19 470.627 283.112 475.234 Q280.056 479.817 274.246 479.817 Q268.436 479.817 265.357 475.234 Q262.302 470.627 262.302 461.9 Q262.302 453.15 265.357 448.567 Q268.436 443.961 274.246 443.961 Z" fill="#000000" fill-rule="evenodd" fill-opacity="1" /><path clip-path="url(#clip830)" d="M287.375 423.655 L302.29 423.655 L302.29 426.853 L290.855 426.853 L290.855 433.736 Q291.682 433.454 292.51 433.322 Q293.337 433.172 294.165 433.172 Q298.867 433.172 301.613 435.749 Q304.359 438.325 304.359 442.726 Q304.359 447.259 301.538 449.779 Q298.716 452.281 293.582 452.281 Q291.814 452.281 289.971 451.98 Q288.146 451.679 286.19 451.077 L286.19 447.259 Q287.883 448.181 289.689 448.632 Q291.494 449.083 293.507 449.083 Q296.76 449.083 298.66 447.372 Q300.56 445.66 300.56 442.726 Q300.56 439.792 298.66 438.081 Q296.76 436.369 293.507 436.369 Q291.983 436.369 290.46 436.708 Q288.955 437.046 287.375 437.761 L287.375 423.655 Z" fill="#000000" fill-rule="evenodd" fill-opacity="1" /><path clip-path="url(#clip830)" d="M39.3585 1648.89 Q40.0587 1646.83 42.3504 1644.88 Q44.642 1642.91 48.6524 1640.94 L61.6384 1634.41 L61.6384 1641.32 L49.4481 1647.4 Q44.6738 1649.75 43.1142 1651.98 Q41.5546 1654.18 41.5546 1658 L41.5546 1665 L61.6384 1665 L61.6384 1671.43 L14.1184 1671.43 L14.1184 1656.92 Q14.1184 1648.77 17.5241 1644.76 Q20.9297 1640.75 27.8047 1640.75 Q32.2925 1640.75 35.2526 1642.85 Q38.2126 1644.92 39.3585 1648.89 M19.402 1665 L36.2711 1665 L36.2711 1656.92 Q36.2711 1652.27 34.1386 1649.91 Q31.9743 1647.53 27.8047 1647.53 Q23.6352 1647.53 21.5345 1649.91 Q19.402 1652.27 19.402 1656.92 L19.402 1665 Z" fill="#000000" fill-rule="evenodd" fill-opacity="1" /><path clip-path="url(#clip830)" d="M43.719 1611.62 Q43.719 1618.72 45.3422 1621.46 Q46.9655 1624.2 50.8804 1624.2 Q53.9996 1624.2 55.8457 1622.16 Q57.6599 1620.09 57.6599 1616.56 Q57.6599 1611.69 54.2224 1608.76 Q50.7531 1605.8 45.0239 1605.8 L43.719 1605.8 L43.719 1611.62 M41.3 1599.94 L61.6384 1599.94 L61.6384 1605.8 L56.2276 1605.8 Q59.4741 1607.8 61.0337 1610.8 Q62.5615 1613.79 62.5615 1618.12 Q62.5615 1623.59 59.5059 1626.84 Q56.4186 1630.05 51.2623 1630.05 Q45.2467 1630.05 42.1912 1626.04 Q39.1357 1622 39.1357 1614.01 L39.1357 1605.8 L38.5628 1605.8 Q34.5205 1605.8 32.3244 1608.47 Q30.0964 1611.11 30.0964 1615.92 Q30.0964 1618.98 30.8284 1621.87 Q31.5605 1624.77 33.0246 1627.44 L27.6137 1627.44 Q26.3724 1624.23 25.7677 1621.2 Q25.1311 1618.18 25.1311 1615.32 Q25.1311 1607.58 29.1415 1603.76 Q33.1519 1599.94 41.3 1599.94 Z" fill="#000000" fill-rule="evenodd" fill-opacity="1" /><path clip-path="url(#clip830)" d="M15.869 1582.09 L25.9905 1582.09 L25.9905 1570.02 L30.542 1570.02 L30.542 1582.09 L49.8937 1582.09 Q54.2542 1582.09 55.4955 1580.91 Q56.7368 1579.7 56.7368 1576.04 L56.7368 1570.02 L61.6384 1570.02 L61.6384 1576.04 Q61.6384 1582.82 59.124 1585.4 Q56.5777 1587.98 49.8937 1587.98 L30.542 1587.98 L30.542 1592.27 L25.9905 1592.27 L25.9905 1587.98 L15.869 1587.98 L15.869 1582.09 Z" fill="#000000" fill-rule="evenodd" fill-opacity="1" /><path clip-path="url(#clip830)" d="M42.3504 1531.83 L45.2149 1531.83 L45.2149 1558.76 Q51.2623 1558.37 54.4452 1555.13 Q57.5962 1551.85 57.5962 1546.03 Q57.5962 1542.65 56.7687 1539.5 Q55.9411 1536.32 54.2861 1533.2 L59.8242 1533.2 Q61.161 1536.35 61.8612 1539.66 Q62.5615 1542.97 62.5615 1546.38 Q62.5615 1554.91 57.5962 1559.9 Q52.631 1564.87 44.1646 1564.87 Q35.4117 1564.87 30.2873 1560.16 Q25.1311 1555.41 25.1311 1547.39 Q25.1311 1540.2 29.7781 1536.03 Q34.3932 1531.83 42.3504 1531.83 M40.6316 1537.69 Q35.8255 1537.75 32.9609 1540.39 Q30.0964 1543 30.0964 1547.33 Q30.0964 1552.23 32.8654 1555.19 Q35.6345 1558.12 40.6634 1558.57 L40.6316 1537.69 Z" fill="#000000" fill-rule="evenodd" fill-opacity="1" /><path clip-path="url(#clip830)" d="M30.0964 1487.68 Q30.0964 1492.39 33.7885 1495.13 Q37.4488 1497.87 43.8463 1497.87 Q50.2438 1497.87 53.9359 1495.16 Q57.5962 1492.43 57.5962 1487.68 Q57.5962 1483 53.9041 1480.27 Q50.212 1477.53 43.8463 1477.53 Q37.5124 1477.53 33.8203 1480.27 Q30.0964 1483 30.0964 1487.68 M25.1311 1487.68 Q25.1311 1480.04 30.0964 1475.68 Q35.0616 1471.32 43.8463 1471.32 Q52.5991 1471.32 57.5962 1475.68 Q62.5615 1480.04 62.5615 1487.68 Q62.5615 1495.35 57.5962 1499.71 Q52.5991 1504.04 43.8463 1504.04 Q35.0616 1504.04 30.0964 1499.71 Q25.1311 1495.35 25.1311 1487.68 Z" fill="#000000" fill-rule="evenodd" fill-opacity="1" /><path clip-path="url(#clip830)" d="M12.1132 1443.57 L16.983 1443.57 L16.983 1449.17 Q16.983 1452.32 18.2562 1453.56 Q19.5293 1454.77 22.8395 1454.77 L25.9905 1454.77 L25.9905 1445.13 L30.542 1445.13 L30.542 1454.77 L61.6384 1454.77 L61.6384 1460.66 L30.542 1460.66 L30.542 1466.26 L25.9905 1466.26 L25.9905 1460.66 L23.5079 1460.66 Q17.5559 1460.66 14.8505 1457.89 Q12.1132 1455.12 12.1132 1449.11 L12.1132 1443.57 Z" fill="#000000" fill-rule="evenodd" fill-opacity="1" /><path clip-path="url(#clip830)" d="M40.1224 1388.31 L61.6384 1388.31 L61.6384 1394.17 L40.3133 1394.17 Q35.2526 1394.17 32.7381 1396.14 Q30.2237 1398.12 30.2237 1402.06 Q30.2237 1406.81 33.2474 1409.54 Q36.2711 1412.28 41.491 1412.28 L61.6384 1412.28 L61.6384 1418.17 L12.1132 1418.17 L12.1132 1412.28 L31.5287 1412.28 Q28.314 1410.18 26.7225 1407.35 Q25.1311 1404.48 25.1311 1400.76 Q25.1311 1394.62 28.9505 1391.47 Q32.7381 1388.31 40.1224 1388.31 Z" fill="#000000" fill-rule="evenodd" fill-opacity="1" /><path clip-path="url(#clip830)" d="M42.3504 1346.14 L45.2149 1346.14 L45.2149 1373.07 Q51.2623 1372.69 54.4452 1369.44 Q57.5962 1366.16 57.5962 1360.34 Q57.5962 1356.96 56.7687 1353.81 Q55.9411 1350.63 54.2861 1347.51 L59.8242 1347.51 Q61.161 1350.66 61.8612 1353.97 Q62.5615 1357.28 62.5615 1360.69 Q62.5615 1369.22 57.5962 1374.21 Q52.631 1379.18 44.1646 1379.18 Q35.4117 1379.18 30.2873 1374.47 Q25.1311 1369.73 25.1311 1361.71 Q25.1311 1354.51 29.7781 1350.34 Q34.3932 1346.14 42.3504 1346.14 M40.6316 1352 Q35.8255 1352.06 32.9609 1354.7 Q30.0964 1357.31 30.0964 1361.64 Q30.0964 1366.54 32.8654 1369.5 Q35.6345 1372.43 40.6634 1372.88 L40.6316 1352 Z" fill="#000000" fill-rule="evenodd" fill-opacity="1" /><path clip-path="url(#clip830)" d="M43.719 1320.33 Q43.719 1327.43 45.3422 1330.16 Q46.9655 1332.9 50.8804 1332.9 Q53.9996 1332.9 55.8457 1330.86 Q57.6599 1328.8 57.6599 1325.26 Q57.6599 1320.39 54.2224 1317.46 Q50.7531 1314.5 45.0239 1314.5 L43.719 1314.5 L43.719 1320.33 M41.3 1308.65 L61.6384 1308.65 L61.6384 1314.5 L56.2276 1314.5 Q59.4741 1316.51 61.0337 1319.5 Q62.5615 1322.49 62.5615 1326.82 Q62.5615 1332.3 59.5059 1335.54 Q56.4186 1338.76 51.2623 1338.76 Q45.2467 1338.76 42.1912 1334.75 Q39.1357 1330.71 39.1357 1322.72 L39.1357 1314.5 L38.5628 1314.5 Q34.5205 1314.5 32.3244 1317.18 Q30.0964 1319.82 30.0964 1324.63 Q30.0964 1327.68 30.8284 1330.58 Q31.5605 1333.47 33.0246 1336.15 L27.6137 1336.15 Q26.3724 1332.93 25.7677 1329.91 Q25.1311 1326.89 25.1311 1324.02 Q25.1311 1316.29 29.1415 1312.47 Q33.1519 1308.65 41.3 1308.65 Z" fill="#000000" fill-rule="evenodd" fill-opacity="1" /><path clip-path="url(#clip830)" d="M15.869 1290.79 L25.9905 1290.79 L25.9905 1278.73 L30.542 1278.73 L30.542 1290.79 L49.8937 1290.79 Q54.2542 1290.79 55.4955 1289.61 Q56.7368 1288.4 56.7368 1284.74 L56.7368 1278.73 L61.6384 1278.73 L61.6384 1284.74 Q61.6384 1291.52 59.124 1294.1 Q56.5777 1296.68 49.8937 1296.68 L30.542 1296.68 L30.542 1300.98 L25.9905 1300.98 L25.9905 1296.68 L15.869 1296.68 L15.869 1290.79 Z" fill="#000000" fill-rule="evenodd" fill-opacity="1" /><path clip-path="url(#clip830)" d="M12.1132 1250.31 L12.1132 1244.45 L61.6384 1244.45 L61.6384 1250.31 L12.1132 1250.31 Z" fill="#000000" fill-rule="evenodd" fill-opacity="1" /><path clip-path="url(#clip830)" d="M30.0964 1218.38 Q30.0964 1223.09 33.7885 1225.83 Q37.4488 1228.57 43.8463 1228.57 Q50.2438 1228.57 53.9359 1225.86 Q57.5962 1223.12 57.5962 1218.38 Q57.5962 1213.7 53.9041 1210.97 Q50.212 1208.23 43.8463 1208.23 Q37.5124 1208.23 33.8203 1210.97 Q30.0964 1213.7 30.0964 1218.38 M25.1311 1218.38 Q25.1311 1210.74 30.0964 1206.38 Q35.0616 1202.02 43.8463 1202.02 Q52.5991 1202.02 57.5962 1206.38 Q62.5615 1210.74 62.5615 1218.38 Q62.5615 1226.05 57.5962 1230.41 Q52.5991 1234.74 43.8463 1234.74 Q35.0616 1234.74 30.0964 1230.41 Q25.1311 1226.05 25.1311 1218.38 Z" fill="#000000" fill-rule="evenodd" fill-opacity="1" /><path clip-path="url(#clip830)" d="M27.0408 1169.59 L32.579 1169.59 Q31.3059 1172.07 30.6693 1174.75 Q30.0327 1177.42 30.0327 1180.28 Q30.0327 1184.64 31.3695 1186.84 Q32.7063 1189 35.3799 1189 Q37.4169 1189 38.5946 1187.44 Q39.7404 1185.89 40.7908 1181.17 L41.2364 1179.17 Q42.5732 1172.93 45.0239 1170.32 Q47.4429 1167.68 51.8034 1167.68 Q56.7687 1167.68 59.6651 1171.63 Q62.5615 1175.54 62.5615 1182.42 Q62.5615 1185.28 61.9886 1188.4 Q61.4475 1191.49 60.3335 1194.92 L54.2861 1194.92 Q55.973 1191.68 56.8323 1188.53 Q57.6599 1185.38 57.6599 1182.29 Q57.6599 1178.15 56.2594 1175.92 Q54.8271 1173.69 52.249 1173.69 Q49.8619 1173.69 48.5887 1175.32 Q47.3156 1176.91 46.1379 1182.35 L45.6605 1184.39 Q44.5147 1189.83 42.1594 1192.25 Q39.7722 1194.67 35.6345 1194.67 Q30.6056 1194.67 27.8684 1191.11 Q25.1311 1187.54 25.1311 1180.98 Q25.1311 1177.74 25.6085 1174.87 Q26.086 1172.01 27.0408 1169.59 Z" fill="#000000" fill-rule="evenodd" fill-opacity="1" /><path clip-path="url(#clip830)" d="M27.0408 1135.63 L32.579 1135.63 Q31.3059 1138.11 30.6693 1140.78 Q30.0327 1143.46 30.0327 1146.32 Q30.0327 1150.68 31.3695 1152.88 Q32.7063 1155.04 35.3799 1155.04 Q37.4169 1155.04 38.5946 1153.48 Q39.7404 1151.92 40.7908 1147.21 L41.2364 1145.21 Q42.5732 1138.97 45.0239 1136.36 Q47.4429 1133.72 51.8034 1133.72 Q56.7687 1133.72 59.6651 1137.66 Q62.5615 1141.58 62.5615 1148.45 Q62.5615 1151.32 61.9886 1154.44 Q61.4475 1157.53 60.3335 1160.96 L54.2861 1160.96 Q55.973 1157.72 56.8323 1154.57 Q57.6599 1151.41 57.6599 1148.33 Q57.6599 1144.19 56.2594 1141.96 Q54.8271 1139.73 52.249 1139.73 Q49.8619 1139.73 48.5887 1141.36 Q47.3156 1142.95 46.1379 1148.39 L45.6605 1150.43 Q44.5147 1155.87 42.1594 1158.29 Q39.7722 1160.71 35.6345 1160.71 Q30.6056 1160.71 27.8684 1157.14 Q25.1311 1153.58 25.1311 1147.02 Q25.1311 1143.78 25.6085 1140.91 Q26.086 1138.05 27.0408 1135.63 Z" fill="#000000" fill-rule="evenodd" fill-opacity="1" /><path clip-path="url(#clip830)" d="M15.869 1097.88 L25.9905 1097.88 L25.9905 1085.82 L30.542 1085.82 L30.542 1097.88 L49.8937 1097.88 Q54.2542 1097.88 55.4955 1096.7 Q56.7368 1095.49 56.7368 1091.83 L56.7368 1085.82 L61.6384 1085.82 L61.6384 1091.83 Q61.6384 1098.61 59.124 1101.19 Q56.5777 1103.77 49.8937 1103.77 L30.542 1103.77 L30.542 1108.06 L25.9905 1108.06 L25.9905 1103.77 L15.869 1103.77 L15.869 1097.88 Z" fill="#000000" fill-rule="evenodd" fill-opacity="1" /><path clip-path="url(#clip830)" d="M30.0964 1064.3 Q30.0964 1069.01 33.7885 1071.75 Q37.4488 1074.49 43.8463 1074.49 Q50.2438 1074.49 53.9359 1071.78 Q57.5962 1069.04 57.5962 1064.3 Q57.5962 1059.62 53.9041 1056.88 Q50.212 1054.15 43.8463 1054.15 Q37.5124 1054.15 33.8203 1056.88 Q30.0964 1059.62 30.0964 1064.3 M25.1311 1064.3 Q25.1311 1056.66 30.0964 1052.3 Q35.0616 1047.94 43.8463 1047.94 Q52.5991 1047.94 57.5962 1052.3 Q62.5615 1056.66 62.5615 1064.3 Q62.5615 1071.97 57.5962 1076.33 Q52.5991 1080.66 43.8463 1080.66 Q35.0616 1080.66 30.0964 1076.33 Q25.1311 1071.97 25.1311 1064.3 Z" fill="#000000" fill-rule="evenodd" fill-opacity="1" /><path clip-path="url(#clip830)" d="M30.0964 1003.7 Q30.0964 1008.41 33.7885 1011.15 Q37.4488 1013.88 43.8463 1013.88 Q50.2438 1013.88 53.9359 1011.18 Q57.5962 1008.44 57.5962 1003.7 Q57.5962 999.02 53.9041 996.283 Q50.212 993.545 43.8463 993.545 Q37.5124 993.545 33.8203 996.283 Q30.0964 999.02 30.0964 1003.7 M25.1311 1003.7 Q25.1311 996.06 30.0964 991.699 Q35.0616 987.339 43.8463 987.339 Q52.5991 987.339 57.5962 991.699 Q62.5615 996.06 62.5615 1003.7 Q62.5615 1011.37 57.5962 1015.73 Q52.5991 1020.06 43.8463 1020.06 Q35.0616 1020.06 30.0964 1015.73 Q25.1311 1011.37 25.1311 1003.7 Z" fill="#000000" fill-rule="evenodd" fill-opacity="1" /><path clip-path="url(#clip830)" d="M25.9905 981.832 L25.9905 975.626 L55.9093 964.486 L25.9905 953.346 L25.9905 947.139 L61.6384 960.507 L61.6384 968.464 L25.9905 981.832 Z" fill="#000000" fill-rule="evenodd" fill-opacity="1" /><path clip-path="url(#clip830)" d="M42.3504 908.563 L45.2149 908.563 L45.2149 935.49 Q51.2623 935.108 54.4452 931.862 Q57.5962 928.583 57.5962 922.759 Q57.5962 919.385 56.7687 916.234 Q55.9411 913.051 54.2861 909.932 L59.8242 909.932 Q61.161 913.083 61.8612 916.393 Q62.5615 919.703 62.5615 923.109 Q62.5615 931.639 57.5962 936.636 Q52.631 941.601 44.1646 941.601 Q35.4117 941.601 30.2873 936.891 Q25.1311 932.148 25.1311 924.127 Q25.1311 916.934 29.7781 912.765 Q34.3932 908.563 42.3504 908.563 M40.6316 914.42 Q35.8255 914.483 32.9609 917.125 Q30.0964 919.735 30.0964 924.064 Q30.0964 928.965 32.8654 931.925 Q35.6345 934.854 40.6634 935.299 L40.6316 914.42 Z" fill="#000000" fill-rule="evenodd" fill-opacity="1" /><path clip-path="url(#clip830)" d="M31.465 878.294 Q30.8921 879.281 30.6375 880.459 Q30.351 881.604 30.351 883.005 Q30.351 887.97 33.5975 890.644 Q36.8122 893.285 42.8596 893.285 L61.6384 893.285 L61.6384 899.174 L25.9905 899.174 L25.9905 893.285 L31.5287 893.285 Q28.2821 891.439 26.7225 888.479 Q25.1311 885.519 25.1311 881.286 Q25.1311 880.681 25.2266 879.949 Q25.2903 879.217 25.4494 878.326 L31.465 878.294 Z" fill="#000000" fill-rule="evenodd" fill-opacity="1" /><path clip-path="url(#clip830)" d="M43.8463 846.561 Q37.3851 846.561 33.7248 849.235 Q30.0327 851.877 30.0327 856.524 Q30.0327 861.17 33.7248 863.844 Q37.3851 866.486 43.8463 866.486 Q50.3075 866.486 53.9996 863.844 Q57.6599 861.17 57.6599 856.524 Q57.6599 851.877 53.9996 849.235 Q50.3075 846.561 43.8463 846.561 M31.4013 866.486 Q28.2185 864.64 26.6907 861.839 Q25.1311 859.006 25.1311 855.091 Q25.1311 848.598 30.2873 844.556 Q35.4436 840.482 43.8463 840.482 Q52.249 840.482 57.4052 844.556 Q62.5615 848.598 62.5615 855.091 Q62.5615 859.006 61.0337 861.839 Q59.4741 864.64 56.2912 866.486 L61.6384 866.486 L61.6384 872.374 L12.1132 872.374 L12.1132 866.486 L31.4013 866.486 Z" fill="#000000" fill-rule="evenodd" fill-opacity="1" /><path clip-path="url(#clip830)" d="M47.5702 831.379 L25.9905 831.379 L25.9905 825.523 L47.3474 825.523 Q52.4082 825.523 54.9545 823.549 Q57.4689 821.576 57.4689 817.629 Q57.4689 812.887 54.4452 810.149 Q51.4215 807.38 46.2016 807.38 L25.9905 807.38 L25.9905 801.524 L61.6384 801.524 L61.6384 807.38 L56.1639 807.38 Q59.4104 809.513 61.0019 812.346 Q62.5615 815.146 62.5615 818.87 Q62.5615 825.013 58.742 828.196 Q54.9226 831.379 47.5702 831.379 M25.1311 816.642 L25.1311 816.642 Z" fill="#000000" fill-rule="evenodd" fill-opacity="1" /><path clip-path="url(#clip830)" d="M31.465 768.804 Q30.8921 769.791 30.6375 770.968 Q30.351 772.114 30.351 773.515 Q30.351 778.48 33.5975 781.154 Q36.8122 783.795 42.8596 783.795 L61.6384 783.795 L61.6384 789.684 L25.9905 789.684 L25.9905 783.795 L31.5287 783.795 Q28.2821 781.949 26.7225 778.989 Q25.1311 776.029 25.1311 771.796 Q25.1311 771.191 25.2266 770.459 Q25.2903 769.727 25.4494 768.836 L31.465 768.804 Z" fill="#000000" fill-rule="evenodd" fill-opacity="1" /><path clip-path="url(#clip830)" d="M31.4013 740.349 L12.1132 740.349 L12.1132 734.493 L61.6384 734.493 L61.6384 740.349 L56.2912 740.349 Q59.4741 742.195 61.0337 745.028 Q62.5615 747.829 62.5615 751.776 Q62.5615 758.237 57.4052 762.311 Q52.249 766.353 43.8463 766.353 Q35.4436 766.353 30.2873 762.311 Q25.1311 758.237 25.1311 751.776 Q25.1311 747.829 26.6907 745.028 Q28.2185 742.195 31.4013 740.349 M43.8463 760.306 Q50.3075 760.306 53.9996 757.664 Q57.6599 754.991 57.6599 750.344 Q57.6599 745.697 53.9996 743.023 Q50.3075 740.349 43.8463 740.349 Q37.3851 740.349 33.7248 743.023 Q30.0327 745.697 30.0327 750.344 Q30.0327 754.991 33.7248 757.664 Q37.3851 760.306 43.8463 760.306 Z" fill="#000000" fill-rule="evenodd" fill-opacity="1" /><path clip-path="url(#clip830)" d="M42.3504 691.938 L45.2149 691.938 L45.2149 718.865 Q51.2623 718.483 54.4452 715.237 Q57.5962 711.958 57.5962 706.134 Q57.5962 702.76 56.7687 699.609 Q55.9411 696.426 54.2861 693.307 L59.8242 693.307 Q61.161 696.458 61.8612 699.768 Q62.5615 703.078 62.5615 706.484 Q62.5615 715.014 57.5962 720.011 Q52.631 724.976 44.1646 724.976 Q35.4117 724.976 30.2873 720.266 Q25.1311 715.523 25.1311 707.502 Q25.1311 700.309 29.7781 696.14 Q34.3932 691.938 42.3504 691.938 M40.6316 697.795 Q35.8255 697.858 32.9609 700.5 Q30.0964 703.11 30.0964 707.439 Q30.0964 712.34 32.8654 715.3 Q35.6345 718.229 40.6634 718.674 L40.6316 697.795 Z" fill="#000000" fill-rule="evenodd" fill-opacity="1" /><path clip-path="url(#clip830)" d="M40.1224 652.694 L61.6384 652.694 L61.6384 658.55 L40.3133 658.55 Q35.2526 658.55 32.7381 660.523 Q30.2237 662.497 30.2237 666.444 Q30.2237 671.186 33.2474 673.923 Q36.2711 676.66 41.491 676.66 L61.6384 676.66 L61.6384 682.549 L25.9905 682.549 L25.9905 676.66 L31.5287 676.66 Q28.314 674.56 26.7225 671.727 Q25.1311 668.862 25.1311 665.139 Q25.1311 658.996 28.9505 655.845 Q32.7381 652.694 40.1224 652.694 Z" fill="#000000" fill-rule="evenodd" fill-opacity="1" /><path clip-path="url(#clip830)" d="M12.1769 606.224 Q19.4975 610.489 26.6589 612.558 Q33.8203 614.627 41.1727 614.627 Q48.5251 614.627 55.7502 612.558 Q62.9434 610.457 70.2321 606.224 L70.2321 611.317 Q62.7524 616.091 55.5274 618.478 Q48.3023 620.833 41.1727 620.833 Q34.0749 620.833 26.8817 618.478 Q19.6884 616.123 12.1769 611.317 L12.1769 606.224 Z" fill="#000000" fill-rule="evenodd" fill-opacity="1" /><path clip-path="url(#clip830)" d="M14.1184 594.607 L14.1184 585.026 L46.4562 572.899 L14.1184 560.709 L14.1184 551.129 L61.6384 551.129 L61.6384 557.399 L19.9112 557.399 L52.5037 569.653 L52.5037 576.114 L19.9112 588.368 L61.6384 588.368 L61.6384 594.607 L14.1184 594.607 Z" fill="#000000" fill-rule="evenodd" fill-opacity="1" /><path clip-path="url(#clip830)" d="M14.1184 538.366 L14.1184 531.936 L58.3283 531.936 Q66.922 531.936 70.8051 535.214 Q74.6881 538.461 74.6881 545.686 L74.6881 548.137 L69.2773 548.137 L69.2773 546.132 Q69.2773 541.867 66.8902 540.116 Q64.503 538.366 58.3283 538.366 L14.1184 538.366 Z" fill="#000000" fill-rule="evenodd" fill-opacity="1" /><path clip-path="url(#clip830)" d="M30.0964 505.582 Q30.0964 510.293 33.7885 513.03 Q37.4488 515.767 43.8463 515.767 Q50.2438 515.767 53.9359 513.062 Q57.5962 510.325 57.5962 505.582 Q57.5962 500.903 53.9041 498.166 Q50.212 495.429 43.8463 495.429 Q37.5124 495.429 33.8203 498.166 Q30.0964 500.903 30.0964 505.582 M25.1311 505.582 Q25.1311 497.943 30.0964 493.583 Q35.0616 489.222 43.8463 489.222 Q52.5991 489.222 57.5962 493.583 Q62.5615 497.943 62.5615 505.582 Q62.5615 513.253 57.5962 517.613 Q52.5991 521.942 43.8463 521.942 Q35.0616 521.942 30.0964 517.613 Q25.1311 513.253 25.1311 505.582 Z" fill="#000000" fill-rule="evenodd" fill-opacity="1" /><path clip-path="url(#clip830)" d="M47.5702 480.119 L25.9905 480.119 L25.9905 474.263 L47.3474 474.263 Q52.4082 474.263 54.9545 472.289 Q57.4689 470.316 57.4689 466.369 Q57.4689 461.627 54.4452 458.89 Q51.4215 456.121 46.2016 456.121 L25.9905 456.121 L25.9905 450.264 L61.6384 450.264 L61.6384 456.121 L56.1639 456.121 Q59.4104 458.253 61.0019 461.086 Q62.5615 463.887 62.5615 467.611 Q62.5615 473.754 58.742 476.936 Q54.9226 480.119 47.5702 480.119 M25.1311 465.383 L25.1311 465.383 Z" fill="#000000" fill-rule="evenodd" fill-opacity="1" /><path clip-path="url(#clip830)" d="M12.1132 438.201 L12.1132 432.345 L61.6384 432.345 L61.6384 438.201 L12.1132 438.201 Z" fill="#000000" fill-rule="evenodd" fill-opacity="1" /><path clip-path="url(#clip830)" d="M42.3504 389.599 L45.2149 389.599 L45.2149 416.526 Q51.2623 416.144 54.4452 412.897 Q57.5962 409.619 57.5962 403.794 Q57.5962 400.421 56.7687 397.27 Q55.9411 394.087 54.2861 390.968 L59.8242 390.968 Q61.161 394.119 61.8612 397.429 Q62.5615 400.739 62.5615 404.145 Q62.5615 412.675 57.5962 417.672 Q52.631 422.637 44.1646 422.637 Q35.4117 422.637 30.2873 417.926 Q25.1311 413.184 25.1311 405.163 Q25.1311 397.97 29.7781 393.8 Q34.3932 389.599 42.3504 389.599 M40.6316 395.455 Q35.8255 395.519 32.9609 398.161 Q30.0964 400.771 30.0964 405.099 Q30.0964 410.001 32.8654 412.961 Q35.6345 415.889 40.6634 416.335 L40.6316 395.455 Z" fill="#000000" fill-rule="evenodd" fill-opacity="1" /><path clip-path="url(#clip830)" d="M27.0408 357.261 L32.579 357.261 Q31.3059 359.744 30.6693 362.417 Q30.0327 365.091 30.0327 367.956 Q30.0327 372.316 31.3695 374.512 Q32.7063 376.677 35.3799 376.677 Q37.4169 376.677 38.5946 375.117 Q39.7404 373.557 40.7908 368.847 L41.2364 366.842 Q42.5732 360.603 45.0239 357.993 Q47.4429 355.351 51.8034 355.351 Q56.7687 355.351 59.6651 359.298 Q62.5615 363.213 62.5615 370.088 Q62.5615 372.953 61.9886 376.072 Q61.4475 379.159 60.3335 382.597 L54.2861 382.597 Q55.973 379.35 56.8323 376.199 Q57.6599 373.048 57.6599 369.961 Q57.6599 365.823 56.2594 363.595 Q54.8271 361.367 52.249 361.367 Q49.8619 361.367 48.5887 362.99 Q47.3156 364.582 46.1379 370.024 L45.6605 372.061 Q44.5147 377.504 42.1594 379.923 Q39.7722 382.342 35.6345 382.342 Q30.6056 382.342 27.8684 378.777 Q25.1311 375.212 25.1311 368.656 Q25.1311 365.409 25.6085 362.545 Q26.086 359.68 27.0408 357.261 Z" fill="#000000" fill-rule="evenodd" fill-opacity="1" /><path clip-path="url(#clip830)" d="M14.1184 335.618 L14.1184 330.207 L67.6859 346.758 L67.6859 352.169 L14.1184 335.618 Z" fill="#000000" fill-rule="evenodd" fill-opacity="1" /><path clip-path="url(#clip830)" d="M31.4013 300.606 L12.1132 300.606 L12.1132 294.75 L61.6384 294.75 L61.6384 300.606 L56.2912 300.606 Q59.4741 302.452 61.0337 305.285 Q62.5615 308.086 62.5615 312.033 Q62.5615 318.494 57.4052 322.568 Q52.249 326.61 43.8463 326.61 Q35.4436 326.61 30.2873 322.568 Q25.1311 318.494 25.1311 312.033 Q25.1311 308.086 26.6907 305.285 Q28.2185 302.452 31.4013 300.606 M43.8463 320.563 Q50.3075 320.563 53.9996 317.921 Q57.6599 315.247 57.6599 310.601 Q57.6599 305.954 53.9996 303.28 Q50.3075 300.606 43.8463 300.606 Q37.3851 300.606 33.7248 303.28 Q30.0327 305.954 30.0327 310.601 Q30.0327 315.247 33.7248 317.921 Q37.3851 320.563 43.8463 320.563 Z" fill="#000000" fill-rule="evenodd" fill-opacity="1" /><path clip-path="url(#clip830)" d="M43.719 266.486 Q43.719 273.584 45.3422 276.321 Q46.9655 279.058 50.8804 279.058 Q53.9996 279.058 55.8457 277.021 Q57.6599 274.953 57.6599 271.42 Q57.6599 266.55 54.2224 263.622 Q50.7531 260.662 45.0239 260.662 L43.719 260.662 L43.719 266.486 M41.3 254.805 L61.6384 254.805 L61.6384 260.662 L56.2276 260.662 Q59.4741 262.667 61.0337 265.659 Q62.5615 268.651 62.5615 272.979 Q62.5615 278.454 59.5059 281.7 Q56.4186 284.915 51.2623 284.915 Q45.2467 284.915 42.1912 280.905 Q39.1357 276.862 39.1357 268.873 L39.1357 260.662 L38.5628 260.662 Q34.5205 260.662 32.3244 263.335 Q30.0964 265.977 30.0964 270.783 Q30.0964 273.839 30.8284 276.735 Q31.5605 279.631 33.0246 282.305 L27.6137 282.305 Q26.3724 279.09 25.7677 276.067 Q25.1311 273.043 25.1311 270.178 Q25.1311 262.444 29.1415 258.625 Q33.1519 254.805 41.3 254.805 Z" fill="#000000" fill-rule="evenodd" fill-opacity="1" /><path clip-path="url(#clip830)" d="M64.9486 227.91 Q71.3143 230.393 73.2559 232.748 Q75.1974 235.103 75.1974 239.05 L75.1974 243.729 L70.2958 243.729 L70.2958 240.291 Q70.2958 237.872 69.15 236.536 Q68.0041 235.199 63.7391 233.575 L61.0655 232.525 L25.9905 246.943 L25.9905 240.737 L53.8723 229.597 L25.9905 218.457 L25.9905 212.25 L64.9486 227.91 Z" fill="#000000" fill-rule="evenodd" fill-opacity="1" /><path clip-path="url(#clip830)" d="M12.1769 205.089 L12.1769 199.996 Q19.6884 195.222 26.8817 192.867 Q34.0749 190.48 41.1727 190.48 Q48.3023 190.48 55.5274 192.867 Q62.7524 195.222 70.2321 199.996 L70.2321 205.089 Q62.9434 200.856 55.7502 198.787 Q48.5251 196.686 41.1727 196.686 Q33.8203 196.686 26.6589 198.787 Q19.4975 200.856 12.1769 205.089 Z" fill="#000000" fill-rule="evenodd" fill-opacity="1" /><path clip-path="url(#clip830)" d="M848.056 44.2197 Q850.689 45.1109 853.161 48.0275 Q855.672 50.9442 858.184 56.0483 L866.488 72.576 L857.698 72.576 L849.96 57.061 Q846.963 50.9847 844.127 48.9997 Q841.332 47.0148 836.471 47.0148 L827.559 47.0148 L827.559 72.576 L819.376 72.576 L819.376 12.096 L837.848 12.096 Q848.218 12.096 853.323 16.4305 Q858.427 20.7649 858.427 29.5149 Q858.427 35.2267 855.753 38.994 Q853.12 42.7613 848.056 44.2197 M827.559 18.8205 L827.559 40.2903 L837.848 40.2903 Q843.762 40.2903 846.76 37.5762 Q849.798 34.8216 849.798 29.5149 Q849.798 24.2082 846.76 21.5346 Q843.762 18.8205 837.848 18.8205 L827.559 18.8205 Z" fill="#000000" fill-rule="evenodd" fill-opacity="1" /><path clip-path="url(#clip830)" d="M895.492 49.7694 Q886.459 49.7694 882.975 51.8354 Q879.491 53.9013 879.491 58.8839 Q879.491 62.8538 882.084 65.2034 Q884.717 67.5124 889.214 67.5124 Q895.411 67.5124 899.138 63.1374 Q902.906 58.7219 902.906 51.4303 L902.906 49.7694 L895.492 49.7694 M910.359 46.6907 L910.359 72.576 L902.906 72.576 L902.906 65.6895 Q900.354 69.8214 896.546 71.8063 Q892.738 73.7508 887.229 73.7508 Q880.261 73.7508 876.129 69.8619 Q872.038 65.9325 872.038 59.3701 Q872.038 51.7138 877.142 47.825 Q882.287 43.9361 892.454 43.9361 L902.906 43.9361 L902.906 43.2069 Q902.906 38.0623 899.503 35.2672 Q896.141 32.4315 890.024 32.4315 Q886.135 32.4315 882.449 33.3632 Q878.762 34.295 875.359 36.1584 L875.359 29.2718 Q879.451 27.692 883.299 26.9223 Q887.148 26.1121 890.793 26.1121 Q900.637 26.1121 905.498 31.2163 Q910.359 36.3204 910.359 46.6907 Z" fill="#000000" fill-rule="evenodd" fill-opacity="1" /><path clip-path="url(#clip830)" d="M933.085 14.324 L933.085 27.2059 L948.438 27.2059 L948.438 32.9987 L933.085 32.9987 L933.085 57.6282 Q933.085 63.1779 934.584 64.7578 Q936.123 66.3376 940.782 66.3376 L948.438 66.3376 L948.438 72.576 L940.782 72.576 Q932.153 72.576 928.872 69.3758 Q925.591 66.1351 925.591 57.6282 L925.591 32.9987 L920.122 32.9987 L920.122 27.2059 L925.591 27.2059 L925.591 14.324 L933.085 14.324 Z" fill="#000000" fill-rule="evenodd" fill-opacity="1" /><path clip-path="url(#clip830)" d="M997.049 48.0275 L997.049 51.6733 L962.778 51.6733 Q963.264 59.3701 967.396 63.421 Q971.568 67.4314 978.982 67.4314 Q983.276 67.4314 987.286 66.3781 Q991.337 65.3249 995.307 63.2184 L995.307 70.267 Q991.296 71.9684 987.083 72.8596 Q982.87 73.7508 978.536 73.7508 Q967.68 73.7508 961.32 67.4314 Q955 61.1119 955 50.3365 Q955 39.1965 960.996 32.6746 Q967.031 26.1121 977.24 26.1121 Q986.395 26.1121 991.701 32.0264 Q997.049 37.9003 997.049 48.0275 M989.595 45.84 Q989.514 39.7232 986.152 36.0774 Q982.83 32.4315 977.321 32.4315 Q971.082 32.4315 967.315 35.9558 Q963.588 39.4801 963.021 45.8805 L989.595 45.84 Z" fill="#000000" fill-rule="evenodd" fill-opacity="1" /><path clip-path="url(#clip830)" d="M1053.23 32.4315 Q1047.24 32.4315 1043.76 37.1306 Q1040.27 41.7891 1040.27 49.9314 Q1040.27 58.0738 1043.72 62.7728 Q1047.2 67.4314 1053.23 67.4314 Q1059.19 67.4314 1062.67 62.7323 Q1066.16 58.0333 1066.16 49.9314 Q1066.16 41.8701 1062.67 37.1711 Q1059.19 32.4315 1053.23 32.4315 M1053.23 26.1121 Q1062.96 26.1121 1068.51 32.4315 Q1074.06 38.7509 1074.06 49.9314 Q1074.06 61.0714 1068.51 67.4314 Q1062.96 73.7508 1053.23 73.7508 Q1043.47 73.7508 1037.92 67.4314 Q1032.41 61.0714 1032.41 49.9314 Q1032.41 38.7509 1037.92 32.4315 Q1043.47 26.1121 1053.23 26.1121 Z" fill="#000000" fill-rule="evenodd" fill-opacity="1" /><path clip-path="url(#clip830)" d="M1109.38 9.54393 L1109.38 15.7418 L1102.25 15.7418 Q1098.24 15.7418 1096.66 17.3622 Q1095.12 18.9825 1095.12 23.1955 L1095.12 27.2059 L1107.4 27.2059 L1107.4 32.9987 L1095.12 32.9987 L1095.12 72.576 L1087.63 72.576 L1087.63 32.9987 L1080.5 32.9987 L1080.5 27.2059 L1087.63 27.2059 L1087.63 24.0462 Q1087.63 16.471 1091.15 13.0277 Q1094.68 9.54393 1102.33 9.54393 L1109.38 9.54393 Z" fill="#000000" fill-rule="evenodd" fill-opacity="1" /><path clip-path="url(#clip830)" d="M1142.31 12.096 L1150.5 12.096 L1150.5 36.8875 L1180.23 36.8875 L1180.23 12.096 L1188.41 12.096 L1188.41 72.576 L1180.23 72.576 L1180.23 43.7741 L1150.5 43.7741 L1150.5 72.576 L1142.31 72.576 L1142.31 12.096 Z" fill="#000000" fill-rule="evenodd" fill-opacity="1" /><path clip-path="url(#clip830)" d="M1243.18 48.0275 L1243.18 51.6733 L1208.91 51.6733 Q1209.4 59.3701 1213.53 63.421 Q1217.7 67.4314 1225.11 67.4314 Q1229.41 67.4314 1233.42 66.3781 Q1237.47 65.3249 1241.44 63.2184 L1241.44 70.267 Q1237.43 71.9684 1233.22 72.8596 Q1229 73.7508 1224.67 73.7508 Q1213.81 73.7508 1207.45 67.4314 Q1201.13 61.1119 1201.13 50.3365 Q1201.13 39.1965 1207.13 32.6746 Q1213.16 26.1121 1223.37 26.1121 Q1232.53 26.1121 1237.83 32.0264 Q1243.18 37.9003 1243.18 48.0275 M1235.73 45.84 Q1235.65 39.7232 1232.28 36.0774 Q1228.96 32.4315 1223.45 32.4315 Q1217.22 32.4315 1213.45 35.9558 Q1209.72 39.4801 1209.15 45.8805 L1235.73 45.84 Z" fill="#000000" fill-rule="evenodd" fill-opacity="1" /><path clip-path="url(#clip830)" d="M1276.03 49.7694 Q1267 49.7694 1263.52 51.8354 Q1260.03 53.9013 1260.03 58.8839 Q1260.03 62.8538 1262.63 65.2034 Q1265.26 67.5124 1269.76 67.5124 Q1275.95 67.5124 1279.68 63.1374 Q1283.45 58.7219 1283.45 51.4303 L1283.45 49.7694 L1276.03 49.7694 M1290.9 46.6907 L1290.9 72.576 L1283.45 72.576 L1283.45 65.6895 Q1280.9 69.8214 1277.09 71.8063 Q1273.28 73.7508 1267.77 73.7508 Q1260.8 73.7508 1256.67 69.8619 Q1252.58 65.9325 1252.58 59.3701 Q1252.58 51.7138 1257.68 47.825 Q1262.83 43.9361 1273 43.9361 L1283.45 43.9361 L1283.45 43.2069 Q1283.45 38.0623 1280.04 35.2672 Q1276.68 32.4315 1270.57 32.4315 Q1266.68 32.4315 1262.99 33.3632 Q1259.3 34.295 1255.9 36.1584 L1255.9 29.2718 Q1259.99 27.692 1263.84 26.9223 Q1267.69 26.1121 1271.34 26.1121 Q1281.18 26.1121 1286.04 31.2163 Q1290.9 36.3204 1290.9 46.6907 Z" fill="#000000" fill-rule="evenodd" fill-opacity="1" /><path clip-path="url(#clip830)" d="M1313.63 14.324 L1313.63 27.2059 L1328.98 27.2059 L1328.98 32.9987 L1313.63 32.9987 L1313.63 57.6282 Q1313.63 63.1779 1315.13 64.7578 Q1316.67 66.3376 1321.32 66.3376 L1328.98 66.3376 L1328.98 72.576 L1321.32 72.576 Q1312.7 72.576 1309.41 69.3758 Q1306.13 66.1351 1306.13 57.6282 L1306.13 32.9987 L1300.66 32.9987 L1300.66 27.2059 L1306.13 27.2059 L1306.13 14.324 L1313.63 14.324 Z" fill="#000000" fill-rule="evenodd" fill-opacity="1" /><path clip-path="url(#clip830)" d="M1365.48 12.096 L1373.66 12.096 L1373.66 65.6895 L1403.11 65.6895 L1403.11 72.576 L1365.48 72.576 L1365.48 12.096 Z" fill="#000000" fill-rule="evenodd" fill-opacity="1" /><path clip-path="url(#clip830)" d="M1427.5 32.4315 Q1421.5 32.4315 1418.02 37.1306 Q1414.53 41.7891 1414.53 49.9314 Q1414.53 58.0738 1417.98 62.7728 Q1421.46 67.4314 1427.5 67.4314 Q1433.45 67.4314 1436.94 62.7323 Q1440.42 58.0333 1440.42 49.9314 Q1440.42 41.8701 1436.94 37.1711 Q1433.45 32.4315 1427.5 32.4315 M1427.5 26.1121 Q1437.22 26.1121 1442.77 32.4315 Q1448.32 38.7509 1448.32 49.9314 Q1448.32 61.0714 1442.77 67.4314 Q1437.22 73.7508 1427.5 73.7508 Q1417.74 73.7508 1412.19 67.4314 Q1406.68 61.0714 1406.68 49.9314 Q1406.68 38.7509 1412.19 32.4315 Q1417.74 26.1121 1427.5 26.1121 Z" fill="#000000" fill-rule="evenodd" fill-opacity="1" /><path clip-path="url(#clip830)" d="M1489.6 28.5427 L1489.6 35.5912 Q1486.44 33.9709 1483.04 33.1607 Q1479.63 32.3505 1475.99 32.3505 Q1470.44 32.3505 1467.64 34.0519 Q1464.89 35.7533 1464.89 39.156 Q1464.89 41.7486 1466.87 43.2475 Q1468.86 44.7058 1474.85 46.0426 L1477.4 46.6097 Q1485.34 48.3111 1488.67 51.4303 Q1492.03 54.509 1492.03 60.0587 Q1492.03 66.3781 1487.01 70.0644 Q1482.02 73.7508 1473.27 73.7508 Q1469.63 73.7508 1465.66 73.0216 Q1461.73 72.3329 1457.35 70.9151 L1457.35 63.2184 Q1461.48 65.3654 1465.5 66.4591 Q1469.51 67.5124 1473.43 67.5124 Q1478.7 67.5124 1481.54 65.73 Q1484.37 63.9071 1484.37 60.6258 Q1484.37 57.5877 1482.31 55.9673 Q1480.28 54.3469 1473.35 52.8481 L1470.76 52.2405 Q1463.83 50.7821 1460.76 47.7845 Q1457.68 44.7463 1457.68 39.4801 Q1457.68 33.0797 1462.21 29.5959 Q1466.75 26.1121 1475.1 26.1121 Q1479.23 26.1121 1482.87 26.7198 Q1486.52 27.3274 1489.6 28.5427 Z" fill="#000000" fill-rule="evenodd" fill-opacity="1" /><path clip-path="url(#clip830)" d="M1532.82 28.5427 L1532.82 35.5912 Q1529.66 33.9709 1526.26 33.1607 Q1522.86 32.3505 1519.21 32.3505 Q1513.66 32.3505 1510.87 34.0519 Q1508.11 35.7533 1508.11 39.156 Q1508.11 41.7486 1510.1 43.2475 Q1512.08 44.7058 1518.08 46.0426 L1520.63 46.6097 Q1528.57 48.3111 1531.89 51.4303 Q1535.25 54.509 1535.25 60.0587 Q1535.25 66.3781 1530.23 70.0644 Q1525.25 73.7508 1516.5 73.7508 Q1512.85 73.7508 1508.88 73.0216 Q1504.95 72.3329 1500.58 70.9151 L1500.58 63.2184 Q1504.71 65.3654 1508.72 66.4591 Q1512.73 67.5124 1516.66 67.5124 Q1521.92 67.5124 1524.76 65.73 Q1527.6 63.9071 1527.6 60.6258 Q1527.6 57.5877 1525.53 55.9673 Q1523.5 54.3469 1516.58 52.8481 L1513.98 52.2405 Q1507.06 50.7821 1503.98 47.7845 Q1500.9 44.7463 1500.9 39.4801 Q1500.9 33.0797 1505.44 29.5959 Q1509.97 26.1121 1518.32 26.1121 Q1522.45 26.1121 1526.1 26.7198 Q1529.74 27.3274 1532.82 28.5427 Z" fill="#000000" fill-rule="evenodd" fill-opacity="1" /><path clip-path="url(#clip830)" d="M1565.43 12.096 L1616.59 12.096 L1616.59 18.9825 L1595.12 18.9825 L1595.12 72.576 L1586.9 72.576 L1586.9 18.9825 L1565.43 18.9825 L1565.43 12.096 Z" fill="#000000" fill-rule="evenodd" fill-opacity="1" /><path clip-path="url(#clip830)" d="M1627.65 32.4315 Q1621.66 32.4315 1618.17 37.1306 Q1614.69 41.7891 1614.69 49.9314 Q1614.69 58.0738 1618.13 62.7728 Q1621.62 67.4314 1627.65 67.4314 Q1633.61 67.4314 1637.09 62.7323 Q1640.58 58.0333 1640.58 49.9314 Q1640.58 41.8701 1637.09 37.1711 Q1633.61 32.4315 1627.65 32.4315 M1627.65 26.1121 Q1637.38 26.1121 1642.92 32.4315 Q1648.47 38.7509 1648.47 49.9314 Q1648.47 61.0714 1642.92 67.4314 Q1637.38 73.7508 1627.65 73.7508 Q1617.89 73.7508 1612.34 67.4314 Q1606.83 61.0714 1606.83 49.9314 Q1606.83 38.7509 1612.34 32.4315 Q1617.89 26.1121 1627.65 26.1121 Z" fill="#000000" fill-rule="evenodd" fill-opacity="1" /><path clip-path="url(#clip830)" d="M1712.07 17.6457 Q1703.16 17.6457 1697.9 24.2892 Q1692.67 30.9327 1692.67 42.3968 Q1692.67 53.8203 1697.9 60.4638 Q1703.16 67.1073 1712.07 67.1073 Q1720.99 67.1073 1726.17 60.4638 Q1731.4 53.8203 1731.4 42.3968 Q1731.4 30.9327 1726.17 24.2892 Q1720.99 17.6457 1712.07 17.6457 M1712.07 11.0023 Q1724.79 11.0023 1732.41 19.5497 Q1740.03 28.0566 1740.03 42.3968 Q1740.03 56.6965 1732.41 65.2439 Q1724.79 73.7508 1712.07 73.7508 Q1699.31 73.7508 1691.66 65.2439 Q1684.04 56.737 1684.04 42.3968 Q1684.04 28.0566 1691.66 19.5497 Q1699.31 11.0023 1712.07 11.0023 Z" fill="#000000" fill-rule="evenodd" fill-opacity="1" /><path clip-path="url(#clip830)" d="M1747.15 27.2059 L1755.05 27.2059 L1769.23 65.2844 L1783.41 27.2059 L1791.31 27.2059 L1774.3 72.576 L1764.17 72.576 L1747.15 27.2059 Z" fill="#000000" fill-rule="evenodd" fill-opacity="1" /><path clip-path="url(#clip830)" d="M1840.41 48.0275 L1840.41 51.6733 L1806.14 51.6733 Q1806.62 59.3701 1810.75 63.421 Q1814.93 67.4314 1822.34 67.4314 Q1826.63 67.4314 1830.64 66.3781 Q1834.69 65.3249 1838.66 63.2184 L1838.66 70.267 Q1834.65 71.9684 1830.44 72.8596 Q1826.23 73.7508 1821.89 73.7508 Q1811.04 73.7508 1804.68 67.4314 Q1798.36 61.1119 1798.36 50.3365 Q1798.36 39.1965 1804.35 32.6746 Q1810.39 26.1121 1820.6 26.1121 Q1829.75 26.1121 1835.06 32.0264 Q1840.41 37.9003 1840.41 48.0275 M1832.95 45.84 Q1832.87 39.7232 1829.51 36.0774 Q1826.19 32.4315 1820.68 32.4315 Q1814.44 32.4315 1810.67 35.9558 Q1806.95 39.4801 1806.38 45.8805 L1832.95 45.84 Z" fill="#000000" fill-rule="evenodd" fill-opacity="1" /><path clip-path="url(#clip830)" d="M1878.93 34.1734 Q1877.67 33.4443 1876.18 33.1202 Q1874.72 32.7556 1872.94 32.7556 Q1866.62 32.7556 1863.21 36.8875 Q1859.85 40.9789 1859.85 48.6757 L1859.85 72.576 L1852.36 72.576 L1852.36 27.2059 L1859.85 27.2059 L1859.85 34.2544 Q1862.2 30.1225 1865.97 28.1376 Q1869.73 26.1121 1875.12 26.1121 Q1875.89 26.1121 1876.82 26.2337 Q1877.76 26.3147 1878.89 26.5172 L1878.93 34.1734 Z" fill="#000000" fill-rule="evenodd" fill-opacity="1" /><path clip-path="url(#clip830)" d="M1919.32 49.9314 Q1919.32 41.7081 1915.92 37.0496 Q1912.55 32.3505 1906.64 32.3505 Q1900.72 32.3505 1897.32 37.0496 Q1893.96 41.7081 1893.96 49.9314 Q1893.96 58.1548 1897.32 62.8538 Q1900.72 67.5124 1906.64 67.5124 Q1912.55 67.5124 1915.92 62.8538 Q1919.32 58.1548 1919.32 49.9314 M1893.96 34.0924 Q1896.31 30.0415 1899.87 28.0971 Q1903.48 26.1121 1908.46 26.1121 Q1916.73 26.1121 1921.87 32.6746 Q1927.06 39.2371 1927.06 49.9314 Q1927.06 60.6258 1921.87 67.1883 Q1916.73 73.7508 1908.46 73.7508 Q1903.48 73.7508 1899.87 71.8063 Q1896.31 69.8214 1893.96 65.7705 L1893.96 72.576 L1886.47 72.576 L1886.47 9.54393 L1893.96 9.54393 L1893.96 34.0924 Z" fill="#000000" fill-rule="evenodd" fill-opacity="1" /><path clip-path="url(#clip830)" d="M1938.64 54.671 L1938.64 27.2059 L1946.09 27.2059 L1946.09 54.3874 Q1946.09 60.8284 1948.61 64.0691 Q1951.12 67.2693 1956.14 67.2693 Q1962.18 67.2693 1965.66 63.421 Q1969.18 59.5726 1969.18 52.9291 L1969.18 27.2059 L1976.64 27.2059 L1976.64 72.576 L1969.18 72.576 L1969.18 65.6084 Q1966.47 69.7404 1962.87 71.7658 Q1959.3 73.7508 1954.56 73.7508 Q1946.74 73.7508 1942.69 68.8897 Q1938.64 64.0286 1938.64 54.671 M1957.4 26.1121 L1957.4 26.1121 Z" fill="#000000" fill-rule="evenodd" fill-opacity="1" /><path clip-path="url(#clip830)" d="M2018.28 34.1734 Q2017.03 33.4443 2015.53 33.1202 Q2014.07 32.7556 2012.29 32.7556 Q2005.97 32.7556 2002.56 36.8875 Q1999.2 40.9789 1999.2 48.6757 L1999.2 72.576 L1991.71 72.576 L1991.71 27.2059 L1999.2 27.2059 L1999.2 34.2544 Q2001.55 30.1225 2005.32 28.1376 Q2009.09 26.1121 2014.47 26.1121 Q2015.24 26.1121 2016.18 26.2337 Q2017.11 26.3147 2018.24 26.5172 L2018.28 34.1734 Z" fill="#000000" fill-rule="evenodd" fill-opacity="1" /><path clip-path="url(#clip830)" d="M2054.5 34.0924 L2054.5 9.54393 L2061.95 9.54393 L2061.95 72.576 L2054.5 72.576 L2054.5 65.7705 Q2052.15 69.8214 2048.54 71.8063 Q2044.98 73.7508 2039.95 73.7508 Q2031.73 73.7508 2026.55 67.1883 Q2021.4 60.6258 2021.4 49.9314 Q2021.4 39.2371 2026.55 32.6746 Q2031.73 26.1121 2039.95 26.1121 Q2044.98 26.1121 2048.54 28.0971 Q2052.15 30.0415 2054.5 34.0924 M2029.1 49.9314 Q2029.1 58.1548 2032.46 62.8538 Q2035.86 67.5124 2041.78 67.5124 Q2047.69 67.5124 2051.09 62.8538 Q2054.5 58.1548 2054.5 49.9314 Q2054.5 41.7081 2051.09 37.0496 Q2047.69 32.3505 2041.78 32.3505 Q2035.86 32.3505 2032.46 37.0496 Q2029.1 41.7081 2029.1 49.9314 Z" fill="#000000" fill-rule="evenodd" fill-opacity="1" /><path clip-path="url(#clip830)" d="M2116.11 48.0275 L2116.11 51.6733 L2081.84 51.6733 Q2082.33 59.3701 2086.46 63.421 Q2090.63 67.4314 2098.04 67.4314 Q2102.34 67.4314 2106.35 66.3781 Q2110.4 65.3249 2114.37 63.2184 L2114.37 70.267 Q2110.36 71.9684 2106.15 72.8596 Q2101.93 73.7508 2097.6 73.7508 Q2086.74 73.7508 2080.38 67.4314 Q2074.06 61.1119 2074.06 50.3365 Q2074.06 39.1965 2080.06 32.6746 Q2086.09 26.1121 2096.3 26.1121 Q2105.46 26.1121 2110.76 32.0264 Q2116.11 37.9003 2116.11 48.0275 M2108.66 45.84 Q2108.58 39.7232 2105.21 36.0774 Q2101.89 32.4315 2096.38 32.4315 Q2090.14 32.4315 2086.38 35.9558 Q2082.65 39.4801 2082.08 45.8805 L2108.66 45.84 Z" fill="#000000" fill-rule="evenodd" fill-opacity="1" /><path clip-path="url(#clip830)" d="M2166.06 45.1919 L2166.06 72.576 L2158.6 72.576 L2158.6 45.4349 Q2158.6 38.994 2156.09 35.7938 Q2153.58 32.5936 2148.56 32.5936 Q2142.52 32.5936 2139.04 36.4419 Q2135.56 40.2903 2135.56 46.9338 L2135.56 72.576 L2128.06 72.576 L2128.06 27.2059 L2135.56 27.2059 L2135.56 34.2544 Q2138.23 30.163 2141.83 28.1376 Q2145.48 26.1121 2150.22 26.1121 Q2158.04 26.1121 2162.05 30.9732 Q2166.06 35.7938 2166.06 45.1919 Z" fill="#000000" fill-rule="evenodd" fill-opacity="1" /><polyline clip-path="url(#clip832)" style="stroke:#009af9; stroke-linecap:round; stroke-linejoin:round; stroke-width:12; stroke-opacity:1; fill:none" points="415.613,173.254 421.564,641.656 427.515,849.165 433.465,972.866 439.416,1057.28 445.367,1119.6 451.318,1168.03 457.269,1207.07 463.22,1239.4 469.171,1266.76 475.121,1290.29 481.072,1310.82 487.023,1328.93 492.974,1345.07 498.925,1359.56 504.876,1372.67 510.827,1384.61 516.777,1395.54 522.728,1405.59 528.679,1414.88 534.63,1423.5 540.581,1431.52 546.532,1439.02 552.482,1446.04 558.433,1452.63 564.384,1458.84 570.335,1464.71 576.286,1470.25 582.237,1475.51 588.188,1480.5 594.138,1485.25 600.089,1489.77 606.04,1494.09 611.991,1498.21 617.942,1502.16 623.893,1505.94 629.844,1509.57 635.794,1513.05 641.745,1516.4 647.696,1519.62 653.647,1522.72 659.598,1525.71 665.549,1528.6 671.5,1531.39 677.45,1534.08 683.401,1536.68 689.352,1539.21 695.303,1541.65 701.254,1544.02 707.205,1546.31 713.156,1548.54 719.106,1550.7 725.057,1552.81 731.008,1554.85 736.959,1556.84 742.91,1558.77 748.861,1560.65 754.811,1562.49 760.762,1564.28 766.713,1566.02 772.664,1567.72 778.615,1569.38 784.566,1570.99 790.517,1572.57 796.467,1574.12 802.418,1575.63 808.369,1577.1 814.32,1578.54 820.271,1579.95 826.222,1581.33 832.173,1582.68 838.123,1584.01 844.074,1585.3 850.025,1586.57 855.976,1587.81 861.927,1589.03 867.878,1590.23 873.829,1591.4 879.779,1592.55 885.73,1593.68 891.681,1594.79 897.632,1595.87 903.583,1596.94 909.534,1597.99 915.485,1599.02 921.435,1600.03 927.386,1601.02 933.337,1602 939.288,1602.96 945.239,1603.9 951.19,1604.83 957.141,1605.75 963.091,1606.65 969.042,1607.53 974.993,1608.4 980.944,1609.26 986.895,1610.1 992.846,1610.93 998.796,1611.75 1004.75,1612.55 1010.7,1613.35 1016.65,1614.13 1022.6,1614.9 1028.55,1615.66 1034.5,1616.41 1040.45,1617.15 1046.4,1617.87 1052.35,1618.59 1058.31,1619.3 1064.26,1620 1070.21,1620.69 1076.16,1621.36 1082.11,1622.03 1088.06,1622.7 1094.01,1623.35 1099.96,1623.99 1105.91,1624.63 1111.86,1625.26 1117.81,1625.88 1123.76,1626.49 1129.72,1627.09 1135.67,1627.69 1141.62,1628.28 1147.57,1628.86 1153.52,1629.44 1159.47,1630.01 1165.42,1630.57 1171.37,1631.12 1177.32,1631.67 1183.27,1632.22 1189.22,1632.75 1195.17,1633.28 1201.13,1633.81 1207.08,1634.33 1213.03,1634.84 1218.98,1635.34 1224.93,1635.85 1230.88,1636.34 1236.83,1636.83 1242.78,1637.32 1248.73,1637.8 1254.68,1638.27 1260.63,1638.74 1266.58,1639.21 1272.54,1639.67 1278.49,1640.12 1284.44,1640.58 1290.39,1641.02 1296.34,1641.46 1302.29,1641.9 1308.24,1642.33 1314.19,1642.76 1320.14,1643.19 1326.09,1643.61 1332.04,1644.02 1338,1644.44 1343.95,1644.85 1349.9,1645.25 1355.85,1645.65 1361.8,1646.05 1367.75,1646.44 1373.7,1646.83 1379.65,1647.22 1385.6,1647.6 1391.55,1647.98 1397.5,1648.35 1403.45,1648.73 1409.41,1649.09 1415.36,1649.46 1421.31,1649.82 1427.26,1650.18 1433.21,1650.54 1439.16,1650.89 1445.11,1651.24 1451.06,1651.59 1457.01,1651.93 1462.96,1652.27 1468.91,1652.61 1474.86,1652.95 1480.82,1653.28 1486.77,1653.61 1492.72,1653.93 1498.67,1654.26 1504.62,1654.58 1510.57,1654.9 1516.52,1655.22 1522.47,1655.53 1528.42,1655.84 1534.37,1656.15 1540.32,1656.46 1546.27,1656.76 1552.23,1657.06 1558.18,1657.36 1564.13,1657.66 1570.08,1657.95 1576.03,1658.25 1581.98,1658.54 1587.93,1658.83 1593.88,1659.11 1599.83,1659.39 1605.78,1659.68 1611.73,1659.96 1617.69,1660.23 1623.64,1660.51 1629.59,1660.78 1635.54,1661.05 1641.49,1661.32 1647.44,1661.59 1653.39,1661.86 1659.34,1662.12 1665.29,1662.38 1671.24,1662.64 1677.19,1662.9 1683.14,1663.16 1689.1,1663.41 1695.05,1663.66 1701,1663.91 1706.95,1664.16 1712.9,1664.41 1718.85,1664.66 1724.8,1664.9 1730.75,1665.14 1736.7,1665.39 1742.65,1665.62 1748.6,1665.86 1754.55,1666.1 1760.51,1666.33 1766.46,1666.57 1772.41,1666.8 1778.36,1667.03 1784.31,1667.26 1790.26,1667.48 1796.21,1667.71 1802.16,1667.93 1808.11,1668.16 1814.06,1668.38 1820.01,1668.6 1825.97,1668.81 1831.92,1669.03 1837.87,1669.25 1843.82,1669.46 1849.77,1669.68 1855.72,1669.89 1861.67,1670.1 1867.62,1670.31 1873.57,1670.51 1879.52,1670.72 1885.47,1670.93 1891.42,1671.13 1897.38,1671.33 1903.33,1671.53 1909.28,1671.74 1915.23,1671.93 1921.18,1672.13 1927.13,1672.33 1933.08,1672.53 1939.03,1672.72 1944.98,1672.91 1950.93,1673.11 1956.88,1673.3 1962.83,1673.49 1968.79,1673.68 1974.74,1673.86 1980.69,1674.05 1986.64,1674.24 1992.59,1674.42 1998.54,1674.61 2004.49,1674.79 2010.44,1674.97 2016.39,1675.15 2022.34,1675.33 2028.29,1675.51 2034.24,1675.69 2040.2,1675.86 2046.15,1676.04 2052.1,1676.22 2058.05,1676.39 2064,1676.56 2069.95,1676.73 2075.9,1676.91 2081.85,1677.08 2087.8,1677.24 2093.75,1677.41 2099.7,1677.58 2105.66,1677.75 2111.61,1677.91 2117.56,1678.08 2123.51,1678.24 2129.46,1678.41 2135.41,1678.57 2141.36,1678.73 2147.31,1678.89 2153.26,1679.05 2159.21,1679.21 2165.16,1679.37 2171.11,1679.52 2177.07,1679.68 2183.02,1679.84 2188.97,1679.99 2194.92,1680.15 2200.87,1680.3 2206.82,1680.45 2212.77,1680.6 2218.72,1680.76 2224.67,1680.91 2230.62,1681.06 2236.57,1681.2 2242.52,1681.35 2248.48,1681.5 2254.43,1681.65 2260.38,1681.79 2266.33,1681.94 2272.28,1682.08 2278.23,1682.23 2284.18,1682.37 2290.13,1682.51 2296.08,1682.66 2302.03,1682.8 2307.98,1682.94 2313.94,1683.08 2319.89,1683.22 2325.84,1683.36 2331.79,1683.49 2337.74,1683.63 2343.69,1683.77 2349.64,1683.9 2355.59,1684.04 2361.54,1684.17 2367.49,1684.31 2373.44,1684.44 2379.39,1684.58 2385.35,1684.71 2391.3,1684.84 2397.25,1684.97 2403.2,1685.1 2409.15,1685.23 2415.1,1685.36 2421.05,1685.49 2427,1685.62 2432.95,1685.75 2438.9,1685.87 2444.85,1686 2450.8,1686.13 2456.76,1686.25 2462.71,1686.38 2468.66,1686.5 2474.61,1686.63 2480.56,1686.75 2486.51,1686.87 2492.46,1686.99 2498.41,1687.12 2504.36,1687.24 2510.31,1687.36 2516.26,1687.48 2522.21,1687.6 2528.17,1687.72 2534.12,1687.84 2540.07,1687.96 2546.02,1688.07 2551.97,1688.19 2557.92,1688.31 2563.87,1688.42 2569.82,1688.54 2575.77,1688.65 "/>
<path clip-path="url(#clip830)" d="M1955.49 285.016 L2564.22 285.016 L2564.22 181.336 L1955.49 181.336  Z" fill="#ffffff" fill-rule="evenodd" fill-opacity="1"/>
<polyline clip-path="url(#clip830)" style="stroke:#000000; stroke-linecap:round; stroke-linejoin:round; stroke-width:4; stroke-opacity:1; fill:none" points="1955.49,285.016 2564.22,285.016 2564.22,181.336 1955.49,181.336 1955.49,285.016 "/>
<polyline clip-path="url(#clip830)" style="stroke:#009af9; stroke-linecap:round; stroke-linejoin:round; stroke-width:12; stroke-opacity:1; fill:none" points="1981.01,233.176 2134.08,233.176 "/>
<path clip-path="url(#clip830)" d="M2175.42 220.503 L2169.08 237.702 L2181.79 237.702 L2175.42 220.503 M2172.78 215.896 L2178.08 215.896 L2191.26 250.456 L2186.4 250.456 L2183.25 241.591 L2167.67 241.591 L2164.52 250.456 L2159.59 250.456 L2172.78 215.896 Z" fill="#000000" fill-rule="evenodd" fill-opacity="1" /><path clip-path="url(#clip830)" d="M2211.74 228.929 L2241.42 228.929 L2241.42 232.817 L2211.74 232.817 L2211.74 228.929 M2211.74 238.373 L2241.42 238.373 L2241.42 242.308 L2211.74 242.308 L2211.74 238.373 Z" fill="#000000" fill-rule="evenodd" fill-opacity="1" /><path clip-path="url(#clip830)" d="M2267.39 246.521 L2275.03 246.521 L2275.03 220.156 L2266.72 221.822 L2266.72 217.563 L2274.98 215.896 L2279.66 215.896 L2279.66 246.521 L2287.3 246.521 L2287.3 250.456 L2267.39 250.456 L2267.39 246.521 Z" fill="#000000" fill-rule="evenodd" fill-opacity="1" /><path clip-path="url(#clip830)" d="M2306.74 218.975 Q2303.13 218.975 2301.3 222.54 Q2299.5 226.081 2299.5 233.211 Q2299.5 240.317 2301.3 243.882 Q2303.13 247.424 2306.74 247.424 Q2310.38 247.424 2312.18 243.882 Q2314.01 240.317 2314.01 233.211 Q2314.01 226.081 2312.18 222.54 Q2310.38 218.975 2306.74 218.975 M2306.74 215.271 Q2312.55 215.271 2315.61 219.878 Q2318.69 224.461 2318.69 233.211 Q2318.69 241.938 2315.61 246.544 Q2312.55 251.128 2306.74 251.128 Q2300.93 251.128 2297.85 246.544 Q2294.8 241.938 2294.8 233.211 Q2294.8 224.461 2297.85 219.878 Q2300.93 215.271 2306.74 215.271 Z" fill="#000000" fill-rule="evenodd" fill-opacity="1" /><path clip-path="url(#clip830)" d="M2336.9 218.975 Q2333.29 218.975 2331.46 222.54 Q2329.66 226.081 2329.66 233.211 Q2329.66 240.317 2331.46 243.882 Q2333.29 247.424 2336.9 247.424 Q2340.54 247.424 2342.34 243.882 Q2344.17 240.317 2344.17 233.211 Q2344.17 226.081 2342.34 222.54 Q2340.54 218.975 2336.9 218.975 M2336.9 215.271 Q2342.71 215.271 2345.77 219.878 Q2348.85 224.461 2348.85 233.211 Q2348.85 241.938 2345.77 246.544 Q2342.71 251.128 2336.9 251.128 Q2331.09 251.128 2328.01 246.544 Q2324.96 241.938 2324.96 233.211 Q2324.96 224.461 2328.01 219.878 Q2331.09 215.271 2336.9 215.271 Z" fill="#000000" fill-rule="evenodd" fill-opacity="1" /><path clip-path="url(#clip830)" d="M2367.07 218.975 Q2363.45 218.975 2361.63 222.54 Q2359.82 226.081 2359.82 233.211 Q2359.82 240.317 2361.63 243.882 Q2363.45 247.424 2367.07 247.424 Q2370.7 247.424 2372.51 243.882 Q2374.33 240.317 2374.33 233.211 Q2374.33 226.081 2372.51 222.54 Q2370.7 218.975 2367.07 218.975 M2367.07 215.271 Q2372.88 215.271 2375.93 219.878 Q2379.01 224.461 2379.01 233.211 Q2379.01 241.938 2375.93 246.544 Q2372.88 251.128 2367.07 251.128 Q2361.26 251.128 2358.18 246.544 Q2355.12 241.938 2355.12 233.211 Q2355.12 224.461 2358.18 219.878 Q2361.26 215.271 2367.07 215.271 Z" fill="#000000" fill-rule="evenodd" fill-opacity="1" /><path clip-path="url(#clip830)" d="M2397.23 218.975 Q2393.62 218.975 2391.79 222.54 Q2389.98 226.081 2389.98 233.211 Q2389.98 240.317 2391.79 243.882 Q2393.62 247.424 2397.23 247.424 Q2400.86 247.424 2402.67 243.882 Q2404.5 240.317 2404.5 233.211 Q2404.5 226.081 2402.67 222.54 Q2400.86 218.975 2397.23 218.975 M2397.23 215.271 Q2403.04 215.271 2406.09 219.878 Q2409.17 224.461 2409.17 233.211 Q2409.17 241.938 2406.09 246.544 Q2403.04 251.128 2397.23 251.128 Q2391.42 251.128 2388.34 246.544 Q2385.28 241.938 2385.28 233.211 Q2385.28 224.461 2388.34 219.878 Q2391.42 215.271 2397.23 215.271 Z" fill="#000000" fill-rule="evenodd" fill-opacity="1" /><path clip-path="url(#clip830)" d="M2452.04 229.507 Q2453.64 226.637 2455.86 225.271 Q2458.08 223.906 2461.09 223.906 Q2465.14 223.906 2467.34 226.753 Q2469.54 229.577 2469.54 234.808 L2469.54 250.456 L2465.26 250.456 L2465.26 234.947 Q2465.26 231.22 2463.94 229.415 Q2462.62 227.609 2459.91 227.609 Q2456.6 227.609 2454.68 229.808 Q2452.76 232.007 2452.76 235.804 L2452.76 250.456 L2448.48 250.456 L2448.48 234.947 Q2448.48 231.197 2447.16 229.415 Q2445.84 227.609 2443.08 227.609 Q2439.82 227.609 2437.9 229.831 Q2435.98 232.03 2435.98 235.804 L2435.98 250.456 L2431.69 250.456 L2431.69 224.531 L2435.98 224.531 L2435.98 228.558 Q2437.44 226.174 2439.47 225.04 Q2441.51 223.906 2444.31 223.906 Q2447.13 223.906 2449.1 225.341 Q2451.09 226.776 2452.04 229.507 Z" fill="#000000" fill-rule="evenodd" fill-opacity="1" /><path clip-path="url(#clip830)" d="M2495.7 215.896 L2508.27 228.79 L2503.62 228.79 L2493.43 219.646 L2483.25 228.79 L2478.59 228.79 L2491.16 215.896 L2495.7 215.896 Z" fill="#000000" fill-rule="evenodd" fill-opacity="1" /><path clip-path="url(#clip830)" d="M2522.39 246.521 L2538.71 246.521 L2538.71 250.456 L2516.76 250.456 L2516.76 246.521 Q2519.43 243.767 2524.01 239.137 Q2528.62 234.484 2529.8 233.142 Q2532.04 230.618 2532.92 228.882 Q2533.82 227.123 2533.82 225.433 Q2533.82 222.679 2531.88 220.943 Q2529.96 219.206 2526.86 219.206 Q2524.66 219.206 2522.2 219.97 Q2519.77 220.734 2517 222.285 L2517 217.563 Q2519.82 216.429 2522.27 215.85 Q2524.73 215.271 2526.76 215.271 Q2532.13 215.271 2535.33 217.956 Q2538.52 220.642 2538.52 225.132 Q2538.52 227.262 2537.71 229.183 Q2536.93 231.081 2534.82 233.674 Q2534.24 234.345 2531.14 237.563 Q2528.04 240.757 2522.39 246.521 Z" fill="#000000" fill-rule="evenodd" fill-opacity="1" /></svg>
