<?xml version="1.0" encoding="utf-8"?>
<svg xmlns="http://www.w3.org/2000/svg" xmlns:xlink="http://www.w3.org/1999/xlink" width="800" height="600" viewBox="0 0 3200 2400">
<defs>
  <clipPath id="clip140">
    <rect x="0" y="0" width="3200" height="2400"/>
  </clipPath>
</defs>
<path clip-path="url(#clip140)" d="M0 2400 L3200 2400 L3200 0 L0 0  Z" fill="#ffffff" fill-rule="evenodd" fill-opacity="1"/>
<defs>
  <clipPath id="clip141">
    <rect x="640" y="0" width="2241" height="2241"/>
  </clipPath>
</defs>
<path clip-path="url(#clip140)" d="M272.309 2204.92 L3152.76 2204.92 L3152.76 131.032 L272.309 131.032  Z" fill="#ffffff" fill-rule="evenodd" fill-opacity="1"/>
<defs>
  <clipPath id="clip142">
    <rect x="272" y="131" width="2881" height="2075"/>
  </clipPath>
</defs>
<polyline clip-path="url(#clip142)" style="stroke:#000000; stroke-linecap:round; stroke-linejoin:round; stroke-width:2; stroke-opacity:0.1; fill:none" points="272.309,2204.92 272.309,131.032 "/>
<polyline clip-path="url(#clip142)" style="stroke:#000000; stroke-linecap:round; stroke-linejoin:round; stroke-width:2; stroke-opacity:0.1; fill:none" points="848.398,2204.92 848.398,131.032 "/>
<polyline clip-path="url(#clip142)" style="stroke:#000000; stroke-linecap:round; stroke-linejoin:round; stroke-width:2; stroke-opacity:0.1; fill:none" points="1424.49,2204.92 1424.49,131.032 "/>
<polyline clip-path="url(#clip142)" style="stroke:#000000; stroke-linecap:round; stroke-linejoin:round; stroke-width:2; stroke-opacity:0.1; fill:none" points="2000.58,2204.92 2000.58,131.032 "/>
<polyline clip-path="url(#clip142)" style="stroke:#000000; stroke-linecap:round; stroke-linejoin:round; stroke-width:2; stroke-opacity:0.1; fill:none" points="2576.67,2204.92 2576.67,131.032 "/>
<polyline clip-path="url(#clip142)" style="stroke:#000000; stroke-linecap:round; stroke-linejoin:round; stroke-width:2; stroke-opacity:0.1; fill:none" points="3152.76,2204.92 3152.76,131.032 "/>
<polyline clip-path="url(#clip140)" style="stroke:#000000; stroke-linecap:round; stroke-linejoin:round; stroke-width:4; stroke-opacity:1; fill:none" points="272.309,2204.92 3152.76,2204.92 "/>
<path clip-path="url(#clip140)" d="M249.693 2242.24 Q246.082 2242.24 244.253 2245.8 Q242.448 2249.34 242.448 2256.47 Q242.448 2263.58 244.253 2267.15 Q246.082 2270.69 249.693 2270.69 Q253.327 2270.69 255.133 2267.15 Q256.962 2263.58 256.962 2256.47 Q256.962 2249.34 255.133 2245.8 Q253.327 2242.24 249.693 2242.24 M249.693 2238.53 Q255.503 2238.53 258.559 2243.14 Q261.637 2247.72 261.637 2256.47 Q261.637 2265.2 258.559 2269.81 Q255.503 2274.39 249.693 2274.39 Q243.883 2274.39 240.804 2269.81 Q237.749 2265.2 237.749 2256.47 Q237.749 2247.72 240.804 2243.14 Q243.883 2238.53 249.693 2238.53 Z" fill="#000000" fill-rule="evenodd" fill-opacity="1" /><path clip-path="url(#clip140)" d="M269.855 2267.84 L274.739 2267.84 L274.739 2273.72 L269.855 2273.72 L269.855 2267.84 Z" fill="#000000" fill-rule="evenodd" fill-opacity="1" /><path clip-path="url(#clip140)" d="M294.924 2242.24 Q291.313 2242.24 289.484 2245.8 Q287.679 2249.34 287.679 2256.47 Q287.679 2263.58 289.484 2267.15 Q291.313 2270.69 294.924 2270.69 Q298.559 2270.69 300.364 2267.15 Q302.193 2263.58 302.193 2256.47 Q302.193 2249.34 300.364 2245.8 Q298.559 2242.24 294.924 2242.24 M294.924 2238.53 Q300.734 2238.53 303.79 2243.14 Q306.869 2247.72 306.869 2256.47 Q306.869 2265.2 303.79 2269.81 Q300.734 2274.39 294.924 2274.39 Q289.114 2274.39 286.035 2269.81 Q282.98 2265.2 282.98 2256.47 Q282.98 2247.72 286.035 2243.14 Q289.114 2238.53 294.924 2238.53 Z" fill="#000000" fill-rule="evenodd" fill-opacity="1" /><path clip-path="url(#clip140)" d="M826.581 2242.24 Q822.97 2242.24 821.141 2245.8 Q819.336 2249.34 819.336 2256.47 Q819.336 2263.58 821.141 2267.15 Q822.97 2270.69 826.581 2270.69 Q830.215 2270.69 832.021 2267.15 Q833.85 2263.58 833.85 2256.47 Q833.85 2249.34 832.021 2245.8 Q830.215 2242.24 826.581 2242.24 M826.581 2238.53 Q832.391 2238.53 835.447 2243.14 Q838.525 2247.72 838.525 2256.47 Q838.525 2265.2 835.447 2269.81 Q832.391 2274.39 826.581 2274.39 Q820.771 2274.39 817.692 2269.81 Q814.637 2265.2 814.637 2256.47 Q814.637 2247.72 817.692 2243.14 Q820.771 2238.53 826.581 2238.53 Z" fill="#000000" fill-rule="evenodd" fill-opacity="1" /><path clip-path="url(#clip140)" d="M846.743 2267.84 L851.627 2267.84 L851.627 2273.72 L846.743 2273.72 L846.743 2267.84 Z" fill="#000000" fill-rule="evenodd" fill-opacity="1" /><path clip-path="url(#clip140)" d="M865.84 2269.78 L882.16 2269.78 L882.16 2273.72 L860.215 2273.72 L860.215 2269.78 Q862.877 2267.03 867.461 2262.4 Q872.067 2257.75 873.248 2256.41 Q875.493 2253.88 876.372 2252.15 Q877.275 2250.39 877.275 2248.7 Q877.275 2245.94 875.331 2244.21 Q873.41 2242.47 870.308 2242.47 Q868.109 2242.47 865.655 2243.23 Q863.224 2244 860.447 2245.55 L860.447 2240.83 Q863.271 2239.69 865.724 2239.11 Q868.178 2238.53 870.215 2238.53 Q875.585 2238.53 878.78 2241.22 Q881.974 2243.91 881.974 2248.4 Q881.974 2250.53 881.164 2252.45 Q880.377 2254.34 878.271 2256.94 Q877.692 2257.61 874.59 2260.83 Q871.488 2264.02 865.84 2269.78 Z" fill="#000000" fill-rule="evenodd" fill-opacity="1" /><path clip-path="url(#clip140)" d="M1401.63 2242.24 Q1398.02 2242.24 1396.19 2245.8 Q1394.38 2249.34 1394.38 2256.47 Q1394.38 2263.58 1396.19 2267.15 Q1398.02 2270.69 1401.63 2270.69 Q1405.26 2270.69 1407.07 2267.15 Q1408.9 2263.58 1408.9 2256.47 Q1408.9 2249.34 1407.07 2245.8 Q1405.26 2242.24 1401.63 2242.24 M1401.63 2238.53 Q1407.44 2238.53 1410.49 2243.14 Q1413.57 2247.72 1413.57 2256.47 Q1413.57 2265.2 1410.49 2269.81 Q1407.44 2274.39 1401.63 2274.39 Q1395.82 2274.39 1392.74 2269.81 Q1389.68 2265.2 1389.68 2256.47 Q1389.68 2247.72 1392.74 2243.14 Q1395.82 2238.53 1401.63 2238.53 Z" fill="#000000" fill-rule="evenodd" fill-opacity="1" /><path clip-path="url(#clip140)" d="M1421.79 2267.84 L1426.68 2267.84 L1426.68 2273.72 L1421.79 2273.72 L1421.79 2267.84 Z" fill="#000000" fill-rule="evenodd" fill-opacity="1" /><path clip-path="url(#clip140)" d="M1449.71 2243.23 L1437.9 2261.68 L1449.71 2261.68 L1449.71 2243.23 M1448.48 2239.16 L1454.36 2239.16 L1454.36 2261.68 L1459.29 2261.68 L1459.29 2265.57 L1454.36 2265.57 L1454.36 2273.72 L1449.71 2273.72 L1449.71 2265.57 L1434.11 2265.57 L1434.11 2261.06 L1448.48 2239.16 Z" fill="#000000" fill-rule="evenodd" fill-opacity="1" /><path clip-path="url(#clip140)" d="M1977.88 2242.24 Q1974.27 2242.24 1972.44 2245.8 Q1970.64 2249.34 1970.64 2256.47 Q1970.64 2263.58 1972.44 2267.15 Q1974.27 2270.69 1977.88 2270.69 Q1981.51 2270.69 1983.32 2267.15 Q1985.15 2263.58 1985.15 2256.47 Q1985.15 2249.34 1983.32 2245.8 Q1981.51 2242.24 1977.88 2242.24 M1977.88 2238.53 Q1983.69 2238.53 1986.75 2243.14 Q1989.82 2247.72 1989.82 2256.47 Q1989.82 2265.2 1986.75 2269.81 Q1983.69 2274.39 1977.88 2274.39 Q1972.07 2274.39 1968.99 2269.81 Q1965.94 2265.2 1965.94 2256.47 Q1965.94 2247.72 1968.99 2243.14 Q1972.07 2238.53 1977.88 2238.53 Z" fill="#000000" fill-rule="evenodd" fill-opacity="1" /><path clip-path="url(#clip140)" d="M1998.04 2267.84 L2002.93 2267.84 L2002.93 2273.72 L1998.04 2273.72 L1998.04 2267.84 Z" fill="#000000" fill-rule="evenodd" fill-opacity="1" /><path clip-path="url(#clip140)" d="M2023.69 2254.58 Q2020.54 2254.58 2018.69 2256.73 Q2016.86 2258.88 2016.86 2262.63 Q2016.86 2266.36 2018.69 2268.53 Q2020.54 2270.69 2023.69 2270.69 Q2026.84 2270.69 2028.67 2268.53 Q2030.52 2266.36 2030.52 2262.63 Q2030.52 2258.88 2028.67 2256.73 Q2026.84 2254.58 2023.69 2254.58 M2032.97 2239.92 L2032.97 2244.18 Q2031.21 2243.35 2029.41 2242.91 Q2027.63 2242.47 2025.87 2242.47 Q2021.24 2242.47 2018.78 2245.59 Q2016.35 2248.72 2016.01 2255.04 Q2017.37 2253.03 2019.43 2251.96 Q2021.49 2250.87 2023.97 2250.87 Q2029.18 2250.87 2032.19 2254.04 Q2035.22 2257.19 2035.22 2262.63 Q2035.22 2267.96 2032.07 2271.17 Q2028.92 2274.39 2023.69 2274.39 Q2017.69 2274.39 2014.52 2269.81 Q2011.35 2265.2 2011.35 2256.47 Q2011.35 2248.28 2015.24 2243.42 Q2019.13 2238.53 2025.68 2238.53 Q2027.44 2238.53 2029.22 2238.88 Q2031.03 2239.23 2032.97 2239.92 Z" fill="#000000" fill-rule="evenodd" fill-opacity="1" /><path clip-path="url(#clip140)" d="M2554.1 2242.24 Q2550.49 2242.24 2548.66 2245.8 Q2546.85 2249.34 2546.85 2256.47 Q2546.85 2263.58 2548.66 2267.15 Q2550.49 2270.69 2554.1 2270.69 Q2557.73 2270.69 2559.54 2267.15 Q2561.37 2263.58 2561.37 2256.47 Q2561.37 2249.34 2559.54 2245.8 Q2557.73 2242.24 2554.1 2242.24 M2554.1 2238.53 Q2559.91 2238.53 2562.96 2243.14 Q2566.04 2247.72 2566.04 2256.47 Q2566.04 2265.2 2562.96 2269.81 Q2559.91 2274.39 2554.1 2274.39 Q2548.29 2274.39 2545.21 2269.81 Q2542.15 2265.2 2542.15 2256.47 Q2542.15 2247.72 2545.21 2243.14 Q2548.29 2238.53 2554.1 2238.53 Z" fill="#000000" fill-rule="evenodd" fill-opacity="1" /><path clip-path="url(#clip140)" d="M2574.26 2267.84 L2579.14 2267.84 L2579.14 2273.72 L2574.26 2273.72 L2574.26 2267.84 Z" fill="#000000" fill-rule="evenodd" fill-opacity="1" /><path clip-path="url(#clip140)" d="M2599.33 2257.31 Q2596 2257.31 2594.07 2259.09 Q2592.18 2260.87 2592.18 2264 Q2592.18 2267.12 2594.07 2268.91 Q2596 2270.69 2599.33 2270.69 Q2602.66 2270.69 2604.58 2268.91 Q2606.5 2267.1 2606.5 2264 Q2606.5 2260.87 2604.58 2259.09 Q2602.68 2257.31 2599.33 2257.31 M2594.65 2255.32 Q2591.64 2254.58 2589.95 2252.52 Q2588.29 2250.46 2588.29 2247.49 Q2588.29 2243.35 2591.23 2240.94 Q2594.19 2238.53 2599.33 2238.53 Q2604.49 2238.53 2607.43 2240.94 Q2610.37 2243.35 2610.37 2247.49 Q2610.37 2250.46 2608.68 2252.52 Q2607.01 2254.58 2604.03 2255.32 Q2607.41 2256.1 2609.28 2258.4 Q2611.18 2260.69 2611.18 2264 Q2611.18 2269.02 2608.1 2271.71 Q2605.05 2274.39 2599.33 2274.39 Q2593.61 2274.39 2590.53 2271.71 Q2587.48 2269.02 2587.48 2264 Q2587.48 2260.69 2589.37 2258.4 Q2591.27 2256.1 2594.65 2255.32 M2592.94 2247.93 Q2592.94 2250.62 2594.61 2252.12 Q2596.3 2253.63 2599.33 2253.63 Q2602.34 2253.63 2604.03 2252.12 Q2605.74 2250.62 2605.74 2247.93 Q2605.74 2245.25 2604.03 2243.74 Q2602.34 2242.24 2599.33 2242.24 Q2596.3 2242.24 2594.61 2243.74 Q2592.94 2245.25 2592.94 2247.93 Z" fill="#000000" fill-rule="evenodd" fill-opacity="1" /><path clip-path="url(#clip140)" d="M3119.91 2269.78 L3127.55 2269.78 L3127.55 2243.42 L3119.24 2245.09 L3119.24 2240.83 L3127.5 2239.16 L3132.18 2239.16 L3132.18 2269.78 L3139.82 2269.78 L3139.82 2273.72 L3119.91 2273.72 L3119.91 2269.78 Z" fill="#000000" fill-rule="evenodd" fill-opacity="1" /><path clip-path="url(#clip140)" d="M3149.26 2267.84 L3154.14 2267.84 L3154.14 2273.72 L3149.26 2273.72 L3149.26 2267.84 Z" fill="#000000" fill-rule="evenodd" fill-opacity="1" /><path clip-path="url(#clip140)" d="M3174.33 2242.24 Q3170.72 2242.24 3168.89 2245.8 Q3167.08 2249.34 3167.08 2256.47 Q3167.08 2263.58 3168.89 2267.15 Q3170.72 2270.69 3174.33 2270.69 Q3177.96 2270.69 3179.77 2267.15 Q3181.6 2263.58 3181.6 2256.47 Q3181.6 2249.34 3179.77 2245.8 Q3177.96 2242.24 3174.33 2242.24 M3174.33 2238.53 Q3180.14 2238.53 3183.2 2243.14 Q3186.27 2247.72 3186.27 2256.47 Q3186.27 2265.2 3183.2 2269.81 Q3180.14 2274.39 3174.33 2274.39 Q3168.52 2274.39 3165.44 2269.81 Q3162.39 2265.2 3162.39 2256.47 Q3162.39 2247.72 3165.44 2243.14 Q3168.52 2238.53 3174.33 2238.53 Z" fill="#000000" fill-rule="evenodd" fill-opacity="1" /><path clip-path="url(#clip140)" d="M1663.34 2326.14 L1650.45 2343.48 L1664.01 2361.78 L1657.1 2361.78 L1646.73 2347.78 L1636.35 2361.78 L1629.44 2361.78 L1643.29 2343.13 L1630.62 2326.14 L1637.53 2326.14 L1646.98 2338.84 L1656.43 2326.14 L1663.34 2326.14 Z" fill="#000000" fill-rule="evenodd" fill-opacity="1" /><path clip-path="url(#clip140)" d="M1707.07 2312.32 Q1702.81 2319.64 1700.74 2326.8 Q1698.67 2333.97 1698.67 2341.32 Q1698.67 2348.67 1700.74 2355.9 Q1702.84 2363.09 1707.07 2370.38 L1701.98 2370.38 Q1697.21 2362.9 1694.82 2355.67 Q1692.46 2348.45 1692.46 2341.32 Q1692.46 2334.22 1694.82 2327.03 Q1697.18 2319.83 1701.98 2312.32 L1707.07 2312.32 Z" fill="#000000" fill-rule="evenodd" fill-opacity="1" /><path clip-path="url(#clip140)" d="M1746.19 2332.98 Q1748.39 2329.03 1751.44 2327.15 Q1754.5 2325.28 1758.64 2325.28 Q1764.21 2325.28 1767.23 2329.19 Q1770.25 2333.07 1770.25 2340.27 L1770.25 2361.78 L1764.37 2361.78 L1764.37 2340.46 Q1764.37 2335.33 1762.55 2332.85 Q1760.74 2330.37 1757.01 2330.37 Q1752.46 2330.37 1749.82 2333.39 Q1747.18 2336.42 1747.18 2341.64 L1747.18 2361.78 L1741.29 2361.78 L1741.29 2340.46 Q1741.29 2335.3 1739.48 2332.85 Q1737.66 2330.37 1733.87 2330.37 Q1729.39 2330.37 1726.74 2333.42 Q1724.1 2336.45 1724.1 2341.64 L1724.1 2361.78 L1718.21 2361.78 L1718.21 2326.14 L1724.1 2326.14 L1724.1 2331.67 Q1726.11 2328.4 1728.91 2326.84 Q1731.71 2325.28 1735.56 2325.28 Q1739.44 2325.28 1742.15 2327.25 Q1744.89 2329.22 1746.19 2332.98 Z" fill="#000000" fill-rule="evenodd" fill-opacity="1" /><path clip-path="url(#clip140)" d="M1781.01 2312.32 L1786.1 2312.32 Q1790.88 2319.83 1793.23 2327.03 Q1795.62 2334.22 1795.62 2341.32 Q1795.62 2348.45 1793.23 2355.67 Q1790.88 2362.9 1786.1 2370.38 L1781.01 2370.38 Q1785.24 2363.09 1787.31 2355.9 Q1789.41 2348.67 1789.41 2341.32 Q1789.41 2333.97 1787.31 2326.8 Q1785.24 2319.64 1781.01 2312.32 Z" fill="#000000" fill-rule="evenodd" fill-opacity="1" /><polyline clip-path="url(#clip142)" style="stroke:#000000; stroke-linecap:round; stroke-linejoin:round; stroke-width:2; stroke-opacity:0.1; fill:none" points="272.309,2204.92 3152.76,2204.92 "/>
<polyline clip-path="url(#clip142)" style="stroke:#000000; stroke-linecap:round; stroke-linejoin:round; stroke-width:2; stroke-opacity:0.1; fill:none" points="272.309,131.032 3152.76,131.032 "/>
<polyline clip-path="url(#clip140)" style="stroke:#000000; stroke-linecap:round; stroke-linejoin:round; stroke-width:4; stroke-opacity:1; fill:none" points="272.309,2204.92 272.309,131.032 "/>
<polyline clip-path="url(#clip140)" style="stroke:#000000; stroke-linecap:round; stroke-linejoin:round; stroke-width:4; stroke-opacity:1; fill:none" points="272.309,2204.92 291.206,2204.92 "/>
<polyline clip-path="url(#clip140)" style="stroke:#000000; stroke-linecap:round; stroke-linejoin:round; stroke-width:4; stroke-opacity:1; fill:none" points="272.309,131.032 291.206,131.032 "/>
<path clip-path="url(#clip140)" d="M116.871 2224.71 L124.51 2224.71 L124.51 2198.35 L116.2 2200.01 L116.2 2195.75 L124.464 2194.09 L129.14 2194.09 L129.14 2224.71 L136.779 2224.71 L136.779 2228.65 L116.871 2228.65 L116.871 2224.71 Z" fill="#000000" fill-rule="evenodd" fill-opacity="1" /><path clip-path="url(#clip140)" d="M156.223 2197.17 Q152.612 2197.17 150.783 2200.73 Q148.978 2204.27 148.978 2211.4 Q148.978 2218.51 150.783 2222.07 Q152.612 2225.62 156.223 2225.62 Q159.857 2225.62 161.663 2222.07 Q163.492 2218.51 163.492 2211.4 Q163.492 2204.27 161.663 2200.73 Q159.857 2197.17 156.223 2197.17 M156.223 2193.46 Q162.033 2193.46 165.089 2198.07 Q168.167 2202.65 168.167 2211.4 Q168.167 2220.13 165.089 2224.74 Q162.033 2229.32 156.223 2229.32 Q150.413 2229.32 147.334 2224.74 Q144.279 2220.13 144.279 2211.4 Q144.279 2202.65 147.334 2198.07 Q150.413 2193.46 156.223 2193.46 Z" fill="#000000" fill-rule="evenodd" fill-opacity="1" /><path clip-path="url(#clip140)" d="M168.167 2187.56 L192.279 2187.56 L192.279 2190.76 L168.167 2190.76 L168.167 2187.56 Z" fill="#000000" fill-rule="evenodd" fill-opacity="1" /><path clip-path="url(#clip140)" d="M213.908 2194.67 Q213.325 2194 212.403 2192.42 Q211.143 2194.67 210.034 2195.67 Q208.642 2196.87 206.479 2196.87 Q203.94 2196.87 202.266 2194.97 Q200.498 2192.98 200.498 2189.69 Q200.498 2186.53 202.266 2184.39 Q203.846 2182.49 206.517 2182.49 Q207.889 2182.49 208.905 2183.05 Q210.09 2183.67 210.899 2184.74 Q211.651 2185.7 212.403 2187 Q213.663 2184.74 214.773 2183.75 Q216.165 2182.54 218.328 2182.54 Q220.867 2182.54 222.541 2184.44 Q224.309 2186.44 224.309 2189.73 Q224.309 2192.89 222.541 2195.03 Q220.961 2196.93 218.29 2196.93 Q216.917 2196.93 215.902 2196.37 Q214.886 2195.86 213.908 2194.67 M206.272 2194.41 Q209.375 2194.41 211.237 2189.9 Q208.849 2184.97 206.272 2184.97 Q204.391 2184.97 203.432 2186.32 Q202.398 2187.77 202.398 2189.69 Q202.398 2191.8 203.432 2193.09 Q204.485 2194.41 206.272 2194.41 M218.535 2185.01 Q215.732 2185.01 213.569 2189.52 Q215.939 2194.45 218.535 2194.45 Q220.415 2194.45 221.375 2193.09 Q222.409 2191.65 222.409 2189.73 Q222.409 2187.62 221.375 2186.32 Q220.321 2185.01 218.535 2185.01 Z" fill="#000000" fill-rule="evenodd" fill-opacity="1" /><path clip-path="url(#clip140)" d="M153.603 150.825 L161.242 150.825 L161.242 124.459 L152.932 126.126 L152.932 121.866 L161.196 120.2 L165.871 120.2 L165.871 150.825 L173.51 150.825 L173.51 154.76 L153.603 154.76 L153.603 150.825 Z" fill="#000000" fill-rule="evenodd" fill-opacity="1" /><path clip-path="url(#clip140)" d="M192.955 123.278 Q189.344 123.278 187.515 126.843 Q185.709 130.385 185.709 137.514 Q185.709 144.621 187.515 148.186 Q189.344 151.727 192.955 151.727 Q196.589 151.727 198.394 148.186 Q200.223 144.621 200.223 137.514 Q200.223 130.385 198.394 126.843 Q196.589 123.278 192.955 123.278 M192.955 119.575 Q198.765 119.575 201.82 124.181 Q204.899 128.764 204.899 137.514 Q204.899 146.241 201.82 150.848 Q198.765 155.431 192.955 155.431 Q187.145 155.431 184.066 150.848 Q181.01 146.241 181.01 137.514 Q181.01 128.764 184.066 124.181 Q187.145 119.575 192.955 119.575 Z" fill="#000000" fill-rule="evenodd" fill-opacity="1" /><path clip-path="url(#clip140)" d="M214.604 101.771 Q211.67 101.771 210.184 104.667 Q208.717 107.545 208.717 113.338 Q208.717 119.112 210.184 122.008 Q211.67 124.886 214.604 124.886 Q217.557 124.886 219.024 122.008 Q220.509 119.112 220.509 113.338 Q220.509 107.545 219.024 104.667 Q217.557 101.771 214.604 101.771 M214.604 98.7615 Q219.325 98.7615 221.807 102.504 Q224.309 106.228 224.309 113.338 Q224.309 120.428 221.807 124.171 Q219.325 127.895 214.604 127.895 Q209.883 127.895 207.382 124.171 Q204.899 120.428 204.899 113.338 Q204.899 106.228 207.382 102.504 Q209.883 98.7615 214.604 98.7615 Z" fill="#000000" fill-rule="evenodd" fill-opacity="1" /><path clip-path="url(#clip140)" d="M6.42416 1260.02 L6.42416 1219.82 L11.835 1219.82 L11.835 1236.69 L53.9442 1236.69 L53.9442 1243.15 L11.835 1243.15 L11.835 1260.02 L6.42416 1260.02 Z" fill="#000000" fill-rule="evenodd" fill-opacity="1" /><path clip-path="url(#clip140)" d="M4.48262 1179.08 Q11.8032 1183.35 18.9646 1185.42 Q26.126 1187.49 33.4784 1187.49 Q40.8308 1187.49 48.0559 1185.42 Q55.2491 1183.32 62.5379 1179.08 L62.5379 1184.18 Q55.0582 1188.95 47.8331 1191.34 Q40.608 1193.69 33.4784 1193.69 Q26.3806 1193.69 19.1874 1191.34 Q11.9942 1188.98 4.48262 1184.18 L4.48262 1179.08 Z" fill="#000000" fill-rule="evenodd" fill-opacity="1" /><path clip-path="url(#clip140)" d="M9.67067 1157.57 Q9.67067 1160.11 11.4531 1161.86 Q13.2036 1163.62 15.7499 1163.62 Q18.2644 1163.62 20.0149 1161.86 Q21.7337 1160.11 21.7337 1157.57 Q21.7337 1155.02 20.0149 1153.27 Q18.2644 1151.52 15.7499 1151.52 Q13.2355 1151.52 11.4531 1153.3 Q9.67067 1155.05 9.67067 1157.57 M5.56479 1157.57 Q5.56479 1155.53 6.3605 1153.65 Q7.12439 1151.78 8.5885 1150.41 Q10.0208 1148.94 11.835 1148.21 Q13.6492 1147.48 15.7499 1147.48 Q19.9513 1147.48 22.8795 1150.44 Q25.7759 1153.37 25.7759 1157.63 Q25.7759 1161.93 22.9113 1164.79 Q20.0468 1167.66 15.7499 1167.66 Q11.4849 1167.66 8.52484 1164.73 Q5.56479 1161.8 5.56479 1157.57 Z" fill="#000000" fill-rule="evenodd" fill-opacity="1" /><path clip-path="url(#clip140)" d="M10.0844 1099.29 L16.8639 1099.29 Q13.8402 1102.54 12.3443 1106.23 Q10.8483 1109.89 10.8483 1114.03 Q10.8483 1122.17 15.8454 1126.5 Q20.8107 1130.83 30.2319 1130.83 Q39.6213 1130.83 44.6184 1126.5 Q49.5836 1122.17 49.5836 1114.03 Q49.5836 1109.89 48.0877 1106.23 Q46.5918 1102.54 43.5681 1099.29 L50.2839 1099.29 Q52.5755 1102.66 53.7214 1106.45 Q54.8672 1110.21 54.8672 1114.41 Q54.8672 1125.2 48.2787 1131.4 Q41.6583 1137.61 30.2319 1137.61 Q18.7736 1137.61 12.1851 1131.4 Q5.56479 1125.2 5.56479 1114.41 Q5.56479 1110.14 6.71061 1106.39 Q7.82461 1102.6 10.0844 1099.29 Z" fill="#000000" fill-rule="evenodd" fill-opacity="1" /><path clip-path="url(#clip140)" d="M4.48262 1090.54 L4.48262 1085.44 Q11.9942 1080.67 19.1874 1078.32 Q26.3806 1075.93 33.4784 1075.93 Q40.608 1075.93 47.8331 1078.32 Q55.0582 1080.67 62.5379 1085.44 L62.5379 1090.54 Q55.2491 1086.3 48.0559 1084.24 Q40.8308 1082.13 33.4784 1082.13 Q26.126 1082.13 18.9646 1084.24 Q11.8032 1086.3 4.48262 1090.54 Z" fill="#000000" fill-rule="evenodd" fill-opacity="1" /><path clip-path="url(#clip140)" d="M1309.69 12.096 L1360.85 12.096 L1360.85 18.9825 L1339.38 18.9825 L1339.38 72.576 L1331.16 72.576 L1331.16 18.9825 L1309.69 18.9825 L1309.69 12.096 Z" fill="#000000" fill-rule="evenodd" fill-opacity="1" /><path clip-path="url(#clip140)" d="M1393.14 48.0275 L1393.14 51.6733 L1358.87 51.6733 Q1359.35 59.3701 1363.49 63.421 Q1367.66 67.4314 1375.07 67.4314 Q1379.37 67.4314 1383.38 66.3781 Q1387.43 65.3249 1391.4 63.2184 L1391.4 70.267 Q1387.39 71.9684 1383.17 72.8596 Q1378.96 73.7508 1374.63 73.7508 Q1363.77 73.7508 1357.41 67.4314 Q1351.09 61.1119 1351.09 50.3365 Q1351.09 39.1965 1357.09 32.6746 Q1363.12 26.1121 1373.33 26.1121 Q1382.48 26.1121 1387.79 32.0264 Q1393.14 37.9003 1393.14 48.0275 M1385.69 45.84 Q1385.6 39.7232 1382.24 36.0774 Q1378.92 32.4315 1373.41 32.4315 Q1367.17 32.4315 1363.41 35.9558 Q1359.68 39.4801 1359.11 45.8805 L1385.69 45.84 Z" fill="#000000" fill-rule="evenodd" fill-opacity="1" /><path clip-path="url(#clip140)" d="M1440.7 35.9153 Q1443.49 30.8922 1447.38 28.5022 Q1451.27 26.1121 1456.54 26.1121 Q1463.62 26.1121 1467.47 31.0947 Q1471.32 36.0368 1471.32 45.1919 L1471.32 72.576 L1463.83 72.576 L1463.83 45.4349 Q1463.83 38.913 1461.52 35.7533 Q1459.21 32.5936 1454.47 32.5936 Q1448.68 32.5936 1445.31 36.4419 Q1441.95 40.2903 1441.95 46.9338 L1441.95 72.576 L1434.46 72.576 L1434.46 45.4349 Q1434.46 38.8725 1432.15 35.7533 Q1429.84 32.5936 1425.02 32.5936 Q1419.31 32.5936 1415.95 36.4824 Q1412.58 40.3308 1412.58 46.9338 L1412.58 72.576 L1405.09 72.576 L1405.09 27.2059 L1412.58 27.2059 L1412.58 34.2544 Q1415.14 30.082 1418.7 28.0971 Q1422.26 26.1121 1427.17 26.1121 Q1432.11 26.1121 1435.55 28.6237 Q1439.04 31.1352 1440.7 35.9153 Z" fill="#000000" fill-rule="evenodd" fill-opacity="1" /><path clip-path="url(#clip140)" d="M1493.4 65.7705 L1493.4 89.8329 L1485.9 89.8329 L1485.9 27.2059 L1493.4 27.2059 L1493.4 34.0924 Q1495.75 30.0415 1499.31 28.0971 Q1502.92 26.1121 1507.9 26.1121 Q1516.16 26.1121 1521.31 32.6746 Q1526.49 39.2371 1526.49 49.9314 Q1526.49 60.6258 1521.31 67.1883 Q1516.16 73.7508 1507.9 73.7508 Q1502.92 73.7508 1499.31 71.8063 Q1495.75 69.8214 1493.4 65.7705 M1518.76 49.9314 Q1518.76 41.7081 1515.35 37.0496 Q1511.99 32.3505 1506.08 32.3505 Q1500.16 32.3505 1496.76 37.0496 Q1493.4 41.7081 1493.4 49.9314 Q1493.4 58.1548 1496.76 62.8538 Q1500.16 67.5124 1506.08 67.5124 Q1511.99 67.5124 1515.35 62.8538 Q1518.76 58.1548 1518.76 49.9314 Z" fill="#000000" fill-rule="evenodd" fill-opacity="1" /><path clip-path="url(#clip140)" d="M1577.66 48.0275 L1577.66 51.6733 L1543.39 51.6733 Q1543.87 59.3701 1548 63.421 Q1552.18 67.4314 1559.59 67.4314 Q1563.88 67.4314 1567.89 66.3781 Q1571.95 65.3249 1575.92 63.2184 L1575.92 70.267 Q1571.91 71.9684 1567.69 72.8596 Q1563.48 73.7508 1559.14 73.7508 Q1548.29 73.7508 1541.93 67.4314 Q1535.61 61.1119 1535.61 50.3365 Q1535.61 39.1965 1541.6 32.6746 Q1547.64 26.1121 1557.85 26.1121 Q1567 26.1121 1572.31 32.0264 Q1577.66 37.9003 1577.66 48.0275 M1570.2 45.84 Q1570.12 39.7232 1566.76 36.0774 Q1563.44 32.4315 1557.93 32.4315 Q1551.69 32.4315 1547.92 35.9558 Q1544.2 39.4801 1543.63 45.8805 L1570.2 45.84 Z" fill="#000000" fill-rule="evenodd" fill-opacity="1" /><path clip-path="url(#clip140)" d="M1616.18 34.1734 Q1614.93 33.4443 1613.43 33.1202 Q1611.97 32.7556 1610.19 32.7556 Q1603.87 32.7556 1600.46 36.8875 Q1597.1 40.9789 1597.1 48.6757 L1597.1 72.576 L1589.61 72.576 L1589.61 27.2059 L1597.1 27.2059 L1597.1 34.2544 Q1599.45 30.1225 1603.22 28.1376 Q1606.99 26.1121 1612.37 26.1121 Q1613.14 26.1121 1614.08 26.2337 Q1615.01 26.3147 1616.14 26.5172 L1616.18 34.1734 Z" fill="#000000" fill-rule="evenodd" fill-opacity="1" /><path clip-path="url(#clip140)" d="M1644.62 49.7694 Q1635.59 49.7694 1632.1 51.8354 Q1628.62 53.9013 1628.62 58.8839 Q1628.62 62.8538 1631.21 65.2034 Q1633.84 67.5124 1638.34 67.5124 Q1644.54 67.5124 1648.26 63.1374 Q1652.03 58.7219 1652.03 51.4303 L1652.03 49.7694 L1644.62 49.7694 M1659.49 46.6907 L1659.49 72.576 L1652.03 72.576 L1652.03 65.6895 Q1649.48 69.8214 1645.67 71.8063 Q1641.86 73.7508 1636.36 73.7508 Q1629.39 73.7508 1625.26 69.8619 Q1621.16 65.9325 1621.16 59.3701 Q1621.16 51.7138 1626.27 47.825 Q1631.41 43.9361 1641.58 43.9361 L1652.03 43.9361 L1652.03 43.2069 Q1652.03 38.0623 1648.63 35.2672 Q1645.27 32.4315 1639.15 32.4315 Q1635.26 32.4315 1631.57 33.3632 Q1627.89 34.295 1624.49 36.1584 L1624.49 29.2718 Q1628.58 27.692 1632.43 26.9223 Q1636.27 26.1121 1639.92 26.1121 Q1649.76 26.1121 1654.62 31.2163 Q1659.49 36.3204 1659.49 46.6907 Z" fill="#000000" fill-rule="evenodd" fill-opacity="1" /><path clip-path="url(#clip140)" d="M1682.21 14.324 L1682.21 27.2059 L1697.56 27.2059 L1697.56 32.9987 L1682.21 32.9987 L1682.21 57.6282 Q1682.21 63.1779 1683.71 64.7578 Q1685.25 66.3376 1689.91 66.3376 L1697.56 66.3376 L1697.56 72.576 L1689.91 72.576 Q1681.28 72.576 1678 69.3758 Q1674.72 66.1351 1674.72 57.6282 L1674.72 32.9987 L1669.25 32.9987 L1669.25 27.2059 L1674.72 27.2059 L1674.72 14.324 L1682.21 14.324 Z" fill="#000000" fill-rule="evenodd" fill-opacity="1" /><path clip-path="url(#clip140)" d="M1706.6 54.671 L1706.6 27.2059 L1714.05 27.2059 L1714.05 54.3874 Q1714.05 60.8284 1716.56 64.0691 Q1719.07 67.2693 1724.1 67.2693 Q1730.13 67.2693 1733.62 63.421 Q1737.14 59.5726 1737.14 52.9291 L1737.14 27.2059 L1744.6 27.2059 L1744.6 72.576 L1737.14 72.576 L1737.14 65.6084 Q1734.43 69.7404 1730.82 71.7658 Q1727.26 73.7508 1722.52 73.7508 Q1714.7 73.7508 1710.65 68.8897 Q1706.6 64.0286 1706.6 54.671 M1725.35 26.1121 L1725.35 26.1121 Z" fill="#000000" fill-rule="evenodd" fill-opacity="1" /><path clip-path="url(#clip140)" d="M1786.24 34.1734 Q1784.98 33.4443 1783.48 33.1202 Q1782.03 32.7556 1780.24 32.7556 Q1773.92 32.7556 1770.52 36.8875 Q1767.16 40.9789 1767.16 48.6757 L1767.16 72.576 L1759.66 72.576 L1759.66 27.2059 L1767.16 27.2059 L1767.16 34.2544 Q1769.51 30.1225 1773.28 28.1376 Q1777.04 26.1121 1782.43 26.1121 Q1783.2 26.1121 1784.13 26.2337 Q1785.06 26.3147 1786.2 26.5172 L1786.24 34.1734 Z" fill="#000000" fill-rule="evenodd" fill-opacity="1" /><path clip-path="url(#clip140)" d="M1831.04 48.0275 L1831.04 51.6733 L1796.77 51.6733 Q1797.26 59.3701 1801.39 63.421 Q1805.56 67.4314 1812.97 67.4314 Q1817.27 67.4314 1821.28 66.3781 Q1825.33 65.3249 1829.3 63.2184 L1829.3 70.267 Q1825.29 71.9684 1821.08 72.8596 Q1816.86 73.7508 1812.53 73.7508 Q1801.67 73.7508 1795.31 67.4314 Q1788.99 61.1119 1788.99 50.3365 Q1788.99 39.1965 1794.99 32.6746 Q1801.02 26.1121 1811.23 26.1121 Q1820.39 26.1121 1825.69 32.0264 Q1831.04 37.9003 1831.04 48.0275 M1823.59 45.84 Q1823.51 39.7232 1820.14 36.0774 Q1816.82 32.4315 1811.31 32.4315 Q1805.08 32.4315 1801.31 35.9558 Q1797.58 39.4801 1797.01 45.8805 L1823.59 45.84 Z" fill="#000000" fill-rule="evenodd" fill-opacity="1" /><path clip-path="url(#clip140)" d="M1878.15 18.8205 L1878.15 41.5461 L1888.44 41.5461 Q1894.15 41.5461 1897.27 38.5889 Q1900.39 35.6318 1900.39 30.163 Q1900.39 24.7348 1897.27 21.7777 Q1894.15 18.8205 1888.44 18.8205 L1878.15 18.8205 M1869.97 12.096 L1888.44 12.096 Q1898.61 12.096 1903.8 16.714 Q1909.02 21.2916 1909.02 30.163 Q1909.02 39.1155 1903.8 43.6931 Q1898.61 48.2706 1888.44 48.2706 L1878.15 48.2706 L1878.15 72.576 L1869.97 72.576 L1869.97 12.096 Z" fill="#000000" fill-rule="evenodd" fill-opacity="1" /><path clip-path="url(#clip140)" d="M1944.51 34.1734 Q1943.25 33.4443 1941.75 33.1202 Q1940.29 32.7556 1938.51 32.7556 Q1932.19 32.7556 1928.79 36.8875 Q1925.43 40.9789 1925.43 48.6757 L1925.43 72.576 L1917.93 72.576 L1917.93 27.2059 L1925.43 27.2059 L1925.43 34.2544 Q1927.78 30.1225 1931.54 28.1376 Q1935.31 26.1121 1940.7 26.1121 Q1941.47 26.1121 1942.4 26.2337 Q1943.33 26.3147 1944.47 26.5172 L1944.51 34.1734 Z" fill="#000000" fill-rule="evenodd" fill-opacity="1" /><path clip-path="url(#clip140)" d="M1968.08 32.4315 Q1962.09 32.4315 1958.6 37.1306 Q1955.12 41.7891 1955.12 49.9314 Q1955.12 58.0738 1958.56 62.7728 Q1962.05 67.4314 1968.08 67.4314 Q1974.04 67.4314 1977.52 62.7323 Q1981.01 58.0333 1981.01 49.9314 Q1981.01 41.8701 1977.52 37.1711 Q1974.04 32.4315 1968.08 32.4315 M1968.08 26.1121 Q1977.81 26.1121 1983.36 32.4315 Q1988.91 38.7509 1988.91 49.9314 Q1988.91 61.0714 1983.36 67.4314 Q1977.81 73.7508 1968.08 73.7508 Q1958.32 73.7508 1952.77 67.4314 Q1947.26 61.0714 1947.26 49.9314 Q1947.26 38.7509 1952.77 32.4315 Q1958.32 26.1121 1968.08 26.1121 Z" fill="#000000" fill-rule="evenodd" fill-opacity="1" /><path clip-path="url(#clip140)" d="M2024.23 9.54393 L2024.23 15.7418 L2017.1 15.7418 Q2013.09 15.7418 2011.51 17.3622 Q2009.97 18.9825 2009.97 23.1955 L2009.97 27.2059 L2022.24 27.2059 L2022.24 32.9987 L2009.97 32.9987 L2009.97 72.576 L2002.48 72.576 L2002.48 32.9987 L1995.35 32.9987 L1995.35 27.2059 L2002.48 27.2059 L2002.48 24.0462 Q2002.48 16.471 2006 13.0277 Q2009.52 9.54393 2017.18 9.54393 L2024.23 9.54393 Z" fill="#000000" fill-rule="evenodd" fill-opacity="1" /><path clip-path="url(#clip140)" d="M2030.47 27.2059 L2037.92 27.2059 L2037.92 72.576 L2030.47 72.576 L2030.47 27.2059 M2030.47 9.54393 L2037.92 9.54393 L2037.92 18.9825 L2030.47 18.9825 L2030.47 9.54393 Z" fill="#000000" fill-rule="evenodd" fill-opacity="1" /><path clip-path="url(#clip140)" d="M2053.52 9.54393 L2060.97 9.54393 L2060.97 72.576 L2053.52 72.576 L2053.52 9.54393 Z" fill="#000000" fill-rule="evenodd" fill-opacity="1" /><path clip-path="url(#clip140)" d="M2115.37 48.0275 L2115.37 51.6733 L2081.1 51.6733 Q2081.59 59.3701 2085.72 63.421 Q2089.89 67.4314 2097.31 67.4314 Q2101.6 67.4314 2105.61 66.3781 Q2109.66 65.3249 2113.63 63.2184 L2113.63 70.267 Q2109.62 71.9684 2105.41 72.8596 Q2101.2 73.7508 2096.86 73.7508 Q2086.01 73.7508 2079.65 67.4314 Q2073.33 61.1119 2073.33 50.3365 Q2073.33 39.1965 2079.32 32.6746 Q2085.36 26.1121 2095.57 26.1121 Q2104.72 26.1121 2110.03 32.0264 Q2115.37 37.9003 2115.37 48.0275 M2107.92 45.84 Q2107.84 39.7232 2104.48 36.0774 Q2101.16 32.4315 2095.65 32.4315 Q2089.41 32.4315 2085.64 35.9558 Q2081.91 39.4801 2081.35 45.8805 L2107.92 45.84 Z" fill="#000000" fill-rule="evenodd" fill-opacity="1" /></svg>
