<?xml version="1.0" encoding="utf-8"?>
<svg xmlns="http://www.w3.org/2000/svg" xmlns:xlink="http://www.w3.org/1999/xlink" width="672" height="480" viewBox="0 0 2688 1920">
<defs>
  <clipPath id="clip720">
    <rect x="0" y="0" width="2688" height="1920"/>
  </clipPath>
</defs>
<path clip-path="url(#clip720)" d="M0 1920 L2688 1920 L2688 0 L0 0  Z" fill="#ffffff" fill-rule="evenodd" fill-opacity="1"/>
<defs>
  <clipPath id="clip721">
    <rect x="537" y="0" width="1883" height="1883"/>
  </clipPath>
</defs>
<path clip-path="url(#clip720)" d="M345.816 1734.12 L2640.76 1734.12 L2640.76 127.792 L345.816 127.792  Z" fill="#ffffff" fill-rule="evenodd" fill-opacity="1"/>
<defs>
  <clipPath id="clip722">
    <rect x="345" y="127" width="2296" height="1607"/>
  </clipPath>
</defs>
<polyline clip-path="url(#clip722)" style="stroke:#000000; stroke-linecap:round; stroke-linejoin:round; stroke-width:2; stroke-opacity:0.1; fill:none" points="410.767,1734.12 410.767,127.792 "/>
<polyline clip-path="url(#clip722)" style="stroke:#000000; stroke-linecap:round; stroke-linejoin:round; stroke-width:2; stroke-opacity:0.1; fill:none" points="916.901,1734.12 916.901,127.792 "/>
<polyline clip-path="url(#clip722)" style="stroke:#000000; stroke-linecap:round; stroke-linejoin:round; stroke-width:2; stroke-opacity:0.1; fill:none" points="1423.03,1734.12 1423.03,127.792 "/>
<polyline clip-path="url(#clip722)" style="stroke:#000000; stroke-linecap:round; stroke-linejoin:round; stroke-width:2; stroke-opacity:0.1; fill:none" points="1929.17,1734.12 1929.17,127.792 "/>
<polyline clip-path="url(#clip722)" style="stroke:#000000; stroke-linecap:round; stroke-linejoin:round; stroke-width:2; stroke-opacity:0.1; fill:none" points="2435.3,1734.12 2435.3,127.792 "/>
<polyline clip-path="url(#clip720)" style="stroke:#000000; stroke-linecap:round; stroke-linejoin:round; stroke-width:4; stroke-opacity:1; fill:none" points="345.816,1734.12 2640.76,1734.12 "/>
<polyline clip-path="url(#clip720)" style="stroke:#000000; stroke-linecap:round; stroke-linejoin:round; stroke-width:4; stroke-opacity:1; fill:none" points="410.767,1734.12 410.767,1715.22 "/>
<polyline clip-path="url(#clip720)" style="stroke:#000000; stroke-linecap:round; stroke-linejoin:round; stroke-width:4; stroke-opacity:1; fill:none" points="916.901,1734.12 916.901,1715.22 "/>
<polyline clip-path="url(#clip720)" style="stroke:#000000; stroke-linecap:round; stroke-linejoin:round; stroke-width:4; stroke-opacity:1; fill:none" points="1423.03,1734.12 1423.03,1715.22 "/>
<polyline clip-path="url(#clip720)" style="stroke:#000000; stroke-linecap:round; stroke-linejoin:round; stroke-width:4; stroke-opacity:1; fill:none" points="1929.17,1734.12 1929.17,1715.22 "/>
<polyline clip-path="url(#clip720)" style="stroke:#000000; stroke-linecap:round; stroke-linejoin:round; stroke-width:4; stroke-opacity:1; fill:none" points="2435.3,1734.12 2435.3,1715.22 "/>
<path clip-path="url(#clip720)" d="M388.151 1767.34 Q384.54 1767.34 382.712 1770.9 Q380.906 1774.45 380.906 1781.58 Q380.906 1788.68 382.712 1792.25 Q384.54 1795.79 388.151 1795.79 Q391.786 1795.79 393.591 1792.25 Q395.42 1788.68 395.42 1781.58 Q395.42 1774.45 393.591 1770.9 Q391.786 1767.34 388.151 1767.34 M388.151 1763.64 Q393.962 1763.64 397.017 1768.24 Q400.096 1772.83 400.096 1781.58 Q400.096 1790.3 397.017 1794.91 Q393.962 1799.49 388.151 1799.49 Q382.341 1799.49 379.263 1794.91 Q376.207 1790.3 376.207 1781.58 Q376.207 1772.83 379.263 1768.24 Q382.341 1763.64 388.151 1763.64 Z" fill="#000000" fill-rule="evenodd" fill-opacity="1" /><path clip-path="url(#clip720)" d="M408.313 1792.94 L413.198 1792.94 L413.198 1798.82 L408.313 1798.82 L408.313 1792.94 Z" fill="#000000" fill-rule="evenodd" fill-opacity="1" /><path clip-path="url(#clip720)" d="M433.383 1767.34 Q429.771 1767.34 427.943 1770.9 Q426.137 1774.45 426.137 1781.58 Q426.137 1788.68 427.943 1792.25 Q429.771 1795.79 433.383 1795.79 Q437.017 1795.79 438.822 1792.25 Q440.651 1788.68 440.651 1781.58 Q440.651 1774.45 438.822 1770.9 Q437.017 1767.34 433.383 1767.34 M433.383 1763.64 Q439.193 1763.64 442.248 1768.24 Q445.327 1772.83 445.327 1781.58 Q445.327 1790.3 442.248 1794.91 Q439.193 1799.49 433.383 1799.49 Q427.572 1799.49 424.494 1794.91 Q421.438 1790.3 421.438 1781.58 Q421.438 1772.83 424.494 1768.24 Q427.572 1763.64 433.383 1763.64 Z" fill="#000000" fill-rule="evenodd" fill-opacity="1" /><path clip-path="url(#clip720)" d="M888.637 1794.89 L904.956 1794.89 L904.956 1798.82 L883.012 1798.82 L883.012 1794.89 Q885.674 1792.13 890.257 1787.5 Q894.864 1782.85 896.044 1781.51 Q898.29 1778.98 899.169 1777.25 Q900.072 1775.49 900.072 1773.8 Q900.072 1771.04 898.128 1769.31 Q896.206 1767.57 893.105 1767.57 Q890.906 1767.57 888.452 1768.34 Q886.021 1769.1 883.244 1770.65 L883.244 1765.93 Q886.068 1764.79 888.521 1764.21 Q890.975 1763.64 893.012 1763.64 Q898.382 1763.64 901.577 1766.32 Q904.771 1769.01 904.771 1773.5 Q904.771 1775.63 903.961 1777.55 Q903.174 1779.45 901.067 1782.04 Q900.489 1782.71 897.387 1785.93 Q894.285 1789.12 888.637 1794.89 Z" fill="#000000" fill-rule="evenodd" fill-opacity="1" /><path clip-path="url(#clip720)" d="M914.771 1792.94 L919.655 1792.94 L919.655 1798.82 L914.771 1798.82 L914.771 1792.94 Z" fill="#000000" fill-rule="evenodd" fill-opacity="1" /><path clip-path="url(#clip720)" d="M929.887 1764.26 L948.243 1764.26 L948.243 1768.2 L934.169 1768.2 L934.169 1776.67 Q935.188 1776.32 936.206 1776.16 Q937.225 1775.97 938.243 1775.97 Q944.03 1775.97 947.41 1779.15 Q950.789 1782.32 950.789 1787.73 Q950.789 1793.31 947.317 1796.41 Q943.845 1799.49 937.526 1799.49 Q935.35 1799.49 933.081 1799.12 Q930.836 1798.75 928.428 1798.01 L928.428 1793.31 Q930.512 1794.45 932.734 1795 Q934.956 1795.56 937.433 1795.56 Q941.438 1795.56 943.776 1793.45 Q946.114 1791.34 946.114 1787.73 Q946.114 1784.12 943.776 1782.02 Q941.438 1779.91 937.433 1779.91 Q935.558 1779.91 933.683 1780.33 Q931.831 1780.74 929.887 1781.62 L929.887 1764.26 Z" fill="#000000" fill-rule="evenodd" fill-opacity="1" /><path clip-path="url(#clip720)" d="M1390.2 1764.26 L1408.56 1764.26 L1408.56 1768.2 L1394.48 1768.2 L1394.48 1776.67 Q1395.5 1776.32 1396.52 1776.16 Q1397.54 1775.97 1398.56 1775.97 Q1404.34 1775.97 1407.72 1779.15 Q1411.1 1782.32 1411.1 1787.73 Q1411.1 1793.31 1407.63 1796.41 Q1404.16 1799.49 1397.84 1799.49 Q1395.66 1799.49 1393.39 1799.12 Q1391.15 1798.75 1388.74 1798.01 L1388.74 1793.31 Q1390.82 1794.45 1393.05 1795 Q1395.27 1795.56 1397.75 1795.56 Q1401.75 1795.56 1404.09 1793.45 Q1406.43 1791.34 1406.43 1787.73 Q1406.43 1784.12 1404.09 1782.02 Q1401.75 1779.91 1397.75 1779.91 Q1395.87 1779.91 1394 1780.33 Q1392.14 1780.74 1390.2 1781.62 L1390.2 1764.26 Z" fill="#000000" fill-rule="evenodd" fill-opacity="1" /><path clip-path="url(#clip720)" d="M1420.31 1792.94 L1425.2 1792.94 L1425.2 1798.82 L1420.31 1798.82 L1420.31 1792.94 Z" fill="#000000" fill-rule="evenodd" fill-opacity="1" /><path clip-path="url(#clip720)" d="M1445.38 1767.34 Q1441.77 1767.34 1439.94 1770.9 Q1438.14 1774.45 1438.14 1781.58 Q1438.14 1788.68 1439.94 1792.25 Q1441.77 1795.79 1445.38 1795.79 Q1449.02 1795.79 1450.82 1792.25 Q1452.65 1788.68 1452.65 1781.58 Q1452.65 1774.45 1450.82 1770.9 Q1449.02 1767.34 1445.38 1767.34 M1445.38 1763.64 Q1451.19 1763.64 1454.25 1768.24 Q1457.33 1772.83 1457.33 1781.58 Q1457.33 1790.3 1454.25 1794.91 Q1451.19 1799.49 1445.38 1799.49 Q1439.57 1799.49 1436.5 1794.91 Q1433.44 1790.3 1433.44 1781.58 Q1433.44 1772.83 1436.5 1768.24 Q1439.57 1763.64 1445.38 1763.64 Z" fill="#000000" fill-rule="evenodd" fill-opacity="1" /><path clip-path="url(#clip720)" d="M1895.49 1764.26 L1917.71 1764.26 L1917.71 1766.25 L1905.16 1798.82 L1900.28 1798.82 L1912.09 1768.2 L1895.49 1768.2 L1895.49 1764.26 Z" fill="#000000" fill-rule="evenodd" fill-opacity="1" /><path clip-path="url(#clip720)" d="M1926.83 1792.94 L1931.71 1792.94 L1931.71 1798.82 L1926.83 1798.82 L1926.83 1792.94 Z" fill="#000000" fill-rule="evenodd" fill-opacity="1" /><path clip-path="url(#clip720)" d="M1941.95 1764.26 L1960.3 1764.26 L1960.3 1768.2 L1946.23 1768.2 L1946.23 1776.67 Q1947.25 1776.32 1948.27 1776.16 Q1949.28 1775.97 1950.3 1775.97 Q1956.09 1775.97 1959.47 1779.15 Q1962.85 1782.32 1962.85 1787.73 Q1962.85 1793.31 1959.38 1796.41 Q1955.9 1799.49 1949.58 1799.49 Q1947.41 1799.49 1945.14 1799.12 Q1942.9 1798.75 1940.49 1798.01 L1940.49 1793.31 Q1942.57 1794.45 1944.79 1795 Q1947.02 1795.56 1949.49 1795.56 Q1953.5 1795.56 1955.83 1793.45 Q1958.17 1791.34 1958.17 1787.73 Q1958.17 1784.12 1955.83 1782.02 Q1953.5 1779.91 1949.49 1779.91 Q1947.62 1779.91 1945.74 1780.33 Q1943.89 1780.74 1941.95 1781.62 L1941.95 1764.26 Z" fill="#000000" fill-rule="evenodd" fill-opacity="1" /><path clip-path="url(#clip720)" d="M2387.37 1794.89 L2395.01 1794.89 L2395.01 1768.52 L2386.7 1770.19 L2386.7 1765.93 L2394.97 1764.26 L2399.64 1764.26 L2399.64 1794.89 L2407.28 1794.89 L2407.28 1798.82 L2387.37 1798.82 L2387.37 1794.89 Z" fill="#000000" fill-rule="evenodd" fill-opacity="1" /><path clip-path="url(#clip720)" d="M2426.73 1767.34 Q2423.11 1767.34 2421.29 1770.9 Q2419.48 1774.45 2419.48 1781.58 Q2419.48 1788.68 2421.29 1792.25 Q2423.11 1795.79 2426.73 1795.79 Q2430.36 1795.79 2432.17 1792.25 Q2433.99 1788.68 2433.99 1781.58 Q2433.99 1774.45 2432.17 1770.9 Q2430.36 1767.34 2426.73 1767.34 M2426.73 1763.64 Q2432.54 1763.64 2435.59 1768.24 Q2438.67 1772.83 2438.67 1781.58 Q2438.67 1790.3 2435.59 1794.91 Q2432.54 1799.49 2426.73 1799.49 Q2420.92 1799.49 2417.84 1794.91 Q2414.78 1790.3 2414.78 1781.58 Q2414.78 1772.83 2417.84 1768.24 Q2420.92 1763.64 2426.73 1763.64 Z" fill="#000000" fill-rule="evenodd" fill-opacity="1" /><path clip-path="url(#clip720)" d="M2446.89 1792.94 L2451.77 1792.94 L2451.77 1798.82 L2446.89 1798.82 L2446.89 1792.94 Z" fill="#000000" fill-rule="evenodd" fill-opacity="1" /><path clip-path="url(#clip720)" d="M2471.96 1767.34 Q2468.35 1767.34 2466.52 1770.9 Q2464.71 1774.45 2464.71 1781.58 Q2464.71 1788.68 2466.52 1792.25 Q2468.35 1795.79 2471.96 1795.79 Q2475.59 1795.79 2477.4 1792.25 Q2479.23 1788.68 2479.23 1781.58 Q2479.23 1774.45 2477.4 1770.9 Q2475.59 1767.34 2471.96 1767.34 M2471.96 1763.64 Q2477.77 1763.64 2480.82 1768.24 Q2483.9 1772.83 2483.9 1781.58 Q2483.9 1790.3 2480.82 1794.91 Q2477.77 1799.49 2471.96 1799.49 Q2466.15 1799.49 2463.07 1794.91 Q2460.01 1790.3 2460.01 1781.58 Q2460.01 1772.83 2463.07 1768.24 Q2466.15 1763.64 2471.96 1763.64 Z" fill="#000000" fill-rule="evenodd" fill-opacity="1" /><path clip-path="url(#clip720)" d="M1311.43 1835.78 L1351.63 1835.78 L1351.63 1841.19 L1334.76 1841.19 L1334.76 1883.3 L1328.3 1883.3 L1328.3 1841.19 L1311.43 1841.19 L1311.43 1835.78 Z" fill="#000000" fill-rule="evenodd" fill-opacity="1" /><path clip-path="url(#clip720)" d="M1355.58 1847.65 L1361.44 1847.65 L1361.44 1883.3 L1355.58 1883.3 L1355.58 1847.65 M1355.58 1833.78 L1361.44 1833.78 L1361.44 1841.19 L1355.58 1841.19 L1355.58 1833.78 Z" fill="#000000" fill-rule="evenodd" fill-opacity="1" /><path clip-path="url(#clip720)" d="M1401.44 1854.5 Q1403.64 1850.55 1406.7 1848.67 Q1409.75 1846.79 1413.89 1846.79 Q1419.46 1846.79 1422.48 1850.71 Q1425.51 1854.59 1425.51 1861.78 L1425.51 1883.3 L1419.62 1883.3 L1419.62 1861.98 Q1419.62 1856.85 1417.8 1854.37 Q1415.99 1851.89 1412.27 1851.89 Q1407.71 1851.89 1405.07 1854.91 Q1402.43 1857.93 1402.43 1863.15 L1402.43 1883.3 L1396.54 1883.3 L1396.54 1861.98 Q1396.54 1856.82 1394.73 1854.37 Q1392.91 1851.89 1389.13 1851.89 Q1384.64 1851.89 1382 1854.94 Q1379.36 1857.97 1379.36 1863.15 L1379.36 1883.3 L1373.47 1883.3 L1373.47 1847.65 L1379.36 1847.65 L1379.36 1853.19 Q1381.36 1849.91 1384.16 1848.35 Q1386.96 1846.79 1390.81 1846.79 Q1394.7 1846.79 1397.4 1848.77 Q1400.14 1850.74 1401.44 1854.5 Z" fill="#000000" fill-rule="evenodd" fill-opacity="1" /><path clip-path="url(#clip720)" d="M1467.68 1864.01 L1467.68 1866.88 L1440.75 1866.88 Q1441.13 1872.92 1444.38 1876.11 Q1447.66 1879.26 1453.48 1879.26 Q1456.86 1879.26 1460.01 1878.43 Q1463.19 1877.6 1466.31 1875.95 L1466.31 1881.49 Q1463.16 1882.82 1459.85 1883.52 Q1456.54 1884.22 1453.13 1884.22 Q1444.6 1884.22 1439.61 1879.26 Q1434.64 1874.29 1434.64 1865.83 Q1434.64 1857.07 1439.35 1851.95 Q1444.09 1846.79 1452.12 1846.79 Q1459.31 1846.79 1463.48 1851.44 Q1467.68 1856.06 1467.68 1864.01 M1461.82 1862.29 Q1461.76 1857.49 1459.12 1854.62 Q1456.51 1851.76 1452.18 1851.76 Q1447.28 1851.76 1444.32 1854.53 Q1441.39 1857.3 1440.94 1862.33 L1461.82 1862.29 Z" fill="#000000" fill-rule="evenodd" fill-opacity="1" /><path clip-path="url(#clip720)" d="M1512.08 1833.84 Q1507.82 1841.16 1505.75 1848.32 Q1503.68 1855.48 1503.68 1862.84 Q1503.68 1870.19 1505.75 1877.41 Q1507.85 1884.61 1512.08 1891.89 L1506.99 1891.89 Q1502.21 1884.41 1499.83 1877.19 Q1497.47 1869.96 1497.47 1862.84 Q1497.47 1855.74 1499.83 1848.54 Q1502.18 1841.35 1506.99 1833.84 L1512.08 1833.84 Z" fill="#000000" fill-rule="evenodd" fill-opacity="1" /><path clip-path="url(#clip720)" d="M1517.17 1835.78 L1524.08 1835.78 L1537.26 1855.32 L1550.34 1835.78 L1557.25 1835.78 L1540.44 1860.67 L1540.44 1883.3 L1533.98 1883.3 L1533.98 1860.67 L1517.17 1835.78 Z" fill="#000000" fill-rule="evenodd" fill-opacity="1" /><path clip-path="url(#clip720)" d="M1585.1 1864.01 L1585.1 1866.88 L1558.17 1866.88 Q1558.55 1872.92 1561.8 1876.11 Q1565.08 1879.26 1570.9 1879.26 Q1574.27 1879.26 1577.42 1878.43 Q1580.61 1877.6 1583.73 1875.95 L1583.73 1881.49 Q1580.58 1882.82 1577.27 1883.52 Q1573.96 1884.22 1570.55 1884.22 Q1562.02 1884.22 1557.02 1879.26 Q1552.06 1874.29 1552.06 1865.83 Q1552.06 1857.07 1556.77 1851.95 Q1561.51 1846.79 1569.53 1846.79 Q1576.72 1846.79 1580.89 1851.44 Q1585.1 1856.06 1585.1 1864.01 M1579.24 1862.29 Q1579.18 1857.49 1576.53 1854.62 Q1573.92 1851.76 1569.59 1851.76 Q1564.69 1851.76 1561.73 1854.53 Q1558.8 1857.3 1558.36 1862.33 L1579.24 1862.29 Z" fill="#000000" fill-rule="evenodd" fill-opacity="1" /><path clip-path="url(#clip720)" d="M1610.91 1865.38 Q1603.81 1865.38 1601.07 1867 Q1598.34 1868.63 1598.34 1872.54 Q1598.34 1875.66 1600.37 1877.51 Q1602.44 1879.32 1605.97 1879.32 Q1610.84 1879.32 1613.77 1875.88 Q1616.73 1872.42 1616.73 1866.69 L1616.73 1865.38 L1610.91 1865.38 M1622.59 1862.96 L1622.59 1883.3 L1616.73 1883.3 L1616.73 1877.89 Q1614.73 1881.14 1611.74 1882.7 Q1608.74 1884.22 1604.42 1884.22 Q1598.94 1884.22 1595.69 1881.17 Q1592.48 1878.08 1592.48 1872.92 Q1592.48 1866.91 1596.49 1863.85 Q1600.53 1860.8 1608.52 1860.8 L1616.73 1860.8 L1616.73 1860.23 Q1616.73 1856.18 1614.06 1853.99 Q1611.42 1851.76 1606.61 1851.76 Q1603.56 1851.76 1600.66 1852.49 Q1597.76 1853.22 1595.09 1854.69 L1595.09 1849.28 Q1598.3 1848.03 1601.33 1847.43 Q1604.35 1846.79 1607.22 1846.79 Q1614.95 1846.79 1618.77 1850.8 Q1622.59 1854.81 1622.59 1862.96 Z" fill="#000000" fill-rule="evenodd" fill-opacity="1" /><path clip-path="url(#clip720)" d="M1655.31 1853.13 Q1654.32 1852.55 1653.14 1852.3 Q1652 1852.01 1650.6 1852.01 Q1645.63 1852.01 1642.96 1855.26 Q1640.32 1858.47 1640.32 1864.52 L1640.32 1883.3 L1634.43 1883.3 L1634.43 1847.65 L1640.32 1847.65 L1640.32 1853.19 Q1642.16 1849.94 1645.12 1848.39 Q1648.08 1846.79 1652.32 1846.79 Q1652.92 1846.79 1653.65 1846.89 Q1654.39 1846.95 1655.28 1847.11 L1655.31 1853.13 Z" fill="#000000" fill-rule="evenodd" fill-opacity="1" /><path clip-path="url(#clip720)" d="M1660.53 1833.84 L1665.62 1833.84 Q1670.4 1841.35 1672.75 1848.54 Q1675.14 1855.74 1675.14 1862.84 Q1675.14 1869.96 1672.75 1877.19 Q1670.4 1884.41 1665.62 1891.89 L1660.53 1891.89 Q1664.76 1884.61 1666.83 1877.41 Q1668.93 1870.19 1668.93 1862.84 Q1668.93 1855.48 1666.83 1848.32 Q1664.76 1841.16 1660.53 1833.84 Z" fill="#000000" fill-rule="evenodd" fill-opacity="1" /><polyline clip-path="url(#clip722)" style="stroke:#000000; stroke-linecap:round; stroke-linejoin:round; stroke-width:2; stroke-opacity:0.1; fill:none" points="345.816,1688.65 2640.76,1688.65 "/>
<polyline clip-path="url(#clip722)" style="stroke:#000000; stroke-linecap:round; stroke-linejoin:round; stroke-width:2; stroke-opacity:0.1; fill:none" points="345.816,1291.08 2640.76,1291.08 "/>
<polyline clip-path="url(#clip722)" style="stroke:#000000; stroke-linecap:round; stroke-linejoin:round; stroke-width:2; stroke-opacity:0.1; fill:none" points="345.816,893.499 2640.76,893.499 "/>
<polyline clip-path="url(#clip722)" style="stroke:#000000; stroke-linecap:round; stroke-linejoin:round; stroke-width:2; stroke-opacity:0.1; fill:none" points="345.816,495.921 2640.76,495.921 "/>
<polyline clip-path="url(#clip720)" style="stroke:#000000; stroke-linecap:round; stroke-linejoin:round; stroke-width:4; stroke-opacity:1; fill:none" points="345.816,1734.12 345.816,127.792 "/>
<polyline clip-path="url(#clip720)" style="stroke:#000000; stroke-linecap:round; stroke-linejoin:round; stroke-width:4; stroke-opacity:1; fill:none" points="345.816,1688.65 364.713,1688.65 "/>
<polyline clip-path="url(#clip720)" style="stroke:#000000; stroke-linecap:round; stroke-linejoin:round; stroke-width:4; stroke-opacity:1; fill:none" points="345.816,1291.08 364.713,1291.08 "/>
<polyline clip-path="url(#clip720)" style="stroke:#000000; stroke-linecap:round; stroke-linejoin:round; stroke-width:4; stroke-opacity:1; fill:none" points="345.816,893.499 364.713,893.499 "/>
<polyline clip-path="url(#clip720)" style="stroke:#000000; stroke-linecap:round; stroke-linejoin:round; stroke-width:4; stroke-opacity:1; fill:none" points="345.816,495.921 364.713,495.921 "/>
<path clip-path="url(#clip720)" d="M293.551 1674.45 Q289.94 1674.45 288.112 1678.02 Q286.306 1681.56 286.306 1688.69 Q286.306 1695.8 288.112 1699.36 Q289.94 1702.9 293.551 1702.9 Q297.186 1702.9 298.991 1699.36 Q300.82 1695.8 300.82 1688.69 Q300.82 1681.56 298.991 1678.02 Q297.186 1674.45 293.551 1674.45 M293.551 1670.75 Q299.362 1670.75 302.417 1675.36 Q305.496 1679.94 305.496 1688.69 Q305.496 1697.42 302.417 1702.02 Q299.362 1706.61 293.551 1706.61 Q287.741 1706.61 284.663 1702.02 Q281.607 1697.42 281.607 1688.69 Q281.607 1679.94 284.663 1675.36 Q287.741 1670.75 293.551 1670.75 Z" fill="#000000" fill-rule="evenodd" fill-opacity="1" /><path clip-path="url(#clip720)" d="M118.622 1310.87 L126.261 1310.87 L126.261 1284.5 L117.951 1286.17 L117.951 1281.91 L126.214 1280.24 L130.89 1280.24 L130.89 1310.87 L138.529 1310.87 L138.529 1314.8 L118.622 1314.8 L118.622 1310.87 Z" fill="#000000" fill-rule="evenodd" fill-opacity="1" /><path clip-path="url(#clip720)" d="M147.974 1308.92 L152.858 1308.92 L152.858 1314.8 L147.974 1314.8 L147.974 1308.92 Z" fill="#000000" fill-rule="evenodd" fill-opacity="1" /><path clip-path="url(#clip720)" d="M173.043 1283.32 Q169.432 1283.32 167.603 1286.89 Q165.798 1290.43 165.798 1297.56 Q165.798 1304.67 167.603 1308.23 Q169.432 1311.77 173.043 1311.77 Q176.677 1311.77 178.483 1308.23 Q180.311 1304.67 180.311 1297.56 Q180.311 1290.43 178.483 1286.89 Q176.677 1283.32 173.043 1283.32 M173.043 1279.62 Q178.853 1279.62 181.909 1284.23 Q184.987 1288.81 184.987 1297.56 Q184.987 1306.29 181.909 1310.89 Q178.853 1315.48 173.043 1315.48 Q167.233 1315.48 164.154 1310.89 Q161.098 1306.29 161.098 1297.56 Q161.098 1288.81 164.154 1284.23 Q167.233 1279.62 173.043 1279.62 Z" fill="#000000" fill-rule="evenodd" fill-opacity="1" /><path clip-path="url(#clip720)" d="M221.376 1289.34 L210.797 1299.97 L221.376 1310.55 L218.621 1313.35 L207.996 1302.72 L197.371 1313.35 L194.64 1310.55 L205.195 1299.97 L194.64 1289.34 L197.371 1286.54 L207.996 1297.17 L218.621 1286.54 L221.376 1289.34 Z" fill="#000000" fill-rule="evenodd" fill-opacity="1" /><path clip-path="url(#clip720)" d="M233.737 1310.87 L241.376 1310.87 L241.376 1284.5 L233.066 1286.17 L233.066 1281.91 L241.33 1280.24 L246.005 1280.24 L246.005 1310.87 L253.644 1310.87 L253.644 1314.8 L233.737 1314.8 L233.737 1310.87 Z" fill="#000000" fill-rule="evenodd" fill-opacity="1" /><path clip-path="url(#clip720)" d="M273.089 1283.32 Q269.478 1283.32 267.649 1286.89 Q265.843 1290.43 265.843 1297.56 Q265.843 1304.67 267.649 1308.23 Q269.478 1311.77 273.089 1311.77 Q276.723 1311.77 278.528 1308.23 Q280.357 1304.67 280.357 1297.56 Q280.357 1290.43 278.528 1286.89 Q276.723 1283.32 273.089 1283.32 M273.089 1279.62 Q278.899 1279.62 281.954 1284.23 Q285.033 1288.81 285.033 1297.56 Q285.033 1306.29 281.954 1310.89 Q278.899 1315.48 273.089 1315.48 Q267.278 1315.48 264.2 1310.89 Q261.144 1306.29 261.144 1297.56 Q261.144 1288.81 264.2 1284.23 Q267.278 1279.62 273.089 1279.62 Z" fill="#000000" fill-rule="evenodd" fill-opacity="1" /><path clip-path="url(#clip720)" d="M297.709 1262.62 L288.117 1277.61 L297.709 1277.61 L297.709 1262.62 M296.713 1259.31 L301.49 1259.31 L301.49 1277.61 L305.496 1277.61 L305.496 1280.77 L301.49 1280.77 L301.49 1287.39 L297.709 1287.39 L297.709 1280.77 L285.033 1280.77 L285.033 1277.11 L296.713 1259.31 Z" fill="#000000" fill-rule="evenodd" fill-opacity="1" /><path clip-path="url(#clip720)" d="M121.839 913.291 L138.159 913.291 L138.159 917.226 L116.214 917.226 L116.214 913.291 Q118.876 910.537 123.46 905.907 Q128.066 901.254 129.247 899.912 Q131.492 897.389 132.372 895.652 Q133.275 893.893 133.275 892.203 Q133.275 889.449 131.33 887.713 Q129.409 885.977 126.307 885.977 Q124.108 885.977 121.654 886.74 Q119.224 887.504 116.446 889.055 L116.446 884.333 Q119.27 883.199 121.724 882.62 Q124.177 882.041 126.214 882.041 Q131.585 882.041 134.779 884.727 Q137.974 887.412 137.974 891.902 Q137.974 894.032 137.163 895.953 Q136.376 897.852 134.27 900.444 Q133.691 901.115 130.589 904.333 Q127.488 907.527 121.839 913.291 Z" fill="#000000" fill-rule="evenodd" fill-opacity="1" /><path clip-path="url(#clip720)" d="M147.974 911.347 L152.858 911.347 L152.858 917.226 L147.974 917.226 L147.974 911.347 Z" fill="#000000" fill-rule="evenodd" fill-opacity="1" /><path clip-path="url(#clip720)" d="M173.043 885.745 Q169.432 885.745 167.603 889.31 Q165.798 892.852 165.798 899.981 Q165.798 907.088 167.603 910.652 Q169.432 914.194 173.043 914.194 Q176.677 914.194 178.483 910.652 Q180.311 907.088 180.311 899.981 Q180.311 892.852 178.483 889.31 Q176.677 885.745 173.043 885.745 M173.043 882.041 Q178.853 882.041 181.909 886.648 Q184.987 891.231 184.987 899.981 Q184.987 908.708 181.909 913.314 Q178.853 917.898 173.043 917.898 Q167.233 917.898 164.154 913.314 Q161.098 908.708 161.098 899.981 Q161.098 891.231 164.154 886.648 Q167.233 882.041 173.043 882.041 Z" fill="#000000" fill-rule="evenodd" fill-opacity="1" /><path clip-path="url(#clip720)" d="M221.376 891.764 L210.797 902.389 L221.376 912.967 L218.621 915.768 L207.996 905.143 L197.371 915.768 L194.64 912.967 L205.195 902.389 L194.64 891.764 L197.371 888.963 L207.996 899.588 L218.621 888.963 L221.376 891.764 Z" fill="#000000" fill-rule="evenodd" fill-opacity="1" /><path clip-path="url(#clip720)" d="M233.737 913.291 L241.376 913.291 L241.376 886.926 L233.066 888.592 L233.066 884.333 L241.33 882.666 L246.005 882.666 L246.005 913.291 L253.644 913.291 L253.644 917.226 L233.737 917.226 L233.737 913.291 Z" fill="#000000" fill-rule="evenodd" fill-opacity="1" /><path clip-path="url(#clip720)" d="M273.089 885.745 Q269.478 885.745 267.649 889.31 Q265.843 892.852 265.843 899.981 Q265.843 907.088 267.649 910.652 Q269.478 914.194 273.089 914.194 Q276.723 914.194 278.528 910.652 Q280.357 907.088 280.357 899.981 Q280.357 892.852 278.528 889.31 Q276.723 885.745 273.089 885.745 M273.089 882.041 Q278.899 882.041 281.954 886.648 Q285.033 891.231 285.033 899.981 Q285.033 908.708 281.954 913.314 Q278.899 917.898 273.089 917.898 Q267.278 917.898 264.2 913.314 Q261.144 908.708 261.144 899.981 Q261.144 891.231 264.2 886.648 Q267.278 882.041 273.089 882.041 Z" fill="#000000" fill-rule="evenodd" fill-opacity="1" /><path clip-path="url(#clip720)" d="M297.709 865.046 L288.117 880.036 L297.709 880.036 L297.709 865.046 M296.713 861.736 L301.49 861.736 L301.49 880.036 L305.496 880.036 L305.496 883.196 L301.49 883.196 L301.49 889.816 L297.709 889.816 L297.709 883.196 L285.033 883.196 L285.033 879.528 L296.713 861.736 Z" fill="#000000" fill-rule="evenodd" fill-opacity="1" /><path clip-path="url(#clip720)" d="M131.978 501.014 Q135.335 501.732 137.21 504 Q139.108 506.269 139.108 509.602 Q139.108 514.718 135.589 517.519 Q132.071 520.32 125.589 520.32 Q123.413 520.32 121.099 519.88 Q118.807 519.463 116.353 518.607 L116.353 514.093 Q118.298 515.227 120.613 515.806 Q122.927 516.384 125.451 516.384 Q129.849 516.384 132.14 514.648 Q134.455 512.912 134.455 509.602 Q134.455 506.547 132.302 504.834 Q130.173 503.098 126.353 503.098 L122.326 503.098 L122.326 499.255 L126.538 499.255 Q129.988 499.255 131.816 497.889 Q133.645 496.5 133.645 493.908 Q133.645 491.246 131.747 489.834 Q129.872 488.399 126.353 488.399 Q124.432 488.399 122.233 488.815 Q120.034 489.232 117.395 490.111 L117.395 485.945 Q120.057 485.204 122.372 484.834 Q124.71 484.463 126.77 484.463 Q132.094 484.463 135.196 486.894 Q138.298 489.301 138.298 493.422 Q138.298 496.292 136.654 498.283 Q135.011 500.25 131.978 501.014 Z" fill="#000000" fill-rule="evenodd" fill-opacity="1" /><path clip-path="url(#clip720)" d="M147.974 513.769 L152.858 513.769 L152.858 519.648 L147.974 519.648 L147.974 513.769 Z" fill="#000000" fill-rule="evenodd" fill-opacity="1" /><path clip-path="url(#clip720)" d="M173.043 488.167 Q169.432 488.167 167.603 491.732 Q165.798 495.274 165.798 502.403 Q165.798 509.51 167.603 513.074 Q169.432 516.616 173.043 516.616 Q176.677 516.616 178.483 513.074 Q180.311 509.51 180.311 502.403 Q180.311 495.274 178.483 491.732 Q176.677 488.167 173.043 488.167 M173.043 484.463 Q178.853 484.463 181.909 489.07 Q184.987 493.653 184.987 502.403 Q184.987 511.13 181.909 515.736 Q178.853 520.32 173.043 520.32 Q167.233 520.32 164.154 515.736 Q161.098 511.13 161.098 502.403 Q161.098 493.653 164.154 489.07 Q167.233 484.463 173.043 484.463 Z" fill="#000000" fill-rule="evenodd" fill-opacity="1" /><path clip-path="url(#clip720)" d="M221.376 494.186 L210.797 504.81 L221.376 515.389 L218.621 518.19 L207.996 507.565 L197.371 518.19 L194.64 515.389 L205.195 504.81 L194.64 494.186 L197.371 491.385 L207.996 502.01 L218.621 491.385 L221.376 494.186 Z" fill="#000000" fill-rule="evenodd" fill-opacity="1" /><path clip-path="url(#clip720)" d="M233.737 515.713 L241.376 515.713 L241.376 489.348 L233.066 491.014 L233.066 486.755 L241.33 485.088 L246.005 485.088 L246.005 515.713 L253.644 515.713 L253.644 519.648 L233.737 519.648 L233.737 515.713 Z" fill="#000000" fill-rule="evenodd" fill-opacity="1" /><path clip-path="url(#clip720)" d="M273.089 488.167 Q269.478 488.167 267.649 491.732 Q265.843 495.274 265.843 502.403 Q265.843 509.51 267.649 513.074 Q269.478 516.616 273.089 516.616 Q276.723 516.616 278.528 513.074 Q280.357 509.51 280.357 502.403 Q280.357 495.274 278.528 491.732 Q276.723 488.167 273.089 488.167 M273.089 484.463 Q278.899 484.463 281.954 489.07 Q285.033 493.653 285.033 502.403 Q285.033 511.13 281.954 515.736 Q278.899 520.32 273.089 520.32 Q267.278 520.32 264.2 515.736 Q261.144 511.13 261.144 502.403 Q261.144 493.653 264.2 489.07 Q267.278 484.463 273.089 484.463 Z" fill="#000000" fill-rule="evenodd" fill-opacity="1" /><path clip-path="url(#clip720)" d="M297.709 467.468 L288.117 482.458 L297.709 482.458 L297.709 467.468 M296.713 464.158 L301.49 464.158 L301.49 482.458 L305.496 482.458 L305.496 485.618 L301.49 485.618 L301.49 492.238 L297.709 492.238 L297.709 485.618 L285.033 485.618 L285.033 481.95 L296.713 464.158 Z" fill="#000000" fill-rule="evenodd" fill-opacity="1" /><path clip-path="url(#clip720)" d="M14.1184 1699.15 L14.1184 1692.72 L61.6384 1692.72 L61.6384 1699.15 L14.1184 1699.15 Z" fill="#000000" fill-rule="evenodd" fill-opacity="1" /><path clip-path="url(#clip720)" d="M40.1224 1650.55 L61.6384 1650.55 L61.6384 1656.41 L40.3133 1656.41 Q35.2526 1656.41 32.7381 1658.38 Q30.2237 1660.35 30.2237 1664.3 Q30.2237 1669.04 33.2474 1671.78 Q36.2711 1674.52 41.491 1674.52 L61.6384 1674.52 L61.6384 1680.41 L25.9905 1680.41 L25.9905 1674.52 L31.5287 1674.52 Q28.314 1672.42 26.7225 1669.58 Q25.1311 1666.72 25.1311 1662.99 Q25.1311 1656.85 28.9505 1653.7 Q32.7381 1650.55 40.1224 1650.55 Z" fill="#000000" fill-rule="evenodd" fill-opacity="1" /><path clip-path="url(#clip720)" d="M27.3591 1613.22 L32.8336 1613.22 Q31.465 1615.7 30.7966 1618.21 Q30.0964 1620.69 30.0964 1623.24 Q30.0964 1628.94 33.7248 1632.09 Q37.3214 1635.24 43.8463 1635.24 Q50.3711 1635.24 53.9996 1632.09 Q57.5962 1628.94 57.5962 1623.24 Q57.5962 1620.69 56.9278 1618.21 Q56.2276 1615.7 54.859 1613.22 L60.2698 1613.22 Q61.4156 1615.67 61.9886 1618.31 Q62.5615 1620.92 62.5615 1623.88 Q62.5615 1631.93 57.5007 1636.67 Q52.44 1641.42 43.8463 1641.42 Q35.1253 1641.42 30.1282 1636.64 Q25.1311 1631.83 25.1311 1623.5 Q25.1311 1620.79 25.704 1618.21 Q26.2451 1615.63 27.3591 1613.22 Z" fill="#000000" fill-rule="evenodd" fill-opacity="1" /><path clip-path="url(#clip720)" d="M31.465 1582.37 Q30.8921 1583.36 30.6375 1584.54 Q30.351 1585.68 30.351 1587.08 Q30.351 1592.05 33.5975 1594.72 Q36.8122 1597.36 42.8596 1597.36 L61.6384 1597.36 L61.6384 1603.25 L25.9905 1603.25 L25.9905 1597.36 L31.5287 1597.36 Q28.2821 1595.52 26.7225 1592.56 Q25.1311 1589.6 25.1311 1585.37 Q25.1311 1584.76 25.2266 1584.03 Q25.2903 1583.3 25.4494 1582.41 L31.465 1582.37 Z" fill="#000000" fill-rule="evenodd" fill-opacity="1" /><path clip-path="url(#clip720)" d="M42.3504 1547.17 L45.2149 1547.17 L45.2149 1574.1 Q51.2623 1573.72 54.4452 1570.47 Q57.5962 1567.19 57.5962 1561.37 Q57.5962 1557.99 56.7687 1554.84 Q55.9411 1551.66 54.2861 1548.54 L59.8242 1548.54 Q61.161 1551.69 61.8612 1555 Q62.5615 1558.31 62.5615 1561.72 Q62.5615 1570.25 57.5962 1575.24 Q52.631 1580.21 44.1646 1580.21 Q35.4117 1580.21 30.2873 1575.5 Q25.1311 1570.76 25.1311 1562.74 Q25.1311 1555.54 29.7781 1551.37 Q34.3932 1547.17 42.3504 1547.17 M40.6316 1553.03 Q35.8255 1553.09 32.9609 1555.73 Q30.0964 1558.34 30.0964 1562.67 Q30.0964 1567.57 32.8654 1570.53 Q35.6345 1573.46 40.6634 1573.91 L40.6316 1553.03 Z" fill="#000000" fill-rule="evenodd" fill-opacity="1" /><path clip-path="url(#clip720)" d="M43.719 1521.36 Q43.719 1528.46 45.3422 1531.19 Q46.9655 1533.93 50.8804 1533.93 Q53.9996 1533.93 55.8457 1531.89 Q57.6599 1529.82 57.6599 1526.29 Q57.6599 1521.42 54.2224 1518.49 Q50.7531 1515.53 45.0239 1515.53 L43.719 1515.53 L43.719 1521.36 M41.3 1509.68 L61.6384 1509.68 L61.6384 1515.53 L56.2276 1515.53 Q59.4741 1517.54 61.0337 1520.53 Q62.5615 1523.52 62.5615 1527.85 Q62.5615 1533.33 59.5059 1536.57 Q56.4186 1539.79 51.2623 1539.79 Q45.2467 1539.79 42.1912 1535.78 Q39.1357 1531.73 39.1357 1523.75 L39.1357 1515.53 L38.5628 1515.53 Q34.5205 1515.53 32.3244 1518.21 Q30.0964 1520.85 30.0964 1525.65 Q30.0964 1528.71 30.8284 1531.61 Q31.5605 1534.5 33.0246 1537.18 L27.6137 1537.18 Q26.3724 1533.96 25.7677 1530.94 Q25.1311 1527.91 25.1311 1525.05 Q25.1311 1517.32 29.1415 1513.5 Q33.1519 1509.68 41.3 1509.68 Z" fill="#000000" fill-rule="evenodd" fill-opacity="1" /><path clip-path="url(#clip720)" d="M32.8336 1469.86 Q28.8869 1467.66 27.009 1464.61 Q25.1311 1461.55 25.1311 1457.41 Q25.1311 1451.84 29.046 1448.82 Q32.9291 1445.8 40.1224 1445.8 L61.6384 1445.8 L61.6384 1451.69 L40.3133 1451.69 Q35.1889 1451.69 32.7063 1453.5 Q30.2237 1455.31 30.2237 1459.04 Q30.2237 1463.59 33.2474 1466.23 Q36.2711 1468.87 41.491 1468.87 L61.6384 1468.87 L61.6384 1474.76 L40.3133 1474.76 Q35.1571 1474.76 32.7063 1476.58 Q30.2237 1478.39 30.2237 1482.18 Q30.2237 1486.66 33.2792 1489.31 Q36.3029 1491.95 41.491 1491.95 L61.6384 1491.95 L61.6384 1497.84 L25.9905 1497.84 L25.9905 1491.95 L31.5287 1491.95 Q28.2503 1489.94 26.6907 1487.14 Q25.1311 1484.34 25.1311 1480.49 Q25.1311 1476.61 27.1045 1473.9 Q29.0779 1471.16 32.8336 1469.86 Z" fill="#000000" fill-rule="evenodd" fill-opacity="1" /><path clip-path="url(#clip720)" d="M42.3504 1403.62 L45.2149 1403.62 L45.2149 1430.55 Q51.2623 1430.17 54.4452 1426.92 Q57.5962 1423.64 57.5962 1417.82 Q57.5962 1414.45 56.7687 1411.29 Q55.9411 1408.11 54.2861 1404.99 L59.8242 1404.99 Q61.161 1408.14 61.8612 1411.45 Q62.5615 1414.76 62.5615 1418.17 Q62.5615 1426.7 57.5962 1431.7 Q52.631 1436.66 44.1646 1436.66 Q35.4117 1436.66 30.2873 1431.95 Q25.1311 1427.21 25.1311 1419.19 Q25.1311 1412 29.7781 1407.83 Q34.3932 1403.62 42.3504 1403.62 M40.6316 1409.48 Q35.8255 1409.54 32.9609 1412.19 Q30.0964 1414.8 30.0964 1419.12 Q30.0964 1424.03 32.8654 1426.99 Q35.6345 1429.91 40.6634 1430.36 L40.6316 1409.48 Z" fill="#000000" fill-rule="evenodd" fill-opacity="1" /><path clip-path="url(#clip720)" d="M40.1224 1364.38 L61.6384 1364.38 L61.6384 1370.24 L40.3133 1370.24 Q35.2526 1370.24 32.7381 1372.21 Q30.2237 1374.18 30.2237 1378.13 Q30.2237 1382.87 33.2474 1385.61 Q36.2711 1388.35 41.491 1388.35 L61.6384 1388.35 L61.6384 1394.23 L25.9905 1394.23 L25.9905 1388.35 L31.5287 1388.35 Q28.314 1386.25 26.7225 1383.41 Q25.1311 1380.55 25.1311 1376.82 Q25.1311 1370.68 28.9505 1367.53 Q32.7381 1364.38 40.1224 1364.38 Z" fill="#000000" fill-rule="evenodd" fill-opacity="1" /><path clip-path="url(#clip720)" d="M15.869 1346.91 L25.9905 1346.91 L25.9905 1334.84 L30.542 1334.84 L30.542 1346.91 L49.8937 1346.91 Q54.2542 1346.91 55.4955 1345.73 Q56.7368 1344.52 56.7368 1340.86 L56.7368 1334.84 L61.6384 1334.84 L61.6384 1340.86 Q61.6384 1347.64 59.124 1350.22 Q56.5777 1352.79 49.8937 1352.79 L30.542 1352.79 L30.542 1357.09 L25.9905 1357.09 L25.9905 1352.79 L15.869 1352.79 L15.869 1346.91 Z" fill="#000000" fill-rule="evenodd" fill-opacity="1" /><path clip-path="url(#clip720)" d="M43.719 1310.94 Q43.719 1318.04 45.3422 1320.77 Q46.9655 1323.51 50.8804 1323.51 Q53.9996 1323.51 55.8457 1321.47 Q57.6599 1319.41 57.6599 1315.87 Q57.6599 1311 54.2224 1308.07 Q50.7531 1305.11 45.0239 1305.11 L43.719 1305.11 L43.719 1310.94 M41.3 1299.26 L61.6384 1299.26 L61.6384 1305.11 L56.2276 1305.11 Q59.4741 1307.12 61.0337 1310.11 Q62.5615 1313.1 62.5615 1317.43 Q62.5615 1322.91 59.5059 1326.15 Q56.4186 1329.37 51.2623 1329.37 Q45.2467 1329.37 42.1912 1325.36 Q39.1357 1321.32 39.1357 1313.33 L39.1357 1305.11 L38.5628 1305.11 Q34.5205 1305.11 32.3244 1307.79 Q30.0964 1310.43 30.0964 1315.24 Q30.0964 1318.29 30.8284 1321.19 Q31.5605 1324.08 33.0246 1326.76 L27.6137 1326.76 Q26.3724 1323.54 25.7677 1320.52 Q25.1311 1317.5 25.1311 1314.63 Q25.1311 1306.9 29.1415 1303.08 Q33.1519 1299.26 41.3 1299.26 Z" fill="#000000" fill-rule="evenodd" fill-opacity="1" /><path clip-path="url(#clip720)" d="M12.1132 1287.2 L12.1132 1281.34 L61.6384 1281.34 L61.6384 1287.2 L12.1132 1287.2 Z" fill="#000000" fill-rule="evenodd" fill-opacity="1" /><path clip-path="url(#clip720)" d="M40.1224 1218.73 L61.6384 1218.73 L61.6384 1224.59 L40.3133 1224.59 Q35.2526 1224.59 32.7381 1226.56 Q30.2237 1228.54 30.2237 1232.48 Q30.2237 1237.22 33.2474 1239.96 Q36.2711 1242.7 41.491 1242.7 L61.6384 1242.7 L61.6384 1248.59 L12.1132 1248.59 L12.1132 1242.7 L31.5287 1242.7 Q28.314 1240.6 26.7225 1237.77 Q25.1311 1234.9 25.1311 1231.18 Q25.1311 1225.03 28.9505 1221.88 Q32.7381 1218.73 40.1224 1218.73 Z" fill="#000000" fill-rule="evenodd" fill-opacity="1" /><path clip-path="url(#clip720)" d="M42.3504 1176.56 L45.2149 1176.56 L45.2149 1203.49 Q51.2623 1203.1 54.4452 1199.86 Q57.5962 1196.58 57.5962 1190.75 Q57.5962 1187.38 56.7687 1184.23 Q55.9411 1181.05 54.2861 1177.93 L59.8242 1177.93 Q61.161 1181.08 61.8612 1184.39 Q62.5615 1187.7 62.5615 1191.11 Q62.5615 1199.64 57.5962 1204.63 Q52.631 1209.6 44.1646 1209.6 Q35.4117 1209.6 30.2873 1204.89 Q25.1311 1200.14 25.1311 1192.12 Q25.1311 1184.93 29.7781 1180.76 Q34.3932 1176.56 42.3504 1176.56 M40.6316 1182.42 Q35.8255 1182.48 32.9609 1185.12 Q30.0964 1187.73 30.0964 1192.06 Q30.0964 1196.96 32.8654 1199.92 Q35.6345 1202.85 40.6634 1203.3 L40.6316 1182.42 Z" fill="#000000" fill-rule="evenodd" fill-opacity="1" /><path clip-path="url(#clip720)" d="M43.719 1150.75 Q43.719 1157.84 45.3422 1160.58 Q46.9655 1163.32 50.8804 1163.32 Q53.9996 1163.32 55.8457 1161.28 Q57.6599 1159.21 57.6599 1155.68 Q57.6599 1150.81 54.2224 1147.88 Q50.7531 1144.92 45.0239 1144.92 L43.719 1144.92 L43.719 1150.75 M41.3 1139.07 L61.6384 1139.07 L61.6384 1144.92 L56.2276 1144.92 Q59.4741 1146.93 61.0337 1149.92 Q62.5615 1152.91 62.5615 1157.24 Q62.5615 1162.71 59.5059 1165.96 Q56.4186 1169.18 51.2623 1169.18 Q45.2467 1169.18 42.1912 1165.16 Q39.1357 1161.12 39.1357 1153.13 L39.1357 1144.92 L38.5628 1144.92 Q34.5205 1144.92 32.3244 1147.6 Q30.0964 1150.24 30.0964 1155.04 Q30.0964 1158.1 30.8284 1161 Q31.5605 1163.89 33.0246 1166.57 L27.6137 1166.57 Q26.3724 1163.35 25.7677 1160.33 Q25.1311 1157.3 25.1311 1154.44 Q25.1311 1146.7 29.1415 1142.88 Q33.1519 1139.07 41.3 1139.07 Z" fill="#000000" fill-rule="evenodd" fill-opacity="1" /><path clip-path="url(#clip720)" d="M15.869 1121.21 L25.9905 1121.21 L25.9905 1109.15 L30.542 1109.15 L30.542 1121.21 L49.8937 1121.21 Q54.2542 1121.21 55.4955 1120.03 Q56.7368 1118.82 56.7368 1115.16 L56.7368 1109.15 L61.6384 1109.15 L61.6384 1115.16 Q61.6384 1121.94 59.124 1124.52 Q56.5777 1127.1 49.8937 1127.1 L30.542 1127.1 L30.542 1131.39 L25.9905 1131.39 L25.9905 1127.1 L15.869 1127.1 L15.869 1121.21 Z" fill="#000000" fill-rule="evenodd" fill-opacity="1" /><path clip-path="url(#clip720)" d="M12.1132 1080.72 L12.1132 1074.87 L61.6384 1074.87 L61.6384 1080.72 L12.1132 1080.72 Z" fill="#000000" fill-rule="evenodd" fill-opacity="1" /><path clip-path="url(#clip720)" d="M30.0964 1048.8 Q30.0964 1053.51 33.7885 1056.25 Q37.4488 1058.98 43.8463 1058.98 Q50.2438 1058.98 53.9359 1056.28 Q57.5962 1053.54 57.5962 1048.8 Q57.5962 1044.12 53.9041 1041.38 Q50.212 1038.65 43.8463 1038.65 Q37.5124 1038.65 33.8203 1041.38 Q30.0964 1044.12 30.0964 1048.8 M25.1311 1048.8 Q25.1311 1041.16 30.0964 1036.8 Q35.0616 1032.44 43.8463 1032.44 Q52.5991 1032.44 57.5962 1036.8 Q62.5615 1041.16 62.5615 1048.8 Q62.5615 1056.47 57.5962 1060.83 Q52.5991 1065.16 43.8463 1065.16 Q35.0616 1065.16 30.0964 1060.83 Q25.1311 1056.47 25.1311 1048.8 Z" fill="#000000" fill-rule="evenodd" fill-opacity="1" /><path clip-path="url(#clip720)" d="M27.0408 1000.01 L32.579 1000.01 Q31.3059 1002.49 30.6693 1005.16 Q30.0327 1007.84 30.0327 1010.7 Q30.0327 1015.06 31.3695 1017.26 Q32.7063 1019.42 35.3799 1019.42 Q37.4169 1019.42 38.5946 1017.86 Q39.7404 1016.3 40.7908 1011.59 L41.2364 1009.59 Q42.5732 1003.35 45.0239 1000.74 Q47.4429 998.097 51.8034 998.097 Q56.7687 998.097 59.6651 1002.04 Q62.5615 1005.96 62.5615 1012.83 Q62.5615 1015.7 61.9886 1018.82 Q61.4475 1021.9 60.3335 1025.34 L54.2861 1025.34 Q55.973 1022.1 56.8323 1018.94 Q57.6599 1015.79 57.6599 1012.71 Q57.6599 1008.57 56.2594 1006.34 Q54.8271 1004.11 52.249 1004.11 Q49.8619 1004.11 48.5887 1005.74 Q47.3156 1007.33 46.1379 1012.77 L45.6605 1014.81 Q44.5147 1020.25 42.1594 1022.67 Q39.7722 1025.09 35.6345 1025.09 Q30.6056 1025.09 27.8684 1021.52 Q25.1311 1017.96 25.1311 1011.4 Q25.1311 1008.15 25.6085 1005.29 Q26.086 1002.43 27.0408 1000.01 Z" fill="#000000" fill-rule="evenodd" fill-opacity="1" /><path clip-path="url(#clip720)" d="M27.0408 966.046 L32.579 966.046 Q31.3059 968.528 30.6693 971.202 Q30.0327 973.875 30.0327 976.74 Q30.0327 981.1 31.3695 983.297 Q32.7063 985.461 35.3799 985.461 Q37.4169 985.461 38.5946 983.901 Q39.7404 982.342 40.7908 977.631 L41.2364 975.626 Q42.5732 969.388 45.0239 966.778 Q47.4429 964.136 51.8034 964.136 Q56.7687 964.136 59.6651 968.083 Q62.5615 971.997 62.5615 978.872 Q62.5615 981.737 61.9886 984.856 Q61.4475 987.944 60.3335 991.381 L54.2861 991.381 Q55.973 988.135 56.8323 984.983 Q57.6599 981.832 57.6599 978.745 Q57.6599 974.607 56.2594 972.379 Q54.8271 970.151 52.249 970.151 Q49.8619 970.151 48.5887 971.775 Q47.3156 973.366 46.1379 978.809 L45.6605 980.846 Q44.5147 986.288 42.1594 988.707 Q39.7722 991.126 35.6345 991.126 Q30.6056 991.126 27.8684 987.562 Q25.1311 983.997 25.1311 977.44 Q25.1311 974.194 25.6085 971.329 Q26.086 968.464 27.0408 966.046 Z" fill="#000000" fill-rule="evenodd" fill-opacity="1" /><path clip-path="url(#clip720)" d="M15.869 928.297 L25.9905 928.297 L25.9905 916.234 L30.542 916.234 L30.542 928.297 L49.8937 928.297 Q54.2542 928.297 55.4955 927.119 Q56.7368 925.91 56.7368 922.249 L56.7368 916.234 L61.6384 916.234 L61.6384 922.249 Q61.6384 929.029 59.124 931.607 Q56.5777 934.185 49.8937 934.185 L30.542 934.185 L30.542 938.482 L25.9905 938.482 L25.9905 934.185 L15.869 934.185 L15.869 928.297 Z" fill="#000000" fill-rule="evenodd" fill-opacity="1" /><path clip-path="url(#clip720)" d="M30.0964 894.718 Q30.0964 899.428 33.7885 902.166 Q37.4488 904.903 43.8463 904.903 Q50.2438 904.903 53.9359 902.197 Q57.5962 899.46 57.5962 894.718 Q57.5962 890.039 53.9041 887.302 Q50.212 884.564 43.8463 884.564 Q37.5124 884.564 33.8203 887.302 Q30.0964 890.039 30.0964 894.718 M25.1311 894.718 Q25.1311 887.079 30.0964 882.718 Q35.0616 878.358 43.8463 878.358 Q52.5991 878.358 57.5962 882.718 Q62.5615 887.079 62.5615 894.718 Q62.5615 902.388 57.5962 906.749 Q52.5991 911.078 43.8463 911.078 Q35.0616 911.078 30.0964 906.749 Q25.1311 902.388 25.1311 894.718 Z" fill="#000000" fill-rule="evenodd" fill-opacity="1" /><path clip-path="url(#clip720)" d="M30.0964 834.116 Q30.0964 838.827 33.7885 841.564 Q37.4488 844.301 43.8463 844.301 Q50.2438 844.301 53.9359 841.596 Q57.5962 838.859 57.5962 834.116 Q57.5962 829.437 53.9041 826.7 Q50.212 823.963 43.8463 823.963 Q37.5124 823.963 33.8203 826.7 Q30.0964 829.437 30.0964 834.116 M25.1311 834.116 Q25.1311 826.477 30.0964 822.117 Q35.0616 817.756 43.8463 817.756 Q52.5991 817.756 57.5962 822.117 Q62.5615 826.477 62.5615 834.116 Q62.5615 841.787 57.5962 846.147 Q52.5991 850.476 43.8463 850.476 Q35.0616 850.476 30.0964 846.147 Q25.1311 841.787 25.1311 834.116 Z" fill="#000000" fill-rule="evenodd" fill-opacity="1" /><path clip-path="url(#clip720)" d="M25.9905 812.25 L25.9905 806.043 L55.9093 794.903 L25.9905 783.764 L25.9905 777.557 L61.6384 790.925 L61.6384 798.882 L25.9905 812.25 Z" fill="#000000" fill-rule="evenodd" fill-opacity="1" /><path clip-path="url(#clip720)" d="M42.3504 738.981 L45.2149 738.981 L45.2149 765.908 Q51.2623 765.526 54.4452 762.279 Q57.5962 759.001 57.5962 753.176 Q57.5962 749.802 56.7687 746.651 Q55.9411 743.469 54.2861 740.349 L59.8242 740.349 Q61.161 743.5 61.8612 746.811 Q62.5615 750.121 62.5615 753.526 Q62.5615 762.056 57.5962 767.054 Q52.631 772.019 44.1646 772.019 Q35.4117 772.019 30.2873 767.308 Q25.1311 762.566 25.1311 754.545 Q25.1311 747.352 29.7781 743.182 Q34.3932 738.981 42.3504 738.981 M40.6316 744.837 Q35.8255 744.901 32.9609 747.543 Q30.0964 750.153 30.0964 754.481 Q30.0964 759.383 32.8654 762.343 Q35.6345 765.271 40.6634 765.717 L40.6316 744.837 Z" fill="#000000" fill-rule="evenodd" fill-opacity="1" /><path clip-path="url(#clip720)" d="M31.465 708.712 Q30.8921 709.699 30.6375 710.876 Q30.351 712.022 30.351 713.422 Q30.351 718.388 33.5975 721.061 Q36.8122 723.703 42.8596 723.703 L61.6384 723.703 L61.6384 729.591 L25.9905 729.591 L25.9905 723.703 L31.5287 723.703 Q28.2821 721.857 26.7225 718.897 Q25.1311 715.937 25.1311 711.704 Q25.1311 711.099 25.2266 710.367 Q25.2903 709.635 25.4494 708.744 L31.465 708.712 Z" fill="#000000" fill-rule="evenodd" fill-opacity="1" /><path clip-path="url(#clip720)" d="M43.8463 676.979 Q37.3851 676.979 33.7248 679.652 Q30.0327 682.294 30.0327 686.941 Q30.0327 691.588 33.7248 694.262 Q37.3851 696.903 43.8463 696.903 Q50.3075 696.903 53.9996 694.262 Q57.6599 691.588 57.6599 686.941 Q57.6599 682.294 53.9996 679.652 Q50.3075 676.979 43.8463 676.979 M31.4013 696.903 Q28.2185 695.057 26.6907 692.256 Q25.1311 689.424 25.1311 685.509 Q25.1311 679.016 30.2873 674.974 Q35.4436 670.9 43.8463 670.9 Q52.249 670.9 57.4052 674.974 Q62.5615 679.016 62.5615 685.509 Q62.5615 689.424 61.0337 692.256 Q59.4741 695.057 56.2912 696.903 L61.6384 696.903 L61.6384 702.792 L12.1132 702.792 L12.1132 696.903 L31.4013 696.903 Z" fill="#000000" fill-rule="evenodd" fill-opacity="1" /><path clip-path="url(#clip720)" d="M47.5702 661.797 L25.9905 661.797 L25.9905 655.94 L47.3474 655.94 Q52.4082 655.94 54.9545 653.967 Q57.4689 651.993 57.4689 648.047 Q57.4689 643.304 54.4452 640.567 Q51.4215 637.798 46.2016 637.798 L25.9905 637.798 L25.9905 631.941 L61.6384 631.941 L61.6384 637.798 L56.1639 637.798 Q59.4104 639.93 61.0019 642.763 Q62.5615 645.564 62.5615 649.288 Q62.5615 655.431 58.742 658.614 Q54.9226 661.797 47.5702 661.797 M25.1311 647.06 L25.1311 647.06 Z" fill="#000000" fill-rule="evenodd" fill-opacity="1" /><path clip-path="url(#clip720)" d="M31.465 599.222 Q30.8921 600.208 30.6375 601.386 Q30.351 602.532 30.351 603.932 Q30.351 608.898 33.5975 611.571 Q36.8122 614.213 42.8596 614.213 L61.6384 614.213 L61.6384 620.101 L25.9905 620.101 L25.9905 614.213 L31.5287 614.213 Q28.2821 612.367 26.7225 609.407 Q25.1311 606.447 25.1311 602.214 Q25.1311 601.609 25.2266 600.877 Q25.2903 600.145 25.4494 599.253 L31.465 599.222 Z" fill="#000000" fill-rule="evenodd" fill-opacity="1" /><path clip-path="url(#clip720)" d="M31.4013 570.767 L12.1132 570.767 L12.1132 564.911 L61.6384 564.911 L61.6384 570.767 L56.2912 570.767 Q59.4741 572.613 61.0337 575.446 Q62.5615 578.247 62.5615 582.193 Q62.5615 588.655 57.4052 592.729 Q52.249 596.771 43.8463 596.771 Q35.4436 596.771 30.2873 592.729 Q25.1311 588.655 25.1311 582.193 Q25.1311 578.247 26.6907 575.446 Q28.2185 572.613 31.4013 570.767 M43.8463 590.723 Q50.3075 590.723 53.9996 588.082 Q57.6599 585.408 57.6599 580.761 Q57.6599 576.114 53.9996 573.441 Q50.3075 570.767 43.8463 570.767 Q37.3851 570.767 33.7248 573.441 Q30.0327 576.114 30.0327 580.761 Q30.0327 585.408 33.7248 588.082 Q37.3851 590.723 43.8463 590.723 Z" fill="#000000" fill-rule="evenodd" fill-opacity="1" /><path clip-path="url(#clip720)" d="M42.3504 522.356 L45.2149 522.356 L45.2149 549.283 Q51.2623 548.901 54.4452 545.654 Q57.5962 542.376 57.5962 536.551 Q57.5962 533.177 56.7687 530.026 Q55.9411 526.844 54.2861 523.724 L59.8242 523.724 Q61.161 526.875 61.8612 530.186 Q62.5615 533.496 62.5615 536.901 Q62.5615 545.431 57.5962 550.429 Q52.631 555.394 44.1646 555.394 Q35.4117 555.394 30.2873 550.683 Q25.1311 545.941 25.1311 537.92 Q25.1311 530.727 29.7781 526.557 Q34.3932 522.356 42.3504 522.356 M40.6316 528.212 Q35.8255 528.276 32.9609 530.918 Q30.0964 533.528 30.0964 537.856 Q30.0964 542.758 32.8654 545.718 Q35.6345 548.646 40.6634 549.092 L40.6316 528.212 Z" fill="#000000" fill-rule="evenodd" fill-opacity="1" /><path clip-path="url(#clip720)" d="M40.1224 483.111 L61.6384 483.111 L61.6384 488.968 L40.3133 488.968 Q35.2526 488.968 32.7381 490.941 Q30.2237 492.914 30.2237 496.861 Q30.2237 501.604 33.2474 504.341 Q36.2711 507.078 41.491 507.078 L61.6384 507.078 L61.6384 512.966 L25.9905 512.966 L25.9905 507.078 L31.5287 507.078 Q28.314 504.977 26.7225 502.145 Q25.1311 499.28 25.1311 495.556 Q25.1311 489.413 28.9505 486.262 Q32.7381 483.111 40.1224 483.111 Z" fill="#000000" fill-rule="evenodd" fill-opacity="1" /><path clip-path="url(#clip720)" d="M12.1769 436.642 Q19.4975 440.907 26.6589 442.975 Q33.8203 445.044 41.1727 445.044 Q48.5251 445.044 55.7502 442.975 Q62.9434 440.875 70.2321 436.642 L70.2321 441.734 Q62.7524 446.508 55.5274 448.896 Q48.3023 451.251 41.1727 451.251 Q34.0749 451.251 26.8817 448.896 Q19.6884 446.54 12.1769 441.734 L12.1769 436.642 Z" fill="#000000" fill-rule="evenodd" fill-opacity="1" /><path clip-path="url(#clip720)" d="M14.1184 425.024 L14.1184 415.444 L46.4562 403.317 L14.1184 391.127 L14.1184 381.546 L61.6384 381.546 L61.6384 387.817 L19.9112 387.817 L52.5037 400.071 L52.5037 406.532 L19.9112 418.786 L61.6384 418.786 L61.6384 425.024 L14.1184 425.024 Z" fill="#000000" fill-rule="evenodd" fill-opacity="1" /><path clip-path="url(#clip720)" d="M14.1184 368.783 L14.1184 362.354 L58.3283 362.354 Q66.922 362.354 70.8051 365.632 Q74.6881 368.879 74.6881 376.104 L74.6881 378.554 L69.2773 378.554 L69.2773 376.549 Q69.2773 372.284 66.8902 370.534 Q64.503 368.783 58.3283 368.783 L14.1184 368.783 Z" fill="#000000" fill-rule="evenodd" fill-opacity="1" /><path clip-path="url(#clip720)" d="M30.0964 336 Q30.0964 340.71 33.7885 343.448 Q37.4488 346.185 43.8463 346.185 Q50.2438 346.185 53.9359 343.479 Q57.5962 340.742 57.5962 336 Q57.5962 331.321 53.9041 328.584 Q50.212 325.846 43.8463 325.846 Q37.5124 325.846 33.8203 328.584 Q30.0964 331.321 30.0964 336 M25.1311 336 Q25.1311 328.361 30.0964 324 Q35.0616 319.64 43.8463 319.64 Q52.5991 319.64 57.5962 324 Q62.5615 328.361 62.5615 336 Q62.5615 343.67 57.5962 348.031 Q52.5991 352.36 43.8463 352.36 Q35.0616 352.36 30.0964 348.031 Q25.1311 343.67 25.1311 336 Z" fill="#000000" fill-rule="evenodd" fill-opacity="1" /><path clip-path="url(#clip720)" d="M47.5702 310.537 L25.9905 310.537 L25.9905 304.68 L47.3474 304.68 Q52.4082 304.68 54.9545 302.707 Q57.4689 300.734 57.4689 296.787 Q57.4689 292.044 54.4452 289.307 Q51.4215 286.538 46.2016 286.538 L25.9905 286.538 L25.9905 280.682 L61.6384 280.682 L61.6384 286.538 L56.1639 286.538 Q59.4104 288.671 61.0019 291.503 Q62.5615 294.304 62.5615 298.028 Q62.5615 304.171 58.742 307.354 Q54.9226 310.537 47.5702 310.537 M25.1311 295.8 L25.1311 295.8 Z" fill="#000000" fill-rule="evenodd" fill-opacity="1" /><path clip-path="url(#clip720)" d="M12.1132 268.619 L12.1132 262.762 L61.6384 262.762 L61.6384 268.619 L12.1132 268.619 Z" fill="#000000" fill-rule="evenodd" fill-opacity="1" /><path clip-path="url(#clip720)" d="M42.3504 220.017 L45.2149 220.017 L45.2149 246.943 Q51.2623 246.562 54.4452 243.315 Q57.5962 240.037 57.5962 234.212 Q57.5962 230.838 56.7687 227.687 Q55.9411 224.504 54.2861 221.385 L59.8242 221.385 Q61.161 224.536 61.8612 227.846 Q62.5615 231.157 62.5615 234.562 Q62.5615 243.092 57.5962 248.089 Q52.631 253.055 44.1646 253.055 Q35.4117 253.055 30.2873 248.344 Q25.1311 243.601 25.1311 235.581 Q25.1311 228.387 29.7781 224.218 Q34.3932 220.017 42.3504 220.017 M40.6316 225.873 Q35.8255 225.937 32.9609 228.578 Q30.0964 231.188 30.0964 235.517 Q30.0964 240.419 32.8654 243.379 Q35.6345 246.307 40.6634 246.752 L40.6316 225.873 Z" fill="#000000" fill-rule="evenodd" fill-opacity="1" /><path clip-path="url(#clip720)" d="M27.0408 187.679 L32.579 187.679 Q31.3059 190.161 30.6693 192.835 Q30.0327 195.509 30.0327 198.373 Q30.0327 202.734 31.3695 204.93 Q32.7063 207.094 35.3799 207.094 Q37.4169 207.094 38.5946 205.535 Q39.7404 203.975 40.7908 199.264 L41.2364 197.259 Q42.5732 191.021 45.0239 188.411 Q47.4429 185.769 51.8034 185.769 Q56.7687 185.769 59.6651 189.716 Q62.5615 193.631 62.5615 200.506 Q62.5615 203.37 61.9886 206.489 Q61.4475 209.577 60.3335 213.014 L54.2861 213.014 Q55.973 209.768 56.8323 206.617 Q57.6599 203.466 57.6599 200.378 Q57.6599 196.241 56.2594 194.013 Q54.8271 191.785 52.249 191.785 Q49.8619 191.785 48.5887 193.408 Q47.3156 194.999 46.1379 200.442 L45.6605 202.479 Q44.5147 207.922 42.1594 210.341 Q39.7722 212.76 35.6345 212.76 Q30.6056 212.76 27.8684 209.195 Q25.1311 205.63 25.1311 199.073 Q25.1311 195.827 25.6085 192.962 Q26.086 190.098 27.0408 187.679 Z" fill="#000000" fill-rule="evenodd" fill-opacity="1" /><path clip-path="url(#clip720)" d="M12.1769 177.366 L12.1769 172.274 Q19.6884 167.499 26.8817 165.144 Q34.0749 162.757 41.1727 162.757 Q48.3023 162.757 55.5274 165.144 Q62.7524 167.499 70.2321 172.274 L70.2321 177.366 Q62.9434 173.133 55.7502 171.064 Q48.5251 168.964 41.1727 168.964 Q33.8203 168.964 26.6589 171.064 Q19.4975 173.133 12.1769 177.366 Z" fill="#000000" fill-rule="evenodd" fill-opacity="1" /><path clip-path="url(#clip720)" d="M694.387 12.096 L702.57 12.096 L702.57 72.576 L694.387 72.576 L694.387 12.096 Z" fill="#000000" fill-rule="evenodd" fill-opacity="1" /><path clip-path="url(#clip720)" d="M756.244 45.1919 L756.244 72.576 L748.79 72.576 L748.79 45.4349 Q748.79 38.994 746.279 35.7938 Q743.767 32.5936 738.744 32.5936 Q732.708 32.5936 729.225 36.4419 Q725.741 40.2903 725.741 46.9338 L725.741 72.576 L718.247 72.576 L718.247 27.2059 L725.741 27.2059 L725.741 34.2544 Q728.414 30.163 732.02 28.1376 Q735.666 26.1121 740.405 26.1121 Q748.223 26.1121 752.234 30.9732 Q756.244 35.7938 756.244 45.1919 Z" fill="#000000" fill-rule="evenodd" fill-opacity="1" /><path clip-path="url(#clip720)" d="M803.761 28.9478 L803.761 35.9153 Q800.602 34.1734 797.401 33.3227 Q794.242 32.4315 791.001 32.4315 Q783.75 32.4315 779.739 37.0496 Q775.729 41.6271 775.729 49.9314 Q775.729 58.2358 779.739 62.8538 Q783.75 67.4314 791.001 67.4314 Q794.242 67.4314 797.401 66.5807 Q800.602 65.6895 803.761 63.9476 L803.761 70.8341 Q800.642 72.2924 797.28 73.0216 Q793.958 73.7508 790.191 73.7508 Q779.942 73.7508 773.906 67.3098 Q767.87 60.8689 767.87 49.9314 Q767.87 38.832 773.947 32.472 Q780.063 26.1121 790.677 26.1121 Q794.12 26.1121 797.401 26.8413 Q800.683 27.5299 803.761 28.9478 Z" fill="#000000" fill-rule="evenodd" fill-opacity="1" /><path clip-path="url(#clip720)" d="M843.014 34.1734 Q841.759 33.4443 840.26 33.1202 Q838.802 32.7556 837.019 32.7556 Q830.7 32.7556 827.297 36.8875 Q823.935 40.9789 823.935 48.6757 L823.935 72.576 L816.441 72.576 L816.441 27.2059 L823.935 27.2059 L823.935 34.2544 Q826.284 30.1225 830.052 28.1376 Q833.819 26.1121 839.207 26.1121 Q839.976 26.1121 840.908 26.2337 Q841.84 26.3147 842.974 26.5172 L843.014 34.1734 Z" fill="#000000" fill-rule="evenodd" fill-opacity="1" /><path clip-path="url(#clip720)" d="M887.817 48.0275 L887.817 51.6733 L853.547 51.6733 Q854.033 59.3701 858.165 63.421 Q862.337 67.4314 869.75 67.4314 Q874.044 67.4314 878.055 66.3781 Q882.106 65.3249 886.076 63.2184 L886.076 70.267 Q882.065 71.9684 877.852 72.8596 Q873.639 73.7508 869.305 73.7508 Q858.448 73.7508 852.088 67.4314 Q845.769 61.1119 845.769 50.3365 Q845.769 39.1965 851.764 32.6746 Q857.8 26.1121 868.009 26.1121 Q877.164 26.1121 882.47 32.0264 Q887.817 37.9003 887.817 48.0275 M880.364 45.84 Q880.283 39.7232 876.921 36.0774 Q873.599 32.4315 868.09 32.4315 Q861.851 32.4315 858.084 35.9558 Q854.357 39.4801 853.79 45.8805 L880.364 45.84 Z" fill="#000000" fill-rule="evenodd" fill-opacity="1" /><path clip-path="url(#clip720)" d="M920.67 49.7694 Q911.637 49.7694 908.153 51.8354 Q904.669 53.9013 904.669 58.8839 Q904.669 62.8538 907.262 65.2034 Q909.895 67.5124 914.391 67.5124 Q920.589 67.5124 924.316 63.1374 Q928.083 58.7219 928.083 51.4303 L928.083 49.7694 L920.67 49.7694 M935.537 46.6907 L935.537 72.576 L928.083 72.576 L928.083 65.6895 Q925.531 69.8214 921.724 71.8063 Q917.916 73.7508 912.406 73.7508 Q905.439 73.7508 901.307 69.8619 Q897.216 65.9325 897.216 59.3701 Q897.216 51.7138 902.32 47.825 Q907.464 43.9361 917.632 43.9361 L928.083 43.9361 L928.083 43.2069 Q928.083 38.0623 924.681 35.2672 Q921.318 32.4315 915.202 32.4315 Q911.313 32.4315 907.626 33.3632 Q903.94 34.295 900.537 36.1584 L900.537 29.2718 Q904.629 27.692 908.477 26.9223 Q912.325 26.1121 915.971 26.1121 Q925.815 26.1121 930.676 31.2163 Q935.537 36.3204 935.537 46.6907 Z" fill="#000000" fill-rule="evenodd" fill-opacity="1" /><path clip-path="url(#clip720)" d="M986.214 35.9153 Q989.009 30.8922 992.898 28.5022 Q996.787 26.1121 1002.05 26.1121 Q1009.14 26.1121 1012.99 31.0947 Q1016.84 36.0368 1016.84 45.1919 L1016.84 72.576 L1009.34 72.576 L1009.34 45.4349 Q1009.34 38.913 1007.04 35.7533 Q1004.73 32.5936 999.987 32.5936 Q994.194 32.5936 990.832 36.4419 Q987.47 40.2903 987.47 46.9338 L987.47 72.576 L979.976 72.576 L979.976 45.4349 Q979.976 38.8725 977.667 35.7533 Q975.358 32.5936 970.537 32.5936 Q964.825 32.5936 961.463 36.4824 Q958.101 40.3308 958.101 46.9338 L958.101 72.576 L950.606 72.576 L950.606 27.2059 L958.101 27.2059 L958.101 34.2544 Q960.653 30.082 964.218 28.0971 Q967.782 26.1121 972.684 26.1121 Q977.626 26.1121 981.069 28.6237 Q984.553 31.1352 986.214 35.9153 Z" fill="#000000" fill-rule="evenodd" fill-opacity="1" /><path clip-path="url(#clip720)" d="M1070.51 48.0275 L1070.51 51.6733 L1036.24 51.6733 Q1036.73 59.3701 1040.86 63.421 Q1045.03 67.4314 1052.45 67.4314 Q1056.74 67.4314 1060.75 66.3781 Q1064.8 65.3249 1068.77 63.2184 L1068.77 70.267 Q1064.76 71.9684 1060.55 72.8596 Q1056.34 73.7508 1052 73.7508 Q1041.14 73.7508 1034.78 67.4314 Q1028.46 61.1119 1028.46 50.3365 Q1028.46 39.1965 1034.46 32.6746 Q1040.5 26.1121 1050.7 26.1121 Q1059.86 26.1121 1065.17 32.0264 Q1070.51 37.9003 1070.51 48.0275 M1063.06 45.84 Q1062.98 39.7232 1059.62 36.0774 Q1056.29 32.4315 1050.79 32.4315 Q1044.55 32.4315 1040.78 35.9558 Q1037.05 39.4801 1036.49 45.8805 L1063.06 45.84 Z" fill="#000000" fill-rule="evenodd" fill-opacity="1" /><path clip-path="url(#clip720)" d="M1120.46 45.1919 L1120.46 72.576 L1113.01 72.576 L1113.01 45.4349 Q1113.01 38.994 1110.5 35.7938 Q1107.98 32.5936 1102.96 32.5936 Q1096.93 32.5936 1093.44 36.4419 Q1089.96 40.2903 1089.96 46.9338 L1089.96 72.576 L1082.46 72.576 L1082.46 27.2059 L1089.96 27.2059 L1089.96 34.2544 Q1092.63 30.163 1096.24 28.1376 Q1099.88 26.1121 1104.62 26.1121 Q1112.44 26.1121 1116.45 30.9732 Q1120.46 35.7938 1120.46 45.1919 Z" fill="#000000" fill-rule="evenodd" fill-opacity="1" /><path clip-path="url(#clip720)" d="M1142.7 14.324 L1142.7 27.2059 L1158.05 27.2059 L1158.05 32.9987 L1142.7 32.9987 L1142.7 57.6282 Q1142.7 63.1779 1144.2 64.7578 Q1145.74 66.3376 1150.4 66.3376 L1158.05 66.3376 L1158.05 72.576 L1150.4 72.576 Q1141.77 72.576 1138.49 69.3758 Q1135.21 66.1351 1135.21 57.6282 L1135.21 32.9987 L1129.74 32.9987 L1129.74 27.2059 L1135.21 27.2059 L1135.21 14.324 L1142.7 14.324 Z" fill="#000000" fill-rule="evenodd" fill-opacity="1" /><path clip-path="url(#clip720)" d="M1188.48 49.7694 Q1179.44 49.7694 1175.96 51.8354 Q1172.47 53.9013 1172.47 58.8839 Q1172.47 62.8538 1175.07 65.2034 Q1177.7 67.5124 1182.2 67.5124 Q1188.39 67.5124 1192.12 63.1374 Q1195.89 58.7219 1195.89 51.4303 L1195.89 49.7694 L1188.48 49.7694 M1203.34 46.6907 L1203.34 72.576 L1195.89 72.576 L1195.89 65.6895 Q1193.34 69.8214 1189.53 71.8063 Q1185.72 73.7508 1180.21 73.7508 Q1173.24 73.7508 1169.11 69.8619 Q1165.02 65.9325 1165.02 59.3701 Q1165.02 51.7138 1170.12 47.825 Q1175.27 43.9361 1185.44 43.9361 L1195.89 43.9361 L1195.89 43.2069 Q1195.89 38.0623 1192.49 35.2672 Q1189.12 32.4315 1183.01 32.4315 Q1179.12 32.4315 1175.43 33.3632 Q1171.75 34.295 1168.34 36.1584 L1168.34 29.2718 Q1172.43 27.692 1176.28 26.9223 Q1180.13 26.1121 1183.78 26.1121 Q1193.62 26.1121 1198.48 31.2163 Q1203.34 36.3204 1203.34 46.6907 Z" fill="#000000" fill-rule="evenodd" fill-opacity="1" /><path clip-path="url(#clip720)" d="M1218.7 9.54393 L1226.15 9.54393 L1226.15 72.576 L1218.7 72.576 L1218.7 9.54393 Z" fill="#000000" fill-rule="evenodd" fill-opacity="1" /><path clip-path="url(#clip720)" d="M1268.44 12.096 L1276.62 12.096 L1276.62 36.8875 L1306.36 36.8875 L1306.36 12.096 L1314.54 12.096 L1314.54 72.576 L1306.36 72.576 L1306.36 43.7741 L1276.62 43.7741 L1276.62 72.576 L1268.44 72.576 L1268.44 12.096 Z" fill="#000000" fill-rule="evenodd" fill-opacity="1" /><path clip-path="url(#clip720)" d="M1369.31 48.0275 L1369.31 51.6733 L1335.04 51.6733 Q1335.52 59.3701 1339.66 63.421 Q1343.83 67.4314 1351.24 67.4314 Q1355.53 67.4314 1359.55 66.3781 Q1363.6 65.3249 1367.57 63.2184 L1367.57 70.267 Q1363.56 71.9684 1359.34 72.8596 Q1355.13 73.7508 1350.8 73.7508 Q1339.94 73.7508 1333.58 67.4314 Q1327.26 61.1119 1327.26 50.3365 Q1327.26 39.1965 1333.25 32.6746 Q1339.29 26.1121 1349.5 26.1121 Q1358.65 26.1121 1363.96 32.0264 Q1369.31 37.9003 1369.31 48.0275 M1361.85 45.84 Q1361.77 39.7232 1358.41 36.0774 Q1355.09 32.4315 1349.58 32.4315 Q1343.34 32.4315 1339.57 35.9558 Q1335.85 39.4801 1335.28 45.8805 L1361.85 45.84 Z" fill="#000000" fill-rule="evenodd" fill-opacity="1" /><path clip-path="url(#clip720)" d="M1402.16 49.7694 Q1393.13 49.7694 1389.64 51.8354 Q1386.16 53.9013 1386.16 58.8839 Q1386.16 62.8538 1388.75 65.2034 Q1391.39 67.5124 1395.88 67.5124 Q1402.08 67.5124 1405.81 63.1374 Q1409.57 58.7219 1409.57 51.4303 L1409.57 49.7694 L1402.16 49.7694 M1417.03 46.6907 L1417.03 72.576 L1409.57 72.576 L1409.57 65.6895 Q1407.02 69.8214 1403.21 71.8063 Q1399.41 73.7508 1393.9 73.7508 Q1386.93 73.7508 1382.8 69.8619 Q1378.71 65.9325 1378.71 59.3701 Q1378.71 51.7138 1383.81 47.825 Q1388.95 43.9361 1399.12 43.9361 L1409.57 43.9361 L1409.57 43.2069 Q1409.57 38.0623 1406.17 35.2672 Q1402.81 32.4315 1396.69 32.4315 Q1392.8 32.4315 1389.12 33.3632 Q1385.43 34.295 1382.03 36.1584 L1382.03 29.2718 Q1386.12 27.692 1389.97 26.9223 Q1393.82 26.1121 1397.46 26.1121 Q1407.31 26.1121 1412.17 31.2163 Q1417.03 36.3204 1417.03 46.6907 Z" fill="#000000" fill-rule="evenodd" fill-opacity="1" /><path clip-path="url(#clip720)" d="M1439.75 14.324 L1439.75 27.2059 L1455.11 27.2059 L1455.11 32.9987 L1439.75 32.9987 L1439.75 57.6282 Q1439.75 63.1779 1441.25 64.7578 Q1442.79 66.3376 1447.45 66.3376 L1455.11 66.3376 L1455.11 72.576 L1447.45 72.576 Q1438.82 72.576 1435.54 69.3758 Q1432.26 66.1351 1432.26 57.6282 L1432.26 32.9987 L1426.79 32.9987 L1426.79 27.2059 L1432.26 27.2059 L1432.26 14.324 L1439.75 14.324 Z" fill="#000000" fill-rule="evenodd" fill-opacity="1" /><path clip-path="url(#clip720)" d="M1491.6 12.096 L1499.79 12.096 L1499.79 65.6895 L1529.24 65.6895 L1529.24 72.576 L1491.6 72.576 L1491.6 12.096 Z" fill="#000000" fill-rule="evenodd" fill-opacity="1" /><path clip-path="url(#clip720)" d="M1553.62 32.4315 Q1547.63 32.4315 1544.14 37.1306 Q1540.66 41.7891 1540.66 49.9314 Q1540.66 58.0738 1544.1 62.7728 Q1547.59 67.4314 1553.62 67.4314 Q1559.58 67.4314 1563.06 62.7323 Q1566.55 58.0333 1566.55 49.9314 Q1566.55 41.8701 1563.06 37.1711 Q1559.58 32.4315 1553.62 32.4315 M1553.62 26.1121 Q1563.35 26.1121 1568.9 32.4315 Q1574.45 38.7509 1574.45 49.9314 Q1574.45 61.0714 1568.9 67.4314 Q1563.35 73.7508 1553.62 73.7508 Q1543.86 73.7508 1538.31 67.4314 Q1532.8 61.0714 1532.8 49.9314 Q1532.8 38.7509 1538.31 32.4315 Q1543.86 26.1121 1553.62 26.1121 Z" fill="#000000" fill-rule="evenodd" fill-opacity="1" /><path clip-path="url(#clip720)" d="M1615.72 28.5427 L1615.72 35.5912 Q1612.56 33.9709 1609.16 33.1607 Q1605.76 32.3505 1602.11 32.3505 Q1596.56 32.3505 1593.77 34.0519 Q1591.01 35.7533 1591.01 39.156 Q1591.01 41.7486 1593 43.2475 Q1594.98 44.7058 1600.98 46.0426 L1603.53 46.6097 Q1611.47 48.3111 1614.79 51.4303 Q1618.15 54.509 1618.15 60.0587 Q1618.15 66.3781 1613.13 70.0644 Q1608.15 73.7508 1599.4 73.7508 Q1595.75 73.7508 1591.78 73.0216 Q1587.85 72.3329 1583.48 70.9151 L1583.48 63.2184 Q1587.61 65.3654 1591.62 66.4591 Q1595.63 67.5124 1599.56 67.5124 Q1604.83 67.5124 1607.66 65.73 Q1610.5 63.9071 1610.5 60.6258 Q1610.5 57.5877 1608.43 55.9673 Q1606.41 54.3469 1599.48 52.8481 L1596.89 52.2405 Q1589.96 50.7821 1586.88 47.7845 Q1583.8 44.7463 1583.8 39.4801 Q1583.8 33.0797 1588.34 29.5959 Q1592.88 26.1121 1601.22 26.1121 Q1605.35 26.1121 1609 26.7198 Q1612.65 27.3274 1615.72 28.5427 Z" fill="#000000" fill-rule="evenodd" fill-opacity="1" /><path clip-path="url(#clip720)" d="M1658.95 28.5427 L1658.95 35.5912 Q1655.79 33.9709 1652.39 33.1607 Q1648.98 32.3505 1645.34 32.3505 Q1639.79 32.3505 1636.99 34.0519 Q1634.24 35.7533 1634.24 39.156 Q1634.24 41.7486 1636.22 43.2475 Q1638.21 44.7058 1644.2 46.0426 L1646.75 46.6097 Q1654.69 48.3111 1658.02 51.4303 Q1661.38 54.509 1661.38 60.0587 Q1661.38 66.3781 1656.36 70.0644 Q1651.37 73.7508 1642.62 73.7508 Q1638.98 73.7508 1635.01 73.0216 Q1631.08 72.3329 1626.7 70.9151 L1626.7 63.2184 Q1630.83 65.3654 1634.84 66.4591 Q1638.86 67.5124 1642.78 67.5124 Q1648.05 67.5124 1650.89 65.73 Q1653.72 63.9071 1653.72 60.6258 Q1653.72 57.5877 1651.66 55.9673 Q1649.63 54.3469 1642.7 52.8481 L1640.11 52.2405 Q1633.18 50.7821 1630.11 47.7845 Q1627.03 44.7463 1627.03 39.4801 Q1627.03 33.0797 1631.56 29.5959 Q1636.1 26.1121 1644.45 26.1121 Q1648.58 26.1121 1652.22 26.7198 Q1655.87 27.3274 1658.95 28.5427 Z" fill="#000000" fill-rule="evenodd" fill-opacity="1" /><path clip-path="url(#clip720)" d="M1691.56 12.096 L1742.72 12.096 L1742.72 18.9825 L1721.25 18.9825 L1721.25 72.576 L1713.03 72.576 L1713.03 18.9825 L1691.56 18.9825 L1691.56 12.096 Z" fill="#000000" fill-rule="evenodd" fill-opacity="1" /><path clip-path="url(#clip720)" d="M1753.78 32.4315 Q1747.78 32.4315 1744.3 37.1306 Q1740.82 41.7891 1740.82 49.9314 Q1740.82 58.0738 1744.26 62.7728 Q1747.74 67.4314 1753.78 67.4314 Q1759.73 67.4314 1763.22 62.7323 Q1766.7 58.0333 1766.7 49.9314 Q1766.7 41.8701 1763.22 37.1711 Q1759.73 32.4315 1753.78 32.4315 M1753.78 26.1121 Q1763.5 26.1121 1769.05 32.4315 Q1774.6 38.7509 1774.6 49.9314 Q1774.6 61.0714 1769.05 67.4314 Q1763.5 73.7508 1753.78 73.7508 Q1744.02 73.7508 1738.47 67.4314 Q1732.96 61.0714 1732.96 49.9314 Q1732.96 38.7509 1738.47 32.4315 Q1744.02 26.1121 1753.78 26.1121 Z" fill="#000000" fill-rule="evenodd" fill-opacity="1" /><path clip-path="url(#clip720)" d="M1838.2 17.6457 Q1829.29 17.6457 1824.02 24.2892 Q1818.8 30.9327 1818.8 42.3968 Q1818.8 53.8203 1824.02 60.4638 Q1829.29 67.1073 1838.2 67.1073 Q1847.11 67.1073 1852.3 60.4638 Q1857.52 53.8203 1857.52 42.3968 Q1857.52 30.9327 1852.3 24.2892 Q1847.11 17.6457 1838.2 17.6457 M1838.2 11.0023 Q1850.92 11.0023 1858.54 19.5497 Q1866.15 28.0566 1866.15 42.3968 Q1866.15 56.6965 1858.54 65.2439 Q1850.92 73.7508 1838.2 73.7508 Q1825.44 73.7508 1817.78 65.2439 Q1810.17 56.737 1810.17 42.3968 Q1810.17 28.0566 1817.78 19.5497 Q1825.44 11.0023 1838.2 11.0023 Z" fill="#000000" fill-rule="evenodd" fill-opacity="1" /><path clip-path="url(#clip720)" d="M1873.28 27.2059 L1881.18 27.2059 L1895.36 65.2844 L1909.54 27.2059 L1917.44 27.2059 L1900.42 72.576 L1890.29 72.576 L1873.28 27.2059 Z" fill="#000000" fill-rule="evenodd" fill-opacity="1" /><path clip-path="url(#clip720)" d="M1966.53 48.0275 L1966.53 51.6733 L1932.26 51.6733 Q1932.75 59.3701 1936.88 63.421 Q1941.05 67.4314 1948.47 67.4314 Q1952.76 67.4314 1956.77 66.3781 Q1960.82 65.3249 1964.79 63.2184 L1964.79 70.267 Q1960.78 71.9684 1956.57 72.8596 Q1952.35 73.7508 1948.02 73.7508 Q1937.16 73.7508 1930.8 67.4314 Q1924.48 61.1119 1924.48 50.3365 Q1924.48 39.1965 1930.48 32.6746 Q1936.52 26.1121 1946.72 26.1121 Q1955.88 26.1121 1961.19 32.0264 Q1966.53 37.9003 1966.53 48.0275 M1959.08 45.84 Q1959 39.7232 1955.64 36.0774 Q1952.31 32.4315 1946.8 32.4315 Q1940.57 32.4315 1936.8 35.9558 Q1933.07 39.4801 1932.51 45.8805 L1959.08 45.84 Z" fill="#000000" fill-rule="evenodd" fill-opacity="1" /><path clip-path="url(#clip720)" d="M2005.06 34.1734 Q2003.8 33.4443 2002.3 33.1202 Q2000.84 32.7556 1999.06 32.7556 Q1992.74 32.7556 1989.34 36.8875 Q1985.98 40.9789 1985.98 48.6757 L1985.98 72.576 L1978.48 72.576 L1978.48 27.2059 L1985.98 27.2059 L1985.98 34.2544 Q1988.33 30.1225 1992.09 28.1376 Q1995.86 26.1121 2001.25 26.1121 Q2002.02 26.1121 2002.95 26.2337 Q2003.88 26.3147 2005.02 26.5172 L2005.06 34.1734 Z" fill="#000000" fill-rule="evenodd" fill-opacity="1" /><path clip-path="url(#clip720)" d="M2045.44 49.9314 Q2045.44 41.7081 2042.04 37.0496 Q2038.68 32.3505 2032.77 32.3505 Q2026.85 32.3505 2023.45 37.0496 Q2020.09 41.7081 2020.09 49.9314 Q2020.09 58.1548 2023.45 62.8538 Q2026.85 67.5124 2032.77 67.5124 Q2038.68 67.5124 2042.04 62.8538 Q2045.44 58.1548 2045.44 49.9314 M2020.09 34.0924 Q2022.44 30.0415 2026 28.0971 Q2029.61 26.1121 2034.59 26.1121 Q2042.85 26.1121 2048 32.6746 Q2053.18 39.2371 2053.18 49.9314 Q2053.18 60.6258 2048 67.1883 Q2042.85 73.7508 2034.59 73.7508 Q2029.61 73.7508 2026 71.8063 Q2022.44 69.8214 2020.09 65.7705 L2020.09 72.576 L2012.59 72.576 L2012.59 9.54393 L2020.09 9.54393 L2020.09 34.0924 Z" fill="#000000" fill-rule="evenodd" fill-opacity="1" /><path clip-path="url(#clip720)" d="M2064.77 54.671 L2064.77 27.2059 L2072.22 27.2059 L2072.22 54.3874 Q2072.22 60.8284 2074.73 64.0691 Q2077.24 67.2693 2082.27 67.2693 Q2088.3 67.2693 2091.79 63.421 Q2095.31 59.5726 2095.31 52.9291 L2095.31 27.2059 L2102.76 27.2059 L2102.76 72.576 L2095.31 72.576 L2095.31 65.6084 Q2092.6 69.7404 2088.99 71.7658 Q2085.43 73.7508 2080.69 73.7508 Q2072.87 73.7508 2068.82 68.8897 Q2064.77 64.0286 2064.77 54.671 M2083.52 26.1121 L2083.52 26.1121 Z" fill="#000000" fill-rule="evenodd" fill-opacity="1" /><path clip-path="url(#clip720)" d="M2144.41 34.1734 Q2143.15 33.4443 2141.65 33.1202 Q2140.2 32.7556 2138.41 32.7556 Q2132.09 32.7556 2128.69 36.8875 Q2125.33 40.9789 2125.33 48.6757 L2125.33 72.576 L2117.83 72.576 L2117.83 27.2059 L2125.33 27.2059 L2125.33 34.2544 Q2127.68 30.1225 2131.45 28.1376 Q2135.21 26.1121 2140.6 26.1121 Q2141.37 26.1121 2142.3 26.2337 Q2143.23 26.3147 2144.37 26.5172 L2144.41 34.1734 Z" fill="#000000" fill-rule="evenodd" fill-opacity="1" /><path clip-path="url(#clip720)" d="M2180.62 34.0924 L2180.62 9.54393 L2188.08 9.54393 L2188.08 72.576 L2180.62 72.576 L2180.62 65.7705 Q2178.27 69.8214 2174.67 71.8063 Q2171.1 73.7508 2166.08 73.7508 Q2157.86 73.7508 2152.67 67.1883 Q2147.53 60.6258 2147.53 49.9314 Q2147.53 39.2371 2152.67 32.6746 Q2157.86 26.1121 2166.08 26.1121 Q2171.1 26.1121 2174.67 28.0971 Q2178.27 30.0415 2180.62 34.0924 M2155.22 49.9314 Q2155.22 58.1548 2158.59 62.8538 Q2161.99 67.5124 2167.9 67.5124 Q2173.82 67.5124 2177.22 62.8538 Q2180.62 58.1548 2180.62 49.9314 Q2180.62 41.7081 2177.22 37.0496 Q2173.82 32.3505 2167.9 32.3505 Q2161.99 32.3505 2158.59 37.0496 Q2155.22 41.7081 2155.22 49.9314 Z" fill="#000000" fill-rule="evenodd" fill-opacity="1" /><path clip-path="url(#clip720)" d="M2242.24 48.0275 L2242.24 51.6733 L2207.97 51.6733 Q2208.45 59.3701 2212.58 63.421 Q2216.76 67.4314 2224.17 67.4314 Q2228.46 67.4314 2232.47 66.3781 Q2236.53 65.3249 2240.5 63.2184 L2240.5 70.267 Q2236.49 71.9684 2232.27 72.8596 Q2228.06 73.7508 2223.72 73.7508 Q2212.87 73.7508 2206.51 67.4314 Q2200.19 61.1119 2200.19 50.3365 Q2200.19 39.1965 2206.18 32.6746 Q2212.22 26.1121 2222.43 26.1121 Q2231.58 26.1121 2236.89 32.0264 Q2242.24 37.9003 2242.24 48.0275 M2234.78 45.84 Q2234.7 39.7232 2231.34 36.0774 Q2228.02 32.4315 2222.51 32.4315 Q2216.27 32.4315 2212.5 35.9558 Q2208.78 39.4801 2208.21 45.8805 L2234.78 45.84 Z" fill="#000000" fill-rule="evenodd" fill-opacity="1" /><path clip-path="url(#clip720)" d="M2292.18 45.1919 L2292.18 72.576 L2284.73 72.576 L2284.73 45.4349 Q2284.73 38.994 2282.22 35.7938 Q2279.71 32.5936 2274.69 32.5936 Q2268.65 32.5936 2265.17 36.4419 Q2261.68 40.2903 2261.68 46.9338 L2261.68 72.576 L2254.19 72.576 L2254.19 27.2059 L2261.68 27.2059 L2261.68 34.2544 Q2264.36 30.163 2267.96 28.1376 Q2271.61 26.1121 2276.35 26.1121 Q2284.16 26.1121 2288.17 30.9732 Q2292.18 35.7938 2292.18 45.1919 Z" fill="#000000" fill-rule="evenodd" fill-opacity="1" /><path clip-path="url(#clip722)" d="M532.239 1148.18 L532.239 1688.65 L694.202 1688.65 L694.202 1148.18 L532.239 1148.18 L532.239 1148.18  Z" fill="#009af9" fill-rule="evenodd" fill-opacity="1"/>
<polyline clip-path="url(#clip722)" style="stroke:#000000; stroke-linecap:round; stroke-linejoin:round; stroke-width:12; stroke-opacity:1; fill:none" points="532.239,1148.18 532.239,1688.65 694.202,1688.65 694.202,1148.18 532.239,1148.18 "/>
<path clip-path="url(#clip722)" d="M734.693 700.441 L734.693 1688.65 L896.655 1688.65 L896.655 700.441 L734.693 700.441 L734.693 700.441  Z" fill="#009af9" fill-rule="evenodd" fill-opacity="1"/>
<polyline clip-path="url(#clip722)" style="stroke:#000000; stroke-linecap:round; stroke-linejoin:round; stroke-width:12; stroke-opacity:1; fill:none" points="734.693,700.441 734.693,1688.65 896.655,1688.65 896.655,700.441 734.693,700.441 "/>
<path clip-path="url(#clip722)" d="M937.146 408.966 L937.146 1688.65 L1099.11 1688.65 L1099.11 408.966 L937.146 408.966 L937.146 408.966  Z" fill="#009af9" fill-rule="evenodd" fill-opacity="1"/>
<polyline clip-path="url(#clip722)" style="stroke:#000000; stroke-linecap:round; stroke-linejoin:round; stroke-width:12; stroke-opacity:1; fill:none" points="937.146,408.966 937.146,1688.65 1099.11,1688.65 1099.11,408.966 937.146,408.966 "/>
<path clip-path="url(#clip722)" d="M1139.6 173.254 L1139.6 1688.65 L1301.56 1688.65 L1301.56 173.254 L1139.6 173.254 L1139.6 173.254  Z" fill="#009af9" fill-rule="evenodd" fill-opacity="1"/>
<polyline clip-path="url(#clip722)" style="stroke:#000000; stroke-linecap:round; stroke-linejoin:round; stroke-width:12; stroke-opacity:1; fill:none" points="1139.6,173.254 1139.6,1688.65 1301.56,1688.65 1301.56,173.254 1139.6,173.254 "/>
<path clip-path="url(#clip722)" d="M1342.05 510.243 L1342.05 1688.65 L1504.02 1688.65 L1504.02 510.243 L1342.05 510.243 L1342.05 510.243  Z" fill="#009af9" fill-rule="evenodd" fill-opacity="1"/>
<polyline clip-path="url(#clip722)" style="stroke:#000000; stroke-linecap:round; stroke-linejoin:round; stroke-width:12; stroke-opacity:1; fill:none" points="1342.05,510.243 1342.05,1688.65 1504.02,1688.65 1504.02,510.243 1342.05,510.243 "/>
<path clip-path="url(#clip722)" d="M1544.51 776.246 L1544.51 1688.65 L1706.47 1688.65 L1706.47 776.246 L1544.51 776.246 L1544.51 776.246  Z" fill="#009af9" fill-rule="evenodd" fill-opacity="1"/>
<polyline clip-path="url(#clip722)" style="stroke:#000000; stroke-linecap:round; stroke-linejoin:round; stroke-width:12; stroke-opacity:1; fill:none" points="1544.51,776.246 1544.51,1688.65 1706.47,1688.65 1706.47,776.246 1544.51,776.246 "/>
<path clip-path="url(#clip722)" d="M1746.96 901.947 L1746.96 1688.65 L1908.92 1688.65 L1908.92 901.947 L1746.96 901.947 L1746.96 901.947  Z" fill="#009af9" fill-rule="evenodd" fill-opacity="1"/>
<polyline clip-path="url(#clip722)" style="stroke:#000000; stroke-linecap:round; stroke-linejoin:round; stroke-width:12; stroke-opacity:1; fill:none" points="1746.96,901.947 1746.96,1688.65 1908.92,1688.65 1908.92,901.947 1746.96,901.947 "/>
<path clip-path="url(#clip722)" d="M1949.41 984.252 L1949.41 1688.65 L2111.38 1688.65 L2111.38 984.252 L1949.41 984.252 L1949.41 984.252  Z" fill="#009af9" fill-rule="evenodd" fill-opacity="1"/>
<polyline clip-path="url(#clip722)" style="stroke:#000000; stroke-linecap:round; stroke-linejoin:round; stroke-width:12; stroke-opacity:1; fill:none" points="1949.41,984.252 1949.41,1688.65 2111.38,1688.65 2111.38,984.252 1949.41,984.252 "/>
<path clip-path="url(#clip722)" d="M2151.87 1044.28 L2151.87 1688.65 L2313.83 1688.65 L2313.83 1044.28 L2151.87 1044.28 L2151.87 1044.28  Z" fill="#009af9" fill-rule="evenodd" fill-opacity="1"/>
<polyline clip-path="url(#clip722)" style="stroke:#000000; stroke-linecap:round; stroke-linejoin:round; stroke-width:12; stroke-opacity:1; fill:none" points="2151.87,1044.28 2151.87,1688.65 2313.83,1688.65 2313.83,1044.28 2151.87,1044.28 "/>
<path clip-path="url(#clip722)" d="M2354.32 1090.8 L2354.32 1688.65 L2516.28 1688.65 L2516.28 1090.8 L2354.32 1090.8 L2354.32 1090.8  Z" fill="#009af9" fill-rule="evenodd" fill-opacity="1"/>
<polyline clip-path="url(#clip722)" style="stroke:#000000; stroke-linecap:round; stroke-linejoin:round; stroke-width:12; stroke-opacity:1; fill:none" points="2354.32,1090.8 2354.32,1688.65 2516.28,1688.65 2516.28,1090.8 2354.32,1090.8 "/>
<circle clip-path="url(#clip722)" style="fill:#009af9; stroke:none; fill-opacity:0" cx="613.22" cy="1148.18" r="2"/>
<circle clip-path="url(#clip722)" style="fill:#009af9; stroke:none; fill-opacity:0" cx="815.674" cy="700.441" r="2"/>
<circle clip-path="url(#clip722)" style="fill:#009af9; stroke:none; fill-opacity:0" cx="1018.13" cy="408.966" r="2"/>
<circle clip-path="url(#clip722)" style="fill:#009af9; stroke:none; fill-opacity:0" cx="1220.58" cy="173.254" r="2"/>
<circle clip-path="url(#clip722)" style="fill:#009af9; stroke:none; fill-opacity:0" cx="1423.03" cy="510.243" r="2"/>
<circle clip-path="url(#clip722)" style="fill:#009af9; stroke:none; fill-opacity:0" cx="1625.49" cy="776.246" r="2"/>
<circle clip-path="url(#clip722)" style="fill:#009af9; stroke:none; fill-opacity:0" cx="1827.94" cy="901.947" r="2"/>
<circle clip-path="url(#clip722)" style="fill:#009af9; stroke:none; fill-opacity:0" cx="2030.4" cy="984.252" r="2"/>
<circle clip-path="url(#clip722)" style="fill:#009af9; stroke:none; fill-opacity:0" cx="2232.85" cy="1044.28" r="2"/>
<circle clip-path="url(#clip722)" style="fill:#009af9; stroke:none; fill-opacity:0" cx="2435.3" cy="1090.8" r="2"/>
<path clip-path="url(#clip720)" d="M1255.14 285.016 L2564.26 285.016 L2564.26 181.336 L1255.14 181.336  Z" fill="#ffffff" fill-rule="evenodd" fill-opacity="1"/>
<polyline clip-path="url(#clip720)" style="stroke:#000000; stroke-linecap:round; stroke-linejoin:round; stroke-width:4; stroke-opacity:1; fill:none" points="1255.14,285.016 2564.26,285.016 2564.26,181.336 1255.14,181.336 1255.14,285.016 "/>
<path clip-path="url(#clip720)" d="M1280.64 253.912 L1433.64 253.912 L1433.64 212.44 L1280.64 212.44 L1280.64 253.912  Z" fill="#009af9" fill-rule="evenodd" fill-opacity="1"/>
<polyline clip-path="url(#clip720)" style="stroke:#000000; stroke-linecap:round; stroke-linejoin:round; stroke-width:12; stroke-opacity:1; fill:none" points="1280.64,253.912 1433.64,253.912 1433.64,212.44 1280.64,212.44 1280.64,253.912 "/>
<path clip-path="url(#clip720)" d="M1474.97 220.503 L1468.63 237.702 L1481.33 237.702 L1474.97 220.503 M1472.33 215.896 L1477.63 215.896 L1490.8 250.456 L1485.94 250.456 L1482.79 241.591 L1467.21 241.591 L1464.07 250.456 L1459.13 250.456 L1472.33 215.896 Z" fill="#000000" fill-rule="evenodd" fill-opacity="1" /><path clip-path="url(#clip720)" d="M1511.29 228.929 L1540.96 228.929 L1540.96 232.817 L1511.29 232.817 L1511.29 228.929 M1511.29 238.373 L1540.96 238.373 L1540.96 242.308 L1511.29 242.308 L1511.29 238.373 Z" fill="#000000" fill-rule="evenodd" fill-opacity="1" /><path clip-path="url(#clip720)" d="M1565.71 215.896 L1570.38 215.896 L1570.38 246.521 L1587.21 246.521 L1587.21 250.456 L1565.71 250.456 L1565.71 215.896 Z" fill="#000000" fill-rule="evenodd" fill-opacity="1" /><path clip-path="url(#clip720)" d="M1591.93 224.531 L1596.19 224.531 L1596.19 250.456 L1591.93 250.456 L1591.93 224.531 M1591.93 214.438 L1596.19 214.438 L1596.19 219.831 L1591.93 219.831 L1591.93 214.438 Z" fill="#000000" fill-rule="evenodd" fill-opacity="1" /><path clip-path="url(#clip720)" d="M1626.66 234.808 L1626.66 250.456 L1622.4 250.456 L1622.4 234.947 Q1622.4 231.267 1620.96 229.438 Q1619.53 227.609 1616.66 227.609 Q1613.21 227.609 1611.22 229.808 Q1609.23 232.007 1609.23 235.804 L1609.23 250.456 L1604.94 250.456 L1604.94 224.531 L1609.23 224.531 L1609.23 228.558 Q1610.75 226.22 1612.81 225.063 Q1614.9 223.906 1617.61 223.906 Q1622.07 223.906 1624.37 226.683 Q1626.66 229.438 1626.66 234.808 Z" fill="#000000" fill-rule="evenodd" fill-opacity="1" /><path clip-path="url(#clip720)" d="M1657.33 236.429 L1657.33 238.512 L1637.74 238.512 Q1638.02 242.91 1640.38 245.225 Q1642.77 247.516 1647 247.516 Q1649.46 247.516 1651.75 246.915 Q1654.06 246.313 1656.33 245.109 L1656.33 249.137 Q1654.04 250.109 1651.63 250.618 Q1649.23 251.128 1646.75 251.128 Q1640.55 251.128 1636.91 247.516 Q1633.3 243.905 1633.3 237.748 Q1633.3 231.382 1636.73 227.655 Q1640.18 223.906 1646.01 223.906 Q1651.24 223.906 1654.27 227.285 Q1657.33 230.642 1657.33 236.429 M1653.07 235.179 Q1653.02 231.683 1651.1 229.6 Q1649.2 227.517 1646.06 227.517 Q1642.49 227.517 1640.34 229.53 Q1638.21 231.544 1637.88 235.202 L1653.07 235.179 Z" fill="#000000" fill-rule="evenodd" fill-opacity="1" /><path clip-path="url(#clip720)" d="M1676.1 237.424 Q1670.94 237.424 1668.95 238.604 Q1666.96 239.785 1666.96 242.632 Q1666.96 244.901 1668.44 246.243 Q1669.94 247.563 1672.51 247.563 Q1676.05 247.563 1678.18 245.063 Q1680.34 242.54 1680.34 238.373 L1680.34 237.424 L1676.1 237.424 M1684.6 235.665 L1684.6 250.456 L1680.34 250.456 L1680.34 246.521 Q1678.88 248.882 1676.7 250.016 Q1674.53 251.128 1671.38 251.128 Q1667.4 251.128 1665.04 248.905 Q1662.7 246.66 1662.7 242.91 Q1662.7 238.535 1665.62 236.313 Q1668.55 234.091 1674.37 234.091 L1680.34 234.091 L1680.34 233.674 Q1680.34 230.734 1678.39 229.137 Q1676.47 227.517 1672.98 227.517 Q1670.75 227.517 1668.65 228.049 Q1666.54 228.581 1664.6 229.646 L1664.6 225.711 Q1666.93 224.808 1669.13 224.368 Q1671.33 223.906 1673.42 223.906 Q1679.04 223.906 1681.82 226.822 Q1684.6 229.739 1684.6 235.665 Z" fill="#000000" fill-rule="evenodd" fill-opacity="1" /><path clip-path="url(#clip720)" d="M1708.39 228.512 Q1707.68 228.095 1706.82 227.91 Q1705.99 227.702 1704.97 227.702 Q1701.36 227.702 1699.41 230.063 Q1697.49 232.401 1697.49 236.799 L1697.49 250.456 L1693.21 250.456 L1693.21 224.531 L1697.49 224.531 L1697.49 228.558 Q1698.83 226.197 1700.99 225.063 Q1703.14 223.906 1706.22 223.906 Q1706.66 223.906 1707.19 223.975 Q1707.72 224.021 1708.37 224.137 L1708.39 228.512 Z" fill="#000000" fill-rule="evenodd" fill-opacity="1" /><path clip-path="url(#clip720)" d="M1712.86 214.438 L1717.12 214.438 L1717.12 250.456 L1712.86 250.456 L1712.86 214.438 Z" fill="#000000" fill-rule="evenodd" fill-opacity="1" /><path clip-path="url(#clip720)" d="M1736.82 252.864 Q1735.01 257.493 1733.3 258.905 Q1731.59 260.317 1728.72 260.317 L1725.31 260.317 L1725.31 256.753 L1727.81 256.753 Q1729.57 256.753 1730.55 255.919 Q1731.52 255.086 1732.7 251.984 L1733.46 250.04 L1722.98 224.531 L1727.49 224.531 L1735.59 244.808 L1743.69 224.531 L1748.21 224.531 L1736.82 252.864 Z" fill="#000000" fill-rule="evenodd" fill-opacity="1" /><path clip-path="url(#clip720)" d="M1769.16 224.531 L1773.42 224.531 L1773.42 250.456 L1769.16 250.456 L1769.16 224.531 M1769.16 214.438 L1773.42 214.438 L1773.42 219.831 L1769.16 219.831 L1769.16 214.438 Z" fill="#000000" fill-rule="evenodd" fill-opacity="1" /><path clip-path="url(#clip720)" d="M1803.88 234.808 L1803.88 250.456 L1799.62 250.456 L1799.62 234.947 Q1799.62 231.267 1798.18 229.438 Q1796.75 227.609 1793.88 227.609 Q1790.43 227.609 1788.44 229.808 Q1786.45 232.007 1786.45 235.804 L1786.45 250.456 L1782.17 250.456 L1782.17 224.531 L1786.45 224.531 L1786.45 228.558 Q1787.98 226.22 1790.04 225.063 Q1792.12 223.906 1794.83 223.906 Q1799.29 223.906 1801.59 226.683 Q1803.88 229.438 1803.88 234.808 Z" fill="#000000" fill-rule="evenodd" fill-opacity="1" /><path clip-path="url(#clip720)" d="M1831.03 225.526 L1831.03 229.507 Q1829.23 228.512 1827.4 228.026 Q1825.59 227.517 1823.74 227.517 Q1819.6 227.517 1817.3 230.155 Q1815.01 232.771 1815.01 237.517 Q1815.01 242.262 1817.3 244.901 Q1819.6 247.516 1823.74 247.516 Q1825.59 247.516 1827.4 247.03 Q1829.23 246.521 1831.03 245.526 L1831.03 249.461 Q1829.25 250.294 1827.33 250.711 Q1825.43 251.128 1823.28 251.128 Q1817.42 251.128 1813.97 247.447 Q1810.52 243.767 1810.52 237.517 Q1810.52 231.174 1813.99 227.54 Q1817.49 223.906 1823.55 223.906 Q1825.52 223.906 1827.4 224.322 Q1829.27 224.716 1831.03 225.526 Z" fill="#000000" fill-rule="evenodd" fill-opacity="1" /><path clip-path="url(#clip720)" d="M1853.46 228.512 Q1852.74 228.095 1851.89 227.91 Q1851.05 227.702 1850.04 227.702 Q1846.42 227.702 1844.48 230.063 Q1842.56 232.401 1842.56 236.799 L1842.56 250.456 L1838.28 250.456 L1838.28 224.531 L1842.56 224.531 L1842.56 228.558 Q1843.9 226.197 1846.05 225.063 Q1848.21 223.906 1851.29 223.906 Q1851.73 223.906 1852.26 223.975 Q1852.79 224.021 1853.44 224.137 L1853.46 228.512 Z" fill="#000000" fill-rule="evenodd" fill-opacity="1" /><path clip-path="url(#clip720)" d="M1879.06 236.429 L1879.06 238.512 L1859.48 238.512 Q1859.76 242.91 1862.12 245.225 Q1864.5 247.516 1868.74 247.516 Q1871.19 247.516 1873.48 246.915 Q1875.8 246.313 1878.07 245.109 L1878.07 249.137 Q1875.78 250.109 1873.37 250.618 Q1870.96 251.128 1868.48 251.128 Q1862.28 251.128 1858.65 247.516 Q1855.04 243.905 1855.04 237.748 Q1855.04 231.382 1858.46 227.655 Q1861.91 223.906 1867.74 223.906 Q1872.98 223.906 1876.01 227.285 Q1879.06 230.642 1879.06 236.429 M1874.8 235.179 Q1874.76 231.683 1872.84 229.6 Q1870.94 227.517 1867.79 227.517 Q1864.23 227.517 1862.07 229.53 Q1859.94 231.544 1859.62 235.202 L1874.8 235.179 Z" fill="#000000" fill-rule="evenodd" fill-opacity="1" /><path clip-path="url(#clip720)" d="M1897.84 237.424 Q1892.67 237.424 1890.68 238.604 Q1888.69 239.785 1888.69 242.632 Q1888.69 244.901 1890.17 246.243 Q1891.68 247.563 1894.25 247.563 Q1897.79 247.563 1899.92 245.063 Q1902.07 242.54 1902.07 238.373 L1902.07 237.424 L1897.84 237.424 M1906.33 235.665 L1906.33 250.456 L1902.07 250.456 L1902.07 246.521 Q1900.61 248.882 1898.44 250.016 Q1896.26 251.128 1893.11 251.128 Q1889.13 251.128 1886.77 248.905 Q1884.43 246.66 1884.43 242.91 Q1884.43 238.535 1887.35 236.313 Q1890.29 234.091 1896.1 234.091 L1902.07 234.091 L1902.07 233.674 Q1902.07 230.734 1900.13 229.137 Q1898.21 227.517 1894.71 227.517 Q1892.49 227.517 1890.38 228.049 Q1888.28 228.581 1886.33 229.646 L1886.33 225.711 Q1888.67 224.808 1890.87 224.368 Q1893.07 223.906 1895.15 223.906 Q1900.78 223.906 1903.55 226.822 Q1906.33 229.739 1906.33 235.665 Z" fill="#000000" fill-rule="evenodd" fill-opacity="1" /><path clip-path="url(#clip720)" d="M1931.63 225.294 L1931.63 229.322 Q1929.83 228.396 1927.88 227.933 Q1925.94 227.47 1923.85 227.47 Q1920.68 227.47 1919.09 228.443 Q1917.51 229.415 1917.51 231.359 Q1917.51 232.841 1918.65 233.697 Q1919.78 234.53 1923.21 235.294 L1924.66 235.618 Q1929.2 236.591 1931.1 238.373 Q1933.02 240.132 1933.02 243.304 Q1933.02 246.915 1930.15 249.021 Q1927.3 251.128 1922.3 251.128 Q1920.22 251.128 1917.95 250.711 Q1915.71 250.317 1913.21 249.507 L1913.21 245.109 Q1915.57 246.336 1917.86 246.961 Q1920.15 247.563 1922.4 247.563 Q1925.41 247.563 1927.03 246.544 Q1928.65 245.503 1928.65 243.628 Q1928.65 241.892 1927.47 240.966 Q1926.31 240.04 1922.35 239.183 L1920.87 238.836 Q1916.91 238.003 1915.15 236.29 Q1913.39 234.554 1913.39 231.544 Q1913.39 227.887 1915.98 225.896 Q1918.58 223.906 1923.35 223.906 Q1925.71 223.906 1927.79 224.253 Q1929.87 224.6 1931.63 225.294 Z" fill="#000000" fill-rule="evenodd" fill-opacity="1" /><path clip-path="url(#clip720)" d="M1939.8 224.531 L1944.06 224.531 L1944.06 250.456 L1939.8 250.456 L1939.8 224.531 M1939.8 214.438 L1944.06 214.438 L1944.06 219.831 L1939.8 219.831 L1939.8 214.438 Z" fill="#000000" fill-rule="evenodd" fill-opacity="1" /><path clip-path="url(#clip720)" d="M1974.53 234.808 L1974.53 250.456 L1970.27 250.456 L1970.27 234.947 Q1970.27 231.267 1968.83 229.438 Q1967.4 227.609 1964.53 227.609 Q1961.08 227.609 1959.09 229.808 Q1957.1 232.007 1957.1 235.804 L1957.1 250.456 L1952.81 250.456 L1952.81 224.531 L1957.1 224.531 L1957.1 228.558 Q1958.62 226.22 1960.68 225.063 Q1962.77 223.906 1965.47 223.906 Q1969.94 223.906 1972.23 226.683 Q1974.53 229.438 1974.53 234.808 Z" fill="#000000" fill-rule="evenodd" fill-opacity="1" /><path clip-path="url(#clip720)" d="M2000.08 237.192 Q2000.08 232.563 1998.16 230.017 Q1996.26 227.47 1992.81 227.47 Q1989.39 227.47 1987.47 230.017 Q1985.57 232.563 1985.57 237.192 Q1985.57 241.799 1987.47 244.345 Q1989.39 246.891 1992.81 246.891 Q1996.26 246.891 1998.16 244.345 Q2000.08 241.799 2000.08 237.192 M2004.34 247.239 Q2004.34 253.859 2001.4 257.077 Q1998.46 260.317 1992.4 260.317 Q1990.15 260.317 1988.16 259.97 Q1986.17 259.646 1984.29 258.952 L1984.29 254.808 Q1986.17 255.827 1988 256.313 Q1989.83 256.799 1991.72 256.799 Q1995.91 256.799 1998 254.6 Q2000.08 252.424 2000.08 248.003 L2000.08 245.896 Q1998.76 248.188 1996.7 249.322 Q1994.64 250.456 1991.77 250.456 Q1987 250.456 1984.09 246.822 Q1981.17 243.188 1981.17 237.192 Q1981.17 231.174 1984.09 227.54 Q1987 223.906 1991.77 223.906 Q1994.64 223.906 1996.7 225.04 Q1998.76 226.174 2000.08 228.466 L2000.08 224.531 L2004.34 224.531 L2004.34 247.239 Z" fill="#000000" fill-rule="evenodd" fill-opacity="1" /><path clip-path="url(#clip720)" d="M2039.96 237.424 Q2034.8 237.424 2032.81 238.604 Q2030.82 239.785 2030.82 242.632 Q2030.82 244.901 2032.3 246.243 Q2033.81 247.563 2036.38 247.563 Q2039.92 247.563 2042.05 245.063 Q2044.2 242.54 2044.2 238.373 L2044.2 237.424 L2039.96 237.424 M2048.46 235.665 L2048.46 250.456 L2044.2 250.456 L2044.2 246.521 Q2042.74 248.882 2040.57 250.016 Q2038.39 251.128 2035.24 251.128 Q2031.26 251.128 2028.9 248.905 Q2026.56 246.66 2026.56 242.91 Q2026.56 238.535 2029.48 236.313 Q2032.42 234.091 2038.23 234.091 L2044.2 234.091 L2044.2 233.674 Q2044.2 230.734 2042.26 229.137 Q2040.34 227.517 2036.84 227.517 Q2034.62 227.517 2032.51 228.049 Q2030.4 228.581 2028.46 229.646 L2028.46 225.711 Q2030.8 224.808 2033 224.368 Q2035.2 223.906 2037.28 223.906 Q2042.9 223.906 2045.68 226.822 Q2048.46 229.739 2048.46 235.665 Z" fill="#000000" fill-rule="evenodd" fill-opacity="1" /><path clip-path="url(#clip720)" d="M2078.78 234.808 L2078.78 250.456 L2074.52 250.456 L2074.52 234.947 Q2074.52 231.267 2073.09 229.438 Q2071.65 227.609 2068.78 227.609 Q2065.34 227.609 2063.34 229.808 Q2061.35 232.007 2061.35 235.804 L2061.35 250.456 L2057.07 250.456 L2057.07 224.531 L2061.35 224.531 L2061.35 228.558 Q2062.88 226.22 2064.94 225.063 Q2067.02 223.906 2069.73 223.906 Q2074.2 223.906 2076.49 226.683 Q2078.78 229.438 2078.78 234.808 Z" fill="#000000" fill-rule="evenodd" fill-opacity="1" /><path clip-path="url(#clip720)" d="M2104.34 228.466 L2104.34 214.438 L2108.6 214.438 L2108.6 250.456 L2104.34 250.456 L2104.34 246.567 Q2103 248.882 2100.94 250.016 Q2098.9 251.128 2096.03 251.128 Q2091.33 251.128 2088.37 247.378 Q2085.43 243.628 2085.43 237.517 Q2085.43 231.405 2088.37 227.655 Q2091.33 223.906 2096.03 223.906 Q2098.9 223.906 2100.94 225.04 Q2103 226.151 2104.34 228.466 M2089.83 237.517 Q2089.83 242.216 2091.75 244.901 Q2093.69 247.563 2097.07 247.563 Q2100.45 247.563 2102.4 244.901 Q2104.34 242.216 2104.34 237.517 Q2104.34 232.817 2102.4 230.155 Q2100.45 227.47 2097.07 227.47 Q2093.69 227.47 2091.75 230.155 Q2089.83 232.817 2089.83 237.517 Z" fill="#000000" fill-rule="evenodd" fill-opacity="1" /><path clip-path="url(#clip720)" d="M2147.46 228.512 Q2146.75 228.095 2145.89 227.91 Q2145.06 227.702 2144.04 227.702 Q2140.43 227.702 2138.48 230.063 Q2136.56 232.401 2136.56 236.799 L2136.56 250.456 L2132.28 250.456 L2132.28 224.531 L2136.56 224.531 L2136.56 228.558 Q2137.9 226.197 2140.06 225.063 Q2142.21 223.906 2145.29 223.906 Q2145.73 223.906 2146.26 223.975 Q2146.79 224.021 2147.44 224.137 L2147.46 228.512 Z" fill="#000000" fill-rule="evenodd" fill-opacity="1" /><path clip-path="url(#clip720)" d="M2173.07 236.429 L2173.07 238.512 L2153.48 238.512 Q2153.76 242.91 2156.12 245.225 Q2158.51 247.516 2162.74 247.516 Q2165.2 247.516 2167.49 246.915 Q2169.8 246.313 2172.07 245.109 L2172.07 249.137 Q2169.78 250.109 2167.37 250.618 Q2164.96 251.128 2162.49 251.128 Q2156.28 251.128 2152.65 247.516 Q2149.04 243.905 2149.04 237.748 Q2149.04 231.382 2152.46 227.655 Q2155.91 223.906 2161.75 223.906 Q2166.98 223.906 2170.01 227.285 Q2173.07 230.642 2173.07 236.429 M2168.81 235.179 Q2168.76 231.683 2166.84 229.6 Q2164.94 227.517 2161.79 227.517 Q2158.23 227.517 2156.08 229.53 Q2153.95 231.544 2153.62 235.202 L2168.81 235.179 Z" fill="#000000" fill-rule="evenodd" fill-opacity="1" /><path clip-path="url(#clip720)" d="M2191.84 237.424 Q2186.68 237.424 2184.69 238.604 Q2182.7 239.785 2182.7 242.632 Q2182.7 244.901 2184.18 246.243 Q2185.68 247.563 2188.25 247.563 Q2191.79 247.563 2193.92 245.063 Q2196.08 242.54 2196.08 238.373 L2196.08 237.424 L2191.84 237.424 M2200.33 235.665 L2200.33 250.456 L2196.08 250.456 L2196.08 246.521 Q2194.62 248.882 2192.44 250.016 Q2190.27 251.128 2187.12 251.128 Q2183.14 251.128 2180.77 248.905 Q2178.44 246.66 2178.44 242.91 Q2178.44 238.535 2181.35 236.313 Q2184.29 234.091 2190.1 234.091 L2196.08 234.091 L2196.08 233.674 Q2196.08 230.734 2194.13 229.137 Q2192.21 227.517 2188.71 227.517 Q2186.49 227.517 2184.39 228.049 Q2182.28 228.581 2180.33 229.646 L2180.33 225.711 Q2182.67 224.808 2184.87 224.368 Q2187.07 223.906 2189.15 223.906 Q2194.78 223.906 2197.56 226.822 Q2200.33 229.739 2200.33 235.665 Z" fill="#000000" fill-rule="evenodd" fill-opacity="1" /><path clip-path="url(#clip720)" d="M2229.29 229.507 Q2230.89 226.637 2233.11 225.271 Q2235.33 223.906 2238.34 223.906 Q2242.39 223.906 2244.59 226.753 Q2246.79 229.577 2246.79 234.808 L2246.79 250.456 L2242.51 250.456 L2242.51 234.947 Q2242.51 231.22 2241.19 229.415 Q2239.87 227.609 2237.16 227.609 Q2233.85 227.609 2231.93 229.808 Q2230.01 232.007 2230.01 235.804 L2230.01 250.456 L2225.73 250.456 L2225.73 234.947 Q2225.73 231.197 2224.41 229.415 Q2223.09 227.609 2220.33 227.609 Q2217.07 227.609 2215.15 229.831 Q2213.23 232.03 2213.23 235.804 L2213.23 250.456 L2208.95 250.456 L2208.95 224.531 L2213.23 224.531 L2213.23 228.558 Q2214.69 226.174 2216.72 225.04 Q2218.76 223.906 2221.56 223.906 Q2224.39 223.906 2226.35 225.341 Q2228.34 226.776 2229.29 229.507 Z" fill="#000000" fill-rule="evenodd" fill-opacity="1" /><path clip-path="url(#clip720)" d="M2255.29 224.531 L2259.55 224.531 L2259.55 250.456 L2255.29 250.456 L2255.29 224.531 M2255.29 214.438 L2259.55 214.438 L2259.55 219.831 L2255.29 219.831 L2255.29 214.438 Z" fill="#000000" fill-rule="evenodd" fill-opacity="1" /><path clip-path="url(#clip720)" d="M2290.01 234.808 L2290.01 250.456 L2285.75 250.456 L2285.75 234.947 Q2285.75 231.267 2284.32 229.438 Q2282.88 227.609 2280.01 227.609 Q2276.56 227.609 2274.57 229.808 Q2272.58 232.007 2272.58 235.804 L2272.58 250.456 L2268.3 250.456 L2268.3 224.531 L2272.58 224.531 L2272.58 228.558 Q2274.11 226.22 2276.17 225.063 Q2278.25 223.906 2280.96 223.906 Q2285.43 223.906 2287.72 226.683 Q2290.01 229.438 2290.01 234.808 Z" fill="#000000" fill-rule="evenodd" fill-opacity="1" /><path clip-path="url(#clip720)" d="M2315.03 225.294 L2315.03 229.322 Q2313.23 228.396 2311.28 227.933 Q2309.34 227.47 2307.26 227.47 Q2304.08 227.47 2302.49 228.443 Q2300.91 229.415 2300.91 231.359 Q2300.91 232.841 2302.05 233.697 Q2303.18 234.53 2306.61 235.294 L2308.07 235.618 Q2312.6 236.591 2314.5 238.373 Q2316.42 240.132 2316.42 243.304 Q2316.42 246.915 2313.55 249.021 Q2310.7 251.128 2305.7 251.128 Q2303.62 251.128 2301.35 250.711 Q2299.11 250.317 2296.61 249.507 L2296.61 245.109 Q2298.97 246.336 2301.26 246.961 Q2303.55 247.563 2305.8 247.563 Q2308.81 247.563 2310.43 246.544 Q2312.05 245.503 2312.05 243.628 Q2312.05 241.892 2310.87 240.966 Q2309.71 240.04 2305.75 239.183 L2304.27 238.836 Q2300.31 238.003 2298.55 236.29 Q2296.79 234.554 2296.79 231.544 Q2296.79 227.887 2299.38 225.896 Q2301.98 223.906 2306.75 223.906 Q2309.11 223.906 2311.19 224.253 Q2313.27 224.6 2315.03 225.294 Z" fill="#000000" fill-rule="evenodd" fill-opacity="1" /><path clip-path="url(#clip720)" d="M2356.93 225.526 L2356.93 229.507 Q2355.13 228.512 2353.3 228.026 Q2351.49 227.517 2349.64 227.517 Q2345.5 227.517 2343.2 230.155 Q2340.91 232.771 2340.91 237.517 Q2340.91 242.262 2343.2 244.901 Q2345.5 247.516 2349.64 247.516 Q2351.49 247.516 2353.3 247.03 Q2355.13 246.521 2356.93 245.526 L2356.93 249.461 Q2355.15 250.294 2353.23 250.711 Q2351.33 251.128 2349.18 251.128 Q2343.32 251.128 2339.87 247.447 Q2336.42 243.767 2336.42 237.517 Q2336.42 231.174 2339.89 227.54 Q2343.39 223.906 2349.45 223.906 Q2351.42 223.906 2353.3 224.322 Q2355.17 224.716 2356.93 225.526 Z" fill="#000000" fill-rule="evenodd" fill-opacity="1" /><path clip-path="url(#clip720)" d="M2374.38 227.517 Q2370.96 227.517 2368.97 230.202 Q2366.98 232.864 2366.98 237.517 Q2366.98 242.169 2368.94 244.854 Q2370.94 247.516 2374.38 247.516 Q2377.79 247.516 2379.78 244.831 Q2381.77 242.146 2381.77 237.517 Q2381.77 232.91 2379.78 230.225 Q2377.79 227.517 2374.38 227.517 M2374.38 223.906 Q2379.94 223.906 2383.11 227.517 Q2386.28 231.128 2386.28 237.517 Q2386.28 243.882 2383.11 247.516 Q2379.94 251.128 2374.38 251.128 Q2368.81 251.128 2365.63 247.516 Q2362.49 243.882 2362.49 237.517 Q2362.49 231.128 2365.63 227.517 Q2368.81 223.906 2374.38 223.906 Z" fill="#000000" fill-rule="evenodd" fill-opacity="1" /><path clip-path="url(#clip720)" d="M2414.89 234.808 L2414.89 250.456 L2410.63 250.456 L2410.63 234.947 Q2410.63 231.267 2409.2 229.438 Q2407.76 227.609 2404.89 227.609 Q2401.44 227.609 2399.45 229.808 Q2397.46 232.007 2397.46 235.804 L2397.46 250.456 L2393.18 250.456 L2393.18 224.531 L2397.46 224.531 L2397.46 228.558 Q2398.99 226.22 2401.05 225.063 Q2403.13 223.906 2405.84 223.906 Q2410.31 223.906 2412.6 226.683 Q2414.89 229.438 2414.89 234.808 Z" fill="#000000" fill-rule="evenodd" fill-opacity="1" /><path clip-path="url(#clip720)" d="M2439.92 225.294 L2439.92 229.322 Q2438.11 228.396 2436.17 227.933 Q2434.22 227.47 2432.14 227.47 Q2428.97 227.47 2427.37 228.443 Q2425.8 229.415 2425.8 231.359 Q2425.8 232.841 2426.93 233.697 Q2428.06 234.53 2431.49 235.294 L2432.95 235.618 Q2437.49 236.591 2439.38 238.373 Q2441.31 240.132 2441.31 243.304 Q2441.31 246.915 2438.44 249.021 Q2435.59 251.128 2430.59 251.128 Q2428.5 251.128 2426.24 250.711 Q2423.99 250.317 2421.49 249.507 L2421.49 245.109 Q2423.85 246.336 2426.14 246.961 Q2428.44 247.563 2430.68 247.563 Q2433.69 247.563 2435.31 246.544 Q2436.93 245.503 2436.93 243.628 Q2436.93 241.892 2435.75 240.966 Q2434.59 240.04 2430.63 239.183 L2429.15 238.836 Q2425.19 238.003 2423.44 236.29 Q2421.68 234.554 2421.68 231.544 Q2421.68 227.887 2424.27 225.896 Q2426.86 223.906 2431.63 223.906 Q2433.99 223.906 2436.07 224.253 Q2438.16 224.6 2439.92 225.294 Z" fill="#000000" fill-rule="evenodd" fill-opacity="1" /><path clip-path="url(#clip720)" d="M2452.3 217.169 L2452.3 224.531 L2461.07 224.531 L2461.07 227.841 L2452.3 227.841 L2452.3 241.915 Q2452.3 245.086 2453.16 245.989 Q2454.04 246.891 2456.7 246.891 L2461.07 246.891 L2461.07 250.456 L2456.7 250.456 Q2451.77 250.456 2449.89 248.628 Q2448.02 246.776 2448.02 241.915 L2448.02 227.841 L2444.89 227.841 L2444.89 224.531 L2448.02 224.531 L2448.02 217.169 L2452.3 217.169 Z" fill="#000000" fill-rule="evenodd" fill-opacity="1" /><path clip-path="url(#clip720)" d="M2478.46 237.424 Q2473.3 237.424 2471.31 238.604 Q2469.31 239.785 2469.31 242.632 Q2469.31 244.901 2470.8 246.243 Q2472.3 247.563 2474.87 247.563 Q2478.41 247.563 2480.54 245.063 Q2482.69 242.54 2482.69 238.373 L2482.69 237.424 L2478.46 237.424 M2486.95 235.665 L2486.95 250.456 L2482.69 250.456 L2482.69 246.521 Q2481.24 248.882 2479.06 250.016 Q2476.88 251.128 2473.74 251.128 Q2469.75 251.128 2467.39 248.905 Q2465.06 246.66 2465.06 242.91 Q2465.06 238.535 2467.97 236.313 Q2470.91 234.091 2476.72 234.091 L2482.69 234.091 L2482.69 233.674 Q2482.69 230.734 2480.75 229.137 Q2478.83 227.517 2475.33 227.517 Q2473.11 227.517 2471 228.049 Q2468.9 228.581 2466.95 229.646 L2466.95 225.711 Q2469.29 224.808 2471.49 224.368 Q2473.69 223.906 2475.77 223.906 Q2481.4 223.906 2484.18 226.822 Q2486.95 229.739 2486.95 235.665 Z" fill="#000000" fill-rule="evenodd" fill-opacity="1" /><path clip-path="url(#clip720)" d="M2517.28 234.808 L2517.28 250.456 L2513.02 250.456 L2513.02 234.947 Q2513.02 231.267 2511.58 229.438 Q2510.15 227.609 2507.28 227.609 Q2503.83 227.609 2501.84 229.808 Q2499.85 232.007 2499.85 235.804 L2499.85 250.456 L2495.56 250.456 L2495.56 224.531 L2499.85 224.531 L2499.85 228.558 Q2501.37 226.22 2503.43 225.063 Q2505.52 223.906 2508.23 223.906 Q2512.69 223.906 2514.99 226.683 Q2517.28 229.438 2517.28 234.808 Z" fill="#000000" fill-rule="evenodd" fill-opacity="1" /><path clip-path="url(#clip720)" d="M2529.99 217.169 L2529.99 224.531 L2538.76 224.531 L2538.76 227.841 L2529.99 227.841 L2529.99 241.915 Q2529.99 245.086 2530.84 245.989 Q2531.72 246.891 2534.38 246.891 L2538.76 246.891 L2538.76 250.456 L2534.38 250.456 Q2529.45 250.456 2527.58 248.628 Q2525.7 246.776 2525.7 241.915 L2525.7 227.841 L2522.58 227.841 L2522.58 224.531 L2525.7 224.531 L2525.7 217.169 L2529.99 217.169 Z" fill="#000000" fill-rule="evenodd" fill-opacity="1" /></svg>
