<?xml version="1.0" encoding="utf-8"?>
<svg xmlns="http://www.w3.org/2000/svg" xmlns:xlink="http://www.w3.org/1999/xlink" width="672" height="480" viewBox="0 0 2688 1920">
<defs>
  <clipPath id="clip500">
    <rect x="0" y="0" width="2688" height="1920"/>
  </clipPath>
</defs>
<path clip-path="url(#clip500)" d="M0 1920 L2688 1920 L2688 0 L0 0  Z" fill="#ffffff" fill-rule="evenodd" fill-opacity="1"/>
<defs>
  <clipPath id="clip501">
    <rect x="537" y="0" width="1883" height="1883"/>
  </clipPath>
</defs>
<path clip-path="url(#clip500)" d="M383.987 1734.12 L2640.76 1734.12 L2640.76 127.792 L383.987 127.792  Z" fill="#ffffff" fill-rule="evenodd" fill-opacity="1"/>
<defs>
  <clipPath id="clip502">
    <rect x="383" y="127" width="2258" height="1607"/>
  </clipPath>
</defs>
<polyline clip-path="url(#clip502)" style="stroke:#000000; stroke-linecap:round; stroke-linejoin:round; stroke-width:2; stroke-opacity:0.1; fill:none" points="447.858,1734.12 447.858,127.792 "/>
<polyline clip-path="url(#clip502)" style="stroke:#000000; stroke-linecap:round; stroke-linejoin:round; stroke-width:2; stroke-opacity:0.1; fill:none" points="945.573,1734.12 945.573,127.792 "/>
<polyline clip-path="url(#clip502)" style="stroke:#000000; stroke-linecap:round; stroke-linejoin:round; stroke-width:2; stroke-opacity:0.1; fill:none" points="1443.29,1734.12 1443.29,127.792 "/>
<polyline clip-path="url(#clip502)" style="stroke:#000000; stroke-linecap:round; stroke-linejoin:round; stroke-width:2; stroke-opacity:0.1; fill:none" points="1941,1734.12 1941,127.792 "/>
<polyline clip-path="url(#clip502)" style="stroke:#000000; stroke-linecap:round; stroke-linejoin:round; stroke-width:2; stroke-opacity:0.1; fill:none" points="2438.72,1734.12 2438.72,127.792 "/>
<polyline clip-path="url(#clip500)" style="stroke:#000000; stroke-linecap:round; stroke-linejoin:round; stroke-width:4; stroke-opacity:1; fill:none" points="383.987,1734.12 2640.76,1734.12 "/>
<polyline clip-path="url(#clip500)" style="stroke:#000000; stroke-linecap:round; stroke-linejoin:round; stroke-width:4; stroke-opacity:1; fill:none" points="447.858,1734.12 447.858,1715.22 "/>
<polyline clip-path="url(#clip500)" style="stroke:#000000; stroke-linecap:round; stroke-linejoin:round; stroke-width:4; stroke-opacity:1; fill:none" points="945.573,1734.12 945.573,1715.22 "/>
<polyline clip-path="url(#clip500)" style="stroke:#000000; stroke-linecap:round; stroke-linejoin:round; stroke-width:4; stroke-opacity:1; fill:none" points="1443.29,1734.12 1443.29,1715.22 "/>
<polyline clip-path="url(#clip500)" style="stroke:#000000; stroke-linecap:round; stroke-linejoin:round; stroke-width:4; stroke-opacity:1; fill:none" points="1941,1734.12 1941,1715.22 "/>
<polyline clip-path="url(#clip500)" style="stroke:#000000; stroke-linecap:round; stroke-linejoin:round; stroke-width:4; stroke-opacity:1; fill:none" points="2438.72,1734.12 2438.72,1715.22 "/>
<path clip-path="url(#clip500)" d="M425.242 1767.34 Q421.631 1767.34 419.802 1770.9 Q417.997 1774.45 417.997 1781.58 Q417.997 1788.68 419.802 1792.25 Q421.631 1795.79 425.242 1795.79 Q428.876 1795.79 430.682 1792.25 Q432.511 1788.68 432.511 1781.58 Q432.511 1774.45 430.682 1770.9 Q428.876 1767.34 425.242 1767.34 M425.242 1763.64 Q431.052 1763.64 434.108 1768.24 Q437.187 1772.83 437.187 1781.58 Q437.187 1790.3 434.108 1794.91 Q431.052 1799.49 425.242 1799.49 Q419.432 1799.49 416.353 1794.91 Q413.298 1790.3 413.298 1781.58 Q413.298 1772.83 416.353 1768.24 Q419.432 1763.64 425.242 1763.64 Z" fill="#000000" fill-rule="evenodd" fill-opacity="1" /><path clip-path="url(#clip500)" d="M445.404 1792.94 L450.288 1792.94 L450.288 1798.82 L445.404 1798.82 L445.404 1792.94 Z" fill="#000000" fill-rule="evenodd" fill-opacity="1" /><path clip-path="url(#clip500)" d="M470.473 1767.34 Q466.862 1767.34 465.034 1770.9 Q463.228 1774.45 463.228 1781.58 Q463.228 1788.68 465.034 1792.25 Q466.862 1795.79 470.473 1795.79 Q474.108 1795.79 475.913 1792.25 Q477.742 1788.68 477.742 1781.58 Q477.742 1774.45 475.913 1770.9 Q474.108 1767.34 470.473 1767.34 M470.473 1763.64 Q476.284 1763.64 479.339 1768.24 Q482.418 1772.83 482.418 1781.58 Q482.418 1790.3 479.339 1794.91 Q476.284 1799.49 470.473 1799.49 Q464.663 1799.49 461.585 1794.91 Q458.529 1790.3 458.529 1781.58 Q458.529 1772.83 461.585 1768.24 Q464.663 1763.64 470.473 1763.64 Z" fill="#000000" fill-rule="evenodd" fill-opacity="1" /><path clip-path="url(#clip500)" d="M917.309 1794.89 L933.629 1794.89 L933.629 1798.82 L911.684 1798.82 L911.684 1794.89 Q914.346 1792.13 918.93 1787.5 Q923.536 1782.85 924.717 1781.51 Q926.962 1778.98 927.842 1777.25 Q928.745 1775.49 928.745 1773.8 Q928.745 1771.04 926.8 1769.31 Q924.879 1767.57 921.777 1767.57 Q919.578 1767.57 917.124 1768.34 Q914.694 1769.1 911.916 1770.65 L911.916 1765.93 Q914.74 1764.79 917.194 1764.21 Q919.647 1763.64 921.684 1763.64 Q927.055 1763.64 930.249 1766.32 Q933.444 1769.01 933.444 1773.5 Q933.444 1775.63 932.633 1777.55 Q931.846 1779.45 929.74 1782.04 Q929.161 1782.71 926.059 1785.93 Q922.958 1789.12 917.309 1794.89 Z" fill="#000000" fill-rule="evenodd" fill-opacity="1" /><path clip-path="url(#clip500)" d="M943.444 1792.94 L948.328 1792.94 L948.328 1798.82 L943.444 1798.82 L943.444 1792.94 Z" fill="#000000" fill-rule="evenodd" fill-opacity="1" /><path clip-path="url(#clip500)" d="M958.559 1764.26 L976.916 1764.26 L976.916 1768.2 L962.842 1768.2 L962.842 1776.67 Q963.86 1776.32 964.879 1776.16 Q965.897 1775.97 966.916 1775.97 Q972.703 1775.97 976.082 1779.15 Q979.462 1782.32 979.462 1787.73 Q979.462 1793.31 975.99 1796.41 Q972.517 1799.49 966.198 1799.49 Q964.022 1799.49 961.754 1799.12 Q959.508 1798.75 957.101 1798.01 L957.101 1793.31 Q959.184 1794.45 961.406 1795 Q963.629 1795.56 966.105 1795.56 Q970.11 1795.56 972.448 1793.45 Q974.786 1791.34 974.786 1787.73 Q974.786 1784.12 972.448 1782.02 Q970.11 1779.91 966.105 1779.91 Q964.23 1779.91 962.355 1780.33 Q960.504 1780.74 958.559 1781.62 L958.559 1764.26 Z" fill="#000000" fill-rule="evenodd" fill-opacity="1" /><path clip-path="url(#clip500)" d="M1410.45 1764.26 L1428.81 1764.26 L1428.81 1768.2 L1414.74 1768.2 L1414.74 1776.67 Q1415.75 1776.32 1416.77 1776.16 Q1417.79 1775.97 1418.81 1775.97 Q1424.6 1775.97 1427.98 1779.15 Q1431.36 1782.32 1431.36 1787.73 Q1431.36 1793.31 1427.88 1796.41 Q1424.41 1799.49 1418.09 1799.49 Q1415.92 1799.49 1413.65 1799.12 Q1411.4 1798.75 1408.99 1798.01 L1408.99 1793.31 Q1411.08 1794.45 1413.3 1795 Q1415.52 1795.56 1418 1795.56 Q1422 1795.56 1424.34 1793.45 Q1426.68 1791.34 1426.68 1787.73 Q1426.68 1784.12 1424.34 1782.02 Q1422 1779.91 1418 1779.91 Q1416.12 1779.91 1414.25 1780.33 Q1412.4 1780.74 1410.45 1781.62 L1410.45 1764.26 Z" fill="#000000" fill-rule="evenodd" fill-opacity="1" /><path clip-path="url(#clip500)" d="M1440.57 1792.94 L1445.45 1792.94 L1445.45 1798.82 L1440.57 1798.82 L1440.57 1792.94 Z" fill="#000000" fill-rule="evenodd" fill-opacity="1" /><path clip-path="url(#clip500)" d="M1465.64 1767.34 Q1462.03 1767.34 1460.2 1770.9 Q1458.39 1774.45 1458.39 1781.58 Q1458.39 1788.68 1460.2 1792.25 Q1462.03 1795.79 1465.64 1795.79 Q1469.27 1795.79 1471.08 1792.25 Q1472.91 1788.68 1472.91 1781.58 Q1472.91 1774.45 1471.08 1770.9 Q1469.27 1767.34 1465.64 1767.34 M1465.64 1763.64 Q1471.45 1763.64 1474.5 1768.24 Q1477.58 1772.83 1477.58 1781.58 Q1477.58 1790.3 1474.5 1794.91 Q1471.45 1799.49 1465.64 1799.49 Q1459.83 1799.49 1456.75 1794.91 Q1453.69 1790.3 1453.69 1781.58 Q1453.69 1772.83 1456.75 1768.24 Q1459.83 1763.64 1465.64 1763.64 Z" fill="#000000" fill-rule="evenodd" fill-opacity="1" /><path clip-path="url(#clip500)" d="M1907.32 1764.26 L1929.55 1764.26 L1929.55 1766.25 L1917 1798.82 L1912.12 1798.82 L1923.92 1768.2 L1907.32 1768.2 L1907.32 1764.26 Z" fill="#000000" fill-rule="evenodd" fill-opacity="1" /><path clip-path="url(#clip500)" d="M1938.67 1792.94 L1943.55 1792.94 L1943.55 1798.82 L1938.67 1798.82 L1938.67 1792.94 Z" fill="#000000" fill-rule="evenodd" fill-opacity="1" /><path clip-path="url(#clip500)" d="M1953.78 1764.26 L1972.14 1764.26 L1972.14 1768.2 L1958.06 1768.2 L1958.06 1776.67 Q1959.08 1776.32 1960.1 1776.16 Q1961.12 1775.97 1962.14 1775.97 Q1967.93 1775.97 1971.3 1779.15 Q1974.68 1782.32 1974.68 1787.73 Q1974.68 1793.31 1971.21 1796.41 Q1967.74 1799.49 1961.42 1799.49 Q1959.24 1799.49 1956.98 1799.12 Q1954.73 1798.75 1952.32 1798.01 L1952.32 1793.31 Q1954.41 1794.45 1956.63 1795 Q1958.85 1795.56 1961.33 1795.56 Q1965.33 1795.56 1967.67 1793.45 Q1970.01 1791.34 1970.01 1787.73 Q1970.01 1784.12 1967.67 1782.02 Q1965.33 1779.91 1961.33 1779.91 Q1959.45 1779.91 1957.58 1780.33 Q1955.73 1780.74 1953.78 1781.62 L1953.78 1764.26 Z" fill="#000000" fill-rule="evenodd" fill-opacity="1" /><path clip-path="url(#clip500)" d="M2390.79 1794.89 L2398.43 1794.89 L2398.43 1768.52 L2390.12 1770.19 L2390.12 1765.93 L2398.38 1764.26 L2403.06 1764.26 L2403.06 1794.89 L2410.7 1794.89 L2410.7 1798.82 L2390.79 1798.82 L2390.79 1794.89 Z" fill="#000000" fill-rule="evenodd" fill-opacity="1" /><path clip-path="url(#clip500)" d="M2430.14 1767.34 Q2426.53 1767.34 2424.7 1770.9 Q2422.9 1774.45 2422.9 1781.58 Q2422.9 1788.68 2424.7 1792.25 Q2426.53 1795.79 2430.14 1795.79 Q2433.78 1795.79 2435.58 1792.25 Q2437.41 1788.68 2437.41 1781.58 Q2437.41 1774.45 2435.58 1770.9 Q2433.78 1767.34 2430.14 1767.34 M2430.14 1763.64 Q2435.95 1763.64 2439.01 1768.24 Q2442.09 1772.83 2442.09 1781.58 Q2442.09 1790.3 2439.01 1794.91 Q2435.95 1799.49 2430.14 1799.49 Q2424.33 1799.49 2421.25 1794.91 Q2418.2 1790.3 2418.2 1781.58 Q2418.2 1772.83 2421.25 1768.24 Q2424.33 1763.64 2430.14 1763.64 Z" fill="#000000" fill-rule="evenodd" fill-opacity="1" /><path clip-path="url(#clip500)" d="M2450.3 1792.94 L2455.19 1792.94 L2455.19 1798.82 L2450.3 1798.82 L2450.3 1792.94 Z" fill="#000000" fill-rule="evenodd" fill-opacity="1" /><path clip-path="url(#clip500)" d="M2475.37 1767.34 Q2471.76 1767.34 2469.93 1770.9 Q2468.13 1774.45 2468.13 1781.58 Q2468.13 1788.68 2469.93 1792.25 Q2471.76 1795.79 2475.37 1795.79 Q2479.01 1795.79 2480.81 1792.25 Q2482.64 1788.68 2482.64 1781.58 Q2482.64 1774.45 2480.81 1770.9 Q2479.01 1767.34 2475.37 1767.34 M2475.37 1763.64 Q2481.18 1763.64 2484.24 1768.24 Q2487.32 1772.83 2487.32 1781.58 Q2487.32 1790.3 2484.24 1794.91 Q2481.18 1799.49 2475.37 1799.49 Q2469.56 1799.49 2466.49 1794.91 Q2463.43 1790.3 2463.43 1781.58 Q2463.43 1772.83 2466.49 1768.24 Q2469.56 1763.64 2475.37 1763.64 Z" fill="#000000" fill-rule="evenodd" fill-opacity="1" /><path clip-path="url(#clip500)" d="M1330.52 1835.78 L1370.72 1835.78 L1370.72 1841.19 L1353.85 1841.19 L1353.85 1883.3 L1347.39 1883.3 L1347.39 1841.19 L1330.52 1841.19 L1330.52 1835.78 Z" fill="#000000" fill-rule="evenodd" fill-opacity="1" /><path clip-path="url(#clip500)" d="M1374.67 1847.65 L1380.52 1847.65 L1380.52 1883.3 L1374.67 1883.3 L1374.67 1847.65 M1374.67 1833.78 L1380.52 1833.78 L1380.52 1841.19 L1374.67 1841.19 L1374.67 1833.78 Z" fill="#000000" fill-rule="evenodd" fill-opacity="1" /><path clip-path="url(#clip500)" d="M1420.53 1854.5 Q1422.73 1850.55 1425.78 1848.67 Q1428.84 1846.79 1432.98 1846.79 Q1438.55 1846.79 1441.57 1850.71 Q1444.59 1854.59 1444.59 1861.78 L1444.59 1883.3 L1438.7 1883.3 L1438.7 1861.98 Q1438.7 1856.85 1436.89 1854.37 Q1435.08 1851.89 1431.35 1851.89 Q1426.8 1851.89 1424.16 1854.91 Q1421.52 1857.93 1421.52 1863.15 L1421.52 1883.3 L1415.63 1883.3 L1415.63 1861.98 Q1415.63 1856.82 1413.81 1854.37 Q1412 1851.89 1408.21 1851.89 Q1403.72 1851.89 1401.08 1854.94 Q1398.44 1857.97 1398.44 1863.15 L1398.44 1883.3 L1392.55 1883.3 L1392.55 1847.65 L1398.44 1847.65 L1398.44 1853.19 Q1400.45 1849.91 1403.25 1848.35 Q1406.05 1846.79 1409.9 1846.79 Q1413.78 1846.79 1416.49 1848.77 Q1419.23 1850.74 1420.53 1854.5 Z" fill="#000000" fill-rule="evenodd" fill-opacity="1" /><path clip-path="url(#clip500)" d="M1486.77 1864.01 L1486.77 1866.88 L1459.84 1866.88 Q1460.22 1872.92 1463.47 1876.11 Q1466.75 1879.26 1472.57 1879.26 Q1475.94 1879.26 1479.09 1878.43 Q1482.28 1877.6 1485.4 1875.95 L1485.4 1881.49 Q1482.25 1882.82 1478.94 1883.52 Q1475.63 1884.22 1472.22 1884.22 Q1463.69 1884.22 1458.69 1879.26 Q1453.73 1874.29 1453.73 1865.83 Q1453.73 1857.07 1458.44 1851.95 Q1463.18 1846.79 1471.2 1846.79 Q1478.39 1846.79 1482.56 1851.44 Q1486.77 1856.06 1486.77 1864.01 M1480.91 1862.29 Q1480.85 1857.49 1478.2 1854.62 Q1475.59 1851.76 1471.26 1851.76 Q1466.36 1851.76 1463.4 1854.53 Q1460.47 1857.3 1460.03 1862.33 L1480.91 1862.29 Z" fill="#000000" fill-rule="evenodd" fill-opacity="1" /><path clip-path="url(#clip500)" d="M1531.17 1833.84 Q1526.9 1841.16 1524.83 1848.32 Q1522.76 1855.48 1522.76 1862.84 Q1522.76 1870.19 1524.83 1877.41 Q1526.93 1884.61 1531.17 1891.89 L1526.07 1891.89 Q1521.3 1884.41 1518.91 1877.19 Q1516.56 1869.96 1516.56 1862.84 Q1516.56 1855.74 1518.91 1848.54 Q1521.27 1841.35 1526.07 1833.84 L1531.17 1833.84 Z" fill="#000000" fill-rule="evenodd" fill-opacity="1" /><path clip-path="url(#clip500)" d="M1536.26 1835.78 L1543.17 1835.78 L1556.34 1855.32 L1569.42 1835.78 L1576.33 1835.78 L1559.53 1860.67 L1559.53 1883.3 L1553.06 1883.3 L1553.06 1860.67 L1536.26 1835.78 Z" fill="#000000" fill-rule="evenodd" fill-opacity="1" /><path clip-path="url(#clip500)" d="M1604.18 1864.01 L1604.18 1866.88 L1577.25 1866.88 Q1577.64 1872.92 1580.88 1876.11 Q1584.16 1879.26 1589.99 1879.26 Q1593.36 1879.26 1596.51 1878.43 Q1599.69 1877.6 1602.81 1875.95 L1602.81 1881.49 Q1599.66 1882.82 1596.35 1883.52 Q1593.04 1884.22 1589.64 1884.22 Q1581.11 1884.22 1576.11 1879.26 Q1571.14 1874.29 1571.14 1865.83 Q1571.14 1857.07 1575.85 1851.95 Q1580.6 1846.79 1588.62 1846.79 Q1595.81 1846.79 1599.98 1851.44 Q1604.18 1856.06 1604.18 1864.01 M1598.32 1862.29 Q1598.26 1857.49 1595.62 1854.62 Q1593.01 1851.76 1588.68 1851.76 Q1583.78 1851.76 1580.82 1854.53 Q1577.89 1857.3 1577.44 1862.33 L1598.32 1862.29 Z" fill="#000000" fill-rule="evenodd" fill-opacity="1" /><path clip-path="url(#clip500)" d="M1629.99 1865.38 Q1622.9 1865.38 1620.16 1867 Q1617.42 1868.63 1617.42 1872.54 Q1617.42 1875.66 1619.46 1877.51 Q1621.53 1879.32 1625.06 1879.32 Q1629.93 1879.32 1632.86 1875.88 Q1635.82 1872.42 1635.82 1866.69 L1635.82 1865.38 L1629.99 1865.38 M1641.67 1862.96 L1641.67 1883.3 L1635.82 1883.3 L1635.82 1877.89 Q1633.81 1881.14 1630.82 1882.7 Q1627.83 1884.22 1623.5 1884.22 Q1618.03 1884.22 1614.78 1881.17 Q1611.57 1878.08 1611.57 1872.92 Q1611.57 1866.91 1615.58 1863.85 Q1619.62 1860.8 1627.61 1860.8 L1635.82 1860.8 L1635.82 1860.23 Q1635.82 1856.18 1633.14 1853.99 Q1630.5 1851.76 1625.7 1851.76 Q1622.64 1851.76 1619.74 1852.49 Q1616.85 1853.22 1614.17 1854.69 L1614.17 1849.28 Q1617.39 1848.03 1620.41 1847.43 Q1623.44 1846.79 1626.3 1846.79 Q1634.04 1846.79 1637.86 1850.8 Q1641.67 1854.81 1641.67 1862.96 Z" fill="#000000" fill-rule="evenodd" fill-opacity="1" /><path clip-path="url(#clip500)" d="M1674.39 1853.13 Q1673.41 1852.55 1672.23 1852.3 Q1671.08 1852.01 1669.68 1852.01 Q1664.72 1852.01 1662.05 1855.26 Q1659.4 1858.47 1659.4 1864.52 L1659.4 1883.3 L1653.52 1883.3 L1653.52 1847.65 L1659.4 1847.65 L1659.4 1853.19 Q1661.25 1849.94 1664.21 1848.39 Q1667.17 1846.79 1671.4 1846.79 Q1672.01 1846.79 1672.74 1846.89 Q1673.47 1846.95 1674.36 1847.11 L1674.39 1853.13 Z" fill="#000000" fill-rule="evenodd" fill-opacity="1" /><path clip-path="url(#clip500)" d="M1679.61 1833.84 L1684.71 1833.84 Q1689.48 1841.35 1691.84 1848.54 Q1694.22 1855.74 1694.22 1862.84 Q1694.22 1869.96 1691.84 1877.19 Q1689.48 1884.41 1684.71 1891.89 L1679.61 1891.89 Q1683.85 1884.61 1685.92 1877.41 Q1688.02 1870.19 1688.02 1862.84 Q1688.02 1855.48 1685.92 1848.32 Q1683.85 1841.16 1679.61 1833.84 Z" fill="#000000" fill-rule="evenodd" fill-opacity="1" /><polyline clip-path="url(#clip502)" style="stroke:#000000; stroke-linecap:round; stroke-linejoin:round; stroke-width:2; stroke-opacity:0.1; fill:none" points="383.987,1365.99 2640.76,1365.99 "/>
<polyline clip-path="url(#clip502)" style="stroke:#000000; stroke-linecap:round; stroke-linejoin:round; stroke-width:2; stroke-opacity:0.1; fill:none" points="383.987,968.41 2640.76,968.41 "/>
<polyline clip-path="url(#clip502)" style="stroke:#000000; stroke-linecap:round; stroke-linejoin:round; stroke-width:2; stroke-opacity:0.1; fill:none" points="383.987,570.832 2640.76,570.832 "/>
<polyline clip-path="url(#clip502)" style="stroke:#000000; stroke-linecap:round; stroke-linejoin:round; stroke-width:2; stroke-opacity:0.1; fill:none" points="383.987,173.254 2640.76,173.254 "/>
<polyline clip-path="url(#clip500)" style="stroke:#000000; stroke-linecap:round; stroke-linejoin:round; stroke-width:4; stroke-opacity:1; fill:none" points="383.987,1734.12 383.987,127.792 "/>
<polyline clip-path="url(#clip500)" style="stroke:#000000; stroke-linecap:round; stroke-linejoin:round; stroke-width:4; stroke-opacity:1; fill:none" points="383.987,1365.99 402.885,1365.99 "/>
<polyline clip-path="url(#clip500)" style="stroke:#000000; stroke-linecap:round; stroke-linejoin:round; stroke-width:4; stroke-opacity:1; fill:none" points="383.987,968.41 402.885,968.41 "/>
<polyline clip-path="url(#clip500)" style="stroke:#000000; stroke-linecap:round; stroke-linejoin:round; stroke-width:4; stroke-opacity:1; fill:none" points="383.987,570.832 402.885,570.832 "/>
<polyline clip-path="url(#clip500)" style="stroke:#000000; stroke-linecap:round; stroke-linejoin:round; stroke-width:4; stroke-opacity:1; fill:none" points="383.987,173.254 402.885,173.254 "/>
<path clip-path="url(#clip500)" d="M116.214 1372.89 L145.89 1372.89 L145.89 1376.82 L116.214 1376.82 L116.214 1372.89 Z" fill="#000000" fill-rule="evenodd" fill-opacity="1" /><path clip-path="url(#clip500)" d="M170.149 1371.08 Q173.506 1371.8 175.381 1374.07 Q177.279 1376.34 177.279 1379.67 Q177.279 1384.79 173.76 1387.59 Q170.242 1390.39 163.76 1390.39 Q161.585 1390.39 159.27 1389.95 Q156.978 1389.53 154.524 1388.67 L154.524 1384.16 Q156.469 1385.29 158.784 1385.87 Q161.098 1386.45 163.622 1386.45 Q168.02 1386.45 170.311 1384.72 Q172.626 1382.98 172.626 1379.67 Q172.626 1376.61 170.473 1374.9 Q168.344 1373.17 164.524 1373.17 L160.497 1373.17 L160.497 1369.32 L164.71 1369.32 Q168.159 1369.32 169.987 1367.96 Q171.816 1366.57 171.816 1363.98 Q171.816 1361.31 169.918 1359.9 Q168.043 1358.47 164.524 1358.47 Q162.603 1358.47 160.404 1358.88 Q158.205 1359.3 155.566 1360.18 L155.566 1356.01 Q158.228 1355.27 160.543 1354.9 Q162.881 1354.53 164.941 1354.53 Q170.265 1354.53 173.367 1356.96 Q176.469 1359.37 176.469 1363.49 Q176.469 1366.36 174.825 1368.35 Q173.182 1370.32 170.149 1371.08 Z" fill="#000000" fill-rule="evenodd" fill-opacity="1" /><path clip-path="url(#clip500)" d="M186.145 1383.84 L191.029 1383.84 L191.029 1389.72 L186.145 1389.72 L186.145 1383.84 Z" fill="#000000" fill-rule="evenodd" fill-opacity="1" /><path clip-path="url(#clip500)" d="M211.214 1358.23 Q207.603 1358.23 205.774 1361.8 Q203.969 1365.34 203.969 1372.47 Q203.969 1379.58 205.774 1383.14 Q207.603 1386.68 211.214 1386.68 Q214.848 1386.68 216.654 1383.14 Q218.482 1379.58 218.482 1372.47 Q218.482 1365.34 216.654 1361.8 Q214.848 1358.23 211.214 1358.23 M211.214 1354.53 Q217.024 1354.53 220.08 1359.14 Q223.158 1363.72 223.158 1372.47 Q223.158 1381.2 220.08 1385.8 Q217.024 1390.39 211.214 1390.39 Q205.404 1390.39 202.325 1385.8 Q199.27 1381.2 199.27 1372.47 Q199.27 1363.72 202.325 1359.14 Q205.404 1354.53 211.214 1354.53 Z" fill="#000000" fill-rule="evenodd" fill-opacity="1" /><path clip-path="url(#clip500)" d="M259.547 1364.25 L248.968 1374.88 L259.547 1385.46 L256.792 1388.26 L246.167 1377.63 L235.543 1388.26 L232.811 1385.46 L243.367 1374.88 L232.811 1364.25 L235.543 1361.45 L246.167 1372.08 L256.792 1361.45 L259.547 1364.25 Z" fill="#000000" fill-rule="evenodd" fill-opacity="1" /><path clip-path="url(#clip500)" d="M271.908 1385.78 L279.547 1385.78 L279.547 1359.42 L271.237 1361.08 L271.237 1356.82 L279.501 1355.16 L284.177 1355.16 L284.177 1385.78 L291.815 1385.78 L291.815 1389.72 L271.908 1389.72 L271.908 1385.78 Z" fill="#000000" fill-rule="evenodd" fill-opacity="1" /><path clip-path="url(#clip500)" d="M311.26 1358.23 Q307.649 1358.23 305.82 1361.8 Q304.014 1365.34 304.014 1372.47 Q304.014 1379.58 305.82 1383.14 Q307.649 1386.68 311.26 1386.68 Q314.894 1386.68 316.699 1383.14 Q318.528 1379.58 318.528 1372.47 Q318.528 1365.34 316.699 1361.8 Q314.894 1358.23 311.26 1358.23 M311.26 1354.53 Q317.07 1354.53 320.125 1359.14 Q323.204 1363.72 323.204 1372.47 Q323.204 1381.2 320.125 1385.8 Q317.07 1390.39 311.26 1390.39 Q305.45 1390.39 302.371 1385.8 Q299.315 1381.2 299.315 1372.47 Q299.315 1363.72 302.371 1359.14 Q305.45 1354.53 311.26 1354.53 Z" fill="#000000" fill-rule="evenodd" fill-opacity="1" /><path clip-path="url(#clip500)" d="M335.881 1337.54 L326.289 1352.53 L335.881 1352.53 L335.881 1337.54 M334.884 1334.23 L339.661 1334.23 L339.661 1352.53 L343.667 1352.53 L343.667 1355.69 L339.661 1355.69 L339.661 1362.31 L335.881 1362.31 L335.881 1355.69 L323.204 1355.69 L323.204 1352.02 L334.884 1334.23 Z" fill="#000000" fill-rule="evenodd" fill-opacity="1" /><path clip-path="url(#clip500)" d="M116.214 975.309 L145.89 975.309 L145.89 979.244 L116.214 979.244 L116.214 975.309 Z" fill="#000000" fill-rule="evenodd" fill-opacity="1" /><path clip-path="url(#clip500)" d="M160.011 988.203 L176.33 988.203 L176.33 992.138 L154.386 992.138 L154.386 988.203 Q157.048 985.448 161.631 980.818 Q166.237 976.166 167.418 974.823 Q169.663 972.3 170.543 970.564 Q171.446 968.805 171.446 967.115 Q171.446 964.36 169.501 962.624 Q167.58 960.888 164.478 960.888 Q162.279 960.888 159.825 961.652 Q157.395 962.416 154.617 963.967 L154.617 959.245 Q157.441 958.11 159.895 957.532 Q162.348 956.953 164.385 956.953 Q169.756 956.953 172.95 959.638 Q176.145 962.323 176.145 966.814 Q176.145 968.944 175.334 970.865 Q174.547 972.763 172.441 975.356 Q171.862 976.027 168.76 979.244 Q165.659 982.439 160.011 988.203 Z" fill="#000000" fill-rule="evenodd" fill-opacity="1" /><path clip-path="url(#clip500)" d="M186.145 986.258 L191.029 986.258 L191.029 992.138 L186.145 992.138 L186.145 986.258 Z" fill="#000000" fill-rule="evenodd" fill-opacity="1" /><path clip-path="url(#clip500)" d="M211.214 960.657 Q207.603 960.657 205.774 964.221 Q203.969 967.763 203.969 974.893 Q203.969 981.999 205.774 985.564 Q207.603 989.105 211.214 989.105 Q214.848 989.105 216.654 985.564 Q218.482 981.999 218.482 974.893 Q218.482 967.763 216.654 964.221 Q214.848 960.657 211.214 960.657 M211.214 956.953 Q217.024 956.953 220.08 961.559 Q223.158 966.143 223.158 974.893 Q223.158 983.619 220.08 988.226 Q217.024 992.809 211.214 992.809 Q205.404 992.809 202.325 988.226 Q199.27 983.619 199.27 974.893 Q199.27 966.143 202.325 961.559 Q205.404 956.953 211.214 956.953 Z" fill="#000000" fill-rule="evenodd" fill-opacity="1" /><path clip-path="url(#clip500)" d="M259.547 966.675 L248.968 977.3 L259.547 987.879 L256.792 990.68 L246.167 980.055 L235.543 990.68 L232.811 987.879 L243.367 977.3 L232.811 966.675 L235.543 963.874 L246.167 974.499 L256.792 963.874 L259.547 966.675 Z" fill="#000000" fill-rule="evenodd" fill-opacity="1" /><path clip-path="url(#clip500)" d="M271.908 988.203 L279.547 988.203 L279.547 961.837 L271.237 963.504 L271.237 959.245 L279.501 957.578 L284.177 957.578 L284.177 988.203 L291.815 988.203 L291.815 992.138 L271.908 992.138 L271.908 988.203 Z" fill="#000000" fill-rule="evenodd" fill-opacity="1" /><path clip-path="url(#clip500)" d="M311.26 960.657 Q307.649 960.657 305.82 964.221 Q304.014 967.763 304.014 974.893 Q304.014 981.999 305.82 985.564 Q307.649 989.105 311.26 989.105 Q314.894 989.105 316.699 985.564 Q318.528 981.999 318.528 974.893 Q318.528 967.763 316.699 964.221 Q314.894 960.657 311.26 960.657 M311.26 956.953 Q317.07 956.953 320.125 961.559 Q323.204 966.143 323.204 974.893 Q323.204 983.619 320.125 988.226 Q317.07 992.809 311.26 992.809 Q305.45 992.809 302.371 988.226 Q299.315 983.619 299.315 974.893 Q299.315 966.143 302.371 961.559 Q305.45 956.953 311.26 956.953 Z" fill="#000000" fill-rule="evenodd" fill-opacity="1" /><path clip-path="url(#clip500)" d="M335.881 939.958 L326.289 954.947 L335.881 954.947 L335.881 939.958 M334.884 936.647 L339.661 936.647 L339.661 954.947 L343.667 954.947 L343.667 958.107 L339.661 958.107 L339.661 964.727 L335.881 964.727 L335.881 958.107 L323.204 958.107 L323.204 954.44 L334.884 936.647 Z" fill="#000000" fill-rule="evenodd" fill-opacity="1" /><path clip-path="url(#clip500)" d="M116.214 577.731 L145.89 577.731 L145.89 581.666 L116.214 581.666 L116.214 577.731 Z" fill="#000000" fill-rule="evenodd" fill-opacity="1" /><path clip-path="url(#clip500)" d="M156.793 590.625 L164.432 590.625 L164.432 564.259 L156.122 565.926 L156.122 561.666 L164.385 560 L169.061 560 L169.061 590.625 L176.7 590.625 L176.7 594.56 L156.793 594.56 L156.793 590.625 Z" fill="#000000" fill-rule="evenodd" fill-opacity="1" /><path clip-path="url(#clip500)" d="M186.145 588.68 L191.029 588.68 L191.029 594.56 L186.145 594.56 L186.145 588.68 Z" fill="#000000" fill-rule="evenodd" fill-opacity="1" /><path clip-path="url(#clip500)" d="M211.214 563.079 Q207.603 563.079 205.774 566.643 Q203.969 570.185 203.969 577.315 Q203.969 584.421 205.774 587.986 Q207.603 591.527 211.214 591.527 Q214.848 591.527 216.654 587.986 Q218.482 584.421 218.482 577.315 Q218.482 570.185 216.654 566.643 Q214.848 563.079 211.214 563.079 M211.214 559.375 Q217.024 559.375 220.08 563.981 Q223.158 568.565 223.158 577.315 Q223.158 586.041 220.08 590.648 Q217.024 595.231 211.214 595.231 Q205.404 595.231 202.325 590.648 Q199.27 586.041 199.27 577.315 Q199.27 568.565 202.325 563.981 Q205.404 559.375 211.214 559.375 Z" fill="#000000" fill-rule="evenodd" fill-opacity="1" /><path clip-path="url(#clip500)" d="M259.547 569.097 L248.968 579.722 L259.547 590.301 L256.792 593.101 L246.167 582.477 L235.543 593.101 L232.811 590.301 L243.367 579.722 L232.811 569.097 L235.543 566.296 L246.167 576.921 L256.792 566.296 L259.547 569.097 Z" fill="#000000" fill-rule="evenodd" fill-opacity="1" /><path clip-path="url(#clip500)" d="M271.908 590.625 L279.547 590.625 L279.547 564.259 L271.237 565.926 L271.237 561.666 L279.501 560 L284.177 560 L284.177 590.625 L291.815 590.625 L291.815 594.56 L271.908 594.56 L271.908 590.625 Z" fill="#000000" fill-rule="evenodd" fill-opacity="1" /><path clip-path="url(#clip500)" d="M311.26 563.079 Q307.649 563.079 305.82 566.643 Q304.014 570.185 304.014 577.315 Q304.014 584.421 305.82 587.986 Q307.649 591.527 311.26 591.527 Q314.894 591.527 316.699 587.986 Q318.528 584.421 318.528 577.315 Q318.528 570.185 316.699 566.643 Q314.894 563.079 311.26 563.079 M311.26 559.375 Q317.07 559.375 320.125 563.981 Q323.204 568.565 323.204 577.315 Q323.204 586.041 320.125 590.648 Q317.07 595.231 311.26 595.231 Q305.45 595.231 302.371 590.648 Q299.315 586.041 299.315 577.315 Q299.315 568.565 302.371 563.981 Q305.45 559.375 311.26 559.375 Z" fill="#000000" fill-rule="evenodd" fill-opacity="1" /><path clip-path="url(#clip500)" d="M335.881 542.38 L326.289 557.369 L335.881 557.369 L335.881 542.38 M334.884 539.069 L339.661 539.069 L339.661 557.369 L343.667 557.369 L343.667 560.529 L339.661 560.529 L339.661 567.149 L335.881 567.149 L335.881 560.529 L323.204 560.529 L323.204 556.862 L334.884 539.069 Z" fill="#000000" fill-rule="evenodd" fill-opacity="1" /><path clip-path="url(#clip500)" d="M331.723 159.053 Q328.111 159.053 326.283 162.618 Q324.477 166.159 324.477 173.289 Q324.477 180.395 326.283 183.96 Q328.111 187.502 331.723 187.502 Q335.357 187.502 337.162 183.96 Q338.991 180.395 338.991 173.289 Q338.991 166.159 337.162 162.618 Q335.357 159.053 331.723 159.053 M331.723 155.349 Q337.533 155.349 340.588 159.956 Q343.667 164.539 343.667 173.289 Q343.667 182.016 340.588 186.622 Q337.533 191.205 331.723 191.205 Q325.912 191.205 322.834 186.622 Q319.778 182.016 319.778 173.289 Q319.778 164.539 322.834 159.956 Q325.912 155.349 331.723 155.349 Z" fill="#000000" fill-rule="evenodd" fill-opacity="1" /><path clip-path="url(#clip500)" d="M14.1184 1699.15 L14.1184 1692.72 L61.6384 1692.72 L61.6384 1699.15 L14.1184 1699.15 Z" fill="#000000" fill-rule="evenodd" fill-opacity="1" /><path clip-path="url(#clip500)" d="M40.1224 1650.55 L61.6384 1650.55 L61.6384 1656.41 L40.3133 1656.41 Q35.2526 1656.41 32.7381 1658.38 Q30.2237 1660.35 30.2237 1664.3 Q30.2237 1669.04 33.2474 1671.78 Q36.2711 1674.52 41.491 1674.52 L61.6384 1674.52 L61.6384 1680.41 L25.9905 1680.41 L25.9905 1674.52 L31.5287 1674.52 Q28.314 1672.42 26.7225 1669.58 Q25.1311 1666.72 25.1311 1662.99 Q25.1311 1656.85 28.9505 1653.7 Q32.7381 1650.55 40.1224 1650.55 Z" fill="#000000" fill-rule="evenodd" fill-opacity="1" /><path clip-path="url(#clip500)" d="M27.3591 1613.22 L32.8336 1613.22 Q31.465 1615.7 30.7966 1618.21 Q30.0964 1620.69 30.0964 1623.24 Q30.0964 1628.94 33.7248 1632.09 Q37.3214 1635.24 43.8463 1635.24 Q50.3711 1635.24 53.9996 1632.09 Q57.5962 1628.94 57.5962 1623.24 Q57.5962 1620.69 56.9278 1618.21 Q56.2276 1615.7 54.859 1613.22 L60.2698 1613.22 Q61.4156 1615.67 61.9886 1618.31 Q62.5615 1620.92 62.5615 1623.88 Q62.5615 1631.93 57.5007 1636.67 Q52.44 1641.42 43.8463 1641.42 Q35.1253 1641.42 30.1282 1636.64 Q25.1311 1631.83 25.1311 1623.5 Q25.1311 1620.79 25.704 1618.21 Q26.2451 1615.63 27.3591 1613.22 Z" fill="#000000" fill-rule="evenodd" fill-opacity="1" /><path clip-path="url(#clip500)" d="M31.465 1582.37 Q30.8921 1583.36 30.6375 1584.54 Q30.351 1585.68 30.351 1587.08 Q30.351 1592.05 33.5975 1594.72 Q36.8122 1597.36 42.8596 1597.36 L61.6384 1597.36 L61.6384 1603.25 L25.9905 1603.25 L25.9905 1597.36 L31.5287 1597.36 Q28.2821 1595.52 26.7225 1592.56 Q25.1311 1589.6 25.1311 1585.37 Q25.1311 1584.76 25.2266 1584.03 Q25.2903 1583.3 25.4494 1582.41 L31.465 1582.37 Z" fill="#000000" fill-rule="evenodd" fill-opacity="1" /><path clip-path="url(#clip500)" d="M42.3504 1547.17 L45.2149 1547.17 L45.2149 1574.1 Q51.2623 1573.72 54.4452 1570.47 Q57.5962 1567.19 57.5962 1561.37 Q57.5962 1557.99 56.7687 1554.84 Q55.9411 1551.66 54.2861 1548.54 L59.8242 1548.54 Q61.161 1551.69 61.8612 1555 Q62.5615 1558.31 62.5615 1561.72 Q62.5615 1570.25 57.5962 1575.24 Q52.631 1580.21 44.1646 1580.21 Q35.4117 1580.21 30.2873 1575.5 Q25.1311 1570.76 25.1311 1562.74 Q25.1311 1555.54 29.7781 1551.37 Q34.3932 1547.17 42.3504 1547.17 M40.6316 1553.03 Q35.8255 1553.09 32.9609 1555.73 Q30.0964 1558.34 30.0964 1562.67 Q30.0964 1567.57 32.8654 1570.53 Q35.6345 1573.46 40.6634 1573.91 L40.6316 1553.03 Z" fill="#000000" fill-rule="evenodd" fill-opacity="1" /><path clip-path="url(#clip500)" d="M43.719 1521.36 Q43.719 1528.46 45.3422 1531.19 Q46.9655 1533.93 50.8804 1533.93 Q53.9996 1533.93 55.8457 1531.89 Q57.6599 1529.82 57.6599 1526.29 Q57.6599 1521.42 54.2224 1518.49 Q50.7531 1515.53 45.0239 1515.53 L43.719 1515.53 L43.719 1521.36 M41.3 1509.68 L61.6384 1509.68 L61.6384 1515.53 L56.2276 1515.53 Q59.4741 1517.54 61.0337 1520.53 Q62.5615 1523.52 62.5615 1527.85 Q62.5615 1533.33 59.5059 1536.57 Q56.4186 1539.79 51.2623 1539.79 Q45.2467 1539.79 42.1912 1535.78 Q39.1357 1531.73 39.1357 1523.75 L39.1357 1515.53 L38.5628 1515.53 Q34.5205 1515.53 32.3244 1518.21 Q30.0964 1520.85 30.0964 1525.65 Q30.0964 1528.71 30.8284 1531.61 Q31.5605 1534.5 33.0246 1537.18 L27.6137 1537.18 Q26.3724 1533.96 25.7677 1530.94 Q25.1311 1527.91 25.1311 1525.05 Q25.1311 1517.32 29.1415 1513.5 Q33.1519 1509.68 41.3 1509.68 Z" fill="#000000" fill-rule="evenodd" fill-opacity="1" /><path clip-path="url(#clip500)" d="M32.8336 1469.86 Q28.8869 1467.66 27.009 1464.61 Q25.1311 1461.55 25.1311 1457.41 Q25.1311 1451.84 29.046 1448.82 Q32.9291 1445.8 40.1224 1445.8 L61.6384 1445.8 L61.6384 1451.69 L40.3133 1451.69 Q35.1889 1451.69 32.7063 1453.5 Q30.2237 1455.31 30.2237 1459.04 Q30.2237 1463.59 33.2474 1466.23 Q36.2711 1468.87 41.491 1468.87 L61.6384 1468.87 L61.6384 1474.76 L40.3133 1474.76 Q35.1571 1474.76 32.7063 1476.58 Q30.2237 1478.39 30.2237 1482.18 Q30.2237 1486.66 33.2792 1489.31 Q36.3029 1491.95 41.491 1491.95 L61.6384 1491.95 L61.6384 1497.84 L25.9905 1497.84 L25.9905 1491.95 L31.5287 1491.95 Q28.2503 1489.94 26.6907 1487.14 Q25.1311 1484.34 25.1311 1480.49 Q25.1311 1476.61 27.1045 1473.9 Q29.0779 1471.16 32.8336 1469.86 Z" fill="#000000" fill-rule="evenodd" fill-opacity="1" /><path clip-path="url(#clip500)" d="M42.3504 1403.62 L45.2149 1403.62 L45.2149 1430.55 Q51.2623 1430.17 54.4452 1426.92 Q57.5962 1423.64 57.5962 1417.82 Q57.5962 1414.45 56.7687 1411.29 Q55.9411 1408.11 54.2861 1404.99 L59.8242 1404.99 Q61.161 1408.14 61.8612 1411.45 Q62.5615 1414.76 62.5615 1418.17 Q62.5615 1426.7 57.5962 1431.7 Q52.631 1436.66 44.1646 1436.66 Q35.4117 1436.66 30.2873 1431.95 Q25.1311 1427.21 25.1311 1419.19 Q25.1311 1412 29.7781 1407.83 Q34.3932 1403.62 42.3504 1403.62 M40.6316 1409.48 Q35.8255 1409.54 32.9609 1412.19 Q30.0964 1414.8 30.0964 1419.12 Q30.0964 1424.03 32.8654 1426.99 Q35.6345 1429.91 40.6634 1430.36 L40.6316 1409.48 Z" fill="#000000" fill-rule="evenodd" fill-opacity="1" /><path clip-path="url(#clip500)" d="M40.1224 1364.38 L61.6384 1364.38 L61.6384 1370.24 L40.3133 1370.24 Q35.2526 1370.24 32.7381 1372.21 Q30.2237 1374.18 30.2237 1378.13 Q30.2237 1382.87 33.2474 1385.61 Q36.2711 1388.35 41.491 1388.35 L61.6384 1388.35 L61.6384 1394.23 L25.9905 1394.23 L25.9905 1388.35 L31.5287 1388.35 Q28.314 1386.25 26.7225 1383.41 Q25.1311 1380.55 25.1311 1376.82 Q25.1311 1370.68 28.9505 1367.53 Q32.7381 1364.38 40.1224 1364.38 Z" fill="#000000" fill-rule="evenodd" fill-opacity="1" /><path clip-path="url(#clip500)" d="M15.869 1346.91 L25.9905 1346.91 L25.9905 1334.84 L30.542 1334.84 L30.542 1346.91 L49.8937 1346.91 Q54.2542 1346.91 55.4955 1345.73 Q56.7368 1344.52 56.7368 1340.86 L56.7368 1334.84 L61.6384 1334.84 L61.6384 1340.86 Q61.6384 1347.64 59.124 1350.22 Q56.5777 1352.79 49.8937 1352.79 L30.542 1352.79 L30.542 1357.09 L25.9905 1357.09 L25.9905 1352.79 L15.869 1352.79 L15.869 1346.91 Z" fill="#000000" fill-rule="evenodd" fill-opacity="1" /><path clip-path="url(#clip500)" d="M43.719 1310.94 Q43.719 1318.04 45.3422 1320.77 Q46.9655 1323.51 50.8804 1323.51 Q53.9996 1323.51 55.8457 1321.47 Q57.6599 1319.41 57.6599 1315.87 Q57.6599 1311 54.2224 1308.07 Q50.7531 1305.11 45.0239 1305.11 L43.719 1305.11 L43.719 1310.94 M41.3 1299.26 L61.6384 1299.26 L61.6384 1305.11 L56.2276 1305.11 Q59.4741 1307.12 61.0337 1310.11 Q62.5615 1313.1 62.5615 1317.43 Q62.5615 1322.91 59.5059 1326.15 Q56.4186 1329.37 51.2623 1329.37 Q45.2467 1329.37 42.1912 1325.36 Q39.1357 1321.32 39.1357 1313.33 L39.1357 1305.11 L38.5628 1305.11 Q34.5205 1305.11 32.3244 1307.79 Q30.0964 1310.43 30.0964 1315.24 Q30.0964 1318.29 30.8284 1321.19 Q31.5605 1324.08 33.0246 1326.76 L27.6137 1326.76 Q26.3724 1323.54 25.7677 1320.52 Q25.1311 1317.5 25.1311 1314.63 Q25.1311 1306.9 29.1415 1303.08 Q33.1519 1299.26 41.3 1299.26 Z" fill="#000000" fill-rule="evenodd" fill-opacity="1" /><path clip-path="url(#clip500)" d="M12.1132 1287.2 L12.1132 1281.34 L61.6384 1281.34 L61.6384 1287.2 L12.1132 1287.2 Z" fill="#000000" fill-rule="evenodd" fill-opacity="1" /><path clip-path="url(#clip500)" d="M40.1224 1218.73 L61.6384 1218.73 L61.6384 1224.59 L40.3133 1224.59 Q35.2526 1224.59 32.7381 1226.56 Q30.2237 1228.54 30.2237 1232.48 Q30.2237 1237.22 33.2474 1239.96 Q36.2711 1242.7 41.491 1242.7 L61.6384 1242.7 L61.6384 1248.59 L12.1132 1248.59 L12.1132 1242.7 L31.5287 1242.7 Q28.314 1240.6 26.7225 1237.77 Q25.1311 1234.9 25.1311 1231.18 Q25.1311 1225.03 28.9505 1221.88 Q32.7381 1218.73 40.1224 1218.73 Z" fill="#000000" fill-rule="evenodd" fill-opacity="1" /><path clip-path="url(#clip500)" d="M42.3504 1176.56 L45.2149 1176.56 L45.2149 1203.49 Q51.2623 1203.1 54.4452 1199.86 Q57.5962 1196.58 57.5962 1190.75 Q57.5962 1187.38 56.7687 1184.23 Q55.9411 1181.05 54.2861 1177.93 L59.8242 1177.93 Q61.161 1181.08 61.8612 1184.39 Q62.5615 1187.7 62.5615 1191.11 Q62.5615 1199.64 57.5962 1204.63 Q52.631 1209.6 44.1646 1209.6 Q35.4117 1209.6 30.2873 1204.89 Q25.1311 1200.14 25.1311 1192.12 Q25.1311 1184.93 29.7781 1180.76 Q34.3932 1176.56 42.3504 1176.56 M40.6316 1182.42 Q35.8255 1182.48 32.9609 1185.12 Q30.0964 1187.73 30.0964 1192.06 Q30.0964 1196.96 32.8654 1199.92 Q35.6345 1202.85 40.6634 1203.3 L40.6316 1182.42 Z" fill="#000000" fill-rule="evenodd" fill-opacity="1" /><path clip-path="url(#clip500)" d="M43.719 1150.75 Q43.719 1157.84 45.3422 1160.58 Q46.9655 1163.32 50.8804 1163.32 Q53.9996 1163.32 55.8457 1161.28 Q57.6599 1159.21 57.6599 1155.68 Q57.6599 1150.81 54.2224 1147.88 Q50.7531 1144.92 45.0239 1144.92 L43.719 1144.92 L43.719 1150.75 M41.3 1139.07 L61.6384 1139.07 L61.6384 1144.92 L56.2276 1144.92 Q59.4741 1146.93 61.0337 1149.92 Q62.5615 1152.91 62.5615 1157.24 Q62.5615 1162.71 59.5059 1165.96 Q56.4186 1169.18 51.2623 1169.18 Q45.2467 1169.18 42.1912 1165.16 Q39.1357 1161.12 39.1357 1153.13 L39.1357 1144.92 L38.5628 1144.92 Q34.5205 1144.92 32.3244 1147.6 Q30.0964 1150.24 30.0964 1155.04 Q30.0964 1158.1 30.8284 1161 Q31.5605 1163.89 33.0246 1166.57 L27.6137 1166.57 Q26.3724 1163.35 25.7677 1160.33 Q25.1311 1157.3 25.1311 1154.44 Q25.1311 1146.7 29.1415 1142.88 Q33.1519 1139.07 41.3 1139.07 Z" fill="#000000" fill-rule="evenodd" fill-opacity="1" /><path clip-path="url(#clip500)" d="M15.869 1121.21 L25.9905 1121.21 L25.9905 1109.15 L30.542 1109.15 L30.542 1121.21 L49.8937 1121.21 Q54.2542 1121.21 55.4955 1120.03 Q56.7368 1118.82 56.7368 1115.16 L56.7368 1109.15 L61.6384 1109.15 L61.6384 1115.16 Q61.6384 1121.94 59.124 1124.52 Q56.5777 1127.1 49.8937 1127.1 L30.542 1127.1 L30.542 1131.39 L25.9905 1131.39 L25.9905 1127.1 L15.869 1127.1 L15.869 1121.21 Z" fill="#000000" fill-rule="evenodd" fill-opacity="1" /><path clip-path="url(#clip500)" d="M12.1132 1080.72 L12.1132 1074.87 L61.6384 1074.87 L61.6384 1080.72 L12.1132 1080.72 Z" fill="#000000" fill-rule="evenodd" fill-opacity="1" /><path clip-path="url(#clip500)" d="M30.0964 1048.8 Q30.0964 1053.51 33.7885 1056.25 Q37.4488 1058.98 43.8463 1058.98 Q50.2438 1058.98 53.9359 1056.28 Q57.5962 1053.54 57.5962 1048.8 Q57.5962 1044.12 53.9041 1041.38 Q50.212 1038.65 43.8463 1038.65 Q37.5124 1038.65 33.8203 1041.38 Q30.0964 1044.12 30.0964 1048.8 M25.1311 1048.8 Q25.1311 1041.16 30.0964 1036.8 Q35.0616 1032.44 43.8463 1032.44 Q52.5991 1032.44 57.5962 1036.8 Q62.5615 1041.16 62.5615 1048.8 Q62.5615 1056.47 57.5962 1060.83 Q52.5991 1065.16 43.8463 1065.16 Q35.0616 1065.16 30.0964 1060.83 Q25.1311 1056.47 25.1311 1048.8 Z" fill="#000000" fill-rule="evenodd" fill-opacity="1" /><path clip-path="url(#clip500)" d="M27.0408 1000.01 L32.579 1000.01 Q31.3059 1002.49 30.6693 1005.16 Q30.0327 1007.84 30.0327 1010.7 Q30.0327 1015.06 31.3695 1017.26 Q32.7063 1019.42 35.3799 1019.42 Q37.4169 1019.42 38.5946 1017.86 Q39.7404 1016.3 40.7908 1011.59 L41.2364 1009.59 Q42.5732 1003.35 45.0239 1000.74 Q47.4429 998.097 51.8034 998.097 Q56.7687 998.097 59.6651 1002.04 Q62.5615 1005.96 62.5615 1012.83 Q62.5615 1015.7 61.9886 1018.82 Q61.4475 1021.9 60.3335 1025.34 L54.2861 1025.34 Q55.973 1022.1 56.8323 1018.94 Q57.6599 1015.79 57.6599 1012.71 Q57.6599 1008.57 56.2594 1006.34 Q54.8271 1004.11 52.249 1004.11 Q49.8619 1004.11 48.5887 1005.74 Q47.3156 1007.33 46.1379 1012.77 L45.6605 1014.81 Q44.5147 1020.25 42.1594 1022.67 Q39.7722 1025.09 35.6345 1025.09 Q30.6056 1025.09 27.8684 1021.52 Q25.1311 1017.96 25.1311 1011.4 Q25.1311 1008.15 25.6085 1005.29 Q26.086 1002.43 27.0408 1000.01 Z" fill="#000000" fill-rule="evenodd" fill-opacity="1" /><path clip-path="url(#clip500)" d="M27.0408 966.046 L32.579 966.046 Q31.3059 968.528 30.6693 971.202 Q30.0327 973.875 30.0327 976.74 Q30.0327 981.1 31.3695 983.297 Q32.7063 985.461 35.3799 985.461 Q37.4169 985.461 38.5946 983.901 Q39.7404 982.342 40.7908 977.631 L41.2364 975.626 Q42.5732 969.388 45.0239 966.778 Q47.4429 964.136 51.8034 964.136 Q56.7687 964.136 59.6651 968.083 Q62.5615 971.997 62.5615 978.872 Q62.5615 981.737 61.9886 984.856 Q61.4475 987.944 60.3335 991.381 L54.2861 991.381 Q55.973 988.135 56.8323 984.983 Q57.6599 981.832 57.6599 978.745 Q57.6599 974.607 56.2594 972.379 Q54.8271 970.151 52.249 970.151 Q49.8619 970.151 48.5887 971.775 Q47.3156 973.366 46.1379 978.809 L45.6605 980.846 Q44.5147 986.288 42.1594 988.707 Q39.7722 991.126 35.6345 991.126 Q30.6056 991.126 27.8684 987.562 Q25.1311 983.997 25.1311 977.44 Q25.1311 974.194 25.6085 971.329 Q26.086 968.464 27.0408 966.046 Z" fill="#000000" fill-rule="evenodd" fill-opacity="1" /><path clip-path="url(#clip500)" d="M15.869 928.297 L25.9905 928.297 L25.9905 916.234 L30.542 916.234 L30.542 928.297 L49.8937 928.297 Q54.2542 928.297 55.4955 927.119 Q56.7368 925.91 56.7368 922.249 L56.7368 916.234 L61.6384 916.234 L61.6384 922.249 Q61.6384 929.029 59.124 931.607 Q56.5777 934.185 49.8937 934.185 L30.542 934.185 L30.542 938.482 L25.9905 938.482 L25.9905 934.185 L15.869 934.185 L15.869 928.297 Z" fill="#000000" fill-rule="evenodd" fill-opacity="1" /><path clip-path="url(#clip500)" d="M30.0964 894.718 Q30.0964 899.428 33.7885 902.166 Q37.4488 904.903 43.8463 904.903 Q50.2438 904.903 53.9359 902.197 Q57.5962 899.46 57.5962 894.718 Q57.5962 890.039 53.9041 887.302 Q50.212 884.564 43.8463 884.564 Q37.5124 884.564 33.8203 887.302 Q30.0964 890.039 30.0964 894.718 M25.1311 894.718 Q25.1311 887.079 30.0964 882.718 Q35.0616 878.358 43.8463 878.358 Q52.5991 878.358 57.5962 882.718 Q62.5615 887.079 62.5615 894.718 Q62.5615 902.388 57.5962 906.749 Q52.5991 911.078 43.8463 911.078 Q35.0616 911.078 30.0964 906.749 Q25.1311 902.388 25.1311 894.718 Z" fill="#000000" fill-rule="evenodd" fill-opacity="1" /><path clip-path="url(#clip500)" d="M30.0964 834.116 Q30.0964 838.827 33.7885 841.564 Q37.4488 844.301 43.8463 844.301 Q50.2438 844.301 53.9359 841.596 Q57.5962 838.859 57.5962 834.116 Q57.5962 829.437 53.9041 826.7 Q50.212 823.963 43.8463 823.963 Q37.5124 823.963 33.8203 826.7 Q30.0964 829.437 30.0964 834.116 M25.1311 834.116 Q25.1311 826.477 30.0964 822.117 Q35.0616 817.756 43.8463 817.756 Q52.5991 817.756 57.5962 822.117 Q62.5615 826.477 62.5615 834.116 Q62.5615 841.787 57.5962 846.147 Q52.5991 850.476 43.8463 850.476 Q35.0616 850.476 30.0964 846.147 Q25.1311 841.787 25.1311 834.116 Z" fill="#000000" fill-rule="evenodd" fill-opacity="1" /><path clip-path="url(#clip500)" d="M25.9905 812.25 L25.9905 806.043 L55.9093 794.903 L25.9905 783.764 L25.9905 777.557 L61.6384 790.925 L61.6384 798.882 L25.9905 812.25 Z" fill="#000000" fill-rule="evenodd" fill-opacity="1" /><path clip-path="url(#clip500)" d="M42.3504 738.981 L45.2149 738.981 L45.2149 765.908 Q51.2623 765.526 54.4452 762.279 Q57.5962 759.001 57.5962 753.176 Q57.5962 749.802 56.7687 746.651 Q55.9411 743.469 54.2861 740.349 L59.8242 740.349 Q61.161 743.5 61.8612 746.811 Q62.5615 750.121 62.5615 753.526 Q62.5615 762.056 57.5962 767.054 Q52.631 772.019 44.1646 772.019 Q35.4117 772.019 30.2873 767.308 Q25.1311 762.566 25.1311 754.545 Q25.1311 747.352 29.7781 743.182 Q34.3932 738.981 42.3504 738.981 M40.6316 744.837 Q35.8255 744.901 32.9609 747.543 Q30.0964 750.153 30.0964 754.481 Q30.0964 759.383 32.8654 762.343 Q35.6345 765.271 40.6634 765.717 L40.6316 744.837 Z" fill="#000000" fill-rule="evenodd" fill-opacity="1" /><path clip-path="url(#clip500)" d="M31.465 708.712 Q30.8921 709.699 30.6375 710.876 Q30.351 712.022 30.351 713.422 Q30.351 718.388 33.5975 721.061 Q36.8122 723.703 42.8596 723.703 L61.6384 723.703 L61.6384 729.591 L25.9905 729.591 L25.9905 723.703 L31.5287 723.703 Q28.2821 721.857 26.7225 718.897 Q25.1311 715.937 25.1311 711.704 Q25.1311 711.099 25.2266 710.367 Q25.2903 709.635 25.4494 708.744 L31.465 708.712 Z" fill="#000000" fill-rule="evenodd" fill-opacity="1" /><path clip-path="url(#clip500)" d="M43.8463 676.979 Q37.3851 676.979 33.7248 679.652 Q30.0327 682.294 30.0327 686.941 Q30.0327 691.588 33.7248 694.262 Q37.3851 696.903 43.8463 696.903 Q50.3075 696.903 53.9996 694.262 Q57.6599 691.588 57.6599 686.941 Q57.6599 682.294 53.9996 679.652 Q50.3075 676.979 43.8463 676.979 M31.4013 696.903 Q28.2185 695.057 26.6907 692.256 Q25.1311 689.424 25.1311 685.509 Q25.1311 679.016 30.2873 674.974 Q35.4436 670.9 43.8463 670.9 Q52.249 670.9 57.4052 674.974 Q62.5615 679.016 62.5615 685.509 Q62.5615 689.424 61.0337 692.256 Q59.4741 695.057 56.2912 696.903 L61.6384 696.903 L61.6384 702.792 L12.1132 702.792 L12.1132 696.903 L31.4013 696.903 Z" fill="#000000" fill-rule="evenodd" fill-opacity="1" /><path clip-path="url(#clip500)" d="M47.5702 661.797 L25.9905 661.797 L25.9905 655.94 L47.3474 655.94 Q52.4082 655.94 54.9545 653.967 Q57.4689 651.993 57.4689 648.047 Q57.4689 643.304 54.4452 640.567 Q51.4215 637.798 46.2016 637.798 L25.9905 637.798 L25.9905 631.941 L61.6384 631.941 L61.6384 637.798 L56.1639 637.798 Q59.4104 639.93 61.0019 642.763 Q62.5615 645.564 62.5615 649.288 Q62.5615 655.431 58.742 658.614 Q54.9226 661.797 47.5702 661.797 M25.1311 647.06 L25.1311 647.06 Z" fill="#000000" fill-rule="evenodd" fill-opacity="1" /><path clip-path="url(#clip500)" d="M31.465 599.222 Q30.8921 600.208 30.6375 601.386 Q30.351 602.532 30.351 603.932 Q30.351 608.898 33.5975 611.571 Q36.8122 614.213 42.8596 614.213 L61.6384 614.213 L61.6384 620.101 L25.9905 620.101 L25.9905 614.213 L31.5287 614.213 Q28.2821 612.367 26.7225 609.407 Q25.1311 606.447 25.1311 602.214 Q25.1311 601.609 25.2266 600.877 Q25.2903 600.145 25.4494 599.253 L31.465 599.222 Z" fill="#000000" fill-rule="evenodd" fill-opacity="1" /><path clip-path="url(#clip500)" d="M31.4013 570.767 L12.1132 570.767 L12.1132 564.911 L61.6384 564.911 L61.6384 570.767 L56.2912 570.767 Q59.4741 572.613 61.0337 575.446 Q62.5615 578.247 62.5615 582.193 Q62.5615 588.655 57.4052 592.729 Q52.249 596.771 43.8463 596.771 Q35.4436 596.771 30.2873 592.729 Q25.1311 588.655 25.1311 582.193 Q25.1311 578.247 26.6907 575.446 Q28.2185 572.613 31.4013 570.767 M43.8463 590.723 Q50.3075 590.723 53.9996 588.082 Q57.6599 585.408 57.6599 580.761 Q57.6599 576.114 53.9996 573.441 Q50.3075 570.767 43.8463 570.767 Q37.3851 570.767 33.7248 573.441 Q30.0327 576.114 30.0327 580.761 Q30.0327 585.408 33.7248 588.082 Q37.3851 590.723 43.8463 590.723 Z" fill="#000000" fill-rule="evenodd" fill-opacity="1" /><path clip-path="url(#clip500)" d="M42.3504 522.356 L45.2149 522.356 L45.2149 549.283 Q51.2623 548.901 54.4452 545.654 Q57.5962 542.376 57.5962 536.551 Q57.5962 533.177 56.7687 530.026 Q55.9411 526.844 54.2861 523.724 L59.8242 523.724 Q61.161 526.875 61.8612 530.186 Q62.5615 533.496 62.5615 536.901 Q62.5615 545.431 57.5962 550.429 Q52.631 555.394 44.1646 555.394 Q35.4117 555.394 30.2873 550.683 Q25.1311 545.941 25.1311 537.92 Q25.1311 530.727 29.7781 526.557 Q34.3932 522.356 42.3504 522.356 M40.6316 528.212 Q35.8255 528.276 32.9609 530.918 Q30.0964 533.528 30.0964 537.856 Q30.0964 542.758 32.8654 545.718 Q35.6345 548.646 40.6634 549.092 L40.6316 528.212 Z" fill="#000000" fill-rule="evenodd" fill-opacity="1" /><path clip-path="url(#clip500)" d="M40.1224 483.111 L61.6384 483.111 L61.6384 488.968 L40.3133 488.968 Q35.2526 488.968 32.7381 490.941 Q30.2237 492.914 30.2237 496.861 Q30.2237 501.604 33.2474 504.341 Q36.2711 507.078 41.491 507.078 L61.6384 507.078 L61.6384 512.966 L25.9905 512.966 L25.9905 507.078 L31.5287 507.078 Q28.314 504.977 26.7225 502.145 Q25.1311 499.28 25.1311 495.556 Q25.1311 489.413 28.9505 486.262 Q32.7381 483.111 40.1224 483.111 Z" fill="#000000" fill-rule="evenodd" fill-opacity="1" /><path clip-path="url(#clip500)" d="M12.1769 436.642 Q19.4975 440.907 26.6589 442.975 Q33.8203 445.044 41.1727 445.044 Q48.5251 445.044 55.7502 442.975 Q62.9434 440.875 70.2321 436.642 L70.2321 441.734 Q62.7524 446.508 55.5274 448.896 Q48.3023 451.251 41.1727 451.251 Q34.0749 451.251 26.8817 448.896 Q19.6884 446.54 12.1769 441.734 L12.1769 436.642 Z" fill="#000000" fill-rule="evenodd" fill-opacity="1" /><path clip-path="url(#clip500)" d="M14.1184 425.024 L14.1184 415.444 L46.4562 403.317 L14.1184 391.127 L14.1184 381.546 L61.6384 381.546 L61.6384 387.817 L19.9112 387.817 L52.5037 400.071 L52.5037 406.532 L19.9112 418.786 L61.6384 418.786 L61.6384 425.024 L14.1184 425.024 Z" fill="#000000" fill-rule="evenodd" fill-opacity="1" /><path clip-path="url(#clip500)" d="M14.1184 368.783 L14.1184 362.354 L58.3283 362.354 Q66.922 362.354 70.8051 365.632 Q74.6881 368.879 74.6881 376.104 L74.6881 378.554 L69.2773 378.554 L69.2773 376.549 Q69.2773 372.284 66.8902 370.534 Q64.503 368.783 58.3283 368.783 L14.1184 368.783 Z" fill="#000000" fill-rule="evenodd" fill-opacity="1" /><path clip-path="url(#clip500)" d="M30.0964 336 Q30.0964 340.71 33.7885 343.448 Q37.4488 346.185 43.8463 346.185 Q50.2438 346.185 53.9359 343.479 Q57.5962 340.742 57.5962 336 Q57.5962 331.321 53.9041 328.584 Q50.212 325.846 43.8463 325.846 Q37.5124 325.846 33.8203 328.584 Q30.0964 331.321 30.0964 336 M25.1311 336 Q25.1311 328.361 30.0964 324 Q35.0616 319.64 43.8463 319.64 Q52.5991 319.64 57.5962 324 Q62.5615 328.361 62.5615 336 Q62.5615 343.67 57.5962 348.031 Q52.5991 352.36 43.8463 352.36 Q35.0616 352.36 30.0964 348.031 Q25.1311 343.67 25.1311 336 Z" fill="#000000" fill-rule="evenodd" fill-opacity="1" /><path clip-path="url(#clip500)" d="M47.5702 310.537 L25.9905 310.537 L25.9905 304.68 L47.3474 304.68 Q52.4082 304.68 54.9545 302.707 Q57.4689 300.734 57.4689 296.787 Q57.4689 292.044 54.4452 289.307 Q51.4215 286.538 46.2016 286.538 L25.9905 286.538 L25.9905 280.682 L61.6384 280.682 L61.6384 286.538 L56.1639 286.538 Q59.4104 288.671 61.0019 291.503 Q62.5615 294.304 62.5615 298.028 Q62.5615 304.171 58.742 307.354 Q54.9226 310.537 47.5702 310.537 M25.1311 295.8 L25.1311 295.8 Z" fill="#000000" fill-rule="evenodd" fill-opacity="1" /><path clip-path="url(#clip500)" d="M12.1132 268.619 L12.1132 262.762 L61.6384 262.762 L61.6384 268.619 L12.1132 268.619 Z" fill="#000000" fill-rule="evenodd" fill-opacity="1" /><path clip-path="url(#clip500)" d="M42.3504 220.017 L45.2149 220.017 L45.2149 246.943 Q51.2623 246.562 54.4452 243.315 Q57.5962 240.037 57.5962 234.212 Q57.5962 230.838 56.7687 227.687 Q55.9411 224.504 54.2861 221.385 L59.8242 221.385 Q61.161 224.536 61.8612 227.846 Q62.5615 231.157 62.5615 234.562 Q62.5615 243.092 57.5962 248.089 Q52.631 253.055 44.1646 253.055 Q35.4117 253.055 30.2873 248.344 Q25.1311 243.601 25.1311 235.581 Q25.1311 228.387 29.7781 224.218 Q34.3932 220.017 42.3504 220.017 M40.6316 225.873 Q35.8255 225.937 32.9609 228.578 Q30.0964 231.188 30.0964 235.517 Q30.0964 240.419 32.8654 243.379 Q35.6345 246.307 40.6634 246.752 L40.6316 225.873 Z" fill="#000000" fill-rule="evenodd" fill-opacity="1" /><path clip-path="url(#clip500)" d="M27.0408 187.679 L32.579 187.679 Q31.3059 190.161 30.6693 192.835 Q30.0327 195.509 30.0327 198.373 Q30.0327 202.734 31.3695 204.93 Q32.7063 207.094 35.3799 207.094 Q37.4169 207.094 38.5946 205.535 Q39.7404 203.975 40.7908 199.264 L41.2364 197.259 Q42.5732 191.021 45.0239 188.411 Q47.4429 185.769 51.8034 185.769 Q56.7687 185.769 59.6651 189.716 Q62.5615 193.631 62.5615 200.506 Q62.5615 203.37 61.9886 206.489 Q61.4475 209.577 60.3335 213.014 L54.2861 213.014 Q55.973 209.768 56.8323 206.617 Q57.6599 203.466 57.6599 200.378 Q57.6599 196.241 56.2594 194.013 Q54.8271 191.785 52.249 191.785 Q49.8619 191.785 48.5887 193.408 Q47.3156 194.999 46.1379 200.442 L45.6605 202.479 Q44.5147 207.922 42.1594 210.341 Q39.7722 212.76 35.6345 212.76 Q30.6056 212.76 27.8684 209.195 Q25.1311 205.63 25.1311 199.073 Q25.1311 195.827 25.6085 192.962 Q26.086 190.098 27.0408 187.679 Z" fill="#000000" fill-rule="evenodd" fill-opacity="1" /><path clip-path="url(#clip500)" d="M12.1769 177.366 L12.1769 172.274 Q19.6884 167.499 26.8817 165.144 Q34.0749 162.757 41.1727 162.757 Q48.3023 162.757 55.5274 165.144 Q62.7524 167.499 70.2321 172.274 L70.2321 177.366 Q62.9434 173.133 55.7502 171.064 Q48.5251 168.964 41.1727 168.964 Q33.8203 168.964 26.6589 171.064 Q19.4975 173.133 12.1769 177.366 Z" fill="#000000" fill-rule="evenodd" fill-opacity="1" /><path clip-path="url(#clip500)" d="M713.472 12.096 L721.655 12.096 L721.655 72.576 L713.472 72.576 L713.472 12.096 Z" fill="#000000" fill-rule="evenodd" fill-opacity="1" /><path clip-path="url(#clip500)" d="M775.33 45.1919 L775.33 72.576 L767.876 72.576 L767.876 45.4349 Q767.876 38.994 765.364 35.7938 Q762.853 32.5936 757.83 32.5936 Q751.794 32.5936 748.31 36.4419 Q744.826 40.2903 744.826 46.9338 L744.826 72.576 L737.332 72.576 L737.332 27.2059 L744.826 27.2059 L744.826 34.2544 Q747.5 30.163 751.105 28.1376 Q754.751 26.1121 759.491 26.1121 Q767.309 26.1121 771.319 30.9732 Q775.33 35.7938 775.33 45.1919 Z" fill="#000000" fill-rule="evenodd" fill-opacity="1" /><path clip-path="url(#clip500)" d="M822.847 28.9478 L822.847 35.9153 Q819.687 34.1734 816.487 33.3227 Q813.327 32.4315 810.086 32.4315 Q802.835 32.4315 798.825 37.0496 Q794.814 41.6271 794.814 49.9314 Q794.814 58.2358 798.825 62.8538 Q802.835 67.4314 810.086 67.4314 Q813.327 67.4314 816.487 66.5807 Q819.687 65.6895 822.847 63.9476 L822.847 70.8341 Q819.728 72.2924 816.365 73.0216 Q813.044 73.7508 809.276 73.7508 Q799.027 73.7508 792.992 67.3098 Q786.956 60.8689 786.956 49.9314 Q786.956 38.832 793.032 32.472 Q799.149 26.1121 809.762 26.1121 Q813.206 26.1121 816.487 26.8413 Q819.768 27.5299 822.847 28.9478 Z" fill="#000000" fill-rule="evenodd" fill-opacity="1" /><path clip-path="url(#clip500)" d="M862.1 34.1734 Q860.844 33.4443 859.345 33.1202 Q857.887 32.7556 856.105 32.7556 Q849.785 32.7556 846.383 36.8875 Q843.02 40.9789 843.02 48.6757 L843.02 72.576 L835.526 72.576 L835.526 27.2059 L843.02 27.2059 L843.02 34.2544 Q845.37 30.1225 849.137 28.1376 Q852.904 26.1121 858.292 26.1121 Q859.062 26.1121 859.994 26.2337 Q860.925 26.3147 862.06 26.5172 L862.1 34.1734 Z" fill="#000000" fill-rule="evenodd" fill-opacity="1" /><path clip-path="url(#clip500)" d="M906.903 48.0275 L906.903 51.6733 L872.632 51.6733 Q873.118 59.3701 877.25 63.421 Q881.423 67.4314 888.836 67.4314 Q893.13 67.4314 897.14 66.3781 Q901.191 65.3249 905.161 63.2184 L905.161 70.267 Q901.151 71.9684 896.938 72.8596 Q892.725 73.7508 888.39 73.7508 Q877.534 73.7508 871.174 67.4314 Q864.855 61.1119 864.855 50.3365 Q864.855 39.1965 870.85 32.6746 Q876.886 26.1121 887.094 26.1121 Q896.249 26.1121 901.556 32.0264 Q906.903 37.9003 906.903 48.0275 M899.449 45.84 Q899.368 39.7232 896.006 36.0774 Q892.684 32.4315 887.175 32.4315 Q880.937 32.4315 877.169 35.9558 Q873.443 39.4801 872.875 45.8805 L899.449 45.84 Z" fill="#000000" fill-rule="evenodd" fill-opacity="1" /><path clip-path="url(#clip500)" d="M939.756 49.7694 Q930.722 49.7694 927.239 51.8354 Q923.755 53.9013 923.755 58.8839 Q923.755 62.8538 926.347 65.2034 Q928.98 67.5124 933.477 67.5124 Q939.675 67.5124 943.402 63.1374 Q947.169 58.7219 947.169 51.4303 L947.169 49.7694 L939.756 49.7694 M954.623 46.6907 L954.623 72.576 L947.169 72.576 L947.169 65.6895 Q944.617 69.8214 940.809 71.8063 Q937.001 73.7508 931.492 73.7508 Q924.524 73.7508 920.393 69.8619 Q916.301 65.9325 916.301 59.3701 Q916.301 51.7138 921.405 47.825 Q926.55 43.9361 936.718 43.9361 L947.169 43.9361 L947.169 43.2069 Q947.169 38.0623 943.766 35.2672 Q940.404 32.4315 934.287 32.4315 Q930.398 32.4315 926.712 33.3632 Q923.026 34.295 919.623 36.1584 L919.623 29.2718 Q923.714 27.692 927.563 26.9223 Q931.411 26.1121 935.057 26.1121 Q944.9 26.1121 949.762 31.2163 Q954.623 36.3204 954.623 46.6907 Z" fill="#000000" fill-rule="evenodd" fill-opacity="1" /><path clip-path="url(#clip500)" d="M1005.3 35.9153 Q1008.09 30.8922 1011.98 28.5022 Q1015.87 26.1121 1021.14 26.1121 Q1028.23 26.1121 1032.08 31.0947 Q1035.92 36.0368 1035.92 45.1919 L1035.92 72.576 L1028.43 72.576 L1028.43 45.4349 Q1028.43 38.913 1026.12 35.7533 Q1023.81 32.5936 1019.07 32.5936 Q1013.28 32.5936 1009.92 36.4419 Q1006.56 40.2903 1006.56 46.9338 L1006.56 72.576 L999.061 72.576 L999.061 45.4349 Q999.061 38.8725 996.752 35.7533 Q994.443 32.5936 989.622 32.5936 Q983.911 32.5936 980.548 36.4824 Q977.186 40.3308 977.186 46.9338 L977.186 72.576 L969.692 72.576 L969.692 27.2059 L977.186 27.2059 L977.186 34.2544 Q979.738 30.082 983.303 28.0971 Q986.868 26.1121 991.769 26.1121 Q996.712 26.1121 1000.15 28.6237 Q1003.64 31.1352 1005.3 35.9153 Z" fill="#000000" fill-rule="evenodd" fill-opacity="1" /><path clip-path="url(#clip500)" d="M1089.6 48.0275 L1089.6 51.6733 L1055.33 51.6733 Q1055.81 59.3701 1059.95 63.421 Q1064.12 67.4314 1071.53 67.4314 Q1075.83 67.4314 1079.84 66.3781 Q1083.89 65.3249 1087.86 63.2184 L1087.86 70.267 Q1083.85 71.9684 1079.63 72.8596 Q1075.42 73.7508 1071.09 73.7508 Q1060.23 73.7508 1053.87 67.4314 Q1047.55 61.1119 1047.55 50.3365 Q1047.55 39.1965 1053.55 32.6746 Q1059.58 26.1121 1069.79 26.1121 Q1078.94 26.1121 1084.25 32.0264 Q1089.6 37.9003 1089.6 48.0275 M1082.15 45.84 Q1082.06 39.7232 1078.7 36.0774 Q1075.38 32.4315 1069.87 32.4315 Q1063.63 32.4315 1059.87 35.9558 Q1056.14 39.4801 1055.57 45.8805 L1082.15 45.84 Z" fill="#000000" fill-rule="evenodd" fill-opacity="1" /><path clip-path="url(#clip500)" d="M1139.55 45.1919 L1139.55 72.576 L1132.09 72.576 L1132.09 45.4349 Q1132.09 38.994 1129.58 35.7938 Q1127.07 32.5936 1122.05 32.5936 Q1116.01 32.5936 1112.53 36.4419 Q1109.04 40.2903 1109.04 46.9338 L1109.04 72.576 L1101.55 72.576 L1101.55 27.2059 L1109.04 27.2059 L1109.04 34.2544 Q1111.72 30.163 1115.32 28.1376 Q1118.97 26.1121 1123.71 26.1121 Q1131.53 26.1121 1135.54 30.9732 Q1139.55 35.7938 1139.55 45.1919 Z" fill="#000000" fill-rule="evenodd" fill-opacity="1" /><path clip-path="url(#clip500)" d="M1161.79 14.324 L1161.79 27.2059 L1177.14 27.2059 L1177.14 32.9987 L1161.79 32.9987 L1161.79 57.6282 Q1161.79 63.1779 1163.28 64.7578 Q1164.82 66.3376 1169.48 66.3376 L1177.14 66.3376 L1177.14 72.576 L1169.48 72.576 Q1160.85 72.576 1157.57 69.3758 Q1154.29 66.1351 1154.29 57.6282 L1154.29 32.9987 L1148.82 32.9987 L1148.82 27.2059 L1154.29 27.2059 L1154.29 14.324 L1161.79 14.324 Z" fill="#000000" fill-rule="evenodd" fill-opacity="1" /><path clip-path="url(#clip500)" d="M1207.56 49.7694 Q1198.53 49.7694 1195.04 51.8354 Q1191.56 53.9013 1191.56 58.8839 Q1191.56 62.8538 1194.15 65.2034 Q1196.79 67.5124 1201.28 67.5124 Q1207.48 67.5124 1211.21 63.1374 Q1214.97 58.7219 1214.97 51.4303 L1214.97 49.7694 L1207.56 49.7694 M1222.43 46.6907 L1222.43 72.576 L1214.97 72.576 L1214.97 65.6895 Q1212.42 69.8214 1208.61 71.8063 Q1204.81 73.7508 1199.3 73.7508 Q1192.33 73.7508 1188.2 69.8619 Q1184.11 65.9325 1184.11 59.3701 Q1184.11 51.7138 1189.21 47.825 Q1194.36 43.9361 1204.52 43.9361 L1214.97 43.9361 L1214.97 43.2069 Q1214.97 38.0623 1211.57 35.2672 Q1208.21 32.4315 1202.09 32.4315 Q1198.2 32.4315 1194.52 33.3632 Q1190.83 34.295 1187.43 36.1584 L1187.43 29.2718 Q1191.52 27.692 1195.37 26.9223 Q1199.22 26.1121 1202.86 26.1121 Q1212.71 26.1121 1217.57 31.2163 Q1222.43 36.3204 1222.43 46.6907 Z" fill="#000000" fill-rule="evenodd" fill-opacity="1" /><path clip-path="url(#clip500)" d="M1237.78 9.54393 L1245.23 9.54393 L1245.23 72.576 L1237.78 72.576 L1237.78 9.54393 Z" fill="#000000" fill-rule="evenodd" fill-opacity="1" /><path clip-path="url(#clip500)" d="M1287.53 12.096 L1295.71 12.096 L1295.71 36.8875 L1325.44 36.8875 L1325.44 12.096 L1333.63 12.096 L1333.63 72.576 L1325.44 72.576 L1325.44 43.7741 L1295.71 43.7741 L1295.71 72.576 L1287.53 72.576 L1287.53 12.096 Z" fill="#000000" fill-rule="evenodd" fill-opacity="1" /><path clip-path="url(#clip500)" d="M1388.39 48.0275 L1388.39 51.6733 L1354.12 51.6733 Q1354.61 59.3701 1358.74 63.421 Q1362.91 67.4314 1370.33 67.4314 Q1374.62 67.4314 1378.63 66.3781 Q1382.68 65.3249 1386.65 63.2184 L1386.65 70.267 Q1382.64 71.9684 1378.43 72.8596 Q1374.22 73.7508 1369.88 73.7508 Q1359.02 73.7508 1352.66 67.4314 Q1346.35 61.1119 1346.35 50.3365 Q1346.35 39.1965 1352.34 32.6746 Q1358.38 26.1121 1368.58 26.1121 Q1377.74 26.1121 1383.05 32.0264 Q1388.39 37.9003 1388.39 48.0275 M1380.94 45.84 Q1380.86 39.7232 1377.5 36.0774 Q1374.17 32.4315 1368.67 32.4315 Q1362.43 32.4315 1358.66 35.9558 Q1354.93 39.4801 1354.37 45.8805 L1380.94 45.84 Z" fill="#000000" fill-rule="evenodd" fill-opacity="1" /><path clip-path="url(#clip500)" d="M1421.25 49.7694 Q1412.21 49.7694 1408.73 51.8354 Q1405.25 53.9013 1405.25 58.8839 Q1405.25 62.8538 1407.84 65.2034 Q1410.47 67.5124 1414.97 67.5124 Q1421.17 67.5124 1424.89 63.1374 Q1428.66 58.7219 1428.66 51.4303 L1428.66 49.7694 L1421.25 49.7694 M1436.11 46.6907 L1436.11 72.576 L1428.66 72.576 L1428.66 65.6895 Q1426.11 69.8214 1422.3 71.8063 Q1418.49 73.7508 1412.98 73.7508 Q1406.01 73.7508 1401.88 69.8619 Q1397.79 65.9325 1397.79 59.3701 Q1397.79 51.7138 1402.9 47.825 Q1408.04 43.9361 1418.21 43.9361 L1428.66 43.9361 L1428.66 43.2069 Q1428.66 38.0623 1425.26 35.2672 Q1421.89 32.4315 1415.78 32.4315 Q1411.89 32.4315 1408.2 33.3632 Q1404.52 34.295 1401.11 36.1584 L1401.11 29.2718 Q1405.2 27.692 1409.05 26.9223 Q1412.9 26.1121 1416.55 26.1121 Q1426.39 26.1121 1431.25 31.2163 Q1436.11 36.3204 1436.11 46.6907 Z" fill="#000000" fill-rule="evenodd" fill-opacity="1" /><path clip-path="url(#clip500)" d="M1458.84 14.324 L1458.84 27.2059 L1474.19 27.2059 L1474.19 32.9987 L1458.84 32.9987 L1458.84 57.6282 Q1458.84 63.1779 1460.34 64.7578 Q1461.88 66.3376 1466.54 66.3376 L1474.19 66.3376 L1474.19 72.576 L1466.54 72.576 Q1457.91 72.576 1454.63 69.3758 Q1451.34 66.1351 1451.34 57.6282 L1451.34 32.9987 L1445.88 32.9987 L1445.88 27.2059 L1451.34 27.2059 L1451.34 14.324 L1458.84 14.324 Z" fill="#000000" fill-rule="evenodd" fill-opacity="1" /><path clip-path="url(#clip500)" d="M1510.69 12.096 L1518.87 12.096 L1518.87 65.6895 L1548.32 65.6895 L1548.32 72.576 L1510.69 72.576 L1510.69 12.096 Z" fill="#000000" fill-rule="evenodd" fill-opacity="1" /><path clip-path="url(#clip500)" d="M1572.71 32.4315 Q1566.71 32.4315 1563.23 37.1306 Q1559.75 41.7891 1559.75 49.9314 Q1559.75 58.0738 1563.19 62.7728 Q1566.67 67.4314 1572.71 67.4314 Q1578.66 67.4314 1582.15 62.7323 Q1585.63 58.0333 1585.63 49.9314 Q1585.63 41.8701 1582.15 37.1711 Q1578.66 32.4315 1572.71 32.4315 M1572.71 26.1121 Q1582.43 26.1121 1587.98 32.4315 Q1593.53 38.7509 1593.53 49.9314 Q1593.53 61.0714 1587.98 67.4314 Q1582.43 73.7508 1572.71 73.7508 Q1562.95 73.7508 1557.4 67.4314 Q1551.89 61.0714 1551.89 49.9314 Q1551.89 38.7509 1557.4 32.4315 Q1562.95 26.1121 1572.71 26.1121 Z" fill="#000000" fill-rule="evenodd" fill-opacity="1" /><path clip-path="url(#clip500)" d="M1634.81 28.5427 L1634.81 35.5912 Q1631.65 33.9709 1628.25 33.1607 Q1624.84 32.3505 1621.2 32.3505 Q1615.65 32.3505 1612.85 34.0519 Q1610.1 35.7533 1610.1 39.156 Q1610.1 41.7486 1612.08 43.2475 Q1614.07 44.7058 1620.06 46.0426 L1622.62 46.6097 Q1630.56 48.3111 1633.88 51.4303 Q1637.24 54.509 1637.24 60.0587 Q1637.24 66.3781 1632.22 70.0644 Q1627.23 73.7508 1618.48 73.7508 Q1614.84 73.7508 1610.87 73.0216 Q1606.94 72.3329 1602.56 70.9151 L1602.56 63.2184 Q1606.7 65.3654 1610.71 66.4591 Q1614.72 67.5124 1618.65 67.5124 Q1623.91 67.5124 1626.75 65.73 Q1629.58 63.9071 1629.58 60.6258 Q1629.58 57.5877 1627.52 55.9673 Q1625.49 54.3469 1618.57 52.8481 L1615.97 52.2405 Q1609.05 50.7821 1605.97 47.7845 Q1602.89 44.7463 1602.89 39.4801 Q1602.89 33.0797 1607.43 29.5959 Q1611.96 26.1121 1620.31 26.1121 Q1624.44 26.1121 1628.09 26.7198 Q1631.73 27.3274 1634.81 28.5427 Z" fill="#000000" fill-rule="evenodd" fill-opacity="1" /><path clip-path="url(#clip500)" d="M1678.03 28.5427 L1678.03 35.5912 Q1674.87 33.9709 1671.47 33.1607 Q1668.07 32.3505 1664.42 32.3505 Q1658.87 32.3505 1656.08 34.0519 Q1653.32 35.7533 1653.32 39.156 Q1653.32 41.7486 1655.31 43.2475 Q1657.29 44.7058 1663.29 46.0426 L1665.84 46.6097 Q1673.78 48.3111 1677.1 51.4303 Q1680.46 54.509 1680.46 60.0587 Q1680.46 66.3781 1675.44 70.0644 Q1670.46 73.7508 1661.71 73.7508 Q1658.06 73.7508 1654.09 73.0216 Q1650.16 72.3329 1645.79 70.9151 L1645.79 63.2184 Q1649.92 65.3654 1653.93 66.4591 Q1657.94 67.5124 1661.87 67.5124 Q1667.14 67.5124 1669.97 65.73 Q1672.81 63.9071 1672.81 60.6258 Q1672.81 57.5877 1670.74 55.9673 Q1668.72 54.3469 1661.79 52.8481 L1659.2 52.2405 Q1652.27 50.7821 1649.19 47.7845 Q1646.11 44.7463 1646.11 39.4801 Q1646.11 33.0797 1650.65 29.5959 Q1655.19 26.1121 1663.53 26.1121 Q1667.66 26.1121 1671.31 26.7198 Q1674.95 27.3274 1678.03 28.5427 Z" fill="#000000" fill-rule="evenodd" fill-opacity="1" /><path clip-path="url(#clip500)" d="M1710.64 12.096 L1761.81 12.096 L1761.81 18.9825 L1740.34 18.9825 L1740.34 72.576 L1732.11 72.576 L1732.11 18.9825 L1710.64 18.9825 L1710.64 12.096 Z" fill="#000000" fill-rule="evenodd" fill-opacity="1" /><path clip-path="url(#clip500)" d="M1772.86 32.4315 Q1766.87 32.4315 1763.39 37.1306 Q1759.9 41.7891 1759.9 49.9314 Q1759.9 58.0738 1763.35 62.7728 Q1766.83 67.4314 1772.86 67.4314 Q1778.82 67.4314 1782.3 62.7323 Q1785.79 58.0333 1785.79 49.9314 Q1785.79 41.8701 1782.3 37.1711 Q1778.82 32.4315 1772.86 32.4315 M1772.86 26.1121 Q1782.59 26.1121 1788.14 32.4315 Q1793.69 38.7509 1793.69 49.9314 Q1793.69 61.0714 1788.14 67.4314 Q1782.59 73.7508 1772.86 73.7508 Q1763.1 73.7508 1757.55 67.4314 Q1752.04 61.0714 1752.04 49.9314 Q1752.04 38.7509 1757.55 32.4315 Q1763.1 26.1121 1772.86 26.1121 Z" fill="#000000" fill-rule="evenodd" fill-opacity="1" /><path clip-path="url(#clip500)" d="M1857.29 17.6457 Q1848.37 17.6457 1843.11 24.2892 Q1837.88 30.9327 1837.88 42.3968 Q1837.88 53.8203 1843.11 60.4638 Q1848.37 67.1073 1857.29 67.1073 Q1866.2 67.1073 1871.38 60.4638 Q1876.61 53.8203 1876.61 42.3968 Q1876.61 30.9327 1871.38 24.2892 Q1866.2 17.6457 1857.29 17.6457 M1857.29 11.0023 Q1870.01 11.0023 1877.62 19.5497 Q1885.24 28.0566 1885.24 42.3968 Q1885.24 56.6965 1877.62 65.2439 Q1870.01 73.7508 1857.29 73.7508 Q1844.53 73.7508 1836.87 65.2439 Q1829.25 56.737 1829.25 42.3968 Q1829.25 28.0566 1836.87 19.5497 Q1844.53 11.0023 1857.29 11.0023 Z" fill="#000000" fill-rule="evenodd" fill-opacity="1" /><path clip-path="url(#clip500)" d="M1892.37 27.2059 L1900.27 27.2059 L1914.44 65.2844 L1928.62 27.2059 L1936.52 27.2059 L1919.51 72.576 L1909.38 72.576 L1892.37 27.2059 Z" fill="#000000" fill-rule="evenodd" fill-opacity="1" /><path clip-path="url(#clip500)" d="M1985.62 48.0275 L1985.62 51.6733 L1951.35 51.6733 Q1951.83 59.3701 1955.97 63.421 Q1960.14 67.4314 1967.55 67.4314 Q1971.85 67.4314 1975.86 66.3781 Q1979.91 65.3249 1983.88 63.2184 L1983.88 70.267 Q1979.87 71.9684 1975.65 72.8596 Q1971.44 73.7508 1967.11 73.7508 Q1956.25 73.7508 1949.89 67.4314 Q1943.57 61.1119 1943.57 50.3365 Q1943.57 39.1965 1949.57 32.6746 Q1955.6 26.1121 1965.81 26.1121 Q1974.96 26.1121 1980.27 32.0264 Q1985.62 37.9003 1985.62 48.0275 M1978.16 45.84 Q1978.08 39.7232 1974.72 36.0774 Q1971.4 32.4315 1965.89 32.4315 Q1959.65 32.4315 1955.88 35.9558 Q1952.16 39.4801 1951.59 45.8805 L1978.16 45.84 Z" fill="#000000" fill-rule="evenodd" fill-opacity="1" /><path clip-path="url(#clip500)" d="M2024.14 34.1734 Q2022.89 33.4443 2021.39 33.1202 Q2019.93 32.7556 2018.15 32.7556 Q2011.83 32.7556 2008.42 36.8875 Q2005.06 40.9789 2005.06 48.6757 L2005.06 72.576 L1997.57 72.576 L1997.57 27.2059 L2005.06 27.2059 L2005.06 34.2544 Q2007.41 30.1225 2011.18 28.1376 Q2014.95 26.1121 2020.33 26.1121 Q2021.1 26.1121 2022.04 26.2337 Q2022.97 26.3147 2024.1 26.5172 L2024.14 34.1734 Z" fill="#000000" fill-rule="evenodd" fill-opacity="1" /><path clip-path="url(#clip500)" d="M2064.53 49.9314 Q2064.53 41.7081 2061.13 37.0496 Q2057.76 32.3505 2051.85 32.3505 Q2045.94 32.3505 2042.53 37.0496 Q2039.17 41.7081 2039.17 49.9314 Q2039.17 58.1548 2042.53 62.8538 Q2045.94 67.5124 2051.85 67.5124 Q2057.76 67.5124 2061.13 62.8538 Q2064.53 58.1548 2064.53 49.9314 M2039.17 34.0924 Q2041.52 30.0415 2045.09 28.0971 Q2048.69 26.1121 2053.67 26.1121 Q2061.94 26.1121 2067.08 32.6746 Q2072.27 39.2371 2072.27 49.9314 Q2072.27 60.6258 2067.08 67.1883 Q2061.94 73.7508 2053.67 73.7508 Q2048.69 73.7508 2045.09 71.8063 Q2041.52 69.8214 2039.17 65.7705 L2039.17 72.576 L2031.68 72.576 L2031.68 9.54393 L2039.17 9.54393 L2039.17 34.0924 Z" fill="#000000" fill-rule="evenodd" fill-opacity="1" /><path clip-path="url(#clip500)" d="M2083.85 54.671 L2083.85 27.2059 L2091.31 27.2059 L2091.31 54.3874 Q2091.31 60.8284 2093.82 64.0691 Q2096.33 67.2693 2101.35 67.2693 Q2107.39 67.2693 2110.87 63.421 Q2114.4 59.5726 2114.4 52.9291 L2114.4 27.2059 L2121.85 27.2059 L2121.85 72.576 L2114.4 72.576 L2114.4 65.6084 Q2111.68 69.7404 2108.08 71.7658 Q2104.51 73.7508 2099.77 73.7508 Q2091.95 73.7508 2087.9 68.8897 Q2083.85 64.0286 2083.85 54.671 M2102.61 26.1121 L2102.61 26.1121 Z" fill="#000000" fill-rule="evenodd" fill-opacity="1" /><path clip-path="url(#clip500)" d="M2163.49 34.1734 Q2162.24 33.4443 2160.74 33.1202 Q2159.28 32.7556 2157.5 32.7556 Q2151.18 32.7556 2147.78 36.8875 Q2144.41 40.9789 2144.41 48.6757 L2144.41 72.576 L2136.92 72.576 L2136.92 27.2059 L2144.41 27.2059 L2144.41 34.2544 Q2146.76 30.1225 2150.53 28.1376 Q2154.3 26.1121 2159.69 26.1121 Q2160.46 26.1121 2161.39 26.2337 Q2162.32 26.3147 2163.45 26.5172 L2163.49 34.1734 Z" fill="#000000" fill-rule="evenodd" fill-opacity="1" /><path clip-path="url(#clip500)" d="M2199.71 34.0924 L2199.71 9.54393 L2207.16 9.54393 L2207.16 72.576 L2199.71 72.576 L2199.71 65.7705 Q2197.36 69.8214 2193.75 71.8063 Q2190.19 73.7508 2185.17 73.7508 Q2176.94 73.7508 2171.76 67.1883 Q2166.61 60.6258 2166.61 49.9314 Q2166.61 39.2371 2171.76 32.6746 Q2176.94 26.1121 2185.17 26.1121 Q2190.19 26.1121 2193.75 28.0971 Q2197.36 30.0415 2199.71 34.0924 M2174.31 49.9314 Q2174.31 58.1548 2177.67 62.8538 Q2181.07 67.5124 2186.99 67.5124 Q2192.9 67.5124 2196.31 62.8538 Q2199.71 58.1548 2199.71 49.9314 Q2199.71 41.7081 2196.31 37.0496 Q2192.9 32.3505 2186.99 32.3505 Q2181.07 32.3505 2177.67 37.0496 Q2174.31 41.7081 2174.31 49.9314 Z" fill="#000000" fill-rule="evenodd" fill-opacity="1" /><path clip-path="url(#clip500)" d="M2261.32 48.0275 L2261.32 51.6733 L2227.05 51.6733 Q2227.54 59.3701 2231.67 63.421 Q2235.84 67.4314 2243.26 67.4314 Q2247.55 67.4314 2251.56 66.3781 Q2255.61 65.3249 2259.58 63.2184 L2259.58 70.267 Q2255.57 71.9684 2251.36 72.8596 Q2247.14 73.7508 2242.81 73.7508 Q2231.95 73.7508 2225.59 67.4314 Q2219.27 61.1119 2219.27 50.3365 Q2219.27 39.1965 2225.27 32.6746 Q2231.31 26.1121 2241.51 26.1121 Q2250.67 26.1121 2255.98 32.0264 Q2261.32 37.9003 2261.32 48.0275 M2253.87 45.84 Q2253.79 39.7232 2250.43 36.0774 Q2247.1 32.4315 2241.59 32.4315 Q2235.36 32.4315 2231.59 35.9558 Q2227.86 39.4801 2227.3 45.8805 L2253.87 45.84 Z" fill="#000000" fill-rule="evenodd" fill-opacity="1" /><path clip-path="url(#clip500)" d="M2311.27 45.1919 L2311.27 72.576 L2303.82 72.576 L2303.82 45.4349 Q2303.82 38.994 2301.31 35.7938 Q2298.79 32.5936 2293.77 32.5936 Q2287.73 32.5936 2284.25 36.4419 Q2280.77 40.2903 2280.77 46.9338 L2280.77 72.576 L2273.27 72.576 L2273.27 27.2059 L2280.77 27.2059 L2280.77 34.2544 Q2283.44 30.163 2287.05 28.1376 Q2290.69 26.1121 2295.43 26.1121 Q2303.25 26.1121 2307.26 30.9732 Q2311.27 35.7938 2311.27 45.1919 Z" fill="#000000" fill-rule="evenodd" fill-opacity="1" /><path clip-path="url(#clip502)" d="M567.309 713.726 L567.309 173.254 L726.578 173.254 L726.578 713.726 L567.309 713.726 L567.309 713.726  Z" fill="#009af9" fill-rule="evenodd" fill-opacity="1"/>
<polyline clip-path="url(#clip502)" style="stroke:#000000; stroke-linecap:round; stroke-linejoin:round; stroke-width:12; stroke-opacity:1; fill:none" points="567.309,713.726 567.309,173.254 726.578,173.254 726.578,713.726 567.309,713.726 "/>
<path clip-path="url(#clip502)" d="M766.396 1161.47 L766.396 173.254 L925.665 173.254 L925.665 1161.47 L766.396 1161.47 L766.396 1161.47  Z" fill="#009af9" fill-rule="evenodd" fill-opacity="1"/>
<polyline clip-path="url(#clip502)" style="stroke:#000000; stroke-linecap:round; stroke-linejoin:round; stroke-width:12; stroke-opacity:1; fill:none" points="766.396,1161.47 766.396,173.254 925.665,173.254 925.665,1161.47 766.396,1161.47 "/>
<path clip-path="url(#clip502)" d="M965.482 1452.94 L965.482 173.254 L1124.75 173.254 L1124.75 1452.94 L965.482 1452.94 L965.482 1452.94  Z" fill="#009af9" fill-rule="evenodd" fill-opacity="1"/>
<polyline clip-path="url(#clip502)" style="stroke:#000000; stroke-linecap:round; stroke-linejoin:round; stroke-width:12; stroke-opacity:1; fill:none" points="965.482,1452.94 965.482,173.254 1124.75,173.254 1124.75,1452.94 965.482,1452.94 "/>
<path clip-path="url(#clip502)" d="M1164.57 1688.65 L1164.57 173.254 L1323.84 173.254 L1323.84 1688.65 L1164.57 1688.65 L1164.57 1688.65  Z" fill="#009af9" fill-rule="evenodd" fill-opacity="1"/>
<polyline clip-path="url(#clip502)" style="stroke:#000000; stroke-linecap:round; stroke-linejoin:round; stroke-width:12; stroke-opacity:1; fill:none" points="1164.57,1688.65 1164.57,173.254 1323.84,173.254 1323.84,1688.65 1164.57,1688.65 "/>
<path clip-path="url(#clip502)" d="M1363.65 1351.67 L1363.65 173.254 L1522.92 173.254 L1522.92 1351.67 L1363.65 1351.67 L1363.65 1351.67  Z" fill="#009af9" fill-rule="evenodd" fill-opacity="1"/>
<polyline clip-path="url(#clip502)" style="stroke:#000000; stroke-linecap:round; stroke-linejoin:round; stroke-width:12; stroke-opacity:1; fill:none" points="1363.65,1351.67 1363.65,173.254 1522.92,173.254 1522.92,1351.67 1363.65,1351.67 "/>
<path clip-path="url(#clip502)" d="M1562.74 1085.66 L1562.74 173.254 L1722.01 173.254 L1722.01 1085.66 L1562.74 1085.66 L1562.74 1085.66  Z" fill="#009af9" fill-rule="evenodd" fill-opacity="1"/>
<polyline clip-path="url(#clip502)" style="stroke:#000000; stroke-linecap:round; stroke-linejoin:round; stroke-width:12; stroke-opacity:1; fill:none" points="1562.74,1085.66 1562.74,173.254 1722.01,173.254 1722.01,1085.66 1562.74,1085.66 "/>
<path clip-path="url(#clip502)" d="M1761.83 959.963 L1761.83 173.254 L1921.1 173.254 L1921.1 959.963 L1761.83 959.963 L1761.83 959.963  Z" fill="#009af9" fill-rule="evenodd" fill-opacity="1"/>
<polyline clip-path="url(#clip502)" style="stroke:#000000; stroke-linecap:round; stroke-linejoin:round; stroke-width:12; stroke-opacity:1; fill:none" points="1761.83,959.963 1761.83,173.254 1921.1,173.254 1921.1,959.963 1761.83,959.963 "/>
<path clip-path="url(#clip502)" d="M1960.91 877.657 L1960.91 173.254 L2120.18 173.254 L2120.18 877.657 L1960.91 877.657 L1960.91 877.657  Z" fill="#009af9" fill-rule="evenodd" fill-opacity="1"/>
<polyline clip-path="url(#clip502)" style="stroke:#000000; stroke-linecap:round; stroke-linejoin:round; stroke-width:12; stroke-opacity:1; fill:none" points="1960.91,877.657 1960.91,173.254 2120.18,173.254 2120.18,877.657 1960.91,877.657 "/>
<path clip-path="url(#clip502)" d="M2160 817.628 L2160 173.254 L2319.27 173.254 L2319.27 817.628 L2160 817.628 L2160 817.628  Z" fill="#009af9" fill-rule="evenodd" fill-opacity="1"/>
<polyline clip-path="url(#clip502)" style="stroke:#000000; stroke-linecap:round; stroke-linejoin:round; stroke-width:12; stroke-opacity:1; fill:none" points="2160,817.628 2160,173.254 2319.27,173.254 2319.27,817.628 2160,817.628 "/>
<path clip-path="url(#clip502)" d="M2359.08 771.112 L2359.08 173.254 L2518.35 173.254 L2518.35 771.112 L2359.08 771.112 L2359.08 771.112  Z" fill="#009af9" fill-rule="evenodd" fill-opacity="1"/>
<polyline clip-path="url(#clip502)" style="stroke:#000000; stroke-linecap:round; stroke-linejoin:round; stroke-width:12; stroke-opacity:1; fill:none" points="2359.08,771.112 2359.08,173.254 2518.35,173.254 2518.35,771.112 2359.08,771.112 "/>
<circle clip-path="url(#clip502)" style="fill:#009af9; stroke:none; fill-opacity:0" cx="646.944" cy="713.726" r="2"/>
<circle clip-path="url(#clip502)" style="fill:#009af9; stroke:none; fill-opacity:0" cx="846.03" cy="1161.47" r="2"/>
<circle clip-path="url(#clip502)" style="fill:#009af9; stroke:none; fill-opacity:0" cx="1045.12" cy="1452.94" r="2"/>
<circle clip-path="url(#clip502)" style="fill:#009af9; stroke:none; fill-opacity:0" cx="1244.2" cy="1688.65" r="2"/>
<circle clip-path="url(#clip502)" style="fill:#009af9; stroke:none; fill-opacity:0" cx="1443.29" cy="1351.67" r="2"/>
<circle clip-path="url(#clip502)" style="fill:#009af9; stroke:none; fill-opacity:0" cx="1642.37" cy="1085.66" r="2"/>
<circle clip-path="url(#clip502)" style="fill:#009af9; stroke:none; fill-opacity:0" cx="1841.46" cy="959.963" r="2"/>
<circle clip-path="url(#clip502)" style="fill:#009af9; stroke:none; fill-opacity:0" cx="2040.55" cy="877.657" r="2"/>
<circle clip-path="url(#clip502)" style="fill:#009af9; stroke:none; fill-opacity:0" cx="2239.63" cy="817.628" r="2"/>
<circle clip-path="url(#clip502)" style="fill:#009af9; stroke:none; fill-opacity:0" cx="2438.72" cy="771.112" r="2"/>
<path clip-path="url(#clip500)" d="M1260.23 1680.57 L2565.53 1680.57 L2565.53 1576.89 L1260.23 1576.89  Z" fill="#ffffff" fill-rule="evenodd" fill-opacity="1"/>
<polyline clip-path="url(#clip500)" style="stroke:#000000; stroke-linecap:round; stroke-linejoin:round; stroke-width:4; stroke-opacity:1; fill:none" points="1260.23,1680.57 2565.53,1680.57 2565.53,1576.89 1260.23,1576.89 1260.23,1680.57 "/>
<path clip-path="url(#clip500)" d="M1285.3 1649.47 L1435.76 1649.47 L1435.76 1608 L1285.3 1608 L1285.3 1649.47  Z" fill="#009af9" fill-rule="evenodd" fill-opacity="1"/>
<polyline clip-path="url(#clip500)" style="stroke:#000000; stroke-linecap:round; stroke-linejoin:round; stroke-width:12; stroke-opacity:1; fill:none" points="1285.3,1649.47 1435.76,1649.47 1435.76,1608 1285.3,1608 1285.3,1649.47 "/>
<path clip-path="url(#clip500)" d="M1476.66 1616.06 L1470.32 1633.26 L1483.03 1633.26 L1476.66 1616.06 M1474.03 1611.45 L1479.33 1611.45 L1492.5 1646.01 L1487.64 1646.01 L1484.49 1637.15 L1468.91 1637.15 L1465.76 1646.01 L1460.83 1646.01 L1474.03 1611.45 Z" fill="#000000" fill-rule="evenodd" fill-opacity="1" /><path clip-path="url(#clip500)" d="M1512.98 1624.49 L1542.66 1624.49 L1542.66 1628.37 L1512.98 1628.37 L1512.98 1624.49 M1512.98 1633.93 L1542.66 1633.93 L1542.66 1637.86 L1512.98 1637.86 L1512.98 1633.93 Z" fill="#000000" fill-rule="evenodd" fill-opacity="1" /><path clip-path="url(#clip500)" d="M1567.4 1611.45 L1572.08 1611.45 L1572.08 1642.08 L1588.91 1642.08 L1588.91 1646.01 L1567.4 1646.01 L1567.4 1611.45 Z" fill="#000000" fill-rule="evenodd" fill-opacity="1" /><path clip-path="url(#clip500)" d="M1593.63 1620.09 L1597.89 1620.09 L1597.89 1646.01 L1593.63 1646.01 L1593.63 1620.09 M1593.63 1609.99 L1597.89 1609.99 L1597.89 1615.39 L1593.63 1615.39 L1593.63 1609.99 Z" fill="#000000" fill-rule="evenodd" fill-opacity="1" /><path clip-path="url(#clip500)" d="M1628.35 1630.36 L1628.35 1646.01 L1624.09 1646.01 L1624.09 1630.5 Q1624.09 1626.82 1622.66 1624.99 Q1621.22 1623.17 1618.35 1623.17 Q1614.9 1623.17 1612.91 1625.36 Q1610.92 1627.56 1610.92 1631.36 L1610.92 1646.01 L1606.64 1646.01 L1606.64 1620.09 L1610.92 1620.09 L1610.92 1624.11 Q1612.45 1621.78 1614.51 1620.62 Q1616.59 1619.46 1619.3 1619.46 Q1623.77 1619.46 1626.06 1622.24 Q1628.35 1624.99 1628.35 1630.36 Z" fill="#000000" fill-rule="evenodd" fill-opacity="1" /><path clip-path="url(#clip500)" d="M1659.02 1631.99 L1659.02 1634.07 L1639.44 1634.07 Q1639.72 1638.47 1642.08 1640.78 Q1644.46 1643.07 1648.7 1643.07 Q1651.15 1643.07 1653.45 1642.47 Q1655.76 1641.87 1658.03 1640.67 L1658.03 1644.69 Q1655.74 1645.67 1653.33 1646.17 Q1650.92 1646.68 1648.45 1646.68 Q1642.24 1646.68 1638.61 1643.07 Q1635 1639.46 1635 1633.3 Q1635 1626.94 1638.42 1623.21 Q1641.87 1619.46 1647.71 1619.46 Q1652.94 1619.46 1655.97 1622.84 Q1659.02 1626.2 1659.02 1631.99 M1654.77 1630.74 Q1654.72 1627.24 1652.8 1625.16 Q1650.9 1623.07 1647.75 1623.07 Q1644.19 1623.07 1642.03 1625.09 Q1639.9 1627.1 1639.58 1630.76 L1654.77 1630.74 Z" fill="#000000" fill-rule="evenodd" fill-opacity="1" /><path clip-path="url(#clip500)" d="M1677.8 1632.98 Q1672.64 1632.98 1670.64 1634.16 Q1668.65 1635.34 1668.65 1638.19 Q1668.65 1640.46 1670.14 1641.8 Q1671.64 1643.12 1674.21 1643.12 Q1677.75 1643.12 1679.88 1640.62 Q1682.03 1638.1 1682.03 1633.93 L1682.03 1632.98 L1677.8 1632.98 M1686.29 1631.22 L1686.29 1646.01 L1682.03 1646.01 L1682.03 1642.08 Q1680.58 1644.44 1678.4 1645.57 Q1676.22 1646.68 1673.08 1646.68 Q1669.09 1646.68 1666.73 1644.46 Q1664.39 1642.22 1664.39 1638.47 Q1664.39 1634.09 1667.31 1631.87 Q1670.25 1629.65 1676.06 1629.65 L1682.03 1629.65 L1682.03 1629.23 Q1682.03 1626.29 1680.09 1624.69 Q1678.17 1623.07 1674.67 1623.07 Q1672.45 1623.07 1670.34 1623.61 Q1668.24 1624.14 1666.29 1625.2 L1666.29 1621.27 Q1668.63 1620.36 1670.83 1619.93 Q1673.03 1619.46 1675.11 1619.46 Q1680.74 1619.46 1683.52 1622.38 Q1686.29 1625.3 1686.29 1631.22 Z" fill="#000000" fill-rule="evenodd" fill-opacity="1" /><path clip-path="url(#clip500)" d="M1710.09 1624.07 Q1709.37 1623.65 1708.52 1623.47 Q1707.68 1623.26 1706.66 1623.26 Q1703.05 1623.26 1701.11 1625.62 Q1699.19 1627.96 1699.19 1632.36 L1699.19 1646.01 L1694.9 1646.01 L1694.9 1620.09 L1699.19 1620.09 L1699.19 1624.11 Q1700.53 1621.75 1702.68 1620.62 Q1704.83 1619.46 1707.91 1619.46 Q1708.35 1619.46 1708.89 1619.53 Q1709.42 1619.58 1710.07 1619.69 L1710.09 1624.07 Z" fill="#000000" fill-rule="evenodd" fill-opacity="1" /><path clip-path="url(#clip500)" d="M1714.56 1609.99 L1718.82 1609.99 L1718.82 1646.01 L1714.56 1646.01 L1714.56 1609.99 Z" fill="#000000" fill-rule="evenodd" fill-opacity="1" /><path clip-path="url(#clip500)" d="M1738.51 1648.42 Q1736.71 1653.05 1735 1654.46 Q1733.28 1655.87 1730.41 1655.87 L1727.01 1655.87 L1727.01 1652.31 L1729.51 1652.31 Q1731.27 1652.31 1732.24 1651.48 Q1733.21 1650.64 1734.39 1647.54 L1735.16 1645.6 L1724.67 1620.09 L1729.19 1620.09 L1737.29 1640.36 L1745.39 1620.09 L1749.9 1620.09 L1738.51 1648.42 Z" fill="#000000" fill-rule="evenodd" fill-opacity="1" /><path clip-path="url(#clip500)" d="M1770.85 1620.09 L1775.11 1620.09 L1775.11 1646.01 L1770.85 1646.01 L1770.85 1620.09 M1770.85 1609.99 L1775.11 1609.99 L1775.11 1615.39 L1770.85 1615.39 L1770.85 1609.99 Z" fill="#000000" fill-rule="evenodd" fill-opacity="1" /><path clip-path="url(#clip500)" d="M1805.57 1630.36 L1805.57 1646.01 L1801.32 1646.01 L1801.32 1630.5 Q1801.32 1626.82 1799.88 1624.99 Q1798.45 1623.17 1795.57 1623.17 Q1792.13 1623.17 1790.14 1625.36 Q1788.14 1627.56 1788.14 1631.36 L1788.14 1646.01 L1783.86 1646.01 L1783.86 1620.09 L1788.14 1620.09 L1788.14 1624.11 Q1789.67 1621.78 1791.73 1620.62 Q1793.82 1619.46 1796.52 1619.46 Q1800.99 1619.46 1803.28 1622.24 Q1805.57 1624.99 1805.57 1630.36 Z" fill="#000000" fill-rule="evenodd" fill-opacity="1" /><path clip-path="url(#clip500)" d="M1832.73 1621.08 L1832.73 1625.06 Q1830.92 1624.07 1829.09 1623.58 Q1827.29 1623.07 1825.44 1623.07 Q1821.29 1623.07 1819 1625.71 Q1816.71 1628.33 1816.71 1633.07 Q1816.71 1637.82 1819 1640.46 Q1821.29 1643.07 1825.44 1643.07 Q1827.29 1643.07 1829.09 1642.59 Q1830.92 1642.08 1832.73 1641.08 L1832.73 1645.02 Q1830.94 1645.85 1829.02 1646.27 Q1827.13 1646.68 1824.97 1646.68 Q1819.12 1646.68 1815.67 1643 Q1812.22 1639.32 1812.22 1633.07 Q1812.22 1626.73 1815.69 1623.1 Q1819.19 1619.46 1825.25 1619.46 Q1827.22 1619.46 1829.09 1619.88 Q1830.97 1620.27 1832.73 1621.08 Z" fill="#000000" fill-rule="evenodd" fill-opacity="1" /><path clip-path="url(#clip500)" d="M1855.16 1624.07 Q1854.44 1623.65 1853.58 1623.47 Q1852.75 1623.26 1851.73 1623.26 Q1848.12 1623.26 1846.18 1625.62 Q1844.26 1627.96 1844.26 1632.36 L1844.26 1646.01 L1839.97 1646.01 L1839.97 1620.09 L1844.26 1620.09 L1844.26 1624.11 Q1845.6 1621.75 1847.75 1620.62 Q1849.9 1619.46 1852.98 1619.46 Q1853.42 1619.46 1853.95 1619.53 Q1854.49 1619.58 1855.13 1619.69 L1855.16 1624.07 Z" fill="#000000" fill-rule="evenodd" fill-opacity="1" /><path clip-path="url(#clip500)" d="M1880.76 1631.99 L1880.76 1634.07 L1861.18 1634.07 Q1861.45 1638.47 1863.82 1640.78 Q1866.2 1643.07 1870.44 1643.07 Q1872.89 1643.07 1875.18 1642.47 Q1877.5 1641.87 1879.76 1640.67 L1879.76 1644.69 Q1877.47 1645.67 1875.07 1646.17 Q1872.66 1646.68 1870.18 1646.68 Q1863.98 1646.68 1860.34 1643.07 Q1856.73 1639.46 1856.73 1633.3 Q1856.73 1626.94 1860.16 1623.21 Q1863.61 1619.46 1869.44 1619.46 Q1874.67 1619.46 1877.7 1622.84 Q1880.76 1626.2 1880.76 1631.99 M1876.5 1630.74 Q1876.45 1627.24 1874.53 1625.16 Q1872.63 1623.07 1869.49 1623.07 Q1865.92 1623.07 1863.77 1625.09 Q1861.64 1627.1 1861.32 1630.76 L1876.5 1630.74 Z" fill="#000000" fill-rule="evenodd" fill-opacity="1" /><path clip-path="url(#clip500)" d="M1899.53 1632.98 Q1894.37 1632.98 1892.38 1634.16 Q1890.39 1635.34 1890.39 1638.19 Q1890.39 1640.46 1891.87 1641.8 Q1893.38 1643.12 1895.94 1643.12 Q1899.49 1643.12 1901.62 1640.62 Q1903.77 1638.1 1903.77 1633.93 L1903.77 1632.98 L1899.53 1632.98 M1908.03 1631.22 L1908.03 1646.01 L1903.77 1646.01 L1903.77 1642.08 Q1902.31 1644.44 1900.13 1645.57 Q1897.96 1646.68 1894.81 1646.68 Q1890.83 1646.68 1888.47 1644.46 Q1886.13 1642.22 1886.13 1638.47 Q1886.13 1634.09 1889.05 1631.87 Q1891.99 1629.65 1897.8 1629.65 L1903.77 1629.65 L1903.77 1629.23 Q1903.77 1626.29 1901.82 1624.69 Q1899.9 1623.07 1896.41 1623.07 Q1894.19 1623.07 1892.08 1623.61 Q1889.97 1624.14 1888.03 1625.2 L1888.03 1621.27 Q1890.37 1620.36 1892.57 1619.93 Q1894.76 1619.46 1896.85 1619.46 Q1902.47 1619.46 1905.25 1622.38 Q1908.03 1625.3 1908.03 1631.22 Z" fill="#000000" fill-rule="evenodd" fill-opacity="1" /><path clip-path="url(#clip500)" d="M1933.33 1620.85 L1933.33 1624.88 Q1931.52 1623.95 1929.58 1623.49 Q1927.63 1623.03 1925.55 1623.03 Q1922.38 1623.03 1920.78 1624 Q1919.21 1624.97 1919.21 1626.92 Q1919.21 1628.4 1920.34 1629.25 Q1921.48 1630.09 1924.9 1630.85 L1926.36 1631.17 Q1930.9 1632.15 1932.8 1633.93 Q1934.72 1635.69 1934.72 1638.86 Q1934.72 1642.47 1931.85 1644.58 Q1929 1646.68 1924 1646.68 Q1921.92 1646.68 1919.65 1646.27 Q1917.4 1645.87 1914.9 1645.06 L1914.9 1640.67 Q1917.26 1641.89 1919.56 1642.52 Q1921.85 1643.12 1924.09 1643.12 Q1927.1 1643.12 1928.72 1642.1 Q1930.34 1641.06 1930.34 1639.18 Q1930.34 1637.45 1929.16 1636.52 Q1928 1635.6 1924.05 1634.74 L1922.56 1634.39 Q1918.61 1633.56 1916.85 1631.85 Q1915.09 1630.11 1915.09 1627.1 Q1915.09 1623.44 1917.68 1621.45 Q1920.27 1619.46 1925.04 1619.46 Q1927.4 1619.46 1929.49 1619.81 Q1931.57 1620.16 1933.33 1620.85 Z" fill="#000000" fill-rule="evenodd" fill-opacity="1" /><path clip-path="url(#clip500)" d="M1941.5 1620.09 L1945.76 1620.09 L1945.76 1646.01 L1941.5 1646.01 L1941.5 1620.09 M1941.5 1609.99 L1945.76 1609.99 L1945.76 1615.39 L1941.5 1615.39 L1941.5 1609.99 Z" fill="#000000" fill-rule="evenodd" fill-opacity="1" /><path clip-path="url(#clip500)" d="M1976.22 1630.36 L1976.22 1646.01 L1971.96 1646.01 L1971.96 1630.5 Q1971.96 1626.82 1970.53 1624.99 Q1969.09 1623.17 1966.22 1623.17 Q1962.77 1623.17 1960.78 1625.36 Q1958.79 1627.56 1958.79 1631.36 L1958.79 1646.01 L1954.51 1646.01 L1954.51 1620.09 L1958.79 1620.09 L1958.79 1624.11 Q1960.32 1621.78 1962.38 1620.62 Q1964.46 1619.46 1967.17 1619.46 Q1971.64 1619.46 1973.93 1622.24 Q1976.22 1624.99 1976.22 1630.36 Z" fill="#000000" fill-rule="evenodd" fill-opacity="1" /><path clip-path="url(#clip500)" d="M2001.78 1632.75 Q2001.78 1628.12 1999.86 1625.57 Q1997.96 1623.03 1994.51 1623.03 Q1991.08 1623.03 1989.16 1625.57 Q1987.26 1628.12 1987.26 1632.75 Q1987.26 1637.36 1989.16 1639.9 Q1991.08 1642.45 1994.51 1642.45 Q1997.96 1642.45 1999.86 1639.9 Q2001.78 1637.36 2001.78 1632.75 M2006.04 1642.8 Q2006.04 1649.42 2003.1 1652.63 Q2000.16 1655.87 1994.09 1655.87 Q1991.85 1655.87 1989.86 1655.53 Q1987.87 1655.2 1985.99 1654.51 L1985.99 1650.36 Q1987.87 1651.38 1989.69 1651.87 Q1991.52 1652.36 1993.42 1652.36 Q1997.61 1652.36 1999.69 1650.16 Q2001.78 1647.98 2001.78 1643.56 L2001.78 1641.45 Q2000.46 1643.74 1998.4 1644.88 Q1996.34 1646.01 1993.47 1646.01 Q1988.7 1646.01 1985.78 1642.38 Q1982.87 1638.74 1982.87 1632.75 Q1982.87 1626.73 1985.78 1623.1 Q1988.7 1619.46 1993.47 1619.46 Q1996.34 1619.46 1998.4 1620.6 Q2000.46 1621.73 2001.78 1624.02 L2001.78 1620.09 L2006.04 1620.09 L2006.04 1642.8 Z" fill="#000000" fill-rule="evenodd" fill-opacity="1" /><path clip-path="url(#clip500)" d="M2041.66 1632.98 Q2036.5 1632.98 2034.51 1634.16 Q2032.52 1635.34 2032.52 1638.19 Q2032.52 1640.46 2034 1641.8 Q2035.5 1643.12 2038.07 1643.12 Q2041.62 1643.12 2043.74 1640.62 Q2045.9 1638.1 2045.9 1633.93 L2045.9 1632.98 L2041.66 1632.98 M2050.16 1631.22 L2050.16 1646.01 L2045.9 1646.01 L2045.9 1642.08 Q2044.44 1644.44 2042.26 1645.57 Q2040.09 1646.68 2036.94 1646.68 Q2032.96 1646.68 2030.6 1644.46 Q2028.26 1642.22 2028.26 1638.47 Q2028.26 1634.09 2031.18 1631.87 Q2034.12 1629.65 2039.93 1629.65 L2045.9 1629.65 L2045.9 1629.23 Q2045.9 1626.29 2043.95 1624.69 Q2042.03 1623.07 2038.54 1623.07 Q2036.31 1623.07 2034.21 1623.61 Q2032.1 1624.14 2030.16 1625.2 L2030.16 1621.27 Q2032.49 1620.36 2034.69 1619.93 Q2036.89 1619.46 2038.98 1619.46 Q2044.6 1619.46 2047.38 1622.38 Q2050.16 1625.3 2050.16 1631.22 Z" fill="#000000" fill-rule="evenodd" fill-opacity="1" /><path clip-path="url(#clip500)" d="M2080.48 1630.36 L2080.48 1646.01 L2076.22 1646.01 L2076.22 1630.5 Q2076.22 1626.82 2074.79 1624.99 Q2073.35 1623.17 2070.48 1623.17 Q2067.03 1623.17 2065.04 1625.36 Q2063.05 1627.56 2063.05 1631.36 L2063.05 1646.01 L2058.77 1646.01 L2058.77 1620.09 L2063.05 1620.09 L2063.05 1624.11 Q2064.58 1621.78 2066.64 1620.62 Q2068.72 1619.46 2071.43 1619.46 Q2075.9 1619.46 2078.19 1622.24 Q2080.48 1624.99 2080.48 1630.36 Z" fill="#000000" fill-rule="evenodd" fill-opacity="1" /><path clip-path="url(#clip500)" d="M2106.04 1624.02 L2106.04 1609.99 L2110.3 1609.99 L2110.3 1646.01 L2106.04 1646.01 L2106.04 1642.12 Q2104.69 1644.44 2102.63 1645.57 Q2100.6 1646.68 2097.73 1646.68 Q2093.03 1646.68 2090.06 1642.93 Q2087.12 1639.18 2087.12 1633.07 Q2087.12 1626.96 2090.06 1623.21 Q2093.03 1619.46 2097.73 1619.46 Q2100.6 1619.46 2102.63 1620.6 Q2104.69 1621.71 2106.04 1624.02 M2091.52 1633.07 Q2091.52 1637.77 2093.44 1640.46 Q2095.39 1643.12 2098.77 1643.12 Q2102.15 1643.12 2104.09 1640.46 Q2106.04 1637.77 2106.04 1633.07 Q2106.04 1628.37 2104.09 1625.71 Q2102.15 1623.03 2098.77 1623.03 Q2095.39 1623.03 2093.44 1625.71 Q2091.52 1628.37 2091.52 1633.07 Z" fill="#000000" fill-rule="evenodd" fill-opacity="1" /><path clip-path="url(#clip500)" d="M2149.16 1624.07 Q2148.44 1623.65 2147.59 1623.47 Q2146.75 1623.26 2145.73 1623.26 Q2142.12 1623.26 2140.18 1625.62 Q2138.26 1627.96 2138.26 1632.36 L2138.26 1646.01 L2133.98 1646.01 L2133.98 1620.09 L2138.26 1620.09 L2138.26 1624.11 Q2139.6 1621.75 2141.75 1620.62 Q2143.91 1619.46 2146.98 1619.46 Q2147.42 1619.46 2147.96 1619.53 Q2148.49 1619.58 2149.14 1619.69 L2149.16 1624.07 Z" fill="#000000" fill-rule="evenodd" fill-opacity="1" /><path clip-path="url(#clip500)" d="M2174.76 1631.99 L2174.76 1634.07 L2155.18 1634.07 Q2155.46 1638.47 2157.82 1640.78 Q2160.2 1643.07 2164.44 1643.07 Q2166.89 1643.07 2169.18 1642.47 Q2171.5 1641.87 2173.77 1640.67 L2173.77 1644.69 Q2171.48 1645.67 2169.07 1646.17 Q2166.66 1646.68 2164.18 1646.68 Q2157.98 1646.68 2154.35 1643.07 Q2150.73 1639.46 2150.73 1633.3 Q2150.73 1626.94 2154.16 1623.21 Q2157.61 1619.46 2163.44 1619.46 Q2168.67 1619.46 2171.71 1622.84 Q2174.76 1626.2 2174.76 1631.99 M2170.5 1630.74 Q2170.46 1627.24 2168.54 1625.16 Q2166.64 1623.07 2163.49 1623.07 Q2159.92 1623.07 2157.77 1625.09 Q2155.64 1627.1 2155.32 1630.76 L2170.5 1630.74 Z" fill="#000000" fill-rule="evenodd" fill-opacity="1" /><path clip-path="url(#clip500)" d="M2193.54 1632.98 Q2188.37 1632.98 2186.38 1634.16 Q2184.39 1635.34 2184.39 1638.19 Q2184.39 1640.46 2185.87 1641.8 Q2187.38 1643.12 2189.95 1643.12 Q2193.49 1643.12 2195.62 1640.62 Q2197.77 1638.1 2197.77 1633.93 L2197.77 1632.98 L2193.54 1632.98 M2202.03 1631.22 L2202.03 1646.01 L2197.77 1646.01 L2197.77 1642.08 Q2196.31 1644.44 2194.14 1645.57 Q2191.96 1646.68 2188.81 1646.68 Q2184.83 1646.68 2182.47 1644.46 Q2180.13 1642.22 2180.13 1638.47 Q2180.13 1634.09 2183.05 1631.87 Q2185.99 1629.65 2191.8 1629.65 L2197.77 1629.65 L2197.77 1629.23 Q2197.77 1626.29 2195.83 1624.69 Q2193.91 1623.07 2190.41 1623.07 Q2188.19 1623.07 2186.08 1623.61 Q2183.98 1624.14 2182.03 1625.2 L2182.03 1621.27 Q2184.37 1620.36 2186.57 1619.93 Q2188.77 1619.46 2190.85 1619.46 Q2196.48 1619.46 2199.25 1622.38 Q2202.03 1625.3 2202.03 1631.22 Z" fill="#000000" fill-rule="evenodd" fill-opacity="1" /><path clip-path="url(#clip500)" d="M2230.99 1625.06 Q2232.59 1622.19 2234.81 1620.83 Q2237.03 1619.46 2240.04 1619.46 Q2244.09 1619.46 2246.29 1622.31 Q2248.49 1625.13 2248.49 1630.36 L2248.49 1646.01 L2244.21 1646.01 L2244.21 1630.5 Q2244.21 1626.78 2242.89 1624.97 Q2241.57 1623.17 2238.86 1623.17 Q2235.55 1623.17 2233.63 1625.36 Q2231.71 1627.56 2231.71 1631.36 L2231.71 1646.01 L2227.42 1646.01 L2227.42 1630.5 Q2227.42 1626.75 2226.1 1624.97 Q2224.79 1623.17 2222.03 1623.17 Q2218.77 1623.17 2216.85 1625.39 Q2214.92 1627.59 2214.92 1631.36 L2214.92 1646.01 L2210.64 1646.01 L2210.64 1620.09 L2214.92 1620.09 L2214.92 1624.11 Q2216.38 1621.73 2218.42 1620.6 Q2220.46 1619.46 2223.26 1619.46 Q2226.08 1619.46 2228.05 1620.9 Q2230.04 1622.33 2230.99 1625.06 Z" fill="#000000" fill-rule="evenodd" fill-opacity="1" /><path clip-path="url(#clip500)" d="M2256.98 1620.09 L2261.24 1620.09 L2261.24 1646.01 L2256.98 1646.01 L2256.98 1620.09 M2256.98 1609.99 L2261.24 1609.99 L2261.24 1615.39 L2256.98 1615.39 L2256.98 1609.99 Z" fill="#000000" fill-rule="evenodd" fill-opacity="1" /><path clip-path="url(#clip500)" d="M2291.71 1630.36 L2291.71 1646.01 L2287.45 1646.01 L2287.45 1630.5 Q2287.45 1626.82 2286.01 1624.99 Q2284.58 1623.17 2281.71 1623.17 Q2278.26 1623.17 2276.27 1625.36 Q2274.28 1627.56 2274.28 1631.36 L2274.28 1646.01 L2269.99 1646.01 L2269.99 1620.09 L2274.28 1620.09 L2274.28 1624.11 Q2275.8 1621.78 2277.86 1620.62 Q2279.95 1619.46 2282.66 1619.46 Q2287.12 1619.46 2289.41 1622.24 Q2291.71 1624.99 2291.71 1630.36 Z" fill="#000000" fill-rule="evenodd" fill-opacity="1" /><path clip-path="url(#clip500)" d="M2316.73 1620.85 L2316.73 1624.88 Q2314.92 1623.95 2312.98 1623.49 Q2311.03 1623.03 2308.95 1623.03 Q2305.78 1623.03 2304.18 1624 Q2302.61 1624.97 2302.61 1626.92 Q2302.61 1628.4 2303.74 1629.25 Q2304.88 1630.09 2308.3 1630.85 L2309.76 1631.17 Q2314.3 1632.15 2316.2 1633.93 Q2318.12 1635.69 2318.12 1638.86 Q2318.12 1642.47 2315.25 1644.58 Q2312.4 1646.68 2307.4 1646.68 Q2305.32 1646.68 2303.05 1646.27 Q2300.8 1645.87 2298.3 1645.06 L2298.3 1640.67 Q2300.66 1641.89 2302.96 1642.52 Q2305.25 1643.12 2307.49 1643.12 Q2310.5 1643.12 2312.12 1642.1 Q2313.74 1641.06 2313.74 1639.18 Q2313.74 1637.45 2312.56 1636.52 Q2311.41 1635.6 2307.45 1634.74 L2305.97 1634.39 Q2302.01 1633.56 2300.25 1631.85 Q2298.49 1630.11 2298.49 1627.1 Q2298.49 1623.44 2301.08 1621.45 Q2303.67 1619.46 2308.44 1619.46 Q2310.8 1619.46 2312.89 1619.81 Q2314.97 1620.16 2316.73 1620.85 Z" fill="#000000" fill-rule="evenodd" fill-opacity="1" /><path clip-path="url(#clip500)" d="M2358.63 1621.08 L2358.63 1625.06 Q2356.82 1624.07 2354.99 1623.58 Q2353.19 1623.07 2351.34 1623.07 Q2347.19 1623.07 2344.9 1625.71 Q2342.61 1628.33 2342.61 1633.07 Q2342.61 1637.82 2344.9 1640.46 Q2347.19 1643.07 2351.34 1643.07 Q2353.19 1643.07 2354.99 1642.59 Q2356.82 1642.08 2358.63 1641.08 L2358.63 1645.02 Q2356.84 1645.85 2354.92 1646.27 Q2353.03 1646.68 2350.87 1646.68 Q2345.02 1646.68 2341.57 1643 Q2338.12 1639.32 2338.12 1633.07 Q2338.12 1626.73 2341.59 1623.1 Q2345.09 1619.46 2351.15 1619.46 Q2353.12 1619.46 2354.99 1619.88 Q2356.87 1620.27 2358.63 1621.08 Z" fill="#000000" fill-rule="evenodd" fill-opacity="1" /><path clip-path="url(#clip500)" d="M2376.08 1623.07 Q2372.66 1623.07 2370.66 1625.76 Q2368.67 1628.42 2368.67 1633.07 Q2368.67 1637.73 2370.64 1640.41 Q2372.63 1643.07 2376.08 1643.07 Q2379.48 1643.07 2381.47 1640.39 Q2383.47 1637.7 2383.47 1633.07 Q2383.47 1628.47 2381.47 1625.78 Q2379.48 1623.07 2376.08 1623.07 M2376.08 1619.46 Q2381.64 1619.46 2384.81 1623.07 Q2387.98 1626.68 2387.98 1633.07 Q2387.98 1639.44 2384.81 1643.07 Q2381.64 1646.68 2376.08 1646.68 Q2370.5 1646.68 2367.33 1643.07 Q2364.18 1639.44 2364.18 1633.07 Q2364.18 1626.68 2367.33 1623.07 Q2370.5 1619.46 2376.08 1619.46 Z" fill="#000000" fill-rule="evenodd" fill-opacity="1" /><path clip-path="url(#clip500)" d="M2416.59 1630.36 L2416.59 1646.01 L2412.33 1646.01 L2412.33 1630.5 Q2412.33 1626.82 2410.9 1624.99 Q2409.46 1623.17 2406.59 1623.17 Q2403.14 1623.17 2401.15 1625.36 Q2399.16 1627.56 2399.16 1631.36 L2399.16 1646.01 L2394.88 1646.01 L2394.88 1620.09 L2399.16 1620.09 L2399.16 1624.11 Q2400.69 1621.78 2402.75 1620.62 Q2404.83 1619.46 2407.54 1619.46 Q2412.01 1619.46 2414.3 1622.24 Q2416.59 1624.99 2416.59 1630.36 Z" fill="#000000" fill-rule="evenodd" fill-opacity="1" /><path clip-path="url(#clip500)" d="M2441.61 1620.85 L2441.61 1624.88 Q2439.81 1623.95 2437.86 1623.49 Q2435.92 1623.03 2433.84 1623.03 Q2430.66 1623.03 2429.07 1624 Q2427.49 1624.97 2427.49 1626.92 Q2427.49 1628.4 2428.63 1629.25 Q2429.76 1630.09 2433.19 1630.85 L2434.65 1631.17 Q2439.18 1632.15 2441.08 1633.93 Q2443 1635.69 2443 1638.86 Q2443 1642.47 2440.13 1644.58 Q2437.28 1646.68 2432.28 1646.68 Q2430.2 1646.68 2427.93 1646.27 Q2425.69 1645.87 2423.19 1645.06 L2423.19 1640.67 Q2425.55 1641.89 2427.84 1642.52 Q2430.13 1643.12 2432.38 1643.12 Q2435.39 1643.12 2437.01 1642.1 Q2438.63 1641.06 2438.63 1639.18 Q2438.63 1637.45 2437.45 1636.52 Q2436.29 1635.6 2432.33 1634.74 L2430.85 1634.39 Q2426.89 1633.56 2425.13 1631.85 Q2423.37 1630.11 2423.37 1627.1 Q2423.37 1623.44 2425.96 1621.45 Q2428.56 1619.46 2433.33 1619.46 Q2435.69 1619.46 2437.77 1619.81 Q2439.85 1620.16 2441.61 1620.85 Z" fill="#000000" fill-rule="evenodd" fill-opacity="1" /><path clip-path="url(#clip500)" d="M2454 1612.73 L2454 1620.09 L2462.77 1620.09 L2462.77 1623.4 L2454 1623.4 L2454 1637.47 Q2454 1640.64 2454.85 1641.55 Q2455.73 1642.45 2458.4 1642.45 L2462.77 1642.45 L2462.77 1646.01 L2458.4 1646.01 Q2453.46 1646.01 2451.59 1644.18 Q2449.71 1642.33 2449.71 1637.47 L2449.71 1623.4 L2446.59 1623.4 L2446.59 1620.09 L2449.71 1620.09 L2449.71 1612.73 L2454 1612.73 Z" fill="#000000" fill-rule="evenodd" fill-opacity="1" /><path clip-path="url(#clip500)" d="M2480.15 1632.98 Q2474.99 1632.98 2473 1634.16 Q2471.01 1635.34 2471.01 1638.19 Q2471.01 1640.46 2472.49 1641.8 Q2474 1643.12 2476.57 1643.12 Q2480.11 1643.12 2482.24 1640.62 Q2484.39 1638.1 2484.39 1633.93 L2484.39 1632.98 L2480.15 1632.98 M2488.65 1631.22 L2488.65 1646.01 L2484.39 1646.01 L2484.39 1642.08 Q2482.93 1644.44 2480.76 1645.57 Q2478.58 1646.68 2475.43 1646.68 Q2471.45 1646.68 2469.09 1644.46 Q2466.75 1642.22 2466.75 1638.47 Q2466.75 1634.09 2469.67 1631.87 Q2472.61 1629.65 2478.42 1629.65 L2484.39 1629.65 L2484.39 1629.23 Q2484.39 1626.29 2482.45 1624.69 Q2480.52 1623.07 2477.03 1623.07 Q2474.81 1623.07 2472.7 1623.61 Q2470.59 1624.14 2468.65 1625.2 L2468.65 1621.27 Q2470.99 1620.36 2473.19 1619.93 Q2475.39 1619.46 2477.47 1619.46 Q2483.09 1619.46 2485.87 1622.38 Q2488.65 1625.3 2488.65 1631.22 Z" fill="#000000" fill-rule="evenodd" fill-opacity="1" /><path clip-path="url(#clip500)" d="M2518.97 1630.36 L2518.97 1646.01 L2514.71 1646.01 L2514.71 1630.5 Q2514.71 1626.82 2513.28 1624.99 Q2511.84 1623.17 2508.97 1623.17 Q2505.52 1623.17 2503.53 1625.36 Q2501.54 1627.56 2501.54 1631.36 L2501.54 1646.01 L2497.26 1646.01 L2497.26 1620.09 L2501.54 1620.09 L2501.54 1624.11 Q2503.07 1621.78 2505.13 1620.62 Q2507.21 1619.46 2509.92 1619.46 Q2514.39 1619.46 2516.68 1622.24 Q2518.97 1624.99 2518.97 1630.36 Z" fill="#000000" fill-rule="evenodd" fill-opacity="1" /><path clip-path="url(#clip500)" d="M2531.68 1612.73 L2531.68 1620.09 L2540.46 1620.09 L2540.46 1623.4 L2531.68 1623.4 L2531.68 1637.47 Q2531.68 1640.64 2532.54 1641.55 Q2533.42 1642.45 2536.08 1642.45 L2540.46 1642.45 L2540.46 1646.01 L2536.08 1646.01 Q2531.15 1646.01 2529.27 1644.18 Q2527.4 1642.33 2527.4 1637.47 L2527.4 1623.4 L2524.27 1623.4 L2524.27 1620.09 L2527.4 1620.09 L2527.4 1612.73 L2531.68 1612.73 Z" fill="#000000" fill-rule="evenodd" fill-opacity="1" /></svg>
