<?xml version="1.0" encoding="utf-8"?>
<svg xmlns="http://www.w3.org/2000/svg" xmlns:xlink="http://www.w3.org/1999/xlink" width="672" height="480" viewBox="0 0 2688 1920">
<defs>
  <clipPath id="clip800">
    <rect x="0" y="0" width="2688" height="1920"/>
  </clipPath>
</defs>
<path clip-path="url(#clip800)" d="M0 1920 L2688 1920 L2688 0 L0 0  Z" fill="#ffffff" fill-rule="evenodd" fill-opacity="1"/>
<defs>
  <clipPath id="clip801">
    <rect x="537" y="0" width="1883" height="1883"/>
  </clipPath>
</defs>
<path clip-path="url(#clip800)" d="M373.57 1734.12 L2640.76 1734.12 L2640.76 127.792 L373.57 127.792  Z" fill="#ffffff" fill-rule="evenodd" fill-opacity="1"/>
<defs>
  <clipPath id="clip802">
    <rect x="373" y="127" width="2268" height="1607"/>
  </clipPath>
</defs>
<polyline clip-path="url(#clip802)" style="stroke:#5f9ea0; stroke-linecap:round; stroke-linejoin:round; stroke-width:8; stroke-opacity:0.4; fill:none" stroke-dasharray="32, 16, 4, 16" points="437.736,1734.12 437.736,127.792 "/>
<polyline clip-path="url(#clip802)" style="stroke:#5f9ea0; stroke-linecap:round; stroke-linejoin:round; stroke-width:8; stroke-opacity:0.4; fill:none" stroke-dasharray="32, 16, 4, 16" points="937.749,1734.12 937.749,127.792 "/>
<polyline clip-path="url(#clip802)" style="stroke:#5f9ea0; stroke-linecap:round; stroke-linejoin:round; stroke-width:8; stroke-opacity:0.4; fill:none" stroke-dasharray="32, 16, 4, 16" points="1437.76,1734.12 1437.76,127.792 "/>
<polyline clip-path="url(#clip802)" style="stroke:#5f9ea0; stroke-linecap:round; stroke-linejoin:round; stroke-width:8; stroke-opacity:0.4; fill:none" stroke-dasharray="32, 16, 4, 16" points="1937.77,1734.12 1937.77,127.792 "/>
<polyline clip-path="url(#clip802)" style="stroke:#5f9ea0; stroke-linecap:round; stroke-linejoin:round; stroke-width:8; stroke-opacity:0.4; fill:none" stroke-dasharray="32, 16, 4, 16" points="2437.79,1734.12 2437.79,127.792 "/>
<polyline clip-path="url(#clip800)" style="stroke:#000000; stroke-linecap:round; stroke-linejoin:round; stroke-width:4; stroke-opacity:1; fill:none" points="373.57,1734.12 2640.76,1734.12 "/>
<polyline clip-path="url(#clip800)" style="stroke:#000000; stroke-linecap:round; stroke-linejoin:round; stroke-width:4; stroke-opacity:1; fill:none" points="373.57,127.792 2640.76,127.792 "/>
<polyline clip-path="url(#clip800)" style="stroke:#000000; stroke-linecap:round; stroke-linejoin:round; stroke-width:4; stroke-opacity:1; fill:none" points="437.736,1734.12 437.736,1715.22 "/>
<polyline clip-path="url(#clip800)" style="stroke:#000000; stroke-linecap:round; stroke-linejoin:round; stroke-width:4; stroke-opacity:1; fill:none" points="937.749,1734.12 937.749,1715.22 "/>
<polyline clip-path="url(#clip800)" style="stroke:#000000; stroke-linecap:round; stroke-linejoin:round; stroke-width:4; stroke-opacity:1; fill:none" points="1437.76,1734.12 1437.76,1715.22 "/>
<polyline clip-path="url(#clip800)" style="stroke:#000000; stroke-linecap:round; stroke-linejoin:round; stroke-width:4; stroke-opacity:1; fill:none" points="1937.77,1734.12 1937.77,1715.22 "/>
<polyline clip-path="url(#clip800)" style="stroke:#000000; stroke-linecap:round; stroke-linejoin:round; stroke-width:4; stroke-opacity:1; fill:none" points="2437.79,1734.12 2437.79,1715.22 "/>
<path clip-path="url(#clip800)" d="M415.12 1767.34 Q411.509 1767.34 409.681 1770.9 Q407.875 1774.45 407.875 1781.58 Q407.875 1788.68 409.681 1792.25 Q411.509 1795.79 415.12 1795.79 Q418.755 1795.79 420.56 1792.25 Q422.389 1788.68 422.389 1781.58 Q422.389 1774.45 420.56 1770.9 Q418.755 1767.34 415.12 1767.34 M415.12 1763.64 Q420.93 1763.64 423.986 1768.24 Q427.065 1772.83 427.065 1781.58 Q427.065 1790.3 423.986 1794.91 Q420.93 1799.49 415.12 1799.49 Q409.31 1799.49 406.231 1794.91 Q403.176 1790.3 403.176 1781.58 Q403.176 1772.83 406.231 1768.24 Q409.31 1763.64 415.12 1763.64 Z" fill="#000000" fill-rule="evenodd" fill-opacity="1" /><path clip-path="url(#clip800)" d="M435.282 1792.94 L440.166 1792.94 L440.166 1798.82 L435.282 1798.82 L435.282 1792.94 Z" fill="#000000" fill-rule="evenodd" fill-opacity="1" /><path clip-path="url(#clip800)" d="M460.352 1767.34 Q456.74 1767.34 454.912 1770.9 Q453.106 1774.45 453.106 1781.58 Q453.106 1788.68 454.912 1792.25 Q456.74 1795.79 460.352 1795.79 Q463.986 1795.79 465.791 1792.25 Q467.62 1788.68 467.62 1781.58 Q467.62 1774.45 465.791 1770.9 Q463.986 1767.34 460.352 1767.34 M460.352 1763.64 Q466.162 1763.64 469.217 1768.24 Q472.296 1772.83 472.296 1781.58 Q472.296 1790.3 469.217 1794.91 Q466.162 1799.49 460.352 1799.49 Q454.541 1799.49 451.463 1794.91 Q448.407 1790.3 448.407 1781.58 Q448.407 1772.83 451.463 1768.24 Q454.541 1763.64 460.352 1763.64 Z" fill="#000000" fill-rule="evenodd" fill-opacity="1" /><path clip-path="url(#clip800)" d="M909.485 1794.89 L925.804 1794.89 L925.804 1798.82 L903.86 1798.82 L903.86 1794.89 Q906.522 1792.13 911.105 1787.5 Q915.712 1782.85 916.892 1781.51 Q919.138 1778.98 920.017 1777.25 Q920.92 1775.49 920.92 1773.8 Q920.92 1771.04 918.976 1769.31 Q917.054 1767.57 913.952 1767.57 Q911.753 1767.57 909.3 1768.34 Q906.869 1769.1 904.091 1770.65 L904.091 1765.93 Q906.915 1764.79 909.369 1764.21 Q911.823 1763.64 913.86 1763.64 Q919.23 1763.64 922.425 1766.32 Q925.619 1769.01 925.619 1773.5 Q925.619 1775.63 924.809 1777.55 Q924.022 1779.45 921.915 1782.04 Q921.337 1782.71 918.235 1785.93 Q915.133 1789.12 909.485 1794.89 Z" fill="#000000" fill-rule="evenodd" fill-opacity="1" /><path clip-path="url(#clip800)" d="M935.619 1792.94 L940.503 1792.94 L940.503 1798.82 L935.619 1798.82 L935.619 1792.94 Z" fill="#000000" fill-rule="evenodd" fill-opacity="1" /><path clip-path="url(#clip800)" d="M950.735 1764.26 L969.091 1764.26 L969.091 1768.2 L955.017 1768.2 L955.017 1776.67 Q956.036 1776.32 957.054 1776.16 Q958.073 1775.97 959.091 1775.97 Q964.878 1775.97 968.258 1779.15 Q971.637 1782.32 971.637 1787.73 Q971.637 1793.31 968.165 1796.41 Q964.693 1799.49 958.374 1799.49 Q956.198 1799.49 953.929 1799.12 Q951.684 1798.75 949.276 1798.01 L949.276 1793.31 Q951.36 1794.45 953.582 1795 Q955.804 1795.56 958.281 1795.56 Q962.286 1795.56 964.624 1793.45 Q966.961 1791.34 966.961 1787.73 Q966.961 1784.12 964.624 1782.02 Q962.286 1779.91 958.281 1779.91 Q956.406 1779.91 954.531 1780.33 Q952.679 1780.74 950.735 1781.62 L950.735 1764.26 Z" fill="#000000" fill-rule="evenodd" fill-opacity="1" /><path clip-path="url(#clip800)" d="M1404.93 1764.26 L1423.28 1764.26 L1423.28 1768.2 L1409.21 1768.2 L1409.21 1776.67 Q1410.23 1776.32 1411.25 1776.16 Q1412.26 1775.97 1413.28 1775.97 Q1419.07 1775.97 1422.45 1779.15 Q1425.83 1782.32 1425.83 1787.73 Q1425.83 1793.31 1422.36 1796.41 Q1418.88 1799.49 1412.56 1799.49 Q1410.39 1799.49 1408.12 1799.12 Q1405.87 1798.75 1403.47 1798.01 L1403.47 1793.31 Q1405.55 1794.45 1407.77 1795 Q1410 1795.56 1412.47 1795.56 Q1416.48 1795.56 1418.81 1793.45 Q1421.15 1791.34 1421.15 1787.73 Q1421.15 1784.12 1418.81 1782.02 Q1416.48 1779.91 1412.47 1779.91 Q1410.6 1779.91 1408.72 1780.33 Q1406.87 1780.74 1404.93 1781.62 L1404.93 1764.26 Z" fill="#000000" fill-rule="evenodd" fill-opacity="1" /><path clip-path="url(#clip800)" d="M1435.04 1792.94 L1439.93 1792.94 L1439.93 1798.82 L1435.04 1798.82 L1435.04 1792.94 Z" fill="#000000" fill-rule="evenodd" fill-opacity="1" /><path clip-path="url(#clip800)" d="M1460.11 1767.34 Q1456.5 1767.34 1454.67 1770.9 Q1452.87 1774.45 1452.87 1781.58 Q1452.87 1788.68 1454.67 1792.25 Q1456.5 1795.79 1460.11 1795.79 Q1463.75 1795.79 1465.55 1792.25 Q1467.38 1788.68 1467.38 1781.58 Q1467.38 1774.45 1465.55 1770.9 Q1463.75 1767.34 1460.11 1767.34 M1460.11 1763.64 Q1465.92 1763.64 1468.98 1768.24 Q1472.06 1772.83 1472.06 1781.58 Q1472.06 1790.3 1468.98 1794.91 Q1465.92 1799.49 1460.11 1799.49 Q1454.3 1799.49 1451.22 1794.91 Q1448.17 1790.3 1448.17 1781.58 Q1448.17 1772.83 1451.22 1768.24 Q1454.3 1763.64 1460.11 1763.64 Z" fill="#000000" fill-rule="evenodd" fill-opacity="1" /><path clip-path="url(#clip800)" d="M1904.09 1764.26 L1926.32 1764.26 L1926.32 1766.25 L1913.77 1798.82 L1908.89 1798.82 L1920.69 1768.2 L1904.09 1768.2 L1904.09 1764.26 Z" fill="#000000" fill-rule="evenodd" fill-opacity="1" /><path clip-path="url(#clip800)" d="M1935.44 1792.94 L1940.32 1792.94 L1940.32 1798.82 L1935.44 1798.82 L1935.44 1792.94 Z" fill="#000000" fill-rule="evenodd" fill-opacity="1" /><path clip-path="url(#clip800)" d="M1950.55 1764.26 L1968.91 1764.26 L1968.91 1768.2 L1954.83 1768.2 L1954.83 1776.67 Q1955.85 1776.32 1956.87 1776.16 Q1957.89 1775.97 1958.91 1775.97 Q1964.7 1775.97 1968.07 1779.15 Q1971.45 1782.32 1971.45 1787.73 Q1971.45 1793.31 1967.98 1796.41 Q1964.51 1799.49 1958.19 1799.49 Q1956.01 1799.49 1953.75 1799.12 Q1951.5 1798.75 1949.09 1798.01 L1949.09 1793.31 Q1951.18 1794.45 1953.4 1795 Q1955.62 1795.56 1958.1 1795.56 Q1962.1 1795.56 1964.44 1793.45 Q1966.78 1791.34 1966.78 1787.73 Q1966.78 1784.12 1964.44 1782.02 Q1962.1 1779.91 1958.1 1779.91 Q1956.22 1779.91 1954.35 1780.33 Q1952.5 1780.74 1950.55 1781.62 L1950.55 1764.26 Z" fill="#000000" fill-rule="evenodd" fill-opacity="1" /><path clip-path="url(#clip800)" d="M2389.86 1794.89 L2397.5 1794.89 L2397.5 1768.52 L2389.19 1770.19 L2389.19 1765.93 L2397.45 1764.26 L2402.13 1764.26 L2402.13 1794.89 L2409.77 1794.89 L2409.77 1798.82 L2389.86 1798.82 L2389.86 1794.89 Z" fill="#000000" fill-rule="evenodd" fill-opacity="1" /><path clip-path="url(#clip800)" d="M2429.21 1767.34 Q2425.6 1767.34 2423.77 1770.9 Q2421.97 1774.45 2421.97 1781.58 Q2421.97 1788.68 2423.77 1792.25 Q2425.6 1795.79 2429.21 1795.79 Q2432.84 1795.79 2434.65 1792.25 Q2436.48 1788.68 2436.48 1781.58 Q2436.48 1774.45 2434.65 1770.9 Q2432.84 1767.34 2429.21 1767.34 M2429.21 1763.64 Q2435.02 1763.64 2438.08 1768.24 Q2441.15 1772.83 2441.15 1781.58 Q2441.15 1790.3 2438.08 1794.91 Q2435.02 1799.49 2429.21 1799.49 Q2423.4 1799.49 2420.32 1794.91 Q2417.27 1790.3 2417.27 1781.58 Q2417.27 1772.83 2420.32 1768.24 Q2423.4 1763.64 2429.21 1763.64 Z" fill="#000000" fill-rule="evenodd" fill-opacity="1" /><path clip-path="url(#clip800)" d="M2449.37 1792.94 L2454.26 1792.94 L2454.26 1798.82 L2449.37 1798.82 L2449.37 1792.94 Z" fill="#000000" fill-rule="evenodd" fill-opacity="1" /><path clip-path="url(#clip800)" d="M2474.44 1767.34 Q2470.83 1767.34 2469 1770.9 Q2467.2 1774.45 2467.2 1781.58 Q2467.2 1788.68 2469 1792.25 Q2470.83 1795.79 2474.44 1795.79 Q2478.08 1795.79 2479.88 1792.25 Q2481.71 1788.68 2481.71 1781.58 Q2481.71 1774.45 2479.88 1770.9 Q2478.08 1767.34 2474.44 1767.34 M2474.44 1763.64 Q2480.25 1763.64 2483.31 1768.24 Q2486.39 1772.83 2486.39 1781.58 Q2486.39 1790.3 2483.31 1794.91 Q2480.25 1799.49 2474.44 1799.49 Q2468.63 1799.49 2465.55 1794.91 Q2462.5 1790.3 2462.5 1781.58 Q2462.5 1772.83 2465.55 1768.24 Q2468.63 1763.64 2474.44 1763.64 Z" fill="#000000" fill-rule="evenodd" fill-opacity="1" /><path clip-path="url(#clip800)" d="M1325.31 1835.78 L1365.51 1835.78 L1365.51 1841.19 L1348.64 1841.19 L1348.64 1883.3 L1342.18 1883.3 L1342.18 1841.19 L1325.31 1841.19 L1325.31 1835.78 Z" fill="#000000" fill-rule="evenodd" fill-opacity="1" /><path clip-path="url(#clip800)" d="M1369.46 1847.65 L1375.31 1847.65 L1375.31 1883.3 L1369.46 1883.3 L1369.46 1847.65 M1369.46 1833.78 L1375.31 1833.78 L1375.31 1841.19 L1369.46 1841.19 L1369.46 1833.78 Z" fill="#000000" fill-rule="evenodd" fill-opacity="1" /><path clip-path="url(#clip800)" d="M1415.32 1854.5 Q1417.52 1850.55 1420.57 1848.67 Q1423.63 1846.79 1427.77 1846.79 Q1433.34 1846.79 1436.36 1850.71 Q1439.38 1854.59 1439.38 1861.78 L1439.38 1883.3 L1433.5 1883.3 L1433.5 1861.98 Q1433.5 1856.85 1431.68 1854.37 Q1429.87 1851.89 1426.14 1851.89 Q1421.59 1851.89 1418.95 1854.91 Q1416.31 1857.93 1416.31 1863.15 L1416.31 1883.3 L1410.42 1883.3 L1410.42 1861.98 Q1410.42 1856.82 1408.61 1854.37 Q1406.79 1851.89 1403 1851.89 Q1398.52 1851.89 1395.87 1854.94 Q1393.23 1857.97 1393.23 1863.15 L1393.23 1883.3 L1387.34 1883.3 L1387.34 1847.65 L1393.23 1847.65 L1393.23 1853.19 Q1395.24 1849.91 1398.04 1848.35 Q1400.84 1846.79 1404.69 1846.79 Q1408.57 1846.79 1411.28 1848.77 Q1414.02 1850.74 1415.32 1854.5 Z" fill="#000000" fill-rule="evenodd" fill-opacity="1" /><path clip-path="url(#clip800)" d="M1481.56 1864.01 L1481.56 1866.88 L1454.63 1866.88 Q1455.01 1872.92 1458.26 1876.11 Q1461.54 1879.26 1467.36 1879.26 Q1470.74 1879.26 1473.89 1878.43 Q1477.07 1877.6 1480.19 1875.95 L1480.19 1881.49 Q1477.04 1882.82 1473.73 1883.52 Q1470.42 1884.22 1467.01 1884.22 Q1458.48 1884.22 1453.48 1879.26 Q1448.52 1874.29 1448.52 1865.83 Q1448.52 1857.07 1453.23 1851.95 Q1457.97 1846.79 1465.99 1846.79 Q1473.19 1846.79 1477.36 1851.44 Q1481.56 1856.06 1481.56 1864.01 M1475.7 1862.29 Q1475.64 1857.49 1473 1854.62 Q1470.39 1851.76 1466.06 1851.76 Q1461.15 1851.76 1458.19 1854.53 Q1455.27 1857.3 1454.82 1862.33 L1475.7 1862.29 Z" fill="#000000" fill-rule="evenodd" fill-opacity="1" /><path clip-path="url(#clip800)" d="M1525.96 1833.84 Q1521.69 1841.16 1519.62 1848.32 Q1517.56 1855.48 1517.56 1862.84 Q1517.56 1870.19 1519.62 1877.41 Q1521.72 1884.61 1525.96 1891.89 L1520.87 1891.89 Q1516.09 1884.41 1513.7 1877.19 Q1511.35 1869.96 1511.35 1862.84 Q1511.35 1855.74 1513.7 1848.54 Q1516.06 1841.35 1520.87 1833.84 L1525.96 1833.84 Z" fill="#000000" fill-rule="evenodd" fill-opacity="1" /><path clip-path="url(#clip800)" d="M1531.05 1835.78 L1537.96 1835.78 L1551.13 1855.32 L1564.22 1835.78 L1571.12 1835.78 L1554.32 1860.67 L1554.32 1883.3 L1547.86 1883.3 L1547.86 1860.67 L1531.05 1835.78 Z" fill="#000000" fill-rule="evenodd" fill-opacity="1" /><path clip-path="url(#clip800)" d="M1598.97 1864.01 L1598.97 1866.88 L1572.05 1866.88 Q1572.43 1872.92 1575.67 1876.11 Q1578.95 1879.26 1584.78 1879.26 Q1588.15 1879.26 1591.3 1878.43 Q1594.48 1877.6 1597.6 1875.95 L1597.6 1881.49 Q1594.45 1882.82 1591.14 1883.52 Q1587.83 1884.22 1584.43 1884.22 Q1575.9 1884.22 1570.9 1879.26 Q1565.93 1874.29 1565.93 1865.83 Q1565.93 1857.07 1570.65 1851.95 Q1575.39 1846.79 1583.41 1846.79 Q1590.6 1846.79 1594.77 1851.44 Q1598.97 1856.06 1598.97 1864.01 M1593.12 1862.29 Q1593.05 1857.49 1590.41 1854.62 Q1587.8 1851.76 1583.47 1851.76 Q1578.57 1851.76 1575.61 1854.53 Q1572.68 1857.3 1572.24 1862.33 L1593.12 1862.29 Z" fill="#000000" fill-rule="evenodd" fill-opacity="1" /><path clip-path="url(#clip800)" d="M1624.79 1865.38 Q1617.69 1865.38 1614.95 1867 Q1612.21 1868.63 1612.21 1872.54 Q1612.21 1875.66 1614.25 1877.51 Q1616.32 1879.32 1619.85 1879.32 Q1624.72 1879.32 1627.65 1875.88 Q1630.61 1872.42 1630.61 1866.69 L1630.61 1865.38 L1624.79 1865.38 M1636.47 1862.96 L1636.47 1883.3 L1630.61 1883.3 L1630.61 1877.89 Q1628.6 1881.14 1625.61 1882.7 Q1622.62 1884.22 1618.29 1884.22 Q1612.82 1884.22 1609.57 1881.17 Q1606.36 1878.08 1606.36 1872.92 Q1606.36 1866.91 1610.37 1863.85 Q1614.41 1860.8 1622.4 1860.8 L1630.61 1860.8 L1630.61 1860.23 Q1630.61 1856.18 1627.94 1853.99 Q1625.29 1851.76 1620.49 1851.76 Q1617.43 1851.76 1614.54 1852.49 Q1611.64 1853.22 1608.97 1854.69 L1608.97 1849.28 Q1612.18 1848.03 1615.21 1847.43 Q1618.23 1846.79 1621.09 1846.79 Q1628.83 1846.79 1632.65 1850.8 Q1636.47 1854.81 1636.47 1862.96 Z" fill="#000000" fill-rule="evenodd" fill-opacity="1" /><path clip-path="url(#clip800)" d="M1669.19 1853.13 Q1668.2 1852.55 1667.02 1852.3 Q1665.88 1852.01 1664.48 1852.01 Q1659.51 1852.01 1656.84 1855.26 Q1654.2 1858.47 1654.2 1864.52 L1654.2 1883.3 L1648.31 1883.3 L1648.31 1847.65 L1654.2 1847.65 L1654.2 1853.19 Q1656.04 1849.94 1659 1848.39 Q1661.96 1846.79 1666.19 1846.79 Q1666.8 1846.79 1667.53 1846.89 Q1668.26 1846.95 1669.15 1847.11 L1669.19 1853.13 Z" fill="#000000" fill-rule="evenodd" fill-opacity="1" /><path clip-path="url(#clip800)" d="M1674.41 1833.84 L1679.5 1833.84 Q1684.27 1841.35 1686.63 1848.54 Q1689.02 1855.74 1689.02 1862.84 Q1689.02 1869.96 1686.63 1877.19 Q1684.27 1884.41 1679.5 1891.89 L1674.41 1891.89 Q1678.64 1884.61 1680.71 1877.41 Q1682.81 1870.19 1682.81 1862.84 Q1682.81 1855.48 1680.71 1848.32 Q1678.64 1841.16 1674.41 1833.84 Z" fill="#000000" fill-rule="evenodd" fill-opacity="1" /><polyline clip-path="url(#clip802)" style="stroke:#5f9ea0; stroke-linecap:round; stroke-linejoin:round; stroke-width:8; stroke-opacity:0.4; fill:none" stroke-dasharray="32, 16, 4, 16" points="373.57,1688.65 2640.76,1688.65 "/>
<polyline clip-path="url(#clip802)" style="stroke:#5f9ea0; stroke-linecap:round; stroke-linejoin:round; stroke-width:8; stroke-opacity:0.4; fill:none" stroke-dasharray="32, 16, 4, 16" points="373.57,1366.32 2640.76,1366.32 "/>
<polyline clip-path="url(#clip802)" style="stroke:#5f9ea0; stroke-linecap:round; stroke-linejoin:round; stroke-width:8; stroke-opacity:0.4; fill:none" stroke-dasharray="32, 16, 4, 16" points="373.57,1043.99 2640.76,1043.99 "/>
<polyline clip-path="url(#clip802)" style="stroke:#5f9ea0; stroke-linecap:round; stroke-linejoin:round; stroke-width:8; stroke-opacity:0.4; fill:none" stroke-dasharray="32, 16, 4, 16" points="373.57,721.663 2640.76,721.663 "/>
<polyline clip-path="url(#clip802)" style="stroke:#5f9ea0; stroke-linecap:round; stroke-linejoin:round; stroke-width:8; stroke-opacity:0.4; fill:none" stroke-dasharray="32, 16, 4, 16" points="373.57,399.332 2640.76,399.332 "/>
<polyline clip-path="url(#clip800)" style="stroke:#000000; stroke-linecap:round; stroke-linejoin:round; stroke-width:4; stroke-opacity:1; fill:none" points="373.57,1734.12 373.57,127.792 "/>
<polyline clip-path="url(#clip800)" style="stroke:#000000; stroke-linecap:round; stroke-linejoin:round; stroke-width:4; stroke-opacity:1; fill:none" points="2640.76,1734.12 2640.76,127.792 "/>
<polyline clip-path="url(#clip800)" style="stroke:#000000; stroke-linecap:round; stroke-linejoin:round; stroke-width:4; stroke-opacity:1; fill:none" points="373.57,1688.65 392.468,1688.65 "/>
<polyline clip-path="url(#clip800)" style="stroke:#000000; stroke-linecap:round; stroke-linejoin:round; stroke-width:4; stroke-opacity:1; fill:none" points="373.57,1366.32 392.468,1366.32 "/>
<polyline clip-path="url(#clip800)" style="stroke:#000000; stroke-linecap:round; stroke-linejoin:round; stroke-width:4; stroke-opacity:1; fill:none" points="373.57,1043.99 392.468,1043.99 "/>
<polyline clip-path="url(#clip800)" style="stroke:#000000; stroke-linecap:round; stroke-linejoin:round; stroke-width:4; stroke-opacity:1; fill:none" points="373.57,721.663 392.468,721.663 "/>
<polyline clip-path="url(#clip800)" style="stroke:#000000; stroke-linecap:round; stroke-linejoin:round; stroke-width:4; stroke-opacity:1; fill:none" points="373.57,399.332 392.468,399.332 "/>
<path clip-path="url(#clip800)" d="M321.306 1674.45 Q317.695 1674.45 315.866 1678.02 Q314.061 1681.56 314.061 1688.69 Q314.061 1695.8 315.866 1699.36 Q317.695 1702.9 321.306 1702.9 Q324.94 1702.9 326.746 1699.36 Q328.574 1695.8 328.574 1688.69 Q328.574 1681.56 326.746 1678.02 Q324.94 1674.45 321.306 1674.45 M321.306 1670.75 Q327.116 1670.75 330.172 1675.36 Q333.25 1679.94 333.25 1688.69 Q333.25 1697.42 330.172 1702.02 Q327.116 1706.61 321.306 1706.61 Q315.496 1706.61 312.417 1702.02 Q309.362 1697.42 309.362 1688.69 Q309.362 1679.94 312.417 1675.36 Q315.496 1670.75 321.306 1670.75 Z" fill="#000000" fill-rule="evenodd" fill-opacity="1" /><path clip-path="url(#clip800)" d="M121.839 1386.12 L138.159 1386.12 L138.159 1390.05 L116.214 1390.05 L116.214 1386.12 Q118.876 1383.36 123.46 1378.73 Q128.066 1374.08 129.247 1372.74 Q131.492 1370.21 132.372 1368.48 Q133.275 1366.72 133.275 1365.03 Q133.275 1362.27 131.33 1360.54 Q129.409 1358.8 126.307 1358.8 Q124.108 1358.8 121.654 1359.57 Q119.224 1360.33 116.446 1361.88 L116.446 1357.16 Q119.27 1356.02 121.724 1355.45 Q124.177 1354.87 126.214 1354.87 Q131.585 1354.87 134.779 1357.55 Q137.974 1360.24 137.974 1364.73 Q137.974 1366.86 137.163 1368.78 Q136.376 1370.68 134.27 1373.27 Q133.691 1373.94 130.589 1377.16 Q127.488 1380.35 121.839 1386.12 Z" fill="#000000" fill-rule="evenodd" fill-opacity="1" /><path clip-path="url(#clip800)" d="M147.974 1384.17 L152.858 1384.17 L152.858 1390.05 L147.974 1390.05 L147.974 1384.17 Z" fill="#000000" fill-rule="evenodd" fill-opacity="1" /><path clip-path="url(#clip800)" d="M163.089 1355.49 L181.446 1355.49 L181.446 1359.43 L167.372 1359.43 L167.372 1367.9 Q168.39 1367.55 169.409 1367.39 Q170.427 1367.2 171.446 1367.2 Q177.233 1367.2 180.612 1370.38 Q183.992 1373.55 183.992 1378.96 Q183.992 1384.54 180.52 1387.64 Q177.047 1390.72 170.728 1390.72 Q168.552 1390.72 166.284 1390.35 Q164.038 1389.98 161.631 1389.24 L161.631 1384.54 Q163.714 1385.68 165.936 1386.23 Q168.159 1386.79 170.635 1386.79 Q174.64 1386.79 176.978 1384.68 Q179.316 1382.58 179.316 1378.96 Q179.316 1375.35 176.978 1373.25 Q174.64 1371.14 170.635 1371.14 Q168.76 1371.14 166.885 1371.56 Q165.034 1371.97 163.089 1372.85 L163.089 1355.49 Z" fill="#000000" fill-rule="evenodd" fill-opacity="1" /><path clip-path="url(#clip800)" d="M203.205 1358.57 Q199.594 1358.57 197.765 1362.14 Q195.959 1365.68 195.959 1372.81 Q195.959 1379.91 197.765 1383.48 Q199.594 1387.02 203.205 1387.02 Q206.839 1387.02 208.645 1383.48 Q210.473 1379.91 210.473 1372.81 Q210.473 1365.68 208.645 1362.14 Q206.839 1358.57 203.205 1358.57 M203.205 1354.87 Q209.015 1354.87 212.07 1359.47 Q215.149 1364.06 215.149 1372.81 Q215.149 1381.53 212.07 1386.14 Q209.015 1390.72 203.205 1390.72 Q197.395 1390.72 194.316 1386.14 Q191.26 1381.53 191.26 1372.81 Q191.26 1364.06 194.316 1359.47 Q197.395 1354.87 203.205 1354.87 Z" fill="#000000" fill-rule="evenodd" fill-opacity="1" /><path clip-path="url(#clip800)" d="M251.538 1364.59 L240.959 1375.21 L251.538 1385.79 L248.783 1388.59 L238.158 1377.97 L227.533 1388.59 L224.802 1385.79 L235.357 1375.21 L224.802 1364.59 L227.533 1361.79 L238.158 1372.41 L248.783 1361.79 L251.538 1364.59 Z" fill="#000000" fill-rule="evenodd" fill-opacity="1" /><path clip-path="url(#clip800)" d="M263.899 1386.12 L271.538 1386.12 L271.538 1359.75 L263.228 1361.42 L263.228 1357.16 L271.491 1355.49 L276.167 1355.49 L276.167 1386.12 L283.806 1386.12 L283.806 1390.05 L263.899 1390.05 L263.899 1386.12 Z" fill="#000000" fill-rule="evenodd" fill-opacity="1" /><path clip-path="url(#clip800)" d="M303.25 1358.57 Q299.639 1358.57 297.811 1362.14 Q296.005 1365.68 296.005 1372.81 Q296.005 1379.91 297.811 1383.48 Q299.639 1387.02 303.25 1387.02 Q306.885 1387.02 308.69 1383.48 Q310.519 1379.91 310.519 1372.81 Q310.519 1365.68 308.69 1362.14 Q306.885 1358.57 303.25 1358.57 M303.25 1354.87 Q309.061 1354.87 312.116 1359.47 Q315.195 1364.06 315.195 1372.81 Q315.195 1381.53 312.116 1386.14 Q309.061 1390.72 303.25 1390.72 Q297.44 1390.72 294.362 1386.14 Q291.306 1381.53 291.306 1372.81 Q291.306 1364.06 294.362 1359.47 Q297.44 1354.87 303.25 1354.87 Z" fill="#000000" fill-rule="evenodd" fill-opacity="1" /><path clip-path="url(#clip800)" d="M315.195 1334.56 L333.25 1334.56 L333.25 1336.18 L323.057 1362.64 L319.088 1362.64 L328.68 1337.76 L315.195 1337.76 L315.195 1334.56 Z" fill="#000000" fill-rule="evenodd" fill-opacity="1" /><path clip-path="url(#clip800)" d="M117.858 1033.16 L136.214 1033.16 L136.214 1037.1 L122.14 1037.1 L122.14 1045.57 Q123.159 1045.22 124.177 1045.06 Q125.196 1044.87 126.214 1044.87 Q132.001 1044.87 135.381 1048.05 Q138.761 1051.22 138.761 1056.63 Q138.761 1062.21 135.288 1065.31 Q131.816 1068.39 125.497 1068.39 Q123.321 1068.39 121.052 1068.02 Q118.807 1067.65 116.4 1066.91 L116.4 1062.21 Q118.483 1063.35 120.705 1063.9 Q122.927 1064.46 125.404 1064.46 Q129.409 1064.46 131.747 1062.35 Q134.085 1060.24 134.085 1056.63 Q134.085 1053.02 131.747 1050.92 Q129.409 1048.81 125.404 1048.81 Q123.529 1048.81 121.654 1049.23 Q119.802 1049.64 117.858 1050.52 L117.858 1033.16 Z" fill="#000000" fill-rule="evenodd" fill-opacity="1" /><path clip-path="url(#clip800)" d="M147.974 1061.84 L152.858 1061.84 L152.858 1067.72 L147.974 1067.72 L147.974 1061.84 Z" fill="#000000" fill-rule="evenodd" fill-opacity="1" /><path clip-path="url(#clip800)" d="M173.043 1036.24 Q169.432 1036.24 167.603 1039.8 Q165.798 1043.35 165.798 1050.48 Q165.798 1057.58 167.603 1061.15 Q169.432 1064.69 173.043 1064.69 Q176.677 1064.69 178.483 1061.15 Q180.311 1057.58 180.311 1050.48 Q180.311 1043.35 178.483 1039.8 Q176.677 1036.24 173.043 1036.24 M173.043 1032.54 Q178.853 1032.54 181.909 1037.14 Q184.987 1041.73 184.987 1050.48 Q184.987 1059.2 181.909 1063.81 Q178.853 1068.39 173.043 1068.39 Q167.233 1068.39 164.154 1063.81 Q161.098 1059.2 161.098 1050.48 Q161.098 1041.73 164.154 1037.14 Q167.233 1032.54 173.043 1032.54 Z" fill="#000000" fill-rule="evenodd" fill-opacity="1" /><path clip-path="url(#clip800)" d="M203.205 1036.24 Q199.594 1036.24 197.765 1039.8 Q195.959 1043.35 195.959 1050.48 Q195.959 1057.58 197.765 1061.15 Q199.594 1064.69 203.205 1064.69 Q206.839 1064.69 208.645 1061.15 Q210.473 1057.58 210.473 1050.48 Q210.473 1043.35 208.645 1039.8 Q206.839 1036.24 203.205 1036.24 M203.205 1032.54 Q209.015 1032.54 212.07 1037.14 Q215.149 1041.73 215.149 1050.48 Q215.149 1059.2 212.07 1063.81 Q209.015 1068.39 203.205 1068.39 Q197.395 1068.39 194.316 1063.81 Q191.26 1059.2 191.26 1050.48 Q191.26 1041.73 194.316 1037.14 Q197.395 1032.54 203.205 1032.54 Z" fill="#000000" fill-rule="evenodd" fill-opacity="1" /><path clip-path="url(#clip800)" d="M251.538 1042.26 L240.959 1052.88 L251.538 1063.46 L248.783 1066.26 L238.158 1055.64 L227.533 1066.26 L224.802 1063.46 L235.357 1052.88 L224.802 1042.26 L227.533 1039.46 L238.158 1050.08 L248.783 1039.46 L251.538 1042.26 Z" fill="#000000" fill-rule="evenodd" fill-opacity="1" /><path clip-path="url(#clip800)" d="M263.899 1063.79 L271.538 1063.79 L271.538 1037.42 L263.228 1039.09 L263.228 1034.83 L271.491 1033.16 L276.167 1033.16 L276.167 1063.79 L283.806 1063.79 L283.806 1067.72 L263.899 1067.72 L263.899 1063.79 Z" fill="#000000" fill-rule="evenodd" fill-opacity="1" /><path clip-path="url(#clip800)" d="M303.25 1036.24 Q299.639 1036.24 297.811 1039.8 Q296.005 1043.35 296.005 1050.48 Q296.005 1057.58 297.811 1061.15 Q299.639 1064.69 303.25 1064.69 Q306.885 1064.69 308.69 1061.15 Q310.519 1057.58 310.519 1050.48 Q310.519 1043.35 308.69 1039.8 Q306.885 1036.24 303.25 1036.24 M303.25 1032.54 Q309.061 1032.54 312.116 1037.14 Q315.195 1041.73 315.195 1050.48 Q315.195 1059.2 312.116 1063.81 Q309.061 1068.39 303.25 1068.39 Q297.44 1068.39 294.362 1063.81 Q291.306 1059.2 291.306 1050.48 Q291.306 1041.73 294.362 1037.14 Q297.44 1032.54 303.25 1032.54 Z" fill="#000000" fill-rule="evenodd" fill-opacity="1" /><path clip-path="url(#clip800)" d="M315.195 1012.23 L333.25 1012.23 L333.25 1013.85 L323.057 1040.31 L319.088 1040.31 L328.68 1015.43 L315.195 1015.43 L315.195 1012.23 Z" fill="#000000" fill-rule="evenodd" fill-opacity="1" /><path clip-path="url(#clip800)" d="M116.631 710.831 L138.853 710.831 L138.853 712.821 L126.307 745.391 L121.423 745.391 L133.228 714.766 L116.631 714.766 L116.631 710.831 Z" fill="#000000" fill-rule="evenodd" fill-opacity="1" /><path clip-path="url(#clip800)" d="M147.974 739.511 L152.858 739.511 L152.858 745.391 L147.974 745.391 L147.974 739.511 Z" fill="#000000" fill-rule="evenodd" fill-opacity="1" /><path clip-path="url(#clip800)" d="M163.089 710.831 L181.446 710.831 L181.446 714.766 L167.372 714.766 L167.372 723.238 Q168.39 722.891 169.409 722.729 Q170.427 722.544 171.446 722.544 Q177.233 722.544 180.612 725.715 Q183.992 728.886 183.992 734.303 Q183.992 739.881 180.52 742.983 Q177.047 746.062 170.728 746.062 Q168.552 746.062 166.284 745.692 Q164.038 745.321 161.631 744.58 L161.631 739.881 Q163.714 741.016 165.936 741.571 Q168.159 742.127 170.635 742.127 Q174.64 742.127 176.978 740.02 Q179.316 737.914 179.316 734.303 Q179.316 730.692 176.978 728.585 Q174.64 726.479 170.635 726.479 Q168.76 726.479 166.885 726.895 Q165.034 727.312 163.089 728.192 L163.089 710.831 Z" fill="#000000" fill-rule="evenodd" fill-opacity="1" /><path clip-path="url(#clip800)" d="M203.205 713.909 Q199.594 713.909 197.765 717.474 Q195.959 721.016 195.959 728.145 Q195.959 735.252 197.765 738.817 Q199.594 742.358 203.205 742.358 Q206.839 742.358 208.645 738.817 Q210.473 735.252 210.473 728.145 Q210.473 721.016 208.645 717.474 Q206.839 713.909 203.205 713.909 M203.205 710.206 Q209.015 710.206 212.07 714.812 Q215.149 719.395 215.149 728.145 Q215.149 736.872 212.07 741.479 Q209.015 746.062 203.205 746.062 Q197.395 746.062 194.316 741.479 Q191.26 736.872 191.26 728.145 Q191.26 719.395 194.316 714.812 Q197.395 710.206 203.205 710.206 Z" fill="#000000" fill-rule="evenodd" fill-opacity="1" /><path clip-path="url(#clip800)" d="M251.538 719.928 L240.959 730.553 L251.538 741.131 L248.783 743.932 L238.158 733.307 L227.533 743.932 L224.802 741.131 L235.357 730.553 L224.802 719.928 L227.533 717.127 L238.158 727.752 L248.783 717.127 L251.538 719.928 Z" fill="#000000" fill-rule="evenodd" fill-opacity="1" /><path clip-path="url(#clip800)" d="M263.899 741.455 L271.538 741.455 L271.538 715.09 L263.228 716.757 L263.228 712.497 L271.491 710.831 L276.167 710.831 L276.167 741.455 L283.806 741.455 L283.806 745.391 L263.899 745.391 L263.899 741.455 Z" fill="#000000" fill-rule="evenodd" fill-opacity="1" /><path clip-path="url(#clip800)" d="M303.25 713.909 Q299.639 713.909 297.811 717.474 Q296.005 721.016 296.005 728.145 Q296.005 735.252 297.811 738.817 Q299.639 742.358 303.25 742.358 Q306.885 742.358 308.69 738.817 Q310.519 735.252 310.519 728.145 Q310.519 721.016 308.69 717.474 Q306.885 713.909 303.25 713.909 M303.25 710.206 Q309.061 710.206 312.116 714.812 Q315.195 719.395 315.195 728.145 Q315.195 736.872 312.116 741.479 Q309.061 746.062 303.25 746.062 Q297.44 746.062 294.362 741.479 Q291.306 736.872 291.306 728.145 Q291.306 719.395 294.362 714.812 Q297.44 710.206 303.25 710.206 Z" fill="#000000" fill-rule="evenodd" fill-opacity="1" /><path clip-path="url(#clip800)" d="M315.195 689.9 L333.25 689.9 L333.25 691.518 L323.057 717.98 L319.088 717.98 L328.68 693.098 L315.195 693.098 L315.195 689.9 Z" fill="#000000" fill-rule="evenodd" fill-opacity="1" /><path clip-path="url(#clip800)" d="M117.418 419.125 L125.057 419.125 L125.057 392.759 L116.747 394.426 L116.747 390.167 L125.011 388.5 L129.687 388.5 L129.687 419.125 L137.325 419.125 L137.325 423.06 L117.418 423.06 L117.418 419.125 Z" fill="#000000" fill-rule="evenodd" fill-opacity="1" /><path clip-path="url(#clip800)" d="M146.77 417.18 L151.654 417.18 L151.654 423.06 L146.77 423.06 L146.77 417.18 Z" fill="#000000" fill-rule="evenodd" fill-opacity="1" /><path clip-path="url(#clip800)" d="M171.839 391.579 Q168.228 391.579 166.399 395.143 Q164.594 398.685 164.594 405.815 Q164.594 412.921 166.399 416.486 Q168.228 420.028 171.839 420.028 Q175.473 420.028 177.279 416.486 Q179.108 412.921 179.108 405.815 Q179.108 398.685 177.279 395.143 Q175.473 391.579 171.839 391.579 M171.839 387.875 Q177.649 387.875 180.705 392.481 Q183.784 397.065 183.784 405.815 Q183.784 414.542 180.705 419.148 Q177.649 423.731 171.839 423.731 Q166.029 423.731 162.95 419.148 Q159.895 414.542 159.895 405.815 Q159.895 397.065 162.95 392.481 Q166.029 387.875 171.839 387.875 Z" fill="#000000" fill-rule="evenodd" fill-opacity="1" /><path clip-path="url(#clip800)" d="M202.001 391.579 Q198.39 391.579 196.561 395.143 Q194.756 398.685 194.756 405.815 Q194.756 412.921 196.561 416.486 Q198.39 420.028 202.001 420.028 Q205.635 420.028 207.441 416.486 Q209.27 412.921 209.27 405.815 Q209.27 398.685 207.441 395.143 Q205.635 391.579 202.001 391.579 M202.001 387.875 Q207.811 387.875 210.867 392.481 Q213.945 397.065 213.945 405.815 Q213.945 414.542 210.867 419.148 Q207.811 423.731 202.001 423.731 Q196.191 423.731 193.112 419.148 Q190.057 414.542 190.057 405.815 Q190.057 397.065 193.112 392.481 Q196.191 387.875 202.001 387.875 Z" fill="#000000" fill-rule="evenodd" fill-opacity="1" /><path clip-path="url(#clip800)" d="M250.334 397.597 L239.755 408.222 L250.334 418.801 L247.579 421.602 L236.955 410.977 L226.33 421.602 L223.598 418.801 L234.154 408.222 L223.598 397.597 L226.33 394.796 L236.955 405.421 L247.579 394.796 L250.334 397.597 Z" fill="#000000" fill-rule="evenodd" fill-opacity="1" /><path clip-path="url(#clip800)" d="M262.695 419.125 L270.334 419.125 L270.334 392.759 L262.024 394.426 L262.024 390.167 L270.288 388.5 L274.964 388.5 L274.964 419.125 L282.602 419.125 L282.602 423.06 L262.695 423.06 L262.695 419.125 Z" fill="#000000" fill-rule="evenodd" fill-opacity="1" /><path clip-path="url(#clip800)" d="M302.047 391.579 Q298.436 391.579 296.607 395.143 Q294.801 398.685 294.801 405.815 Q294.801 412.921 296.607 416.486 Q298.436 420.028 302.047 420.028 Q305.681 420.028 307.487 416.486 Q309.315 412.921 309.315 405.815 Q309.315 398.685 307.487 395.143 Q305.681 391.579 302.047 391.579 M302.047 387.875 Q307.857 387.875 310.912 392.481 Q313.991 397.065 313.991 405.815 Q313.991 414.542 310.912 419.148 Q307.857 423.731 302.047 423.731 Q296.237 423.731 293.158 419.148 Q290.102 414.542 290.102 405.815 Q290.102 397.065 293.158 392.481 Q296.237 387.875 302.047 387.875 Z" fill="#000000" fill-rule="evenodd" fill-opacity="1" /><path clip-path="url(#clip800)" d="M323.621 382.315 Q320.912 382.315 319.351 383.763 Q317.809 385.211 317.809 387.75 Q317.809 390.289 319.351 391.738 Q320.912 393.186 323.621 393.186 Q326.329 393.186 327.89 391.738 Q329.451 390.271 329.451 387.75 Q329.451 385.211 327.89 383.763 Q326.348 382.315 323.621 382.315 M319.822 380.697 Q317.377 380.096 316.004 378.422 Q314.649 376.748 314.649 374.34 Q314.649 370.974 317.038 369.018 Q319.445 367.062 323.621 367.062 Q327.815 367.062 330.203 369.018 Q332.592 370.974 332.592 374.34 Q332.592 376.748 331.219 378.422 Q329.865 380.096 327.439 380.697 Q330.185 381.337 331.708 383.199 Q333.25 385.061 333.25 387.75 Q333.25 391.832 330.749 394.013 Q328.266 396.195 323.621 396.195 Q318.975 396.195 316.474 394.013 Q313.991 391.832 313.991 387.75 Q313.991 385.061 315.533 383.199 Q317.076 381.337 319.822 380.697 M318.43 374.698 Q318.43 376.879 319.784 378.102 Q321.157 379.324 323.621 379.324 Q326.066 379.324 327.439 378.102 Q328.83 376.879 328.83 374.698 Q328.83 372.516 327.439 371.294 Q326.066 370.071 323.621 370.071 Q321.157 370.071 319.784 371.294 Q318.43 372.516 318.43 374.698 Z" fill="#000000" fill-rule="evenodd" fill-opacity="1" /><path clip-path="url(#clip800)" d="M14.1184 1477.48 L14.1184 1471.05 L33.5975 1471.05 L33.5975 1447.69 L14.1184 1447.69 L14.1184 1441.26 L61.6384 1441.26 L61.6384 1447.69 L39.0084 1447.69 L39.0084 1471.05 L61.6384 1471.05 L61.6384 1477.48 L14.1184 1477.48 Z" fill="#000000" fill-rule="evenodd" fill-opacity="1" /><path clip-path="url(#clip800)" d="M42.3504 1398.23 L45.2149 1398.23 L45.2149 1425.16 Q51.2623 1424.77 54.4452 1421.53 Q57.5962 1418.25 57.5962 1412.42 Q57.5962 1409.05 56.7687 1405.9 Q55.9411 1402.72 54.2861 1399.6 L59.8242 1399.6 Q61.161 1402.75 61.8612 1406.06 Q62.5615 1409.37 62.5615 1412.77 Q62.5615 1421.3 57.5962 1426.3 Q52.631 1431.27 44.1646 1431.27 Q35.4117 1431.27 30.2873 1426.56 Q25.1311 1421.81 25.1311 1413.79 Q25.1311 1406.6 29.7781 1402.43 Q34.3932 1398.23 42.3504 1398.23 M40.6316 1404.09 Q35.8255 1404.15 32.9609 1406.79 Q30.0964 1409.4 30.0964 1413.73 Q30.0964 1418.63 32.8654 1421.59 Q35.6345 1424.52 40.6634 1424.97 L40.6316 1404.09 Z" fill="#000000" fill-rule="evenodd" fill-opacity="1" /><path clip-path="url(#clip800)" d="M43.719 1372.42 Q43.719 1379.51 45.3422 1382.25 Q46.9655 1384.99 50.8804 1384.99 Q53.9996 1384.99 55.8457 1382.95 Q57.6599 1380.88 57.6599 1377.35 Q57.6599 1372.48 54.2224 1369.55 Q50.7531 1366.59 45.0239 1366.59 L43.719 1366.59 L43.719 1372.42 M41.3 1360.74 L61.6384 1360.74 L61.6384 1366.59 L56.2276 1366.59 Q59.4741 1368.6 61.0337 1371.59 Q62.5615 1374.58 62.5615 1378.91 Q62.5615 1384.38 59.5059 1387.63 Q56.4186 1390.85 51.2623 1390.85 Q45.2467 1390.85 42.1912 1386.83 Q39.1357 1382.79 39.1357 1374.8 L39.1357 1366.59 L38.5628 1366.59 Q34.5205 1366.59 32.3244 1369.27 Q30.0964 1371.91 30.0964 1376.71 Q30.0964 1379.77 30.8284 1382.67 Q31.5605 1385.56 33.0246 1388.24 L27.6137 1388.24 Q26.3724 1385.02 25.7677 1382 Q25.1311 1378.97 25.1311 1376.11 Q25.1311 1368.37 29.1415 1364.55 Q33.1519 1360.74 41.3 1360.74 Z" fill="#000000" fill-rule="evenodd" fill-opacity="1" /><path clip-path="url(#clip800)" d="M15.869 1342.88 L25.9905 1342.88 L25.9905 1330.82 L30.542 1330.82 L30.542 1342.88 L49.8937 1342.88 Q54.2542 1342.88 55.4955 1341.7 Q56.7368 1340.49 56.7368 1336.83 L56.7368 1330.82 L61.6384 1330.82 L61.6384 1336.83 Q61.6384 1343.61 59.124 1346.19 Q56.5777 1348.77 49.8937 1348.77 L30.542 1348.77 L30.542 1353.06 L25.9905 1353.06 L25.9905 1348.77 L15.869 1348.77 L15.869 1342.88 Z" fill="#000000" fill-rule="evenodd" fill-opacity="1" /><path clip-path="url(#clip800)" d="M12.1132 1302.39 L12.1132 1296.54 L61.6384 1296.54 L61.6384 1302.39 L12.1132 1302.39 Z" fill="#000000" fill-rule="evenodd" fill-opacity="1" /><path clip-path="url(#clip800)" d="M30.0964 1270.47 Q30.0964 1275.18 33.7885 1277.92 Q37.4488 1280.65 43.8463 1280.65 Q50.2438 1280.65 53.9359 1277.95 Q57.5962 1275.21 57.5962 1270.47 Q57.5962 1265.79 53.9041 1263.05 Q50.212 1260.32 43.8463 1260.32 Q37.5124 1260.32 33.8203 1263.05 Q30.0964 1265.79 30.0964 1270.47 M25.1311 1270.47 Q25.1311 1262.83 30.0964 1258.47 Q35.0616 1254.11 43.8463 1254.11 Q52.5991 1254.11 57.5962 1258.47 Q62.5615 1262.83 62.5615 1270.47 Q62.5615 1278.14 57.5962 1282.5 Q52.5991 1286.83 43.8463 1286.83 Q35.0616 1286.83 30.0964 1282.5 Q25.1311 1278.14 25.1311 1270.47 Z" fill="#000000" fill-rule="evenodd" fill-opacity="1" /><path clip-path="url(#clip800)" d="M27.0408 1221.68 L32.579 1221.68 Q31.3059 1224.16 30.6693 1226.83 Q30.0327 1229.51 30.0327 1232.37 Q30.0327 1236.73 31.3695 1238.93 Q32.7063 1241.09 35.3799 1241.09 Q37.4169 1241.09 38.5946 1239.53 Q39.7404 1237.97 40.7908 1233.26 L41.2364 1231.26 Q42.5732 1225.02 45.0239 1222.41 Q47.4429 1219.77 51.8034 1219.77 Q56.7687 1219.77 59.6651 1223.71 Q62.5615 1227.63 62.5615 1234.5 Q62.5615 1237.37 61.9886 1240.49 Q61.4475 1243.57 60.3335 1247.01 L54.2861 1247.01 Q55.973 1243.77 56.8323 1240.61 Q57.6599 1237.46 57.6599 1234.38 Q57.6599 1230.24 56.2594 1228.01 Q54.8271 1225.78 52.249 1225.78 Q49.8619 1225.78 48.5887 1227.41 Q47.3156 1229 46.1379 1234.44 L45.6605 1236.48 Q44.5147 1241.92 42.1594 1244.34 Q39.7722 1246.76 35.6345 1246.76 Q30.6056 1246.76 27.8684 1243.19 Q25.1311 1239.63 25.1311 1233.07 Q25.1311 1229.82 25.6085 1226.96 Q26.086 1224.1 27.0408 1221.68 Z" fill="#000000" fill-rule="evenodd" fill-opacity="1" /><path clip-path="url(#clip800)" d="M27.0408 1187.72 L32.579 1187.72 Q31.3059 1190.2 30.6693 1192.87 Q30.0327 1195.55 30.0327 1198.41 Q30.0327 1202.77 31.3695 1204.97 Q32.7063 1207.13 35.3799 1207.13 Q37.4169 1207.13 38.5946 1205.57 Q39.7404 1204.01 40.7908 1199.3 L41.2364 1197.3 Q42.5732 1191.06 45.0239 1188.45 Q47.4429 1185.81 51.8034 1185.81 Q56.7687 1185.81 59.6651 1189.75 Q62.5615 1193.67 62.5615 1200.54 Q62.5615 1203.41 61.9886 1206.53 Q61.4475 1209.61 60.3335 1213.05 L54.2861 1213.05 Q55.973 1209.8 56.8323 1206.65 Q57.6599 1203.5 57.6599 1200.41 Q57.6599 1196.28 56.2594 1194.05 Q54.8271 1191.82 52.249 1191.82 Q49.8619 1191.82 48.5887 1193.44 Q47.3156 1195.04 46.1379 1200.48 L45.6605 1202.52 Q44.5147 1207.96 42.1594 1210.38 Q39.7722 1212.8 35.6345 1212.8 Q30.6056 1212.8 27.8684 1209.23 Q25.1311 1205.67 25.1311 1199.11 Q25.1311 1195.86 25.6085 1193 Q26.086 1190.13 27.0408 1187.72 Z" fill="#000000" fill-rule="evenodd" fill-opacity="1" /><path clip-path="url(#clip800)" d="M15.869 1149.97 L25.9905 1149.97 L25.9905 1137.9 L30.542 1137.9 L30.542 1149.97 L49.8937 1149.97 Q54.2542 1149.97 55.4955 1148.79 Q56.7368 1147.58 56.7368 1143.92 L56.7368 1137.9 L61.6384 1137.9 L61.6384 1143.92 Q61.6384 1150.7 59.124 1153.28 Q56.5777 1155.85 49.8937 1155.85 L30.542 1155.85 L30.542 1160.15 L25.9905 1160.15 L25.9905 1155.85 L15.869 1155.85 L15.869 1149.97 Z" fill="#000000" fill-rule="evenodd" fill-opacity="1" /><path clip-path="url(#clip800)" d="M30.0964 1116.39 Q30.0964 1121.1 33.7885 1123.84 Q37.4488 1126.57 43.8463 1126.57 Q50.2438 1126.57 53.9359 1123.87 Q57.5962 1121.13 57.5962 1116.39 Q57.5962 1111.71 53.9041 1108.97 Q50.212 1106.23 43.8463 1106.23 Q37.5124 1106.23 33.8203 1108.97 Q30.0964 1111.71 30.0964 1116.39 M25.1311 1116.39 Q25.1311 1108.75 30.0964 1104.39 Q35.0616 1100.03 43.8463 1100.03 Q52.5991 1100.03 57.5962 1104.39 Q62.5615 1108.75 62.5615 1116.39 Q62.5615 1124.06 57.5962 1128.42 Q52.5991 1132.75 43.8463 1132.75 Q35.0616 1132.75 30.0964 1128.42 Q25.1311 1124.06 25.1311 1116.39 Z" fill="#000000" fill-rule="evenodd" fill-opacity="1" /><path clip-path="url(#clip800)" d="M30.0964 1055.79 Q30.0964 1060.5 33.7885 1063.23 Q37.4488 1065.97 43.8463 1065.97 Q50.2438 1065.97 53.9359 1063.27 Q57.5962 1060.53 57.5962 1055.79 Q57.5962 1051.11 53.9041 1048.37 Q50.212 1045.63 43.8463 1045.63 Q37.5124 1045.63 33.8203 1048.37 Q30.0964 1051.11 30.0964 1055.79 M25.1311 1055.79 Q25.1311 1048.15 30.0964 1043.79 Q35.0616 1039.43 43.8463 1039.43 Q52.5991 1039.43 57.5962 1043.79 Q62.5615 1048.15 62.5615 1055.79 Q62.5615 1063.46 57.5962 1067.82 Q52.5991 1072.15 43.8463 1072.15 Q35.0616 1072.15 30.0964 1067.82 Q25.1311 1063.46 25.1311 1055.79 Z" fill="#000000" fill-rule="evenodd" fill-opacity="1" /><path clip-path="url(#clip800)" d="M25.9905 1033.92 L25.9905 1027.71 L55.9093 1016.57 L25.9905 1005.43 L25.9905 999.227 L61.6384 1012.59 L61.6384 1020.55 L25.9905 1033.92 Z" fill="#000000" fill-rule="evenodd" fill-opacity="1" /><path clip-path="url(#clip800)" d="M42.3504 960.651 L45.2149 960.651 L45.2149 987.578 Q51.2623 987.196 54.4452 983.949 Q57.5962 980.671 57.5962 974.846 Q57.5962 971.472 56.7687 968.321 Q55.9411 965.138 54.2861 962.019 L59.8242 962.019 Q61.161 965.17 61.8612 968.48 Q62.5615 971.791 62.5615 975.196 Q62.5615 983.726 57.5962 988.723 Q52.631 993.689 44.1646 993.689 Q35.4117 993.689 30.2873 988.978 Q25.1311 984.236 25.1311 976.215 Q25.1311 969.021 29.7781 964.852 Q34.3932 960.651 42.3504 960.651 M40.6316 966.507 Q35.8255 966.571 32.9609 969.212 Q30.0964 971.822 30.0964 976.151 Q30.0964 981.053 32.8654 984.013 Q35.6345 986.941 40.6634 987.387 L40.6316 966.507 Z" fill="#000000" fill-rule="evenodd" fill-opacity="1" /><path clip-path="url(#clip800)" d="M31.465 930.382 Q30.8921 931.368 30.6375 932.546 Q30.351 933.692 30.351 935.092 Q30.351 940.058 33.5975 942.731 Q36.8122 945.373 42.8596 945.373 L61.6384 945.373 L61.6384 951.261 L25.9905 951.261 L25.9905 945.373 L31.5287 945.373 Q28.2821 943.527 26.7225 940.567 Q25.1311 937.607 25.1311 933.374 Q25.1311 932.769 25.2266 932.037 Q25.2903 931.305 25.4494 930.413 L31.465 930.382 Z" fill="#000000" fill-rule="evenodd" fill-opacity="1" /><path clip-path="url(#clip800)" d="M43.8463 898.649 Q37.3851 898.649 33.7248 901.322 Q30.0327 903.964 30.0327 908.611 Q30.0327 913.258 33.7248 915.931 Q37.3851 918.573 43.8463 918.573 Q50.3075 918.573 53.9996 915.931 Q57.6599 913.258 57.6599 908.611 Q57.6599 903.964 53.9996 901.322 Q50.3075 898.649 43.8463 898.649 M31.4013 918.573 Q28.2185 916.727 26.6907 913.926 Q25.1311 911.094 25.1311 907.179 Q25.1311 900.686 30.2873 896.643 Q35.4436 892.569 43.8463 892.569 Q52.249 892.569 57.4052 896.643 Q62.5615 900.686 62.5615 907.179 Q62.5615 911.094 61.0337 913.926 Q59.4741 916.727 56.2912 918.573 L61.6384 918.573 L61.6384 924.462 L12.1132 924.462 L12.1132 918.573 L31.4013 918.573 Z" fill="#000000" fill-rule="evenodd" fill-opacity="1" /><path clip-path="url(#clip800)" d="M47.5702 883.466 L25.9905 883.466 L25.9905 877.61 L47.3474 877.61 Q52.4082 877.61 54.9545 875.637 Q57.4689 873.663 57.4689 869.716 Q57.4689 864.974 54.4452 862.237 Q51.4215 859.468 46.2016 859.468 L25.9905 859.468 L25.9905 853.611 L61.6384 853.611 L61.6384 859.468 L56.1639 859.468 Q59.4104 861.6 61.0019 864.433 Q62.5615 867.234 62.5615 870.958 Q62.5615 877.101 58.742 880.284 Q54.9226 883.466 47.5702 883.466 M25.1311 868.73 L25.1311 868.73 Z" fill="#000000" fill-rule="evenodd" fill-opacity="1" /><path clip-path="url(#clip800)" d="M31.465 820.891 Q30.8921 821.878 30.6375 823.056 Q30.351 824.202 30.351 825.602 Q30.351 830.567 33.5975 833.241 Q36.8122 835.883 42.8596 835.883 L61.6384 835.883 L61.6384 841.771 L25.9905 841.771 L25.9905 835.883 L31.5287 835.883 Q28.2821 834.037 26.7225 831.077 Q25.1311 828.117 25.1311 823.883 Q25.1311 823.279 25.2266 822.547 Q25.2903 821.815 25.4494 820.923 L31.465 820.891 Z" fill="#000000" fill-rule="evenodd" fill-opacity="1" /><path clip-path="url(#clip800)" d="M31.4013 792.437 L12.1132 792.437 L12.1132 786.58 L61.6384 786.58 L61.6384 792.437 L56.2912 792.437 Q59.4741 794.283 61.0337 797.116 Q62.5615 799.916 62.5615 803.863 Q62.5615 810.324 57.4052 814.398 Q52.249 818.441 43.8463 818.441 Q35.4436 818.441 30.2873 814.398 Q25.1311 810.324 25.1311 803.863 Q25.1311 799.916 26.6907 797.116 Q28.2185 794.283 31.4013 792.437 M43.8463 812.393 Q50.3075 812.393 53.9996 809.752 Q57.6599 807.078 57.6599 802.431 Q57.6599 797.784 53.9996 795.11 Q50.3075 792.437 43.8463 792.437 Q37.3851 792.437 33.7248 795.11 Q30.0327 797.784 30.0327 802.431 Q30.0327 807.078 33.7248 809.752 Q37.3851 812.393 43.8463 812.393 Z" fill="#000000" fill-rule="evenodd" fill-opacity="1" /><path clip-path="url(#clip800)" d="M42.3504 744.026 L45.2149 744.026 L45.2149 770.953 Q51.2623 770.571 54.4452 767.324 Q57.5962 764.046 57.5962 758.221 Q57.5962 754.847 56.7687 751.696 Q55.9411 748.513 54.2861 745.394 L59.8242 745.394 Q61.161 748.545 61.8612 751.855 Q62.5615 755.166 62.5615 758.571 Q62.5615 767.101 57.5962 772.098 Q52.631 777.064 44.1646 777.064 Q35.4117 777.064 30.2873 772.353 Q25.1311 767.611 25.1311 759.59 Q25.1311 752.396 29.7781 748.227 Q34.3932 744.026 42.3504 744.026 M40.6316 749.882 Q35.8255 749.946 32.9609 752.587 Q30.0964 755.197 30.0964 759.526 Q30.0964 764.428 32.8654 767.388 Q35.6345 770.316 40.6634 770.762 L40.6316 749.882 Z" fill="#000000" fill-rule="evenodd" fill-opacity="1" /><path clip-path="url(#clip800)" d="M40.1224 704.781 L61.6384 704.781 L61.6384 710.637 L40.3133 710.637 Q35.2526 710.637 32.7381 712.611 Q30.2237 714.584 30.2237 718.531 Q30.2237 723.273 33.2474 726.011 Q36.2711 728.748 41.491 728.748 L61.6384 728.748 L61.6384 734.636 L25.9905 734.636 L25.9905 728.748 L31.5287 728.748 Q28.314 726.647 26.7225 723.814 Q25.1311 720.95 25.1311 717.226 Q25.1311 711.083 28.9505 707.932 Q32.7381 704.781 40.1224 704.781 Z" fill="#000000" fill-rule="evenodd" fill-opacity="1" /><path clip-path="url(#clip800)" d="M12.1769 658.311 Q19.4975 662.576 26.6589 664.645 Q33.8203 666.714 41.1727 666.714 Q48.5251 666.714 55.7502 664.645 Q62.9434 662.545 70.2321 658.311 L70.2321 663.404 Q62.7524 668.178 55.5274 670.565 Q48.3023 672.921 41.1727 672.921 Q34.0749 672.921 26.8817 670.565 Q19.6884 668.21 12.1769 663.404 L12.1769 658.311 Z" fill="#000000" fill-rule="evenodd" fill-opacity="1" /><path clip-path="url(#clip800)" d="M14.1184 646.694 L14.1184 637.114 L46.4562 624.987 L14.1184 612.797 L14.1184 603.216 L61.6384 603.216 L61.6384 609.486 L19.9112 609.486 L52.5037 621.74 L52.5037 628.202 L19.9112 640.456 L61.6384 640.456 L61.6384 646.694 L14.1184 646.694 Z" fill="#000000" fill-rule="evenodd" fill-opacity="1" /><path clip-path="url(#clip800)" d="M14.1184 590.453 L14.1184 584.024 L58.3283 584.024 Q66.922 584.024 70.8051 587.302 Q74.6881 590.548 74.6881 597.773 L74.6881 600.224 L69.2773 600.224 L69.2773 598.219 Q69.2773 593.954 66.8902 592.203 Q64.503 590.453 58.3283 590.453 L14.1184 590.453 Z" fill="#000000" fill-rule="evenodd" fill-opacity="1" /><path clip-path="url(#clip800)" d="M30.0964 557.67 Q30.0964 562.38 33.7885 565.117 Q37.4488 567.855 43.8463 567.855 Q50.2438 567.855 53.9359 565.149 Q57.5962 562.412 57.5962 557.67 Q57.5962 552.991 53.9041 550.253 Q50.212 547.516 43.8463 547.516 Q37.5124 547.516 33.8203 550.253 Q30.0964 552.991 30.0964 557.67 M25.1311 557.67 Q25.1311 550.031 30.0964 545.67 Q35.0616 541.31 43.8463 541.31 Q52.5991 541.31 57.5962 545.67 Q62.5615 550.031 62.5615 557.67 Q62.5615 565.34 57.5962 569.701 Q52.5991 574.029 43.8463 574.029 Q35.0616 574.029 30.0964 569.701 Q25.1311 565.34 25.1311 557.67 Z" fill="#000000" fill-rule="evenodd" fill-opacity="1" /><path clip-path="url(#clip800)" d="M47.5702 532.207 L25.9905 532.207 L25.9905 526.35 L47.3474 526.35 Q52.4082 526.35 54.9545 524.377 Q57.4689 522.404 57.4689 518.457 Q57.4689 513.714 54.4452 510.977 Q51.4215 508.208 46.2016 508.208 L25.9905 508.208 L25.9905 502.352 L61.6384 502.352 L61.6384 508.208 L56.1639 508.208 Q59.4104 510.34 61.0019 513.173 Q62.5615 515.974 62.5615 519.698 Q62.5615 525.841 58.742 529.024 Q54.9226 532.207 47.5702 532.207 M25.1311 517.47 L25.1311 517.47 Z" fill="#000000" fill-rule="evenodd" fill-opacity="1" /><path clip-path="url(#clip800)" d="M12.1132 490.289 L12.1132 484.432 L61.6384 484.432 L61.6384 490.289 L12.1132 490.289 Z" fill="#000000" fill-rule="evenodd" fill-opacity="1" /><path clip-path="url(#clip800)" d="M42.3504 441.686 L45.2149 441.686 L45.2149 468.613 Q51.2623 468.231 54.4452 464.985 Q57.5962 461.706 57.5962 455.882 Q57.5962 452.508 56.7687 449.357 Q55.9411 446.174 54.2861 443.055 L59.8242 443.055 Q61.161 446.206 61.8612 449.516 Q62.5615 452.826 62.5615 456.232 Q62.5615 464.762 57.5962 469.759 Q52.631 474.724 44.1646 474.724 Q35.4117 474.724 30.2873 470.014 Q25.1311 465.271 25.1311 457.25 Q25.1311 450.057 29.7781 445.888 Q34.3932 441.686 42.3504 441.686 M40.6316 447.543 Q35.8255 447.606 32.9609 450.248 Q30.0964 452.858 30.0964 457.187 Q30.0964 462.088 32.8654 465.048 Q35.6345 467.977 40.6634 468.422 L40.6316 447.543 Z" fill="#000000" fill-rule="evenodd" fill-opacity="1" /><path clip-path="url(#clip800)" d="M27.0408 409.349 L32.579 409.349 Q31.3059 411.831 30.6693 414.505 Q30.0327 417.178 30.0327 420.043 Q30.0327 424.403 31.3695 426.6 Q32.7063 428.764 35.3799 428.764 Q37.4169 428.764 38.5946 427.204 Q39.7404 425.645 40.7908 420.934 L41.2364 418.929 Q42.5732 412.691 45.0239 410.081 Q47.4429 407.439 51.8034 407.439 Q56.7687 407.439 59.6651 411.386 Q62.5615 415.3 62.5615 422.175 Q62.5615 425.04 61.9886 428.159 Q61.4475 431.247 60.3335 434.684 L54.2861 434.684 Q55.973 431.438 56.8323 428.287 Q57.6599 425.136 57.6599 422.048 Q57.6599 417.91 56.2594 415.682 Q54.8271 413.454 52.249 413.454 Q49.8619 413.454 48.5887 415.078 Q47.3156 416.669 46.1379 422.112 L45.6605 424.149 Q44.5147 429.592 42.1594 432.01 Q39.7722 434.429 35.6345 434.429 Q30.6056 434.429 27.8684 430.865 Q25.1311 427.3 25.1311 420.743 Q25.1311 417.497 25.6085 414.632 Q26.086 411.768 27.0408 409.349 Z" fill="#000000" fill-rule="evenodd" fill-opacity="1" /><path clip-path="url(#clip800)" d="M12.1769 399.036 L12.1769 393.944 Q19.6884 389.169 26.8817 386.814 Q34.0749 384.427 41.1727 384.427 Q48.3023 384.427 55.5274 386.814 Q62.7524 389.169 70.2321 393.944 L70.2321 399.036 Q62.9434 394.803 55.7502 392.734 Q48.5251 390.633 41.1727 390.633 Q33.8203 390.633 26.6589 392.734 Q19.4975 394.803 12.1769 399.036 Z" fill="#000000" fill-rule="evenodd" fill-opacity="1" /><path clip-path="url(#clip800)" d="M861.874 20.1573 L850.775 50.2555 L873.014 50.2555 L861.874 20.1573 M857.256 12.096 L866.533 12.096 L889.583 72.576 L881.076 72.576 L875.566 57.061 L848.304 57.061 L842.795 72.576 L834.166 72.576 L857.256 12.096 Z" fill="#000000" fill-rule="evenodd" fill-opacity="1" /><path clip-path="url(#clip800)" d="M935.803 45.1919 L935.803 72.576 L928.35 72.576 L928.35 45.4349 Q928.35 38.994 925.838 35.7938 Q923.327 32.5936 918.303 32.5936 Q912.268 32.5936 908.784 36.4419 Q905.3 40.2903 905.3 46.9338 L905.3 72.576 L897.806 72.576 L897.806 27.2059 L905.3 27.2059 L905.3 34.2544 Q907.974 30.163 911.579 28.1376 Q915.225 26.1121 919.964 26.1121 Q927.783 26.1121 931.793 30.9732 Q935.803 35.7938 935.803 45.1919 Z" fill="#000000" fill-rule="evenodd" fill-opacity="1" /><path clip-path="url(#clip800)" d="M988.384 45.1919 L988.384 72.576 L980.93 72.576 L980.93 45.4349 Q980.93 38.994 978.419 35.7938 Q975.907 32.5936 970.884 32.5936 Q964.848 32.5936 961.365 36.4419 Q957.881 40.2903 957.881 46.9338 L957.881 72.576 L950.387 72.576 L950.387 27.2059 L957.881 27.2059 L957.881 34.2544 Q960.554 30.163 964.16 28.1376 Q967.805 26.1121 972.545 26.1121 Q980.363 26.1121 984.374 30.9732 Q988.384 35.7938 988.384 45.1919 Z" fill="#000000" fill-rule="evenodd" fill-opacity="1" /><path clip-path="url(#clip800)" d="M1002.48 54.671 L1002.48 27.2059 L1009.93 27.2059 L1009.93 54.3874 Q1009.93 60.8284 1012.45 64.0691 Q1014.96 67.2693 1019.98 67.2693 Q1026.02 67.2693 1029.5 63.421 Q1033.03 59.5726 1033.03 52.9291 L1033.03 27.2059 L1040.48 27.2059 L1040.48 72.576 L1033.03 72.576 L1033.03 65.6084 Q1030.31 69.7404 1026.71 71.7658 Q1023.14 73.7508 1018.4 73.7508 Q1010.58 73.7508 1006.53 68.8897 Q1002.48 64.0286 1002.48 54.671 M1021.24 26.1121 L1021.24 26.1121 Z" fill="#000000" fill-rule="evenodd" fill-opacity="1" /><path clip-path="url(#clip800)" d="M1076.45 49.7694 Q1067.42 49.7694 1063.93 51.8354 Q1060.45 53.9013 1060.45 58.8839 Q1060.45 62.8538 1063.04 65.2034 Q1065.68 67.5124 1070.17 67.5124 Q1076.37 67.5124 1080.1 63.1374 Q1083.86 58.7219 1083.86 51.4303 L1083.86 49.7694 L1076.45 49.7694 M1091.32 46.6907 L1091.32 72.576 L1083.86 72.576 L1083.86 65.6895 Q1081.31 69.8214 1077.5 71.8063 Q1073.7 73.7508 1068.19 73.7508 Q1061.22 73.7508 1057.09 69.8619 Q1053 65.9325 1053 59.3701 Q1053 51.7138 1058.1 47.825 Q1063.24 43.9361 1073.41 43.9361 L1083.86 43.9361 L1083.86 43.2069 Q1083.86 38.0623 1080.46 35.2672 Q1077.1 32.4315 1070.98 32.4315 Q1067.09 32.4315 1063.41 33.3632 Q1059.72 34.295 1056.32 36.1584 L1056.32 29.2718 Q1060.41 27.692 1064.26 26.9223 Q1068.11 26.1121 1071.75 26.1121 Q1081.6 26.1121 1086.46 31.2163 Q1091.32 36.3204 1091.32 46.6907 Z" fill="#000000" fill-rule="evenodd" fill-opacity="1" /><path clip-path="url(#clip800)" d="M1106.67 9.54393 L1114.12 9.54393 L1114.12 72.576 L1106.67 72.576 L1106.67 9.54393 Z" fill="#000000" fill-rule="evenodd" fill-opacity="1" /><path clip-path="url(#clip800)" d="M1156.42 12.096 L1164.6 12.096 L1164.6 36.8875 L1194.33 36.8875 L1194.33 12.096 L1202.51 12.096 L1202.51 72.576 L1194.33 72.576 L1194.33 43.7741 L1164.6 43.7741 L1164.6 72.576 L1156.42 72.576 L1156.42 12.096 Z" fill="#000000" fill-rule="evenodd" fill-opacity="1" /><path clip-path="url(#clip800)" d="M1257.28 48.0275 L1257.28 51.6733 L1223.01 51.6733 Q1223.5 59.3701 1227.63 63.421 Q1231.8 67.4314 1239.22 67.4314 Q1243.51 67.4314 1247.52 66.3781 Q1251.57 65.3249 1255.54 63.2184 L1255.54 70.267 Q1251.53 71.9684 1247.32 72.8596 Q1243.1 73.7508 1238.77 73.7508 Q1227.91 73.7508 1221.55 67.4314 Q1215.23 61.1119 1215.23 50.3365 Q1215.23 39.1965 1221.23 32.6746 Q1227.27 26.1121 1237.47 26.1121 Q1246.63 26.1121 1251.94 32.0264 Q1257.28 37.9003 1257.28 48.0275 M1249.83 45.84 Q1249.75 39.7232 1246.39 36.0774 Q1243.06 32.4315 1237.56 32.4315 Q1231.32 32.4315 1227.55 35.9558 Q1223.82 39.4801 1223.26 45.8805 L1249.83 45.84 Z" fill="#000000" fill-rule="evenodd" fill-opacity="1" /><path clip-path="url(#clip800)" d="M1290.14 49.7694 Q1281.1 49.7694 1277.62 51.8354 Q1274.13 53.9013 1274.13 58.8839 Q1274.13 62.8538 1276.73 65.2034 Q1279.36 67.5124 1283.86 67.5124 Q1290.05 67.5124 1293.78 63.1374 Q1297.55 58.7219 1297.55 51.4303 L1297.55 49.7694 L1290.14 49.7694 M1305 46.6907 L1305 72.576 L1297.55 72.576 L1297.55 65.6895 Q1295 69.8214 1291.19 71.8063 Q1287.38 73.7508 1281.87 73.7508 Q1274.9 73.7508 1270.77 69.8619 Q1266.68 65.9325 1266.68 59.3701 Q1266.68 51.7138 1271.79 47.825 Q1276.93 43.9361 1287.1 43.9361 L1297.55 43.9361 L1297.55 43.2069 Q1297.55 38.0623 1294.15 35.2672 Q1290.78 32.4315 1284.67 32.4315 Q1280.78 32.4315 1277.09 33.3632 Q1273.41 34.295 1270 36.1584 L1270 29.2718 Q1274.09 27.692 1277.94 26.9223 Q1281.79 26.1121 1285.44 26.1121 Q1295.28 26.1121 1300.14 31.2163 Q1305 36.3204 1305 46.6907 Z" fill="#000000" fill-rule="evenodd" fill-opacity="1" /><path clip-path="url(#clip800)" d="M1327.73 14.324 L1327.73 27.2059 L1343.08 27.2059 L1343.08 32.9987 L1327.73 32.9987 L1327.73 57.6282 Q1327.73 63.1779 1329.23 64.7578 Q1330.77 66.3376 1335.43 66.3376 L1343.08 66.3376 L1343.08 72.576 L1335.43 72.576 Q1326.8 72.576 1323.52 69.3758 Q1320.23 66.1351 1320.23 57.6282 L1320.23 32.9987 L1314.77 32.9987 L1314.77 27.2059 L1320.23 27.2059 L1320.23 14.324 L1327.73 14.324 Z" fill="#000000" fill-rule="evenodd" fill-opacity="1" /><path clip-path="url(#clip800)" d="M1379.58 12.096 L1387.76 12.096 L1387.76 65.6895 L1417.21 65.6895 L1417.21 72.576 L1379.58 72.576 L1379.58 12.096 Z" fill="#000000" fill-rule="evenodd" fill-opacity="1" /><path clip-path="url(#clip800)" d="M1441.6 32.4315 Q1435.6 32.4315 1432.12 37.1306 Q1428.64 41.7891 1428.64 49.9314 Q1428.64 58.0738 1432.08 62.7728 Q1435.56 67.4314 1441.6 67.4314 Q1447.55 67.4314 1451.04 62.7323 Q1454.52 58.0333 1454.52 49.9314 Q1454.52 41.8701 1451.04 37.1711 Q1447.55 32.4315 1441.6 32.4315 M1441.6 26.1121 Q1451.32 26.1121 1456.87 32.4315 Q1462.42 38.7509 1462.42 49.9314 Q1462.42 61.0714 1456.87 67.4314 Q1451.32 73.7508 1441.6 73.7508 Q1431.84 73.7508 1426.29 67.4314 Q1420.78 61.0714 1420.78 49.9314 Q1420.78 38.7509 1426.29 32.4315 Q1431.84 26.1121 1441.6 26.1121 Z" fill="#000000" fill-rule="evenodd" fill-opacity="1" /><path clip-path="url(#clip800)" d="M1503.7 28.5427 L1503.7 35.5912 Q1500.54 33.9709 1497.14 33.1607 Q1493.73 32.3505 1490.09 32.3505 Q1484.54 32.3505 1481.74 34.0519 Q1478.99 35.7533 1478.99 39.156 Q1478.99 41.7486 1480.97 43.2475 Q1482.96 44.7058 1488.95 46.0426 L1491.51 46.6097 Q1499.45 48.3111 1502.77 51.4303 Q1506.13 54.509 1506.13 60.0587 Q1506.13 66.3781 1501.11 70.0644 Q1496.12 73.7508 1487.37 73.7508 Q1483.73 73.7508 1479.76 73.0216 Q1475.83 72.3329 1471.45 70.9151 L1471.45 63.2184 Q1475.59 65.3654 1479.6 66.4591 Q1483.61 67.5124 1487.54 67.5124 Q1492.8 67.5124 1495.64 65.73 Q1498.47 63.9071 1498.47 60.6258 Q1498.47 57.5877 1496.41 55.9673 Q1494.38 54.3469 1487.46 52.8481 L1484.86 52.2405 Q1477.94 50.7821 1474.86 47.7845 Q1471.78 44.7463 1471.78 39.4801 Q1471.78 33.0797 1476.32 29.5959 Q1480.85 26.1121 1489.2 26.1121 Q1493.33 26.1121 1496.98 26.7198 Q1500.62 27.3274 1503.7 28.5427 Z" fill="#000000" fill-rule="evenodd" fill-opacity="1" /><path clip-path="url(#clip800)" d="M1546.92 28.5427 L1546.92 35.5912 Q1543.76 33.9709 1540.36 33.1607 Q1536.96 32.3505 1533.31 32.3505 Q1527.76 32.3505 1524.97 34.0519 Q1522.21 35.7533 1522.21 39.156 Q1522.21 41.7486 1524.2 43.2475 Q1526.18 44.7058 1532.18 46.0426 L1534.73 46.6097 Q1542.67 48.3111 1545.99 51.4303 Q1549.35 54.509 1549.35 60.0587 Q1549.35 66.3781 1544.33 70.0644 Q1539.35 73.7508 1530.6 73.7508 Q1526.95 73.7508 1522.98 73.0216 Q1519.05 72.3329 1514.68 70.9151 L1514.68 63.2184 Q1518.81 65.3654 1522.82 66.4591 Q1526.83 67.5124 1530.76 67.5124 Q1536.03 67.5124 1538.86 65.73 Q1541.7 63.9071 1541.7 60.6258 Q1541.7 57.5877 1539.63 55.9673 Q1537.61 54.3469 1530.68 52.8481 L1528.09 52.2405 Q1521.16 50.7821 1518.08 47.7845 Q1515 44.7463 1515 39.4801 Q1515 33.0797 1519.54 29.5959 Q1524.08 26.1121 1532.42 26.1121 Q1536.55 26.1121 1540.2 26.7198 Q1543.84 27.3274 1546.92 28.5427 Z" fill="#000000" fill-rule="evenodd" fill-opacity="1" /><path clip-path="url(#clip800)" d="M1579.53 12.096 L1630.7 12.096 L1630.7 18.9825 L1609.23 18.9825 L1609.23 72.576 L1601 72.576 L1601 18.9825 L1579.53 18.9825 L1579.53 12.096 Z" fill="#000000" fill-rule="evenodd" fill-opacity="1" /><path clip-path="url(#clip800)" d="M1641.75 32.4315 Q1635.76 32.4315 1632.28 37.1306 Q1628.79 41.7891 1628.79 49.9314 Q1628.79 58.0738 1632.23 62.7728 Q1635.72 67.4314 1641.75 67.4314 Q1647.71 67.4314 1651.19 62.7323 Q1654.68 58.0333 1654.68 49.9314 Q1654.68 41.8701 1651.19 37.1711 Q1647.71 32.4315 1641.75 32.4315 M1641.75 26.1121 Q1651.48 26.1121 1657.03 32.4315 Q1662.58 38.7509 1662.58 49.9314 Q1662.58 61.0714 1657.03 67.4314 Q1651.48 73.7508 1641.75 73.7508 Q1631.99 73.7508 1626.44 67.4314 Q1620.93 61.0714 1620.93 49.9314 Q1620.93 38.7509 1626.44 32.4315 Q1631.99 26.1121 1641.75 26.1121 Z" fill="#000000" fill-rule="evenodd" fill-opacity="1" /><path clip-path="url(#clip800)" d="M1726.18 17.6457 Q1717.26 17.6457 1712 24.2892 Q1706.77 30.9327 1706.77 42.3968 Q1706.77 53.8203 1712 60.4638 Q1717.26 67.1073 1726.18 67.1073 Q1735.09 67.1073 1740.27 60.4638 Q1745.5 53.8203 1745.5 42.3968 Q1745.5 30.9327 1740.27 24.2892 Q1735.09 17.6457 1726.18 17.6457 M1726.18 11.0023 Q1738.9 11.0023 1746.51 19.5497 Q1754.13 28.0566 1754.13 42.3968 Q1754.13 56.6965 1746.51 65.2439 Q1738.9 73.7508 1726.18 73.7508 Q1713.41 73.7508 1705.76 65.2439 Q1698.14 56.737 1698.14 42.3968 Q1698.14 28.0566 1705.76 19.5497 Q1713.41 11.0023 1726.18 11.0023 Z" fill="#000000" fill-rule="evenodd" fill-opacity="1" /><path clip-path="url(#clip800)" d="M1761.26 27.2059 L1769.16 27.2059 L1783.33 65.2844 L1797.51 27.2059 L1805.41 27.2059 L1788.4 72.576 L1778.27 72.576 L1761.26 27.2059 Z" fill="#000000" fill-rule="evenodd" fill-opacity="1" /><path clip-path="url(#clip800)" d="M1854.51 48.0275 L1854.51 51.6733 L1820.24 51.6733 Q1820.72 59.3701 1824.86 63.421 Q1829.03 67.4314 1836.44 67.4314 Q1840.73 67.4314 1844.75 66.3781 Q1848.8 65.3249 1852.77 63.2184 L1852.77 70.267 Q1848.76 71.9684 1844.54 72.8596 Q1840.33 73.7508 1836 73.7508 Q1825.14 73.7508 1818.78 67.4314 Q1812.46 61.1119 1812.46 50.3365 Q1812.46 39.1965 1818.45 32.6746 Q1824.49 26.1121 1834.7 26.1121 Q1843.85 26.1121 1849.16 32.0264 Q1854.51 37.9003 1854.51 48.0275 M1847.05 45.84 Q1846.97 39.7232 1843.61 36.0774 Q1840.29 32.4315 1834.78 32.4315 Q1828.54 32.4315 1824.77 35.9558 Q1821.05 39.4801 1820.48 45.8805 L1847.05 45.84 Z" fill="#000000" fill-rule="evenodd" fill-opacity="1" /><path clip-path="url(#clip800)" d="M1893.03 34.1734 Q1891.78 33.4443 1890.28 33.1202 Q1888.82 32.7556 1887.04 32.7556 Q1880.72 32.7556 1877.31 36.8875 Q1873.95 40.9789 1873.95 48.6757 L1873.95 72.576 L1866.46 72.576 L1866.46 27.2059 L1873.95 27.2059 L1873.95 34.2544 Q1876.3 30.1225 1880.07 28.1376 Q1883.84 26.1121 1889.22 26.1121 Q1889.99 26.1121 1890.93 26.2337 Q1891.86 26.3147 1892.99 26.5172 L1893.03 34.1734 Z" fill="#000000" fill-rule="evenodd" fill-opacity="1" /><path clip-path="url(#clip800)" d="M1933.42 49.9314 Q1933.42 41.7081 1930.02 37.0496 Q1926.65 32.3505 1920.74 32.3505 Q1914.83 32.3505 1911.42 37.0496 Q1908.06 41.7081 1908.06 49.9314 Q1908.06 58.1548 1911.42 62.8538 Q1914.83 67.5124 1920.74 67.5124 Q1926.65 67.5124 1930.02 62.8538 Q1933.42 58.1548 1933.42 49.9314 M1908.06 34.0924 Q1910.41 30.0415 1913.98 28.0971 Q1917.58 26.1121 1922.56 26.1121 Q1930.83 26.1121 1935.97 32.6746 Q1941.16 39.2371 1941.16 49.9314 Q1941.16 60.6258 1935.97 67.1883 Q1930.83 73.7508 1922.56 73.7508 Q1917.58 73.7508 1913.98 71.8063 Q1910.41 69.8214 1908.06 65.7705 L1908.06 72.576 L1900.57 72.576 L1900.57 9.54393 L1908.06 9.54393 L1908.06 34.0924 Z" fill="#000000" fill-rule="evenodd" fill-opacity="1" /><path clip-path="url(#clip800)" d="M1952.74 54.671 L1952.74 27.2059 L1960.2 27.2059 L1960.2 54.3874 Q1960.2 60.8284 1962.71 64.0691 Q1965.22 67.2693 1970.24 67.2693 Q1976.28 67.2693 1979.76 63.421 Q1983.29 59.5726 1983.29 52.9291 L1983.29 27.2059 L1990.74 27.2059 L1990.74 72.576 L1983.29 72.576 L1983.29 65.6084 Q1980.57 69.7404 1976.97 71.7658 Q1973.4 73.7508 1968.66 73.7508 Q1960.84 73.7508 1956.79 68.8897 Q1952.74 64.0286 1952.74 54.671 M1971.5 26.1121 L1971.5 26.1121 Z" fill="#000000" fill-rule="evenodd" fill-opacity="1" /><path clip-path="url(#clip800)" d="M2032.38 34.1734 Q2031.13 33.4443 2029.63 33.1202 Q2028.17 32.7556 2026.39 32.7556 Q2020.07 32.7556 2016.67 36.8875 Q2013.3 40.9789 2013.3 48.6757 L2013.3 72.576 L2005.81 72.576 L2005.81 27.2059 L2013.3 27.2059 L2013.3 34.2544 Q2015.65 30.1225 2019.42 28.1376 Q2023.19 26.1121 2028.58 26.1121 Q2029.34 26.1121 2030.28 26.2337 Q2031.21 26.3147 2032.34 26.5172 L2032.38 34.1734 Z" fill="#000000" fill-rule="evenodd" fill-opacity="1" /><path clip-path="url(#clip800)" d="M2068.6 34.0924 L2068.6 9.54393 L2076.05 9.54393 L2076.05 72.576 L2068.6 72.576 L2068.6 65.7705 Q2066.25 69.8214 2062.64 71.8063 Q2059.08 73.7508 2054.06 73.7508 Q2045.83 73.7508 2040.65 67.1883 Q2035.5 60.6258 2035.5 49.9314 Q2035.5 39.2371 2040.65 32.6746 Q2045.83 26.1121 2054.06 26.1121 Q2059.08 26.1121 2062.64 28.0971 Q2066.25 30.0415 2068.6 34.0924 M2043.2 49.9314 Q2043.2 58.1548 2046.56 62.8538 Q2049.96 67.5124 2055.88 67.5124 Q2061.79 67.5124 2065.2 62.8538 Q2068.6 58.1548 2068.6 49.9314 Q2068.6 41.7081 2065.2 37.0496 Q2061.79 32.3505 2055.88 32.3505 Q2049.96 32.3505 2046.56 37.0496 Q2043.2 41.7081 2043.2 49.9314 Z" fill="#000000" fill-rule="evenodd" fill-opacity="1" /><path clip-path="url(#clip800)" d="M2130.21 48.0275 L2130.21 51.6733 L2095.94 51.6733 Q2096.43 59.3701 2100.56 63.421 Q2104.73 67.4314 2112.15 67.4314 Q2116.44 67.4314 2120.45 66.3781 Q2124.5 65.3249 2128.47 63.2184 L2128.47 70.267 Q2124.46 71.9684 2120.25 72.8596 Q2116.03 73.7508 2111.7 73.7508 Q2100.84 73.7508 2094.48 67.4314 Q2088.16 61.1119 2088.16 50.3365 Q2088.16 39.1965 2094.16 32.6746 Q2100.2 26.1121 2110.4 26.1121 Q2119.56 26.1121 2124.87 32.0264 Q2130.21 37.9003 2130.21 48.0275 M2122.76 45.84 Q2122.68 39.7232 2119.32 36.0774 Q2115.99 32.4315 2110.48 32.4315 Q2104.25 32.4315 2100.48 35.9558 Q2096.75 39.4801 2096.18 45.8805 L2122.76 45.84 Z" fill="#000000" fill-rule="evenodd" fill-opacity="1" /><path clip-path="url(#clip800)" d="M2180.16 45.1919 L2180.16 72.576 L2172.71 72.576 L2172.71 45.4349 Q2172.71 38.994 2170.19 35.7938 Q2167.68 32.5936 2162.66 32.5936 Q2156.62 32.5936 2153.14 36.4419 Q2149.66 40.2903 2149.66 46.9338 L2149.66 72.576 L2142.16 72.576 L2142.16 27.2059 L2149.66 27.2059 L2149.66 34.2544 Q2152.33 30.163 2155.94 28.1376 Q2159.58 26.1121 2164.32 26.1121 Q2172.14 26.1121 2176.15 30.9732 Q2180.16 35.7938 2180.16 45.1919 Z" fill="#000000" fill-rule="evenodd" fill-opacity="1" /><path clip-path="url(#clip802)" d="M557.739 173.254 L557.739 1688.65 L717.743 1688.65 L717.743 173.254 L557.739 173.254 L557.739 173.254  Z" fill="#009af9" fill-rule="evenodd" fill-opacity="1"/>
<polyline clip-path="url(#clip802)" style="stroke:#000000; stroke-linecap:round; stroke-linejoin:round; stroke-width:12; stroke-opacity:1; fill:none" points="557.739,173.254 557.739,1688.65 717.743,1688.65 717.743,173.254 557.739,173.254 "/>
<path clip-path="url(#clip802)" d="M757.744 1060.96 L757.744 1688.65 L917.748 1688.65 L917.748 1060.96 L757.744 1060.96 L757.744 1060.96  Z" fill="#009af9" fill-rule="evenodd" fill-opacity="1"/>
<polyline clip-path="url(#clip802)" style="stroke:#000000; stroke-linecap:round; stroke-linejoin:round; stroke-width:12; stroke-opacity:1; fill:none" points="757.744,1060.96 757.744,1688.65 917.748,1688.65 917.748,1060.96 757.744,1060.96 "/>
<path clip-path="url(#clip802)" d="M957.749 1207 L957.749 1688.65 L1117.75 1688.65 L1117.75 1207 L957.749 1207 L957.749 1207  Z" fill="#009af9" fill-rule="evenodd" fill-opacity="1"/>
<polyline clip-path="url(#clip802)" style="stroke:#000000; stroke-linecap:round; stroke-linejoin:round; stroke-width:12; stroke-opacity:1; fill:none" points="957.749,1207 957.749,1688.65 1117.75,1688.65 1117.75,1207 957.749,1207 "/>
<path clip-path="url(#clip802)" d="M1157.75 1282.6 L1157.75 1688.65 L1317.76 1688.65 L1317.76 1282.6 L1157.75 1282.6 L1157.75 1282.6  Z" fill="#009af9" fill-rule="evenodd" fill-opacity="1"/>
<polyline clip-path="url(#clip802)" style="stroke:#000000; stroke-linecap:round; stroke-linejoin:round; stroke-width:12; stroke-opacity:1; fill:none" points="1157.75,1282.6 1157.75,1688.65 1317.76,1688.65 1317.76,1282.6 1157.75,1282.6 "/>
<path clip-path="url(#clip802)" d="M1357.76 1330.92 L1357.76 1688.65 L1517.76 1688.65 L1517.76 1330.92 L1357.76 1330.92 L1357.76 1330.92  Z" fill="#009af9" fill-rule="evenodd" fill-opacity="1"/>
<polyline clip-path="url(#clip802)" style="stroke:#000000; stroke-linecap:round; stroke-linejoin:round; stroke-width:12; stroke-opacity:1; fill:none" points="1357.76,1330.92 1357.76,1688.65 1517.76,1688.65 1517.76,1330.92 1357.76,1330.92 "/>
<path clip-path="url(#clip802)" d="M1557.76 1365.24 L1557.76 1688.65 L1717.77 1688.65 L1717.77 1365.24 L1557.76 1365.24 L1557.76 1365.24  Z" fill="#009af9" fill-rule="evenodd" fill-opacity="1"/>
<polyline clip-path="url(#clip802)" style="stroke:#000000; stroke-linecap:round; stroke-linejoin:round; stroke-width:12; stroke-opacity:1; fill:none" points="1557.76,1365.24 1557.76,1688.65 1717.77,1688.65 1717.77,1365.24 1557.76,1365.24 "/>
<path clip-path="url(#clip802)" d="M1757.77 1391.24 L1757.77 1688.65 L1917.77 1688.65 L1917.77 1391.24 L1757.77 1391.24 L1757.77 1391.24  Z" fill="#009af9" fill-rule="evenodd" fill-opacity="1"/>
<polyline clip-path="url(#clip802)" style="stroke:#000000; stroke-linecap:round; stroke-linejoin:round; stroke-width:12; stroke-opacity:1; fill:none" points="1757.77,1391.24 1757.77,1688.65 1917.77,1688.65 1917.77,1391.24 1757.77,1391.24 "/>
<path clip-path="url(#clip802)" d="M1957.77 1411.83 L1957.77 1688.65 L2117.78 1688.65 L2117.78 1411.83 L1957.77 1411.83 L1957.77 1411.83  Z" fill="#009af9" fill-rule="evenodd" fill-opacity="1"/>
<polyline clip-path="url(#clip802)" style="stroke:#000000; stroke-linecap:round; stroke-linejoin:round; stroke-width:12; stroke-opacity:1; fill:none" points="1957.77,1411.83 1957.77,1688.65 2117.78,1688.65 2117.78,1411.83 1957.77,1411.83 "/>
<path clip-path="url(#clip802)" d="M2157.78 1428.65 L2157.78 1688.65 L2317.78 1688.65 L2317.78 1428.65 L2157.78 1428.65 L2157.78 1428.65  Z" fill="#009af9" fill-rule="evenodd" fill-opacity="1"/>
<polyline clip-path="url(#clip802)" style="stroke:#000000; stroke-linecap:round; stroke-linejoin:round; stroke-width:12; stroke-opacity:1; fill:none" points="2157.78,1428.65 2157.78,1688.65 2317.78,1688.65 2317.78,1428.65 2157.78,1428.65 "/>
<path clip-path="url(#clip802)" d="M2357.78 1442.74 L2357.78 1688.65 L2517.79 1688.65 L2517.79 1442.74 L2357.78 1442.74 L2357.78 1442.74  Z" fill="#009af9" fill-rule="evenodd" fill-opacity="1"/>
<polyline clip-path="url(#clip802)" style="stroke:#000000; stroke-linecap:round; stroke-linejoin:round; stroke-width:12; stroke-opacity:1; fill:none" points="2357.78,1442.74 2357.78,1688.65 2517.79,1688.65 2517.79,1442.74 2357.78,1442.74 "/>
<circle clip-path="url(#clip802)" style="fill:#009af9; stroke:none; fill-opacity:0" cx="637.741" cy="173.254" r="2"/>
<circle clip-path="url(#clip802)" style="fill:#009af9; stroke:none; fill-opacity:0" cx="837.746" cy="1060.96" r="2"/>
<circle clip-path="url(#clip802)" style="fill:#009af9; stroke:none; fill-opacity:0" cx="1037.75" cy="1207" r="2"/>
<circle clip-path="url(#clip802)" style="fill:#009af9; stroke:none; fill-opacity:0" cx="1237.76" cy="1282.6" r="2"/>
<circle clip-path="url(#clip802)" style="fill:#009af9; stroke:none; fill-opacity:0" cx="1437.76" cy="1330.92" r="2"/>
<circle clip-path="url(#clip802)" style="fill:#009af9; stroke:none; fill-opacity:0" cx="1637.77" cy="1365.24" r="2"/>
<circle clip-path="url(#clip802)" style="fill:#009af9; stroke:none; fill-opacity:0" cx="1837.77" cy="1391.24" r="2"/>
<circle clip-path="url(#clip802)" style="fill:#009af9; stroke:none; fill-opacity:0" cx="2037.78" cy="1411.83" r="2"/>
<circle clip-path="url(#clip802)" style="fill:#009af9; stroke:none; fill-opacity:0" cx="2237.78" cy="1428.65" r="2"/>
<circle clip-path="url(#clip802)" style="fill:#009af9; stroke:none; fill-opacity:0" cx="2437.79" cy="1442.74" r="2"/>
<path clip-path="url(#clip800)" d="M1834.94 310.936 L2565.18 310.936 L2565.18 181.336 L1834.94 181.336  Z" fill="#ffffff" fill-rule="evenodd" fill-opacity="1"/>
<polyline clip-path="url(#clip800)" style="stroke:#000000; stroke-linecap:round; stroke-linejoin:round; stroke-width:4; stroke-opacity:1; fill:none" points="1834.94,310.936 2565.18,310.936 2565.18,181.336 1834.94,181.336 1834.94,310.936 "/>
<path clip-path="url(#clip800)" d="M1860.13 272.056 L2011.27 272.056 L2011.27 220.216 L1860.13 220.216 L1860.13 272.056  Z" fill="#009af9" fill-rule="evenodd" fill-opacity="1"/>
<polyline clip-path="url(#clip800)" style="stroke:#000000; stroke-linecap:round; stroke-linejoin:round; stroke-width:15; stroke-opacity:1; fill:none" points="1860.13,272.056 2011.27,272.056 2011.27,220.216 1860.13,220.216 1860.13,272.056 "/>
<path clip-path="url(#clip800)" d="M2056.26 230.294 L2048.33 251.793 L2064.21 251.793 L2056.26 230.294 M2052.96 224.536 L2059.58 224.536 L2076.05 267.736 L2069.97 267.736 L2066.04 256.654 L2046.56 256.654 L2042.63 267.736 L2036.46 267.736 L2052.96 224.536 Z" fill="#000000" fill-rule="evenodd" fill-opacity="1" /><path clip-path="url(#clip800)" d="M2101.66 240.827 L2138.75 240.827 L2138.75 245.688 L2101.66 245.688 L2101.66 240.827 M2101.66 252.632 L2138.75 252.632 L2138.75 257.551 L2101.66 257.551 L2101.66 252.632 Z" fill="#000000" fill-rule="evenodd" fill-opacity="1" /><path clip-path="url(#clip800)" d="M2186.26 229.629 L2171.5 252.69 L2186.26 252.69 L2186.26 229.629 M2184.73 224.536 L2192.08 224.536 L2192.08 252.69 L2198.24 252.69 L2198.24 257.551 L2192.08 257.551 L2192.08 267.736 L2186.26 267.736 L2186.26 257.551 L2166.76 257.551 L2166.76 251.909 L2184.73 224.536 Z" fill="#000000" fill-rule="evenodd" fill-opacity="1" /><path clip-path="url(#clip800)" d="M2220.4 228.385 Q2215.89 228.385 2213.6 232.841 Q2211.35 237.268 2211.35 246.18 Q2211.35 255.063 2213.6 259.519 Q2215.89 263.946 2220.4 263.946 Q2224.95 263.946 2227.2 259.519 Q2229.49 255.063 2229.49 246.18 Q2229.49 237.268 2227.2 232.841 Q2224.95 228.385 2220.4 228.385 M2220.4 223.755 Q2227.67 223.755 2231.49 229.513 Q2235.34 235.242 2235.34 246.18 Q2235.34 257.088 2231.49 262.846 Q2227.67 268.575 2220.4 268.575 Q2213.14 268.575 2209.29 262.846 Q2205.47 257.088 2205.47 246.18 Q2205.47 235.242 2209.29 229.513 Q2213.14 223.755 2220.4 223.755 Z" fill="#000000" fill-rule="evenodd" fill-opacity="1" /><path clip-path="url(#clip800)" d="M2269.48 277.574 L2269.48 281.712 L2238.69 281.712 L2238.69 277.574 L2269.48 277.574 Z" fill="#000000" fill-rule="evenodd" fill-opacity="1" /><path clip-path="url(#clip800)" d="M2287.74 228.385 Q2283.22 228.385 2280.94 232.841 Q2278.68 237.268 2278.68 246.18 Q2278.68 255.063 2280.94 259.519 Q2283.22 263.946 2287.74 263.946 Q2292.28 263.946 2294.54 259.519 Q2296.82 255.063 2296.82 246.18 Q2296.82 237.268 2294.54 232.841 Q2292.28 228.385 2287.74 228.385 M2287.74 223.755 Q2295 223.755 2298.82 229.513 Q2302.67 235.242 2302.67 246.18 Q2302.67 257.088 2298.82 262.846 Q2295 268.575 2287.74 268.575 Q2280.47 268.575 2276.63 262.846 Q2272.81 257.088 2272.81 246.18 Q2272.81 235.242 2276.63 229.513 Q2280.47 223.755 2287.74 223.755 Z" fill="#000000" fill-rule="evenodd" fill-opacity="1" /><path clip-path="url(#clip800)" d="M2325.44 228.385 Q2320.92 228.385 2318.64 232.841 Q2316.38 237.268 2316.38 246.18 Q2316.38 255.063 2318.64 259.519 Q2320.92 263.946 2325.44 263.946 Q2329.98 263.946 2332.24 259.519 Q2334.52 255.063 2334.52 246.18 Q2334.52 237.268 2332.24 232.841 Q2329.98 228.385 2325.44 228.385 M2325.44 223.755 Q2332.7 223.755 2336.52 229.513 Q2340.37 235.242 2340.37 246.18 Q2340.37 257.088 2336.52 262.846 Q2332.7 268.575 2325.44 268.575 Q2318.18 268.575 2314.33 262.846 Q2310.51 257.088 2310.51 246.18 Q2310.51 235.242 2314.33 229.513 Q2318.18 223.755 2325.44 223.755 Z" fill="#000000" fill-rule="evenodd" fill-opacity="1" /><path clip-path="url(#clip800)" d="M2363.14 228.385 Q2358.63 228.385 2356.34 232.841 Q2354.08 237.268 2354.08 246.18 Q2354.08 255.063 2356.34 259.519 Q2358.63 263.946 2363.14 263.946 Q2367.68 263.946 2369.94 259.519 Q2372.23 255.063 2372.23 246.18 Q2372.23 237.268 2369.94 232.841 Q2367.68 228.385 2363.14 228.385 M2363.14 223.755 Q2370.4 223.755 2374.22 229.513 Q2378.07 235.242 2378.07 246.18 Q2378.07 257.088 2374.22 262.846 Q2370.4 268.575 2363.14 268.575 Q2355.88 268.575 2352.03 262.846 Q2348.21 257.088 2348.21 246.18 Q2348.21 235.242 2352.03 229.513 Q2355.88 223.755 2363.14 223.755 Z" fill="#000000" fill-rule="evenodd" fill-opacity="1" /><path clip-path="url(#clip800)" d="M2431.66 241.55 Q2433.66 237.962 2436.43 236.255 Q2439.21 234.548 2442.97 234.548 Q2448.04 234.548 2450.79 238.107 Q2453.53 241.637 2453.53 248.176 L2453.53 267.736 L2448.18 267.736 L2448.18 248.35 Q2448.18 243.691 2446.53 241.434 Q2444.88 239.177 2441.5 239.177 Q2437.36 239.177 2434.96 241.926 Q2432.56 244.675 2432.56 249.42 L2432.56 267.736 L2427.2 267.736 L2427.2 248.35 Q2427.2 243.662 2425.55 241.434 Q2423.9 239.177 2420.46 239.177 Q2416.38 239.177 2413.98 241.955 Q2411.58 244.704 2411.58 249.42 L2411.58 267.736 L2406.23 267.736 L2406.23 235.329 L2411.58 235.329 L2411.58 240.364 Q2413.4 237.383 2415.95 235.966 Q2418.49 234.548 2422 234.548 Q2425.53 234.548 2427.98 236.342 Q2430.47 238.136 2431.66 241.55 Z" fill="#000000" fill-rule="evenodd" fill-opacity="1" /><path clip-path="url(#clip800)" d="M2486.23 224.536 L2501.94 240.653 L2496.13 240.653 L2483.4 229.224 L2470.66 240.653 L2464.85 240.653 L2480.56 224.536 L2486.23 224.536 Z" fill="#000000" fill-rule="evenodd" fill-opacity="1" /><path clip-path="url(#clip800)" d="M2519.59 262.817 L2539.99 262.817 L2539.99 267.736 L2512.56 267.736 L2512.56 262.817 Q2515.89 259.374 2521.62 253.587 Q2527.38 247.771 2528.85 246.093 Q2531.66 242.939 2532.76 240.769 Q2533.89 238.57 2533.89 236.458 Q2533.89 233.014 2531.46 230.844 Q2529.05 228.674 2525.18 228.674 Q2522.43 228.674 2519.36 229.629 Q2516.32 230.584 2512.85 232.522 L2512.85 226.62 Q2516.38 225.202 2519.45 224.478 Q2522.52 223.755 2525.06 223.755 Q2531.77 223.755 2535.77 227.112 Q2539.76 230.468 2539.76 236.081 Q2539.76 238.743 2538.75 241.145 Q2537.76 243.518 2535.13 246.758 Q2534.41 247.598 2530.53 251.619 Q2526.65 255.613 2519.59 262.817 Z" fill="#000000" fill-rule="evenodd" fill-opacity="1" /></svg>
