<?xml version="1.0" encoding="utf-8"?>
<svg xmlns="http://www.w3.org/2000/svg" xmlns:xlink="http://www.w3.org/1999/xlink" width="672" height="480" viewBox="0 0 2688 1920">
<defs>
  <clipPath id="clip980">
    <rect x="0" y="0" width="2688" height="1920"/>
  </clipPath>
</defs>
<path clip-path="url(#clip980)" d="M0 1920 L2688 1920 L2688 0 L0 0  Z" fill="#ffffff" fill-rule="evenodd" fill-opacity="1"/>
<defs>
  <clipPath id="clip981">
    <rect x="537" y="0" width="1883" height="1883"/>
  </clipPath>
</defs>
<path clip-path="url(#clip980)" d="M346.973 1734.12 L2640.76 1734.12 L2640.76 127.792 L346.973 127.792  Z" fill="#ffffff" fill-rule="evenodd" fill-opacity="1"/>
<defs>
  <clipPath id="clip982">
    <rect x="346" y="127" width="2295" height="1607"/>
  </clipPath>
</defs>
<polyline clip-path="url(#clip982)" style="stroke:#5f9ea0; stroke-linecap:round; stroke-linejoin:round; stroke-width:8; stroke-opacity:0.4; fill:none" stroke-dasharray="32, 16, 4, 16" points="411.892,1734.12 411.892,127.792 "/>
<polyline clip-path="url(#clip982)" style="stroke:#5f9ea0; stroke-linecap:round; stroke-linejoin:round; stroke-width:8; stroke-opacity:0.4; fill:none" stroke-dasharray="32, 16, 4, 16" points="917.77,1734.12 917.77,127.792 "/>
<polyline clip-path="url(#clip982)" style="stroke:#5f9ea0; stroke-linecap:round; stroke-linejoin:round; stroke-width:8; stroke-opacity:0.4; fill:none" stroke-dasharray="32, 16, 4, 16" points="1423.65,1734.12 1423.65,127.792 "/>
<polyline clip-path="url(#clip982)" style="stroke:#5f9ea0; stroke-linecap:round; stroke-linejoin:round; stroke-width:8; stroke-opacity:0.4; fill:none" stroke-dasharray="32, 16, 4, 16" points="1929.53,1734.12 1929.53,127.792 "/>
<polyline clip-path="url(#clip982)" style="stroke:#5f9ea0; stroke-linecap:round; stroke-linejoin:round; stroke-width:8; stroke-opacity:0.4; fill:none" stroke-dasharray="32, 16, 4, 16" points="2435.41,1734.12 2435.41,127.792 "/>
<polyline clip-path="url(#clip980)" style="stroke:#000000; stroke-linecap:round; stroke-linejoin:round; stroke-width:4; stroke-opacity:1; fill:none" points="346.973,1734.12 2640.76,1734.12 "/>
<polyline clip-path="url(#clip980)" style="stroke:#000000; stroke-linecap:round; stroke-linejoin:round; stroke-width:4; stroke-opacity:1; fill:none" points="346.973,127.792 2640.76,127.792 "/>
<polyline clip-path="url(#clip980)" style="stroke:#000000; stroke-linecap:round; stroke-linejoin:round; stroke-width:4; stroke-opacity:1; fill:none" points="411.892,1734.12 411.892,1715.22 "/>
<polyline clip-path="url(#clip980)" style="stroke:#000000; stroke-linecap:round; stroke-linejoin:round; stroke-width:4; stroke-opacity:1; fill:none" points="917.77,1734.12 917.77,1715.22 "/>
<polyline clip-path="url(#clip980)" style="stroke:#000000; stroke-linecap:round; stroke-linejoin:round; stroke-width:4; stroke-opacity:1; fill:none" points="1423.65,1734.12 1423.65,1715.22 "/>
<polyline clip-path="url(#clip980)" style="stroke:#000000; stroke-linecap:round; stroke-linejoin:round; stroke-width:4; stroke-opacity:1; fill:none" points="1929.53,1734.12 1929.53,1715.22 "/>
<polyline clip-path="url(#clip980)" style="stroke:#000000; stroke-linecap:round; stroke-linejoin:round; stroke-width:4; stroke-opacity:1; fill:none" points="2435.41,1734.12 2435.41,1715.22 "/>
<path clip-path="url(#clip980)" d="M389.276 1767.34 Q385.665 1767.34 383.836 1770.9 Q382.031 1774.45 382.031 1781.58 Q382.031 1788.68 383.836 1792.25 Q385.665 1795.79 389.276 1795.79 Q392.91 1795.79 394.716 1792.25 Q396.544 1788.68 396.544 1781.58 Q396.544 1774.45 394.716 1770.9 Q392.91 1767.34 389.276 1767.34 M389.276 1763.64 Q395.086 1763.64 398.142 1768.24 Q401.22 1772.83 401.22 1781.58 Q401.22 1790.3 398.142 1794.91 Q395.086 1799.49 389.276 1799.49 Q383.466 1799.49 380.387 1794.91 Q377.332 1790.3 377.332 1781.58 Q377.332 1772.83 380.387 1768.24 Q383.466 1763.64 389.276 1763.64 Z" fill="#000000" fill-rule="evenodd" fill-opacity="1" /><path clip-path="url(#clip980)" d="M409.438 1792.94 L414.322 1792.94 L414.322 1798.82 L409.438 1798.82 L409.438 1792.94 Z" fill="#000000" fill-rule="evenodd" fill-opacity="1" /><path clip-path="url(#clip980)" d="M434.507 1767.34 Q430.896 1767.34 429.067 1770.9 Q427.262 1774.45 427.262 1781.58 Q427.262 1788.68 429.067 1792.25 Q430.896 1795.79 434.507 1795.79 Q438.141 1795.79 439.947 1792.25 Q441.776 1788.68 441.776 1781.58 Q441.776 1774.45 439.947 1770.9 Q438.141 1767.34 434.507 1767.34 M434.507 1763.64 Q440.317 1763.64 443.373 1768.24 Q446.452 1772.83 446.452 1781.58 Q446.452 1790.3 443.373 1794.91 Q440.317 1799.49 434.507 1799.49 Q428.697 1799.49 425.618 1794.91 Q422.563 1790.3 422.563 1781.58 Q422.563 1772.83 425.618 1768.24 Q428.697 1763.64 434.507 1763.64 Z" fill="#000000" fill-rule="evenodd" fill-opacity="1" /><path clip-path="url(#clip980)" d="M889.506 1794.89 L905.826 1794.89 L905.826 1798.82 L883.881 1798.82 L883.881 1794.89 Q886.543 1792.13 891.127 1787.5 Q895.733 1782.85 896.914 1781.51 Q899.159 1778.98 900.039 1777.25 Q900.942 1775.49 900.942 1773.8 Q900.942 1771.04 898.997 1769.31 Q897.076 1767.57 893.974 1767.57 Q891.775 1767.57 889.321 1768.34 Q886.891 1769.1 884.113 1770.65 L884.113 1765.93 Q886.937 1764.79 889.391 1764.21 Q891.844 1763.64 893.881 1763.64 Q899.252 1763.64 902.446 1766.32 Q905.641 1769.01 905.641 1773.5 Q905.641 1775.63 904.83 1777.55 Q904.043 1779.45 901.937 1782.04 Q901.358 1782.71 898.256 1785.93 Q895.155 1789.12 889.506 1794.89 Z" fill="#000000" fill-rule="evenodd" fill-opacity="1" /><path clip-path="url(#clip980)" d="M915.641 1792.94 L920.525 1792.94 L920.525 1798.82 L915.641 1798.82 L915.641 1792.94 Z" fill="#000000" fill-rule="evenodd" fill-opacity="1" /><path clip-path="url(#clip980)" d="M930.756 1764.26 L949.113 1764.26 L949.113 1768.2 L935.039 1768.2 L935.039 1776.67 Q936.057 1776.32 937.076 1776.16 Q938.094 1775.97 939.113 1775.97 Q944.9 1775.97 948.279 1779.15 Q951.659 1782.32 951.659 1787.73 Q951.659 1793.31 948.187 1796.41 Q944.714 1799.49 938.395 1799.49 Q936.219 1799.49 933.951 1799.12 Q931.705 1798.75 929.298 1798.01 L929.298 1793.31 Q931.381 1794.45 933.603 1795 Q935.826 1795.56 938.302 1795.56 Q942.307 1795.56 944.645 1793.45 Q946.983 1791.34 946.983 1787.73 Q946.983 1784.12 944.645 1782.02 Q942.307 1779.91 938.302 1779.91 Q936.427 1779.91 934.552 1780.33 Q932.701 1780.74 930.756 1781.62 L930.756 1764.26 Z" fill="#000000" fill-rule="evenodd" fill-opacity="1" /><path clip-path="url(#clip980)" d="M1390.81 1764.26 L1409.17 1764.26 L1409.17 1768.2 L1395.1 1768.2 L1395.1 1776.67 Q1396.11 1776.32 1397.13 1776.16 Q1398.15 1775.97 1399.17 1775.97 Q1404.96 1775.97 1408.34 1779.15 Q1411.72 1782.32 1411.72 1787.73 Q1411.72 1793.31 1408.24 1796.41 Q1404.77 1799.49 1398.45 1799.49 Q1396.28 1799.49 1394.01 1799.12 Q1391.76 1798.75 1389.35 1798.01 L1389.35 1793.31 Q1391.44 1794.45 1393.66 1795 Q1395.88 1795.56 1398.36 1795.56 Q1402.36 1795.56 1404.7 1793.45 Q1407.04 1791.34 1407.04 1787.73 Q1407.04 1784.12 1404.7 1782.02 Q1402.36 1779.91 1398.36 1779.91 Q1396.48 1779.91 1394.61 1780.33 Q1392.76 1780.74 1390.81 1781.62 L1390.81 1764.26 Z" fill="#000000" fill-rule="evenodd" fill-opacity="1" /><path clip-path="url(#clip980)" d="M1420.93 1792.94 L1425.81 1792.94 L1425.81 1798.82 L1420.93 1798.82 L1420.93 1792.94 Z" fill="#000000" fill-rule="evenodd" fill-opacity="1" /><path clip-path="url(#clip980)" d="M1446 1767.34 Q1442.39 1767.34 1440.56 1770.9 Q1438.75 1774.45 1438.75 1781.58 Q1438.75 1788.68 1440.56 1792.25 Q1442.39 1795.79 1446 1795.79 Q1449.63 1795.79 1451.44 1792.25 Q1453.27 1788.68 1453.27 1781.58 Q1453.27 1774.45 1451.44 1770.9 Q1449.63 1767.34 1446 1767.34 M1446 1763.64 Q1451.81 1763.64 1454.86 1768.24 Q1457.94 1772.83 1457.94 1781.58 Q1457.94 1790.3 1454.86 1794.91 Q1451.81 1799.49 1446 1799.49 Q1440.19 1799.49 1437.11 1794.91 Q1434.05 1790.3 1434.05 1781.58 Q1434.05 1772.83 1437.11 1768.24 Q1440.19 1763.64 1446 1763.64 Z" fill="#000000" fill-rule="evenodd" fill-opacity="1" /><path clip-path="url(#clip980)" d="M1895.85 1764.26 L1918.07 1764.26 L1918.07 1766.25 L1905.52 1798.82 L1900.64 1798.82 L1912.44 1768.2 L1895.85 1768.2 L1895.85 1764.26 Z" fill="#000000" fill-rule="evenodd" fill-opacity="1" /><path clip-path="url(#clip980)" d="M1927.19 1792.94 L1932.07 1792.94 L1932.07 1798.82 L1927.19 1798.82 L1927.19 1792.94 Z" fill="#000000" fill-rule="evenodd" fill-opacity="1" /><path clip-path="url(#clip980)" d="M1942.3 1764.26 L1960.66 1764.26 L1960.66 1768.2 L1946.59 1768.2 L1946.59 1776.67 Q1947.61 1776.32 1948.62 1776.16 Q1949.64 1775.97 1950.66 1775.97 Q1956.45 1775.97 1959.83 1779.15 Q1963.21 1782.32 1963.21 1787.73 Q1963.21 1793.31 1959.74 1796.41 Q1956.26 1799.49 1949.94 1799.49 Q1947.77 1799.49 1945.5 1799.12 Q1943.25 1798.75 1940.85 1798.01 L1940.85 1793.31 Q1942.93 1794.45 1945.15 1795 Q1947.37 1795.56 1949.85 1795.56 Q1953.86 1795.56 1956.19 1793.45 Q1958.53 1791.34 1958.53 1787.73 Q1958.53 1784.12 1956.19 1782.02 Q1953.86 1779.91 1949.85 1779.91 Q1947.98 1779.91 1946.1 1780.33 Q1944.25 1780.74 1942.3 1781.62 L1942.3 1764.26 Z" fill="#000000" fill-rule="evenodd" fill-opacity="1" /><path clip-path="url(#clip980)" d="M2387.48 1794.89 L2395.12 1794.89 L2395.12 1768.52 L2386.81 1770.19 L2386.81 1765.93 L2395.07 1764.26 L2399.75 1764.26 L2399.75 1794.89 L2407.38 1794.89 L2407.38 1798.82 L2387.48 1798.82 L2387.48 1794.89 Z" fill="#000000" fill-rule="evenodd" fill-opacity="1" /><path clip-path="url(#clip980)" d="M2426.83 1767.34 Q2423.22 1767.34 2421.39 1770.9 Q2419.58 1774.45 2419.58 1781.58 Q2419.58 1788.68 2421.39 1792.25 Q2423.22 1795.79 2426.83 1795.79 Q2430.46 1795.79 2432.27 1792.25 Q2434.1 1788.68 2434.1 1781.58 Q2434.1 1774.45 2432.27 1770.9 Q2430.46 1767.34 2426.83 1767.34 M2426.83 1763.64 Q2432.64 1763.64 2435.7 1768.24 Q2438.77 1772.83 2438.77 1781.58 Q2438.77 1790.3 2435.7 1794.91 Q2432.64 1799.49 2426.83 1799.49 Q2421.02 1799.49 2417.94 1794.91 Q2414.88 1790.3 2414.88 1781.58 Q2414.88 1772.83 2417.94 1768.24 Q2421.02 1763.64 2426.83 1763.64 Z" fill="#000000" fill-rule="evenodd" fill-opacity="1" /><path clip-path="url(#clip980)" d="M2446.99 1792.94 L2451.88 1792.94 L2451.88 1798.82 L2446.99 1798.82 L2446.99 1792.94 Z" fill="#000000" fill-rule="evenodd" fill-opacity="1" /><path clip-path="url(#clip980)" d="M2472.06 1767.34 Q2468.45 1767.34 2466.62 1770.9 Q2464.82 1774.45 2464.82 1781.58 Q2464.82 1788.68 2466.62 1792.25 Q2468.45 1795.79 2472.06 1795.79 Q2475.69 1795.79 2477.5 1792.25 Q2479.33 1788.68 2479.33 1781.58 Q2479.33 1774.45 2477.5 1770.9 Q2475.69 1767.34 2472.06 1767.34 M2472.06 1763.64 Q2477.87 1763.64 2480.93 1768.24 Q2484 1772.83 2484 1781.58 Q2484 1790.3 2480.93 1794.91 Q2477.87 1799.49 2472.06 1799.49 Q2466.25 1799.49 2463.17 1794.91 Q2460.12 1790.3 2460.12 1781.58 Q2460.12 1772.83 2463.17 1768.24 Q2466.25 1763.64 2472.06 1763.64 Z" fill="#000000" fill-rule="evenodd" fill-opacity="1" /><path clip-path="url(#clip980)" d="M1312.01 1835.78 L1352.21 1835.78 L1352.21 1841.19 L1335.34 1841.19 L1335.34 1883.3 L1328.88 1883.3 L1328.88 1841.19 L1312.01 1841.19 L1312.01 1835.78 Z" fill="#000000" fill-rule="evenodd" fill-opacity="1" /><path clip-path="url(#clip980)" d="M1356.16 1847.65 L1362.01 1847.65 L1362.01 1883.3 L1356.16 1883.3 L1356.16 1847.65 M1356.16 1833.78 L1362.01 1833.78 L1362.01 1841.19 L1356.16 1841.19 L1356.16 1833.78 Z" fill="#000000" fill-rule="evenodd" fill-opacity="1" /><path clip-path="url(#clip980)" d="M1402.02 1854.5 Q1404.22 1850.55 1407.28 1848.67 Q1410.33 1846.79 1414.47 1846.79 Q1420.04 1846.79 1423.06 1850.71 Q1426.09 1854.59 1426.09 1861.78 L1426.09 1883.3 L1420.2 1883.3 L1420.2 1861.98 Q1420.2 1856.85 1418.38 1854.37 Q1416.57 1851.89 1412.85 1851.89 Q1408.29 1851.89 1405.65 1854.91 Q1403.01 1857.93 1403.01 1863.15 L1403.01 1883.3 L1397.12 1883.3 L1397.12 1861.98 Q1397.12 1856.82 1395.31 1854.37 Q1393.49 1851.89 1389.71 1851.89 Q1385.22 1851.89 1382.58 1854.94 Q1379.93 1857.97 1379.93 1863.15 L1379.93 1883.3 L1374.05 1883.3 L1374.05 1847.65 L1379.93 1847.65 L1379.93 1853.19 Q1381.94 1849.91 1384.74 1848.35 Q1387.54 1846.79 1391.39 1846.79 Q1395.28 1846.79 1397.98 1848.77 Q1400.72 1850.74 1402.02 1854.5 Z" fill="#000000" fill-rule="evenodd" fill-opacity="1" /><path clip-path="url(#clip980)" d="M1468.26 1864.01 L1468.26 1866.88 L1441.33 1866.88 Q1441.71 1872.92 1444.96 1876.11 Q1448.24 1879.26 1454.06 1879.26 Q1457.44 1879.26 1460.59 1878.43 Q1463.77 1877.6 1466.89 1875.95 L1466.89 1881.49 Q1463.74 1882.82 1460.43 1883.52 Q1457.12 1884.22 1453.71 1884.22 Q1445.18 1884.22 1440.19 1879.26 Q1435.22 1874.29 1435.22 1865.83 Q1435.22 1857.07 1439.93 1851.95 Q1444.67 1846.79 1452.69 1846.79 Q1459.89 1846.79 1464.06 1851.44 Q1468.26 1856.06 1468.26 1864.01 M1462.4 1862.29 Q1462.34 1857.49 1459.7 1854.62 Q1457.09 1851.76 1452.76 1851.76 Q1447.86 1851.76 1444.9 1854.53 Q1441.97 1857.3 1441.52 1862.33 L1462.4 1862.29 Z" fill="#000000" fill-rule="evenodd" fill-opacity="1" /><path clip-path="url(#clip980)" d="M1512.66 1833.84 Q1508.39 1841.16 1506.33 1848.32 Q1504.26 1855.48 1504.26 1862.84 Q1504.26 1870.19 1506.33 1877.41 Q1508.43 1884.61 1512.66 1891.89 L1507.57 1891.89 Q1502.79 1884.41 1500.41 1877.19 Q1498.05 1869.96 1498.05 1862.84 Q1498.05 1855.74 1500.41 1848.54 Q1502.76 1841.35 1507.57 1833.84 L1512.66 1833.84 Z" fill="#000000" fill-rule="evenodd" fill-opacity="1" /><path clip-path="url(#clip980)" d="M1517.75 1835.78 L1524.66 1835.78 L1537.84 1855.32 L1550.92 1835.78 L1557.82 1835.78 L1541.02 1860.67 L1541.02 1883.3 L1534.56 1883.3 L1534.56 1860.67 L1517.75 1835.78 Z" fill="#000000" fill-rule="evenodd" fill-opacity="1" /><path clip-path="url(#clip980)" d="M1585.67 1864.01 L1585.67 1866.88 L1558.75 1866.88 Q1559.13 1872.92 1562.38 1876.11 Q1565.65 1879.26 1571.48 1879.26 Q1574.85 1879.26 1578 1878.43 Q1581.19 1877.6 1584.31 1875.95 L1584.31 1881.49 Q1581.15 1882.82 1577.84 1883.52 Q1574.53 1884.22 1571.13 1884.22 Q1562.6 1884.22 1557.6 1879.26 Q1552.64 1874.29 1552.64 1865.83 Q1552.64 1857.07 1557.35 1851.95 Q1562.09 1846.79 1570.11 1846.79 Q1577.3 1846.79 1581.47 1851.44 Q1585.67 1856.06 1585.67 1864.01 M1579.82 1862.29 Q1579.75 1857.49 1577.11 1854.62 Q1574.5 1851.76 1570.17 1851.76 Q1565.27 1851.76 1562.31 1854.53 Q1559.38 1857.3 1558.94 1862.33 L1579.82 1862.29 Z" fill="#000000" fill-rule="evenodd" fill-opacity="1" /><path clip-path="url(#clip980)" d="M1611.49 1865.38 Q1604.39 1865.38 1601.65 1867 Q1598.91 1868.63 1598.91 1872.54 Q1598.91 1875.66 1600.95 1877.51 Q1603.02 1879.32 1606.55 1879.32 Q1611.42 1879.32 1614.35 1875.88 Q1617.31 1872.42 1617.31 1866.69 L1617.31 1865.38 L1611.49 1865.38 M1623.17 1862.96 L1623.17 1883.3 L1617.31 1883.3 L1617.31 1877.89 Q1615.31 1881.14 1612.31 1882.7 Q1609.32 1884.22 1604.99 1884.22 Q1599.52 1884.22 1596.27 1881.17 Q1593.06 1878.08 1593.06 1872.92 Q1593.06 1866.91 1597.07 1863.85 Q1601.11 1860.8 1609.1 1860.8 L1617.31 1860.8 L1617.31 1860.23 Q1617.31 1856.18 1614.64 1853.99 Q1612 1851.76 1607.19 1851.76 Q1604.13 1851.76 1601.24 1852.49 Q1598.34 1853.22 1595.67 1854.69 L1595.67 1849.28 Q1598.88 1848.03 1601.91 1847.43 Q1604.93 1846.79 1607.79 1846.79 Q1615.53 1846.79 1619.35 1850.8 Q1623.17 1854.81 1623.17 1862.96 Z" fill="#000000" fill-rule="evenodd" fill-opacity="1" /><path clip-path="url(#clip980)" d="M1655.89 1853.13 Q1654.9 1852.55 1653.72 1852.3 Q1652.58 1852.01 1651.18 1852.01 Q1646.21 1852.01 1643.54 1855.26 Q1640.9 1858.47 1640.9 1864.52 L1640.9 1883.3 L1635.01 1883.3 L1635.01 1847.65 L1640.9 1847.65 L1640.9 1853.19 Q1642.74 1849.94 1645.7 1848.39 Q1648.66 1846.79 1652.9 1846.79 Q1653.5 1846.79 1654.23 1846.89 Q1654.96 1846.95 1655.86 1847.11 L1655.89 1853.13 Z" fill="#000000" fill-rule="evenodd" fill-opacity="1" /><path clip-path="url(#clip980)" d="M1661.11 1833.84 L1666.2 1833.84 Q1670.97 1841.35 1673.33 1848.54 Q1675.72 1855.74 1675.72 1862.84 Q1675.72 1869.96 1673.33 1877.19 Q1670.97 1884.41 1666.2 1891.89 L1661.11 1891.89 Q1665.34 1884.61 1667.41 1877.41 Q1669.51 1870.19 1669.51 1862.84 Q1669.51 1855.48 1667.41 1848.32 Q1665.34 1841.16 1661.11 1833.84 Z" fill="#000000" fill-rule="evenodd" fill-opacity="1" /><polyline clip-path="url(#clip982)" style="stroke:#5f9ea0; stroke-linecap:round; stroke-linejoin:round; stroke-width:8; stroke-opacity:0.4; fill:none" stroke-dasharray="32, 16, 4, 16" points="346.973,1688.65 2640.76,1688.65 "/>
<polyline clip-path="url(#clip982)" style="stroke:#5f9ea0; stroke-linecap:round; stroke-linejoin:round; stroke-width:8; stroke-opacity:0.4; fill:none" stroke-dasharray="32, 16, 4, 16" points="346.973,1317.18 2640.76,1317.18 "/>
<polyline clip-path="url(#clip982)" style="stroke:#5f9ea0; stroke-linecap:round; stroke-linejoin:round; stroke-width:8; stroke-opacity:0.4; fill:none" stroke-dasharray="32, 16, 4, 16" points="346.973,945.71 2640.76,945.71 "/>
<polyline clip-path="url(#clip982)" style="stroke:#5f9ea0; stroke-linecap:round; stroke-linejoin:round; stroke-width:8; stroke-opacity:0.4; fill:none" stroke-dasharray="32, 16, 4, 16" points="346.973,574.238 2640.76,574.238 "/>
<polyline clip-path="url(#clip982)" style="stroke:#5f9ea0; stroke-linecap:round; stroke-linejoin:round; stroke-width:8; stroke-opacity:0.4; fill:none" stroke-dasharray="32, 16, 4, 16" points="346.973,202.766 2640.76,202.766 "/>
<polyline clip-path="url(#clip980)" style="stroke:#000000; stroke-linecap:round; stroke-linejoin:round; stroke-width:4; stroke-opacity:1; fill:none" points="346.973,1734.12 346.973,127.792 "/>
<polyline clip-path="url(#clip980)" style="stroke:#000000; stroke-linecap:round; stroke-linejoin:round; stroke-width:4; stroke-opacity:1; fill:none" points="2640.76,1734.12 2640.76,127.792 "/>
<polyline clip-path="url(#clip980)" style="stroke:#000000; stroke-linecap:round; stroke-linejoin:round; stroke-width:4; stroke-opacity:1; fill:none" points="346.973,1688.65 365.871,1688.65 "/>
<polyline clip-path="url(#clip980)" style="stroke:#000000; stroke-linecap:round; stroke-linejoin:round; stroke-width:4; stroke-opacity:1; fill:none" points="346.973,1317.18 365.871,1317.18 "/>
<polyline clip-path="url(#clip980)" style="stroke:#000000; stroke-linecap:round; stroke-linejoin:round; stroke-width:4; stroke-opacity:1; fill:none" points="346.973,945.71 365.871,945.71 "/>
<polyline clip-path="url(#clip980)" style="stroke:#000000; stroke-linecap:round; stroke-linejoin:round; stroke-width:4; stroke-opacity:1; fill:none" points="346.973,574.238 365.871,574.238 "/>
<polyline clip-path="url(#clip980)" style="stroke:#000000; stroke-linecap:round; stroke-linejoin:round; stroke-width:4; stroke-opacity:1; fill:none" points="346.973,202.766 365.871,202.766 "/>
<path clip-path="url(#clip980)" d="M294.709 1674.45 Q291.098 1674.45 289.269 1678.02 Q287.464 1681.56 287.464 1688.69 Q287.464 1695.8 289.269 1699.36 Q291.098 1702.9 294.709 1702.9 Q298.343 1702.9 300.149 1699.36 Q301.977 1695.8 301.977 1688.69 Q301.977 1681.56 300.149 1678.02 Q298.343 1674.45 294.709 1674.45 M294.709 1670.75 Q300.519 1670.75 303.575 1675.36 Q306.653 1679.94 306.653 1688.69 Q306.653 1697.42 303.575 1702.02 Q300.519 1706.61 294.709 1706.61 Q288.899 1706.61 285.82 1702.02 Q282.764 1697.42 282.764 1688.69 Q282.764 1679.94 285.82 1675.36 Q288.899 1670.75 294.709 1670.75 Z" fill="#000000" fill-rule="evenodd" fill-opacity="1" /><path clip-path="url(#clip980)" d="M122.997 1336.98 L139.316 1336.98 L139.316 1340.91 L117.372 1340.91 L117.372 1336.98 Q120.034 1334.22 124.617 1329.59 Q129.224 1324.94 130.404 1323.6 Q132.65 1321.07 133.529 1319.34 Q134.432 1317.58 134.432 1315.89 Q134.432 1313.13 132.488 1311.4 Q130.566 1309.66 127.464 1309.66 Q125.265 1309.66 122.812 1310.42 Q120.381 1311.19 117.603 1312.74 L117.603 1308.02 Q120.427 1306.88 122.881 1306.3 Q125.335 1305.73 127.372 1305.73 Q132.742 1305.73 135.937 1308.41 Q139.131 1311.1 139.131 1315.59 Q139.131 1317.72 138.321 1319.64 Q137.534 1321.54 135.427 1324.13 Q134.849 1324.8 131.747 1328.02 Q128.645 1331.21 122.997 1336.98 Z" fill="#000000" fill-rule="evenodd" fill-opacity="1" /><path clip-path="url(#clip980)" d="M149.131 1335.03 L154.015 1335.03 L154.015 1340.91 L149.131 1340.91 L149.131 1335.03 Z" fill="#000000" fill-rule="evenodd" fill-opacity="1" /><path clip-path="url(#clip980)" d="M174.2 1309.43 Q170.589 1309.43 168.76 1312.99 Q166.955 1316.54 166.955 1323.66 Q166.955 1330.77 168.76 1334.34 Q170.589 1337.88 174.2 1337.88 Q177.834 1337.88 179.64 1334.34 Q181.469 1330.77 181.469 1323.66 Q181.469 1316.54 179.64 1312.99 Q177.834 1309.43 174.2 1309.43 M174.2 1305.73 Q180.01 1305.73 183.066 1310.33 Q186.145 1314.91 186.145 1323.66 Q186.145 1332.39 183.066 1337 Q180.01 1341.58 174.2 1341.58 Q168.39 1341.58 165.311 1337 Q162.256 1332.39 162.256 1323.66 Q162.256 1314.91 165.311 1310.33 Q168.39 1305.73 174.2 1305.73 Z" fill="#000000" fill-rule="evenodd" fill-opacity="1" /><path clip-path="url(#clip980)" d="M222.533 1315.45 L211.955 1326.07 L222.533 1336.65 L219.779 1339.45 L209.154 1328.83 L198.529 1339.45 L195.797 1336.65 L206.353 1326.07 L195.797 1315.45 L198.529 1312.65 L209.154 1323.27 L219.779 1312.65 L222.533 1315.45 Z" fill="#000000" fill-rule="evenodd" fill-opacity="1" /><path clip-path="url(#clip980)" d="M234.894 1336.98 L242.533 1336.98 L242.533 1310.61 L234.223 1312.28 L234.223 1308.02 L242.487 1306.35 L247.163 1306.35 L247.163 1336.98 L254.802 1336.98 L254.802 1340.91 L234.894 1340.91 L234.894 1336.98 Z" fill="#000000" fill-rule="evenodd" fill-opacity="1" /><path clip-path="url(#clip980)" d="M274.246 1309.43 Q270.635 1309.43 268.806 1312.99 Q267.001 1316.54 267.001 1323.66 Q267.001 1330.77 268.806 1334.34 Q270.635 1337.88 274.246 1337.88 Q277.88 1337.88 279.686 1334.34 Q281.514 1330.77 281.514 1323.66 Q281.514 1316.54 279.686 1312.99 Q277.88 1309.43 274.246 1309.43 M274.246 1305.73 Q280.056 1305.73 283.112 1310.33 Q286.19 1314.91 286.19 1323.66 Q286.19 1332.39 283.112 1337 Q280.056 1341.58 274.246 1341.58 Q268.436 1341.58 265.357 1337 Q262.302 1332.39 262.302 1323.66 Q262.302 1314.91 265.357 1310.33 Q268.436 1305.73 274.246 1305.73 Z" fill="#000000" fill-rule="evenodd" fill-opacity="1" /><path clip-path="url(#clip980)" d="M298.867 1288.73 L289.275 1303.72 L298.867 1303.72 L298.867 1288.73 M297.87 1285.42 L302.647 1285.42 L302.647 1303.72 L306.653 1303.72 L306.653 1306.88 L302.647 1306.88 L302.647 1313.5 L298.867 1313.5 L298.867 1306.88 L286.19 1306.88 L286.19 1303.21 L297.87 1285.42 Z" fill="#000000" fill-rule="evenodd" fill-opacity="1" /><path clip-path="url(#clip980)" d="M131.816 938.952 L120.011 957.401 L131.816 957.401 L131.816 938.952 M130.589 934.878 L136.469 934.878 L136.469 957.401 L141.399 957.401 L141.399 961.29 L136.469 961.29 L136.469 969.438 L131.816 969.438 L131.816 961.29 L116.214 961.29 L116.214 956.776 L130.589 934.878 Z" fill="#000000" fill-rule="evenodd" fill-opacity="1" /><path clip-path="url(#clip980)" d="M149.131 963.558 L154.015 963.558 L154.015 969.438 L149.131 969.438 L149.131 963.558 Z" fill="#000000" fill-rule="evenodd" fill-opacity="1" /><path clip-path="url(#clip980)" d="M174.2 937.957 Q170.589 937.957 168.76 941.521 Q166.955 945.063 166.955 952.193 Q166.955 959.299 168.76 962.864 Q170.589 966.405 174.2 966.405 Q177.834 966.405 179.64 962.864 Q181.469 959.299 181.469 952.193 Q181.469 945.063 179.64 941.521 Q177.834 937.957 174.2 937.957 M174.2 934.253 Q180.01 934.253 183.066 938.859 Q186.145 943.443 186.145 952.193 Q186.145 960.919 183.066 965.526 Q180.01 970.109 174.2 970.109 Q168.39 970.109 165.311 965.526 Q162.256 960.919 162.256 952.193 Q162.256 943.443 165.311 938.859 Q168.39 934.253 174.2 934.253 Z" fill="#000000" fill-rule="evenodd" fill-opacity="1" /><path clip-path="url(#clip980)" d="M222.533 943.975 L211.955 954.6 L222.533 965.179 L219.779 967.98 L209.154 957.355 L198.529 967.98 L195.797 965.179 L206.353 954.6 L195.797 943.975 L198.529 941.174 L209.154 951.799 L219.779 941.174 L222.533 943.975 Z" fill="#000000" fill-rule="evenodd" fill-opacity="1" /><path clip-path="url(#clip980)" d="M234.894 965.503 L242.533 965.503 L242.533 939.137 L234.223 940.804 L234.223 936.545 L242.487 934.878 L247.163 934.878 L247.163 965.503 L254.802 965.503 L254.802 969.438 L234.894 969.438 L234.894 965.503 Z" fill="#000000" fill-rule="evenodd" fill-opacity="1" /><path clip-path="url(#clip980)" d="M274.246 937.957 Q270.635 937.957 268.806 941.521 Q267.001 945.063 267.001 952.193 Q267.001 959.299 268.806 962.864 Q270.635 966.405 274.246 966.405 Q277.88 966.405 279.686 962.864 Q281.514 959.299 281.514 952.193 Q281.514 945.063 279.686 941.521 Q277.88 937.957 274.246 937.957 M274.246 934.253 Q280.056 934.253 283.112 938.859 Q286.19 943.443 286.19 952.193 Q286.19 960.919 283.112 965.526 Q280.056 970.109 274.246 970.109 Q268.436 970.109 265.357 965.526 Q262.302 960.919 262.302 952.193 Q262.302 943.443 265.357 938.859 Q268.436 934.253 274.246 934.253 Z" fill="#000000" fill-rule="evenodd" fill-opacity="1" /><path clip-path="url(#clip980)" d="M298.867 917.258 L289.275 932.247 L298.867 932.247 L298.867 917.258 M297.87 913.947 L302.647 913.947 L302.647 932.247 L306.653 932.247 L306.653 935.407 L302.647 935.407 L302.647 942.027 L298.867 942.027 L298.867 935.407 L286.19 935.407 L286.19 931.74 L297.87 913.947 Z" fill="#000000" fill-rule="evenodd" fill-opacity="1" /><path clip-path="url(#clip980)" d="M129.548 578.822 Q126.4 578.822 124.548 580.975 Q122.719 583.128 122.719 586.878 Q122.719 590.604 124.548 592.78 Q126.4 594.933 129.548 594.933 Q132.696 594.933 134.525 592.78 Q136.376 590.604 136.376 586.878 Q136.376 583.128 134.525 580.975 Q132.696 578.822 129.548 578.822 M138.83 564.169 L138.83 568.429 Q137.071 567.595 135.265 567.155 Q133.483 566.716 131.724 566.716 Q127.094 566.716 124.64 569.841 Q122.21 572.966 121.863 579.285 Q123.228 577.271 125.288 576.206 Q127.349 575.118 129.825 575.118 Q135.034 575.118 138.043 578.29 Q141.075 581.438 141.075 586.878 Q141.075 592.202 137.927 595.419 Q134.779 598.637 129.548 598.637 Q123.552 598.637 120.381 594.053 Q117.21 589.447 117.21 580.72 Q117.21 572.526 121.099 567.665 Q124.988 562.78 131.538 562.78 Q133.298 562.78 135.08 563.128 Q136.886 563.475 138.83 564.169 Z" fill="#000000" fill-rule="evenodd" fill-opacity="1" /><path clip-path="url(#clip980)" d="M149.131 592.086 L154.015 592.086 L154.015 597.965 L149.131 597.965 L149.131 592.086 Z" fill="#000000" fill-rule="evenodd" fill-opacity="1" /><path clip-path="url(#clip980)" d="M174.2 566.484 Q170.589 566.484 168.76 570.049 Q166.955 573.591 166.955 580.72 Q166.955 587.827 168.76 591.391 Q170.589 594.933 174.2 594.933 Q177.834 594.933 179.64 591.391 Q181.469 587.827 181.469 580.72 Q181.469 573.591 179.64 570.049 Q177.834 566.484 174.2 566.484 M174.2 562.78 Q180.01 562.78 183.066 567.387 Q186.145 571.97 186.145 580.72 Q186.145 589.447 183.066 594.053 Q180.01 598.637 174.2 598.637 Q168.39 598.637 165.311 594.053 Q162.256 589.447 162.256 580.72 Q162.256 571.97 165.311 567.387 Q168.39 562.78 174.2 562.78 Z" fill="#000000" fill-rule="evenodd" fill-opacity="1" /><path clip-path="url(#clip980)" d="M222.533 572.503 L211.955 583.128 L222.533 593.706 L219.779 596.507 L209.154 585.882 L198.529 596.507 L195.797 593.706 L206.353 583.128 L195.797 572.503 L198.529 569.702 L209.154 580.327 L219.779 569.702 L222.533 572.503 Z" fill="#000000" fill-rule="evenodd" fill-opacity="1" /><path clip-path="url(#clip980)" d="M234.894 594.03 L242.533 594.03 L242.533 567.665 L234.223 569.331 L234.223 565.072 L242.487 563.405 L247.163 563.405 L247.163 594.03 L254.802 594.03 L254.802 597.965 L234.894 597.965 L234.894 594.03 Z" fill="#000000" fill-rule="evenodd" fill-opacity="1" /><path clip-path="url(#clip980)" d="M274.246 566.484 Q270.635 566.484 268.806 570.049 Q267.001 573.591 267.001 580.72 Q267.001 587.827 268.806 591.391 Q270.635 594.933 274.246 594.933 Q277.88 594.933 279.686 591.391 Q281.514 587.827 281.514 580.72 Q281.514 573.591 279.686 570.049 Q277.88 566.484 274.246 566.484 M274.246 562.78 Q280.056 562.78 283.112 567.387 Q286.19 571.97 286.19 580.72 Q286.19 589.447 283.112 594.053 Q280.056 598.637 274.246 598.637 Q268.436 598.637 265.357 594.053 Q262.302 589.447 262.302 580.72 Q262.302 571.97 265.357 567.387 Q268.436 562.78 274.246 562.78 Z" fill="#000000" fill-rule="evenodd" fill-opacity="1" /><path clip-path="url(#clip980)" d="M298.867 545.785 L289.275 560.775 L298.867 560.775 L298.867 545.785 M297.87 542.475 L302.647 542.475 L302.647 560.775 L306.653 560.775 L306.653 563.935 L302.647 563.935 L302.647 570.555 L298.867 570.555 L298.867 563.935 L286.19 563.935 L286.19 560.267 L297.87 542.475 Z" fill="#000000" fill-rule="evenodd" fill-opacity="1" /><path clip-path="url(#clip980)" d="M128.969 210.081 Q125.636 210.081 123.714 211.864 Q121.816 213.646 121.816 216.771 Q121.816 219.896 123.714 221.678 Q125.636 223.461 128.969 223.461 Q132.302 223.461 134.224 221.678 Q136.145 219.873 136.145 216.771 Q136.145 213.646 134.224 211.864 Q132.325 210.081 128.969 210.081 M124.293 208.09 Q121.284 207.35 119.594 205.29 Q117.927 203.229 117.927 200.266 Q117.927 196.123 120.867 193.716 Q123.83 191.308 128.969 191.308 Q134.131 191.308 137.071 193.716 Q140.011 196.123 140.011 200.266 Q140.011 203.229 138.321 205.29 Q136.654 207.35 133.668 208.09 Q137.048 208.877 138.923 211.169 Q140.821 213.461 140.821 216.771 Q140.821 221.794 137.742 224.479 Q134.687 227.164 128.969 227.164 Q123.251 227.164 120.173 224.479 Q117.117 221.794 117.117 216.771 Q117.117 213.461 119.015 211.169 Q120.913 208.877 124.293 208.09 M122.58 200.706 Q122.58 203.391 124.247 204.896 Q125.937 206.401 128.969 206.401 Q131.978 206.401 133.668 204.896 Q135.381 203.391 135.381 200.706 Q135.381 198.021 133.668 196.516 Q131.978 195.012 128.969 195.012 Q125.937 195.012 124.247 196.516 Q122.58 198.021 122.58 200.706 Z" fill="#000000" fill-rule="evenodd" fill-opacity="1" /><path clip-path="url(#clip980)" d="M149.131 220.614 L154.015 220.614 L154.015 226.493 L149.131 226.493 L149.131 220.614 Z" fill="#000000" fill-rule="evenodd" fill-opacity="1" /><path clip-path="url(#clip980)" d="M174.2 195.012 Q170.589 195.012 168.76 198.577 Q166.955 202.118 166.955 209.248 Q166.955 216.354 168.76 219.919 Q170.589 223.461 174.2 223.461 Q177.834 223.461 179.64 219.919 Q181.469 216.354 181.469 209.248 Q181.469 202.118 179.64 198.577 Q177.834 195.012 174.2 195.012 M174.2 191.308 Q180.01 191.308 183.066 195.915 Q186.145 200.498 186.145 209.248 Q186.145 217.975 183.066 222.581 Q180.01 227.164 174.2 227.164 Q168.39 227.164 165.311 222.581 Q162.256 217.975 162.256 209.248 Q162.256 200.498 165.311 195.915 Q168.39 191.308 174.2 191.308 Z" fill="#000000" fill-rule="evenodd" fill-opacity="1" /><path clip-path="url(#clip980)" d="M222.533 201.03 L211.955 211.655 L222.533 222.234 L219.779 225.035 L209.154 214.41 L198.529 225.035 L195.797 222.234 L206.353 211.655 L195.797 201.03 L198.529 198.229 L209.154 208.854 L219.779 198.229 L222.533 201.03 Z" fill="#000000" fill-rule="evenodd" fill-opacity="1" /><path clip-path="url(#clip980)" d="M234.894 222.558 L242.533 222.558 L242.533 196.192 L234.223 197.859 L234.223 193.6 L242.487 191.933 L247.163 191.933 L247.163 222.558 L254.802 222.558 L254.802 226.493 L234.894 226.493 L234.894 222.558 Z" fill="#000000" fill-rule="evenodd" fill-opacity="1" /><path clip-path="url(#clip980)" d="M274.246 195.012 Q270.635 195.012 268.806 198.577 Q267.001 202.118 267.001 209.248 Q267.001 216.354 268.806 219.919 Q270.635 223.461 274.246 223.461 Q277.88 223.461 279.686 219.919 Q281.514 216.354 281.514 209.248 Q281.514 202.118 279.686 198.577 Q277.88 195.012 274.246 195.012 M274.246 191.308 Q280.056 191.308 283.112 195.915 Q286.19 200.498 286.19 209.248 Q286.19 217.975 283.112 222.581 Q280.056 227.164 274.246 227.164 Q268.436 227.164 265.357 222.581 Q262.302 217.975 262.302 209.248 Q262.302 200.498 265.357 195.915 Q268.436 191.308 274.246 191.308 Z" fill="#000000" fill-rule="evenodd" fill-opacity="1" /><path clip-path="url(#clip980)" d="M298.867 174.313 L289.275 189.303 L298.867 189.303 L298.867 174.313 M297.87 171.003 L302.647 171.003 L302.647 189.303 L306.653 189.303 L306.653 192.462 L302.647 192.462 L302.647 199.083 L298.867 199.083 L298.867 192.462 L286.19 192.462 L286.19 188.795 L297.87 171.003 Z" fill="#000000" fill-rule="evenodd" fill-opacity="1" /><path clip-path="url(#clip980)" d="M15.678 1358.98 L21.9483 1358.98 Q20.1977 1362.64 19.3383 1365.89 Q18.479 1369.14 18.479 1372.16 Q18.479 1377.41 20.516 1380.28 Q22.553 1383.11 26.3088 1383.11 Q29.4598 1383.11 31.0831 1381.23 Q32.6745 1379.32 33.6612 1374.04 L34.4569 1370.16 Q35.8255 1362.96 39.2948 1359.56 Q42.7323 1356.12 48.5251 1356.12 Q55.4319 1356.12 58.9967 1360.77 Q62.5615 1365.38 62.5615 1374.33 Q62.5615 1377.7 61.7976 1381.52 Q61.0337 1385.31 59.5378 1389.38 L52.9174 1389.38 Q55.1136 1385.47 56.2276 1381.71 Q57.3416 1377.95 57.3416 1374.33 Q57.3416 1368.82 55.1773 1365.83 Q53.0129 1362.84 49.0025 1362.84 Q45.5014 1362.84 43.528 1365 Q41.5546 1367.13 40.568 1372.03 L39.8041 1375.95 Q38.3718 1383.14 35.3162 1386.36 Q32.2607 1389.57 26.818 1389.57 Q20.516 1389.57 16.8875 1385.15 Q13.2591 1380.69 13.2591 1372.89 Q13.2591 1369.55 13.8638 1366.08 Q14.4686 1362.61 15.678 1358.98 Z" fill="#000000" fill-rule="evenodd" fill-opacity="1" /><path clip-path="url(#clip980)" d="M15.869 1340.56 L25.9905 1340.56 L25.9905 1328.49 L30.542 1328.49 L30.542 1340.56 L49.8937 1340.56 Q54.2542 1340.56 55.4955 1339.38 Q56.7368 1338.17 56.7368 1334.51 L56.7368 1328.49 L61.6384 1328.49 L61.6384 1334.51 Q61.6384 1341.29 59.124 1343.87 Q56.5777 1346.44 49.8937 1346.44 L30.542 1346.44 L30.542 1350.74 L25.9905 1350.74 L25.9905 1346.44 L15.869 1346.44 L15.869 1340.56 Z" fill="#000000" fill-rule="evenodd" fill-opacity="1" /><path clip-path="url(#clip980)" d="M42.3504 1290.3 L45.2149 1290.3 L45.2149 1317.23 Q51.2623 1316.84 54.4452 1313.6 Q57.5962 1310.32 57.5962 1304.49 Q57.5962 1301.12 56.7687 1297.97 Q55.9411 1294.79 54.2861 1291.67 L59.8242 1291.67 Q61.161 1294.82 61.8612 1298.13 Q62.5615 1301.44 62.5615 1304.84 Q62.5615 1313.37 57.5962 1318.37 Q52.631 1323.34 44.1646 1323.34 Q35.4117 1323.34 30.2873 1318.63 Q25.1311 1313.88 25.1311 1305.86 Q25.1311 1298.67 29.7781 1294.5 Q34.3932 1290.3 42.3504 1290.3 M40.6316 1296.16 Q35.8255 1296.22 32.9609 1298.86 Q30.0964 1301.47 30.0964 1305.8 Q30.0964 1310.7 32.8654 1313.66 Q35.6345 1316.59 40.6634 1317.03 L40.6316 1296.16 Z" fill="#000000" fill-rule="evenodd" fill-opacity="1" /><path clip-path="url(#clip980)" d="M43.719 1264.49 Q43.719 1271.58 45.3422 1274.32 Q46.9655 1277.06 50.8804 1277.06 Q53.9996 1277.06 55.8457 1275.02 Q57.6599 1272.95 57.6599 1269.42 Q57.6599 1264.55 54.2224 1261.62 Q50.7531 1258.66 45.0239 1258.66 L43.719 1258.66 L43.719 1264.49 M41.3 1252.8 L61.6384 1252.8 L61.6384 1258.66 L56.2276 1258.66 Q59.4741 1260.67 61.0337 1263.66 Q62.5615 1266.65 62.5615 1270.98 Q62.5615 1276.45 59.5059 1279.7 Q56.4186 1282.91 51.2623 1282.91 Q45.2467 1282.91 42.1912 1278.9 Q39.1357 1274.86 39.1357 1266.87 L39.1357 1258.66 L38.5628 1258.66 Q34.5205 1258.66 32.3244 1261.33 Q30.0964 1263.98 30.0964 1268.78 Q30.0964 1271.84 30.8284 1274.73 Q31.5605 1277.63 33.0246 1280.3 L27.6137 1280.3 Q26.3724 1277.09 25.7677 1274.07 Q25.1311 1271.04 25.1311 1268.18 Q25.1311 1260.44 29.1415 1256.62 Q33.1519 1252.8 41.3 1252.8 Z" fill="#000000" fill-rule="evenodd" fill-opacity="1" /><path clip-path="url(#clip980)" d="M32.8336 1212.99 Q28.8869 1210.79 27.009 1207.74 Q25.1311 1204.68 25.1311 1200.54 Q25.1311 1194.97 29.046 1191.95 Q32.9291 1188.92 40.1224 1188.92 L61.6384 1188.92 L61.6384 1194.81 L40.3133 1194.81 Q35.1889 1194.81 32.7063 1196.63 Q30.2237 1198.44 30.2237 1202.17 Q30.2237 1206.72 33.2474 1209.36 Q36.2711 1212 41.491 1212 L61.6384 1212 L61.6384 1217.89 L40.3133 1217.89 Q35.1571 1217.89 32.7063 1219.7 Q30.2237 1221.52 30.2237 1225.3 Q30.2237 1229.79 33.2792 1232.43 Q36.3029 1235.08 41.491 1235.08 L61.6384 1235.08 L61.6384 1240.96 L25.9905 1240.96 L25.9905 1235.08 L31.5287 1235.08 Q28.2503 1233.07 26.6907 1230.27 Q25.1311 1227.47 25.1311 1223.62 Q25.1311 1219.73 27.1045 1217.03 Q29.0779 1214.29 32.8336 1212.99 Z" fill="#000000" fill-rule="evenodd" fill-opacity="1" /><path clip-path="url(#clip980)" d="M31.465 1135.87 Q30.8921 1136.85 30.6375 1138.03 Q30.351 1139.18 30.351 1140.58 Q30.351 1145.54 33.5975 1148.22 Q36.8122 1150.86 42.8596 1150.86 L61.6384 1150.86 L61.6384 1156.75 L25.9905 1156.75 L25.9905 1150.86 L31.5287 1150.86 Q28.2821 1149.01 26.7225 1146.05 Q25.1311 1143.09 25.1311 1138.86 Q25.1311 1138.25 25.2266 1137.52 Q25.2903 1136.79 25.4494 1135.9 L31.465 1135.87 Z" fill="#000000" fill-rule="evenodd" fill-opacity="1" /><path clip-path="url(#clip980)" d="M42.3504 1100.66 L45.2149 1100.66 L45.2149 1127.59 Q51.2623 1127.21 54.4452 1123.96 Q57.5962 1120.68 57.5962 1114.86 Q57.5962 1111.49 56.7687 1108.33 Q55.9411 1105.15 54.2861 1102.03 L59.8242 1102.03 Q61.161 1105.18 61.8612 1108.49 Q62.5615 1111.8 62.5615 1115.21 Q62.5615 1123.74 57.5962 1128.74 Q52.631 1133.7 44.1646 1133.7 Q35.4117 1133.7 30.2873 1128.99 Q25.1311 1124.25 25.1311 1116.23 Q25.1311 1109.04 29.7781 1104.87 Q34.3932 1100.66 42.3504 1100.66 M40.6316 1106.52 Q35.8255 1106.58 32.9609 1109.23 Q30.0964 1111.84 30.0964 1116.16 Q30.0964 1121.07 32.8654 1124.03 Q35.6345 1126.95 40.6634 1127.4 L40.6316 1106.52 Z" fill="#000000" fill-rule="evenodd" fill-opacity="1" /><path clip-path="url(#clip980)" d="M43.8463 1087.55 Q50.3075 1087.55 53.9996 1084.91 Q57.6599 1082.24 57.6599 1077.59 Q57.6599 1072.94 53.9996 1070.27 Q50.3075 1067.59 43.8463 1067.59 Q37.3851 1067.59 33.7248 1070.27 Q30.0327 1072.94 30.0327 1077.59 Q30.0327 1082.24 33.7248 1084.91 Q37.3851 1087.55 43.8463 1087.55 M56.2912 1067.59 Q59.4741 1069.44 61.0337 1072.27 Q62.5615 1075.07 62.5615 1079.02 Q62.5615 1085.48 57.4052 1089.56 Q52.249 1093.6 43.8463 1093.6 Q35.4436 1093.6 30.2873 1089.56 Q25.1311 1085.48 25.1311 1079.02 Q25.1311 1075.07 26.6907 1072.27 Q28.2185 1069.44 31.4013 1067.59 L25.9905 1067.59 L25.9905 1061.74 L75.1974 1061.74 L75.1974 1067.59 L56.2912 1067.59 Z" fill="#000000" fill-rule="evenodd" fill-opacity="1" /><path clip-path="url(#clip980)" d="M47.5702 1050.28 L25.9905 1050.28 L25.9905 1044.42 L47.3474 1044.42 Q52.4082 1044.42 54.9545 1042.45 Q57.4689 1040.48 57.4689 1036.53 Q57.4689 1031.79 54.4452 1029.05 Q51.4215 1026.28 46.2016 1026.28 L25.9905 1026.28 L25.9905 1020.42 L61.6384 1020.42 L61.6384 1026.28 L56.1639 1026.28 Q59.4104 1028.41 61.0019 1031.25 Q62.5615 1034.05 62.5615 1037.77 Q62.5615 1043.91 58.742 1047.1 Q54.9226 1050.28 47.5702 1050.28 M25.1311 1035.54 L25.1311 1035.54 Z" fill="#000000" fill-rule="evenodd" fill-opacity="1" /><path clip-path="url(#clip980)" d="M25.9905 1008.36 L25.9905 1002.51 L61.6384 1002.51 L61.6384 1008.36 L25.9905 1008.36 M12.1132 1008.36 L12.1132 1002.51 L19.5293 1002.51 L19.5293 1008.36 L12.1132 1008.36 Z" fill="#000000" fill-rule="evenodd" fill-opacity="1" /><path clip-path="url(#clip980)" d="M31.465 969.594 Q30.8921 970.581 30.6375 971.759 Q30.351 972.905 30.351 974.305 Q30.351 979.27 33.5975 981.944 Q36.8122 984.586 42.8596 984.586 L61.6384 984.586 L61.6384 990.474 L25.9905 990.474 L25.9905 984.586 L31.5287 984.586 Q28.2821 982.74 26.7225 979.78 Q25.1311 976.819 25.1311 972.586 Q25.1311 971.982 25.2266 971.249 Q25.2903 970.517 25.4494 969.626 L31.465 969.594 Z" fill="#000000" fill-rule="evenodd" fill-opacity="1" /><path clip-path="url(#clip980)" d="M42.3504 934.392 L45.2149 934.392 L45.2149 961.319 Q51.2623 960.937 54.4452 957.691 Q57.5962 954.412 57.5962 948.588 Q57.5962 945.214 56.7687 942.063 Q55.9411 938.88 54.2861 935.761 L59.8242 935.761 Q61.161 938.912 61.8612 942.222 Q62.5615 945.532 62.5615 948.938 Q62.5615 957.468 57.5962 962.465 Q52.631 967.43 44.1646 967.43 Q35.4117 967.43 30.2873 962.719 Q25.1311 957.977 25.1311 949.956 Q25.1311 942.763 29.7781 938.593 Q34.3932 934.392 42.3504 934.392 M40.6316 940.248 Q35.8255 940.312 32.9609 942.954 Q30.0964 945.564 30.0964 949.893 Q30.0964 954.794 32.8654 957.754 Q35.6345 960.682 40.6634 961.128 L40.6316 940.248 Z" fill="#000000" fill-rule="evenodd" fill-opacity="1" /><path clip-path="url(#clip980)" d="M32.8336 897.025 Q28.8869 894.829 27.009 891.774 Q25.1311 888.718 25.1311 884.58 Q25.1311 879.01 29.046 875.987 Q32.9291 872.963 40.1224 872.963 L61.6384 872.963 L61.6384 878.851 L40.3133 878.851 Q35.1889 878.851 32.7063 880.665 Q30.2237 882.48 30.2237 886.204 Q30.2237 890.755 33.2474 893.397 Q36.2711 896.039 41.491 896.039 L61.6384 896.039 L61.6384 901.927 L40.3133 901.927 Q35.1571 901.927 32.7063 903.741 Q30.2237 905.555 30.2237 909.343 Q30.2237 913.831 33.2792 916.473 Q36.3029 919.114 41.491 919.114 L61.6384 919.114 L61.6384 925.003 L25.9905 925.003 L25.9905 919.114 L31.5287 919.114 Q28.2503 917.109 26.6907 914.308 Q25.1311 911.507 25.1311 907.656 Q25.1311 903.773 27.1045 901.068 Q29.0779 898.33 32.8336 897.025 Z" fill="#000000" fill-rule="evenodd" fill-opacity="1" /><path clip-path="url(#clip980)" d="M42.3504 830.79 L45.2149 830.79 L45.2149 857.717 Q51.2623 857.335 54.4452 854.089 Q57.5962 850.81 57.5962 844.986 Q57.5962 841.612 56.7687 838.461 Q55.9411 835.278 54.2861 832.159 L59.8242 832.159 Q61.161 835.31 61.8612 838.62 Q62.5615 841.93 62.5615 845.336 Q62.5615 853.866 57.5962 858.863 Q52.631 863.828 44.1646 863.828 Q35.4117 863.828 30.2873 859.118 Q25.1311 854.375 25.1311 846.354 Q25.1311 839.161 29.7781 834.992 Q34.3932 830.79 42.3504 830.79 M40.6316 836.647 Q35.8255 836.71 32.9609 839.352 Q30.0964 841.962 30.0964 846.291 Q30.0964 851.192 32.8654 854.152 Q35.6345 857.081 40.6634 857.526 L40.6316 836.647 Z" fill="#000000" fill-rule="evenodd" fill-opacity="1" /><path clip-path="url(#clip980)" d="M40.1224 791.546 L61.6384 791.546 L61.6384 797.402 L40.3133 797.402 Q35.2526 797.402 32.7381 799.375 Q30.2237 801.349 30.2237 805.296 Q30.2237 810.038 33.2474 812.775 Q36.2711 815.512 41.491 815.512 L61.6384 815.512 L61.6384 821.401 L25.9905 821.401 L25.9905 815.512 L31.5287 815.512 Q28.314 813.412 26.7225 810.579 Q25.1311 807.714 25.1311 803.991 Q25.1311 797.848 28.9505 794.697 Q32.7381 791.546 40.1224 791.546 Z" fill="#000000" fill-rule="evenodd" fill-opacity="1" /><path clip-path="url(#clip980)" d="M15.869 774.072 L25.9905 774.072 L25.9905 762.009 L30.542 762.009 L30.542 774.072 L49.8937 774.072 Q54.2542 774.072 55.4955 772.894 Q56.7368 771.685 56.7368 768.024 L56.7368 762.009 L61.6384 762.009 L61.6384 768.024 Q61.6384 774.804 59.124 777.382 Q56.5777 779.96 49.8937 779.96 L30.542 779.96 L30.542 784.257 L25.9905 784.257 L25.9905 779.96 L15.869 779.96 L15.869 774.072 Z" fill="#000000" fill-rule="evenodd" fill-opacity="1" /><path clip-path="url(#clip980)" d="M12.1769 719.518 Q19.4975 723.783 26.6589 725.851 Q33.8203 727.92 41.1727 727.92 Q48.5251 727.92 55.7502 725.851 Q62.9434 723.751 70.2321 719.518 L70.2321 724.61 Q62.7524 729.384 55.5274 731.772 Q48.3023 734.127 41.1727 734.127 Q34.0749 734.127 26.8817 731.772 Q19.6884 729.416 12.1769 724.61 L12.1769 719.518 Z" fill="#000000" fill-rule="evenodd" fill-opacity="1" /><path clip-path="url(#clip980)" d="M15.869 702.362 L25.9905 702.362 L25.9905 690.299 L30.542 690.299 L30.542 702.362 L49.8937 702.362 Q54.2542 702.362 55.4955 701.184 Q56.7368 699.975 56.7368 696.315 L56.7368 690.299 L61.6384 690.299 L61.6384 696.315 Q61.6384 703.094 59.124 705.672 Q56.5777 708.25 49.8937 708.25 L30.542 708.25 L30.542 712.547 L25.9905 712.547 L25.9905 708.25 L15.869 708.25 L15.869 702.362 Z" fill="#000000" fill-rule="evenodd" fill-opacity="1" /><path clip-path="url(#clip980)" d="M30.0964 668.783 Q30.0964 673.494 33.7885 676.231 Q37.4488 678.968 43.8463 678.968 Q50.2438 678.968 53.9359 676.263 Q57.5962 673.525 57.5962 668.783 Q57.5962 664.104 53.9041 661.367 Q50.212 658.63 43.8463 658.63 Q37.5124 658.63 33.8203 661.367 Q30.0964 664.104 30.0964 668.783 M25.1311 668.783 Q25.1311 661.144 30.0964 656.784 Q35.0616 652.423 43.8463 652.423 Q52.5991 652.423 57.5962 656.784 Q62.5615 661.144 62.5615 668.783 Q62.5615 676.454 57.5962 680.814 Q52.5991 685.143 43.8463 685.143 Q35.0616 685.143 30.0964 680.814 Q25.1311 676.454 25.1311 668.783 Z" fill="#000000" fill-rule="evenodd" fill-opacity="1" /><path clip-path="url(#clip980)" d="M40.1224 613.083 L61.6384 613.083 L61.6384 618.939 L40.3133 618.939 Q35.2526 618.939 32.7381 620.913 Q30.2237 622.886 30.2237 626.833 Q30.2237 631.575 33.2474 634.313 Q36.2711 637.05 41.491 637.05 L61.6384 637.05 L61.6384 642.938 L25.9905 642.938 L25.9905 637.05 L31.5287 637.05 Q28.314 634.949 26.7225 632.116 Q25.1311 629.252 25.1311 625.528 Q25.1311 619.385 28.9505 616.234 Q32.7381 613.083 40.1224 613.083 Z" fill="#000000" fill-rule="evenodd" fill-opacity="1" /><path clip-path="url(#clip980)" d="M40.1224 571.77 L61.6384 571.77 L61.6384 577.626 L40.3133 577.626 Q35.2526 577.626 32.7381 579.599 Q30.2237 581.573 30.2237 585.519 Q30.2237 590.262 33.2474 592.999 Q36.2711 595.736 41.491 595.736 L61.6384 595.736 L61.6384 601.625 L25.9905 601.625 L25.9905 595.736 L31.5287 595.736 Q28.314 593.636 26.7225 590.803 Q25.1311 587.938 25.1311 584.215 Q25.1311 578.072 28.9505 574.921 Q32.7381 571.77 40.1224 571.77 Z" fill="#000000" fill-rule="evenodd" fill-opacity="1" /><path clip-path="url(#clip980)" d="M42.3504 529.597 L45.2149 529.597 L45.2149 556.524 Q51.2623 556.142 54.4452 552.895 Q57.5962 549.617 57.5962 543.792 Q57.5962 540.418 56.7687 537.267 Q55.9411 534.085 54.2861 530.965 L59.8242 530.965 Q61.161 534.116 61.8612 537.427 Q62.5615 540.737 62.5615 544.142 Q62.5615 552.672 57.5962 557.67 Q52.631 562.635 44.1646 562.635 Q35.4117 562.635 30.2873 557.924 Q25.1311 553.182 25.1311 545.161 Q25.1311 537.968 29.7781 533.798 Q34.3932 529.597 42.3504 529.597 M40.6316 535.453 Q35.8255 535.517 32.9609 538.159 Q30.0964 540.769 30.0964 545.097 Q30.0964 549.999 32.8654 552.959 Q35.6345 555.887 40.6634 556.333 L40.6316 535.453 Z" fill="#000000" fill-rule="evenodd" fill-opacity="1" /><path clip-path="url(#clip980)" d="M27.0408 497.259 L32.579 497.259 Q31.3059 499.742 30.6693 502.415 Q30.0327 505.089 30.0327 507.953 Q30.0327 512.314 31.3695 514.51 Q32.7063 516.674 35.3799 516.674 Q37.4169 516.674 38.5946 515.115 Q39.7404 513.555 40.7908 508.845 L41.2364 506.839 Q42.5732 500.601 45.0239 497.991 Q47.4429 495.349 51.8034 495.349 Q56.7687 495.349 59.6651 499.296 Q62.5615 503.211 62.5615 510.086 Q62.5615 512.95 61.9886 516.07 Q61.4475 519.157 60.3335 522.594 L54.2861 522.594 Q55.973 519.348 56.8323 516.197 Q57.6599 513.046 57.6599 509.959 Q57.6599 505.821 56.2594 503.593 Q54.8271 501.365 52.249 501.365 Q49.8619 501.365 48.5887 502.988 Q47.3156 504.58 46.1379 510.022 L45.6605 512.059 Q44.5147 517.502 42.1594 519.921 Q39.7722 522.34 35.6345 522.34 Q30.6056 522.34 27.8684 518.775 Q25.1311 515.21 25.1311 508.654 Q25.1311 505.407 25.6085 502.542 Q26.086 499.678 27.0408 497.259 Z" fill="#000000" fill-rule="evenodd" fill-opacity="1" /><path clip-path="url(#clip980)" d="M12.1769 486.947 L12.1769 481.854 Q19.6884 477.08 26.8817 474.724 Q34.0749 472.337 41.1727 472.337 Q48.3023 472.337 55.5274 474.724 Q62.7524 477.08 70.2321 481.854 L70.2321 486.947 Q62.9434 482.713 55.7502 480.644 Q48.5251 478.544 41.1727 478.544 Q33.8203 478.544 26.6589 480.644 Q19.4975 482.713 12.1769 486.947 Z" fill="#000000" fill-rule="evenodd" fill-opacity="1" /><path clip-path="url(#clip980)" d="M951.611 20.1573 L940.511 50.2555 L962.751 50.2555 L951.611 20.1573 M946.993 12.096 L956.269 12.096 L979.319 72.576 L970.812 72.576 L965.303 57.061 L938.04 57.061 L932.531 72.576 L923.902 72.576 L946.993 12.096 Z" fill="#000000" fill-rule="evenodd" fill-opacity="1" /><path clip-path="url(#clip980)" d="M1025.54 45.1919 L1025.54 72.576 L1018.09 72.576 L1018.09 45.4349 Q1018.09 38.994 1015.57 35.7938 Q1013.06 32.5936 1008.04 32.5936 Q1002 32.5936 998.52 36.4419 Q995.036 40.2903 995.036 46.9338 L995.036 72.576 L987.542 72.576 L987.542 27.2059 L995.036 27.2059 L995.036 34.2544 Q997.71 30.163 1001.32 28.1376 Q1004.96 26.1121 1009.7 26.1121 Q1017.52 26.1121 1021.53 30.9732 Q1025.54 35.7938 1025.54 45.1919 Z" fill="#000000" fill-rule="evenodd" fill-opacity="1" /><path clip-path="url(#clip980)" d="M1078.12 45.1919 L1078.12 72.576 L1070.67 72.576 L1070.67 45.4349 Q1070.67 38.994 1068.16 35.7938 Q1065.64 32.5936 1060.62 32.5936 Q1054.58 32.5936 1051.1 36.4419 Q1047.62 40.2903 1047.62 46.9338 L1047.62 72.576 L1040.12 72.576 L1040.12 27.2059 L1047.62 27.2059 L1047.62 34.2544 Q1050.29 30.163 1053.9 28.1376 Q1057.54 26.1121 1062.28 26.1121 Q1070.1 26.1121 1074.11 30.9732 Q1078.12 35.7938 1078.12 45.1919 Z" fill="#000000" fill-rule="evenodd" fill-opacity="1" /><path clip-path="url(#clip980)" d="M1092.22 54.671 L1092.22 27.2059 L1099.67 27.2059 L1099.67 54.3874 Q1099.67 60.8284 1102.18 64.0691 Q1104.69 67.2693 1109.72 67.2693 Q1115.75 67.2693 1119.24 63.421 Q1122.76 59.5726 1122.76 52.9291 L1122.76 27.2059 L1130.21 27.2059 L1130.21 72.576 L1122.76 72.576 L1122.76 65.6084 Q1120.05 69.7404 1116.44 71.7658 Q1112.88 73.7508 1108.14 73.7508 Q1100.32 73.7508 1096.27 68.8897 Q1092.22 64.0286 1092.22 54.671 M1110.97 26.1121 L1110.97 26.1121 Z" fill="#000000" fill-rule="evenodd" fill-opacity="1" /><path clip-path="url(#clip980)" d="M1166.19 49.7694 Q1157.15 49.7694 1153.67 51.8354 Q1150.19 53.9013 1150.19 58.8839 Q1150.19 62.8538 1152.78 65.2034 Q1155.41 67.5124 1159.91 67.5124 Q1166.11 67.5124 1169.83 63.1374 Q1173.6 58.7219 1173.6 51.4303 L1173.6 49.7694 L1166.19 49.7694 M1181.05 46.6907 L1181.05 72.576 L1173.6 72.576 L1173.6 65.6895 Q1171.05 69.8214 1167.24 71.8063 Q1163.43 73.7508 1157.92 73.7508 Q1150.96 73.7508 1146.82 69.8619 Q1142.73 65.9325 1142.73 59.3701 Q1142.73 51.7138 1147.84 47.825 Q1152.98 43.9361 1163.15 43.9361 L1173.6 43.9361 L1173.6 43.2069 Q1173.6 38.0623 1170.2 35.2672 Q1166.84 32.4315 1160.72 32.4315 Q1156.83 32.4315 1153.14 33.3632 Q1149.46 34.295 1146.05 36.1584 L1146.05 29.2718 Q1150.15 27.692 1153.99 26.9223 Q1157.84 26.1121 1161.49 26.1121 Q1171.33 26.1121 1176.19 31.2163 Q1181.05 36.3204 1181.05 46.6907 Z" fill="#000000" fill-rule="evenodd" fill-opacity="1" /><path clip-path="url(#clip980)" d="M1196.41 9.54393 L1203.86 9.54393 L1203.86 72.576 L1196.41 72.576 L1196.41 9.54393 Z" fill="#000000" fill-rule="evenodd" fill-opacity="1" /><path clip-path="url(#clip980)" d="M1282.41 14.0809 L1282.41 22.0612 Q1277.75 19.8332 1273.62 18.7395 Q1269.48 17.6457 1265.64 17.6457 Q1258.95 17.6457 1255.31 20.2383 Q1251.7 22.8309 1251.7 27.611 Q1251.7 31.6214 1254.09 33.6873 Q1256.52 35.7128 1263.25 36.9686 L1268.19 37.9813 Q1277.34 39.7232 1281.68 44.1387 Q1286.05 48.5136 1286.05 55.8863 Q1286.05 64.6767 1280.14 69.2137 Q1274.27 73.7508 1262.88 73.7508 Q1258.59 73.7508 1253.73 72.7785 Q1248.91 71.8063 1243.72 69.9024 L1243.72 61.4765 Q1248.7 64.2716 1253.48 65.6895 Q1258.26 67.1073 1262.88 67.1073 Q1269.89 67.1073 1273.7 64.3527 Q1277.51 61.598 1277.51 56.4939 Q1277.51 52.0379 1274.75 49.5264 Q1272.04 47.0148 1265.8 45.759 L1260.82 44.7868 Q1251.66 42.9639 1247.57 39.075 Q1243.48 35.1862 1243.48 28.2591 Q1243.48 20.2383 1249.11 15.6203 Q1254.78 11.0023 1264.7 11.0023 Q1268.96 11.0023 1273.37 11.7719 Q1277.79 12.5416 1282.41 14.0809 Z" fill="#000000" fill-rule="evenodd" fill-opacity="1" /><path clip-path="url(#clip980)" d="M1305.86 14.324 L1305.86 27.2059 L1321.22 27.2059 L1321.22 32.9987 L1305.86 32.9987 L1305.86 57.6282 Q1305.86 63.1779 1307.36 64.7578 Q1308.9 66.3376 1313.56 66.3376 L1321.22 66.3376 L1321.22 72.576 L1313.56 72.576 Q1304.93 72.576 1301.65 69.3758 Q1298.37 66.1351 1298.37 57.6282 L1298.37 32.9987 L1292.9 32.9987 L1292.9 27.2059 L1298.37 27.2059 L1298.37 14.324 L1305.86 14.324 Z" fill="#000000" fill-rule="evenodd" fill-opacity="1" /><path clip-path="url(#clip980)" d="M1369.83 48.0275 L1369.83 51.6733 L1335.56 51.6733 Q1336.04 59.3701 1340.17 63.421 Q1344.35 67.4314 1351.76 67.4314 Q1356.05 67.4314 1360.06 66.3781 Q1364.11 65.3249 1368.08 63.2184 L1368.08 70.267 Q1364.07 71.9684 1359.86 72.8596 Q1355.65 73.7508 1351.31 73.7508 Q1340.46 73.7508 1334.1 67.4314 Q1327.78 61.1119 1327.78 50.3365 Q1327.78 39.1965 1333.77 32.6746 Q1339.81 26.1121 1350.02 26.1121 Q1359.17 26.1121 1364.48 32.0264 Q1369.83 37.9003 1369.83 48.0275 M1362.37 45.84 Q1362.29 39.7232 1358.93 36.0774 Q1355.61 32.4315 1350.1 32.4315 Q1343.86 32.4315 1340.09 35.9558 Q1336.37 39.4801 1335.8 45.8805 L1362.37 45.84 Z" fill="#000000" fill-rule="evenodd" fill-opacity="1" /><path clip-path="url(#clip980)" d="M1402.68 49.7694 Q1393.65 49.7694 1390.16 51.8354 Q1386.68 53.9013 1386.68 58.8839 Q1386.68 62.8538 1389.27 65.2034 Q1391.9 67.5124 1396.4 67.5124 Q1402.6 67.5124 1406.32 63.1374 Q1410.09 58.7219 1410.09 51.4303 L1410.09 49.7694 L1402.68 49.7694 M1417.55 46.6907 L1417.55 72.576 L1410.09 72.576 L1410.09 65.6895 Q1407.54 69.8214 1403.73 71.8063 Q1399.92 73.7508 1394.41 73.7508 Q1387.45 73.7508 1383.32 69.8619 Q1379.22 65.9325 1379.22 59.3701 Q1379.22 51.7138 1384.33 47.825 Q1389.47 43.9361 1399.64 43.9361 L1410.09 43.9361 L1410.09 43.2069 Q1410.09 38.0623 1406.69 35.2672 Q1403.33 32.4315 1397.21 32.4315 Q1393.32 32.4315 1389.63 33.3632 Q1385.95 34.295 1382.55 36.1584 L1382.55 29.2718 Q1386.64 27.692 1390.49 26.9223 Q1394.33 26.1121 1397.98 26.1121 Q1407.82 26.1121 1412.68 31.2163 Q1417.55 36.3204 1417.55 46.6907 Z" fill="#000000" fill-rule="evenodd" fill-opacity="1" /><path clip-path="url(#clip980)" d="M1468.22 35.9153 Q1471.02 30.8922 1474.91 28.5022 Q1478.8 26.1121 1484.06 26.1121 Q1491.15 26.1121 1495 31.0947 Q1498.85 36.0368 1498.85 45.1919 L1498.85 72.576 L1491.35 72.576 L1491.35 45.4349 Q1491.35 38.913 1489.04 35.7533 Q1486.73 32.5936 1482 32.5936 Q1476.2 32.5936 1472.84 36.4419 Q1469.48 40.2903 1469.48 46.9338 L1469.48 72.576 L1461.98 72.576 L1461.98 45.4349 Q1461.98 38.8725 1459.67 35.7533 Q1457.37 32.5936 1452.55 32.5936 Q1446.83 32.5936 1443.47 36.4824 Q1440.11 40.3308 1440.11 46.9338 L1440.11 72.576 L1432.61 72.576 L1432.61 27.2059 L1440.11 27.2059 L1440.11 34.2544 Q1442.66 30.082 1446.23 28.0971 Q1449.79 26.1121 1454.69 26.1121 Q1459.63 26.1121 1463.08 28.6237 Q1466.56 31.1352 1468.22 35.9153 Z" fill="#000000" fill-rule="evenodd" fill-opacity="1" /><path clip-path="url(#clip980)" d="M1569.09 44.2197 Q1571.72 45.1109 1574.19 48.0275 Q1576.71 50.9442 1579.22 56.0483 L1587.52 72.576 L1578.73 72.576 L1570.99 57.061 Q1568 50.9847 1565.16 48.9997 Q1562.37 47.0148 1557.5 47.0148 L1548.59 47.0148 L1548.59 72.576 L1540.41 72.576 L1540.41 12.096 L1558.88 12.096 Q1569.25 12.096 1574.36 16.4305 Q1579.46 20.7649 1579.46 29.5149 Q1579.46 35.2267 1576.79 38.994 Q1574.15 42.7613 1569.09 44.2197 M1548.59 18.8205 L1548.59 40.2903 L1558.88 40.2903 Q1564.8 40.2903 1567.79 37.5762 Q1570.83 34.8216 1570.83 29.5149 Q1570.83 24.2082 1567.79 21.5346 Q1564.8 18.8205 1558.88 18.8205 L1548.59 18.8205 Z" fill="#000000" fill-rule="evenodd" fill-opacity="1" /><path clip-path="url(#clip980)" d="M1632.81 48.0275 L1632.81 51.6733 L1598.54 51.6733 Q1599.03 59.3701 1603.16 63.421 Q1607.33 67.4314 1614.74 67.4314 Q1619.04 67.4314 1623.05 66.3781 Q1627.1 65.3249 1631.07 63.2184 L1631.07 70.267 Q1627.06 71.9684 1622.85 72.8596 Q1618.63 73.7508 1614.3 73.7508 Q1603.44 73.7508 1597.08 67.4314 Q1590.76 61.1119 1590.76 50.3365 Q1590.76 39.1965 1596.76 32.6746 Q1602.79 26.1121 1613 26.1121 Q1622.16 26.1121 1627.46 32.0264 Q1632.81 37.9003 1632.81 48.0275 M1625.36 45.84 Q1625.28 39.7232 1621.91 36.0774 Q1618.59 32.4315 1613.08 32.4315 Q1606.84 32.4315 1603.08 35.9558 Q1599.35 39.4801 1598.78 45.8805 L1625.36 45.84 Z" fill="#000000" fill-rule="evenodd" fill-opacity="1" /><path clip-path="url(#clip980)" d="M1649.5 49.9314 Q1649.5 58.1548 1652.86 62.8538 Q1656.27 67.5124 1662.18 67.5124 Q1668.09 67.5124 1671.5 62.8538 Q1674.9 58.1548 1674.9 49.9314 Q1674.9 41.7081 1671.5 37.0496 Q1668.09 32.3505 1662.18 32.3505 Q1656.27 32.3505 1652.86 37.0496 Q1649.5 41.7081 1649.5 49.9314 M1674.9 65.7705 Q1672.55 69.8214 1668.94 71.8063 Q1665.38 73.7508 1660.36 73.7508 Q1652.13 73.7508 1646.95 67.1883 Q1641.8 60.6258 1641.8 49.9314 Q1641.8 39.2371 1646.95 32.6746 Q1652.13 26.1121 1660.36 26.1121 Q1665.38 26.1121 1668.94 28.0971 Q1672.55 30.0415 1674.9 34.0924 L1674.9 27.2059 L1682.35 27.2059 L1682.35 89.8329 L1674.9 89.8329 L1674.9 65.7705 Z" fill="#000000" fill-rule="evenodd" fill-opacity="1" /><path clip-path="url(#clip980)" d="M1696.94 54.671 L1696.94 27.2059 L1704.39 27.2059 L1704.39 54.3874 Q1704.39 60.8284 1706.9 64.0691 Q1709.41 67.2693 1714.44 67.2693 Q1720.47 67.2693 1723.96 63.421 Q1727.48 59.5726 1727.48 52.9291 L1727.48 27.2059 L1734.93 27.2059 L1734.93 72.576 L1727.48 72.576 L1727.48 65.6084 Q1724.77 69.7404 1721.16 71.7658 Q1717.6 73.7508 1712.86 73.7508 Q1705.04 73.7508 1700.99 68.8897 Q1696.94 64.0286 1696.94 54.671 M1715.69 26.1121 L1715.69 26.1121 Z" fill="#000000" fill-rule="evenodd" fill-opacity="1" /><path clip-path="url(#clip980)" d="M1750.29 27.2059 L1757.74 27.2059 L1757.74 72.576 L1750.29 72.576 L1750.29 27.2059 M1750.29 9.54393 L1757.74 9.54393 L1757.74 18.9825 L1750.29 18.9825 L1750.29 9.54393 Z" fill="#000000" fill-rule="evenodd" fill-opacity="1" /><path clip-path="url(#clip980)" d="M1799.63 34.1734 Q1798.37 33.4443 1796.87 33.1202 Q1795.41 32.7556 1793.63 32.7556 Q1787.31 32.7556 1783.91 36.8875 Q1780.55 40.9789 1780.55 48.6757 L1780.55 72.576 L1773.05 72.576 L1773.05 27.2059 L1780.55 27.2059 L1780.55 34.2544 Q1782.9 30.1225 1786.66 28.1376 Q1790.43 26.1121 1795.82 26.1121 Q1796.59 26.1121 1797.52 26.2337 Q1798.45 26.3147 1799.59 26.5172 L1799.63 34.1734 Z" fill="#000000" fill-rule="evenodd" fill-opacity="1" /><path clip-path="url(#clip980)" d="M1844.43 48.0275 L1844.43 51.6733 L1810.16 51.6733 Q1810.65 59.3701 1814.78 63.421 Q1818.95 67.4314 1826.36 67.4314 Q1830.66 67.4314 1834.67 66.3781 Q1838.72 65.3249 1842.69 63.2184 L1842.69 70.267 Q1838.68 71.9684 1834.46 72.8596 Q1830.25 73.7508 1825.92 73.7508 Q1815.06 73.7508 1808.7 67.4314 Q1802.38 61.1119 1802.38 50.3365 Q1802.38 39.1965 1808.38 32.6746 Q1814.41 26.1121 1824.62 26.1121 Q1833.78 26.1121 1839.08 32.0264 Q1844.43 37.9003 1844.43 48.0275 M1836.98 45.84 Q1836.9 39.7232 1833.53 36.0774 Q1830.21 32.4315 1824.7 32.4315 Q1818.46 32.4315 1814.7 35.9558 Q1810.97 39.4801 1810.4 45.8805 L1836.98 45.84 Z" fill="#000000" fill-rule="evenodd" fill-opacity="1" /><path clip-path="url(#clip980)" d="M1891.99 35.9153 Q1894.78 30.8922 1898.67 28.5022 Q1902.56 26.1121 1907.83 26.1121 Q1914.92 26.1121 1918.76 31.0947 Q1922.61 36.0368 1922.61 45.1919 L1922.61 72.576 L1915.12 72.576 L1915.12 45.4349 Q1915.12 38.913 1912.81 35.7533 Q1910.5 32.5936 1905.76 32.5936 Q1899.97 32.5936 1896.61 36.4419 Q1893.24 40.2903 1893.24 46.9338 L1893.24 72.576 L1885.75 72.576 L1885.75 45.4349 Q1885.75 38.8725 1883.44 35.7533 Q1881.13 32.5936 1876.31 32.5936 Q1870.6 32.5936 1867.24 36.4824 Q1863.87 40.3308 1863.87 46.9338 L1863.87 72.576 L1856.38 72.576 L1856.38 27.2059 L1863.87 27.2059 L1863.87 34.2544 Q1866.43 30.082 1869.99 28.0971 Q1873.56 26.1121 1878.46 26.1121 Q1883.4 26.1121 1886.84 28.6237 Q1890.33 31.1352 1891.99 35.9153 Z" fill="#000000" fill-rule="evenodd" fill-opacity="1" /><path clip-path="url(#clip980)" d="M1976.29 48.0275 L1976.29 51.6733 L1942.02 51.6733 Q1942.5 59.3701 1946.63 63.421 Q1950.81 67.4314 1958.22 67.4314 Q1962.51 67.4314 1966.52 66.3781 Q1970.57 65.3249 1974.54 63.2184 L1974.54 70.267 Q1970.53 71.9684 1966.32 72.8596 Q1962.11 73.7508 1957.77 73.7508 Q1946.92 73.7508 1940.56 67.4314 Q1934.24 61.1119 1934.24 50.3365 Q1934.24 39.1965 1940.23 32.6746 Q1946.27 26.1121 1956.48 26.1121 Q1965.63 26.1121 1970.94 32.0264 Q1976.29 37.9003 1976.29 48.0275 M1968.83 45.84 Q1968.75 39.7232 1965.39 36.0774 Q1962.07 32.4315 1956.56 32.4315 Q1950.32 32.4315 1946.55 35.9558 Q1942.83 39.4801 1942.26 45.8805 L1968.83 45.84 Z" fill="#000000" fill-rule="evenodd" fill-opacity="1" /><path clip-path="url(#clip980)" d="M2026.23 45.1919 L2026.23 72.576 L2018.78 72.576 L2018.78 45.4349 Q2018.78 38.994 2016.27 35.7938 Q2013.76 32.5936 2008.73 32.5936 Q2002.7 32.5936 1999.21 36.4419 Q1995.73 40.2903 1995.73 46.9338 L1995.73 72.576 L1988.24 72.576 L1988.24 27.2059 L1995.73 27.2059 L1995.73 34.2544 Q1998.4 30.163 2002.01 28.1376 Q2005.66 26.1121 2010.4 26.1121 Q2018.21 26.1121 2022.22 30.9732 Q2026.23 35.7938 2026.23 45.1919 Z" fill="#000000" fill-rule="evenodd" fill-opacity="1" /><path clip-path="url(#clip980)" d="M2048.47 14.324 L2048.47 27.2059 L2063.83 27.2059 L2063.83 32.9987 L2048.47 32.9987 L2048.47 57.6282 Q2048.47 63.1779 2049.97 64.7578 Q2051.51 66.3376 2056.17 66.3376 L2063.83 66.3376 L2063.83 72.576 L2056.17 72.576 Q2047.54 72.576 2044.26 69.3758 Q2040.98 66.1351 2040.98 57.6282 L2040.98 32.9987 L2035.51 32.9987 L2035.51 27.2059 L2040.98 27.2059 L2040.98 14.324 L2048.47 14.324 Z" fill="#000000" fill-rule="evenodd" fill-opacity="1" /><path clip-path="url(#clip982)" d="M533.302 173.254 L533.302 1688.65 L695.184 1688.65 L695.184 173.254 L533.302 173.254 L533.302 173.254  Z" fill="#009af9" fill-rule="evenodd" fill-opacity="1"/>
<polyline clip-path="url(#clip982)" style="stroke:#000000; stroke-linecap:round; stroke-linejoin:round; stroke-width:12; stroke-opacity:1; fill:none" points="533.302,173.254 533.302,1688.65 695.184,1688.65 695.184,173.254 533.302,173.254 "/>
<path clip-path="url(#clip982)" d="M735.654 1060.96 L735.654 1688.65 L897.535 1688.65 L897.535 1060.96 L735.654 1060.96 L735.654 1060.96  Z" fill="#009af9" fill-rule="evenodd" fill-opacity="1"/>
<polyline clip-path="url(#clip982)" style="stroke:#000000; stroke-linecap:round; stroke-linejoin:round; stroke-width:12; stroke-opacity:1; fill:none" points="735.654,1060.96 735.654,1688.65 897.535,1688.65 897.535,1060.96 735.654,1060.96 "/>
<path clip-path="url(#clip982)" d="M938.005 1207 L938.005 1688.65 L1099.89 1688.65 L1099.89 1207 L938.005 1207 L938.005 1207  Z" fill="#009af9" fill-rule="evenodd" fill-opacity="1"/>
<polyline clip-path="url(#clip982)" style="stroke:#000000; stroke-linecap:round; stroke-linejoin:round; stroke-width:12; stroke-opacity:1; fill:none" points="938.005,1207 938.005,1688.65 1099.89,1688.65 1099.89,1207 938.005,1207 "/>
<path clip-path="url(#clip982)" d="M1140.36 1282.6 L1140.36 1688.65 L1302.24 1688.65 L1302.24 1282.6 L1140.36 1282.6 L1140.36 1282.6  Z" fill="#009af9" fill-rule="evenodd" fill-opacity="1"/>
<polyline clip-path="url(#clip982)" style="stroke:#000000; stroke-linecap:round; stroke-linejoin:round; stroke-width:12; stroke-opacity:1; fill:none" points="1140.36,1282.6 1140.36,1688.65 1302.24,1688.65 1302.24,1282.6 1140.36,1282.6 "/>
<path clip-path="url(#clip982)" d="M1342.71 1330.92 L1342.71 1688.65 L1504.59 1688.65 L1504.59 1330.92 L1342.71 1330.92 L1342.71 1330.92  Z" fill="#009af9" fill-rule="evenodd" fill-opacity="1"/>
<polyline clip-path="url(#clip982)" style="stroke:#000000; stroke-linecap:round; stroke-linejoin:round; stroke-width:12; stroke-opacity:1; fill:none" points="1342.71,1330.92 1342.71,1688.65 1504.59,1688.65 1504.59,1330.92 1342.71,1330.92 "/>
<path clip-path="url(#clip982)" d="M1545.06 1365.24 L1545.06 1688.65 L1706.94 1688.65 L1706.94 1365.24 L1545.06 1365.24 L1545.06 1365.24  Z" fill="#009af9" fill-rule="evenodd" fill-opacity="1"/>
<polyline clip-path="url(#clip982)" style="stroke:#000000; stroke-linecap:round; stroke-linejoin:round; stroke-width:12; stroke-opacity:1; fill:none" points="1545.06,1365.24 1545.06,1688.65 1706.94,1688.65 1706.94,1365.24 1545.06,1365.24 "/>
<path clip-path="url(#clip982)" d="M1747.41 1391.24 L1747.41 1688.65 L1909.29 1688.65 L1909.29 1391.24 L1747.41 1391.24 L1747.41 1391.24  Z" fill="#009af9" fill-rule="evenodd" fill-opacity="1"/>
<polyline clip-path="url(#clip982)" style="stroke:#000000; stroke-linecap:round; stroke-linejoin:round; stroke-width:12; stroke-opacity:1; fill:none" points="1747.41,1391.24 1747.41,1688.65 1909.29,1688.65 1909.29,1391.24 1747.41,1391.24 "/>
<path clip-path="url(#clip982)" d="M1949.76 1411.83 L1949.76 1688.65 L2111.64 1688.65 L2111.64 1411.83 L1949.76 1411.83 L1949.76 1411.83  Z" fill="#009af9" fill-rule="evenodd" fill-opacity="1"/>
<polyline clip-path="url(#clip982)" style="stroke:#000000; stroke-linecap:round; stroke-linejoin:round; stroke-width:12; stroke-opacity:1; fill:none" points="1949.76,1411.83 1949.76,1688.65 2111.64,1688.65 2111.64,1411.83 1949.76,1411.83 "/>
<path clip-path="url(#clip982)" d="M2152.11 1428.65 L2152.11 1688.65 L2313.99 1688.65 L2313.99 1428.65 L2152.11 1428.65 L2152.11 1428.65  Z" fill="#009af9" fill-rule="evenodd" fill-opacity="1"/>
<polyline clip-path="url(#clip982)" style="stroke:#000000; stroke-linecap:round; stroke-linejoin:round; stroke-width:12; stroke-opacity:1; fill:none" points="2152.11,1428.65 2152.11,1688.65 2313.99,1688.65 2313.99,1428.65 2152.11,1428.65 "/>
<path clip-path="url(#clip982)" d="M2354.47 1442.74 L2354.47 1688.65 L2516.35 1688.65 L2516.35 1442.74 L2354.47 1442.74 L2354.47 1442.74  Z" fill="#009af9" fill-rule="evenodd" fill-opacity="1"/>
<polyline clip-path="url(#clip982)" style="stroke:#000000; stroke-linecap:round; stroke-linejoin:round; stroke-width:12; stroke-opacity:1; fill:none" points="2354.47,1442.74 2354.47,1688.65 2516.35,1688.65 2516.35,1442.74 2354.47,1442.74 "/>
<circle clip-path="url(#clip982)" style="fill:#009af9; stroke:none; fill-opacity:0" cx="614.243" cy="173.254" r="2"/>
<circle clip-path="url(#clip982)" style="fill:#009af9; stroke:none; fill-opacity:0" cx="816.594" cy="1060.96" r="2"/>
<circle clip-path="url(#clip982)" style="fill:#009af9; stroke:none; fill-opacity:0" cx="1018.95" cy="1207" r="2"/>
<circle clip-path="url(#clip982)" style="fill:#009af9; stroke:none; fill-opacity:0" cx="1221.3" cy="1282.6" r="2"/>
<circle clip-path="url(#clip982)" style="fill:#009af9; stroke:none; fill-opacity:0" cx="1423.65" cy="1330.92" r="2"/>
<circle clip-path="url(#clip982)" style="fill:#009af9; stroke:none; fill-opacity:0" cx="1626" cy="1365.24" r="2"/>
<circle clip-path="url(#clip982)" style="fill:#009af9; stroke:none; fill-opacity:0" cx="1828.35" cy="1391.24" r="2"/>
<circle clip-path="url(#clip982)" style="fill:#009af9; stroke:none; fill-opacity:0" cx="2030.7" cy="1411.83" r="2"/>
<circle clip-path="url(#clip982)" style="fill:#009af9; stroke:none; fill-opacity:0" cx="2233.05" cy="1428.65" r="2"/>
<circle clip-path="url(#clip982)" style="fill:#009af9; stroke:none; fill-opacity:0" cx="2435.41" cy="1442.74" r="2"/>
<path clip-path="url(#clip980)" d="M1831.39 310.936 L2564.3 310.936 L2564.3 181.336 L1831.39 181.336  Z" fill="#ffffff" fill-rule="evenodd" fill-opacity="1"/>
<polyline clip-path="url(#clip980)" style="stroke:#000000; stroke-linecap:round; stroke-linejoin:round; stroke-width:4; stroke-opacity:1; fill:none" points="1831.39,310.936 2564.3,310.936 2564.3,181.336 1831.39,181.336 1831.39,310.936 "/>
<path clip-path="url(#clip980)" d="M1856.88 272.056 L2009.8 272.056 L2009.8 220.216 L1856.88 220.216 L1856.88 272.056  Z" fill="#009af9" fill-rule="evenodd" fill-opacity="1"/>
<polyline clip-path="url(#clip980)" style="stroke:#000000; stroke-linecap:round; stroke-linejoin:round; stroke-width:15; stroke-opacity:1; fill:none" points="1856.88,272.056 2009.8,272.056 2009.8,220.216 1856.88,220.216 1856.88,272.056 "/>
<path clip-path="url(#clip980)" d="M2055.07 230.294 L2047.15 251.793 L2063.03 251.793 L2055.07 230.294 M2051.78 224.536 L2058.4 224.536 L2074.87 267.736 L2068.79 267.736 L2064.85 256.654 L2045.38 256.654 L2041.45 267.736 L2035.28 267.736 L2051.78 224.536 Z" fill="#000000" fill-rule="evenodd" fill-opacity="1" /><path clip-path="url(#clip980)" d="M2100.47 240.827 L2137.57 240.827 L2137.57 245.688 L2100.47 245.688 L2100.47 240.827 M2100.47 252.632 L2137.57 252.632 L2137.57 257.551 L2100.47 257.551 L2100.47 252.632 Z" fill="#000000" fill-rule="evenodd" fill-opacity="1" /><path clip-path="url(#clip980)" d="M2185.08 229.629 L2170.32 252.69 L2185.08 252.69 L2185.08 229.629 M2183.55 224.536 L2190.9 224.536 L2190.9 252.69 L2197.06 252.69 L2197.06 257.551 L2190.9 257.551 L2190.9 267.736 L2185.08 267.736 L2185.08 257.551 L2165.58 257.551 L2165.58 251.909 L2183.55 224.536 Z" fill="#000000" fill-rule="evenodd" fill-opacity="1" /><path clip-path="url(#clip980)" d="M2219.22 228.385 Q2214.71 228.385 2212.42 232.841 Q2210.17 237.268 2210.17 246.18 Q2210.17 255.063 2212.42 259.519 Q2214.71 263.946 2219.22 263.946 Q2223.77 263.946 2226.02 259.519 Q2228.31 255.063 2228.31 246.18 Q2228.31 237.268 2226.02 232.841 Q2223.77 228.385 2219.22 228.385 M2219.22 223.755 Q2226.49 223.755 2230.3 229.513 Q2234.15 235.242 2234.15 246.18 Q2234.15 257.088 2230.3 262.846 Q2226.49 268.575 2219.22 268.575 Q2211.96 268.575 2208.11 262.846 Q2204.29 257.088 2204.29 246.18 Q2204.29 235.242 2208.11 229.513 Q2211.96 223.755 2219.22 223.755 Z" fill="#000000" fill-rule="evenodd" fill-opacity="1" /><path clip-path="url(#clip980)" d="M2268.3 277.574 L2268.3 281.712 L2237.51 281.712 L2237.51 277.574 L2268.3 277.574 Z" fill="#000000" fill-rule="evenodd" fill-opacity="1" /><path clip-path="url(#clip980)" d="M2286.55 228.385 Q2282.04 228.385 2279.75 232.841 Q2277.5 237.268 2277.5 246.18 Q2277.5 255.063 2279.75 259.519 Q2282.04 263.946 2286.55 263.946 Q2291.1 263.946 2293.35 259.519 Q2295.64 255.063 2295.64 246.18 Q2295.64 237.268 2293.35 232.841 Q2291.1 228.385 2286.55 228.385 M2286.55 223.755 Q2293.82 223.755 2297.64 229.513 Q2301.48 235.242 2301.48 246.18 Q2301.48 257.088 2297.64 262.846 Q2293.82 268.575 2286.55 268.575 Q2279.29 268.575 2275.44 262.846 Q2271.62 257.088 2271.62 246.18 Q2271.62 235.242 2275.44 229.513 Q2279.29 223.755 2286.55 223.755 Z" fill="#000000" fill-rule="evenodd" fill-opacity="1" /><path clip-path="url(#clip980)" d="M2324.26 228.385 Q2319.74 228.385 2317.46 232.841 Q2315.2 237.268 2315.2 246.18 Q2315.2 255.063 2317.46 259.519 Q2319.74 263.946 2324.26 263.946 Q2328.8 263.946 2331.06 259.519 Q2333.34 255.063 2333.34 246.18 Q2333.34 237.268 2331.06 232.841 Q2328.8 228.385 2324.26 228.385 M2324.26 223.755 Q2331.52 223.755 2335.34 229.513 Q2339.19 235.242 2339.19 246.18 Q2339.19 257.088 2335.34 262.846 Q2331.52 268.575 2324.26 268.575 Q2316.99 268.575 2313.15 262.846 Q2309.33 257.088 2309.33 246.18 Q2309.33 235.242 2313.15 229.513 Q2316.99 223.755 2324.26 223.755 Z" fill="#000000" fill-rule="evenodd" fill-opacity="1" /><path clip-path="url(#clip980)" d="M2361.96 228.385 Q2357.45 228.385 2355.16 232.841 Q2352.9 237.268 2352.9 246.18 Q2352.9 255.063 2355.16 259.519 Q2357.45 263.946 2361.96 263.946 Q2366.5 263.946 2368.76 259.519 Q2371.04 255.063 2371.04 246.18 Q2371.04 237.268 2368.76 232.841 Q2366.5 228.385 2361.96 228.385 M2361.96 223.755 Q2369.22 223.755 2373.04 229.513 Q2376.89 235.242 2376.89 246.18 Q2376.89 257.088 2373.04 262.846 Q2369.22 268.575 2361.96 268.575 Q2354.7 268.575 2350.85 262.846 Q2347.03 257.088 2347.03 246.18 Q2347.03 235.242 2350.85 229.513 Q2354.7 223.755 2361.96 223.755 Z" fill="#000000" fill-rule="evenodd" fill-opacity="1" /><path clip-path="url(#clip980)" d="M2430.48 241.55 Q2432.47 237.962 2435.25 236.255 Q2438.03 234.548 2441.79 234.548 Q2446.85 234.548 2449.6 238.107 Q2452.35 241.637 2452.35 248.176 L2452.35 267.736 L2447 267.736 L2447 248.35 Q2447 243.691 2445.35 241.434 Q2443.7 239.177 2440.32 239.177 Q2436.18 239.177 2433.78 241.926 Q2431.37 244.675 2431.37 249.42 L2431.37 267.736 L2426.02 267.736 L2426.02 248.35 Q2426.02 243.662 2424.37 241.434 Q2422.72 239.177 2419.28 239.177 Q2415.2 239.177 2412.8 241.955 Q2410.4 244.704 2410.4 249.42 L2410.4 267.736 L2405.04 267.736 L2405.04 235.329 L2410.4 235.329 L2410.4 240.364 Q2412.22 237.383 2414.77 235.966 Q2417.31 234.548 2420.81 234.548 Q2424.34 234.548 2426.8 236.342 Q2429.29 238.136 2430.48 241.55 Z" fill="#000000" fill-rule="evenodd" fill-opacity="1" /><path clip-path="url(#clip980)" d="M2485.05 224.536 L2500.76 240.653 L2494.94 240.653 L2482.21 229.224 L2469.48 240.653 L2463.67 240.653 L2479.38 224.536 L2485.05 224.536 Z" fill="#000000" fill-rule="evenodd" fill-opacity="1" /><path clip-path="url(#clip980)" d="M2518.41 262.817 L2538.81 262.817 L2538.81 267.736 L2511.38 267.736 L2511.38 262.817 Q2514.71 259.374 2520.44 253.587 Q2526.19 247.771 2527.67 246.093 Q2530.48 242.939 2531.58 240.769 Q2532.7 238.57 2532.7 236.458 Q2532.7 233.014 2530.27 230.844 Q2527.87 228.674 2524 228.674 Q2521.25 228.674 2518.18 229.629 Q2515.14 230.584 2511.67 232.522 L2511.67 226.62 Q2515.2 225.202 2518.27 224.478 Q2521.33 223.755 2523.88 223.755 Q2530.59 223.755 2534.59 227.112 Q2538.58 230.468 2538.58 236.081 Q2538.58 238.743 2537.57 241.145 Q2536.58 243.518 2533.95 246.758 Q2533.23 247.598 2529.35 251.619 Q2525.47 255.613 2518.41 262.817 Z" fill="#000000" fill-rule="evenodd" fill-opacity="1" /></svg>
