<?xml version="1.0" encoding="utf-8"?>
<svg xmlns="http://www.w3.org/2000/svg" xmlns:xlink="http://www.w3.org/1999/xlink" width="672" height="480" viewBox="0 0 2688 1920">
<defs>
  <clipPath id="clip180">
    <rect x="0" y="0" width="2688" height="1920"/>
  </clipPath>
</defs>
<path clip-path="url(#clip180)" d="M0 1920 L2688 1920 L2688 0 L0 0  Z" fill="#ffffff" fill-rule="evenodd" fill-opacity="1"/>
<defs>
  <clipPath id="clip181">
    <rect x="537" y="0" width="1883" height="1883"/>
  </clipPath>
</defs>
<path clip-path="url(#clip180)" d="M345.816 1734.12 L2640.76 1734.12 L2640.76 127.792 L345.816 127.792  Z" fill="#ffffff" fill-rule="evenodd" fill-opacity="1"/>
<defs>
  <clipPath id="clip182">
    <rect x="345" y="127" width="2296" height="1607"/>
  </clipPath>
</defs>
<polyline clip-path="url(#clip182)" style="stroke:#5f9ea0; stroke-linecap:round; stroke-linejoin:round; stroke-width:8; stroke-opacity:0.4; fill:none" stroke-dasharray="32, 16, 4, 16" points="410.767,1734.12 410.767,127.792 "/>
<polyline clip-path="url(#clip182)" style="stroke:#5f9ea0; stroke-linecap:round; stroke-linejoin:round; stroke-width:8; stroke-opacity:0.4; fill:none" stroke-dasharray="32, 16, 4, 16" points="916.901,1734.12 916.901,127.792 "/>
<polyline clip-path="url(#clip182)" style="stroke:#5f9ea0; stroke-linecap:round; stroke-linejoin:round; stroke-width:8; stroke-opacity:0.4; fill:none" stroke-dasharray="32, 16, 4, 16" points="1423.03,1734.12 1423.03,127.792 "/>
<polyline clip-path="url(#clip182)" style="stroke:#5f9ea0; stroke-linecap:round; stroke-linejoin:round; stroke-width:8; stroke-opacity:0.4; fill:none" stroke-dasharray="32, 16, 4, 16" points="1929.17,1734.12 1929.17,127.792 "/>
<polyline clip-path="url(#clip182)" style="stroke:#5f9ea0; stroke-linecap:round; stroke-linejoin:round; stroke-width:8; stroke-opacity:0.4; fill:none" stroke-dasharray="32, 16, 4, 16" points="2435.3,1734.12 2435.3,127.792 "/>
<polyline clip-path="url(#clip180)" style="stroke:#000000; stroke-linecap:round; stroke-linejoin:round; stroke-width:4; stroke-opacity:1; fill:none" points="345.816,1734.12 2640.76,1734.12 "/>
<polyline clip-path="url(#clip180)" style="stroke:#000000; stroke-linecap:round; stroke-linejoin:round; stroke-width:4; stroke-opacity:1; fill:none" points="345.816,127.792 2640.76,127.792 "/>
<polyline clip-path="url(#clip180)" style="stroke:#000000; stroke-linecap:round; stroke-linejoin:round; stroke-width:4; stroke-opacity:1; fill:none" points="410.767,1734.12 410.767,1715.22 "/>
<polyline clip-path="url(#clip180)" style="stroke:#000000; stroke-linecap:round; stroke-linejoin:round; stroke-width:4; stroke-opacity:1; fill:none" points="916.901,1734.12 916.901,1715.22 "/>
<polyline clip-path="url(#clip180)" style="stroke:#000000; stroke-linecap:round; stroke-linejoin:round; stroke-width:4; stroke-opacity:1; fill:none" points="1423.03,1734.12 1423.03,1715.22 "/>
<polyline clip-path="url(#clip180)" style="stroke:#000000; stroke-linecap:round; stroke-linejoin:round; stroke-width:4; stroke-opacity:1; fill:none" points="1929.17,1734.12 1929.17,1715.22 "/>
<polyline clip-path="url(#clip180)" style="stroke:#000000; stroke-linecap:round; stroke-linejoin:round; stroke-width:4; stroke-opacity:1; fill:none" points="2435.3,1734.12 2435.3,1715.22 "/>
<path clip-path="url(#clip180)" d="M388.151 1767.34 Q384.54 1767.34 382.712 1770.9 Q380.906 1774.45 380.906 1781.58 Q380.906 1788.68 382.712 1792.25 Q384.54 1795.79 388.151 1795.79 Q391.786 1795.79 393.591 1792.25 Q395.42 1788.68 395.42 1781.58 Q395.42 1774.45 393.591 1770.9 Q391.786 1767.34 388.151 1767.34 M388.151 1763.64 Q393.962 1763.64 397.017 1768.24 Q400.096 1772.83 400.096 1781.58 Q400.096 1790.3 397.017 1794.91 Q393.962 1799.49 388.151 1799.49 Q382.341 1799.49 379.263 1794.91 Q376.207 1790.3 376.207 1781.58 Q376.207 1772.83 379.263 1768.24 Q382.341 1763.64 388.151 1763.64 Z" fill="#000000" fill-rule="evenodd" fill-opacity="1" /><path clip-path="url(#clip180)" d="M408.313 1792.94 L413.198 1792.94 L413.198 1798.82 L408.313 1798.82 L408.313 1792.94 Z" fill="#000000" fill-rule="evenodd" fill-opacity="1" /><path clip-path="url(#clip180)" d="M433.383 1767.34 Q429.771 1767.34 427.943 1770.9 Q426.137 1774.45 426.137 1781.58 Q426.137 1788.68 427.943 1792.25 Q429.771 1795.79 433.383 1795.79 Q437.017 1795.79 438.822 1792.25 Q440.651 1788.68 440.651 1781.58 Q440.651 1774.45 438.822 1770.9 Q437.017 1767.34 433.383 1767.34 M433.383 1763.64 Q439.193 1763.64 442.248 1768.24 Q445.327 1772.83 445.327 1781.58 Q445.327 1790.3 442.248 1794.91 Q439.193 1799.49 433.383 1799.49 Q427.572 1799.49 424.494 1794.91 Q421.438 1790.3 421.438 1781.58 Q421.438 1772.83 424.494 1768.24 Q427.572 1763.64 433.383 1763.64 Z" fill="#000000" fill-rule="evenodd" fill-opacity="1" /><path clip-path="url(#clip180)" d="M888.637 1794.89 L904.956 1794.89 L904.956 1798.82 L883.012 1798.82 L883.012 1794.89 Q885.674 1792.13 890.257 1787.5 Q894.864 1782.85 896.044 1781.51 Q898.29 1778.98 899.169 1777.25 Q900.072 1775.49 900.072 1773.8 Q900.072 1771.04 898.128 1769.31 Q896.206 1767.57 893.105 1767.57 Q890.906 1767.57 888.452 1768.34 Q886.021 1769.1 883.244 1770.65 L883.244 1765.93 Q886.068 1764.79 888.521 1764.21 Q890.975 1763.64 893.012 1763.64 Q898.382 1763.64 901.577 1766.32 Q904.771 1769.01 904.771 1773.5 Q904.771 1775.63 903.961 1777.55 Q903.174 1779.45 901.067 1782.04 Q900.489 1782.71 897.387 1785.93 Q894.285 1789.12 888.637 1794.89 Z" fill="#000000" fill-rule="evenodd" fill-opacity="1" /><path clip-path="url(#clip180)" d="M914.771 1792.94 L919.655 1792.94 L919.655 1798.82 L914.771 1798.82 L914.771 1792.94 Z" fill="#000000" fill-rule="evenodd" fill-opacity="1" /><path clip-path="url(#clip180)" d="M929.887 1764.26 L948.243 1764.26 L948.243 1768.2 L934.169 1768.2 L934.169 1776.67 Q935.188 1776.32 936.206 1776.16 Q937.225 1775.97 938.243 1775.97 Q944.03 1775.97 947.41 1779.15 Q950.789 1782.32 950.789 1787.73 Q950.789 1793.31 947.317 1796.41 Q943.845 1799.49 937.526 1799.49 Q935.35 1799.49 933.081 1799.12 Q930.836 1798.75 928.428 1798.01 L928.428 1793.31 Q930.512 1794.45 932.734 1795 Q934.956 1795.56 937.433 1795.56 Q941.438 1795.56 943.776 1793.45 Q946.114 1791.34 946.114 1787.73 Q946.114 1784.12 943.776 1782.02 Q941.438 1779.91 937.433 1779.91 Q935.558 1779.91 933.683 1780.33 Q931.831 1780.74 929.887 1781.62 L929.887 1764.26 Z" fill="#000000" fill-rule="evenodd" fill-opacity="1" /><path clip-path="url(#clip180)" d="M1390.2 1764.26 L1408.56 1764.26 L1408.56 1768.2 L1394.48 1768.2 L1394.48 1776.67 Q1395.5 1776.32 1396.52 1776.16 Q1397.54 1775.97 1398.56 1775.97 Q1404.34 1775.97 1407.72 1779.15 Q1411.1 1782.32 1411.1 1787.73 Q1411.1 1793.31 1407.63 1796.41 Q1404.16 1799.49 1397.84 1799.49 Q1395.66 1799.49 1393.39 1799.12 Q1391.15 1798.75 1388.74 1798.01 L1388.74 1793.31 Q1390.82 1794.45 1393.05 1795 Q1395.27 1795.56 1397.75 1795.56 Q1401.75 1795.56 1404.09 1793.45 Q1406.43 1791.34 1406.43 1787.73 Q1406.43 1784.12 1404.09 1782.02 Q1401.75 1779.91 1397.75 1779.91 Q1395.87 1779.91 1394 1780.33 Q1392.14 1780.74 1390.2 1781.62 L1390.2 1764.26 Z" fill="#000000" fill-rule="evenodd" fill-opacity="1" /><path clip-path="url(#clip180)" d="M1420.31 1792.94 L1425.2 1792.94 L1425.2 1798.82 L1420.31 1798.82 L1420.31 1792.94 Z" fill="#000000" fill-rule="evenodd" fill-opacity="1" /><path clip-path="url(#clip180)" d="M1445.38 1767.34 Q1441.77 1767.34 1439.94 1770.9 Q1438.14 1774.45 1438.14 1781.58 Q1438.14 1788.68 1439.94 1792.25 Q1441.77 1795.79 1445.38 1795.79 Q1449.02 1795.79 1450.82 1792.25 Q1452.65 1788.68 1452.65 1781.58 Q1452.65 1774.45 1450.82 1770.9 Q1449.02 1767.34 1445.38 1767.34 M1445.38 1763.64 Q1451.19 1763.64 1454.25 1768.24 Q1457.33 1772.83 1457.33 1781.58 Q1457.33 1790.3 1454.25 1794.91 Q1451.19 1799.49 1445.38 1799.49 Q1439.57 1799.49 1436.5 1794.91 Q1433.44 1790.3 1433.44 1781.58 Q1433.44 1772.83 1436.5 1768.24 Q1439.57 1763.64 1445.38 1763.64 Z" fill="#000000" fill-rule="evenodd" fill-opacity="1" /><path clip-path="url(#clip180)" d="M1895.49 1764.26 L1917.71 1764.26 L1917.71 1766.25 L1905.16 1798.82 L1900.28 1798.82 L1912.09 1768.2 L1895.49 1768.2 L1895.49 1764.26 Z" fill="#000000" fill-rule="evenodd" fill-opacity="1" /><path clip-path="url(#clip180)" d="M1926.83 1792.94 L1931.71 1792.94 L1931.71 1798.82 L1926.83 1798.82 L1926.83 1792.94 Z" fill="#000000" fill-rule="evenodd" fill-opacity="1" /><path clip-path="url(#clip180)" d="M1941.95 1764.26 L1960.3 1764.26 L1960.3 1768.2 L1946.23 1768.2 L1946.23 1776.67 Q1947.25 1776.32 1948.27 1776.16 Q1949.28 1775.97 1950.3 1775.97 Q1956.09 1775.97 1959.47 1779.15 Q1962.85 1782.32 1962.85 1787.73 Q1962.85 1793.31 1959.38 1796.41 Q1955.9 1799.49 1949.58 1799.49 Q1947.41 1799.49 1945.14 1799.12 Q1942.9 1798.75 1940.49 1798.01 L1940.49 1793.31 Q1942.57 1794.45 1944.79 1795 Q1947.02 1795.56 1949.49 1795.56 Q1953.5 1795.56 1955.83 1793.45 Q1958.17 1791.34 1958.17 1787.73 Q1958.17 1784.12 1955.83 1782.02 Q1953.5 1779.91 1949.49 1779.91 Q1947.62 1779.91 1945.74 1780.33 Q1943.89 1780.74 1941.95 1781.62 L1941.95 1764.26 Z" fill="#000000" fill-rule="evenodd" fill-opacity="1" /><path clip-path="url(#clip180)" d="M2387.37 1794.89 L2395.01 1794.89 L2395.01 1768.52 L2386.7 1770.19 L2386.7 1765.93 L2394.97 1764.26 L2399.64 1764.26 L2399.64 1794.89 L2407.28 1794.89 L2407.28 1798.82 L2387.37 1798.82 L2387.37 1794.89 Z" fill="#000000" fill-rule="evenodd" fill-opacity="1" /><path clip-path="url(#clip180)" d="M2426.73 1767.34 Q2423.11 1767.34 2421.29 1770.9 Q2419.48 1774.45 2419.48 1781.58 Q2419.48 1788.68 2421.29 1792.25 Q2423.11 1795.79 2426.73 1795.79 Q2430.36 1795.79 2432.17 1792.25 Q2433.99 1788.68 2433.99 1781.58 Q2433.99 1774.45 2432.17 1770.9 Q2430.36 1767.34 2426.73 1767.34 M2426.73 1763.64 Q2432.54 1763.64 2435.59 1768.24 Q2438.67 1772.83 2438.67 1781.58 Q2438.67 1790.3 2435.59 1794.91 Q2432.54 1799.49 2426.73 1799.49 Q2420.92 1799.49 2417.84 1794.91 Q2414.78 1790.3 2414.78 1781.58 Q2414.78 1772.83 2417.84 1768.24 Q2420.92 1763.64 2426.73 1763.64 Z" fill="#000000" fill-rule="evenodd" fill-opacity="1" /><path clip-path="url(#clip180)" d="M2446.89 1792.94 L2451.77 1792.94 L2451.77 1798.82 L2446.89 1798.82 L2446.89 1792.94 Z" fill="#000000" fill-rule="evenodd" fill-opacity="1" /><path clip-path="url(#clip180)" d="M2471.96 1767.34 Q2468.35 1767.34 2466.52 1770.9 Q2464.71 1774.45 2464.71 1781.58 Q2464.71 1788.68 2466.52 1792.25 Q2468.35 1795.79 2471.96 1795.79 Q2475.59 1795.79 2477.4 1792.25 Q2479.23 1788.68 2479.23 1781.58 Q2479.23 1774.45 2477.4 1770.9 Q2475.59 1767.34 2471.96 1767.34 M2471.96 1763.64 Q2477.77 1763.64 2480.82 1768.24 Q2483.9 1772.83 2483.9 1781.58 Q2483.9 1790.3 2480.82 1794.91 Q2477.77 1799.49 2471.96 1799.49 Q2466.15 1799.49 2463.07 1794.91 Q2460.01 1790.3 2460.01 1781.58 Q2460.01 1772.83 2463.07 1768.24 Q2466.15 1763.64 2471.96 1763.64 Z" fill="#000000" fill-rule="evenodd" fill-opacity="1" /><path clip-path="url(#clip180)" d="M1311.43 1835.78 L1351.63 1835.78 L1351.63 1841.19 L1334.76 1841.19 L1334.76 1883.3 L1328.3 1883.3 L1328.3 1841.19 L1311.43 1841.19 L1311.43 1835.78 Z" fill="#000000" fill-rule="evenodd" fill-opacity="1" /><path clip-path="url(#clip180)" d="M1355.58 1847.65 L1361.44 1847.65 L1361.44 1883.3 L1355.58 1883.3 L1355.58 1847.65 M1355.58 1833.78 L1361.44 1833.78 L1361.44 1841.19 L1355.58 1841.19 L1355.58 1833.78 Z" fill="#000000" fill-rule="evenodd" fill-opacity="1" /><path clip-path="url(#clip180)" d="M1401.44 1854.5 Q1403.64 1850.55 1406.7 1848.67 Q1409.75 1846.79 1413.89 1846.79 Q1419.46 1846.79 1422.48 1850.71 Q1425.51 1854.59 1425.51 1861.78 L1425.51 1883.3 L1419.62 1883.3 L1419.62 1861.98 Q1419.62 1856.85 1417.8 1854.37 Q1415.99 1851.89 1412.27 1851.89 Q1407.71 1851.89 1405.07 1854.91 Q1402.43 1857.93 1402.43 1863.15 L1402.43 1883.3 L1396.54 1883.3 L1396.54 1861.98 Q1396.54 1856.82 1394.73 1854.37 Q1392.91 1851.89 1389.13 1851.89 Q1384.64 1851.89 1382 1854.94 Q1379.36 1857.97 1379.36 1863.15 L1379.36 1883.3 L1373.47 1883.3 L1373.47 1847.65 L1379.36 1847.65 L1379.36 1853.19 Q1381.36 1849.91 1384.16 1848.35 Q1386.96 1846.79 1390.81 1846.79 Q1394.7 1846.79 1397.4 1848.77 Q1400.14 1850.74 1401.44 1854.5 Z" fill="#000000" fill-rule="evenodd" fill-opacity="1" /><path clip-path="url(#clip180)" d="M1467.68 1864.01 L1467.68 1866.88 L1440.75 1866.88 Q1441.13 1872.92 1444.38 1876.11 Q1447.66 1879.26 1453.48 1879.26 Q1456.86 1879.26 1460.01 1878.43 Q1463.19 1877.6 1466.31 1875.95 L1466.31 1881.49 Q1463.16 1882.82 1459.85 1883.52 Q1456.54 1884.22 1453.13 1884.22 Q1444.6 1884.22 1439.61 1879.26 Q1434.64 1874.29 1434.64 1865.83 Q1434.64 1857.07 1439.35 1851.95 Q1444.09 1846.79 1452.12 1846.79 Q1459.31 1846.79 1463.48 1851.44 Q1467.68 1856.06 1467.68 1864.01 M1461.82 1862.29 Q1461.76 1857.49 1459.12 1854.62 Q1456.51 1851.76 1452.18 1851.76 Q1447.28 1851.76 1444.32 1854.53 Q1441.39 1857.3 1440.94 1862.33 L1461.82 1862.29 Z" fill="#000000" fill-rule="evenodd" fill-opacity="1" /><path clip-path="url(#clip180)" d="M1512.08 1833.84 Q1507.82 1841.16 1505.75 1848.32 Q1503.68 1855.48 1503.68 1862.84 Q1503.68 1870.19 1505.75 1877.41 Q1507.85 1884.61 1512.08 1891.89 L1506.99 1891.89 Q1502.21 1884.41 1499.83 1877.19 Q1497.47 1869.96 1497.47 1862.84 Q1497.47 1855.74 1499.83 1848.54 Q1502.18 1841.35 1506.99 1833.84 L1512.08 1833.84 Z" fill="#000000" fill-rule="evenodd" fill-opacity="1" /><path clip-path="url(#clip180)" d="M1517.17 1835.78 L1524.08 1835.78 L1537.26 1855.32 L1550.34 1835.78 L1557.25 1835.78 L1540.44 1860.67 L1540.44 1883.3 L1533.98 1883.3 L1533.98 1860.67 L1517.17 1835.78 Z" fill="#000000" fill-rule="evenodd" fill-opacity="1" /><path clip-path="url(#clip180)" d="M1585.1 1864.01 L1585.1 1866.88 L1558.17 1866.88 Q1558.55 1872.92 1561.8 1876.11 Q1565.08 1879.26 1570.9 1879.26 Q1574.27 1879.26 1577.42 1878.43 Q1580.61 1877.6 1583.73 1875.95 L1583.73 1881.49 Q1580.58 1882.82 1577.27 1883.52 Q1573.96 1884.22 1570.55 1884.22 Q1562.02 1884.22 1557.02 1879.26 Q1552.06 1874.29 1552.06 1865.83 Q1552.06 1857.07 1556.77 1851.95 Q1561.51 1846.79 1569.53 1846.79 Q1576.72 1846.79 1580.89 1851.44 Q1585.1 1856.06 1585.1 1864.01 M1579.24 1862.29 Q1579.18 1857.49 1576.53 1854.62 Q1573.92 1851.76 1569.59 1851.76 Q1564.69 1851.76 1561.73 1854.53 Q1558.8 1857.3 1558.36 1862.33 L1579.24 1862.29 Z" fill="#000000" fill-rule="evenodd" fill-opacity="1" /><path clip-path="url(#clip180)" d="M1610.91 1865.38 Q1603.81 1865.38 1601.07 1867 Q1598.34 1868.63 1598.34 1872.54 Q1598.34 1875.66 1600.37 1877.51 Q1602.44 1879.32 1605.97 1879.32 Q1610.84 1879.32 1613.77 1875.88 Q1616.73 1872.42 1616.73 1866.69 L1616.73 1865.38 L1610.91 1865.38 M1622.59 1862.96 L1622.59 1883.3 L1616.73 1883.3 L1616.73 1877.89 Q1614.73 1881.14 1611.74 1882.7 Q1608.74 1884.22 1604.42 1884.22 Q1598.94 1884.22 1595.69 1881.17 Q1592.48 1878.08 1592.48 1872.92 Q1592.48 1866.91 1596.49 1863.85 Q1600.53 1860.8 1608.52 1860.8 L1616.73 1860.8 L1616.73 1860.23 Q1616.73 1856.18 1614.06 1853.99 Q1611.42 1851.76 1606.61 1851.76 Q1603.56 1851.76 1600.66 1852.49 Q1597.76 1853.22 1595.09 1854.69 L1595.09 1849.28 Q1598.3 1848.03 1601.33 1847.43 Q1604.35 1846.79 1607.22 1846.79 Q1614.95 1846.79 1618.77 1850.8 Q1622.59 1854.81 1622.59 1862.96 Z" fill="#000000" fill-rule="evenodd" fill-opacity="1" /><path clip-path="url(#clip180)" d="M1655.31 1853.13 Q1654.32 1852.55 1653.14 1852.3 Q1652 1852.01 1650.6 1852.01 Q1645.63 1852.01 1642.96 1855.26 Q1640.32 1858.47 1640.32 1864.52 L1640.32 1883.3 L1634.43 1883.3 L1634.43 1847.65 L1640.32 1847.65 L1640.32 1853.19 Q1642.16 1849.94 1645.12 1848.39 Q1648.08 1846.79 1652.32 1846.79 Q1652.92 1846.79 1653.65 1846.89 Q1654.39 1846.95 1655.28 1847.11 L1655.31 1853.13 Z" fill="#000000" fill-rule="evenodd" fill-opacity="1" /><path clip-path="url(#clip180)" d="M1660.53 1833.84 L1665.62 1833.84 Q1670.4 1841.35 1672.75 1848.54 Q1675.14 1855.74 1675.14 1862.84 Q1675.14 1869.96 1672.75 1877.19 Q1670.4 1884.41 1665.62 1891.89 L1660.53 1891.89 Q1664.76 1884.61 1666.83 1877.41 Q1668.93 1870.19 1668.93 1862.84 Q1668.93 1855.48 1666.83 1848.32 Q1664.76 1841.16 1660.53 1833.84 Z" fill="#000000" fill-rule="evenodd" fill-opacity="1" /><polyline clip-path="url(#clip182)" style="stroke:#5f9ea0; stroke-linecap:round; stroke-linejoin:round; stroke-width:8; stroke-opacity:0.4; fill:none" stroke-dasharray="32, 16, 4, 16" points="345.816,1688.65 2640.76,1688.65 "/>
<polyline clip-path="url(#clip182)" style="stroke:#5f9ea0; stroke-linecap:round; stroke-linejoin:round; stroke-width:8; stroke-opacity:0.4; fill:none" stroke-dasharray="32, 16, 4, 16" points="345.816,1291.2 2640.76,1291.2 "/>
<polyline clip-path="url(#clip182)" style="stroke:#5f9ea0; stroke-linecap:round; stroke-linejoin:round; stroke-width:8; stroke-opacity:0.4; fill:none" stroke-dasharray="32, 16, 4, 16" points="345.816,893.735 2640.76,893.735 "/>
<polyline clip-path="url(#clip182)" style="stroke:#5f9ea0; stroke-linecap:round; stroke-linejoin:round; stroke-width:8; stroke-opacity:0.4; fill:none" stroke-dasharray="32, 16, 4, 16" points="345.816,496.275 2640.76,496.275 "/>
<polyline clip-path="url(#clip180)" style="stroke:#000000; stroke-linecap:round; stroke-linejoin:round; stroke-width:4; stroke-opacity:1; fill:none" points="345.816,1734.12 345.816,127.792 "/>
<polyline clip-path="url(#clip180)" style="stroke:#000000; stroke-linecap:round; stroke-linejoin:round; stroke-width:4; stroke-opacity:1; fill:none" points="2640.76,1734.12 2640.76,127.792 "/>
<polyline clip-path="url(#clip180)" style="stroke:#000000; stroke-linecap:round; stroke-linejoin:round; stroke-width:4; stroke-opacity:1; fill:none" points="345.816,1688.65 364.713,1688.65 "/>
<polyline clip-path="url(#clip180)" style="stroke:#000000; stroke-linecap:round; stroke-linejoin:round; stroke-width:4; stroke-opacity:1; fill:none" points="345.816,1291.2 364.713,1291.2 "/>
<polyline clip-path="url(#clip180)" style="stroke:#000000; stroke-linecap:round; stroke-linejoin:round; stroke-width:4; stroke-opacity:1; fill:none" points="345.816,893.735 364.713,893.735 "/>
<polyline clip-path="url(#clip180)" style="stroke:#000000; stroke-linecap:round; stroke-linejoin:round; stroke-width:4; stroke-opacity:1; fill:none" points="345.816,496.275 364.713,496.275 "/>
<path clip-path="url(#clip180)" d="M293.551 1674.45 Q289.94 1674.45 288.112 1678.02 Q286.306 1681.56 286.306 1688.69 Q286.306 1695.8 288.112 1699.36 Q289.94 1702.9 293.551 1702.9 Q297.186 1702.9 298.991 1699.36 Q300.82 1695.8 300.82 1688.69 Q300.82 1681.56 298.991 1678.02 Q297.186 1674.45 293.551 1674.45 M293.551 1670.75 Q299.362 1670.75 302.417 1675.36 Q305.496 1679.94 305.496 1688.69 Q305.496 1697.42 302.417 1702.02 Q299.362 1706.61 293.551 1706.61 Q287.741 1706.61 284.663 1702.02 Q281.607 1697.42 281.607 1688.69 Q281.607 1679.94 284.663 1675.36 Q287.741 1670.75 293.551 1670.75 Z" fill="#000000" fill-rule="evenodd" fill-opacity="1" /><path clip-path="url(#clip180)" d="M118.622 1310.99 L126.261 1310.99 L126.261 1284.62 L117.951 1286.29 L117.951 1282.03 L126.214 1280.36 L130.89 1280.36 L130.89 1310.99 L138.529 1310.99 L138.529 1314.92 L118.622 1314.92 L118.622 1310.99 Z" fill="#000000" fill-rule="evenodd" fill-opacity="1" /><path clip-path="url(#clip180)" d="M147.974 1309.04 L152.858 1309.04 L152.858 1314.92 L147.974 1314.92 L147.974 1309.04 Z" fill="#000000" fill-rule="evenodd" fill-opacity="1" /><path clip-path="url(#clip180)" d="M173.043 1283.44 Q169.432 1283.44 167.603 1287.01 Q165.798 1290.55 165.798 1297.68 Q165.798 1304.78 167.603 1308.35 Q169.432 1311.89 173.043 1311.89 Q176.677 1311.89 178.483 1308.35 Q180.311 1304.78 180.311 1297.68 Q180.311 1290.55 178.483 1287.01 Q176.677 1283.44 173.043 1283.44 M173.043 1279.74 Q178.853 1279.74 181.909 1284.34 Q184.987 1288.93 184.987 1297.68 Q184.987 1306.4 181.909 1311.01 Q178.853 1315.59 173.043 1315.59 Q167.233 1315.59 164.154 1311.01 Q161.098 1306.4 161.098 1297.68 Q161.098 1288.93 164.154 1284.34 Q167.233 1279.74 173.043 1279.74 Z" fill="#000000" fill-rule="evenodd" fill-opacity="1" /><path clip-path="url(#clip180)" d="M221.376 1289.46 L210.797 1300.08 L221.376 1310.66 L218.621 1313.46 L207.996 1302.84 L197.371 1313.46 L194.64 1310.66 L205.195 1300.08 L194.64 1289.46 L197.371 1286.66 L207.996 1297.28 L218.621 1286.66 L221.376 1289.46 Z" fill="#000000" fill-rule="evenodd" fill-opacity="1" /><path clip-path="url(#clip180)" d="M233.737 1310.99 L241.376 1310.99 L241.376 1284.62 L233.066 1286.29 L233.066 1282.03 L241.33 1280.36 L246.005 1280.36 L246.005 1310.99 L253.644 1310.99 L253.644 1314.92 L233.737 1314.92 L233.737 1310.99 Z" fill="#000000" fill-rule="evenodd" fill-opacity="1" /><path clip-path="url(#clip180)" d="M273.089 1283.44 Q269.478 1283.44 267.649 1287.01 Q265.843 1290.55 265.843 1297.68 Q265.843 1304.78 267.649 1308.35 Q269.478 1311.89 273.089 1311.89 Q276.723 1311.89 278.528 1308.35 Q280.357 1304.78 280.357 1297.68 Q280.357 1290.55 278.528 1287.01 Q276.723 1283.44 273.089 1283.44 M273.089 1279.74 Q278.899 1279.74 281.954 1284.34 Q285.033 1288.93 285.033 1297.68 Q285.033 1306.4 281.954 1311.01 Q278.899 1315.59 273.089 1315.59 Q267.278 1315.59 264.2 1311.01 Q261.144 1306.4 261.144 1297.68 Q261.144 1288.93 264.2 1284.34 Q267.278 1279.74 273.089 1279.74 Z" fill="#000000" fill-rule="evenodd" fill-opacity="1" /><path clip-path="url(#clip180)" d="M297.709 1262.74 L288.117 1277.73 L297.709 1277.73 L297.709 1262.74 M296.713 1259.43 L301.49 1259.43 L301.49 1277.73 L305.496 1277.73 L305.496 1280.89 L301.49 1280.89 L301.49 1287.51 L297.709 1287.51 L297.709 1280.89 L285.033 1280.89 L285.033 1277.22 L296.713 1259.43 Z" fill="#000000" fill-rule="evenodd" fill-opacity="1" /><path clip-path="url(#clip180)" d="M121.839 913.528 L138.159 913.528 L138.159 917.463 L116.214 917.463 L116.214 913.528 Q118.876 910.773 123.46 906.143 Q128.066 901.491 129.247 900.148 Q131.492 897.625 132.372 895.889 Q133.275 894.129 133.275 892.44 Q133.275 889.685 131.33 887.949 Q129.409 886.213 126.307 886.213 Q124.108 886.213 121.654 886.977 Q119.224 887.741 116.446 889.292 L116.446 884.569 Q119.27 883.435 121.724 882.856 Q124.177 882.278 126.214 882.278 Q131.585 882.278 134.779 884.963 Q137.974 887.648 137.974 892.139 Q137.974 894.268 137.163 896.19 Q136.376 898.088 134.27 900.68 Q133.691 901.352 130.589 904.569 Q127.488 907.764 121.839 913.528 Z" fill="#000000" fill-rule="evenodd" fill-opacity="1" /><path clip-path="url(#clip180)" d="M147.974 911.583 L152.858 911.583 L152.858 917.463 L147.974 917.463 L147.974 911.583 Z" fill="#000000" fill-rule="evenodd" fill-opacity="1" /><path clip-path="url(#clip180)" d="M173.043 885.981 Q169.432 885.981 167.603 889.546 Q165.798 893.088 165.798 900.217 Q165.798 907.324 167.603 910.889 Q169.432 914.43 173.043 914.43 Q176.677 914.43 178.483 910.889 Q180.311 907.324 180.311 900.217 Q180.311 893.088 178.483 889.546 Q176.677 885.981 173.043 885.981 M173.043 882.278 Q178.853 882.278 181.909 886.884 Q184.987 891.467 184.987 900.217 Q184.987 908.944 181.909 913.551 Q178.853 918.134 173.043 918.134 Q167.233 918.134 164.154 913.551 Q161.098 908.944 161.098 900.217 Q161.098 891.467 164.154 886.884 Q167.233 882.278 173.043 882.278 Z" fill="#000000" fill-rule="evenodd" fill-opacity="1" /><path clip-path="url(#clip180)" d="M221.376 892 L210.797 902.625 L221.376 913.203 L218.621 916.004 L207.996 905.379 L197.371 916.004 L194.64 913.203 L205.195 902.625 L194.64 892 L197.371 889.199 L207.996 899.824 L218.621 889.199 L221.376 892 Z" fill="#000000" fill-rule="evenodd" fill-opacity="1" /><path clip-path="url(#clip180)" d="M233.737 913.528 L241.376 913.528 L241.376 887.162 L233.066 888.829 L233.066 884.569 L241.33 882.903 L246.005 882.903 L246.005 913.528 L253.644 913.528 L253.644 917.463 L233.737 917.463 L233.737 913.528 Z" fill="#000000" fill-rule="evenodd" fill-opacity="1" /><path clip-path="url(#clip180)" d="M273.089 885.981 Q269.478 885.981 267.649 889.546 Q265.843 893.088 265.843 900.217 Q265.843 907.324 267.649 910.889 Q269.478 914.43 273.089 914.43 Q276.723 914.43 278.528 910.889 Q280.357 907.324 280.357 900.217 Q280.357 893.088 278.528 889.546 Q276.723 885.981 273.089 885.981 M273.089 882.278 Q278.899 882.278 281.954 886.884 Q285.033 891.467 285.033 900.217 Q285.033 908.944 281.954 913.551 Q278.899 918.134 273.089 918.134 Q267.278 918.134 264.2 913.551 Q261.144 908.944 261.144 900.217 Q261.144 891.467 264.2 886.884 Q267.278 882.278 273.089 882.278 Z" fill="#000000" fill-rule="evenodd" fill-opacity="1" /><path clip-path="url(#clip180)" d="M297.709 865.282 L288.117 880.272 L297.709 880.272 L297.709 865.282 M296.713 861.972 L301.49 861.972 L301.49 880.272 L305.496 880.272 L305.496 883.432 L301.49 883.432 L301.49 890.052 L297.709 890.052 L297.709 883.432 L285.033 883.432 L285.033 879.764 L296.713 861.972 Z" fill="#000000" fill-rule="evenodd" fill-opacity="1" /><path clip-path="url(#clip180)" d="M131.978 501.369 Q135.335 502.086 137.21 504.355 Q139.108 506.623 139.108 509.957 Q139.108 515.072 135.589 517.873 Q132.071 520.674 125.589 520.674 Q123.413 520.674 121.099 520.234 Q118.807 519.818 116.353 518.961 L116.353 514.447 Q118.298 515.581 120.613 516.16 Q122.927 516.739 125.451 516.739 Q129.849 516.739 132.14 515.003 Q134.455 513.267 134.455 509.957 Q134.455 506.901 132.302 505.188 Q130.173 503.452 126.353 503.452 L122.326 503.452 L122.326 499.609 L126.538 499.609 Q129.988 499.609 131.816 498.244 Q133.645 496.855 133.645 494.262 Q133.645 491.6 131.747 490.188 Q129.872 488.753 126.353 488.753 Q124.432 488.753 122.233 489.17 Q120.034 489.586 117.395 490.466 L117.395 486.299 Q120.057 485.559 122.372 485.188 Q124.71 484.818 126.77 484.818 Q132.094 484.818 135.196 487.248 Q138.298 489.656 138.298 493.776 Q138.298 496.646 136.654 498.637 Q135.011 500.605 131.978 501.369 Z" fill="#000000" fill-rule="evenodd" fill-opacity="1" /><path clip-path="url(#clip180)" d="M147.974 514.123 L152.858 514.123 L152.858 520.003 L147.974 520.003 L147.974 514.123 Z" fill="#000000" fill-rule="evenodd" fill-opacity="1" /><path clip-path="url(#clip180)" d="M173.043 488.521 Q169.432 488.521 167.603 492.086 Q165.798 495.628 165.798 502.757 Q165.798 509.864 167.603 513.429 Q169.432 516.97 173.043 516.97 Q176.677 516.97 178.483 513.429 Q180.311 509.864 180.311 502.757 Q180.311 495.628 178.483 492.086 Q176.677 488.521 173.043 488.521 M173.043 484.818 Q178.853 484.818 181.909 489.424 Q184.987 494.008 184.987 502.757 Q184.987 511.484 181.909 516.091 Q178.853 520.674 173.043 520.674 Q167.233 520.674 164.154 516.091 Q161.098 511.484 161.098 502.757 Q161.098 494.008 164.154 489.424 Q167.233 484.818 173.043 484.818 Z" fill="#000000" fill-rule="evenodd" fill-opacity="1" /><path clip-path="url(#clip180)" d="M221.376 494.54 L210.797 505.165 L221.376 515.744 L218.621 518.544 L207.996 507.919 L197.371 518.544 L194.64 515.744 L205.195 505.165 L194.64 494.54 L197.371 491.739 L207.996 502.364 L218.621 491.739 L221.376 494.54 Z" fill="#000000" fill-rule="evenodd" fill-opacity="1" /><path clip-path="url(#clip180)" d="M233.737 516.068 L241.376 516.068 L241.376 489.702 L233.066 491.369 L233.066 487.109 L241.33 485.443 L246.005 485.443 L246.005 516.068 L253.644 516.068 L253.644 520.003 L233.737 520.003 L233.737 516.068 Z" fill="#000000" fill-rule="evenodd" fill-opacity="1" /><path clip-path="url(#clip180)" d="M273.089 488.521 Q269.478 488.521 267.649 492.086 Q265.843 495.628 265.843 502.757 Q265.843 509.864 267.649 513.429 Q269.478 516.97 273.089 516.97 Q276.723 516.97 278.528 513.429 Q280.357 509.864 280.357 502.757 Q280.357 495.628 278.528 492.086 Q276.723 488.521 273.089 488.521 M273.089 484.818 Q278.899 484.818 281.954 489.424 Q285.033 494.008 285.033 502.757 Q285.033 511.484 281.954 516.091 Q278.899 520.674 273.089 520.674 Q267.278 520.674 264.2 516.091 Q261.144 511.484 261.144 502.757 Q261.144 494.008 264.2 489.424 Q267.278 484.818 273.089 484.818 Z" fill="#000000" fill-rule="evenodd" fill-opacity="1" /><path clip-path="url(#clip180)" d="M297.709 467.823 L288.117 482.812 L297.709 482.812 L297.709 467.823 M296.713 464.512 L301.49 464.512 L301.49 482.812 L305.496 482.812 L305.496 485.972 L301.49 485.972 L301.49 492.592 L297.709 492.592 L297.709 485.972 L285.033 485.972 L285.033 482.305 L296.713 464.512 Z" fill="#000000" fill-rule="evenodd" fill-opacity="1" /><path clip-path="url(#clip180)" d="M15.678 1358.98 L21.9483 1358.98 Q20.1977 1362.64 19.3383 1365.89 Q18.479 1369.14 18.479 1372.16 Q18.479 1377.41 20.516 1380.28 Q22.553 1383.11 26.3088 1383.11 Q29.4598 1383.11 31.0831 1381.23 Q32.6745 1379.32 33.6612 1374.04 L34.4569 1370.16 Q35.8255 1362.96 39.2948 1359.56 Q42.7323 1356.12 48.5251 1356.12 Q55.4319 1356.12 58.9967 1360.77 Q62.5615 1365.38 62.5615 1374.33 Q62.5615 1377.7 61.7976 1381.52 Q61.0337 1385.31 59.5378 1389.38 L52.9174 1389.38 Q55.1136 1385.47 56.2276 1381.71 Q57.3416 1377.95 57.3416 1374.33 Q57.3416 1368.82 55.1773 1365.83 Q53.0129 1362.84 49.0025 1362.84 Q45.5014 1362.84 43.528 1365 Q41.5546 1367.13 40.568 1372.03 L39.8041 1375.95 Q38.3718 1383.14 35.3162 1386.36 Q32.2607 1389.57 26.818 1389.57 Q20.516 1389.57 16.8875 1385.15 Q13.2591 1380.69 13.2591 1372.89 Q13.2591 1369.55 13.8638 1366.08 Q14.4686 1362.61 15.678 1358.98 Z" fill="#000000" fill-rule="evenodd" fill-opacity="1" /><path clip-path="url(#clip180)" d="M15.869 1340.56 L25.9905 1340.56 L25.9905 1328.49 L30.542 1328.49 L30.542 1340.56 L49.8937 1340.56 Q54.2542 1340.56 55.4955 1339.38 Q56.7368 1338.17 56.7368 1334.51 L56.7368 1328.49 L61.6384 1328.49 L61.6384 1334.51 Q61.6384 1341.29 59.124 1343.87 Q56.5777 1346.44 49.8937 1346.44 L30.542 1346.44 L30.542 1350.74 L25.9905 1350.74 L25.9905 1346.44 L15.869 1346.44 L15.869 1340.56 Z" fill="#000000" fill-rule="evenodd" fill-opacity="1" /><path clip-path="url(#clip180)" d="M42.3504 1290.3 L45.2149 1290.3 L45.2149 1317.23 Q51.2623 1316.84 54.4452 1313.6 Q57.5962 1310.32 57.5962 1304.49 Q57.5962 1301.12 56.7687 1297.97 Q55.9411 1294.79 54.2861 1291.67 L59.8242 1291.67 Q61.161 1294.82 61.8612 1298.13 Q62.5615 1301.44 62.5615 1304.84 Q62.5615 1313.37 57.5962 1318.37 Q52.631 1323.34 44.1646 1323.34 Q35.4117 1323.34 30.2873 1318.63 Q25.1311 1313.88 25.1311 1305.86 Q25.1311 1298.67 29.7781 1294.5 Q34.3932 1290.3 42.3504 1290.3 M40.6316 1296.16 Q35.8255 1296.22 32.9609 1298.86 Q30.0964 1301.47 30.0964 1305.8 Q30.0964 1310.7 32.8654 1313.66 Q35.6345 1316.59 40.6634 1317.03 L40.6316 1296.16 Z" fill="#000000" fill-rule="evenodd" fill-opacity="1" /><path clip-path="url(#clip180)" d="M43.719 1264.49 Q43.719 1271.58 45.3422 1274.32 Q46.9655 1277.06 50.8804 1277.06 Q53.9996 1277.06 55.8457 1275.02 Q57.6599 1272.95 57.6599 1269.42 Q57.6599 1264.55 54.2224 1261.62 Q50.7531 1258.66 45.0239 1258.66 L43.719 1258.66 L43.719 1264.49 M41.3 1252.8 L61.6384 1252.8 L61.6384 1258.66 L56.2276 1258.66 Q59.4741 1260.67 61.0337 1263.66 Q62.5615 1266.65 62.5615 1270.98 Q62.5615 1276.45 59.5059 1279.7 Q56.4186 1282.91 51.2623 1282.91 Q45.2467 1282.91 42.1912 1278.9 Q39.1357 1274.86 39.1357 1266.87 L39.1357 1258.66 L38.5628 1258.66 Q34.5205 1258.66 32.3244 1261.33 Q30.0964 1263.98 30.0964 1268.78 Q30.0964 1271.84 30.8284 1274.73 Q31.5605 1277.63 33.0246 1280.3 L27.6137 1280.3 Q26.3724 1277.09 25.7677 1274.07 Q25.1311 1271.04 25.1311 1268.18 Q25.1311 1260.44 29.1415 1256.62 Q33.1519 1252.8 41.3 1252.8 Z" fill="#000000" fill-rule="evenodd" fill-opacity="1" /><path clip-path="url(#clip180)" d="M32.8336 1212.99 Q28.8869 1210.79 27.009 1207.74 Q25.1311 1204.68 25.1311 1200.54 Q25.1311 1194.97 29.046 1191.95 Q32.9291 1188.92 40.1224 1188.92 L61.6384 1188.92 L61.6384 1194.81 L40.3133 1194.81 Q35.1889 1194.81 32.7063 1196.63 Q30.2237 1198.44 30.2237 1202.17 Q30.2237 1206.72 33.2474 1209.36 Q36.2711 1212 41.491 1212 L61.6384 1212 L61.6384 1217.89 L40.3133 1217.89 Q35.1571 1217.89 32.7063 1219.7 Q30.2237 1221.52 30.2237 1225.3 Q30.2237 1229.79 33.2792 1232.43 Q36.3029 1235.08 41.491 1235.08 L61.6384 1235.08 L61.6384 1240.96 L25.9905 1240.96 L25.9905 1235.08 L31.5287 1235.08 Q28.2503 1233.07 26.6907 1230.27 Q25.1311 1227.47 25.1311 1223.62 Q25.1311 1219.73 27.1045 1217.03 Q29.0779 1214.29 32.8336 1212.99 Z" fill="#000000" fill-rule="evenodd" fill-opacity="1" /><path clip-path="url(#clip180)" d="M31.465 1135.87 Q30.8921 1136.85 30.6375 1138.03 Q30.351 1139.18 30.351 1140.58 Q30.351 1145.54 33.5975 1148.22 Q36.8122 1150.86 42.8596 1150.86 L61.6384 1150.86 L61.6384 1156.75 L25.9905 1156.75 L25.9905 1150.86 L31.5287 1150.86 Q28.2821 1149.01 26.7225 1146.05 Q25.1311 1143.09 25.1311 1138.86 Q25.1311 1138.25 25.2266 1137.52 Q25.2903 1136.79 25.4494 1135.9 L31.465 1135.87 Z" fill="#000000" fill-rule="evenodd" fill-opacity="1" /><path clip-path="url(#clip180)" d="M42.3504 1100.66 L45.2149 1100.66 L45.2149 1127.59 Q51.2623 1127.21 54.4452 1123.96 Q57.5962 1120.68 57.5962 1114.86 Q57.5962 1111.49 56.7687 1108.33 Q55.9411 1105.15 54.2861 1102.03 L59.8242 1102.03 Q61.161 1105.18 61.8612 1108.49 Q62.5615 1111.8 62.5615 1115.21 Q62.5615 1123.74 57.5962 1128.74 Q52.631 1133.7 44.1646 1133.7 Q35.4117 1133.7 30.2873 1128.99 Q25.1311 1124.25 25.1311 1116.23 Q25.1311 1109.04 29.7781 1104.87 Q34.3932 1100.66 42.3504 1100.66 M40.6316 1106.52 Q35.8255 1106.58 32.9609 1109.23 Q30.0964 1111.84 30.0964 1116.16 Q30.0964 1121.07 32.8654 1124.03 Q35.6345 1126.95 40.6634 1127.4 L40.6316 1106.52 Z" fill="#000000" fill-rule="evenodd" fill-opacity="1" /><path clip-path="url(#clip180)" d="M43.8463 1087.55 Q50.3075 1087.55 53.9996 1084.91 Q57.6599 1082.24 57.6599 1077.59 Q57.6599 1072.94 53.9996 1070.27 Q50.3075 1067.59 43.8463 1067.59 Q37.3851 1067.59 33.7248 1070.27 Q30.0327 1072.94 30.0327 1077.59 Q30.0327 1082.24 33.7248 1084.91 Q37.3851 1087.55 43.8463 1087.55 M56.2912 1067.59 Q59.4741 1069.44 61.0337 1072.27 Q62.5615 1075.07 62.5615 1079.02 Q62.5615 1085.48 57.4052 1089.56 Q52.249 1093.6 43.8463 1093.6 Q35.4436 1093.6 30.2873 1089.56 Q25.1311 1085.48 25.1311 1079.02 Q25.1311 1075.07 26.6907 1072.27 Q28.2185 1069.44 31.4013 1067.59 L25.9905 1067.59 L25.9905 1061.74 L75.1974 1061.74 L75.1974 1067.59 L56.2912 1067.59 Z" fill="#000000" fill-rule="evenodd" fill-opacity="1" /><path clip-path="url(#clip180)" d="M47.5702 1050.28 L25.9905 1050.28 L25.9905 1044.42 L47.3474 1044.42 Q52.4082 1044.42 54.9545 1042.45 Q57.4689 1040.48 57.4689 1036.53 Q57.4689 1031.79 54.4452 1029.05 Q51.4215 1026.28 46.2016 1026.28 L25.9905 1026.28 L25.9905 1020.42 L61.6384 1020.42 L61.6384 1026.28 L56.1639 1026.28 Q59.4104 1028.41 61.0019 1031.25 Q62.5615 1034.05 62.5615 1037.77 Q62.5615 1043.91 58.742 1047.1 Q54.9226 1050.28 47.5702 1050.28 M25.1311 1035.54 L25.1311 1035.54 Z" fill="#000000" fill-rule="evenodd" fill-opacity="1" /><path clip-path="url(#clip180)" d="M25.9905 1008.36 L25.9905 1002.51 L61.6384 1002.51 L61.6384 1008.36 L25.9905 1008.36 M12.1132 1008.36 L12.1132 1002.51 L19.5293 1002.51 L19.5293 1008.36 L12.1132 1008.36 Z" fill="#000000" fill-rule="evenodd" fill-opacity="1" /><path clip-path="url(#clip180)" d="M31.465 969.594 Q30.8921 970.581 30.6375 971.759 Q30.351 972.905 30.351 974.305 Q30.351 979.27 33.5975 981.944 Q36.8122 984.586 42.8596 984.586 L61.6384 984.586 L61.6384 990.474 L25.9905 990.474 L25.9905 984.586 L31.5287 984.586 Q28.2821 982.74 26.7225 979.78 Q25.1311 976.819 25.1311 972.586 Q25.1311 971.982 25.2266 971.249 Q25.2903 970.517 25.4494 969.626 L31.465 969.594 Z" fill="#000000" fill-rule="evenodd" fill-opacity="1" /><path clip-path="url(#clip180)" d="M42.3504 934.392 L45.2149 934.392 L45.2149 961.319 Q51.2623 960.937 54.4452 957.691 Q57.5962 954.412 57.5962 948.588 Q57.5962 945.214 56.7687 942.063 Q55.9411 938.88 54.2861 935.761 L59.8242 935.761 Q61.161 938.912 61.8612 942.222 Q62.5615 945.532 62.5615 948.938 Q62.5615 957.468 57.5962 962.465 Q52.631 967.43 44.1646 967.43 Q35.4117 967.43 30.2873 962.719 Q25.1311 957.977 25.1311 949.956 Q25.1311 942.763 29.7781 938.593 Q34.3932 934.392 42.3504 934.392 M40.6316 940.248 Q35.8255 940.312 32.9609 942.954 Q30.0964 945.564 30.0964 949.893 Q30.0964 954.794 32.8654 957.754 Q35.6345 960.682 40.6634 961.128 L40.6316 940.248 Z" fill="#000000" fill-rule="evenodd" fill-opacity="1" /><path clip-path="url(#clip180)" d="M32.8336 897.025 Q28.8869 894.829 27.009 891.774 Q25.1311 888.718 25.1311 884.58 Q25.1311 879.01 29.046 875.987 Q32.9291 872.963 40.1224 872.963 L61.6384 872.963 L61.6384 878.851 L40.3133 878.851 Q35.1889 878.851 32.7063 880.665 Q30.2237 882.48 30.2237 886.204 Q30.2237 890.755 33.2474 893.397 Q36.2711 896.039 41.491 896.039 L61.6384 896.039 L61.6384 901.927 L40.3133 901.927 Q35.1571 901.927 32.7063 903.741 Q30.2237 905.555 30.2237 909.343 Q30.2237 913.831 33.2792 916.473 Q36.3029 919.114 41.491 919.114 L61.6384 919.114 L61.6384 925.003 L25.9905 925.003 L25.9905 919.114 L31.5287 919.114 Q28.2503 917.109 26.6907 914.308 Q25.1311 911.507 25.1311 907.656 Q25.1311 903.773 27.1045 901.068 Q29.0779 898.33 32.8336 897.025 Z" fill="#000000" fill-rule="evenodd" fill-opacity="1" /><path clip-path="url(#clip180)" d="M42.3504 830.79 L45.2149 830.79 L45.2149 857.717 Q51.2623 857.335 54.4452 854.089 Q57.5962 850.81 57.5962 844.986 Q57.5962 841.612 56.7687 838.461 Q55.9411 835.278 54.2861 832.159 L59.8242 832.159 Q61.161 835.31 61.8612 838.62 Q62.5615 841.93 62.5615 845.336 Q62.5615 853.866 57.5962 858.863 Q52.631 863.828 44.1646 863.828 Q35.4117 863.828 30.2873 859.118 Q25.1311 854.375 25.1311 846.354 Q25.1311 839.161 29.7781 834.992 Q34.3932 830.79 42.3504 830.79 M40.6316 836.647 Q35.8255 836.71 32.9609 839.352 Q30.0964 841.962 30.0964 846.291 Q30.0964 851.192 32.8654 854.152 Q35.6345 857.081 40.6634 857.526 L40.6316 836.647 Z" fill="#000000" fill-rule="evenodd" fill-opacity="1" /><path clip-path="url(#clip180)" d="M40.1224 791.546 L61.6384 791.546 L61.6384 797.402 L40.3133 797.402 Q35.2526 797.402 32.7381 799.375 Q30.2237 801.349 30.2237 805.296 Q30.2237 810.038 33.2474 812.775 Q36.2711 815.512 41.491 815.512 L61.6384 815.512 L61.6384 821.401 L25.9905 821.401 L25.9905 815.512 L31.5287 815.512 Q28.314 813.412 26.7225 810.579 Q25.1311 807.714 25.1311 803.991 Q25.1311 797.848 28.9505 794.697 Q32.7381 791.546 40.1224 791.546 Z" fill="#000000" fill-rule="evenodd" fill-opacity="1" /><path clip-path="url(#clip180)" d="M15.869 774.072 L25.9905 774.072 L25.9905 762.009 L30.542 762.009 L30.542 774.072 L49.8937 774.072 Q54.2542 774.072 55.4955 772.894 Q56.7368 771.685 56.7368 768.024 L56.7368 762.009 L61.6384 762.009 L61.6384 768.024 Q61.6384 774.804 59.124 777.382 Q56.5777 779.96 49.8937 779.96 L30.542 779.96 L30.542 784.257 L25.9905 784.257 L25.9905 779.96 L15.869 779.96 L15.869 774.072 Z" fill="#000000" fill-rule="evenodd" fill-opacity="1" /><path clip-path="url(#clip180)" d="M12.1769 719.518 Q19.4975 723.783 26.6589 725.851 Q33.8203 727.92 41.1727 727.92 Q48.5251 727.92 55.7502 725.851 Q62.9434 723.751 70.2321 719.518 L70.2321 724.61 Q62.7524 729.384 55.5274 731.772 Q48.3023 734.127 41.1727 734.127 Q34.0749 734.127 26.8817 731.772 Q19.6884 729.416 12.1769 724.61 L12.1769 719.518 Z" fill="#000000" fill-rule="evenodd" fill-opacity="1" /><path clip-path="url(#clip180)" d="M15.869 702.362 L25.9905 702.362 L25.9905 690.299 L30.542 690.299 L30.542 702.362 L49.8937 702.362 Q54.2542 702.362 55.4955 701.184 Q56.7368 699.975 56.7368 696.315 L56.7368 690.299 L61.6384 690.299 L61.6384 696.315 Q61.6384 703.094 59.124 705.672 Q56.5777 708.25 49.8937 708.25 L30.542 708.25 L30.542 712.547 L25.9905 712.547 L25.9905 708.25 L15.869 708.25 L15.869 702.362 Z" fill="#000000" fill-rule="evenodd" fill-opacity="1" /><path clip-path="url(#clip180)" d="M30.0964 668.783 Q30.0964 673.494 33.7885 676.231 Q37.4488 678.968 43.8463 678.968 Q50.2438 678.968 53.9359 676.263 Q57.5962 673.525 57.5962 668.783 Q57.5962 664.104 53.9041 661.367 Q50.212 658.63 43.8463 658.63 Q37.5124 658.63 33.8203 661.367 Q30.0964 664.104 30.0964 668.783 M25.1311 668.783 Q25.1311 661.144 30.0964 656.784 Q35.0616 652.423 43.8463 652.423 Q52.5991 652.423 57.5962 656.784 Q62.5615 661.144 62.5615 668.783 Q62.5615 676.454 57.5962 680.814 Q52.5991 685.143 43.8463 685.143 Q35.0616 685.143 30.0964 680.814 Q25.1311 676.454 25.1311 668.783 Z" fill="#000000" fill-rule="evenodd" fill-opacity="1" /><path clip-path="url(#clip180)" d="M40.1224 613.083 L61.6384 613.083 L61.6384 618.939 L40.3133 618.939 Q35.2526 618.939 32.7381 620.913 Q30.2237 622.886 30.2237 626.833 Q30.2237 631.575 33.2474 634.313 Q36.2711 637.05 41.491 637.05 L61.6384 637.05 L61.6384 642.938 L25.9905 642.938 L25.9905 637.05 L31.5287 637.05 Q28.314 634.949 26.7225 632.116 Q25.1311 629.252 25.1311 625.528 Q25.1311 619.385 28.9505 616.234 Q32.7381 613.083 40.1224 613.083 Z" fill="#000000" fill-rule="evenodd" fill-opacity="1" /><path clip-path="url(#clip180)" d="M40.1224 571.77 L61.6384 571.77 L61.6384 577.626 L40.3133 577.626 Q35.2526 577.626 32.7381 579.599 Q30.2237 581.573 30.2237 585.519 Q30.2237 590.262 33.2474 592.999 Q36.2711 595.736 41.491 595.736 L61.6384 595.736 L61.6384 601.625 L25.9905 601.625 L25.9905 595.736 L31.5287 595.736 Q28.314 593.636 26.7225 590.803 Q25.1311 587.938 25.1311 584.215 Q25.1311 578.072 28.9505 574.921 Q32.7381 571.77 40.1224 571.77 Z" fill="#000000" fill-rule="evenodd" fill-opacity="1" /><path clip-path="url(#clip180)" d="M42.3504 529.597 L45.2149 529.597 L45.2149 556.524 Q51.2623 556.142 54.4452 552.895 Q57.5962 549.617 57.5962 543.792 Q57.5962 540.418 56.7687 537.267 Q55.9411 534.085 54.2861 530.965 L59.8242 530.965 Q61.161 534.116 61.8612 537.427 Q62.5615 540.737 62.5615 544.142 Q62.5615 552.672 57.5962 557.67 Q52.631 562.635 44.1646 562.635 Q35.4117 562.635 30.2873 557.924 Q25.1311 553.182 25.1311 545.161 Q25.1311 537.968 29.7781 533.798 Q34.3932 529.597 42.3504 529.597 M40.6316 535.453 Q35.8255 535.517 32.9609 538.159 Q30.0964 540.769 30.0964 545.097 Q30.0964 549.999 32.8654 552.959 Q35.6345 555.887 40.6634 556.333 L40.6316 535.453 Z" fill="#000000" fill-rule="evenodd" fill-opacity="1" /><path clip-path="url(#clip180)" d="M27.0408 497.259 L32.579 497.259 Q31.3059 499.742 30.6693 502.415 Q30.0327 505.089 30.0327 507.953 Q30.0327 512.314 31.3695 514.51 Q32.7063 516.674 35.3799 516.674 Q37.4169 516.674 38.5946 515.115 Q39.7404 513.555 40.7908 508.845 L41.2364 506.839 Q42.5732 500.601 45.0239 497.991 Q47.4429 495.349 51.8034 495.349 Q56.7687 495.349 59.6651 499.296 Q62.5615 503.211 62.5615 510.086 Q62.5615 512.95 61.9886 516.07 Q61.4475 519.157 60.3335 522.594 L54.2861 522.594 Q55.973 519.348 56.8323 516.197 Q57.6599 513.046 57.6599 509.959 Q57.6599 505.821 56.2594 503.593 Q54.8271 501.365 52.249 501.365 Q49.8619 501.365 48.5887 502.988 Q47.3156 504.58 46.1379 510.022 L45.6605 512.059 Q44.5147 517.502 42.1594 519.921 Q39.7722 522.34 35.6345 522.34 Q30.6056 522.34 27.8684 518.775 Q25.1311 515.21 25.1311 508.654 Q25.1311 505.407 25.6085 502.542 Q26.086 499.678 27.0408 497.259 Z" fill="#000000" fill-rule="evenodd" fill-opacity="1" /><path clip-path="url(#clip180)" d="M12.1769 486.947 L12.1769 481.854 Q19.6884 477.08 26.8817 474.724 Q34.0749 472.337 41.1727 472.337 Q48.3023 472.337 55.5274 474.724 Q62.7524 477.08 70.2321 481.854 L70.2321 486.947 Q62.9434 482.713 55.7502 480.644 Q48.5251 478.544 41.1727 478.544 Q33.8203 478.544 26.6589 480.644 Q19.4975 482.713 12.1769 486.947 Z" fill="#000000" fill-rule="evenodd" fill-opacity="1" /><path clip-path="url(#clip180)" d="M951.032 20.1573 L939.932 50.2555 L962.172 50.2555 L951.032 20.1573 M946.414 12.096 L955.69 12.096 L978.74 72.576 L970.233 72.576 L964.724 57.061 L937.461 57.061 L931.952 72.576 L923.324 72.576 L946.414 12.096 Z" fill="#000000" fill-rule="evenodd" fill-opacity="1" /><path clip-path="url(#clip180)" d="M1024.96 45.1919 L1024.96 72.576 L1017.51 72.576 L1017.51 45.4349 Q1017.51 38.994 1015 35.7938 Q1012.48 32.5936 1007.46 32.5936 Q1001.43 32.5936 997.941 36.4419 Q994.458 40.2903 994.458 46.9338 L994.458 72.576 L986.963 72.576 L986.963 27.2059 L994.458 27.2059 L994.458 34.2544 Q997.131 30.163 1000.74 28.1376 Q1004.38 26.1121 1009.12 26.1121 Q1016.94 26.1121 1020.95 30.9732 Q1024.96 35.7938 1024.96 45.1919 Z" fill="#000000" fill-rule="evenodd" fill-opacity="1" /><path clip-path="url(#clip180)" d="M1077.54 45.1919 L1077.54 72.576 L1070.09 72.576 L1070.09 45.4349 Q1070.09 38.994 1067.58 35.7938 Q1065.06 32.5936 1060.04 32.5936 Q1054.01 32.5936 1050.52 36.4419 Q1047.04 40.2903 1047.04 46.9338 L1047.04 72.576 L1039.54 72.576 L1039.54 27.2059 L1047.04 27.2059 L1047.04 34.2544 Q1049.71 30.163 1053.32 28.1376 Q1056.96 26.1121 1061.7 26.1121 Q1069.52 26.1121 1073.53 30.9732 Q1077.54 35.7938 1077.54 45.1919 Z" fill="#000000" fill-rule="evenodd" fill-opacity="1" /><path clip-path="url(#clip180)" d="M1091.64 54.671 L1091.64 27.2059 L1099.09 27.2059 L1099.09 54.3874 Q1099.09 60.8284 1101.6 64.0691 Q1104.12 67.2693 1109.14 67.2693 Q1115.17 67.2693 1118.66 63.421 Q1122.18 59.5726 1122.18 52.9291 L1122.18 27.2059 L1129.64 27.2059 L1129.64 72.576 L1122.18 72.576 L1122.18 65.6084 Q1119.47 69.7404 1115.86 71.7658 Q1112.3 73.7508 1107.56 73.7508 Q1099.74 73.7508 1095.69 68.8897 Q1091.64 64.0286 1091.64 54.671 M1110.39 26.1121 L1110.39 26.1121 Z" fill="#000000" fill-rule="evenodd" fill-opacity="1" /><path clip-path="url(#clip180)" d="M1165.61 49.7694 Q1156.57 49.7694 1153.09 51.8354 Q1149.61 53.9013 1149.61 58.8839 Q1149.61 62.8538 1152.2 65.2034 Q1154.83 67.5124 1159.33 67.5124 Q1165.53 67.5124 1169.25 63.1374 Q1173.02 58.7219 1173.02 51.4303 L1173.02 49.7694 L1165.61 49.7694 M1180.48 46.6907 L1180.48 72.576 L1173.02 72.576 L1173.02 65.6895 Q1170.47 69.8214 1166.66 71.8063 Q1162.85 73.7508 1157.34 73.7508 Q1150.38 73.7508 1146.24 69.8619 Q1142.15 65.9325 1142.15 59.3701 Q1142.15 51.7138 1147.26 47.825 Q1152.4 43.9361 1162.57 43.9361 L1173.02 43.9361 L1173.02 43.2069 Q1173.02 38.0623 1169.62 35.2672 Q1166.26 32.4315 1160.14 32.4315 Q1156.25 32.4315 1152.56 33.3632 Q1148.88 34.295 1145.48 36.1584 L1145.48 29.2718 Q1149.57 27.692 1153.42 26.9223 Q1157.26 26.1121 1160.91 26.1121 Q1170.75 26.1121 1175.61 31.2163 Q1180.48 36.3204 1180.48 46.6907 Z" fill="#000000" fill-rule="evenodd" fill-opacity="1" /><path clip-path="url(#clip180)" d="M1195.83 9.54393 L1203.28 9.54393 L1203.28 72.576 L1195.83 72.576 L1195.83 9.54393 Z" fill="#000000" fill-rule="evenodd" fill-opacity="1" /><path clip-path="url(#clip180)" d="M1281.83 14.0809 L1281.83 22.0612 Q1277.17 19.8332 1273.04 18.7395 Q1268.91 17.6457 1265.06 17.6457 Q1258.37 17.6457 1254.73 20.2383 Q1251.12 22.8309 1251.12 27.611 Q1251.12 31.6214 1253.51 33.6873 Q1255.94 35.7128 1262.67 36.9686 L1267.61 37.9813 Q1276.77 39.7232 1281.1 44.1387 Q1285.47 48.5136 1285.47 55.8863 Q1285.47 64.6767 1279.56 69.2137 Q1273.69 73.7508 1262.3 73.7508 Q1258.01 73.7508 1253.15 72.7785 Q1248.33 71.8063 1243.14 69.9024 L1243.14 61.4765 Q1248.13 64.2716 1252.91 65.6895 Q1257.69 67.1073 1262.3 67.1073 Q1269.31 67.1073 1273.12 64.3527 Q1276.93 61.598 1276.93 56.4939 Q1276.93 52.0379 1274.17 49.5264 Q1271.46 47.0148 1265.22 45.759 L1260.24 44.7868 Q1251.08 42.9639 1246.99 39.075 Q1242.9 35.1862 1242.9 28.2591 Q1242.9 20.2383 1248.53 15.6203 Q1254.2 11.0023 1264.13 11.0023 Q1268.38 11.0023 1272.8 11.7719 Q1277.21 12.5416 1281.83 14.0809 Z" fill="#000000" fill-rule="evenodd" fill-opacity="1" /><path clip-path="url(#clip180)" d="M1305.28 14.324 L1305.28 27.2059 L1320.64 27.2059 L1320.64 32.9987 L1305.28 32.9987 L1305.28 57.6282 Q1305.28 63.1779 1306.78 64.7578 Q1308.32 66.3376 1312.98 66.3376 L1320.64 66.3376 L1320.64 72.576 L1312.98 72.576 Q1304.35 72.576 1301.07 69.3758 Q1297.79 66.1351 1297.79 57.6282 L1297.79 32.9987 L1292.32 32.9987 L1292.32 27.2059 L1297.79 27.2059 L1297.79 14.324 L1305.28 14.324 Z" fill="#000000" fill-rule="evenodd" fill-opacity="1" /><path clip-path="url(#clip180)" d="M1369.25 48.0275 L1369.25 51.6733 L1334.98 51.6733 Q1335.46 59.3701 1339.59 63.421 Q1343.77 67.4314 1351.18 67.4314 Q1355.47 67.4314 1359.48 66.3781 Q1363.54 65.3249 1367.51 63.2184 L1367.51 70.267 Q1363.49 71.9684 1359.28 72.8596 Q1355.07 73.7508 1350.73 73.7508 Q1339.88 73.7508 1333.52 67.4314 Q1327.2 61.1119 1327.2 50.3365 Q1327.2 39.1965 1333.19 32.6746 Q1339.23 26.1121 1349.44 26.1121 Q1358.59 26.1121 1363.9 32.0264 Q1369.25 37.9003 1369.25 48.0275 M1361.79 45.84 Q1361.71 39.7232 1358.35 36.0774 Q1355.03 32.4315 1349.52 32.4315 Q1343.28 32.4315 1339.51 35.9558 Q1335.79 39.4801 1335.22 45.8805 L1361.79 45.84 Z" fill="#000000" fill-rule="evenodd" fill-opacity="1" /><path clip-path="url(#clip180)" d="M1402.1 49.7694 Q1393.07 49.7694 1389.58 51.8354 Q1386.1 53.9013 1386.1 58.8839 Q1386.1 62.8538 1388.69 65.2034 Q1391.32 67.5124 1395.82 67.5124 Q1402.02 67.5124 1405.75 63.1374 Q1409.51 58.7219 1409.51 51.4303 L1409.51 49.7694 L1402.1 49.7694 M1416.97 46.6907 L1416.97 72.576 L1409.51 72.576 L1409.51 65.6895 Q1406.96 69.8214 1403.15 71.8063 Q1399.35 73.7508 1393.84 73.7508 Q1386.87 73.7508 1382.74 69.8619 Q1378.65 65.9325 1378.65 59.3701 Q1378.65 51.7138 1383.75 47.825 Q1388.89 43.9361 1399.06 43.9361 L1409.51 43.9361 L1409.51 43.2069 Q1409.51 38.0623 1406.11 35.2672 Q1402.75 32.4315 1396.63 32.4315 Q1392.74 32.4315 1389.06 33.3632 Q1385.37 34.295 1381.97 36.1584 L1381.97 29.2718 Q1386.06 27.692 1389.91 26.9223 Q1393.76 26.1121 1397.4 26.1121 Q1407.24 26.1121 1412.11 31.2163 Q1416.97 36.3204 1416.97 46.6907 Z" fill="#000000" fill-rule="evenodd" fill-opacity="1" /><path clip-path="url(#clip180)" d="M1467.64 35.9153 Q1470.44 30.8922 1474.33 28.5022 Q1478.22 26.1121 1483.48 26.1121 Q1490.57 26.1121 1494.42 31.0947 Q1498.27 36.0368 1498.27 45.1919 L1498.27 72.576 L1490.77 72.576 L1490.77 45.4349 Q1490.77 38.913 1488.47 35.7533 Q1486.16 32.5936 1481.42 32.5936 Q1475.62 32.5936 1472.26 36.4419 Q1468.9 40.2903 1468.9 46.9338 L1468.9 72.576 L1461.41 72.576 L1461.41 45.4349 Q1461.41 38.8725 1459.1 35.7533 Q1456.79 32.5936 1451.97 32.5936 Q1446.25 32.5936 1442.89 36.4824 Q1439.53 40.3308 1439.53 46.9338 L1439.53 72.576 L1432.04 72.576 L1432.04 27.2059 L1439.53 27.2059 L1439.53 34.2544 Q1442.08 30.082 1445.65 28.0971 Q1449.21 26.1121 1454.11 26.1121 Q1459.06 26.1121 1462.5 28.6237 Q1465.98 31.1352 1467.64 35.9153 Z" fill="#000000" fill-rule="evenodd" fill-opacity="1" /><path clip-path="url(#clip180)" d="M1568.51 44.2197 Q1571.14 45.1109 1573.62 48.0275 Q1576.13 50.9442 1578.64 56.0483 L1586.94 72.576 L1578.15 72.576 L1570.42 57.061 Q1567.42 50.9847 1564.58 48.9997 Q1561.79 47.0148 1556.93 47.0148 L1548.01 47.0148 L1548.01 72.576 L1539.83 72.576 L1539.83 12.096 L1558.3 12.096 Q1568.67 12.096 1573.78 16.4305 Q1578.88 20.7649 1578.88 29.5149 Q1578.88 35.2267 1576.21 38.994 Q1573.57 42.7613 1568.51 44.2197 M1548.01 18.8205 L1548.01 40.2903 L1558.3 40.2903 Q1564.22 40.2903 1567.21 37.5762 Q1570.25 34.8216 1570.25 29.5149 Q1570.25 24.2082 1567.21 21.5346 Q1564.22 18.8205 1558.3 18.8205 L1548.01 18.8205 Z" fill="#000000" fill-rule="evenodd" fill-opacity="1" /><path clip-path="url(#clip180)" d="M1632.23 48.0275 L1632.23 51.6733 L1597.96 51.6733 Q1598.45 59.3701 1602.58 63.421 Q1606.75 67.4314 1614.16 67.4314 Q1618.46 67.4314 1622.47 66.3781 Q1626.52 65.3249 1630.49 63.2184 L1630.49 70.267 Q1626.48 71.9684 1622.27 72.8596 Q1618.05 73.7508 1613.72 73.7508 Q1602.86 73.7508 1596.5 67.4314 Q1590.18 61.1119 1590.18 50.3365 Q1590.18 39.1965 1596.18 32.6746 Q1602.21 26.1121 1612.42 26.1121 Q1621.58 26.1121 1626.88 32.0264 Q1632.23 37.9003 1632.23 48.0275 M1624.78 45.84 Q1624.7 39.7232 1621.33 36.0774 Q1618.01 32.4315 1612.5 32.4315 Q1606.27 32.4315 1602.5 35.9558 Q1598.77 39.4801 1598.2 45.8805 L1624.78 45.84 Z" fill="#000000" fill-rule="evenodd" fill-opacity="1" /><path clip-path="url(#clip180)" d="M1648.92 49.9314 Q1648.92 58.1548 1652.28 62.8538 Q1655.69 67.5124 1661.6 67.5124 Q1667.52 67.5124 1670.92 62.8538 Q1674.32 58.1548 1674.32 49.9314 Q1674.32 41.7081 1670.92 37.0496 Q1667.52 32.3505 1661.6 32.3505 Q1655.69 32.3505 1652.28 37.0496 Q1648.92 41.7081 1648.92 49.9314 M1674.32 65.7705 Q1671.97 69.8214 1668.37 71.8063 Q1664.8 73.7508 1659.78 73.7508 Q1651.55 73.7508 1646.37 67.1883 Q1641.22 60.6258 1641.22 49.9314 Q1641.22 39.2371 1646.37 32.6746 Q1651.55 26.1121 1659.78 26.1121 Q1664.8 26.1121 1668.37 28.0971 Q1671.97 30.0415 1674.32 34.0924 L1674.32 27.2059 L1681.77 27.2059 L1681.77 89.8329 L1674.32 89.8329 L1674.32 65.7705 Z" fill="#000000" fill-rule="evenodd" fill-opacity="1" /><path clip-path="url(#clip180)" d="M1696.36 54.671 L1696.36 27.2059 L1703.81 27.2059 L1703.81 54.3874 Q1703.81 60.8284 1706.32 64.0691 Q1708.83 67.2693 1713.86 67.2693 Q1719.89 67.2693 1723.38 63.421 Q1726.9 59.5726 1726.9 52.9291 L1726.9 27.2059 L1734.36 27.2059 L1734.36 72.576 L1726.9 72.576 L1726.9 65.6084 Q1724.19 69.7404 1720.58 71.7658 Q1717.02 73.7508 1712.28 73.7508 Q1704.46 73.7508 1700.41 68.8897 Q1696.36 64.0286 1696.36 54.671 M1715.11 26.1121 L1715.11 26.1121 Z" fill="#000000" fill-rule="evenodd" fill-opacity="1" /><path clip-path="url(#clip180)" d="M1749.71 27.2059 L1757.16 27.2059 L1757.16 72.576 L1749.71 72.576 L1749.71 27.2059 M1749.71 9.54393 L1757.16 9.54393 L1757.16 18.9825 L1749.71 18.9825 L1749.71 9.54393 Z" fill="#000000" fill-rule="evenodd" fill-opacity="1" /><path clip-path="url(#clip180)" d="M1799.05 34.1734 Q1797.79 33.4443 1796.29 33.1202 Q1794.84 32.7556 1793.05 32.7556 Q1786.73 32.7556 1783.33 36.8875 Q1779.97 40.9789 1779.97 48.6757 L1779.97 72.576 L1772.47 72.576 L1772.47 27.2059 L1779.97 27.2059 L1779.97 34.2544 Q1782.32 30.1225 1786.09 28.1376 Q1789.85 26.1121 1795.24 26.1121 Q1796.01 26.1121 1796.94 26.2337 Q1797.87 26.3147 1799.01 26.5172 L1799.05 34.1734 Z" fill="#000000" fill-rule="evenodd" fill-opacity="1" /><path clip-path="url(#clip180)" d="M1843.85 48.0275 L1843.85 51.6733 L1809.58 51.6733 Q1810.07 59.3701 1814.2 63.421 Q1818.37 67.4314 1825.78 67.4314 Q1830.08 67.4314 1834.09 66.3781 Q1838.14 65.3249 1842.11 63.2184 L1842.11 70.267 Q1838.1 71.9684 1833.89 72.8596 Q1829.67 73.7508 1825.34 73.7508 Q1814.48 73.7508 1808.12 67.4314 Q1801.8 61.1119 1801.8 50.3365 Q1801.8 39.1965 1807.8 32.6746 Q1813.83 26.1121 1824.04 26.1121 Q1833.2 26.1121 1838.5 32.0264 Q1843.85 37.9003 1843.85 48.0275 M1836.4 45.84 Q1836.32 39.7232 1832.95 36.0774 Q1829.63 32.4315 1824.12 32.4315 Q1817.88 32.4315 1814.12 35.9558 Q1810.39 39.4801 1809.82 45.8805 L1836.4 45.84 Z" fill="#000000" fill-rule="evenodd" fill-opacity="1" /><path clip-path="url(#clip180)" d="M1891.41 35.9153 Q1894.2 30.8922 1898.09 28.5022 Q1901.98 26.1121 1907.25 26.1121 Q1914.34 26.1121 1918.19 31.0947 Q1922.03 36.0368 1922.03 45.1919 L1922.03 72.576 L1914.54 72.576 L1914.54 45.4349 Q1914.54 38.913 1912.23 35.7533 Q1909.92 32.5936 1905.18 32.5936 Q1899.39 32.5936 1896.03 36.4419 Q1892.66 40.2903 1892.66 46.9338 L1892.66 72.576 L1885.17 72.576 L1885.17 45.4349 Q1885.17 38.8725 1882.86 35.7533 Q1880.55 32.5936 1875.73 32.5936 Q1870.02 32.5936 1866.66 36.4824 Q1863.3 40.3308 1863.3 46.9338 L1863.3 72.576 L1855.8 72.576 L1855.8 27.2059 L1863.3 27.2059 L1863.3 34.2544 Q1865.85 30.082 1869.41 28.0971 Q1872.98 26.1121 1877.88 26.1121 Q1882.82 26.1121 1886.26 28.6237 Q1889.75 31.1352 1891.41 35.9153 Z" fill="#000000" fill-rule="evenodd" fill-opacity="1" /><path clip-path="url(#clip180)" d="M1975.71 48.0275 L1975.71 51.6733 L1941.44 51.6733 Q1941.92 59.3701 1946.06 63.421 Q1950.23 67.4314 1957.64 67.4314 Q1961.93 67.4314 1965.95 66.3781 Q1970 65.3249 1973.97 63.2184 L1973.97 70.267 Q1969.96 71.9684 1965.74 72.8596 Q1961.53 73.7508 1957.2 73.7508 Q1946.34 73.7508 1939.98 67.4314 Q1933.66 61.1119 1933.66 50.3365 Q1933.66 39.1965 1939.66 32.6746 Q1945.69 26.1121 1955.9 26.1121 Q1965.05 26.1121 1970.36 32.0264 Q1975.71 37.9003 1975.71 48.0275 M1968.25 45.84 Q1968.17 39.7232 1964.81 36.0774 Q1961.49 32.4315 1955.98 32.4315 Q1949.74 32.4315 1945.97 35.9558 Q1942.25 39.4801 1941.68 45.8805 L1968.25 45.84 Z" fill="#000000" fill-rule="evenodd" fill-opacity="1" /><path clip-path="url(#clip180)" d="M2025.66 45.1919 L2025.66 72.576 L2018.2 72.576 L2018.2 45.4349 Q2018.2 38.994 2015.69 35.7938 Q2013.18 32.5936 2008.16 32.5936 Q2002.12 32.5936 1998.64 36.4419 Q1995.15 40.2903 1995.15 46.9338 L1995.15 72.576 L1987.66 72.576 L1987.66 27.2059 L1995.15 27.2059 L1995.15 34.2544 Q1997.83 30.163 2001.43 28.1376 Q2005.08 26.1121 2009.82 26.1121 Q2017.63 26.1121 2021.65 30.9732 Q2025.66 35.7938 2025.66 45.1919 Z" fill="#000000" fill-rule="evenodd" fill-opacity="1" /><path clip-path="url(#clip180)" d="M2047.9 14.324 L2047.9 27.2059 L2063.25 27.2059 L2063.25 32.9987 L2047.9 32.9987 L2047.9 57.6282 Q2047.9 63.1779 2049.39 64.7578 Q2050.93 66.3376 2055.59 66.3376 L2063.25 66.3376 L2063.25 72.576 L2055.59 72.576 Q2046.96 72.576 2043.68 69.3758 Q2040.4 66.1351 2040.4 57.6282 L2040.4 32.9987 L2034.93 32.9987 L2034.93 27.2059 L2040.4 27.2059 L2040.4 14.324 L2047.9 14.324 Z" fill="#000000" fill-rule="evenodd" fill-opacity="1" /><path clip-path="url(#clip182)" d="M532.239 1148.18 L532.239 1688.65 L694.202 1688.65 L694.202 1148.18 L532.239 1148.18 L532.239 1148.18  Z" fill="#009af9" fill-rule="evenodd" fill-opacity="1"/>
<polyline clip-path="url(#clip182)" style="stroke:#000000; stroke-linecap:round; stroke-linejoin:round; stroke-width:12; stroke-opacity:1; fill:none" points="532.239,1148.18 532.239,1688.65 694.202,1688.65 694.202,1148.18 532.239,1148.18 "/>
<path clip-path="url(#clip182)" d="M734.693 700.441 L734.693 1688.65 L896.655 1688.65 L896.655 700.441 L734.693 700.441 L734.693 700.441  Z" fill="#009af9" fill-rule="evenodd" fill-opacity="1"/>
<polyline clip-path="url(#clip182)" style="stroke:#000000; stroke-linecap:round; stroke-linejoin:round; stroke-width:12; stroke-opacity:1; fill:none" points="734.693,700.441 734.693,1688.65 896.655,1688.65 896.655,700.441 734.693,700.441 "/>
<path clip-path="url(#clip182)" d="M937.146 408.966 L937.146 1688.65 L1099.11 1688.65 L1099.11 408.966 L937.146 408.966 L937.146 408.966  Z" fill="#009af9" fill-rule="evenodd" fill-opacity="1"/>
<polyline clip-path="url(#clip182)" style="stroke:#000000; stroke-linecap:round; stroke-linejoin:round; stroke-width:12; stroke-opacity:1; fill:none" points="937.146,408.966 937.146,1688.65 1099.11,1688.65 1099.11,408.966 937.146,408.966 "/>
<path clip-path="url(#clip182)" d="M1139.6 173.254 L1139.6 1688.65 L1301.56 1688.65 L1301.56 173.254 L1139.6 173.254 L1139.6 173.254  Z" fill="#009af9" fill-rule="evenodd" fill-opacity="1"/>
<polyline clip-path="url(#clip182)" style="stroke:#000000; stroke-linecap:round; stroke-linejoin:round; stroke-width:12; stroke-opacity:1; fill:none" points="1139.6,173.254 1139.6,1688.65 1301.56,1688.65 1301.56,173.254 1139.6,173.254 "/>
<path clip-path="url(#clip182)" d="M1342.05 510.243 L1342.05 1688.65 L1504.02 1688.65 L1504.02 510.243 L1342.05 510.243 L1342.05 510.243  Z" fill="#009af9" fill-rule="evenodd" fill-opacity="1"/>
<polyline clip-path="url(#clip182)" style="stroke:#000000; stroke-linecap:round; stroke-linejoin:round; stroke-width:12; stroke-opacity:1; fill:none" points="1342.05,510.243 1342.05,1688.65 1504.02,1688.65 1504.02,510.243 1342.05,510.243 "/>
<path clip-path="url(#clip182)" d="M1544.51 776.246 L1544.51 1688.65 L1706.47 1688.65 L1706.47 776.246 L1544.51 776.246 L1544.51 776.246  Z" fill="#009af9" fill-rule="evenodd" fill-opacity="1"/>
<polyline clip-path="url(#clip182)" style="stroke:#000000; stroke-linecap:round; stroke-linejoin:round; stroke-width:12; stroke-opacity:1; fill:none" points="1544.51,776.246 1544.51,1688.65 1706.47,1688.65 1706.47,776.246 1544.51,776.246 "/>
<path clip-path="url(#clip182)" d="M1746.96 901.947 L1746.96 1688.65 L1908.92 1688.65 L1908.92 901.947 L1746.96 901.947 L1746.96 901.947  Z" fill="#009af9" fill-rule="evenodd" fill-opacity="1"/>
<polyline clip-path="url(#clip182)" style="stroke:#000000; stroke-linecap:round; stroke-linejoin:round; stroke-width:12; stroke-opacity:1; fill:none" points="1746.96,901.947 1746.96,1688.65 1908.92,1688.65 1908.92,901.947 1746.96,901.947 "/>
<path clip-path="url(#clip182)" d="M1949.41 984.252 L1949.41 1688.65 L2111.38 1688.65 L2111.38 984.252 L1949.41 984.252 L1949.41 984.252  Z" fill="#009af9" fill-rule="evenodd" fill-opacity="1"/>
<polyline clip-path="url(#clip182)" style="stroke:#000000; stroke-linecap:round; stroke-linejoin:round; stroke-width:12; stroke-opacity:1; fill:none" points="1949.41,984.252 1949.41,1688.65 2111.38,1688.65 2111.38,984.252 1949.41,984.252 "/>
<path clip-path="url(#clip182)" d="M2151.87 1044.28 L2151.87 1688.65 L2313.83 1688.65 L2313.83 1044.28 L2151.87 1044.28 L2151.87 1044.28  Z" fill="#009af9" fill-rule="evenodd" fill-opacity="1"/>
<polyline clip-path="url(#clip182)" style="stroke:#000000; stroke-linecap:round; stroke-linejoin:round; stroke-width:12; stroke-opacity:1; fill:none" points="2151.87,1044.28 2151.87,1688.65 2313.83,1688.65 2313.83,1044.28 2151.87,1044.28 "/>
<path clip-path="url(#clip182)" d="M2354.32 1090.8 L2354.32 1688.65 L2516.28 1688.65 L2516.28 1090.8 L2354.32 1090.8 L2354.32 1090.8  Z" fill="#009af9" fill-rule="evenodd" fill-opacity="1"/>
<polyline clip-path="url(#clip182)" style="stroke:#000000; stroke-linecap:round; stroke-linejoin:round; stroke-width:12; stroke-opacity:1; fill:none" points="2354.32,1090.8 2354.32,1688.65 2516.28,1688.65 2516.28,1090.8 2354.32,1090.8 "/>
<circle clip-path="url(#clip182)" style="fill:#009af9; stroke:none; fill-opacity:0" cx="613.22" cy="1148.18" r="2"/>
<circle clip-path="url(#clip182)" style="fill:#009af9; stroke:none; fill-opacity:0" cx="815.674" cy="700.441" r="2"/>
<circle clip-path="url(#clip182)" style="fill:#009af9; stroke:none; fill-opacity:0" cx="1018.13" cy="408.966" r="2"/>
<circle clip-path="url(#clip182)" style="fill:#009af9; stroke:none; fill-opacity:0" cx="1220.58" cy="173.254" r="2"/>
<circle clip-path="url(#clip182)" style="fill:#009af9; stroke:none; fill-opacity:0" cx="1423.03" cy="510.243" r="2"/>
<circle clip-path="url(#clip182)" style="fill:#009af9; stroke:none; fill-opacity:0" cx="1625.49" cy="776.246" r="2"/>
<circle clip-path="url(#clip182)" style="fill:#009af9; stroke:none; fill-opacity:0" cx="1827.94" cy="901.947" r="2"/>
<circle clip-path="url(#clip182)" style="fill:#009af9; stroke:none; fill-opacity:0" cx="2030.4" cy="984.252" r="2"/>
<circle clip-path="url(#clip182)" style="fill:#009af9; stroke:none; fill-opacity:0" cx="2232.85" cy="1044.28" r="2"/>
<circle clip-path="url(#clip182)" style="fill:#009af9; stroke:none; fill-opacity:0" cx="2435.3" cy="1090.8" r="2"/>
<path clip-path="url(#clip180)" d="M1576.03 310.936 L2564.26 310.936 L2564.26 181.336 L1576.03 181.336  Z" fill="#ffffff" fill-rule="evenodd" fill-opacity="1"/>
<polyline clip-path="url(#clip180)" style="stroke:#000000; stroke-linecap:round; stroke-linejoin:round; stroke-width:4; stroke-opacity:1; fill:none" points="1576.03,310.936 2564.26,310.936 2564.26,181.336 1576.03,181.336 1576.03,310.936 "/>
<path clip-path="url(#clip180)" d="M1601.53 272.056 L1754.52 272.056 L1754.52 220.216 L1601.53 220.216 L1601.53 272.056  Z" fill="#009af9" fill-rule="evenodd" fill-opacity="1"/>
<polyline clip-path="url(#clip180)" style="stroke:#000000; stroke-linecap:round; stroke-linejoin:round; stroke-width:15; stroke-opacity:1; fill:none" points="1601.53,272.056 1754.52,272.056 1754.52,220.216 1601.53,220.216 1601.53,272.056 "/>
<path clip-path="url(#clip180)" d="M1799.82 230.294 L1791.89 251.793 L1807.77 251.793 L1799.82 230.294 M1796.52 224.536 L1803.14 224.536 L1819.61 267.736 L1813.53 267.736 L1809.6 256.654 L1790.12 256.654 L1786.19 267.736 L1780.02 267.736 L1796.52 224.536 Z" fill="#000000" fill-rule="evenodd" fill-opacity="1" /><path clip-path="url(#clip180)" d="M1850.31 277.574 L1850.31 281.712 L1819.52 281.712 L1819.52 277.574 L1850.31 277.574 Z" fill="#000000" fill-rule="evenodd" fill-opacity="1" /><path clip-path="url(#clip180)" d="M1876.64 240.248 L1876.64 222.713 L1881.96 222.713 L1881.96 267.736 L1876.64 267.736 L1876.64 262.875 Q1874.96 265.769 1872.38 267.187 Q1869.84 268.575 1866.25 268.575 Q1860.38 268.575 1856.67 263.888 Q1853 259.2 1853 251.562 Q1853 243.923 1856.67 239.235 Q1860.38 234.548 1866.25 234.548 Q1869.84 234.548 1872.38 235.966 Q1874.96 237.355 1876.64 240.248 M1858.5 251.562 Q1858.5 257.435 1860.9 260.792 Q1863.33 264.119 1867.55 264.119 Q1871.78 264.119 1874.21 260.792 Q1876.64 257.435 1876.64 251.562 Q1876.64 245.688 1874.21 242.36 Q1871.78 239.004 1867.55 239.004 Q1863.33 239.004 1860.9 242.36 Q1858.5 245.688 1858.5 251.562 Z" fill="#000000" fill-rule="evenodd" fill-opacity="1" /><path clip-path="url(#clip180)" d="M1905.49 239.062 Q1901.2 239.062 1898.72 242.418 Q1896.23 245.746 1896.23 251.562 Q1896.23 257.378 1898.69 260.734 Q1901.18 264.062 1905.49 264.062 Q1909.74 264.062 1912.23 260.705 Q1914.72 257.349 1914.72 251.562 Q1914.72 245.804 1912.23 242.447 Q1909.74 239.062 1905.49 239.062 M1905.49 234.548 Q1912.43 234.548 1916.4 239.062 Q1920.36 243.576 1920.36 251.562 Q1920.36 259.519 1916.4 264.062 Q1912.43 268.575 1905.49 268.575 Q1898.51 268.575 1894.55 264.062 Q1890.61 259.519 1890.61 251.562 Q1890.61 243.576 1894.55 239.062 Q1898.51 234.548 1905.49 234.548 Z" fill="#000000" fill-rule="evenodd" fill-opacity="1" /><path clip-path="url(#clip180)" d="M1934.45 226.128 L1934.45 235.329 L1945.42 235.329 L1945.42 239.467 L1934.45 239.467 L1934.45 257.059 Q1934.45 261.023 1935.52 262.152 Q1936.62 263.28 1939.95 263.28 L1945.42 263.28 L1945.42 267.736 L1939.95 267.736 Q1933.78 267.736 1931.44 265.45 Q1929.1 263.136 1929.1 257.059 L1929.1 239.467 L1925.19 239.467 L1925.19 235.329 L1929.1 235.329 L1929.1 226.128 L1934.45 226.128 Z" fill="#000000" fill-rule="evenodd" fill-opacity="1" /><path clip-path="url(#clip180)" d="M1971.95 240.827 L2009.04 240.827 L2009.04 245.688 L1971.95 245.688 L1971.95 240.827 M1971.95 252.632 L2009.04 252.632 L2009.04 257.551 L1971.95 257.551 L1971.95 252.632 Z" fill="#000000" fill-rule="evenodd" fill-opacity="1" /><path clip-path="url(#clip180)" d="M2041.51 262.817 L2051.06 262.817 L2051.06 229.86 L2040.67 231.944 L2040.67 226.62 L2051 224.536 L2056.85 224.536 L2056.85 262.817 L2066.39 262.817 L2066.39 267.736 L2041.51 267.736 L2041.51 262.817 Z" fill="#000000" fill-rule="evenodd" fill-opacity="1" /><path clip-path="url(#clip180)" d="M2090.7 228.385 Q2086.19 228.385 2083.9 232.841 Q2081.64 237.268 2081.64 246.18 Q2081.64 255.063 2083.9 259.519 Q2086.19 263.946 2090.7 263.946 Q2095.24 263.946 2097.5 259.519 Q2099.79 255.063 2099.79 246.18 Q2099.79 237.268 2097.5 232.841 Q2095.24 228.385 2090.7 228.385 M2090.7 223.755 Q2097.96 223.755 2101.78 229.513 Q2105.63 235.242 2105.63 246.18 Q2105.63 257.088 2101.78 262.846 Q2097.96 268.575 2090.7 268.575 Q2083.44 268.575 2079.59 262.846 Q2075.77 257.088 2075.77 246.18 Q2075.77 235.242 2079.59 229.513 Q2083.44 223.755 2090.7 223.755 Z" fill="#000000" fill-rule="evenodd" fill-opacity="1" /><path clip-path="url(#clip180)" d="M2128.4 228.385 Q2123.89 228.385 2121.6 232.841 Q2119.35 237.268 2119.35 246.18 Q2119.35 255.063 2121.6 259.519 Q2123.89 263.946 2128.4 263.946 Q2132.94 263.946 2135.2 259.519 Q2137.49 255.063 2137.49 246.18 Q2137.49 237.268 2135.2 232.841 Q2132.94 228.385 2128.4 228.385 M2128.4 223.755 Q2135.66 223.755 2139.48 229.513 Q2143.33 235.242 2143.33 246.18 Q2143.33 257.088 2139.48 262.846 Q2135.66 268.575 2128.4 268.575 Q2121.14 268.575 2117.29 262.846 Q2113.47 257.088 2113.47 246.18 Q2113.47 235.242 2117.29 229.513 Q2121.14 223.755 2128.4 223.755 Z" fill="#000000" fill-rule="evenodd" fill-opacity="1" /><path clip-path="url(#clip180)" d="M2166.1 228.385 Q2161.59 228.385 2159.3 232.841 Q2157.05 237.268 2157.05 246.18 Q2157.05 255.063 2159.3 259.519 Q2161.59 263.946 2166.1 263.946 Q2170.65 263.946 2172.9 259.519 Q2175.19 255.063 2175.19 246.18 Q2175.19 237.268 2172.9 232.841 Q2170.65 228.385 2166.1 228.385 M2166.1 223.755 Q2173.37 223.755 2177.19 229.513 Q2181.03 235.242 2181.03 246.18 Q2181.03 257.088 2177.19 262.846 Q2173.37 268.575 2166.1 268.575 Q2158.84 268.575 2154.99 262.846 Q2151.17 257.088 2151.17 246.18 Q2151.17 235.242 2154.99 229.513 Q2158.84 223.755 2166.1 223.755 Z" fill="#000000" fill-rule="evenodd" fill-opacity="1" /><path clip-path="url(#clip180)" d="M2203.81 228.385 Q2199.29 228.385 2197.01 232.841 Q2194.75 237.268 2194.75 246.18 Q2194.75 255.063 2197.01 259.519 Q2199.29 263.946 2203.81 263.946 Q2208.35 263.946 2210.61 259.519 Q2212.89 255.063 2212.89 246.18 Q2212.89 237.268 2210.61 232.841 Q2208.35 228.385 2203.81 228.385 M2203.81 223.755 Q2211.07 223.755 2214.89 229.513 Q2218.74 235.242 2218.74 246.18 Q2218.74 257.088 2214.89 262.846 Q2211.07 268.575 2203.81 268.575 Q2196.54 268.575 2192.7 262.846 Q2188.88 257.088 2188.88 246.18 Q2188.88 235.242 2192.7 229.513 Q2196.54 223.755 2203.81 223.755 Z" fill="#000000" fill-rule="evenodd" fill-opacity="1" /><path clip-path="url(#clip180)" d="M2272.32 241.55 Q2274.32 237.962 2277.1 236.255 Q2279.88 234.548 2283.64 234.548 Q2288.7 234.548 2291.45 238.107 Q2294.2 241.637 2294.2 248.176 L2294.2 267.736 L2288.85 267.736 L2288.85 248.35 Q2288.85 243.691 2287.2 241.434 Q2285.55 239.177 2282.16 239.177 Q2278.03 239.177 2275.62 241.926 Q2273.22 244.675 2273.22 249.42 L2273.22 267.736 L2267.87 267.736 L2267.87 248.35 Q2267.87 243.662 2266.22 241.434 Q2264.57 239.177 2261.13 239.177 Q2257.05 239.177 2254.65 241.955 Q2252.24 244.704 2252.24 249.42 L2252.24 267.736 L2246.89 267.736 L2246.89 235.329 L2252.24 235.329 L2252.24 240.364 Q2254.07 237.383 2256.61 235.966 Q2259.16 234.548 2262.66 234.548 Q2266.19 234.548 2268.65 236.342 Q2271.14 238.136 2272.32 241.55 Z" fill="#000000" fill-rule="evenodd" fill-opacity="1" /><path clip-path="url(#clip180)" d="M2326.9 224.536 L2342.61 240.653 L2336.79 240.653 L2324.06 229.224 L2311.33 240.653 L2305.51 240.653 L2321.23 224.536 L2326.9 224.536 Z" fill="#000000" fill-rule="evenodd" fill-opacity="1" /><path clip-path="url(#clip180)" d="M2360.26 262.817 L2380.66 262.817 L2380.66 267.736 L2353.23 267.736 L2353.23 262.817 Q2356.55 259.374 2362.28 253.587 Q2368.04 247.771 2369.52 246.093 Q2372.32 242.939 2373.42 240.769 Q2374.55 238.57 2374.55 236.458 Q2374.55 233.014 2372.12 230.844 Q2369.72 228.674 2365.84 228.674 Q2363.09 228.674 2360.03 229.629 Q2356.99 230.584 2353.52 232.522 L2353.52 226.62 Q2357.05 225.202 2360.11 224.478 Q2363.18 223.755 2365.73 223.755 Q2372.44 223.755 2376.43 227.112 Q2380.43 230.468 2380.43 236.081 Q2380.43 238.743 2379.41 241.145 Q2378.43 243.518 2375.8 246.758 Q2375.07 247.598 2371.2 251.619 Q2367.32 255.613 2360.26 262.817 Z" fill="#000000" fill-rule="evenodd" fill-opacity="1" /><path clip-path="url(#clip180)" d="M2401.64 224.536 L2406.55 224.536 L2391.51 273.234 L2386.59 273.234 L2401.64 224.536 Z" fill="#000000" fill-rule="evenodd" fill-opacity="1" /><path clip-path="url(#clip180)" d="M2425.62 270.746 Q2423.37 276.533 2421.22 278.298 Q2419.08 280.063 2415.5 280.063 L2411.24 280.063 L2411.24 275.607 L2414.37 275.607 Q2416.57 275.607 2417.78 274.565 Q2419 273.523 2420.47 269.646 L2421.43 267.215 L2408.32 235.329 L2413.96 235.329 L2424.09 260.676 L2434.22 235.329 L2439.86 235.329 L2425.62 270.746 Z" fill="#000000" fill-rule="evenodd" fill-opacity="1" /><path clip-path="url(#clip180)" d="M2474.93 250.202 L2474.93 252.806 L2450.45 252.806 Q2450.8 258.303 2453.75 261.197 Q2456.73 264.062 2462.02 264.062 Q2465.09 264.062 2467.95 263.309 Q2470.85 262.557 2473.68 261.052 L2473.68 266.087 Q2470.82 267.302 2467.81 267.939 Q2464.8 268.575 2461.7 268.575 Q2453.95 268.575 2449.41 264.062 Q2444.89 259.548 2444.89 251.851 Q2444.89 243.894 2449.18 239.235 Q2453.49 234.548 2460.78 234.548 Q2467.32 234.548 2471.11 238.772 Q2474.93 242.968 2474.93 250.202 M2469.6 248.639 Q2469.55 244.27 2467.14 241.666 Q2464.77 239.062 2460.84 239.062 Q2456.38 239.062 2453.69 241.579 Q2451.03 244.096 2450.62 248.668 L2469.6 248.639 Z" fill="#000000" fill-rule="evenodd" fill-opacity="1" /><path clip-path="url(#clip180)" d="M2498.39 251.446 Q2491.94 251.446 2489.45 252.922 Q2486.96 254.397 2486.96 257.956 Q2486.96 260.792 2488.82 262.47 Q2490.7 264.119 2493.91 264.119 Q2498.34 264.119 2501 260.994 Q2503.69 257.841 2503.69 252.632 L2503.69 251.446 L2498.39 251.446 M2509.01 249.247 L2509.01 267.736 L2503.69 267.736 L2503.69 262.817 Q2501.87 265.769 2499.15 267.187 Q2496.43 268.575 2492.49 268.575 Q2487.51 268.575 2484.56 265.798 Q2481.64 262.991 2481.64 258.303 Q2481.64 252.835 2485.29 250.057 Q2488.96 247.279 2496.22 247.279 L2503.69 247.279 L2503.69 246.758 Q2503.69 243.084 2501.26 241.087 Q2498.86 239.062 2494.49 239.062 Q2491.71 239.062 2489.08 239.727 Q2486.44 240.393 2484.01 241.724 L2484.01 236.805 Q2486.94 235.676 2489.68 235.127 Q2492.43 234.548 2495.04 234.548 Q2502.07 234.548 2505.54 238.194 Q2509.01 241.839 2509.01 249.247 Z" fill="#000000" fill-rule="evenodd" fill-opacity="1" /><path clip-path="url(#clip180)" d="M2538.76 240.306 Q2537.86 239.785 2536.79 239.554 Q2535.75 239.293 2534.48 239.293 Q2529.96 239.293 2527.53 242.245 Q2525.13 245.167 2525.13 250.665 L2525.13 267.736 L2519.78 267.736 L2519.78 235.329 L2525.13 235.329 L2525.13 240.364 Q2526.81 237.412 2529.5 235.995 Q2532.19 234.548 2536.04 234.548 Q2536.59 234.548 2537.25 234.635 Q2537.92 234.692 2538.73 234.837 L2538.76 240.306 Z" fill="#000000" fill-rule="evenodd" fill-opacity="1" /></svg>
