<?xml version="1.0" encoding="utf-8"?>
<svg xmlns="http://www.w3.org/2000/svg" xmlns:xlink="http://www.w3.org/1999/xlink" width="672" height="480" viewBox="0 0 2688 1920">
<defs>
  <clipPath id="clip750">
    <rect x="0" y="0" width="2688" height="1920"/>
  </clipPath>
</defs>
<path clip-path="url(#clip750)" d="M0 1920 L2688 1920 L2688 0 L0 0  Z" fill="#ffffff" fill-rule="evenodd" fill-opacity="1"/>
<defs>
  <clipPath id="clip751">
    <rect x="537" y="0" width="1883" height="1883"/>
  </clipPath>
</defs>
<path clip-path="url(#clip750)" d="M375.978 1734.12 L2640.76 1734.12 L2640.76 127.792 L375.978 127.792  Z" fill="#ffffff" fill-rule="evenodd" fill-opacity="1"/>
<defs>
  <clipPath id="clip752">
    <rect x="375" y="127" width="2266" height="1607"/>
  </clipPath>
</defs>
<polyline clip-path="url(#clip752)" style="stroke:#5f9ea0; stroke-linecap:round; stroke-linejoin:round; stroke-width:8; stroke-opacity:0.4; fill:none" stroke-dasharray="32, 16, 4, 16" points="440.075,1734.12 440.075,127.792 "/>
<polyline clip-path="url(#clip752)" style="stroke:#5f9ea0; stroke-linecap:round; stroke-linejoin:round; stroke-width:8; stroke-opacity:0.4; fill:none" stroke-dasharray="32, 16, 4, 16" points="939.557,1734.12 939.557,127.792 "/>
<polyline clip-path="url(#clip752)" style="stroke:#5f9ea0; stroke-linecap:round; stroke-linejoin:round; stroke-width:8; stroke-opacity:0.4; fill:none" stroke-dasharray="32, 16, 4, 16" points="1439.04,1734.12 1439.04,127.792 "/>
<polyline clip-path="url(#clip752)" style="stroke:#5f9ea0; stroke-linecap:round; stroke-linejoin:round; stroke-width:8; stroke-opacity:0.4; fill:none" stroke-dasharray="32, 16, 4, 16" points="1938.52,1734.12 1938.52,127.792 "/>
<polyline clip-path="url(#clip752)" style="stroke:#5f9ea0; stroke-linecap:round; stroke-linejoin:round; stroke-width:8; stroke-opacity:0.4; fill:none" stroke-dasharray="32, 16, 4, 16" points="2438,1734.12 2438,127.792 "/>
<polyline clip-path="url(#clip750)" style="stroke:#000000; stroke-linecap:round; stroke-linejoin:round; stroke-width:4; stroke-opacity:1; fill:none" points="375.978,1734.12 2640.76,1734.12 "/>
<polyline clip-path="url(#clip750)" style="stroke:#000000; stroke-linecap:round; stroke-linejoin:round; stroke-width:4; stroke-opacity:1; fill:none" points="375.978,127.792 2640.76,127.792 "/>
<polyline clip-path="url(#clip750)" style="stroke:#000000; stroke-linecap:round; stroke-linejoin:round; stroke-width:4; stroke-opacity:1; fill:none" points="440.075,1734.12 440.075,1715.22 "/>
<polyline clip-path="url(#clip750)" style="stroke:#000000; stroke-linecap:round; stroke-linejoin:round; stroke-width:4; stroke-opacity:1; fill:none" points="939.557,1734.12 939.557,1715.22 "/>
<polyline clip-path="url(#clip750)" style="stroke:#000000; stroke-linecap:round; stroke-linejoin:round; stroke-width:4; stroke-opacity:1; fill:none" points="1439.04,1734.12 1439.04,1715.22 "/>
<polyline clip-path="url(#clip750)" style="stroke:#000000; stroke-linecap:round; stroke-linejoin:round; stroke-width:4; stroke-opacity:1; fill:none" points="1938.52,1734.12 1938.52,1715.22 "/>
<polyline clip-path="url(#clip750)" style="stroke:#000000; stroke-linecap:round; stroke-linejoin:round; stroke-width:4; stroke-opacity:1; fill:none" points="2438,1734.12 2438,1715.22 "/>
<path clip-path="url(#clip750)" d="M417.46 1767.34 Q413.848 1767.34 412.02 1770.9 Q410.214 1774.45 410.214 1781.58 Q410.214 1788.68 412.02 1792.25 Q413.848 1795.79 417.46 1795.79 Q421.094 1795.79 422.899 1792.25 Q424.728 1788.68 424.728 1781.58 Q424.728 1774.45 422.899 1770.9 Q421.094 1767.34 417.46 1767.34 M417.46 1763.64 Q423.27 1763.64 426.325 1768.24 Q429.404 1772.83 429.404 1781.58 Q429.404 1790.3 426.325 1794.91 Q423.27 1799.49 417.46 1799.49 Q411.649 1799.49 408.571 1794.91 Q405.515 1790.3 405.515 1781.58 Q405.515 1772.83 408.571 1768.24 Q411.649 1763.64 417.46 1763.64 Z" fill="#000000" fill-rule="evenodd" fill-opacity="1" /><path clip-path="url(#clip750)" d="M437.622 1792.94 L442.506 1792.94 L442.506 1798.82 L437.622 1798.82 L437.622 1792.94 Z" fill="#000000" fill-rule="evenodd" fill-opacity="1" /><path clip-path="url(#clip750)" d="M462.691 1767.34 Q459.08 1767.34 457.251 1770.9 Q455.445 1774.45 455.445 1781.58 Q455.445 1788.68 457.251 1792.25 Q459.08 1795.79 462.691 1795.79 Q466.325 1795.79 468.131 1792.25 Q469.959 1788.68 469.959 1781.58 Q469.959 1774.45 468.131 1770.9 Q466.325 1767.34 462.691 1767.34 M462.691 1763.64 Q468.501 1763.64 471.557 1768.24 Q474.635 1772.83 474.635 1781.58 Q474.635 1790.3 471.557 1794.91 Q468.501 1799.49 462.691 1799.49 Q456.881 1799.49 453.802 1794.91 Q450.746 1790.3 450.746 1781.58 Q450.746 1772.83 453.802 1768.24 Q456.881 1763.64 462.691 1763.64 Z" fill="#000000" fill-rule="evenodd" fill-opacity="1" /><path clip-path="url(#clip750)" d="M911.293 1794.89 L927.613 1794.89 L927.613 1798.82 L905.668 1798.82 L905.668 1794.89 Q908.33 1792.13 912.914 1787.5 Q917.52 1782.85 918.701 1781.51 Q920.946 1778.98 921.826 1777.25 Q922.728 1775.49 922.728 1773.8 Q922.728 1771.04 920.784 1769.31 Q918.863 1767.57 915.761 1767.57 Q913.562 1767.57 911.108 1768.34 Q908.678 1769.1 905.9 1770.65 L905.9 1765.93 Q908.724 1764.79 911.177 1764.21 Q913.631 1763.64 915.668 1763.64 Q921.039 1763.64 924.233 1766.32 Q927.427 1769.01 927.427 1773.5 Q927.427 1775.63 926.617 1777.55 Q925.83 1779.45 923.724 1782.04 Q923.145 1782.71 920.043 1785.93 Q916.941 1789.12 911.293 1794.89 Z" fill="#000000" fill-rule="evenodd" fill-opacity="1" /><path clip-path="url(#clip750)" d="M937.427 1792.94 L942.312 1792.94 L942.312 1798.82 L937.427 1798.82 L937.427 1792.94 Z" fill="#000000" fill-rule="evenodd" fill-opacity="1" /><path clip-path="url(#clip750)" d="M952.543 1764.26 L970.899 1764.26 L970.899 1768.2 L956.825 1768.2 L956.825 1776.67 Q957.844 1776.32 958.862 1776.16 Q959.881 1775.97 960.899 1775.97 Q966.686 1775.97 970.066 1779.15 Q973.446 1782.32 973.446 1787.73 Q973.446 1793.31 969.973 1796.41 Q966.501 1799.49 960.182 1799.49 Q958.006 1799.49 955.737 1799.12 Q953.492 1798.75 951.085 1798.01 L951.085 1793.31 Q953.168 1794.45 955.39 1795 Q957.612 1795.56 960.089 1795.56 Q964.094 1795.56 966.432 1793.45 Q968.77 1791.34 968.77 1787.73 Q968.77 1784.12 966.432 1782.02 Q964.094 1779.91 960.089 1779.91 Q958.214 1779.91 956.339 1780.33 Q954.487 1780.74 952.543 1781.62 L952.543 1764.26 Z" fill="#000000" fill-rule="evenodd" fill-opacity="1" /><path clip-path="url(#clip750)" d="M1406.2 1764.26 L1424.56 1764.26 L1424.56 1768.2 L1410.49 1768.2 L1410.49 1776.67 Q1411.5 1776.32 1412.52 1776.16 Q1413.54 1775.97 1414.56 1775.97 Q1420.35 1775.97 1423.73 1779.15 Q1427.11 1782.32 1427.11 1787.73 Q1427.11 1793.31 1423.63 1796.41 Q1420.16 1799.49 1413.84 1799.49 Q1411.67 1799.49 1409.4 1799.12 Q1407.15 1798.75 1404.74 1798.01 L1404.74 1793.31 Q1406.83 1794.45 1409.05 1795 Q1411.27 1795.56 1413.75 1795.56 Q1417.75 1795.56 1420.09 1793.45 Q1422.43 1791.34 1422.43 1787.73 Q1422.43 1784.12 1420.09 1782.02 Q1417.75 1779.91 1413.75 1779.91 Q1411.87 1779.91 1410 1780.33 Q1408.15 1780.74 1406.2 1781.62 L1406.2 1764.26 Z" fill="#000000" fill-rule="evenodd" fill-opacity="1" /><path clip-path="url(#clip750)" d="M1436.32 1792.94 L1441.2 1792.94 L1441.2 1798.82 L1436.32 1798.82 L1436.32 1792.94 Z" fill="#000000" fill-rule="evenodd" fill-opacity="1" /><path clip-path="url(#clip750)" d="M1461.39 1767.34 Q1457.78 1767.34 1455.95 1770.9 Q1454.14 1774.45 1454.14 1781.58 Q1454.14 1788.68 1455.95 1792.25 Q1457.78 1795.79 1461.39 1795.79 Q1465.02 1795.79 1466.83 1792.25 Q1468.66 1788.68 1468.66 1781.58 Q1468.66 1774.45 1466.83 1770.9 Q1465.02 1767.34 1461.39 1767.34 M1461.39 1763.64 Q1467.2 1763.64 1470.25 1768.24 Q1473.33 1772.83 1473.33 1781.58 Q1473.33 1790.3 1470.25 1794.91 Q1467.2 1799.49 1461.39 1799.49 Q1455.58 1799.49 1452.5 1794.91 Q1449.44 1790.3 1449.44 1781.58 Q1449.44 1772.83 1452.5 1768.24 Q1455.58 1763.64 1461.39 1763.64 Z" fill="#000000" fill-rule="evenodd" fill-opacity="1" /><path clip-path="url(#clip750)" d="M1904.84 1764.26 L1927.06 1764.26 L1927.06 1766.25 L1914.52 1798.82 L1909.63 1798.82 L1921.44 1768.2 L1904.84 1768.2 L1904.84 1764.26 Z" fill="#000000" fill-rule="evenodd" fill-opacity="1" /><path clip-path="url(#clip750)" d="M1936.18 1792.94 L1941.07 1792.94 L1941.07 1798.82 L1936.18 1798.82 L1936.18 1792.94 Z" fill="#000000" fill-rule="evenodd" fill-opacity="1" /><path clip-path="url(#clip750)" d="M1951.3 1764.26 L1969.65 1764.26 L1969.65 1768.2 L1955.58 1768.2 L1955.58 1776.67 Q1956.6 1776.32 1957.62 1776.16 Q1958.64 1775.97 1959.65 1775.97 Q1965.44 1775.97 1968.82 1779.15 Q1972.2 1782.32 1972.2 1787.73 Q1972.2 1793.31 1968.73 1796.41 Q1965.26 1799.49 1958.94 1799.49 Q1956.76 1799.49 1954.49 1799.12 Q1952.25 1798.75 1949.84 1798.01 L1949.84 1793.31 Q1951.92 1794.45 1954.15 1795 Q1956.37 1795.56 1958.84 1795.56 Q1962.85 1795.56 1965.19 1793.45 Q1967.52 1791.34 1967.52 1787.73 Q1967.52 1784.12 1965.19 1782.02 Q1962.85 1779.91 1958.84 1779.91 Q1956.97 1779.91 1955.09 1780.33 Q1953.24 1780.74 1951.3 1781.62 L1951.3 1764.26 Z" fill="#000000" fill-rule="evenodd" fill-opacity="1" /><path clip-path="url(#clip750)" d="M2390.07 1794.89 L2397.71 1794.89 L2397.71 1768.52 L2389.4 1770.19 L2389.4 1765.93 L2397.67 1764.26 L2402.34 1764.26 L2402.34 1794.89 L2409.98 1794.89 L2409.98 1798.82 L2390.07 1798.82 L2390.07 1794.89 Z" fill="#000000" fill-rule="evenodd" fill-opacity="1" /><path clip-path="url(#clip750)" d="M2429.43 1767.34 Q2425.81 1767.34 2423.99 1770.9 Q2422.18 1774.45 2422.18 1781.58 Q2422.18 1788.68 2423.99 1792.25 Q2425.81 1795.79 2429.43 1795.79 Q2433.06 1795.79 2434.87 1792.25 Q2436.69 1788.68 2436.69 1781.58 Q2436.69 1774.45 2434.87 1770.9 Q2433.06 1767.34 2429.43 1767.34 M2429.43 1763.64 Q2435.24 1763.64 2438.29 1768.24 Q2441.37 1772.83 2441.37 1781.58 Q2441.37 1790.3 2438.29 1794.91 Q2435.24 1799.49 2429.43 1799.49 Q2423.62 1799.49 2420.54 1794.91 Q2417.48 1790.3 2417.48 1781.58 Q2417.48 1772.83 2420.54 1768.24 Q2423.62 1763.64 2429.43 1763.64 Z" fill="#000000" fill-rule="evenodd" fill-opacity="1" /><path clip-path="url(#clip750)" d="M2449.59 1792.94 L2454.47 1792.94 L2454.47 1798.82 L2449.59 1798.82 L2449.59 1792.94 Z" fill="#000000" fill-rule="evenodd" fill-opacity="1" /><path clip-path="url(#clip750)" d="M2474.66 1767.34 Q2471.05 1767.34 2469.22 1770.9 Q2467.41 1774.45 2467.41 1781.58 Q2467.41 1788.68 2469.22 1792.25 Q2471.05 1795.79 2474.66 1795.79 Q2478.29 1795.79 2480.1 1792.25 Q2481.93 1788.68 2481.93 1781.58 Q2481.93 1774.45 2480.1 1770.9 Q2478.29 1767.34 2474.66 1767.34 M2474.66 1763.64 Q2480.47 1763.64 2483.52 1768.24 Q2486.6 1772.83 2486.6 1781.58 Q2486.6 1790.3 2483.52 1794.91 Q2480.47 1799.49 2474.66 1799.49 Q2468.85 1799.49 2465.77 1794.91 Q2462.71 1790.3 2462.71 1781.58 Q2462.71 1772.83 2465.77 1768.24 Q2468.85 1763.64 2474.66 1763.64 Z" fill="#000000" fill-rule="evenodd" fill-opacity="1" /><path clip-path="url(#clip750)" d="M1326.51 1835.78 L1366.71 1835.78 L1366.71 1841.19 L1349.84 1841.19 L1349.84 1883.3 L1343.38 1883.3 L1343.38 1841.19 L1326.51 1841.19 L1326.51 1835.78 Z" fill="#000000" fill-rule="evenodd" fill-opacity="1" /><path clip-path="url(#clip750)" d="M1370.66 1847.65 L1376.52 1847.65 L1376.52 1883.3 L1370.66 1883.3 L1370.66 1847.65 M1370.66 1833.78 L1376.52 1833.78 L1376.52 1841.19 L1370.66 1841.19 L1370.66 1833.78 Z" fill="#000000" fill-rule="evenodd" fill-opacity="1" /><path clip-path="url(#clip750)" d="M1416.53 1854.5 Q1418.72 1850.55 1421.78 1848.67 Q1424.83 1846.79 1428.97 1846.79 Q1434.54 1846.79 1437.56 1850.71 Q1440.59 1854.59 1440.59 1861.78 L1440.59 1883.3 L1434.7 1883.3 L1434.7 1861.98 Q1434.7 1856.85 1432.89 1854.37 Q1431.07 1851.89 1427.35 1851.89 Q1422.8 1851.89 1420.15 1854.91 Q1417.51 1857.93 1417.51 1863.15 L1417.51 1883.3 L1411.62 1883.3 L1411.62 1861.98 Q1411.62 1856.82 1409.81 1854.37 Q1408 1851.89 1404.21 1851.89 Q1399.72 1851.89 1397.08 1854.94 Q1394.44 1857.97 1394.44 1863.15 L1394.44 1883.3 L1388.55 1883.3 L1388.55 1847.65 L1394.44 1847.65 L1394.44 1853.19 Q1396.44 1849.91 1399.24 1848.35 Q1402.04 1846.79 1405.89 1846.79 Q1409.78 1846.79 1412.48 1848.77 Q1415.22 1850.74 1416.53 1854.5 Z" fill="#000000" fill-rule="evenodd" fill-opacity="1" /><path clip-path="url(#clip750)" d="M1482.76 1864.01 L1482.76 1866.88 L1455.83 1866.88 Q1456.22 1872.92 1459.46 1876.11 Q1462.74 1879.26 1468.57 1879.26 Q1471.94 1879.26 1475.09 1878.43 Q1478.27 1877.6 1481.39 1875.95 L1481.39 1881.49 Q1478.24 1882.82 1474.93 1883.52 Q1471.62 1884.22 1468.22 1884.22 Q1459.69 1884.22 1454.69 1879.26 Q1449.72 1874.29 1449.72 1865.83 Q1449.72 1857.07 1454.43 1851.95 Q1459.18 1846.79 1467.2 1846.79 Q1474.39 1846.79 1478.56 1851.44 Q1482.76 1856.06 1482.76 1864.01 M1476.9 1862.29 Q1476.84 1857.49 1474.2 1854.62 Q1471.59 1851.76 1467.26 1851.76 Q1462.36 1851.76 1459.4 1854.53 Q1456.47 1857.3 1456.02 1862.33 L1476.9 1862.29 Z" fill="#000000" fill-rule="evenodd" fill-opacity="1" /><path clip-path="url(#clip750)" d="M1527.16 1833.84 Q1522.9 1841.16 1520.83 1848.32 Q1518.76 1855.48 1518.76 1862.84 Q1518.76 1870.19 1520.83 1877.41 Q1522.93 1884.61 1527.16 1891.89 L1522.07 1891.89 Q1517.29 1884.41 1514.91 1877.19 Q1512.55 1869.96 1512.55 1862.84 Q1512.55 1855.74 1514.91 1848.54 Q1517.26 1841.35 1522.07 1833.84 L1527.16 1833.84 Z" fill="#000000" fill-rule="evenodd" fill-opacity="1" /><path clip-path="url(#clip750)" d="M1532.25 1835.78 L1539.16 1835.78 L1552.34 1855.32 L1565.42 1835.78 L1572.33 1835.78 L1555.52 1860.67 L1555.52 1883.3 L1549.06 1883.3 L1549.06 1860.67 L1532.25 1835.78 Z" fill="#000000" fill-rule="evenodd" fill-opacity="1" /><path clip-path="url(#clip750)" d="M1600.18 1864.01 L1600.18 1866.88 L1573.25 1866.88 Q1573.63 1872.92 1576.88 1876.11 Q1580.16 1879.26 1585.98 1879.26 Q1589.35 1879.26 1592.51 1878.43 Q1595.69 1877.6 1598.81 1875.95 L1598.81 1881.49 Q1595.66 1882.82 1592.35 1883.52 Q1589.04 1884.22 1585.63 1884.22 Q1577.1 1884.22 1572.1 1879.26 Q1567.14 1874.29 1567.14 1865.83 Q1567.14 1857.07 1571.85 1851.95 Q1576.59 1846.79 1584.61 1846.79 Q1591.81 1846.79 1595.97 1851.44 Q1600.18 1856.06 1600.18 1864.01 M1594.32 1862.29 Q1594.26 1857.49 1591.61 1854.62 Q1589 1851.76 1584.68 1851.76 Q1579.77 1851.76 1576.81 1854.53 Q1573.89 1857.3 1573.44 1862.33 L1594.32 1862.29 Z" fill="#000000" fill-rule="evenodd" fill-opacity="1" /><path clip-path="url(#clip750)" d="M1625.99 1865.38 Q1618.89 1865.38 1616.15 1867 Q1613.42 1868.63 1613.42 1872.54 Q1613.42 1875.66 1615.45 1877.51 Q1617.52 1879.32 1621.06 1879.32 Q1625.93 1879.32 1628.85 1875.88 Q1631.81 1872.42 1631.81 1866.69 L1631.81 1865.38 L1625.99 1865.38 M1637.67 1862.96 L1637.67 1883.3 L1631.81 1883.3 L1631.81 1877.89 Q1629.81 1881.14 1626.82 1882.7 Q1623.82 1884.22 1619.5 1884.22 Q1614.02 1884.22 1610.78 1881.17 Q1607.56 1878.08 1607.56 1872.92 Q1607.56 1866.91 1611.57 1863.85 Q1615.61 1860.8 1623.6 1860.8 L1631.81 1860.8 L1631.81 1860.23 Q1631.81 1856.18 1629.14 1853.99 Q1626.5 1851.76 1621.69 1851.76 Q1618.64 1851.76 1615.74 1852.49 Q1612.84 1853.22 1610.17 1854.69 L1610.17 1849.28 Q1613.39 1848.03 1616.41 1847.43 Q1619.43 1846.79 1622.3 1846.79 Q1630.03 1846.79 1633.85 1850.8 Q1637.67 1854.81 1637.67 1862.96 Z" fill="#000000" fill-rule="evenodd" fill-opacity="1" /><path clip-path="url(#clip750)" d="M1670.39 1853.13 Q1669.4 1852.55 1668.23 1852.3 Q1667.08 1852.01 1665.68 1852.01 Q1660.71 1852.01 1658.04 1855.26 Q1655.4 1858.47 1655.4 1864.52 L1655.4 1883.3 L1649.51 1883.3 L1649.51 1847.65 L1655.4 1847.65 L1655.4 1853.19 Q1657.24 1849.94 1660.2 1848.39 Q1663.16 1846.79 1667.4 1846.79 Q1668 1846.79 1668.73 1846.89 Q1669.47 1846.95 1670.36 1847.11 L1670.39 1853.13 Z" fill="#000000" fill-rule="evenodd" fill-opacity="1" /><path clip-path="url(#clip750)" d="M1675.61 1833.84 L1680.7 1833.84 Q1685.48 1841.35 1687.83 1848.54 Q1690.22 1855.74 1690.22 1862.84 Q1690.22 1869.96 1687.83 1877.19 Q1685.48 1884.41 1680.7 1891.89 L1675.61 1891.89 Q1679.84 1884.61 1681.91 1877.41 Q1684.01 1870.19 1684.01 1862.84 Q1684.01 1855.48 1681.91 1848.32 Q1679.84 1841.16 1675.61 1833.84 Z" fill="#000000" fill-rule="evenodd" fill-opacity="1" /><polyline clip-path="url(#clip752)" style="stroke:#5f9ea0; stroke-linecap:round; stroke-linejoin:round; stroke-width:8; stroke-opacity:0.4; fill:none" stroke-dasharray="32, 16, 4, 16" points="375.978,1688.65 2640.76,1688.65 "/>
<polyline clip-path="url(#clip752)" style="stroke:#5f9ea0; stroke-linecap:round; stroke-linejoin:round; stroke-width:8; stroke-opacity:0.4; fill:none" stroke-dasharray="32, 16, 4, 16" points="375.978,1387.32 2640.76,1387.32 "/>
<polyline clip-path="url(#clip752)" style="stroke:#5f9ea0; stroke-linecap:round; stroke-linejoin:round; stroke-width:8; stroke-opacity:0.4; fill:none" stroke-dasharray="32, 16, 4, 16" points="375.978,1085.98 2640.76,1085.98 "/>
<polyline clip-path="url(#clip752)" style="stroke:#5f9ea0; stroke-linecap:round; stroke-linejoin:round; stroke-width:8; stroke-opacity:0.4; fill:none" stroke-dasharray="32, 16, 4, 16" points="375.978,784.639 2640.76,784.639 "/>
<polyline clip-path="url(#clip752)" style="stroke:#5f9ea0; stroke-linecap:round; stroke-linejoin:round; stroke-width:8; stroke-opacity:0.4; fill:none" stroke-dasharray="32, 16, 4, 16" points="375.978,483.3 2640.76,483.3 "/>
<polyline clip-path="url(#clip752)" style="stroke:#5f9ea0; stroke-linecap:round; stroke-linejoin:round; stroke-width:8; stroke-opacity:0.4; fill:none" stroke-dasharray="32, 16, 4, 16" points="375.978,181.962 2640.76,181.962 "/>
<polyline clip-path="url(#clip750)" style="stroke:#000000; stroke-linecap:round; stroke-linejoin:round; stroke-width:4; stroke-opacity:1; fill:none" points="375.978,1734.12 375.978,127.792 "/>
<polyline clip-path="url(#clip750)" style="stroke:#000000; stroke-linecap:round; stroke-linejoin:round; stroke-width:4; stroke-opacity:1; fill:none" points="2640.76,1734.12 2640.76,127.792 "/>
<polyline clip-path="url(#clip750)" style="stroke:#000000; stroke-linecap:round; stroke-linejoin:round; stroke-width:4; stroke-opacity:1; fill:none" points="375.978,1688.65 394.875,1688.65 "/>
<polyline clip-path="url(#clip750)" style="stroke:#000000; stroke-linecap:round; stroke-linejoin:round; stroke-width:4; stroke-opacity:1; fill:none" points="375.978,1387.32 394.875,1387.32 "/>
<polyline clip-path="url(#clip750)" style="stroke:#000000; stroke-linecap:round; stroke-linejoin:round; stroke-width:4; stroke-opacity:1; fill:none" points="375.978,1085.98 394.875,1085.98 "/>
<polyline clip-path="url(#clip750)" style="stroke:#000000; stroke-linecap:round; stroke-linejoin:round; stroke-width:4; stroke-opacity:1; fill:none" points="375.978,784.639 394.875,784.639 "/>
<polyline clip-path="url(#clip750)" style="stroke:#000000; stroke-linecap:round; stroke-linejoin:round; stroke-width:4; stroke-opacity:1; fill:none" points="375.978,483.3 394.875,483.3 "/>
<polyline clip-path="url(#clip750)" style="stroke:#000000; stroke-linecap:round; stroke-linejoin:round; stroke-width:4; stroke-opacity:1; fill:none" points="375.978,181.962 394.875,181.962 "/>
<path clip-path="url(#clip750)" d="M323.713 1674.45 Q320.102 1674.45 318.274 1678.02 Q316.468 1681.56 316.468 1688.69 Q316.468 1695.8 318.274 1699.36 Q320.102 1702.9 323.713 1702.9 Q327.348 1702.9 329.153 1699.36 Q330.982 1695.8 330.982 1688.69 Q330.982 1681.56 329.153 1678.02 Q327.348 1674.45 323.713 1674.45 M323.713 1670.75 Q329.523 1670.75 332.579 1675.36 Q335.658 1679.94 335.658 1688.69 Q335.658 1697.42 332.579 1702.02 Q329.523 1706.61 323.713 1706.61 Q317.903 1706.61 314.824 1702.02 Q311.769 1697.42 311.769 1688.69 Q311.769 1679.94 314.824 1675.36 Q317.903 1670.75 323.713 1670.75 Z" fill="#000000" fill-rule="evenodd" fill-opacity="1" /><path clip-path="url(#clip750)" d="M119.833 1376.48 L138.189 1376.48 L138.189 1380.42 L124.115 1380.42 L124.115 1388.89 Q125.134 1388.54 126.152 1388.38 Q127.171 1388.2 128.189 1388.2 Q133.976 1388.2 137.356 1391.37 Q140.735 1394.54 140.735 1399.96 Q140.735 1405.53 137.263 1408.64 Q133.791 1411.72 127.472 1411.72 Q125.296 1411.72 123.027 1411.34 Q120.782 1410.97 118.374 1410.23 L118.374 1405.53 Q120.458 1406.67 122.68 1407.22 Q124.902 1407.78 127.379 1407.78 Q131.384 1407.78 133.722 1405.67 Q136.06 1403.57 136.06 1399.96 Q136.06 1396.34 133.722 1394.24 Q131.384 1392.13 127.379 1392.13 Q125.504 1392.13 123.629 1392.55 Q121.777 1392.97 119.833 1393.84 L119.833 1376.48 Z" fill="#000000" fill-rule="evenodd" fill-opacity="1" /><path clip-path="url(#clip750)" d="M149.948 1405.16 L154.833 1405.16 L154.833 1411.04 L149.948 1411.04 L149.948 1405.16 Z" fill="#000000" fill-rule="evenodd" fill-opacity="1" /><path clip-path="url(#clip750)" d="M175.018 1379.56 Q171.407 1379.56 169.578 1383.13 Q167.772 1386.67 167.772 1393.8 Q167.772 1400.91 169.578 1404.47 Q171.407 1408.01 175.018 1408.01 Q178.652 1408.01 180.457 1404.47 Q182.286 1400.91 182.286 1393.8 Q182.286 1386.67 180.457 1383.13 Q178.652 1379.56 175.018 1379.56 M175.018 1375.86 Q180.828 1375.86 183.883 1380.47 Q186.962 1385.05 186.962 1393.8 Q186.962 1402.53 183.883 1407.13 Q180.828 1411.72 175.018 1411.72 Q169.208 1411.72 166.129 1407.13 Q163.073 1402.53 163.073 1393.8 Q163.073 1385.05 166.129 1380.47 Q169.208 1375.86 175.018 1375.86 Z" fill="#000000" fill-rule="evenodd" fill-opacity="1" /><path clip-path="url(#clip750)" d="M205.18 1379.56 Q201.568 1379.56 199.74 1383.13 Q197.934 1386.67 197.934 1393.8 Q197.934 1400.91 199.74 1404.47 Q201.568 1408.01 205.18 1408.01 Q208.814 1408.01 210.619 1404.47 Q212.448 1400.91 212.448 1393.8 Q212.448 1386.67 210.619 1383.13 Q208.814 1379.56 205.18 1379.56 M205.18 1375.86 Q210.99 1375.86 214.045 1380.47 Q217.124 1385.05 217.124 1393.8 Q217.124 1402.53 214.045 1407.13 Q210.99 1411.72 205.18 1411.72 Q199.369 1411.72 196.291 1407.13 Q193.235 1402.53 193.235 1393.8 Q193.235 1385.05 196.291 1380.47 Q199.369 1375.86 205.18 1375.86 Z" fill="#000000" fill-rule="evenodd" fill-opacity="1" /><path clip-path="url(#clip750)" d="M253.513 1385.58 L242.934 1396.21 L253.513 1406.78 L250.758 1409.59 L240.133 1398.96 L229.508 1409.59 L226.777 1406.78 L237.332 1396.21 L226.777 1385.58 L229.508 1382.78 L240.133 1393.41 L250.758 1382.78 L253.513 1385.58 Z" fill="#000000" fill-rule="evenodd" fill-opacity="1" /><path clip-path="url(#clip750)" d="M265.874 1407.11 L273.513 1407.11 L273.513 1380.74 L265.202 1382.41 L265.202 1378.15 L273.466 1376.48 L278.142 1376.48 L278.142 1407.11 L285.781 1407.11 L285.781 1411.04 L265.874 1411.04 L265.874 1407.11 Z" fill="#000000" fill-rule="evenodd" fill-opacity="1" /><path clip-path="url(#clip750)" d="M305.225 1379.56 Q301.614 1379.56 299.786 1383.13 Q297.98 1386.67 297.98 1393.8 Q297.98 1400.91 299.786 1404.47 Q301.614 1408.01 305.225 1408.01 Q308.86 1408.01 310.665 1404.47 Q312.494 1400.91 312.494 1393.8 Q312.494 1386.67 310.665 1383.13 Q308.86 1379.56 305.225 1379.56 M305.225 1375.86 Q311.035 1375.86 314.091 1380.47 Q317.17 1385.05 317.17 1393.8 Q317.17 1402.53 314.091 1407.13 Q311.035 1411.72 305.225 1411.72 Q299.415 1411.72 296.336 1407.13 Q293.281 1402.53 293.281 1393.8 Q293.281 1385.05 296.336 1380.47 Q299.415 1375.86 305.225 1375.86 Z" fill="#000000" fill-rule="evenodd" fill-opacity="1" /><path clip-path="url(#clip750)" d="M329.865 1368.49 Q332.592 1369.08 334.115 1370.92 Q335.658 1372.76 335.658 1375.47 Q335.658 1379.63 332.799 1381.9 Q329.94 1384.18 324.674 1384.18 Q322.906 1384.18 321.025 1383.82 Q319.163 1383.48 317.17 1382.79 L317.17 1379.12 Q318.75 1380.04 320.63 1380.51 Q322.511 1380.98 324.561 1380.98 Q328.135 1380.98 329.997 1379.57 Q331.877 1378.16 331.877 1375.47 Q331.877 1372.99 330.128 1371.6 Q328.398 1370.19 325.295 1370.19 L322.022 1370.19 L322.022 1367.06 L325.445 1367.06 Q328.247 1367.06 329.733 1365.95 Q331.219 1364.83 331.219 1362.72 Q331.219 1360.56 329.677 1359.41 Q328.153 1358.24 325.295 1358.24 Q323.734 1358.24 321.947 1358.58 Q320.16 1358.92 318.016 1359.63 L318.016 1356.25 Q320.179 1355.65 322.06 1355.35 Q323.959 1355.05 325.633 1355.05 Q329.959 1355.05 332.479 1357.02 Q334.999 1358.98 334.999 1362.32 Q334.999 1364.66 333.664 1366.27 Q332.329 1367.87 329.865 1368.49 Z" fill="#000000" fill-rule="evenodd" fill-opacity="1" /><path clip-path="url(#clip750)" d="M118.622 1105.77 L126.261 1105.77 L126.261 1079.4 L117.951 1081.07 L117.951 1076.81 L126.214 1075.15 L130.89 1075.15 L130.89 1105.77 L138.529 1105.77 L138.529 1109.71 L118.622 1109.71 L118.622 1105.77 Z" fill="#000000" fill-rule="evenodd" fill-opacity="1" /><path clip-path="url(#clip750)" d="M147.974 1103.83 L152.858 1103.83 L152.858 1109.71 L147.974 1109.71 L147.974 1103.83 Z" fill="#000000" fill-rule="evenodd" fill-opacity="1" /><path clip-path="url(#clip750)" d="M173.043 1078.22 Q169.432 1078.22 167.603 1081.79 Q165.798 1085.33 165.798 1092.46 Q165.798 1099.57 167.603 1103.13 Q169.432 1106.67 173.043 1106.67 Q176.677 1106.67 178.483 1103.13 Q180.311 1099.57 180.311 1092.46 Q180.311 1085.33 178.483 1081.79 Q176.677 1078.22 173.043 1078.22 M173.043 1074.52 Q178.853 1074.52 181.909 1079.13 Q184.987 1083.71 184.987 1092.46 Q184.987 1101.19 181.909 1105.79 Q178.853 1110.38 173.043 1110.38 Q167.233 1110.38 164.154 1105.79 Q161.098 1101.19 161.098 1092.46 Q161.098 1083.71 164.154 1079.13 Q167.233 1074.52 173.043 1074.52 Z" fill="#000000" fill-rule="evenodd" fill-opacity="1" /><path clip-path="url(#clip750)" d="M203.205 1078.22 Q199.594 1078.22 197.765 1081.79 Q195.959 1085.33 195.959 1092.46 Q195.959 1099.57 197.765 1103.13 Q199.594 1106.67 203.205 1106.67 Q206.839 1106.67 208.645 1103.13 Q210.473 1099.57 210.473 1092.46 Q210.473 1085.33 208.645 1081.79 Q206.839 1078.22 203.205 1078.22 M203.205 1074.52 Q209.015 1074.52 212.07 1079.13 Q215.149 1083.71 215.149 1092.46 Q215.149 1101.19 212.07 1105.79 Q209.015 1110.38 203.205 1110.38 Q197.395 1110.38 194.316 1105.79 Q191.26 1101.19 191.26 1092.46 Q191.26 1083.71 194.316 1079.13 Q197.395 1074.52 203.205 1074.52 Z" fill="#000000" fill-rule="evenodd" fill-opacity="1" /><path clip-path="url(#clip750)" d="M251.538 1084.24 L240.959 1094.87 L251.538 1105.45 L248.783 1108.25 L238.158 1097.62 L227.533 1108.25 L224.802 1105.45 L235.357 1094.87 L224.802 1084.24 L227.533 1081.44 L238.158 1092.07 L248.783 1081.44 L251.538 1084.24 Z" fill="#000000" fill-rule="evenodd" fill-opacity="1" /><path clip-path="url(#clip750)" d="M263.899 1105.77 L271.538 1105.77 L271.538 1079.4 L263.228 1081.07 L263.228 1076.81 L271.491 1075.15 L276.167 1075.15 L276.167 1105.77 L283.806 1105.77 L283.806 1109.71 L263.899 1109.71 L263.899 1105.77 Z" fill="#000000" fill-rule="evenodd" fill-opacity="1" /><path clip-path="url(#clip750)" d="M303.25 1078.22 Q299.639 1078.22 297.811 1081.79 Q296.005 1085.33 296.005 1092.46 Q296.005 1099.57 297.811 1103.13 Q299.639 1106.67 303.25 1106.67 Q306.885 1106.67 308.69 1103.13 Q310.519 1099.57 310.519 1092.46 Q310.519 1085.33 308.69 1081.79 Q306.885 1078.22 303.25 1078.22 M303.25 1074.52 Q309.061 1074.52 312.116 1079.13 Q315.195 1083.71 315.195 1092.46 Q315.195 1101.19 312.116 1105.79 Q309.061 1110.38 303.25 1110.38 Q297.44 1110.38 294.362 1105.79 Q291.306 1101.19 291.306 1092.46 Q291.306 1083.71 294.362 1079.13 Q297.44 1074.52 303.25 1074.52 Z" fill="#000000" fill-rule="evenodd" fill-opacity="1" /><path clip-path="url(#clip750)" d="M327.871 1057.52 L318.279 1072.51 L327.871 1072.51 L327.871 1057.52 M326.874 1054.21 L331.652 1054.21 L331.652 1072.51 L335.658 1072.51 L335.658 1075.67 L331.652 1075.67 L331.652 1082.29 L327.871 1082.29 L327.871 1075.67 L315.195 1075.67 L315.195 1072.01 L326.874 1054.21 Z" fill="#000000" fill-rule="evenodd" fill-opacity="1" /><path clip-path="url(#clip750)" d="M118.622 804.431 L126.261 804.431 L126.261 778.066 L117.951 779.732 L117.951 775.473 L126.214 773.807 L130.89 773.807 L130.89 804.431 L138.529 804.431 L138.529 808.367 L118.622 808.367 L118.622 804.431 Z" fill="#000000" fill-rule="evenodd" fill-opacity="1" /><path clip-path="url(#clip750)" d="M147.974 802.487 L152.858 802.487 L152.858 808.367 L147.974 808.367 L147.974 802.487 Z" fill="#000000" fill-rule="evenodd" fill-opacity="1" /><path clip-path="url(#clip750)" d="M163.089 773.807 L181.446 773.807 L181.446 777.742 L167.372 777.742 L167.372 786.214 Q168.39 785.867 169.409 785.705 Q170.427 785.519 171.446 785.519 Q177.233 785.519 180.612 788.691 Q183.992 791.862 183.992 797.279 Q183.992 802.857 180.52 805.959 Q177.047 809.038 170.728 809.038 Q168.552 809.038 166.284 808.667 Q164.038 808.297 161.631 807.556 L161.631 802.857 Q163.714 803.992 165.936 804.547 Q168.159 805.103 170.635 805.103 Q174.64 805.103 176.978 802.996 Q179.316 800.89 179.316 797.279 Q179.316 793.668 176.978 791.561 Q174.64 789.455 170.635 789.455 Q168.76 789.455 166.885 789.871 Q165.034 790.288 163.089 791.168 L163.089 773.807 Z" fill="#000000" fill-rule="evenodd" fill-opacity="1" /><path clip-path="url(#clip750)" d="M203.205 776.885 Q199.594 776.885 197.765 780.45 Q195.959 783.992 195.959 791.121 Q195.959 798.228 197.765 801.793 Q199.594 805.334 203.205 805.334 Q206.839 805.334 208.645 801.793 Q210.473 798.228 210.473 791.121 Q210.473 783.992 208.645 780.45 Q206.839 776.885 203.205 776.885 M203.205 773.182 Q209.015 773.182 212.07 777.788 Q215.149 782.371 215.149 791.121 Q215.149 799.848 212.07 804.455 Q209.015 809.038 203.205 809.038 Q197.395 809.038 194.316 804.455 Q191.26 799.848 191.26 791.121 Q191.26 782.371 194.316 777.788 Q197.395 773.182 203.205 773.182 Z" fill="#000000" fill-rule="evenodd" fill-opacity="1" /><path clip-path="url(#clip750)" d="M251.538 782.904 L240.959 793.529 L251.538 804.107 L248.783 806.908 L238.158 796.283 L227.533 806.908 L224.802 804.107 L235.357 793.529 L224.802 782.904 L227.533 780.103 L238.158 790.728 L248.783 780.103 L251.538 782.904 Z" fill="#000000" fill-rule="evenodd" fill-opacity="1" /><path clip-path="url(#clip750)" d="M263.899 804.431 L271.538 804.431 L271.538 778.066 L263.228 779.732 L263.228 775.473 L271.491 773.807 L276.167 773.807 L276.167 804.431 L283.806 804.431 L283.806 808.367 L263.899 808.367 L263.899 804.431 Z" fill="#000000" fill-rule="evenodd" fill-opacity="1" /><path clip-path="url(#clip750)" d="M303.25 776.885 Q299.639 776.885 297.811 780.45 Q296.005 783.992 296.005 791.121 Q296.005 798.228 297.811 801.793 Q299.639 805.334 303.25 805.334 Q306.885 805.334 308.69 801.793 Q310.519 798.228 310.519 791.121 Q310.519 783.992 308.69 780.45 Q306.885 776.885 303.25 776.885 M303.25 773.182 Q309.061 773.182 312.116 777.788 Q315.195 782.371 315.195 791.121 Q315.195 799.848 312.116 804.455 Q309.061 809.038 303.25 809.038 Q297.44 809.038 294.362 804.455 Q291.306 799.848 291.306 791.121 Q291.306 782.371 294.362 777.788 Q297.44 773.182 303.25 773.182 Z" fill="#000000" fill-rule="evenodd" fill-opacity="1" /><path clip-path="url(#clip750)" d="M327.871 756.186 L318.279 771.176 L327.871 771.176 L327.871 756.186 M326.874 752.876 L331.652 752.876 L331.652 771.176 L335.658 771.176 L335.658 774.336 L331.652 774.336 L331.652 780.956 L327.871 780.956 L327.871 774.336 L315.195 774.336 L315.195 770.668 L326.874 752.876 Z" fill="#000000" fill-rule="evenodd" fill-opacity="1" /><path clip-path="url(#clip750)" d="M121.839 503.093 L138.159 503.093 L138.159 507.028 L116.214 507.028 L116.214 503.093 Q118.876 500.338 123.46 495.709 Q128.066 491.056 129.247 489.713 Q131.492 487.19 132.372 485.454 Q133.275 483.695 133.275 482.005 Q133.275 479.25 131.33 477.514 Q129.409 475.778 126.307 475.778 Q124.108 475.778 121.654 476.542 Q119.224 477.306 116.446 478.857 L116.446 474.135 Q119.27 473 121.724 472.422 Q124.177 471.843 126.214 471.843 Q131.585 471.843 134.779 474.528 Q137.974 477.213 137.974 481.704 Q137.974 483.834 137.163 485.755 Q136.376 487.653 134.27 490.246 Q133.691 490.917 130.589 494.134 Q127.488 497.329 121.839 503.093 Z" fill="#000000" fill-rule="evenodd" fill-opacity="1" /><path clip-path="url(#clip750)" d="M147.974 501.148 L152.858 501.148 L152.858 507.028 L147.974 507.028 L147.974 501.148 Z" fill="#000000" fill-rule="evenodd" fill-opacity="1" /><path clip-path="url(#clip750)" d="M173.043 475.547 Q169.432 475.547 167.603 479.111 Q165.798 482.653 165.798 489.783 Q165.798 496.889 167.603 500.454 Q169.432 503.996 173.043 503.996 Q176.677 503.996 178.483 500.454 Q180.311 496.889 180.311 489.783 Q180.311 482.653 178.483 479.111 Q176.677 475.547 173.043 475.547 M173.043 471.843 Q178.853 471.843 181.909 476.449 Q184.987 481.033 184.987 489.783 Q184.987 498.509 181.909 503.116 Q178.853 507.699 173.043 507.699 Q167.233 507.699 164.154 503.116 Q161.098 498.509 161.098 489.783 Q161.098 481.033 164.154 476.449 Q167.233 471.843 173.043 471.843 Z" fill="#000000" fill-rule="evenodd" fill-opacity="1" /><path clip-path="url(#clip750)" d="M203.205 475.547 Q199.594 475.547 197.765 479.111 Q195.959 482.653 195.959 489.783 Q195.959 496.889 197.765 500.454 Q199.594 503.996 203.205 503.996 Q206.839 503.996 208.645 500.454 Q210.473 496.889 210.473 489.783 Q210.473 482.653 208.645 479.111 Q206.839 475.547 203.205 475.547 M203.205 471.843 Q209.015 471.843 212.07 476.449 Q215.149 481.033 215.149 489.783 Q215.149 498.509 212.07 503.116 Q209.015 507.699 203.205 507.699 Q197.395 507.699 194.316 503.116 Q191.26 498.509 191.26 489.783 Q191.26 481.033 194.316 476.449 Q197.395 471.843 203.205 471.843 Z" fill="#000000" fill-rule="evenodd" fill-opacity="1" /><path clip-path="url(#clip750)" d="M251.538 481.565 L240.959 492.19 L251.538 502.769 L248.783 505.57 L238.158 494.945 L227.533 505.57 L224.802 502.769 L235.357 492.19 L224.802 481.565 L227.533 478.764 L238.158 489.389 L248.783 478.764 L251.538 481.565 Z" fill="#000000" fill-rule="evenodd" fill-opacity="1" /><path clip-path="url(#clip750)" d="M263.899 503.093 L271.538 503.093 L271.538 476.727 L263.228 478.394 L263.228 474.135 L271.491 472.468 L276.167 472.468 L276.167 503.093 L283.806 503.093 L283.806 507.028 L263.899 507.028 L263.899 503.093 Z" fill="#000000" fill-rule="evenodd" fill-opacity="1" /><path clip-path="url(#clip750)" d="M303.25 475.547 Q299.639 475.547 297.811 479.111 Q296.005 482.653 296.005 489.783 Q296.005 496.889 297.811 500.454 Q299.639 503.996 303.25 503.996 Q306.885 503.996 308.69 500.454 Q310.519 496.889 310.519 489.783 Q310.519 482.653 308.69 479.111 Q306.885 475.547 303.25 475.547 M303.25 471.843 Q309.061 471.843 312.116 476.449 Q315.195 481.033 315.195 489.783 Q315.195 498.509 312.116 503.116 Q309.061 507.699 303.25 507.699 Q297.44 507.699 294.362 503.116 Q291.306 498.509 291.306 489.783 Q291.306 481.033 294.362 476.449 Q297.44 471.843 303.25 471.843 Z" fill="#000000" fill-rule="evenodd" fill-opacity="1" /><path clip-path="url(#clip750)" d="M327.871 454.848 L318.279 469.837 L327.871 469.837 L327.871 454.848 M326.874 451.537 L331.652 451.537 L331.652 469.837 L335.658 469.837 L335.658 472.997 L331.652 472.997 L331.652 479.617 L327.871 479.617 L327.871 472.997 L315.195 472.997 L315.195 469.33 L326.874 451.537 Z" fill="#000000" fill-rule="evenodd" fill-opacity="1" /><path clip-path="url(#clip750)" d="M121.839 201.754 L138.159 201.754 L138.159 205.689 L116.214 205.689 L116.214 201.754 Q118.876 198.999 123.46 194.37 Q128.066 189.717 129.247 188.375 Q131.492 185.851 132.372 184.115 Q133.275 182.356 133.275 180.666 Q133.275 177.912 131.33 176.176 Q129.409 174.439 126.307 174.439 Q124.108 174.439 121.654 175.203 Q119.224 175.967 116.446 177.518 L116.446 172.796 Q119.27 171.662 121.724 171.083 Q124.177 170.504 126.214 170.504 Q131.585 170.504 134.779 173.189 Q137.974 175.875 137.974 180.365 Q137.974 182.495 137.163 184.416 Q136.376 186.314 134.27 188.907 Q133.691 189.578 130.589 192.796 Q127.488 195.99 121.839 201.754 Z" fill="#000000" fill-rule="evenodd" fill-opacity="1" /><path clip-path="url(#clip750)" d="M147.974 199.81 L152.858 199.81 L152.858 205.689 L147.974 205.689 L147.974 199.81 Z" fill="#000000" fill-rule="evenodd" fill-opacity="1" /><path clip-path="url(#clip750)" d="M163.089 171.129 L181.446 171.129 L181.446 175.064 L167.372 175.064 L167.372 183.537 Q168.39 183.189 169.409 183.027 Q170.427 182.842 171.446 182.842 Q177.233 182.842 180.612 186.013 Q183.992 189.185 183.992 194.601 Q183.992 200.18 180.52 203.282 Q177.047 206.361 170.728 206.361 Q168.552 206.361 166.284 205.99 Q164.038 205.62 161.631 204.879 L161.631 200.18 Q163.714 201.314 165.936 201.87 Q168.159 202.425 170.635 202.425 Q174.64 202.425 176.978 200.319 Q179.316 198.212 179.316 194.601 Q179.316 190.99 176.978 188.884 Q174.64 186.777 170.635 186.777 Q168.76 186.777 166.885 187.194 Q165.034 187.611 163.089 188.49 L163.089 171.129 Z" fill="#000000" fill-rule="evenodd" fill-opacity="1" /><path clip-path="url(#clip750)" d="M203.205 174.208 Q199.594 174.208 197.765 177.773 Q195.959 181.314 195.959 188.444 Q195.959 195.55 197.765 199.115 Q199.594 202.657 203.205 202.657 Q206.839 202.657 208.645 199.115 Q210.473 195.55 210.473 188.444 Q210.473 181.314 208.645 177.773 Q206.839 174.208 203.205 174.208 M203.205 170.504 Q209.015 170.504 212.07 175.111 Q215.149 179.694 215.149 188.444 Q215.149 197.171 212.07 201.777 Q209.015 206.361 203.205 206.361 Q197.395 206.361 194.316 201.777 Q191.26 197.171 191.26 188.444 Q191.26 179.694 194.316 175.111 Q197.395 170.504 203.205 170.504 Z" fill="#000000" fill-rule="evenodd" fill-opacity="1" /><path clip-path="url(#clip750)" d="M251.538 180.226 L240.959 190.851 L251.538 201.43 L248.783 204.231 L238.158 193.606 L227.533 204.231 L224.802 201.43 L235.357 190.851 L224.802 180.226 L227.533 177.425 L238.158 188.05 L248.783 177.425 L251.538 180.226 Z" fill="#000000" fill-rule="evenodd" fill-opacity="1" /><path clip-path="url(#clip750)" d="M263.899 201.754 L271.538 201.754 L271.538 175.388 L263.228 177.055 L263.228 172.796 L271.491 171.129 L276.167 171.129 L276.167 201.754 L283.806 201.754 L283.806 205.689 L263.899 205.689 L263.899 201.754 Z" fill="#000000" fill-rule="evenodd" fill-opacity="1" /><path clip-path="url(#clip750)" d="M303.25 174.208 Q299.639 174.208 297.811 177.773 Q296.005 181.314 296.005 188.444 Q296.005 195.55 297.811 199.115 Q299.639 202.657 303.25 202.657 Q306.885 202.657 308.69 199.115 Q310.519 195.55 310.519 188.444 Q310.519 181.314 308.69 177.773 Q306.885 174.208 303.25 174.208 M303.25 170.504 Q309.061 170.504 312.116 175.111 Q315.195 179.694 315.195 188.444 Q315.195 197.171 312.116 201.777 Q309.061 206.361 303.25 206.361 Q297.44 206.361 294.362 201.777 Q291.306 197.171 291.306 188.444 Q291.306 179.694 294.362 175.111 Q297.44 170.504 303.25 170.504 Z" fill="#000000" fill-rule="evenodd" fill-opacity="1" /><path clip-path="url(#clip750)" d="M327.871 153.509 L318.279 168.499 L327.871 168.499 L327.871 153.509 M326.874 150.199 L331.652 150.199 L331.652 168.499 L335.658 168.499 L335.658 171.658 L331.652 171.658 L331.652 178.279 L327.871 178.279 L327.871 171.658 L315.195 171.658 L315.195 167.991 L326.874 150.199 Z" fill="#000000" fill-rule="evenodd" fill-opacity="1" /><path clip-path="url(#clip750)" d="M15.678 1358.98 L21.9483 1358.98 Q20.1977 1362.64 19.3383 1365.89 Q18.479 1369.14 18.479 1372.16 Q18.479 1377.41 20.516 1380.28 Q22.553 1383.11 26.3088 1383.11 Q29.4598 1383.11 31.0831 1381.23 Q32.6745 1379.32 33.6612 1374.04 L34.4569 1370.16 Q35.8255 1362.96 39.2948 1359.56 Q42.7323 1356.12 48.5251 1356.12 Q55.4319 1356.12 58.9967 1360.77 Q62.5615 1365.38 62.5615 1374.33 Q62.5615 1377.7 61.7976 1381.52 Q61.0337 1385.31 59.5378 1389.38 L52.9174 1389.38 Q55.1136 1385.47 56.2276 1381.71 Q57.3416 1377.95 57.3416 1374.33 Q57.3416 1368.82 55.1773 1365.83 Q53.0129 1362.84 49.0025 1362.84 Q45.5014 1362.84 43.528 1365 Q41.5546 1367.13 40.568 1372.03 L39.8041 1375.95 Q38.3718 1383.14 35.3162 1386.36 Q32.2607 1389.57 26.818 1389.57 Q20.516 1389.57 16.8875 1385.15 Q13.2591 1380.69 13.2591 1372.89 Q13.2591 1369.55 13.8638 1366.08 Q14.4686 1362.61 15.678 1358.98 Z" fill="#000000" fill-rule="evenodd" fill-opacity="1" /><path clip-path="url(#clip750)" d="M15.869 1340.56 L25.9905 1340.56 L25.9905 1328.49 L30.542 1328.49 L30.542 1340.56 L49.8937 1340.56 Q54.2542 1340.56 55.4955 1339.38 Q56.7368 1338.17 56.7368 1334.51 L56.7368 1328.49 L61.6384 1328.49 L61.6384 1334.51 Q61.6384 1341.29 59.124 1343.87 Q56.5777 1346.44 49.8937 1346.44 L30.542 1346.44 L30.542 1350.74 L25.9905 1350.74 L25.9905 1346.44 L15.869 1346.44 L15.869 1340.56 Z" fill="#000000" fill-rule="evenodd" fill-opacity="1" /><path clip-path="url(#clip750)" d="M42.3504 1290.3 L45.2149 1290.3 L45.2149 1317.23 Q51.2623 1316.84 54.4452 1313.6 Q57.5962 1310.32 57.5962 1304.49 Q57.5962 1301.12 56.7687 1297.97 Q55.9411 1294.79 54.2861 1291.67 L59.8242 1291.67 Q61.161 1294.82 61.8612 1298.13 Q62.5615 1301.44 62.5615 1304.84 Q62.5615 1313.37 57.5962 1318.37 Q52.631 1323.34 44.1646 1323.34 Q35.4117 1323.34 30.2873 1318.63 Q25.1311 1313.88 25.1311 1305.86 Q25.1311 1298.67 29.7781 1294.5 Q34.3932 1290.3 42.3504 1290.3 M40.6316 1296.16 Q35.8255 1296.22 32.9609 1298.86 Q30.0964 1301.47 30.0964 1305.8 Q30.0964 1310.7 32.8654 1313.66 Q35.6345 1316.59 40.6634 1317.03 L40.6316 1296.16 Z" fill="#000000" fill-rule="evenodd" fill-opacity="1" /><path clip-path="url(#clip750)" d="M43.719 1264.49 Q43.719 1271.58 45.3422 1274.32 Q46.9655 1277.06 50.8804 1277.06 Q53.9996 1277.06 55.8457 1275.02 Q57.6599 1272.95 57.6599 1269.42 Q57.6599 1264.55 54.2224 1261.62 Q50.7531 1258.66 45.0239 1258.66 L43.719 1258.66 L43.719 1264.49 M41.3 1252.8 L61.6384 1252.8 L61.6384 1258.66 L56.2276 1258.66 Q59.4741 1260.67 61.0337 1263.66 Q62.5615 1266.65 62.5615 1270.98 Q62.5615 1276.45 59.5059 1279.7 Q56.4186 1282.91 51.2623 1282.91 Q45.2467 1282.91 42.1912 1278.9 Q39.1357 1274.86 39.1357 1266.87 L39.1357 1258.66 L38.5628 1258.66 Q34.5205 1258.66 32.3244 1261.33 Q30.0964 1263.98 30.0964 1268.78 Q30.0964 1271.84 30.8284 1274.73 Q31.5605 1277.63 33.0246 1280.3 L27.6137 1280.3 Q26.3724 1277.09 25.7677 1274.07 Q25.1311 1271.04 25.1311 1268.18 Q25.1311 1260.44 29.1415 1256.62 Q33.1519 1252.8 41.3 1252.8 Z" fill="#000000" fill-rule="evenodd" fill-opacity="1" /><path clip-path="url(#clip750)" d="M32.8336 1212.99 Q28.8869 1210.79 27.009 1207.74 Q25.1311 1204.68 25.1311 1200.54 Q25.1311 1194.97 29.046 1191.95 Q32.9291 1188.92 40.1224 1188.92 L61.6384 1188.92 L61.6384 1194.81 L40.3133 1194.81 Q35.1889 1194.81 32.7063 1196.63 Q30.2237 1198.44 30.2237 1202.17 Q30.2237 1206.72 33.2474 1209.36 Q36.2711 1212 41.491 1212 L61.6384 1212 L61.6384 1217.89 L40.3133 1217.89 Q35.1571 1217.89 32.7063 1219.7 Q30.2237 1221.52 30.2237 1225.3 Q30.2237 1229.79 33.2792 1232.43 Q36.3029 1235.08 41.491 1235.08 L61.6384 1235.08 L61.6384 1240.96 L25.9905 1240.96 L25.9905 1235.08 L31.5287 1235.08 Q28.2503 1233.07 26.6907 1230.27 Q25.1311 1227.47 25.1311 1223.62 Q25.1311 1219.73 27.1045 1217.03 Q29.0779 1214.29 32.8336 1212.99 Z" fill="#000000" fill-rule="evenodd" fill-opacity="1" /><path clip-path="url(#clip750)" d="M31.465 1135.87 Q30.8921 1136.85 30.6375 1138.03 Q30.351 1139.18 30.351 1140.58 Q30.351 1145.54 33.5975 1148.22 Q36.8122 1150.86 42.8596 1150.86 L61.6384 1150.86 L61.6384 1156.75 L25.9905 1156.75 L25.9905 1150.86 L31.5287 1150.86 Q28.2821 1149.01 26.7225 1146.05 Q25.1311 1143.09 25.1311 1138.86 Q25.1311 1138.25 25.2266 1137.52 Q25.2903 1136.79 25.4494 1135.9 L31.465 1135.87 Z" fill="#000000" fill-rule="evenodd" fill-opacity="1" /><path clip-path="url(#clip750)" d="M42.3504 1100.66 L45.2149 1100.66 L45.2149 1127.59 Q51.2623 1127.21 54.4452 1123.96 Q57.5962 1120.68 57.5962 1114.86 Q57.5962 1111.49 56.7687 1108.33 Q55.9411 1105.15 54.2861 1102.03 L59.8242 1102.03 Q61.161 1105.18 61.8612 1108.49 Q62.5615 1111.8 62.5615 1115.21 Q62.5615 1123.74 57.5962 1128.74 Q52.631 1133.7 44.1646 1133.7 Q35.4117 1133.7 30.2873 1128.99 Q25.1311 1124.25 25.1311 1116.23 Q25.1311 1109.04 29.7781 1104.87 Q34.3932 1100.66 42.3504 1100.66 M40.6316 1106.52 Q35.8255 1106.58 32.9609 1109.23 Q30.0964 1111.84 30.0964 1116.16 Q30.0964 1121.07 32.8654 1124.03 Q35.6345 1126.95 40.6634 1127.4 L40.6316 1106.52 Z" fill="#000000" fill-rule="evenodd" fill-opacity="1" /><path clip-path="url(#clip750)" d="M43.8463 1087.55 Q50.3075 1087.55 53.9996 1084.91 Q57.6599 1082.24 57.6599 1077.59 Q57.6599 1072.94 53.9996 1070.27 Q50.3075 1067.59 43.8463 1067.59 Q37.3851 1067.59 33.7248 1070.27 Q30.0327 1072.94 30.0327 1077.59 Q30.0327 1082.24 33.7248 1084.91 Q37.3851 1087.55 43.8463 1087.55 M56.2912 1067.59 Q59.4741 1069.44 61.0337 1072.27 Q62.5615 1075.07 62.5615 1079.02 Q62.5615 1085.48 57.4052 1089.56 Q52.249 1093.6 43.8463 1093.6 Q35.4436 1093.6 30.2873 1089.56 Q25.1311 1085.48 25.1311 1079.02 Q25.1311 1075.07 26.6907 1072.27 Q28.2185 1069.44 31.4013 1067.59 L25.9905 1067.59 L25.9905 1061.74 L75.1974 1061.74 L75.1974 1067.59 L56.2912 1067.59 Z" fill="#000000" fill-rule="evenodd" fill-opacity="1" /><path clip-path="url(#clip750)" d="M47.5702 1050.28 L25.9905 1050.28 L25.9905 1044.42 L47.3474 1044.42 Q52.4082 1044.42 54.9545 1042.45 Q57.4689 1040.48 57.4689 1036.53 Q57.4689 1031.79 54.4452 1029.05 Q51.4215 1026.28 46.2016 1026.28 L25.9905 1026.28 L25.9905 1020.42 L61.6384 1020.42 L61.6384 1026.28 L56.1639 1026.28 Q59.4104 1028.41 61.0019 1031.25 Q62.5615 1034.05 62.5615 1037.77 Q62.5615 1043.91 58.742 1047.1 Q54.9226 1050.28 47.5702 1050.28 M25.1311 1035.54 L25.1311 1035.54 Z" fill="#000000" fill-rule="evenodd" fill-opacity="1" /><path clip-path="url(#clip750)" d="M25.9905 1008.36 L25.9905 1002.51 L61.6384 1002.51 L61.6384 1008.36 L25.9905 1008.36 M12.1132 1008.36 L12.1132 1002.51 L19.5293 1002.51 L19.5293 1008.36 L12.1132 1008.36 Z" fill="#000000" fill-rule="evenodd" fill-opacity="1" /><path clip-path="url(#clip750)" d="M31.465 969.594 Q30.8921 970.581 30.6375 971.759 Q30.351 972.905 30.351 974.305 Q30.351 979.27 33.5975 981.944 Q36.8122 984.586 42.8596 984.586 L61.6384 984.586 L61.6384 990.474 L25.9905 990.474 L25.9905 984.586 L31.5287 984.586 Q28.2821 982.74 26.7225 979.78 Q25.1311 976.819 25.1311 972.586 Q25.1311 971.982 25.2266 971.249 Q25.2903 970.517 25.4494 969.626 L31.465 969.594 Z" fill="#000000" fill-rule="evenodd" fill-opacity="1" /><path clip-path="url(#clip750)" d="M42.3504 934.392 L45.2149 934.392 L45.2149 961.319 Q51.2623 960.937 54.4452 957.691 Q57.5962 954.412 57.5962 948.588 Q57.5962 945.214 56.7687 942.063 Q55.9411 938.88 54.2861 935.761 L59.8242 935.761 Q61.161 938.912 61.8612 942.222 Q62.5615 945.532 62.5615 948.938 Q62.5615 957.468 57.5962 962.465 Q52.631 967.43 44.1646 967.43 Q35.4117 967.43 30.2873 962.719 Q25.1311 957.977 25.1311 949.956 Q25.1311 942.763 29.7781 938.593 Q34.3932 934.392 42.3504 934.392 M40.6316 940.248 Q35.8255 940.312 32.9609 942.954 Q30.0964 945.564 30.0964 949.893 Q30.0964 954.794 32.8654 957.754 Q35.6345 960.682 40.6634 961.128 L40.6316 940.248 Z" fill="#000000" fill-rule="evenodd" fill-opacity="1" /><path clip-path="url(#clip750)" d="M32.8336 897.025 Q28.8869 894.829 27.009 891.774 Q25.1311 888.718 25.1311 884.58 Q25.1311 879.01 29.046 875.987 Q32.9291 872.963 40.1224 872.963 L61.6384 872.963 L61.6384 878.851 L40.3133 878.851 Q35.1889 878.851 32.7063 880.665 Q30.2237 882.48 30.2237 886.204 Q30.2237 890.755 33.2474 893.397 Q36.2711 896.039 41.491 896.039 L61.6384 896.039 L61.6384 901.927 L40.3133 901.927 Q35.1571 901.927 32.7063 903.741 Q30.2237 905.555 30.2237 909.343 Q30.2237 913.831 33.2792 916.473 Q36.3029 919.114 41.491 919.114 L61.6384 919.114 L61.6384 925.003 L25.9905 925.003 L25.9905 919.114 L31.5287 919.114 Q28.2503 917.109 26.6907 914.308 Q25.1311 911.507 25.1311 907.656 Q25.1311 903.773 27.1045 901.068 Q29.0779 898.33 32.8336 897.025 Z" fill="#000000" fill-rule="evenodd" fill-opacity="1" /><path clip-path="url(#clip750)" d="M42.3504 830.79 L45.2149 830.79 L45.2149 857.717 Q51.2623 857.335 54.4452 854.089 Q57.5962 850.81 57.5962 844.986 Q57.5962 841.612 56.7687 838.461 Q55.9411 835.278 54.2861 832.159 L59.8242 832.159 Q61.161 835.31 61.8612 838.62 Q62.5615 841.93 62.5615 845.336 Q62.5615 853.866 57.5962 858.863 Q52.631 863.828 44.1646 863.828 Q35.4117 863.828 30.2873 859.118 Q25.1311 854.375 25.1311 846.354 Q25.1311 839.161 29.7781 834.992 Q34.3932 830.79 42.3504 830.79 M40.6316 836.647 Q35.8255 836.71 32.9609 839.352 Q30.0964 841.962 30.0964 846.291 Q30.0964 851.192 32.8654 854.152 Q35.6345 857.081 40.6634 857.526 L40.6316 836.647 Z" fill="#000000" fill-rule="evenodd" fill-opacity="1" /><path clip-path="url(#clip750)" d="M40.1224 791.546 L61.6384 791.546 L61.6384 797.402 L40.3133 797.402 Q35.2526 797.402 32.7381 799.375 Q30.2237 801.349 30.2237 805.296 Q30.2237 810.038 33.2474 812.775 Q36.2711 815.512 41.491 815.512 L61.6384 815.512 L61.6384 821.401 L25.9905 821.401 L25.9905 815.512 L31.5287 815.512 Q28.314 813.412 26.7225 810.579 Q25.1311 807.714 25.1311 803.991 Q25.1311 797.848 28.9505 794.697 Q32.7381 791.546 40.1224 791.546 Z" fill="#000000" fill-rule="evenodd" fill-opacity="1" /><path clip-path="url(#clip750)" d="M15.869 774.072 L25.9905 774.072 L25.9905 762.009 L30.542 762.009 L30.542 774.072 L49.8937 774.072 Q54.2542 774.072 55.4955 772.894 Q56.7368 771.685 56.7368 768.024 L56.7368 762.009 L61.6384 762.009 L61.6384 768.024 Q61.6384 774.804 59.124 777.382 Q56.5777 779.96 49.8937 779.96 L30.542 779.96 L30.542 784.257 L25.9905 784.257 L25.9905 779.96 L15.869 779.96 L15.869 774.072 Z" fill="#000000" fill-rule="evenodd" fill-opacity="1" /><path clip-path="url(#clip750)" d="M12.1769 719.518 Q19.4975 723.783 26.6589 725.851 Q33.8203 727.92 41.1727 727.92 Q48.5251 727.92 55.7502 725.851 Q62.9434 723.751 70.2321 719.518 L70.2321 724.61 Q62.7524 729.384 55.5274 731.772 Q48.3023 734.127 41.1727 734.127 Q34.0749 734.127 26.8817 731.772 Q19.6884 729.416 12.1769 724.61 L12.1769 719.518 Z" fill="#000000" fill-rule="evenodd" fill-opacity="1" /><path clip-path="url(#clip750)" d="M15.869 702.362 L25.9905 702.362 L25.9905 690.299 L30.542 690.299 L30.542 702.362 L49.8937 702.362 Q54.2542 702.362 55.4955 701.184 Q56.7368 699.975 56.7368 696.315 L56.7368 690.299 L61.6384 690.299 L61.6384 696.315 Q61.6384 703.094 59.124 705.672 Q56.5777 708.25 49.8937 708.25 L30.542 708.25 L30.542 712.547 L25.9905 712.547 L25.9905 708.25 L15.869 708.25 L15.869 702.362 Z" fill="#000000" fill-rule="evenodd" fill-opacity="1" /><path clip-path="url(#clip750)" d="M30.0964 668.783 Q30.0964 673.494 33.7885 676.231 Q37.4488 678.968 43.8463 678.968 Q50.2438 678.968 53.9359 676.263 Q57.5962 673.525 57.5962 668.783 Q57.5962 664.104 53.9041 661.367 Q50.212 658.63 43.8463 658.63 Q37.5124 658.63 33.8203 661.367 Q30.0964 664.104 30.0964 668.783 M25.1311 668.783 Q25.1311 661.144 30.0964 656.784 Q35.0616 652.423 43.8463 652.423 Q52.5991 652.423 57.5962 656.784 Q62.5615 661.144 62.5615 668.783 Q62.5615 676.454 57.5962 680.814 Q52.5991 685.143 43.8463 685.143 Q35.0616 685.143 30.0964 680.814 Q25.1311 676.454 25.1311 668.783 Z" fill="#000000" fill-rule="evenodd" fill-opacity="1" /><path clip-path="url(#clip750)" d="M40.1224 613.083 L61.6384 613.083 L61.6384 618.939 L40.3133 618.939 Q35.2526 618.939 32.7381 620.913 Q30.2237 622.886 30.2237 626.833 Q30.2237 631.575 33.2474 634.313 Q36.2711 637.05 41.491 637.05 L61.6384 637.05 L61.6384 642.938 L25.9905 642.938 L25.9905 637.05 L31.5287 637.05 Q28.314 634.949 26.7225 632.116 Q25.1311 629.252 25.1311 625.528 Q25.1311 619.385 28.9505 616.234 Q32.7381 613.083 40.1224 613.083 Z" fill="#000000" fill-rule="evenodd" fill-opacity="1" /><path clip-path="url(#clip750)" d="M40.1224 571.77 L61.6384 571.77 L61.6384 577.626 L40.3133 577.626 Q35.2526 577.626 32.7381 579.599 Q30.2237 581.573 30.2237 585.519 Q30.2237 590.262 33.2474 592.999 Q36.2711 595.736 41.491 595.736 L61.6384 595.736 L61.6384 601.625 L25.9905 601.625 L25.9905 595.736 L31.5287 595.736 Q28.314 593.636 26.7225 590.803 Q25.1311 587.938 25.1311 584.215 Q25.1311 578.072 28.9505 574.921 Q32.7381 571.77 40.1224 571.77 Z" fill="#000000" fill-rule="evenodd" fill-opacity="1" /><path clip-path="url(#clip750)" d="M42.3504 529.597 L45.2149 529.597 L45.2149 556.524 Q51.2623 556.142 54.4452 552.895 Q57.5962 549.617 57.5962 543.792 Q57.5962 540.418 56.7687 537.267 Q55.9411 534.085 54.2861 530.965 L59.8242 530.965 Q61.161 534.116 61.8612 537.427 Q62.5615 540.737 62.5615 544.142 Q62.5615 552.672 57.5962 557.67 Q52.631 562.635 44.1646 562.635 Q35.4117 562.635 30.2873 557.924 Q25.1311 553.182 25.1311 545.161 Q25.1311 537.968 29.7781 533.798 Q34.3932 529.597 42.3504 529.597 M40.6316 535.453 Q35.8255 535.517 32.9609 538.159 Q30.0964 540.769 30.0964 545.097 Q30.0964 549.999 32.8654 552.959 Q35.6345 555.887 40.6634 556.333 L40.6316 535.453 Z" fill="#000000" fill-rule="evenodd" fill-opacity="1" /><path clip-path="url(#clip750)" d="M27.0408 497.259 L32.579 497.259 Q31.3059 499.742 30.6693 502.415 Q30.0327 505.089 30.0327 507.953 Q30.0327 512.314 31.3695 514.51 Q32.7063 516.674 35.3799 516.674 Q37.4169 516.674 38.5946 515.115 Q39.7404 513.555 40.7908 508.845 L41.2364 506.839 Q42.5732 500.601 45.0239 497.991 Q47.4429 495.349 51.8034 495.349 Q56.7687 495.349 59.6651 499.296 Q62.5615 503.211 62.5615 510.086 Q62.5615 512.95 61.9886 516.07 Q61.4475 519.157 60.3335 522.594 L54.2861 522.594 Q55.973 519.348 56.8323 516.197 Q57.6599 513.046 57.6599 509.959 Q57.6599 505.821 56.2594 503.593 Q54.8271 501.365 52.249 501.365 Q49.8619 501.365 48.5887 502.988 Q47.3156 504.58 46.1379 510.022 L45.6605 512.059 Q44.5147 517.502 42.1594 519.921 Q39.7722 522.34 35.6345 522.34 Q30.6056 522.34 27.8684 518.775 Q25.1311 515.21 25.1311 508.654 Q25.1311 505.407 25.6085 502.542 Q26.086 499.678 27.0408 497.259 Z" fill="#000000" fill-rule="evenodd" fill-opacity="1" /><path clip-path="url(#clip750)" d="M12.1769 486.947 L12.1769 481.854 Q19.6884 477.08 26.8817 474.724 Q34.0749 472.337 41.1727 472.337 Q48.3023 472.337 55.5274 474.724 Q62.7524 477.08 70.2321 481.854 L70.2321 486.947 Q62.9434 482.713 55.7502 480.644 Q48.5251 478.544 41.1727 478.544 Q33.8203 478.544 26.6589 480.644 Q19.4975 482.713 12.1769 486.947 Z" fill="#000000" fill-rule="evenodd" fill-opacity="1" /><path clip-path="url(#clip750)" d="M966.113 20.1573 L955.013 50.2555 L977.253 50.2555 L966.113 20.1573 M961.495 12.096 L970.771 12.096 L993.821 72.576 L985.314 72.576 L979.805 57.061 L952.542 57.061 L947.033 72.576 L938.405 72.576 L961.495 12.096 Z" fill="#000000" fill-rule="evenodd" fill-opacity="1" /><path clip-path="url(#clip750)" d="M1040.04 45.1919 L1040.04 72.576 L1032.59 72.576 L1032.59 45.4349 Q1032.59 38.994 1030.08 35.7938 Q1027.56 32.5936 1022.54 32.5936 Q1016.51 32.5936 1013.02 36.4419 Q1009.54 40.2903 1009.54 46.9338 L1009.54 72.576 L1002.04 72.576 L1002.04 27.2059 L1009.54 27.2059 L1009.54 34.2544 Q1012.21 30.163 1015.82 28.1376 Q1019.46 26.1121 1024.2 26.1121 Q1032.02 26.1121 1036.03 30.9732 Q1040.04 35.7938 1040.04 45.1919 Z" fill="#000000" fill-rule="evenodd" fill-opacity="1" /><path clip-path="url(#clip750)" d="M1092.62 45.1919 L1092.62 72.576 L1085.17 72.576 L1085.17 45.4349 Q1085.17 38.994 1082.66 35.7938 Q1080.15 32.5936 1075.12 32.5936 Q1069.09 32.5936 1065.6 36.4419 Q1062.12 40.2903 1062.12 46.9338 L1062.12 72.576 L1054.63 72.576 L1054.63 27.2059 L1062.12 27.2059 L1062.12 34.2544 Q1064.79 30.163 1068.4 28.1376 Q1072.04 26.1121 1076.78 26.1121 Q1084.6 26.1121 1088.61 30.9732 Q1092.62 35.7938 1092.62 45.1919 Z" fill="#000000" fill-rule="evenodd" fill-opacity="1" /><path clip-path="url(#clip750)" d="M1106.72 54.671 L1106.72 27.2059 L1114.17 27.2059 L1114.17 54.3874 Q1114.17 60.8284 1116.68 64.0691 Q1119.2 67.2693 1124.22 67.2693 Q1130.26 67.2693 1133.74 63.421 Q1137.26 59.5726 1137.26 52.9291 L1137.26 27.2059 L1144.72 27.2059 L1144.72 72.576 L1137.26 72.576 L1137.26 65.6084 Q1134.55 69.7404 1130.94 71.7658 Q1127.38 73.7508 1122.64 73.7508 Q1114.82 73.7508 1110.77 68.8897 Q1106.72 64.0286 1106.72 54.671 M1125.48 26.1121 L1125.48 26.1121 Z" fill="#000000" fill-rule="evenodd" fill-opacity="1" /><path clip-path="url(#clip750)" d="M1180.69 49.7694 Q1171.66 49.7694 1168.17 51.8354 Q1164.69 53.9013 1164.69 58.8839 Q1164.69 62.8538 1167.28 65.2034 Q1169.91 67.5124 1174.41 67.5124 Q1180.61 67.5124 1184.33 63.1374 Q1188.1 58.7219 1188.1 51.4303 L1188.1 49.7694 L1180.69 49.7694 M1195.56 46.6907 L1195.56 72.576 L1188.1 72.576 L1188.1 65.6895 Q1185.55 69.8214 1181.74 71.8063 Q1177.93 73.7508 1172.43 73.7508 Q1165.46 73.7508 1161.33 69.8619 Q1157.23 65.9325 1157.23 59.3701 Q1157.23 51.7138 1162.34 47.825 Q1167.48 43.9361 1177.65 43.9361 L1188.1 43.9361 L1188.1 43.2069 Q1188.1 38.0623 1184.7 35.2672 Q1181.34 32.4315 1175.22 32.4315 Q1171.33 32.4315 1167.65 33.3632 Q1163.96 34.295 1160.56 36.1584 L1160.56 29.2718 Q1164.65 27.692 1168.5 26.9223 Q1172.34 26.1121 1175.99 26.1121 Q1185.83 26.1121 1190.69 31.2163 Q1195.56 36.3204 1195.56 46.6907 Z" fill="#000000" fill-rule="evenodd" fill-opacity="1" /><path clip-path="url(#clip750)" d="M1210.91 9.54393 L1218.36 9.54393 L1218.36 72.576 L1210.91 72.576 L1210.91 9.54393 Z" fill="#000000" fill-rule="evenodd" fill-opacity="1" /><path clip-path="url(#clip750)" d="M1296.91 14.0809 L1296.91 22.0612 Q1292.25 19.8332 1288.12 18.7395 Q1283.99 17.6457 1280.14 17.6457 Q1273.45 17.6457 1269.81 20.2383 Q1266.2 22.8309 1266.2 27.611 Q1266.2 31.6214 1268.59 33.6873 Q1271.02 35.7128 1277.75 36.9686 L1282.69 37.9813 Q1291.85 39.7232 1296.18 44.1387 Q1300.56 48.5136 1300.56 55.8863 Q1300.56 64.6767 1294.64 69.2137 Q1288.77 73.7508 1277.38 73.7508 Q1273.09 73.7508 1268.23 72.7785 Q1263.41 71.8063 1258.22 69.9024 L1258.22 61.4765 Q1263.21 64.2716 1267.99 65.6895 Q1272.77 67.1073 1277.38 67.1073 Q1284.39 67.1073 1288.2 64.3527 Q1292.01 61.598 1292.01 56.4939 Q1292.01 52.0379 1289.25 49.5264 Q1286.54 47.0148 1280.3 45.759 L1275.32 44.7868 Q1266.16 42.9639 1262.07 39.075 Q1257.98 35.1862 1257.98 28.2591 Q1257.98 20.2383 1263.61 15.6203 Q1269.28 11.0023 1279.21 11.0023 Q1283.46 11.0023 1287.88 11.7719 Q1292.29 12.5416 1296.91 14.0809 Z" fill="#000000" fill-rule="evenodd" fill-opacity="1" /><path clip-path="url(#clip750)" d="M1320.36 14.324 L1320.36 27.2059 L1335.72 27.2059 L1335.72 32.9987 L1320.36 32.9987 L1320.36 57.6282 Q1320.36 63.1779 1321.86 64.7578 Q1323.4 66.3376 1328.06 66.3376 L1335.72 66.3376 L1335.72 72.576 L1328.06 72.576 Q1319.43 72.576 1316.15 69.3758 Q1312.87 66.1351 1312.87 57.6282 L1312.87 32.9987 L1307.4 32.9987 L1307.4 27.2059 L1312.87 27.2059 L1312.87 14.324 L1320.36 14.324 Z" fill="#000000" fill-rule="evenodd" fill-opacity="1" /><path clip-path="url(#clip750)" d="M1384.33 48.0275 L1384.33 51.6733 L1350.06 51.6733 Q1350.54 59.3701 1354.68 63.421 Q1358.85 67.4314 1366.26 67.4314 Q1370.56 67.4314 1374.57 66.3781 Q1378.62 65.3249 1382.59 63.2184 L1382.59 70.267 Q1378.58 71.9684 1374.36 72.8596 Q1370.15 73.7508 1365.82 73.7508 Q1354.96 73.7508 1348.6 67.4314 Q1342.28 61.1119 1342.28 50.3365 Q1342.28 39.1965 1348.28 32.6746 Q1354.31 26.1121 1364.52 26.1121 Q1373.67 26.1121 1378.98 32.0264 Q1384.33 37.9003 1384.33 48.0275 M1376.87 45.84 Q1376.79 39.7232 1373.43 36.0774 Q1370.11 32.4315 1364.6 32.4315 Q1358.36 32.4315 1354.59 35.9558 Q1350.87 39.4801 1350.3 45.8805 L1376.87 45.84 Z" fill="#000000" fill-rule="evenodd" fill-opacity="1" /><path clip-path="url(#clip750)" d="M1417.18 49.7694 Q1408.15 49.7694 1404.66 51.8354 Q1401.18 53.9013 1401.18 58.8839 Q1401.18 62.8538 1403.77 65.2034 Q1406.41 67.5124 1410.9 67.5124 Q1417.1 67.5124 1420.83 63.1374 Q1424.59 58.7219 1424.59 51.4303 L1424.59 49.7694 L1417.18 49.7694 M1432.05 46.6907 L1432.05 72.576 L1424.59 72.576 L1424.59 65.6895 Q1422.04 69.8214 1418.23 71.8063 Q1414.43 73.7508 1408.92 73.7508 Q1401.95 73.7508 1397.82 69.8619 Q1393.73 65.9325 1393.73 59.3701 Q1393.73 51.7138 1398.83 47.825 Q1403.98 43.9361 1414.14 43.9361 L1424.59 43.9361 L1424.59 43.2069 Q1424.59 38.0623 1421.19 35.2672 Q1417.83 32.4315 1411.71 32.4315 Q1407.82 32.4315 1404.14 33.3632 Q1400.45 34.295 1397.05 36.1584 L1397.05 29.2718 Q1401.14 27.692 1404.99 26.9223 Q1408.84 26.1121 1412.48 26.1121 Q1422.33 26.1121 1427.19 31.2163 Q1432.05 36.3204 1432.05 46.6907 Z" fill="#000000" fill-rule="evenodd" fill-opacity="1" /><path clip-path="url(#clip750)" d="M1482.72 35.9153 Q1485.52 30.8922 1489.41 28.5022 Q1493.3 26.1121 1498.56 26.1121 Q1505.65 26.1121 1509.5 31.0947 Q1513.35 36.0368 1513.35 45.1919 L1513.35 72.576 L1505.86 72.576 L1505.86 45.4349 Q1505.86 38.913 1503.55 35.7533 Q1501.24 32.5936 1496.5 32.5936 Q1490.7 32.5936 1487.34 36.4419 Q1483.98 40.2903 1483.98 46.9338 L1483.98 72.576 L1476.49 72.576 L1476.49 45.4349 Q1476.49 38.8725 1474.18 35.7533 Q1471.87 32.5936 1467.05 32.5936 Q1461.34 32.5936 1457.97 36.4824 Q1454.61 40.3308 1454.61 46.9338 L1454.61 72.576 L1447.12 72.576 L1447.12 27.2059 L1454.61 27.2059 L1454.61 34.2544 Q1457.16 30.082 1460.73 28.0971 Q1464.29 26.1121 1469.19 26.1121 Q1474.14 26.1121 1477.58 28.6237 Q1481.06 31.1352 1482.72 35.9153 Z" fill="#000000" fill-rule="evenodd" fill-opacity="1" /><path clip-path="url(#clip750)" d="M1583.59 44.2197 Q1586.23 45.1109 1588.7 48.0275 Q1591.21 50.9442 1593.72 56.0483 L1602.02 72.576 L1593.23 72.576 L1585.5 57.061 Q1582.5 50.9847 1579.66 48.9997 Q1576.87 47.0148 1572.01 47.0148 L1563.09 47.0148 L1563.09 72.576 L1554.91 72.576 L1554.91 12.096 L1573.38 12.096 Q1583.75 12.096 1588.86 16.4305 Q1593.96 20.7649 1593.96 29.5149 Q1593.96 35.2267 1591.29 38.994 Q1588.66 42.7613 1583.59 44.2197 M1563.09 18.8205 L1563.09 40.2903 L1573.38 40.2903 Q1579.3 40.2903 1582.3 37.5762 Q1585.33 34.8216 1585.33 29.5149 Q1585.33 24.2082 1582.3 21.5346 Q1579.3 18.8205 1573.38 18.8205 L1563.09 18.8205 Z" fill="#000000" fill-rule="evenodd" fill-opacity="1" /><path clip-path="url(#clip750)" d="M1647.31 48.0275 L1647.31 51.6733 L1613.04 51.6733 Q1613.53 59.3701 1617.66 63.421 Q1621.83 67.4314 1629.25 67.4314 Q1633.54 67.4314 1637.55 66.3781 Q1641.6 65.3249 1645.57 63.2184 L1645.57 70.267 Q1641.56 71.9684 1637.35 72.8596 Q1633.13 73.7508 1628.8 73.7508 Q1617.94 73.7508 1611.58 67.4314 Q1605.26 61.1119 1605.26 50.3365 Q1605.26 39.1965 1611.26 32.6746 Q1617.3 26.1121 1627.5 26.1121 Q1636.66 26.1121 1641.97 32.0264 Q1647.31 37.9003 1647.31 48.0275 M1639.86 45.84 Q1639.78 39.7232 1636.42 36.0774 Q1633.09 32.4315 1627.58 32.4315 Q1621.35 32.4315 1617.58 35.9558 Q1613.85 39.4801 1613.29 45.8805 L1639.86 45.84 Z" fill="#000000" fill-rule="evenodd" fill-opacity="1" /><path clip-path="url(#clip750)" d="M1664 49.9314 Q1664 58.1548 1667.36 62.8538 Q1670.77 67.5124 1676.68 67.5124 Q1682.6 67.5124 1686 62.8538 Q1689.4 58.1548 1689.4 49.9314 Q1689.4 41.7081 1686 37.0496 Q1682.6 32.3505 1676.68 32.3505 Q1670.77 32.3505 1667.36 37.0496 Q1664 41.7081 1664 49.9314 M1689.4 65.7705 Q1687.05 69.8214 1683.45 71.8063 Q1679.88 73.7508 1674.86 73.7508 Q1666.64 73.7508 1661.45 67.1883 Q1656.31 60.6258 1656.31 49.9314 Q1656.31 39.2371 1661.45 32.6746 Q1666.64 26.1121 1674.86 26.1121 Q1679.88 26.1121 1683.45 28.0971 Q1687.05 30.0415 1689.4 34.0924 L1689.4 27.2059 L1696.86 27.2059 L1696.86 89.8329 L1689.4 89.8329 L1689.4 65.7705 Z" fill="#000000" fill-rule="evenodd" fill-opacity="1" /><path clip-path="url(#clip750)" d="M1711.44 54.671 L1711.44 27.2059 L1718.89 27.2059 L1718.89 54.3874 Q1718.89 60.8284 1721.4 64.0691 Q1723.92 67.2693 1728.94 67.2693 Q1734.97 67.2693 1738.46 63.421 Q1741.98 59.5726 1741.98 52.9291 L1741.98 27.2059 L1749.44 27.2059 L1749.44 72.576 L1741.98 72.576 L1741.98 65.6084 Q1739.27 69.7404 1735.66 71.7658 Q1732.1 73.7508 1727.36 73.7508 Q1719.54 73.7508 1715.49 68.8897 Q1711.44 64.0286 1711.44 54.671 M1730.19 26.1121 L1730.19 26.1121 Z" fill="#000000" fill-rule="evenodd" fill-opacity="1" /><path clip-path="url(#clip750)" d="M1764.79 27.2059 L1772.24 27.2059 L1772.24 72.576 L1764.79 72.576 L1764.79 27.2059 M1764.79 9.54393 L1772.24 9.54393 L1772.24 18.9825 L1764.79 18.9825 L1764.79 9.54393 Z" fill="#000000" fill-rule="evenodd" fill-opacity="1" /><path clip-path="url(#clip750)" d="M1814.13 34.1734 Q1812.87 33.4443 1811.37 33.1202 Q1809.92 32.7556 1808.13 32.7556 Q1801.81 32.7556 1798.41 36.8875 Q1795.05 40.9789 1795.05 48.6757 L1795.05 72.576 L1787.56 72.576 L1787.56 27.2059 L1795.05 27.2059 L1795.05 34.2544 Q1797.4 30.1225 1801.17 28.1376 Q1804.93 26.1121 1810.32 26.1121 Q1811.09 26.1121 1812.02 26.2337 Q1812.95 26.3147 1814.09 26.5172 L1814.13 34.1734 Z" fill="#000000" fill-rule="evenodd" fill-opacity="1" /><path clip-path="url(#clip750)" d="M1858.93 48.0275 L1858.93 51.6733 L1824.66 51.6733 Q1825.15 59.3701 1829.28 63.421 Q1833.45 67.4314 1840.87 67.4314 Q1845.16 67.4314 1849.17 66.3781 Q1853.22 65.3249 1857.19 63.2184 L1857.19 70.267 Q1853.18 71.9684 1848.97 72.8596 Q1844.75 73.7508 1840.42 73.7508 Q1829.56 73.7508 1823.2 67.4314 Q1816.88 61.1119 1816.88 50.3365 Q1816.88 39.1965 1822.88 32.6746 Q1828.91 26.1121 1839.12 26.1121 Q1848.28 26.1121 1853.58 32.0264 Q1858.93 37.9003 1858.93 48.0275 M1851.48 45.84 Q1851.4 39.7232 1848.04 36.0774 Q1844.71 32.4315 1839.2 32.4315 Q1832.97 32.4315 1829.2 35.9558 Q1825.47 39.4801 1824.9 45.8805 L1851.48 45.84 Z" fill="#000000" fill-rule="evenodd" fill-opacity="1" /><path clip-path="url(#clip750)" d="M1906.49 35.9153 Q1909.28 30.8922 1913.17 28.5022 Q1917.06 26.1121 1922.33 26.1121 Q1929.42 26.1121 1933.27 31.0947 Q1937.11 36.0368 1937.11 45.1919 L1937.11 72.576 L1929.62 72.576 L1929.62 45.4349 Q1929.62 38.913 1927.31 35.7533 Q1925 32.5936 1920.26 32.5936 Q1914.47 32.5936 1911.11 36.4419 Q1907.75 40.2903 1907.75 46.9338 L1907.75 72.576 L1900.25 72.576 L1900.25 45.4349 Q1900.25 38.8725 1897.94 35.7533 Q1895.63 32.5936 1890.81 32.5936 Q1885.1 32.5936 1881.74 36.4824 Q1878.38 40.3308 1878.38 46.9338 L1878.38 72.576 L1870.88 72.576 L1870.88 27.2059 L1878.38 27.2059 L1878.38 34.2544 Q1880.93 30.082 1884.49 28.0971 Q1888.06 26.1121 1892.96 26.1121 Q1897.9 26.1121 1901.35 28.6237 Q1904.83 31.1352 1906.49 35.9153 Z" fill="#000000" fill-rule="evenodd" fill-opacity="1" /><path clip-path="url(#clip750)" d="M1990.79 48.0275 L1990.79 51.6733 L1956.52 51.6733 Q1957 59.3701 1961.14 63.421 Q1965.31 67.4314 1972.72 67.4314 Q1977.02 67.4314 1981.03 66.3781 Q1985.08 65.3249 1989.05 63.2184 L1989.05 70.267 Q1985.04 71.9684 1980.82 72.8596 Q1976.61 73.7508 1972.28 73.7508 Q1961.42 73.7508 1955.06 67.4314 Q1948.74 61.1119 1948.74 50.3365 Q1948.74 39.1965 1954.74 32.6746 Q1960.77 26.1121 1970.98 26.1121 Q1980.14 26.1121 1985.44 32.0264 Q1990.79 37.9003 1990.79 48.0275 M1983.34 45.84 Q1983.25 39.7232 1979.89 36.0774 Q1976.57 32.4315 1971.06 32.4315 Q1964.82 32.4315 1961.06 35.9558 Q1957.33 39.4801 1956.76 45.8805 L1983.34 45.84 Z" fill="#000000" fill-rule="evenodd" fill-opacity="1" /><path clip-path="url(#clip750)" d="M2040.74 45.1919 L2040.74 72.576 L2033.28 72.576 L2033.28 45.4349 Q2033.28 38.994 2030.77 35.7938 Q2028.26 32.5936 2023.24 32.5936 Q2017.2 32.5936 2013.72 36.4419 Q2010.23 40.2903 2010.23 46.9338 L2010.23 72.576 L2002.74 72.576 L2002.74 27.2059 L2010.23 27.2059 L2010.23 34.2544 Q2012.91 30.163 2016.51 28.1376 Q2020.16 26.1121 2024.9 26.1121 Q2032.72 26.1121 2036.73 30.9732 Q2040.74 35.7938 2040.74 45.1919 Z" fill="#000000" fill-rule="evenodd" fill-opacity="1" /><path clip-path="url(#clip750)" d="M2062.98 14.324 L2062.98 27.2059 L2078.33 27.2059 L2078.33 32.9987 L2062.98 32.9987 L2062.98 57.6282 Q2062.98 63.1779 2064.47 64.7578 Q2066.01 66.3376 2070.67 66.3376 L2078.33 66.3376 L2078.33 72.576 L2070.67 72.576 Q2062.04 72.576 2058.76 69.3758 Q2055.48 66.1351 2055.48 57.6282 L2055.48 32.9987 L2050.01 32.9987 L2050.01 27.2059 L2055.48 27.2059 L2055.48 14.324 L2062.98 14.324 Z" fill="#000000" fill-rule="evenodd" fill-opacity="1" /><path clip-path="url(#clip752)" d="M559.951 1360.84 L559.951 1688.65 L719.785 1688.65 L719.785 1360.84 L559.951 1360.84 L559.951 1360.84  Z" fill="#009af9" fill-rule="evenodd" fill-opacity="1"/>
<polyline clip-path="url(#clip752)" style="stroke:#000000; stroke-linecap:round; stroke-linejoin:round; stroke-width:12; stroke-opacity:1; fill:none" points="559.951,1360.84 559.951,1688.65 719.785,1688.65 719.785,1360.84 559.951,1360.84 "/>
<path clip-path="url(#clip752)" d="M759.744 1089.27 L759.744 1688.65 L919.578 1688.65 L919.578 1089.27 L759.744 1089.27 L759.744 1089.27  Z" fill="#009af9" fill-rule="evenodd" fill-opacity="1"/>
<polyline clip-path="url(#clip752)" style="stroke:#000000; stroke-linecap:round; stroke-linejoin:round; stroke-width:12; stroke-opacity:1; fill:none" points="759.744,1089.27 759.744,1688.65 919.578,1688.65 919.578,1089.27 759.744,1089.27 "/>
<path clip-path="url(#clip752)" d="M959.536 912.487 L959.536 1688.65 L1119.37 1688.65 L1119.37 912.487 L959.536 912.487 L959.536 912.487  Z" fill="#009af9" fill-rule="evenodd" fill-opacity="1"/>
<polyline clip-path="url(#clip752)" style="stroke:#000000; stroke-linecap:round; stroke-linejoin:round; stroke-width:12; stroke-opacity:1; fill:none" points="959.536,912.487 959.536,1688.65 1119.37,1688.65 1119.37,912.487 959.536,912.487 "/>
<path clip-path="url(#clip752)" d="M1159.33 769.521 L1159.33 1688.65 L1319.16 1688.65 L1319.16 769.521 L1159.33 769.521 L1159.33 769.521  Z" fill="#009af9" fill-rule="evenodd" fill-opacity="1"/>
<polyline clip-path="url(#clip752)" style="stroke:#000000; stroke-linecap:round; stroke-linejoin:round; stroke-width:12; stroke-opacity:1; fill:none" points="1159.33,769.521 1159.33,1688.65 1319.16,1688.65 1319.16,769.521 1159.33,769.521 "/>
<path clip-path="url(#clip752)" d="M1359.12 646.102 L1359.12 1688.65 L1518.96 1688.65 L1518.96 646.102 L1359.12 646.102 L1359.12 646.102  Z" fill="#009af9" fill-rule="evenodd" fill-opacity="1"/>
<polyline clip-path="url(#clip752)" style="stroke:#000000; stroke-linecap:round; stroke-linejoin:round; stroke-width:12; stroke-opacity:1; fill:none" points="1359.12,646.102 1359.12,1688.65 1518.96,1688.65 1518.96,646.102 1359.12,646.102 "/>
<path clip-path="url(#clip752)" d="M1558.91 535.872 L1558.91 1688.65 L1718.75 1688.65 L1718.75 535.872 L1558.91 535.872 L1558.91 535.872  Z" fill="#009af9" fill-rule="evenodd" fill-opacity="1"/>
<polyline clip-path="url(#clip752)" style="stroke:#000000; stroke-linecap:round; stroke-linejoin:round; stroke-width:12; stroke-opacity:1; fill:none" points="1558.91,535.872 1558.91,1688.65 1718.75,1688.65 1718.75,535.872 1558.91,535.872 "/>
<path clip-path="url(#clip752)" d="M1758.71 435.325 L1758.71 1688.65 L1918.54 1688.65 L1918.54 435.325 L1758.71 435.325 L1758.71 435.325  Z" fill="#009af9" fill-rule="evenodd" fill-opacity="1"/>
<polyline clip-path="url(#clip752)" style="stroke:#000000; stroke-linecap:round; stroke-linejoin:round; stroke-width:12; stroke-opacity:1; fill:none" points="1758.71,435.325 1758.71,1688.65 1918.54,1688.65 1918.54,435.325 1758.71,435.325 "/>
<path clip-path="url(#clip752)" d="M1958.5 342.28 L1958.5 1688.65 L2118.33 1688.65 L2118.33 342.28 L1958.5 342.28 L1958.5 342.28  Z" fill="#009af9" fill-rule="evenodd" fill-opacity="1"/>
<polyline clip-path="url(#clip752)" style="stroke:#000000; stroke-linecap:round; stroke-linejoin:round; stroke-width:12; stroke-opacity:1; fill:none" points="1958.5,342.28 1958.5,1688.65 2118.33,1688.65 2118.33,342.28 1958.5,342.28 "/>
<path clip-path="url(#clip752)" d="M2158.29 255.271 L2158.29 1688.65 L2318.13 1688.65 L2318.13 255.271 L2158.29 255.271 L2158.29 255.271  Z" fill="#009af9" fill-rule="evenodd" fill-opacity="1"/>
<polyline clip-path="url(#clip752)" style="stroke:#000000; stroke-linecap:round; stroke-linejoin:round; stroke-width:12; stroke-opacity:1; fill:none" points="2158.29,255.271 2158.29,1688.65 2318.13,1688.65 2318.13,255.271 2158.29,255.271 "/>
<path clip-path="url(#clip752)" d="M2358.09 173.254 L2358.09 1688.65 L2517.92 1688.65 L2517.92 173.254 L2358.09 173.254 L2358.09 173.254  Z" fill="#009af9" fill-rule="evenodd" fill-opacity="1"/>
<polyline clip-path="url(#clip752)" style="stroke:#000000; stroke-linecap:round; stroke-linejoin:round; stroke-width:12; stroke-opacity:1; fill:none" points="2358.09,173.254 2358.09,1688.65 2517.92,1688.65 2517.92,173.254 2358.09,173.254 "/>
<circle clip-path="url(#clip752)" style="fill:#009af9; stroke:none; fill-opacity:0" cx="639.868" cy="1360.84" r="2"/>
<circle clip-path="url(#clip752)" style="fill:#009af9; stroke:none; fill-opacity:0" cx="839.661" cy="1089.27" r="2"/>
<circle clip-path="url(#clip752)" style="fill:#009af9; stroke:none; fill-opacity:0" cx="1039.45" cy="912.487" r="2"/>
<circle clip-path="url(#clip752)" style="fill:#009af9; stroke:none; fill-opacity:0" cx="1239.25" cy="769.521" r="2"/>
<circle clip-path="url(#clip752)" style="fill:#009af9; stroke:none; fill-opacity:0" cx="1439.04" cy="646.102" r="2"/>
<circle clip-path="url(#clip752)" style="fill:#009af9; stroke:none; fill-opacity:0" cx="1638.83" cy="535.872" r="2"/>
<circle clip-path="url(#clip752)" style="fill:#009af9; stroke:none; fill-opacity:0" cx="1838.62" cy="435.325" r="2"/>
<circle clip-path="url(#clip752)" style="fill:#009af9; stroke:none; fill-opacity:0" cx="2038.42" cy="342.28" r="2"/>
<circle clip-path="url(#clip752)" style="fill:#009af9; stroke:none; fill-opacity:0" cx="2238.21" cy="255.271" r="2"/>
<circle clip-path="url(#clip752)" style="fill:#009af9; stroke:none; fill-opacity:0" cx="2438" cy="173.254" r="2"/>
<path clip-path="url(#clip750)" d="M451.47 310.936 L1398.98 310.936 L1398.98 181.336 L451.47 181.336  Z" fill="#ffffff" fill-rule="evenodd" fill-opacity="1"/>
<polyline clip-path="url(#clip750)" style="stroke:#000000; stroke-linecap:round; stroke-linejoin:round; stroke-width:4; stroke-opacity:1; fill:none" points="451.47,310.936 1398.98,310.936 1398.98,181.336 451.47,181.336 451.47,310.936 "/>
<path clip-path="url(#clip750)" d="M476.635 272.056 L627.62 272.056 L627.62 220.216 L476.635 220.216 L476.635 272.056  Z" fill="#009af9" fill-rule="evenodd" fill-opacity="1"/>
<polyline clip-path="url(#clip750)" style="stroke:#000000; stroke-linecap:round; stroke-linejoin:round; stroke-width:15; stroke-opacity:1; fill:none" points="476.635,272.056 627.62,272.056 627.62,220.216 476.635,220.216 476.635,272.056 "/>
<path clip-path="url(#clip750)" d="M672.575 230.294 L664.647 251.793 L680.533 251.793 L672.575 230.294 M669.277 224.536 L675.903 224.536 L692.367 267.736 L686.291 267.736 L682.356 256.654 L662.882 256.654 L658.947 267.736 L652.784 267.736 L669.277 224.536 Z" fill="#000000" fill-rule="evenodd" fill-opacity="1" /><path clip-path="url(#clip750)" d="M723.067 277.574 L723.067 281.712 L692.28 281.712 L692.28 277.574 L723.067 277.574 Z" fill="#000000" fill-rule="evenodd" fill-opacity="1" /><path clip-path="url(#clip750)" d="M749.398 240.248 L749.398 222.713 L754.722 222.713 L754.722 267.736 L749.398 267.736 L749.398 262.875 Q747.72 265.769 745.145 267.187 Q742.598 268.575 739.01 268.575 Q733.137 268.575 729.433 263.888 Q725.758 259.2 725.758 251.562 Q725.758 243.923 729.433 239.235 Q733.137 234.548 739.01 234.548 Q742.598 234.548 745.145 235.966 Q747.72 237.355 749.398 240.248 M731.256 251.562 Q731.256 257.435 733.657 260.792 Q736.088 264.119 740.312 264.119 Q744.537 264.119 746.967 260.792 Q749.398 257.435 749.398 251.562 Q749.398 245.688 746.967 242.36 Q744.537 239.004 740.312 239.004 Q736.088 239.004 733.657 242.36 Q731.256 245.688 731.256 251.562 Z" fill="#000000" fill-rule="evenodd" fill-opacity="1" /><path clip-path="url(#clip750)" d="M778.246 239.062 Q773.964 239.062 771.475 242.418 Q768.987 245.746 768.987 251.562 Q768.987 257.378 771.446 260.734 Q773.935 264.062 778.246 264.062 Q782.5 264.062 784.988 260.705 Q787.477 257.349 787.477 251.562 Q787.477 245.804 784.988 242.447 Q782.5 239.062 778.246 239.062 M778.246 234.548 Q785.191 234.548 789.155 239.062 Q793.119 243.576 793.119 251.562 Q793.119 259.519 789.155 264.062 Q785.191 268.575 778.246 268.575 Q771.273 268.575 767.309 264.062 Q763.374 259.519 763.374 251.562 Q763.374 243.576 767.309 239.062 Q771.273 234.548 778.246 234.548 Z" fill="#000000" fill-rule="evenodd" fill-opacity="1" /><path clip-path="url(#clip750)" d="M807.21 226.128 L807.21 235.329 L818.177 235.329 L818.177 239.467 L807.21 239.467 L807.21 257.059 Q807.21 261.023 808.281 262.152 Q809.38 263.28 812.708 263.28 L818.177 263.28 L818.177 267.736 L812.708 267.736 Q806.545 267.736 804.201 265.45 Q801.857 263.136 801.857 257.059 L801.857 239.467 L797.951 239.467 L797.951 235.329 L801.857 235.329 L801.857 226.128 L807.21 226.128 Z" fill="#000000" fill-rule="evenodd" fill-opacity="1" /><path clip-path="url(#clip750)" d="M844.71 240.827 L881.805 240.827 L881.805 245.688 L844.71 245.688 L844.71 240.827 M844.71 252.632 L881.805 252.632 L881.805 257.551 L844.71 257.551 L844.71 252.632 Z" fill="#000000" fill-rule="evenodd" fill-opacity="1" /><path clip-path="url(#clip750)" d="M929.316 229.629 L914.559 252.69 L929.316 252.69 L929.316 229.629 M927.782 224.536 L935.132 224.536 L935.132 252.69 L941.295 252.69 L941.295 257.551 L935.132 257.551 L935.132 267.736 L929.316 267.736 L929.316 257.551 L909.814 257.551 L909.814 251.909 L927.782 224.536 Z" fill="#000000" fill-rule="evenodd" fill-opacity="1" /><path clip-path="url(#clip750)" d="M963.459 228.385 Q958.945 228.385 956.66 232.841 Q954.403 237.268 954.403 246.18 Q954.403 255.063 956.66 259.519 Q958.945 263.946 963.459 263.946 Q968.002 263.946 970.259 259.519 Q972.545 255.063 972.545 246.18 Q972.545 237.268 970.259 232.841 Q968.002 228.385 963.459 228.385 M963.459 223.755 Q970.722 223.755 974.541 229.513 Q978.39 235.242 978.39 246.18 Q978.39 257.088 974.541 262.846 Q970.722 268.575 963.459 268.575 Q956.197 268.575 952.348 262.846 Q948.529 257.088 948.529 246.18 Q948.529 235.242 952.348 229.513 Q956.197 223.755 963.459 223.755 Z" fill="#000000" fill-rule="evenodd" fill-opacity="1" /><path clip-path="url(#clip750)" d="M1001.16 228.385 Q996.648 228.385 994.362 232.841 Q992.105 237.268 992.105 246.18 Q992.105 255.063 994.362 259.519 Q996.648 263.946 1001.16 263.946 Q1005.7 263.946 1007.96 259.519 Q1010.25 255.063 1010.25 246.18 Q1010.25 237.268 1007.96 232.841 Q1005.7 228.385 1001.16 228.385 M1001.16 223.755 Q1008.42 223.755 1012.24 229.513 Q1016.09 235.242 1016.09 246.18 Q1016.09 257.088 1012.24 262.846 Q1008.42 268.575 1001.16 268.575 Q993.899 268.575 990.051 262.846 Q986.231 257.088 986.231 246.18 Q986.231 235.242 990.051 229.513 Q993.899 223.755 1001.16 223.755 Z" fill="#000000" fill-rule="evenodd" fill-opacity="1" /><path clip-path="url(#clip750)" d="M1038.86 228.385 Q1034.35 228.385 1032.06 232.841 Q1029.81 237.268 1029.81 246.18 Q1029.81 255.063 1032.06 259.519 Q1034.35 263.946 1038.86 263.946 Q1043.41 263.946 1045.66 259.519 Q1047.95 255.063 1047.95 246.18 Q1047.95 237.268 1045.66 232.841 Q1043.41 228.385 1038.86 228.385 M1038.86 223.755 Q1046.13 223.755 1049.95 229.513 Q1053.79 235.242 1053.79 246.18 Q1053.79 257.088 1049.95 262.846 Q1046.13 268.575 1038.86 268.575 Q1031.6 268.575 1027.75 262.846 Q1023.93 257.088 1023.93 246.18 Q1023.93 235.242 1027.75 229.513 Q1031.6 223.755 1038.86 223.755 Z" fill="#000000" fill-rule="evenodd" fill-opacity="1" /><path clip-path="url(#clip750)" d="M1107.38 241.55 Q1109.38 237.962 1112.16 236.255 Q1114.93 234.548 1118.7 234.548 Q1123.76 234.548 1126.51 238.107 Q1129.26 241.637 1129.26 248.176 L1129.26 267.736 L1123.9 267.736 L1123.9 248.35 Q1123.9 243.691 1122.25 241.434 Q1120.61 239.177 1117.22 239.177 Q1113.08 239.177 1110.68 241.926 Q1108.28 244.675 1108.28 249.42 L1108.28 267.736 L1102.93 267.736 L1102.93 248.35 Q1102.93 243.662 1101.28 241.434 Q1099.63 239.177 1096.18 239.177 Q1092.1 239.177 1089.7 241.955 Q1087.3 244.704 1087.3 249.42 L1087.3 267.736 L1081.95 267.736 L1081.95 235.329 L1087.3 235.329 L1087.3 240.364 Q1089.12 237.383 1091.67 235.966 Q1094.22 234.548 1097.72 234.548 Q1101.25 234.548 1103.71 236.342 Q1106.2 238.136 1107.38 241.55 Z" fill="#000000" fill-rule="evenodd" fill-opacity="1" /><path clip-path="url(#clip750)" d="M1161.95 224.536 L1177.67 240.653 L1171.85 240.653 L1159.12 229.224 L1146.39 240.653 L1140.57 240.653 L1156.28 224.536 L1161.95 224.536 Z" fill="#000000" fill-rule="evenodd" fill-opacity="1" /><path clip-path="url(#clip750)" d="M1195.32 262.817 L1215.71 262.817 L1215.71 267.736 L1188.28 267.736 L1188.28 262.817 Q1191.61 259.374 1197.34 253.587 Q1203.1 247.771 1204.57 246.093 Q1207.38 242.939 1208.48 240.769 Q1209.61 238.57 1209.61 236.458 Q1209.61 233.014 1207.18 230.844 Q1204.78 228.674 1200.9 228.674 Q1198.15 228.674 1195.08 229.629 Q1192.05 230.584 1188.57 232.522 L1188.57 226.62 Q1192.1 225.202 1195.17 224.478 Q1198.24 223.755 1200.78 223.755 Q1207.5 223.755 1211.49 227.112 Q1215.48 230.468 1215.48 236.081 Q1215.48 238.743 1214.47 241.145 Q1213.49 243.518 1210.85 246.758 Q1210.13 247.598 1206.25 251.619 Q1202.38 255.613 1195.32 262.817 Z" fill="#000000" fill-rule="evenodd" fill-opacity="1" /><path clip-path="url(#clip750)" d="M1236.69 224.536 L1241.61 224.536 L1226.57 273.234 L1221.65 273.234 L1236.69 224.536 Z" fill="#000000" fill-rule="evenodd" fill-opacity="1" /><path clip-path="url(#clip750)" d="M1260.68 270.746 Q1258.42 276.533 1256.28 278.298 Q1254.14 280.063 1250.55 280.063 L1246.3 280.063 L1246.3 275.607 L1249.42 275.607 Q1251.62 275.607 1252.84 274.565 Q1254.05 273.523 1255.53 269.646 L1256.48 267.215 L1243.38 235.329 L1249.02 235.329 L1259.15 260.676 L1269.27 235.329 L1274.92 235.329 L1260.68 270.746 Z" fill="#000000" fill-rule="evenodd" fill-opacity="1" /><path clip-path="url(#clip750)" d="M1309.99 250.202 L1309.99 252.806 L1285.51 252.806 Q1285.85 258.303 1288.8 261.197 Q1291.79 264.062 1297.08 264.062 Q1300.15 264.062 1303.01 263.309 Q1305.91 262.557 1308.74 261.052 L1308.74 266.087 Q1305.88 267.302 1302.87 267.939 Q1299.86 268.575 1296.76 268.575 Q1289.01 268.575 1284.46 264.062 Q1279.95 259.548 1279.95 251.851 Q1279.95 243.894 1284.23 239.235 Q1288.54 234.548 1295.84 234.548 Q1302.38 234.548 1306.17 238.772 Q1309.99 242.968 1309.99 250.202 M1304.66 248.639 Q1304.6 244.27 1302.2 241.666 Q1299.83 239.062 1295.89 239.062 Q1291.44 239.062 1288.75 241.579 Q1286.08 244.096 1285.68 248.668 L1304.66 248.639 Z" fill="#000000" fill-rule="evenodd" fill-opacity="1" /><path clip-path="url(#clip750)" d="M1333.45 251.446 Q1327 251.446 1324.51 252.922 Q1322.02 254.397 1322.02 257.956 Q1322.02 260.792 1323.87 262.47 Q1325.75 264.119 1328.97 264.119 Q1333.39 264.119 1336.06 260.994 Q1338.75 257.841 1338.75 252.632 L1338.75 251.446 L1333.45 251.446 M1344.07 249.247 L1344.07 267.736 L1338.75 267.736 L1338.75 262.817 Q1336.92 265.769 1334.2 267.187 Q1331.48 268.575 1327.55 268.575 Q1322.57 268.575 1319.62 265.798 Q1316.7 262.991 1316.7 258.303 Q1316.7 252.835 1320.34 250.057 Q1324.02 247.279 1331.28 247.279 L1338.75 247.279 L1338.75 246.758 Q1338.75 243.084 1336.32 241.087 Q1333.91 239.062 1329.55 239.062 Q1326.77 239.062 1324.13 239.727 Q1321.5 240.393 1319.07 241.724 L1319.07 236.805 Q1321.99 235.676 1324.74 235.127 Q1327.49 234.548 1330.1 234.548 Q1337.13 234.548 1340.6 238.194 Q1344.07 241.839 1344.07 249.247 Z" fill="#000000" fill-rule="evenodd" fill-opacity="1" /><path clip-path="url(#clip750)" d="M1373.82 240.306 Q1372.92 239.785 1371.85 239.554 Q1370.81 239.293 1369.53 239.293 Q1365.02 239.293 1362.59 242.245 Q1360.19 245.167 1360.19 250.665 L1360.19 267.736 L1354.83 267.736 L1354.83 235.329 L1360.19 235.329 L1360.19 240.364 Q1361.87 237.412 1364.56 235.995 Q1367.25 234.548 1371.1 234.548 Q1371.65 234.548 1372.31 234.635 Q1372.98 234.692 1373.79 234.837 L1373.82 240.306 Z" fill="#000000" fill-rule="evenodd" fill-opacity="1" /></svg>
