<?xml version="1.0" encoding="utf-8"?>
<svg xmlns="http://www.w3.org/2000/svg" xmlns:xlink="http://www.w3.org/1999/xlink" width="672" height="480" viewBox="0 0 2688 1920">
<defs>
  <clipPath id="clip120">
    <rect x="0" y="0" width="2688" height="1920"/>
  </clipPath>
</defs>
<path clip-path="url(#clip120)" d="M0 1920 L2688 1920 L2688 0 L0 0  Z" fill="#ffffff" fill-rule="evenodd" fill-opacity="1"/>
<defs>
  <clipPath id="clip121">
    <rect x="537" y="0" width="1883" height="1883"/>
  </clipPath>
</defs>
<defs>
  <clipPath id="clip122">
    <rect x="255" y="47" width="2386" height="1688"/>
  </clipPath>
</defs>
<path clip-path="url(#clip120)" d="M373.57 1734.12 L2640.76 1734.12 L2640.76 127.792 L373.57 127.792  Z" fill="#ffffff" fill-rule="evenodd" fill-opacity="1"/>
<defs>
  <clipPath id="clip123">
    <rect x="373" y="127" width="2268" height="1607"/>
  </clipPath>
</defs>
<polyline clip-path="url(#clip123)" style="stroke:#5f9ea0; stroke-linecap:round; stroke-linejoin:round; stroke-width:8; stroke-opacity:0.4; fill:none" stroke-dasharray="32, 16, 4, 16" points="437.736,1734.12 437.736,127.792 "/>
<polyline clip-path="url(#clip123)" style="stroke:#5f9ea0; stroke-linecap:round; stroke-linejoin:round; stroke-width:8; stroke-opacity:0.4; fill:none" stroke-dasharray="32, 16, 4, 16" points="937.749,1734.12 937.749,127.792 "/>
<polyline clip-path="url(#clip123)" style="stroke:#5f9ea0; stroke-linecap:round; stroke-linejoin:round; stroke-width:8; stroke-opacity:0.4; fill:none" stroke-dasharray="32, 16, 4, 16" points="1437.76,1734.12 1437.76,127.792 "/>
<polyline clip-path="url(#clip123)" style="stroke:#5f9ea0; stroke-linecap:round; stroke-linejoin:round; stroke-width:8; stroke-opacity:0.4; fill:none" stroke-dasharray="32, 16, 4, 16" points="1937.77,1734.12 1937.77,127.792 "/>
<polyline clip-path="url(#clip123)" style="stroke:#5f9ea0; stroke-linecap:round; stroke-linejoin:round; stroke-width:8; stroke-opacity:0.4; fill:none" stroke-dasharray="32, 16, 4, 16" points="2437.79,1734.12 2437.79,127.792 "/>
<polyline clip-path="url(#clip120)" style="stroke:#000000; stroke-linecap:round; stroke-linejoin:round; stroke-width:4; stroke-opacity:1; fill:none" points="373.57,1734.12 2640.76,1734.12 "/>
<polyline clip-path="url(#clip120)" style="stroke:#000000; stroke-linecap:round; stroke-linejoin:round; stroke-width:4; stroke-opacity:1; fill:none" points="373.57,127.792 2640.76,127.792 "/>
<polyline clip-path="url(#clip120)" style="stroke:#000000; stroke-linecap:round; stroke-linejoin:round; stroke-width:4; stroke-opacity:1; fill:none" points="437.736,1734.12 437.736,1715.22 "/>
<polyline clip-path="url(#clip120)" style="stroke:#000000; stroke-linecap:round; stroke-linejoin:round; stroke-width:4; stroke-opacity:1; fill:none" points="937.749,1734.12 937.749,1715.22 "/>
<polyline clip-path="url(#clip120)" style="stroke:#000000; stroke-linecap:round; stroke-linejoin:round; stroke-width:4; stroke-opacity:1; fill:none" points="1437.76,1734.12 1437.76,1715.22 "/>
<polyline clip-path="url(#clip120)" style="stroke:#000000; stroke-linecap:round; stroke-linejoin:round; stroke-width:4; stroke-opacity:1; fill:none" points="1937.77,1734.12 1937.77,1715.22 "/>
<polyline clip-path="url(#clip120)" style="stroke:#000000; stroke-linecap:round; stroke-linejoin:round; stroke-width:4; stroke-opacity:1; fill:none" points="2437.79,1734.12 2437.79,1715.22 "/>
<path clip-path="url(#clip120)" d="M415.12 1767.34 Q411.509 1767.34 409.681 1770.9 Q407.875 1774.45 407.875 1781.58 Q407.875 1788.68 409.681 1792.25 Q411.509 1795.79 415.12 1795.79 Q418.755 1795.79 420.56 1792.25 Q422.389 1788.68 422.389 1781.58 Q422.389 1774.45 420.56 1770.9 Q418.755 1767.34 415.12 1767.34 M415.12 1763.64 Q420.93 1763.64 423.986 1768.24 Q427.065 1772.83 427.065 1781.58 Q427.065 1790.3 423.986 1794.91 Q420.93 1799.49 415.12 1799.49 Q409.31 1799.49 406.231 1794.91 Q403.176 1790.3 403.176 1781.58 Q403.176 1772.83 406.231 1768.24 Q409.31 1763.64 415.12 1763.64 Z" fill="#000000" fill-rule="evenodd" fill-opacity="1" /><path clip-path="url(#clip120)" d="M435.282 1792.94 L440.166 1792.94 L440.166 1798.82 L435.282 1798.82 L435.282 1792.94 Z" fill="#000000" fill-rule="evenodd" fill-opacity="1" /><path clip-path="url(#clip120)" d="M460.352 1767.34 Q456.74 1767.34 454.912 1770.9 Q453.106 1774.45 453.106 1781.58 Q453.106 1788.68 454.912 1792.25 Q456.74 1795.79 460.352 1795.79 Q463.986 1795.79 465.791 1792.25 Q467.62 1788.68 467.62 1781.58 Q467.62 1774.45 465.791 1770.9 Q463.986 1767.34 460.352 1767.34 M460.352 1763.64 Q466.162 1763.64 469.217 1768.24 Q472.296 1772.83 472.296 1781.58 Q472.296 1790.3 469.217 1794.91 Q466.162 1799.49 460.352 1799.49 Q454.541 1799.49 451.463 1794.91 Q448.407 1790.3 448.407 1781.58 Q448.407 1772.83 451.463 1768.24 Q454.541 1763.64 460.352 1763.64 Z" fill="#000000" fill-rule="evenodd" fill-opacity="1" /><path clip-path="url(#clip120)" d="M909.485 1794.89 L925.804 1794.89 L925.804 1798.82 L903.86 1798.82 L903.86 1794.89 Q906.522 1792.13 911.105 1787.5 Q915.712 1782.85 916.892 1781.51 Q919.138 1778.98 920.017 1777.25 Q920.92 1775.49 920.92 1773.8 Q920.92 1771.04 918.976 1769.31 Q917.054 1767.57 913.952 1767.57 Q911.753 1767.57 909.3 1768.34 Q906.869 1769.1 904.091 1770.65 L904.091 1765.93 Q906.915 1764.79 909.369 1764.21 Q911.823 1763.64 913.86 1763.64 Q919.23 1763.64 922.425 1766.32 Q925.619 1769.01 925.619 1773.5 Q925.619 1775.63 924.809 1777.55 Q924.022 1779.45 921.915 1782.04 Q921.337 1782.71 918.235 1785.93 Q915.133 1789.12 909.485 1794.89 Z" fill="#000000" fill-rule="evenodd" fill-opacity="1" /><path clip-path="url(#clip120)" d="M935.619 1792.94 L940.503 1792.94 L940.503 1798.82 L935.619 1798.82 L935.619 1792.94 Z" fill="#000000" fill-rule="evenodd" fill-opacity="1" /><path clip-path="url(#clip120)" d="M950.735 1764.26 L969.091 1764.26 L969.091 1768.2 L955.017 1768.2 L955.017 1776.67 Q956.036 1776.32 957.054 1776.16 Q958.073 1775.97 959.091 1775.97 Q964.878 1775.97 968.258 1779.15 Q971.637 1782.32 971.637 1787.73 Q971.637 1793.31 968.165 1796.41 Q964.693 1799.49 958.374 1799.49 Q956.198 1799.49 953.929 1799.12 Q951.684 1798.75 949.276 1798.01 L949.276 1793.31 Q951.36 1794.45 953.582 1795 Q955.804 1795.56 958.281 1795.56 Q962.286 1795.56 964.624 1793.45 Q966.961 1791.34 966.961 1787.73 Q966.961 1784.12 964.624 1782.02 Q962.286 1779.91 958.281 1779.91 Q956.406 1779.91 954.531 1780.33 Q952.679 1780.74 950.735 1781.62 L950.735 1764.26 Z" fill="#000000" fill-rule="evenodd" fill-opacity="1" /><path clip-path="url(#clip120)" d="M1404.93 1764.26 L1423.28 1764.26 L1423.28 1768.2 L1409.21 1768.2 L1409.21 1776.67 Q1410.23 1776.32 1411.25 1776.16 Q1412.26 1775.97 1413.28 1775.97 Q1419.07 1775.97 1422.45 1779.15 Q1425.83 1782.32 1425.83 1787.73 Q1425.83 1793.31 1422.36 1796.41 Q1418.88 1799.49 1412.56 1799.49 Q1410.39 1799.49 1408.12 1799.12 Q1405.87 1798.75 1403.47 1798.01 L1403.47 1793.31 Q1405.55 1794.45 1407.77 1795 Q1410 1795.56 1412.47 1795.56 Q1416.48 1795.56 1418.81 1793.45 Q1421.15 1791.34 1421.15 1787.73 Q1421.15 1784.12 1418.81 1782.02 Q1416.48 1779.91 1412.47 1779.91 Q1410.6 1779.91 1408.72 1780.33 Q1406.87 1780.74 1404.93 1781.62 L1404.93 1764.26 Z" fill="#000000" fill-rule="evenodd" fill-opacity="1" /><path clip-path="url(#clip120)" d="M1435.04 1792.94 L1439.93 1792.94 L1439.93 1798.82 L1435.04 1798.82 L1435.04 1792.94 Z" fill="#000000" fill-rule="evenodd" fill-opacity="1" /><path clip-path="url(#clip120)" d="M1460.11 1767.34 Q1456.5 1767.34 1454.67 1770.9 Q1452.87 1774.45 1452.87 1781.58 Q1452.87 1788.68 1454.67 1792.25 Q1456.5 1795.79 1460.11 1795.79 Q1463.75 1795.79 1465.55 1792.25 Q1467.38 1788.68 1467.38 1781.58 Q1467.38 1774.45 1465.55 1770.9 Q1463.75 1767.34 1460.11 1767.34 M1460.11 1763.64 Q1465.92 1763.64 1468.98 1768.24 Q1472.06 1772.83 1472.06 1781.58 Q1472.06 1790.3 1468.98 1794.91 Q1465.92 1799.49 1460.11 1799.49 Q1454.3 1799.49 1451.22 1794.91 Q1448.17 1790.3 1448.17 1781.58 Q1448.17 1772.83 1451.22 1768.24 Q1454.3 1763.64 1460.11 1763.64 Z" fill="#000000" fill-rule="evenodd" fill-opacity="1" /><path clip-path="url(#clip120)" d="M1904.09 1764.26 L1926.32 1764.26 L1926.32 1766.25 L1913.77 1798.82 L1908.89 1798.82 L1920.69 1768.2 L1904.09 1768.2 L1904.09 1764.26 Z" fill="#000000" fill-rule="evenodd" fill-opacity="1" /><path clip-path="url(#clip120)" d="M1935.44 1792.94 L1940.32 1792.94 L1940.32 1798.82 L1935.44 1798.82 L1935.44 1792.94 Z" fill="#000000" fill-rule="evenodd" fill-opacity="1" /><path clip-path="url(#clip120)" d="M1950.55 1764.26 L1968.91 1764.26 L1968.91 1768.2 L1954.83 1768.2 L1954.83 1776.67 Q1955.85 1776.32 1956.87 1776.16 Q1957.89 1775.97 1958.91 1775.97 Q1964.7 1775.97 1968.07 1779.15 Q1971.45 1782.32 1971.45 1787.73 Q1971.45 1793.31 1967.98 1796.41 Q1964.51 1799.49 1958.19 1799.49 Q1956.01 1799.49 1953.75 1799.12 Q1951.5 1798.75 1949.09 1798.01 L1949.09 1793.31 Q1951.18 1794.45 1953.4 1795 Q1955.62 1795.56 1958.1 1795.56 Q1962.1 1795.56 1964.44 1793.45 Q1966.78 1791.34 1966.78 1787.73 Q1966.78 1784.12 1964.44 1782.02 Q1962.1 1779.91 1958.1 1779.91 Q1956.22 1779.91 1954.35 1780.33 Q1952.5 1780.74 1950.55 1781.62 L1950.55 1764.26 Z" fill="#000000" fill-rule="evenodd" fill-opacity="1" /><path clip-path="url(#clip120)" d="M2389.86 1794.89 L2397.5 1794.89 L2397.5 1768.52 L2389.19 1770.19 L2389.19 1765.93 L2397.45 1764.26 L2402.13 1764.26 L2402.13 1794.89 L2409.77 1794.89 L2409.77 1798.82 L2389.86 1798.82 L2389.86 1794.89 Z" fill="#000000" fill-rule="evenodd" fill-opacity="1" /><path clip-path="url(#clip120)" d="M2429.21 1767.34 Q2425.6 1767.34 2423.77 1770.9 Q2421.97 1774.45 2421.97 1781.58 Q2421.97 1788.68 2423.77 1792.25 Q2425.6 1795.79 2429.21 1795.79 Q2432.84 1795.79 2434.65 1792.25 Q2436.48 1788.68 2436.48 1781.58 Q2436.48 1774.45 2434.65 1770.9 Q2432.84 1767.34 2429.21 1767.34 M2429.21 1763.64 Q2435.02 1763.64 2438.08 1768.24 Q2441.15 1772.83 2441.15 1781.58 Q2441.15 1790.3 2438.08 1794.91 Q2435.02 1799.49 2429.21 1799.49 Q2423.4 1799.49 2420.32 1794.91 Q2417.27 1790.3 2417.27 1781.58 Q2417.27 1772.83 2420.32 1768.24 Q2423.4 1763.64 2429.21 1763.64 Z" fill="#000000" fill-rule="evenodd" fill-opacity="1" /><path clip-path="url(#clip120)" d="M2449.37 1792.94 L2454.26 1792.94 L2454.26 1798.82 L2449.37 1798.82 L2449.37 1792.94 Z" fill="#000000" fill-rule="evenodd" fill-opacity="1" /><path clip-path="url(#clip120)" d="M2474.44 1767.34 Q2470.83 1767.34 2469 1770.9 Q2467.2 1774.45 2467.2 1781.58 Q2467.2 1788.68 2469 1792.25 Q2470.83 1795.79 2474.44 1795.79 Q2478.08 1795.79 2479.88 1792.25 Q2481.71 1788.68 2481.71 1781.58 Q2481.71 1774.45 2479.88 1770.9 Q2478.08 1767.34 2474.44 1767.34 M2474.44 1763.64 Q2480.25 1763.64 2483.31 1768.24 Q2486.39 1772.83 2486.39 1781.58 Q2486.39 1790.3 2483.31 1794.91 Q2480.25 1799.49 2474.44 1799.49 Q2468.63 1799.49 2465.55 1794.91 Q2462.5 1790.3 2462.5 1781.58 Q2462.5 1772.83 2465.55 1768.24 Q2468.63 1763.64 2474.44 1763.64 Z" fill="#000000" fill-rule="evenodd" fill-opacity="1" /><path clip-path="url(#clip120)" d="M1325.31 1835.78 L1365.51 1835.78 L1365.51 1841.19 L1348.64 1841.19 L1348.64 1883.3 L1342.18 1883.3 L1342.18 1841.19 L1325.31 1841.19 L1325.31 1835.78 Z" fill="#000000" fill-rule="evenodd" fill-opacity="1" /><path clip-path="url(#clip120)" d="M1369.46 1847.65 L1375.31 1847.65 L1375.31 1883.3 L1369.46 1883.3 L1369.46 1847.65 M1369.46 1833.78 L1375.31 1833.78 L1375.31 1841.19 L1369.46 1841.19 L1369.46 1833.78 Z" fill="#000000" fill-rule="evenodd" fill-opacity="1" /><path clip-path="url(#clip120)" d="M1415.32 1854.5 Q1417.52 1850.55 1420.57 1848.67 Q1423.63 1846.79 1427.77 1846.79 Q1433.34 1846.79 1436.36 1850.71 Q1439.38 1854.59 1439.38 1861.78 L1439.38 1883.3 L1433.5 1883.3 L1433.5 1861.98 Q1433.5 1856.85 1431.68 1854.37 Q1429.87 1851.89 1426.14 1851.89 Q1421.59 1851.89 1418.95 1854.91 Q1416.31 1857.93 1416.31 1863.15 L1416.31 1883.3 L1410.42 1883.3 L1410.42 1861.98 Q1410.42 1856.82 1408.61 1854.37 Q1406.79 1851.89 1403 1851.89 Q1398.52 1851.89 1395.87 1854.94 Q1393.23 1857.97 1393.23 1863.15 L1393.23 1883.3 L1387.34 1883.3 L1387.34 1847.65 L1393.23 1847.65 L1393.23 1853.19 Q1395.24 1849.91 1398.04 1848.35 Q1400.84 1846.79 1404.69 1846.79 Q1408.57 1846.79 1411.28 1848.77 Q1414.02 1850.74 1415.32 1854.5 Z" fill="#000000" fill-rule="evenodd" fill-opacity="1" /><path clip-path="url(#clip120)" d="M1481.56 1864.01 L1481.56 1866.88 L1454.63 1866.88 Q1455.01 1872.92 1458.26 1876.11 Q1461.54 1879.26 1467.36 1879.26 Q1470.74 1879.26 1473.89 1878.43 Q1477.07 1877.6 1480.19 1875.95 L1480.19 1881.49 Q1477.04 1882.82 1473.73 1883.52 Q1470.42 1884.22 1467.01 1884.22 Q1458.48 1884.22 1453.48 1879.26 Q1448.52 1874.29 1448.52 1865.83 Q1448.52 1857.07 1453.23 1851.95 Q1457.97 1846.79 1465.99 1846.79 Q1473.19 1846.79 1477.36 1851.44 Q1481.56 1856.06 1481.56 1864.01 M1475.7 1862.29 Q1475.64 1857.49 1473 1854.62 Q1470.39 1851.76 1466.06 1851.76 Q1461.15 1851.76 1458.19 1854.53 Q1455.27 1857.3 1454.82 1862.33 L1475.7 1862.29 Z" fill="#000000" fill-rule="evenodd" fill-opacity="1" /><path clip-path="url(#clip120)" d="M1525.96 1833.84 Q1521.69 1841.16 1519.62 1848.32 Q1517.56 1855.48 1517.56 1862.84 Q1517.56 1870.19 1519.62 1877.41 Q1521.72 1884.61 1525.96 1891.89 L1520.87 1891.89 Q1516.09 1884.41 1513.7 1877.19 Q1511.35 1869.96 1511.35 1862.84 Q1511.35 1855.74 1513.7 1848.54 Q1516.06 1841.35 1520.87 1833.84 L1525.96 1833.84 Z" fill="#000000" fill-rule="evenodd" fill-opacity="1" /><path clip-path="url(#clip120)" d="M1531.05 1835.78 L1537.96 1835.78 L1551.13 1855.32 L1564.22 1835.78 L1571.12 1835.78 L1554.32 1860.67 L1554.32 1883.3 L1547.86 1883.3 L1547.86 1860.67 L1531.05 1835.78 Z" fill="#000000" fill-rule="evenodd" fill-opacity="1" /><path clip-path="url(#clip120)" d="M1598.97 1864.01 L1598.97 1866.88 L1572.05 1866.88 Q1572.43 1872.92 1575.67 1876.11 Q1578.95 1879.26 1584.78 1879.26 Q1588.15 1879.26 1591.3 1878.43 Q1594.48 1877.6 1597.6 1875.95 L1597.6 1881.49 Q1594.45 1882.82 1591.14 1883.52 Q1587.83 1884.22 1584.43 1884.22 Q1575.9 1884.22 1570.9 1879.26 Q1565.93 1874.29 1565.93 1865.83 Q1565.93 1857.07 1570.65 1851.95 Q1575.39 1846.79 1583.41 1846.79 Q1590.6 1846.79 1594.77 1851.44 Q1598.97 1856.06 1598.97 1864.01 M1593.12 1862.29 Q1593.05 1857.49 1590.41 1854.62 Q1587.8 1851.76 1583.47 1851.76 Q1578.57 1851.76 1575.61 1854.53 Q1572.68 1857.3 1572.24 1862.33 L1593.12 1862.29 Z" fill="#000000" fill-rule="evenodd" fill-opacity="1" /><path clip-path="url(#clip120)" d="M1624.79 1865.38 Q1617.69 1865.38 1614.95 1867 Q1612.21 1868.63 1612.21 1872.54 Q1612.21 1875.66 1614.25 1877.51 Q1616.32 1879.32 1619.85 1879.32 Q1624.72 1879.32 1627.65 1875.88 Q1630.61 1872.42 1630.61 1866.69 L1630.61 1865.38 L1624.79 1865.38 M1636.47 1862.96 L1636.47 1883.3 L1630.61 1883.3 L1630.61 1877.89 Q1628.6 1881.14 1625.61 1882.7 Q1622.62 1884.22 1618.29 1884.22 Q1612.82 1884.22 1609.57 1881.17 Q1606.36 1878.08 1606.36 1872.92 Q1606.36 1866.91 1610.37 1863.85 Q1614.41 1860.8 1622.4 1860.8 L1630.61 1860.8 L1630.61 1860.23 Q1630.61 1856.18 1627.94 1853.99 Q1625.29 1851.76 1620.49 1851.76 Q1617.43 1851.76 1614.54 1852.49 Q1611.64 1853.22 1608.97 1854.69 L1608.97 1849.28 Q1612.18 1848.03 1615.21 1847.43 Q1618.23 1846.79 1621.09 1846.79 Q1628.83 1846.79 1632.65 1850.8 Q1636.47 1854.81 1636.47 1862.96 Z" fill="#000000" fill-rule="evenodd" fill-opacity="1" /><path clip-path="url(#clip120)" d="M1669.19 1853.13 Q1668.2 1852.55 1667.02 1852.3 Q1665.88 1852.01 1664.48 1852.01 Q1659.51 1852.01 1656.84 1855.26 Q1654.2 1858.47 1654.2 1864.52 L1654.2 1883.3 L1648.31 1883.3 L1648.31 1847.65 L1654.2 1847.65 L1654.2 1853.19 Q1656.04 1849.94 1659 1848.39 Q1661.96 1846.79 1666.19 1846.79 Q1666.8 1846.79 1667.53 1846.89 Q1668.26 1846.95 1669.15 1847.11 L1669.19 1853.13 Z" fill="#000000" fill-rule="evenodd" fill-opacity="1" /><path clip-path="url(#clip120)" d="M1674.41 1833.84 L1679.5 1833.84 Q1684.27 1841.35 1686.63 1848.54 Q1689.02 1855.74 1689.02 1862.84 Q1689.02 1869.96 1686.63 1877.19 Q1684.27 1884.41 1679.5 1891.89 L1674.41 1891.89 Q1678.64 1884.61 1680.71 1877.41 Q1682.81 1870.19 1682.81 1862.84 Q1682.81 1855.48 1680.71 1848.32 Q1678.64 1841.16 1674.41 1833.84 Z" fill="#000000" fill-rule="evenodd" fill-opacity="1" /><polyline clip-path="url(#clip123)" style="stroke:#5f9ea0; stroke-linecap:round; stroke-linejoin:round; stroke-width:8; stroke-opacity:0.4; fill:none" stroke-dasharray="32, 16, 4, 16" points="373.57,1688.65 2640.76,1688.65 "/>
<polyline clip-path="url(#clip123)" style="stroke:#5f9ea0; stroke-linecap:round; stroke-linejoin:round; stroke-width:8; stroke-opacity:0.4; fill:none" stroke-dasharray="32, 16, 4, 16" points="373.57,1321.31 2640.76,1321.31 "/>
<polyline clip-path="url(#clip123)" style="stroke:#5f9ea0; stroke-linecap:round; stroke-linejoin:round; stroke-width:8; stroke-opacity:0.4; fill:none" stroke-dasharray="32, 16, 4, 16" points="373.57,953.965 2640.76,953.965 "/>
<polyline clip-path="url(#clip123)" style="stroke:#5f9ea0; stroke-linecap:round; stroke-linejoin:round; stroke-width:8; stroke-opacity:0.4; fill:none" stroke-dasharray="32, 16, 4, 16" points="373.57,586.621 2640.76,586.621 "/>
<polyline clip-path="url(#clip123)" style="stroke:#5f9ea0; stroke-linecap:round; stroke-linejoin:round; stroke-width:8; stroke-opacity:0.4; fill:none" stroke-dasharray="32, 16, 4, 16" points="373.57,219.276 2640.76,219.276 "/>
<polyline clip-path="url(#clip120)" style="stroke:#000000; stroke-linecap:round; stroke-linejoin:round; stroke-width:4; stroke-opacity:1; fill:none" points="373.57,1734.12 373.57,127.792 "/>
<polyline clip-path="url(#clip120)" style="stroke:#000000; stroke-linecap:round; stroke-linejoin:round; stroke-width:4; stroke-opacity:1; fill:none" points="2640.76,1734.12 2640.76,127.792 "/>
<polyline clip-path="url(#clip120)" style="stroke:#000000; stroke-linecap:round; stroke-linejoin:round; stroke-width:4; stroke-opacity:1; fill:none" points="373.57,1688.65 392.468,1688.65 "/>
<polyline clip-path="url(#clip120)" style="stroke:#000000; stroke-linecap:round; stroke-linejoin:round; stroke-width:4; stroke-opacity:1; fill:none" points="373.57,1321.31 392.468,1321.31 "/>
<polyline clip-path="url(#clip120)" style="stroke:#000000; stroke-linecap:round; stroke-linejoin:round; stroke-width:4; stroke-opacity:1; fill:none" points="373.57,953.965 392.468,953.965 "/>
<polyline clip-path="url(#clip120)" style="stroke:#000000; stroke-linecap:round; stroke-linejoin:round; stroke-width:4; stroke-opacity:1; fill:none" points="373.57,586.621 392.468,586.621 "/>
<polyline clip-path="url(#clip120)" style="stroke:#000000; stroke-linecap:round; stroke-linejoin:round; stroke-width:4; stroke-opacity:1; fill:none" points="373.57,219.276 392.468,219.276 "/>
<path clip-path="url(#clip120)" d="M321.306 1674.45 Q317.695 1674.45 315.866 1678.02 Q314.061 1681.56 314.061 1688.69 Q314.061 1695.8 315.866 1699.36 Q317.695 1702.9 321.306 1702.9 Q324.94 1702.9 326.746 1699.36 Q328.574 1695.8 328.574 1688.69 Q328.574 1681.56 326.746 1678.02 Q324.94 1674.45 321.306 1674.45 M321.306 1670.75 Q327.116 1670.75 330.172 1675.36 Q333.25 1679.94 333.25 1688.69 Q333.25 1697.42 330.172 1702.02 Q327.116 1706.61 321.306 1706.61 Q315.496 1706.61 312.417 1702.02 Q309.362 1697.42 309.362 1688.69 Q309.362 1679.94 312.417 1675.36 Q315.496 1670.75 321.306 1670.75 Z" fill="#000000" fill-rule="evenodd" fill-opacity="1" /><path clip-path="url(#clip120)" d="M121.839 1341.1 L138.159 1341.1 L138.159 1345.04 L116.214 1345.04 L116.214 1341.1 Q118.876 1338.35 123.46 1333.72 Q128.066 1329.07 129.247 1327.72 Q131.492 1325.2 132.372 1323.46 Q133.275 1321.7 133.275 1320.01 Q133.275 1317.26 131.33 1315.52 Q129.409 1313.79 126.307 1313.79 Q124.108 1313.79 121.654 1314.55 Q119.224 1315.32 116.446 1316.87 L116.446 1312.14 Q119.27 1311.01 121.724 1310.43 Q124.177 1309.85 126.214 1309.85 Q131.585 1309.85 134.779 1312.54 Q137.974 1315.22 137.974 1319.71 Q137.974 1321.84 137.163 1323.76 Q136.376 1325.66 134.27 1328.26 Q133.691 1328.93 130.589 1332.14 Q127.488 1335.34 121.839 1341.1 Z" fill="#000000" fill-rule="evenodd" fill-opacity="1" /><path clip-path="url(#clip120)" d="M147.974 1339.16 L152.858 1339.16 L152.858 1345.04 L147.974 1345.04 L147.974 1339.16 Z" fill="#000000" fill-rule="evenodd" fill-opacity="1" /><path clip-path="url(#clip120)" d="M163.089 1310.48 L181.446 1310.48 L181.446 1314.41 L167.372 1314.41 L167.372 1322.89 Q168.39 1322.54 169.409 1322.38 Q170.427 1322.19 171.446 1322.19 Q177.233 1322.19 180.612 1325.36 Q183.992 1328.53 183.992 1333.95 Q183.992 1339.53 180.52 1342.63 Q177.047 1345.71 170.728 1345.71 Q168.552 1345.71 166.284 1345.34 Q164.038 1344.97 161.631 1344.23 L161.631 1339.53 Q163.714 1340.66 165.936 1341.22 Q168.159 1341.77 170.635 1341.77 Q174.64 1341.77 176.978 1339.67 Q179.316 1337.56 179.316 1333.95 Q179.316 1330.34 176.978 1328.23 Q174.64 1326.13 170.635 1326.13 Q168.76 1326.13 166.885 1326.54 Q165.034 1326.96 163.089 1327.84 L163.089 1310.48 Z" fill="#000000" fill-rule="evenodd" fill-opacity="1" /><path clip-path="url(#clip120)" d="M203.205 1313.56 Q199.594 1313.56 197.765 1317.12 Q195.959 1320.66 195.959 1327.79 Q195.959 1334.9 197.765 1338.46 Q199.594 1342.01 203.205 1342.01 Q206.839 1342.01 208.645 1338.46 Q210.473 1334.9 210.473 1327.79 Q210.473 1320.66 208.645 1317.12 Q206.839 1313.56 203.205 1313.56 M203.205 1309.85 Q209.015 1309.85 212.07 1314.46 Q215.149 1319.04 215.149 1327.79 Q215.149 1336.52 212.07 1341.13 Q209.015 1345.71 203.205 1345.71 Q197.395 1345.71 194.316 1341.13 Q191.26 1336.52 191.26 1327.79 Q191.26 1319.04 194.316 1314.46 Q197.395 1309.85 203.205 1309.85 Z" fill="#000000" fill-rule="evenodd" fill-opacity="1" /><path clip-path="url(#clip120)" d="M251.538 1319.57 L240.959 1330.2 L251.538 1340.78 L248.783 1343.58 L238.158 1332.95 L227.533 1343.58 L224.802 1340.78 L235.357 1330.2 L224.802 1319.57 L227.533 1316.77 L238.158 1327.4 L248.783 1316.77 L251.538 1319.57 Z" fill="#000000" fill-rule="evenodd" fill-opacity="1" /><path clip-path="url(#clip120)" d="M263.899 1341.1 L271.538 1341.1 L271.538 1314.74 L263.228 1316.4 L263.228 1312.14 L271.491 1310.48 L276.167 1310.48 L276.167 1341.1 L283.806 1341.1 L283.806 1345.04 L263.899 1345.04 L263.899 1341.1 Z" fill="#000000" fill-rule="evenodd" fill-opacity="1" /><path clip-path="url(#clip120)" d="M303.25 1313.56 Q299.639 1313.56 297.811 1317.12 Q296.005 1320.66 296.005 1327.79 Q296.005 1334.9 297.811 1338.46 Q299.639 1342.01 303.25 1342.01 Q306.885 1342.01 308.69 1338.46 Q310.519 1334.9 310.519 1327.79 Q310.519 1320.66 308.69 1317.12 Q306.885 1313.56 303.25 1313.56 M303.25 1309.85 Q309.061 1309.85 312.116 1314.46 Q315.195 1319.04 315.195 1327.79 Q315.195 1336.52 312.116 1341.13 Q309.061 1345.71 303.25 1345.71 Q297.44 1345.71 294.362 1341.13 Q291.306 1336.52 291.306 1327.79 Q291.306 1319.04 294.362 1314.46 Q297.44 1309.85 303.25 1309.85 Z" fill="#000000" fill-rule="evenodd" fill-opacity="1" /><path clip-path="url(#clip120)" d="M315.195 1289.55 L333.25 1289.55 L333.25 1291.16 L323.057 1317.63 L319.088 1317.63 L328.68 1292.74 L315.195 1292.74 L315.195 1289.55 Z" fill="#000000" fill-rule="evenodd" fill-opacity="1" /><path clip-path="url(#clip120)" d="M117.858 943.133 L136.214 943.133 L136.214 947.068 L122.14 947.068 L122.14 955.54 Q123.159 955.193 124.177 955.031 Q125.196 954.846 126.214 954.846 Q132.001 954.846 135.381 958.017 Q138.761 961.189 138.761 966.605 Q138.761 972.184 135.288 975.286 Q131.816 978.364 125.497 978.364 Q123.321 978.364 121.052 977.994 Q118.807 977.624 116.4 976.883 L116.4 972.184 Q118.483 973.318 120.705 973.874 Q122.927 974.429 125.404 974.429 Q129.409 974.429 131.747 972.323 Q134.085 970.216 134.085 966.605 Q134.085 962.994 131.747 960.888 Q129.409 958.781 125.404 958.781 Q123.529 958.781 121.654 959.198 Q119.802 959.614 117.858 960.494 L117.858 943.133 Z" fill="#000000" fill-rule="evenodd" fill-opacity="1" /><path clip-path="url(#clip120)" d="M147.974 971.813 L152.858 971.813 L152.858 977.693 L147.974 977.693 L147.974 971.813 Z" fill="#000000" fill-rule="evenodd" fill-opacity="1" /><path clip-path="url(#clip120)" d="M173.043 946.212 Q169.432 946.212 167.603 949.777 Q165.798 953.318 165.798 960.448 Q165.798 967.554 167.603 971.119 Q169.432 974.661 173.043 974.661 Q176.677 974.661 178.483 971.119 Q180.311 967.554 180.311 960.448 Q180.311 953.318 178.483 949.777 Q176.677 946.212 173.043 946.212 M173.043 942.508 Q178.853 942.508 181.909 947.115 Q184.987 951.698 184.987 960.448 Q184.987 969.175 181.909 973.781 Q178.853 978.364 173.043 978.364 Q167.233 978.364 164.154 973.781 Q161.098 969.175 161.098 960.448 Q161.098 951.698 164.154 947.115 Q167.233 942.508 173.043 942.508 Z" fill="#000000" fill-rule="evenodd" fill-opacity="1" /><path clip-path="url(#clip120)" d="M203.205 946.212 Q199.594 946.212 197.765 949.777 Q195.959 953.318 195.959 960.448 Q195.959 967.554 197.765 971.119 Q199.594 974.661 203.205 974.661 Q206.839 974.661 208.645 971.119 Q210.473 967.554 210.473 960.448 Q210.473 953.318 208.645 949.777 Q206.839 946.212 203.205 946.212 M203.205 942.508 Q209.015 942.508 212.07 947.115 Q215.149 951.698 215.149 960.448 Q215.149 969.175 212.07 973.781 Q209.015 978.364 203.205 978.364 Q197.395 978.364 194.316 973.781 Q191.26 969.175 191.26 960.448 Q191.26 951.698 194.316 947.115 Q197.395 942.508 203.205 942.508 Z" fill="#000000" fill-rule="evenodd" fill-opacity="1" /><path clip-path="url(#clip120)" d="M251.538 952.23 L240.959 962.855 L251.538 973.434 L248.783 976.235 L238.158 965.61 L227.533 976.235 L224.802 973.434 L235.357 962.855 L224.802 952.23 L227.533 949.429 L238.158 960.054 L248.783 949.429 L251.538 952.23 Z" fill="#000000" fill-rule="evenodd" fill-opacity="1" /><path clip-path="url(#clip120)" d="M263.899 973.758 L271.538 973.758 L271.538 947.392 L263.228 949.059 L263.228 944.8 L271.491 943.133 L276.167 943.133 L276.167 973.758 L283.806 973.758 L283.806 977.693 L263.899 977.693 L263.899 973.758 Z" fill="#000000" fill-rule="evenodd" fill-opacity="1" /><path clip-path="url(#clip120)" d="M303.25 946.212 Q299.639 946.212 297.811 949.777 Q296.005 953.318 296.005 960.448 Q296.005 967.554 297.811 971.119 Q299.639 974.661 303.25 974.661 Q306.885 974.661 308.69 971.119 Q310.519 967.554 310.519 960.448 Q310.519 953.318 308.69 949.777 Q306.885 946.212 303.25 946.212 M303.25 942.508 Q309.061 942.508 312.116 947.115 Q315.195 951.698 315.195 960.448 Q315.195 969.175 312.116 973.781 Q309.061 978.364 303.25 978.364 Q297.44 978.364 294.362 973.781 Q291.306 969.175 291.306 960.448 Q291.306 951.698 294.362 947.115 Q297.44 942.508 303.25 942.508 Z" fill="#000000" fill-rule="evenodd" fill-opacity="1" /><path clip-path="url(#clip120)" d="M315.195 922.203 L333.25 922.203 L333.25 923.82 L323.057 950.283 L319.088 950.283 L328.68 925.4 L315.195 925.4 L315.195 922.203 Z" fill="#000000" fill-rule="evenodd" fill-opacity="1" /><path clip-path="url(#clip120)" d="M116.631 575.788 L138.853 575.788 L138.853 577.779 L126.307 610.348 L121.423 610.348 L133.228 579.724 L116.631 579.724 L116.631 575.788 Z" fill="#000000" fill-rule="evenodd" fill-opacity="1" /><path clip-path="url(#clip120)" d="M147.974 604.469 L152.858 604.469 L152.858 610.348 L147.974 610.348 L147.974 604.469 Z" fill="#000000" fill-rule="evenodd" fill-opacity="1" /><path clip-path="url(#clip120)" d="M163.089 575.788 L181.446 575.788 L181.446 579.724 L167.372 579.724 L167.372 588.196 Q168.39 587.848 169.409 587.686 Q170.427 587.501 171.446 587.501 Q177.233 587.501 180.612 590.673 Q183.992 593.844 183.992 599.26 Q183.992 604.839 180.52 607.941 Q177.047 611.02 170.728 611.02 Q168.552 611.02 166.284 610.649 Q164.038 610.279 161.631 609.538 L161.631 604.839 Q163.714 605.973 165.936 606.529 Q168.159 607.084 170.635 607.084 Q174.64 607.084 176.978 604.978 Q179.316 602.872 179.316 599.26 Q179.316 595.649 176.978 593.543 Q174.64 591.436 170.635 591.436 Q168.76 591.436 166.885 591.853 Q165.034 592.27 163.089 593.149 L163.089 575.788 Z" fill="#000000" fill-rule="evenodd" fill-opacity="1" /><path clip-path="url(#clip120)" d="M203.205 578.867 Q199.594 578.867 197.765 582.432 Q195.959 585.973 195.959 593.103 Q195.959 600.21 197.765 603.774 Q199.594 607.316 203.205 607.316 Q206.839 607.316 208.645 603.774 Q210.473 600.21 210.473 593.103 Q210.473 585.973 208.645 582.432 Q206.839 578.867 203.205 578.867 M203.205 575.163 Q209.015 575.163 212.07 579.77 Q215.149 584.353 215.149 593.103 Q215.149 601.83 212.07 606.436 Q209.015 611.02 203.205 611.02 Q197.395 611.02 194.316 606.436 Q191.26 601.83 191.26 593.103 Q191.26 584.353 194.316 579.77 Q197.395 575.163 203.205 575.163 Z" fill="#000000" fill-rule="evenodd" fill-opacity="1" /><path clip-path="url(#clip120)" d="M251.538 584.886 L240.959 595.51 L251.538 606.089 L248.783 608.89 L238.158 598.265 L227.533 608.89 L224.802 606.089 L235.357 595.51 L224.802 584.886 L227.533 582.085 L238.158 592.71 L248.783 582.085 L251.538 584.886 Z" fill="#000000" fill-rule="evenodd" fill-opacity="1" /><path clip-path="url(#clip120)" d="M263.899 606.413 L271.538 606.413 L271.538 580.048 L263.228 581.714 L263.228 577.455 L271.491 575.788 L276.167 575.788 L276.167 606.413 L283.806 606.413 L283.806 610.348 L263.899 610.348 L263.899 606.413 Z" fill="#000000" fill-rule="evenodd" fill-opacity="1" /><path clip-path="url(#clip120)" d="M303.25 578.867 Q299.639 578.867 297.811 582.432 Q296.005 585.973 296.005 593.103 Q296.005 600.21 297.811 603.774 Q299.639 607.316 303.25 607.316 Q306.885 607.316 308.69 603.774 Q310.519 600.21 310.519 593.103 Q310.519 585.973 308.69 582.432 Q306.885 578.867 303.25 578.867 M303.25 575.163 Q309.061 575.163 312.116 579.77 Q315.195 584.353 315.195 593.103 Q315.195 601.83 312.116 606.436 Q309.061 611.02 303.25 611.02 Q297.44 611.02 294.362 606.436 Q291.306 601.83 291.306 593.103 Q291.306 584.353 294.362 579.77 Q297.44 575.163 303.25 575.163 Z" fill="#000000" fill-rule="evenodd" fill-opacity="1" /><path clip-path="url(#clip120)" d="M315.195 554.858 L333.25 554.858 L333.25 556.475 L323.057 582.938 L319.088 582.938 L328.68 558.055 L315.195 558.055 L315.195 554.858 Z" fill="#000000" fill-rule="evenodd" fill-opacity="1" /><path clip-path="url(#clip120)" d="M117.418 239.068 L125.057 239.068 L125.057 212.703 L116.747 214.37 L116.747 210.11 L125.011 208.444 L129.687 208.444 L129.687 239.068 L137.325 239.068 L137.325 243.004 L117.418 243.004 L117.418 239.068 Z" fill="#000000" fill-rule="evenodd" fill-opacity="1" /><path clip-path="url(#clip120)" d="M146.77 237.124 L151.654 237.124 L151.654 243.004 L146.77 243.004 L146.77 237.124 Z" fill="#000000" fill-rule="evenodd" fill-opacity="1" /><path clip-path="url(#clip120)" d="M171.839 211.522 Q168.228 211.522 166.399 215.087 Q164.594 218.629 164.594 225.758 Q164.594 232.865 166.399 236.43 Q168.228 239.971 171.839 239.971 Q175.473 239.971 177.279 236.43 Q179.108 232.865 179.108 225.758 Q179.108 218.629 177.279 215.087 Q175.473 211.522 171.839 211.522 M171.839 207.819 Q177.649 207.819 180.705 212.425 Q183.784 217.008 183.784 225.758 Q183.784 234.485 180.705 239.092 Q177.649 243.675 171.839 243.675 Q166.029 243.675 162.95 239.092 Q159.895 234.485 159.895 225.758 Q159.895 217.008 162.95 212.425 Q166.029 207.819 171.839 207.819 Z" fill="#000000" fill-rule="evenodd" fill-opacity="1" /><path clip-path="url(#clip120)" d="M202.001 211.522 Q198.39 211.522 196.561 215.087 Q194.756 218.629 194.756 225.758 Q194.756 232.865 196.561 236.43 Q198.39 239.971 202.001 239.971 Q205.635 239.971 207.441 236.43 Q209.27 232.865 209.27 225.758 Q209.27 218.629 207.441 215.087 Q205.635 211.522 202.001 211.522 M202.001 207.819 Q207.811 207.819 210.867 212.425 Q213.945 217.008 213.945 225.758 Q213.945 234.485 210.867 239.092 Q207.811 243.675 202.001 243.675 Q196.191 243.675 193.112 239.092 Q190.057 234.485 190.057 225.758 Q190.057 217.008 193.112 212.425 Q196.191 207.819 202.001 207.819 Z" fill="#000000" fill-rule="evenodd" fill-opacity="1" /><path clip-path="url(#clip120)" d="M250.334 217.541 L239.755 228.166 L250.334 238.744 L247.579 241.545 L236.955 230.92 L226.33 241.545 L223.598 238.744 L234.154 228.166 L223.598 217.541 L226.33 214.74 L236.955 225.365 L247.579 214.74 L250.334 217.541 Z" fill="#000000" fill-rule="evenodd" fill-opacity="1" /><path clip-path="url(#clip120)" d="M262.695 239.068 L270.334 239.068 L270.334 212.703 L262.024 214.37 L262.024 210.11 L270.288 208.444 L274.964 208.444 L274.964 239.068 L282.602 239.068 L282.602 243.004 L262.695 243.004 L262.695 239.068 Z" fill="#000000" fill-rule="evenodd" fill-opacity="1" /><path clip-path="url(#clip120)" d="M302.047 211.522 Q298.436 211.522 296.607 215.087 Q294.801 218.629 294.801 225.758 Q294.801 232.865 296.607 236.43 Q298.436 239.971 302.047 239.971 Q305.681 239.971 307.487 236.43 Q309.315 232.865 309.315 225.758 Q309.315 218.629 307.487 215.087 Q305.681 211.522 302.047 211.522 M302.047 207.819 Q307.857 207.819 310.912 212.425 Q313.991 217.008 313.991 225.758 Q313.991 234.485 310.912 239.092 Q307.857 243.675 302.047 243.675 Q296.237 243.675 293.158 239.092 Q290.102 234.485 290.102 225.758 Q290.102 217.008 293.158 212.425 Q296.237 207.819 302.047 207.819 Z" fill="#000000" fill-rule="evenodd" fill-opacity="1" /><path clip-path="url(#clip120)" d="M323.621 202.259 Q320.912 202.259 319.351 203.707 Q317.809 205.155 317.809 207.694 Q317.809 210.233 319.351 211.681 Q320.912 213.129 323.621 213.129 Q326.329 213.129 327.89 211.681 Q329.451 210.214 329.451 207.694 Q329.451 205.155 327.89 203.707 Q326.348 202.259 323.621 202.259 M319.822 200.641 Q317.377 200.039 316.004 198.365 Q314.649 196.691 314.649 194.284 Q314.649 190.917 317.038 188.961 Q319.445 187.005 323.621 187.005 Q327.815 187.005 330.203 188.961 Q332.592 190.917 332.592 194.284 Q332.592 196.691 331.219 198.365 Q329.865 200.039 327.439 200.641 Q330.185 201.281 331.708 203.142 Q333.25 205.004 333.25 207.694 Q333.25 211.775 330.749 213.957 Q328.266 216.139 323.621 216.139 Q318.975 216.139 316.474 213.957 Q313.991 211.775 313.991 207.694 Q313.991 205.004 315.533 203.142 Q317.076 201.281 319.822 200.641 M318.43 194.641 Q318.43 196.823 319.784 198.046 Q321.157 199.268 323.621 199.268 Q326.066 199.268 327.439 198.046 Q328.83 196.823 328.83 194.641 Q328.83 192.46 327.439 191.237 Q326.066 190.015 323.621 190.015 Q321.157 190.015 319.784 191.237 Q318.43 192.46 318.43 194.641 Z" fill="#000000" fill-rule="evenodd" fill-opacity="1" /><path clip-path="url(#clip120)" d="M20.4523 1682.16 L44.1009 1690.88 L44.1009 1673.4 L20.4523 1682.16 M14.1184 1685.78 L14.1184 1678.5 L61.6384 1660.38 L61.6384 1667.07 L49.4481 1671.4 L49.4481 1692.82 L61.6384 1697.15 L61.6384 1703.93 L14.1184 1685.78 Z" fill="#000000" fill-rule="evenodd" fill-opacity="1" /><path clip-path="url(#clip120)" d="M40.1224 1624.07 L61.6384 1624.07 L61.6384 1629.93 L40.3133 1629.93 Q35.2526 1629.93 32.7381 1631.9 Q30.2237 1633.87 30.2237 1637.82 Q30.2237 1642.56 33.2474 1645.3 Q36.2711 1648.04 41.491 1648.04 L61.6384 1648.04 L61.6384 1653.92 L25.9905 1653.92 L25.9905 1648.04 L31.5287 1648.04 Q28.314 1645.93 26.7225 1643.1 Q25.1311 1640.24 25.1311 1636.51 Q25.1311 1630.37 28.9505 1627.22 Q32.7381 1624.07 40.1224 1624.07 Z" fill="#000000" fill-rule="evenodd" fill-opacity="1" /><path clip-path="url(#clip120)" d="M40.1224 1582.76 L61.6384 1582.76 L61.6384 1588.61 L40.3133 1588.61 Q35.2526 1588.61 32.7381 1590.58 Q30.2237 1592.56 30.2237 1596.51 Q30.2237 1601.25 33.2474 1603.98 Q36.2711 1606.72 41.491 1606.72 L61.6384 1606.72 L61.6384 1612.61 L25.9905 1612.61 L25.9905 1606.72 L31.5287 1606.72 Q28.314 1604.62 26.7225 1601.79 Q25.1311 1598.92 25.1311 1595.2 Q25.1311 1589.06 28.9505 1585.91 Q32.7381 1582.76 40.1224 1582.76 Z" fill="#000000" fill-rule="evenodd" fill-opacity="1" /><path clip-path="url(#clip120)" d="M47.5702 1571.68 L25.9905 1571.68 L25.9905 1565.82 L47.3474 1565.82 Q52.4082 1565.82 54.9545 1563.85 Q57.4689 1561.88 57.4689 1557.93 Q57.4689 1553.19 54.4452 1550.45 Q51.4215 1547.68 46.2016 1547.68 L25.9905 1547.68 L25.9905 1541.82 L61.6384 1541.82 L61.6384 1547.68 L56.1639 1547.68 Q59.4104 1549.81 61.0019 1552.65 Q62.5615 1555.45 62.5615 1559.17 Q62.5615 1565.31 58.742 1568.5 Q54.9226 1571.68 47.5702 1571.68 M25.1311 1556.94 L25.1311 1556.94 Z" fill="#000000" fill-rule="evenodd" fill-opacity="1" /><path clip-path="url(#clip120)" d="M43.719 1513.56 Q43.719 1520.66 45.3422 1523.39 Q46.9655 1526.13 50.8804 1526.13 Q53.9996 1526.13 55.8457 1524.1 Q57.6599 1522.03 57.6599 1518.49 Q57.6599 1513.62 54.2224 1510.7 Q50.7531 1507.74 45.0239 1507.74 L43.719 1507.74 L43.719 1513.56 M41.3 1501.88 L61.6384 1501.88 L61.6384 1507.74 L56.2276 1507.74 Q59.4741 1509.74 61.0337 1512.73 Q62.5615 1515.72 62.5615 1520.05 Q62.5615 1525.53 59.5059 1528.77 Q56.4186 1531.99 51.2623 1531.99 Q45.2467 1531.99 42.1912 1527.98 Q39.1357 1523.94 39.1357 1515.95 L39.1357 1507.74 L38.5628 1507.74 Q34.5205 1507.74 32.3244 1510.41 Q30.0964 1513.05 30.0964 1517.86 Q30.0964 1520.91 30.8284 1523.81 Q31.5605 1526.71 33.0246 1529.38 L27.6137 1529.38 Q26.3724 1526.16 25.7677 1523.14 Q25.1311 1520.12 25.1311 1517.25 Q25.1311 1509.52 29.1415 1505.7 Q33.1519 1501.88 41.3 1501.88 Z" fill="#000000" fill-rule="evenodd" fill-opacity="1" /><path clip-path="url(#clip120)" d="M12.1132 1489.82 L12.1132 1483.96 L61.6384 1483.96 L61.6384 1489.82 L12.1132 1489.82 Z" fill="#000000" fill-rule="evenodd" fill-opacity="1" /><path clip-path="url(#clip120)" d="M40.1224 1421.35 L61.6384 1421.35 L61.6384 1427.21 L40.3133 1427.21 Q35.2526 1427.21 32.7381 1429.18 Q30.2237 1431.16 30.2237 1435.1 Q30.2237 1439.85 33.2474 1442.58 Q36.2711 1445.32 41.491 1445.32 L61.6384 1445.32 L61.6384 1451.21 L12.1132 1451.21 L12.1132 1445.32 L31.5287 1445.32 Q28.314 1443.22 26.7225 1440.39 Q25.1311 1437.52 25.1311 1433.8 Q25.1311 1427.65 28.9505 1424.5 Q32.7381 1421.35 40.1224 1421.35 Z" fill="#000000" fill-rule="evenodd" fill-opacity="1" /><path clip-path="url(#clip120)" d="M42.3504 1379.18 L45.2149 1379.18 L45.2149 1406.11 Q51.2623 1405.72 54.4452 1402.48 Q57.5962 1399.2 57.5962 1393.38 Q57.5962 1390 56.7687 1386.85 Q55.9411 1383.67 54.2861 1380.55 L59.8242 1380.55 Q61.161 1383.7 61.8612 1387.01 Q62.5615 1390.32 62.5615 1393.73 Q62.5615 1402.26 57.5962 1407.25 Q52.631 1412.22 44.1646 1412.22 Q35.4117 1412.22 30.2873 1407.51 Q25.1311 1402.76 25.1311 1394.74 Q25.1311 1387.55 29.7781 1383.38 Q34.3932 1379.18 42.3504 1379.18 M40.6316 1385.04 Q35.8255 1385.1 32.9609 1387.74 Q30.0964 1390.35 30.0964 1394.68 Q30.0964 1399.58 32.8654 1402.54 Q35.6345 1405.47 40.6634 1405.92 L40.6316 1385.04 Z" fill="#000000" fill-rule="evenodd" fill-opacity="1" /><path clip-path="url(#clip120)" d="M43.719 1353.37 Q43.719 1360.46 45.3422 1363.2 Q46.9655 1365.94 50.8804 1365.94 Q53.9996 1365.94 55.8457 1363.9 Q57.6599 1361.83 57.6599 1358.3 Q57.6599 1353.43 54.2224 1350.5 Q50.7531 1347.54 45.0239 1347.54 L43.719 1347.54 L43.719 1353.37 M41.3 1341.69 L61.6384 1341.69 L61.6384 1347.54 L56.2276 1347.54 Q59.4741 1349.55 61.0337 1352.54 Q62.5615 1355.53 62.5615 1359.86 Q62.5615 1365.33 59.5059 1368.58 Q56.4186 1371.8 51.2623 1371.8 Q45.2467 1371.8 42.1912 1367.79 Q39.1357 1363.74 39.1357 1355.75 L39.1357 1347.54 L38.5628 1347.54 Q34.5205 1347.54 32.3244 1350.22 Q30.0964 1352.86 30.0964 1357.66 Q30.0964 1360.72 30.8284 1363.62 Q31.5605 1366.51 33.0246 1369.19 L27.6137 1369.19 Q26.3724 1365.97 25.7677 1362.95 Q25.1311 1359.92 25.1311 1357.06 Q25.1311 1349.32 29.1415 1345.51 Q33.1519 1341.69 41.3 1341.69 Z" fill="#000000" fill-rule="evenodd" fill-opacity="1" /><path clip-path="url(#clip120)" d="M15.869 1323.83 L25.9905 1323.83 L25.9905 1311.77 L30.542 1311.77 L30.542 1323.83 L49.8937 1323.83 Q54.2542 1323.83 55.4955 1322.65 Q56.7368 1321.44 56.7368 1317.78 L56.7368 1311.77 L61.6384 1311.77 L61.6384 1317.78 Q61.6384 1324.56 59.124 1327.14 Q56.5777 1329.72 49.8937 1329.72 L30.542 1329.72 L30.542 1334.02 L25.9905 1334.02 L25.9905 1329.72 L15.869 1329.72 L15.869 1323.83 Z" fill="#000000" fill-rule="evenodd" fill-opacity="1" /><path clip-path="url(#clip120)" d="M27.0408 1260.62 L32.579 1260.62 Q31.3059 1263.1 30.6693 1265.77 Q30.0327 1268.45 30.0327 1271.31 Q30.0327 1275.67 31.3695 1277.87 Q32.7063 1280.03 35.3799 1280.03 Q37.4169 1280.03 38.5946 1278.47 Q39.7404 1276.91 40.7908 1272.2 L41.2364 1270.2 Q42.5732 1263.96 45.0239 1261.35 Q47.4429 1258.71 51.8034 1258.71 Q56.7687 1258.71 59.6651 1262.66 Q62.5615 1266.57 62.5615 1273.45 Q62.5615 1276.31 61.9886 1279.43 Q61.4475 1282.52 60.3335 1285.95 L54.2861 1285.95 Q55.973 1282.71 56.8323 1279.56 Q57.6599 1276.41 57.6599 1273.32 Q57.6599 1269.18 56.2594 1266.95 Q54.8271 1264.72 52.249 1264.72 Q49.8619 1264.72 48.5887 1266.35 Q47.3156 1267.94 46.1379 1273.38 L45.6605 1275.42 Q44.5147 1280.86 42.1594 1283.28 Q39.7722 1285.7 35.6345 1285.7 Q30.6056 1285.7 27.8684 1282.13 Q25.1311 1278.57 25.1311 1272.01 Q25.1311 1268.77 25.6085 1265.9 Q26.086 1263.04 27.0408 1260.62 Z" fill="#000000" fill-rule="evenodd" fill-opacity="1" /><path clip-path="url(#clip120)" d="M15.869 1243.59 L25.9905 1243.59 L25.9905 1231.53 L30.542 1231.53 L30.542 1243.59 L49.8937 1243.59 Q54.2542 1243.59 55.4955 1242.41 Q56.7368 1241.2 56.7368 1237.54 L56.7368 1231.53 L61.6384 1231.53 L61.6384 1237.54 Q61.6384 1244.32 59.124 1246.9 Q56.5777 1249.48 49.8937 1249.48 L30.542 1249.48 L30.542 1253.78 L25.9905 1253.78 L25.9905 1249.48 L15.869 1249.48 L15.869 1243.59 Z" fill="#000000" fill-rule="evenodd" fill-opacity="1" /><path clip-path="url(#clip120)" d="M30.0964 1210.01 Q30.0964 1214.72 33.7885 1217.46 Q37.4488 1220.2 43.8463 1220.2 Q50.2438 1220.2 53.9359 1217.49 Q57.5962 1214.75 57.5962 1210.01 Q57.5962 1205.33 53.9041 1202.6 Q50.212 1199.86 43.8463 1199.86 Q37.5124 1199.86 33.8203 1202.6 Q30.0964 1205.33 30.0964 1210.01 M25.1311 1210.01 Q25.1311 1202.37 30.0964 1198.01 Q35.0616 1193.65 43.8463 1193.65 Q52.5991 1193.65 57.5962 1198.01 Q62.5615 1202.37 62.5615 1210.01 Q62.5615 1217.68 57.5962 1222.04 Q52.5991 1226.37 43.8463 1226.37 Q35.0616 1226.37 30.0964 1222.04 Q25.1311 1217.68 25.1311 1210.01 Z" fill="#000000" fill-rule="evenodd" fill-opacity="1" /><path clip-path="url(#clip120)" d="M31.465 1163.29 Q30.8921 1164.27 30.6375 1165.45 Q30.351 1166.6 30.351 1168 Q30.351 1172.96 33.5975 1175.64 Q36.8122 1178.28 42.8596 1178.28 L61.6384 1178.28 L61.6384 1184.17 L25.9905 1184.17 L25.9905 1178.28 L31.5287 1178.28 Q28.2821 1176.43 26.7225 1173.47 Q25.1311 1170.51 25.1311 1166.28 Q25.1311 1165.67 25.2266 1164.94 Q25.2903 1164.21 25.4494 1163.32 L31.465 1163.29 Z" fill="#000000" fill-rule="evenodd" fill-opacity="1" /><path clip-path="url(#clip120)" d="M42.3504 1128.08 L45.2149 1128.08 L45.2149 1155.01 Q51.2623 1154.63 54.4452 1151.38 Q57.5962 1148.1 57.5962 1142.28 Q57.5962 1138.91 56.7687 1135.76 Q55.9411 1132.57 54.2861 1129.45 L59.8242 1129.45 Q61.161 1132.6 61.8612 1135.91 Q62.5615 1139.22 62.5615 1142.63 Q62.5615 1151.16 57.5962 1156.16 Q52.631 1161.12 44.1646 1161.12 Q35.4117 1161.12 30.2873 1156.41 Q25.1311 1151.67 25.1311 1143.65 Q25.1311 1136.46 29.7781 1132.29 Q34.3932 1128.08 42.3504 1128.08 M40.6316 1133.94 Q35.8255 1134 32.9609 1136.65 Q30.0964 1139.26 30.0964 1143.59 Q30.0964 1148.49 32.8654 1151.45 Q35.6345 1154.37 40.6634 1154.82 L40.6316 1133.94 Z" fill="#000000" fill-rule="evenodd" fill-opacity="1" /><path clip-path="url(#clip120)" d="M31.4013 1095.01 L12.1132 1095.01 L12.1132 1089.16 L61.6384 1089.16 L61.6384 1095.01 L56.2912 1095.01 Q59.4741 1096.86 61.0337 1099.69 Q62.5615 1102.49 62.5615 1106.44 Q62.5615 1112.9 57.4052 1116.98 Q52.249 1121.02 43.8463 1121.02 Q35.4436 1121.02 30.2873 1116.98 Q25.1311 1112.9 25.1311 1106.44 Q25.1311 1102.49 26.6907 1099.69 Q28.2185 1096.86 31.4013 1095.01 M43.8463 1114.97 Q50.3075 1114.97 53.9996 1112.33 Q57.6599 1109.66 57.6599 1105.01 Q57.6599 1100.36 53.9996 1097.69 Q50.3075 1095.01 43.8463 1095.01 Q37.3851 1095.01 33.7248 1097.69 Q30.0327 1100.36 30.0327 1105.01 Q30.0327 1109.66 33.7248 1112.33 Q37.3851 1114.97 43.8463 1114.97 Z" fill="#000000" fill-rule="evenodd" fill-opacity="1" /><path clip-path="url(#clip120)" d="M43.719 1040.17 Q43.719 1047.27 45.3422 1050.01 Q46.9655 1052.75 50.8804 1052.75 Q53.9996 1052.75 55.8457 1050.71 Q57.6599 1048.64 57.6599 1045.11 Q57.6599 1040.24 54.2224 1037.31 Q50.7531 1034.35 45.0239 1034.35 L43.719 1034.35 L43.719 1040.17 M41.3 1028.49 L61.6384 1028.49 L61.6384 1034.35 L56.2276 1034.35 Q59.4741 1036.35 61.0337 1039.35 Q62.5615 1042.34 62.5615 1046.67 Q62.5615 1052.14 59.5059 1055.39 Q56.4186 1058.6 51.2623 1058.6 Q45.2467 1058.6 42.1912 1054.59 Q39.1357 1050.55 39.1357 1042.56 L39.1357 1034.35 L38.5628 1034.35 Q34.5205 1034.35 32.3244 1037.02 Q30.0964 1039.66 30.0964 1044.47 Q30.0964 1047.53 30.8284 1050.42 Q31.5605 1053.32 33.0246 1055.99 L27.6137 1055.99 Q26.3724 1052.78 25.7677 1049.75 Q25.1311 1046.73 25.1311 1043.87 Q25.1311 1036.13 29.1415 1032.31 Q33.1519 1028.49 41.3 1028.49 Z" fill="#000000" fill-rule="evenodd" fill-opacity="1" /><path clip-path="url(#clip120)" d="M40.1224 986.798 L61.6384 986.798 L61.6384 992.654 L40.3133 992.654 Q35.2526 992.654 32.7381 994.628 Q30.2237 996.601 30.2237 1000.55 Q30.2237 1005.29 33.2474 1008.03 Q36.2711 1010.76 41.491 1010.76 L61.6384 1010.76 L61.6384 1016.65 L12.1132 1016.65 L12.1132 1010.76 L31.5287 1010.76 Q28.314 1008.66 26.7225 1005.83 Q25.1311 1002.97 25.1311 999.243 Q25.1311 993.1 28.9505 989.949 Q32.7381 986.798 40.1224 986.798 Z" fill="#000000" fill-rule="evenodd" fill-opacity="1" /><path clip-path="url(#clip120)" d="M42.3504 944.625 L45.2149 944.625 L45.2149 971.552 Q51.2623 971.17 54.4452 967.923 Q57.5962 964.645 57.5962 958.82 Q57.5962 955.447 56.7687 952.296 Q55.9411 949.113 54.2861 945.994 L59.8242 945.994 Q61.161 949.145 61.8612 952.455 Q62.5615 955.765 62.5615 959.171 Q62.5615 967.701 57.5962 972.698 Q52.631 977.663 44.1646 977.663 Q35.4117 977.663 30.2873 972.952 Q25.1311 968.21 25.1311 960.189 Q25.1311 952.996 29.7781 948.826 Q34.3932 944.625 42.3504 944.625 M40.6316 950.481 Q35.8255 950.545 32.9609 953.187 Q30.0964 955.797 30.0964 960.125 Q30.0964 965.027 32.8654 967.987 Q35.6345 970.915 40.6634 971.361 L40.6316 950.481 Z" fill="#000000" fill-rule="evenodd" fill-opacity="1" /><path clip-path="url(#clip120)" d="M43.719 918.812 Q43.719 925.91 45.3422 928.647 Q46.9655 931.384 50.8804 931.384 Q53.9996 931.384 55.8457 929.347 Q57.6599 927.278 57.6599 923.745 Q57.6599 918.876 54.2224 915.947 Q50.7531 912.987 45.0239 912.987 L43.719 912.987 L43.719 918.812 M41.3 907.131 L61.6384 907.131 L61.6384 912.987 L56.2276 912.987 Q59.4741 914.993 61.0337 917.984 Q62.5615 920.976 62.5615 925.305 Q62.5615 930.779 59.5059 934.026 Q56.4186 937.241 51.2623 937.241 Q45.2467 937.241 42.1912 933.23 Q39.1357 929.188 39.1357 921.199 L39.1357 912.987 L38.5628 912.987 Q34.5205 912.987 32.3244 915.661 Q30.0964 918.303 30.0964 923.109 Q30.0964 926.164 30.8284 929.061 Q31.5605 931.957 33.0246 934.631 L27.6137 934.631 Q26.3724 931.416 25.7677 928.392 Q25.1311 925.369 25.1311 922.504 Q25.1311 914.77 29.1415 910.95 Q33.1519 907.131 41.3 907.131 Z" fill="#000000" fill-rule="evenodd" fill-opacity="1" /><path clip-path="url(#clip120)" d="M31.4013 871.61 L12.1132 871.61 L12.1132 865.754 L61.6384 865.754 L61.6384 871.61 L56.2912 871.61 Q59.4741 873.456 61.0337 876.289 Q62.5615 879.09 62.5615 883.037 Q62.5615 889.498 57.4052 893.572 Q52.249 897.614 43.8463 897.614 Q35.4436 897.614 30.2873 893.572 Q25.1311 889.498 25.1311 883.037 Q25.1311 879.09 26.6907 876.289 Q28.2185 873.456 31.4013 871.61 M43.8463 891.567 Q50.3075 891.567 53.9996 888.925 Q57.6599 886.251 57.6599 881.604 Q57.6599 876.957 53.9996 874.284 Q50.3075 871.61 43.8463 871.61 Q37.3851 871.61 33.7248 874.284 Q30.0327 876.957 30.0327 881.604 Q30.0327 886.251 33.7248 888.925 Q37.3851 891.567 43.8463 891.567 Z" fill="#000000" fill-rule="evenodd" fill-opacity="1" /><path clip-path="url(#clip120)" d="M30.0964 819.157 Q30.0964 823.867 33.7885 826.605 Q37.4488 829.342 43.8463 829.342 Q50.2438 829.342 53.9359 826.637 Q57.5962 823.899 57.5962 819.157 Q57.5962 814.478 53.9041 811.741 Q50.212 809.004 43.8463 809.004 Q37.5124 809.004 33.8203 811.741 Q30.0964 814.478 30.0964 819.157 M25.1311 819.157 Q25.1311 811.518 30.0964 807.157 Q35.0616 802.797 43.8463 802.797 Q52.5991 802.797 57.5962 807.157 Q62.5615 811.518 62.5615 819.157 Q62.5615 826.828 57.5962 831.188 Q52.5991 835.517 43.8463 835.517 Q35.0616 835.517 30.0964 831.188 Q25.1311 826.828 25.1311 819.157 Z" fill="#000000" fill-rule="evenodd" fill-opacity="1" /><path clip-path="url(#clip120)" d="M12.1132 775.042 L16.983 775.042 L16.983 780.644 Q16.983 783.795 18.2562 785.037 Q19.5293 786.246 22.8395 786.246 L25.9905 786.246 L25.9905 776.602 L30.542 776.602 L30.542 786.246 L61.6384 786.246 L61.6384 792.134 L30.542 792.134 L30.542 797.736 L25.9905 797.736 L25.9905 792.134 L23.5079 792.134 Q17.5559 792.134 14.8505 789.365 Q12.1132 786.596 12.1132 780.581 L12.1132 775.042 Z" fill="#000000" fill-rule="evenodd" fill-opacity="1" /><path clip-path="url(#clip120)" d="M15.869 743.628 L25.9905 743.628 L25.9905 731.565 L30.542 731.565 L30.542 743.628 L49.8937 743.628 Q54.2542 743.628 55.4955 742.45 Q56.7368 741.241 56.7368 737.58 L56.7368 731.565 L61.6384 731.565 L61.6384 737.58 Q61.6384 744.36 59.124 746.938 Q56.5777 749.516 49.8937 749.516 L30.542 749.516 L30.542 753.813 L25.9905 753.813 L25.9905 749.516 L15.869 749.516 L15.869 743.628 Z" fill="#000000" fill-rule="evenodd" fill-opacity="1" /><path clip-path="url(#clip120)" d="M40.1224 694.23 L61.6384 694.23 L61.6384 700.086 L40.3133 700.086 Q35.2526 700.086 32.7381 702.06 Q30.2237 704.033 30.2237 707.98 Q30.2237 712.722 33.2474 715.459 Q36.2711 718.197 41.491 718.197 L61.6384 718.197 L61.6384 724.085 L12.1132 724.085 L12.1132 718.197 L31.5287 718.197 Q28.314 716.096 26.7225 713.263 Q25.1311 710.399 25.1311 706.675 Q25.1311 700.532 28.9505 697.381 Q32.7381 694.23 40.1224 694.23 Z" fill="#000000" fill-rule="evenodd" fill-opacity="1" /><path clip-path="url(#clip120)" d="M42.3504 652.057 L45.2149 652.057 L45.2149 678.984 Q51.2623 678.602 54.4452 675.356 Q57.5962 672.077 57.5962 666.253 Q57.5962 662.879 56.7687 659.728 Q55.9411 656.545 54.2861 653.426 L59.8242 653.426 Q61.161 656.577 61.8612 659.887 Q62.5615 663.197 62.5615 666.603 Q62.5615 675.133 57.5962 680.13 Q52.631 685.095 44.1646 685.095 Q35.4117 685.095 30.2873 680.384 Q25.1311 675.642 25.1311 667.621 Q25.1311 660.428 29.7781 656.258 Q34.3932 652.057 42.3504 652.057 M40.6316 657.913 Q35.8255 657.977 32.9609 660.619 Q30.0964 663.229 30.0964 667.558 Q30.0964 672.459 32.8654 675.419 Q35.6345 678.347 40.6634 678.793 L40.6316 657.913 Z" fill="#000000" fill-rule="evenodd" fill-opacity="1" /><path clip-path="url(#clip120)" d="M12.1132 603.678 L16.983 603.678 L16.983 609.279 Q16.983 612.431 18.2562 613.672 Q19.5293 614.881 22.8395 614.881 L25.9905 614.881 L25.9905 605.237 L30.542 605.237 L30.542 614.881 L61.6384 614.881 L61.6384 620.77 L30.542 620.77 L30.542 626.371 L25.9905 626.371 L25.9905 620.77 L23.5079 620.77 Q17.5559 620.77 14.8505 618.001 Q12.1132 615.231 12.1132 609.216 L12.1132 603.678 Z" fill="#000000" fill-rule="evenodd" fill-opacity="1" /><path clip-path="url(#clip120)" d="M31.465 578.119 Q30.8921 579.106 30.6375 580.284 Q30.351 581.43 30.351 582.83 Q30.351 587.795 33.5975 590.469 Q36.8122 593.111 42.8596 593.111 L61.6384 593.111 L61.6384 598.999 L25.9905 598.999 L25.9905 593.111 L31.5287 593.111 Q28.2821 591.265 26.7225 588.304 Q25.1311 585.344 25.1311 581.111 Q25.1311 580.506 25.2266 579.774 Q25.2903 579.042 25.4494 578.151 L31.465 578.119 Z" fill="#000000" fill-rule="evenodd" fill-opacity="1" /><path clip-path="url(#clip120)" d="M30.0964 559.595 Q30.0964 564.306 33.7885 567.043 Q37.4488 569.78 43.8463 569.78 Q50.2438 569.78 53.9359 567.075 Q57.5962 564.338 57.5962 559.595 Q57.5962 554.916 53.9041 552.179 Q50.212 549.442 43.8463 549.442 Q37.5124 549.442 33.8203 552.179 Q30.0964 554.916 30.0964 559.595 M25.1311 559.595 Q25.1311 551.956 30.0964 547.596 Q35.0616 543.235 43.8463 543.235 Q52.5991 543.235 57.5962 547.596 Q62.5615 551.956 62.5615 559.595 Q62.5615 567.266 57.5962 571.626 Q52.5991 575.955 43.8463 575.955 Q35.0616 575.955 30.0964 571.626 Q25.1311 567.266 25.1311 559.595 Z" fill="#000000" fill-rule="evenodd" fill-opacity="1" /><path clip-path="url(#clip120)" d="M40.1224 503.895 L61.6384 503.895 L61.6384 509.752 L40.3133 509.752 Q35.2526 509.752 32.7381 511.725 Q30.2237 513.698 30.2237 517.645 Q30.2237 522.388 33.2474 525.125 Q36.2711 527.862 41.491 527.862 L61.6384 527.862 L61.6384 533.75 L25.9905 533.75 L25.9905 527.862 L31.5287 527.862 Q28.314 525.761 26.7225 522.929 Q25.1311 520.064 25.1311 516.34 Q25.1311 510.197 28.9505 507.046 Q32.7381 503.895 40.1224 503.895 Z" fill="#000000" fill-rule="evenodd" fill-opacity="1" /><path clip-path="url(#clip120)" d="M15.869 486.421 L25.9905 486.421 L25.9905 474.358 L30.542 474.358 L30.542 486.421 L49.8937 486.421 Q54.2542 486.421 55.4955 485.244 Q56.7368 484.034 56.7368 480.374 L56.7368 474.358 L61.6384 474.358 L61.6384 480.374 Q61.6384 487.153 59.124 489.732 Q56.5777 492.31 49.8937 492.31 L30.542 492.31 L30.542 496.606 L25.9905 496.606 L25.9905 492.31 L15.869 492.31 L15.869 486.421 Z" fill="#000000" fill-rule="evenodd" fill-opacity="1" /><path clip-path="url(#clip120)" d="M12.1769 431.867 Q19.4975 436.132 26.6589 438.201 Q33.8203 440.27 41.1727 440.27 Q48.5251 440.27 55.7502 438.201 Q62.9434 436.1 70.2321 431.867 L70.2321 436.96 Q62.7524 441.734 55.5274 444.121 Q48.3023 446.477 41.1727 446.477 Q34.0749 446.477 26.8817 444.121 Q19.6884 441.766 12.1769 436.96 L12.1769 431.867 Z" fill="#000000" fill-rule="evenodd" fill-opacity="1" /><path clip-path="url(#clip120)" d="M14.1184 420.25 L14.1184 410.669 L46.4562 398.543 L14.1184 386.352 L14.1184 376.772 L61.6384 376.772 L61.6384 383.042 L19.9112 383.042 L52.5037 395.296 L52.5037 401.757 L19.9112 414.011 L61.6384 414.011 L61.6384 420.25 L14.1184 420.25 Z" fill="#000000" fill-rule="evenodd" fill-opacity="1" /><path clip-path="url(#clip120)" d="M14.1184 364.009 L14.1184 357.579 L58.3283 357.579 Q66.922 357.579 70.8051 360.858 Q74.6881 364.104 74.6881 371.329 L74.6881 373.78 L69.2773 373.78 L69.2773 371.775 Q69.2773 367.51 66.8902 365.759 Q64.503 364.009 58.3283 364.009 L14.1184 364.009 Z" fill="#000000" fill-rule="evenodd" fill-opacity="1" /><path clip-path="url(#clip120)" d="M30.0964 331.225 Q30.0964 335.936 33.7885 338.673 Q37.4488 341.411 43.8463 341.411 Q50.2438 341.411 53.9359 338.705 Q57.5962 335.968 57.5962 331.225 Q57.5962 326.547 53.9041 323.809 Q50.212 321.072 43.8463 321.072 Q37.5124 321.072 33.8203 323.809 Q30.0964 326.547 30.0964 331.225 M25.1311 331.225 Q25.1311 323.587 30.0964 319.226 Q35.0616 314.866 43.8463 314.866 Q52.5991 314.866 57.5962 319.226 Q62.5615 323.587 62.5615 331.225 Q62.5615 338.896 57.5962 343.257 Q52.5991 347.585 43.8463 347.585 Q35.0616 347.585 30.0964 343.257 Q25.1311 338.896 25.1311 331.225 Z" fill="#000000" fill-rule="evenodd" fill-opacity="1" /><path clip-path="url(#clip120)" d="M47.5702 305.763 L25.9905 305.763 L25.9905 299.906 L47.3474 299.906 Q52.4082 299.906 54.9545 297.933 Q57.4689 295.959 57.4689 292.013 Q57.4689 287.27 54.4452 284.533 Q51.4215 281.764 46.2016 281.764 L25.9905 281.764 L25.9905 275.907 L61.6384 275.907 L61.6384 281.764 L56.1639 281.764 Q59.4104 283.896 61.0019 286.729 Q62.5615 289.53 62.5615 293.254 Q62.5615 299.397 58.742 302.58 Q54.9226 305.763 47.5702 305.763 M25.1311 291.026 L25.1311 291.026 Z" fill="#000000" fill-rule="evenodd" fill-opacity="1" /><path clip-path="url(#clip120)" d="M12.1132 263.844 L12.1132 257.988 L61.6384 257.988 L61.6384 263.844 L12.1132 263.844 Z" fill="#000000" fill-rule="evenodd" fill-opacity="1" /><path clip-path="url(#clip120)" d="M42.3504 215.242 L45.2149 215.242 L45.2149 242.169 Q51.2623 241.787 54.4452 238.541 Q57.5962 235.262 57.5962 229.438 Q57.5962 226.064 56.7687 222.913 Q55.9411 219.73 54.2861 216.611 L59.8242 216.611 Q61.161 219.762 61.8612 223.072 Q62.5615 226.382 62.5615 229.788 Q62.5615 238.318 57.5962 243.315 Q52.631 248.28 44.1646 248.28 Q35.4117 248.28 30.2873 243.57 Q25.1311 238.827 25.1311 230.806 Q25.1311 223.613 29.7781 219.444 Q34.3932 215.242 42.3504 215.242 M40.6316 221.099 Q35.8255 221.162 32.9609 223.804 Q30.0964 226.414 30.0964 230.743 Q30.0964 235.644 32.8654 238.604 Q35.6345 241.533 40.6634 241.978 L40.6316 221.099 Z" fill="#000000" fill-rule="evenodd" fill-opacity="1" /><path clip-path="url(#clip120)" d="M27.0408 182.904 L32.579 182.904 Q31.3059 185.387 30.6693 188.061 Q30.0327 190.734 30.0327 193.599 Q30.0327 197.959 31.3695 200.156 Q32.7063 202.32 35.3799 202.32 Q37.4169 202.32 38.5946 200.76 Q39.7404 199.201 40.7908 194.49 L41.2364 192.485 Q42.5732 186.246 45.0239 183.637 Q47.4429 180.995 51.8034 180.995 Q56.7687 180.995 59.6651 184.941 Q62.5615 188.856 62.5615 195.731 Q62.5615 198.596 61.9886 201.715 Q61.4475 204.802 60.3335 208.24 L54.2861 208.24 Q55.973 204.993 56.8323 201.842 Q57.6599 198.691 57.6599 195.604 Q57.6599 191.466 56.2594 189.238 Q54.8271 187.01 52.249 187.01 Q49.8619 187.01 48.5887 188.634 Q47.3156 190.225 46.1379 195.668 L45.6605 197.705 Q44.5147 203.147 42.1594 205.566 Q39.7722 207.985 35.6345 207.985 Q30.6056 207.985 27.8684 204.421 Q25.1311 200.856 25.1311 194.299 Q25.1311 191.053 25.6085 188.188 Q26.086 185.323 27.0408 182.904 Z" fill="#000000" fill-rule="evenodd" fill-opacity="1" /><path clip-path="url(#clip120)" d="M12.1769 172.592 L12.1769 167.499 Q19.6884 162.725 26.8817 160.37 Q34.0749 157.983 41.1727 157.983 Q48.3023 157.983 55.5274 160.37 Q62.7524 162.725 70.2321 167.499 L70.2321 172.592 Q62.9434 168.359 55.7502 166.29 Q48.5251 164.189 41.1727 164.189 Q33.8203 164.189 26.6589 166.29 Q19.4975 168.359 12.1769 172.592 Z" fill="#000000" fill-rule="evenodd" fill-opacity="1" /><path clip-path="url(#clip120)" d="M483.662 20.1573 L472.562 50.2555 L494.802 50.2555 L483.662 20.1573 M479.044 12.096 L488.32 12.096 L511.37 72.576 L502.863 72.576 L497.354 57.061 L470.091 57.061 L464.582 72.576 L455.953 72.576 L479.044 12.096 Z" fill="#000000" fill-rule="evenodd" fill-opacity="1" /><path clip-path="url(#clip120)" d="M557.591 45.1919 L557.591 72.576 L550.137 72.576 L550.137 45.4349 Q550.137 38.994 547.625 35.7938 Q545.114 32.5936 540.091 32.5936 Q534.055 32.5936 530.571 36.4419 Q527.087 40.2903 527.087 46.9338 L527.087 72.576 L519.593 72.576 L519.593 27.2059 L527.087 27.2059 L527.087 34.2544 Q529.761 30.163 533.366 28.1376 Q537.012 26.1121 541.752 26.1121 Q549.57 26.1121 553.58 30.9732 Q557.591 35.7938 557.591 45.1919 Z" fill="#000000" fill-rule="evenodd" fill-opacity="1" /><path clip-path="url(#clip120)" d="M610.171 45.1919 L610.171 72.576 L602.718 72.576 L602.718 45.4349 Q602.718 38.994 600.206 35.7938 Q597.695 32.5936 592.671 32.5936 Q586.636 32.5936 583.152 36.4419 Q579.668 40.2903 579.668 46.9338 L579.668 72.576 L572.174 72.576 L572.174 27.2059 L579.668 27.2059 L579.668 34.2544 Q582.342 30.163 585.947 28.1376 Q589.593 26.1121 594.332 26.1121 Q602.151 26.1121 606.161 30.9732 Q610.171 35.7938 610.171 45.1919 Z" fill="#000000" fill-rule="evenodd" fill-opacity="1" /><path clip-path="url(#clip120)" d="M624.269 54.671 L624.269 27.2059 L631.722 27.2059 L631.722 54.3874 Q631.722 60.8284 634.234 64.0691 Q636.745 67.2693 641.768 67.2693 Q647.804 67.2693 651.288 63.421 Q654.812 59.5726 654.812 52.9291 L654.812 27.2059 L662.266 27.2059 L662.266 72.576 L654.812 72.576 L654.812 65.6084 Q652.098 69.7404 648.493 71.7658 Q644.928 73.7508 640.189 73.7508 Q632.37 73.7508 628.319 68.8897 Q624.269 64.0286 624.269 54.671 M643.024 26.1121 L643.024 26.1121 Z" fill="#000000" fill-rule="evenodd" fill-opacity="1" /><path clip-path="url(#clip120)" d="M698.238 49.7694 Q689.205 49.7694 685.721 51.8354 Q682.237 53.9013 682.237 58.8839 Q682.237 62.8538 684.83 65.2034 Q687.463 67.5124 691.959 67.5124 Q698.157 67.5124 701.884 63.1374 Q705.651 58.7219 705.651 51.4303 L705.651 49.7694 L698.238 49.7694 M713.105 46.6907 L713.105 72.576 L705.651 72.576 L705.651 65.6895 Q703.099 69.8214 699.291 71.8063 Q695.483 73.7508 689.974 73.7508 Q683.007 73.7508 678.875 69.8619 Q674.783 65.9325 674.783 59.3701 Q674.783 51.7138 679.887 47.825 Q685.032 43.9361 695.2 43.9361 L705.651 43.9361 L705.651 43.2069 Q705.651 38.0623 702.248 35.2672 Q698.886 32.4315 692.769 32.4315 Q688.88 32.4315 685.194 33.3632 Q681.508 34.295 678.105 36.1584 L678.105 29.2718 Q682.196 27.692 686.045 26.9223 Q689.893 26.1121 693.539 26.1121 Q703.383 26.1121 708.244 31.2163 Q713.105 36.3204 713.105 46.6907 Z" fill="#000000" fill-rule="evenodd" fill-opacity="1" /><path clip-path="url(#clip120)" d="M728.458 9.54393 L735.911 9.54393 L735.911 72.576 L728.458 72.576 L728.458 9.54393 Z" fill="#000000" fill-rule="evenodd" fill-opacity="1" /><path clip-path="url(#clip120)" d="M823.492 16.7545 L823.492 25.383 Q819.36 21.5346 814.661 19.6307 Q810.002 17.7268 804.736 17.7268 Q794.366 17.7268 788.857 24.0867 Q783.348 30.4061 783.348 42.3968 Q783.348 54.3469 788.857 60.7069 Q794.366 67.0263 804.736 67.0263 Q810.002 67.0263 814.661 65.1223 Q819.36 63.2184 823.492 59.3701 L823.492 67.9175 Q819.198 70.8341 814.377 72.2924 Q809.597 73.7508 804.25 73.7508 Q790.518 73.7508 782.618 65.3654 Q774.719 56.9395 774.719 42.3968 Q774.719 27.8135 782.618 19.4281 Q790.518 11.0023 804.25 11.0023 Q809.678 11.0023 814.458 12.4606 Q819.279 13.8784 823.492 16.7545 Z" fill="#000000" fill-rule="evenodd" fill-opacity="1" /><path clip-path="url(#clip120)" d="M835.037 54.671 L835.037 27.2059 L842.491 27.2059 L842.491 54.3874 Q842.491 60.8284 845.002 64.0691 Q847.514 67.2693 852.537 67.2693 Q858.573 67.2693 862.057 63.421 Q865.581 59.5726 865.581 52.9291 L865.581 27.2059 L873.035 27.2059 L873.035 72.576 L865.581 72.576 L865.581 65.6084 Q862.867 69.7404 859.261 71.7658 Q855.697 73.7508 850.957 73.7508 Q843.139 73.7508 839.088 68.8897 Q835.037 64.0286 835.037 54.671 M853.793 26.1121 L853.793 26.1121 Z" fill="#000000" fill-rule="evenodd" fill-opacity="1" /><path clip-path="url(#clip120)" d="M923.711 35.9153 Q926.507 30.8922 930.395 28.5022 Q934.284 26.1121 939.55 26.1121 Q946.639 26.1121 950.488 31.0947 Q954.336 36.0368 954.336 45.1919 L954.336 72.576 L946.842 72.576 L946.842 45.4349 Q946.842 38.913 944.533 35.7533 Q942.224 32.5936 937.484 32.5936 Q931.692 32.5936 928.329 36.4419 Q924.967 40.2903 924.967 46.9338 L924.967 72.576 L917.473 72.576 L917.473 45.4349 Q917.473 38.8725 915.164 35.7533 Q912.855 32.5936 908.034 32.5936 Q902.323 32.5936 898.96 36.4824 Q895.598 40.3308 895.598 46.9338 L895.598 72.576 L888.104 72.576 L888.104 27.2059 L895.598 27.2059 L895.598 34.2544 Q898.15 30.082 901.715 28.0971 Q905.28 26.1121 910.181 26.1121 Q915.123 26.1121 918.567 28.6237 Q922.051 31.1352 923.711 35.9153 Z" fill="#000000" fill-rule="evenodd" fill-opacity="1" /><path clip-path="url(#clip120)" d="M968.433 54.671 L968.433 27.2059 L975.887 27.2059 L975.887 54.3874 Q975.887 60.8284 978.399 64.0691 Q980.91 67.2693 985.933 67.2693 Q991.969 67.2693 995.453 63.421 Q998.977 59.5726 998.977 52.9291 L998.977 27.2059 L1006.43 27.2059 L1006.43 72.576 L998.977 72.576 L998.977 65.6084 Q996.263 69.7404 992.658 71.7658 Q989.093 73.7508 984.353 73.7508 Q976.535 73.7508 972.484 68.8897 Q968.433 64.0286 968.433 54.671 M987.189 26.1121 L987.189 26.1121 Z" fill="#000000" fill-rule="evenodd" fill-opacity="1" /><path clip-path="url(#clip120)" d="M1021.78 9.54393 L1029.24 9.54393 L1029.24 72.576 L1021.78 72.576 L1021.78 9.54393 Z" fill="#000000" fill-rule="evenodd" fill-opacity="1" /><path clip-path="url(#clip120)" d="M1065.45 49.7694 Q1056.42 49.7694 1052.94 51.8354 Q1049.45 53.9013 1049.45 58.8839 Q1049.45 62.8538 1052.04 65.2034 Q1054.68 67.5124 1059.17 67.5124 Q1065.37 67.5124 1069.1 63.1374 Q1072.87 58.7219 1072.87 51.4303 L1072.87 49.7694 L1065.45 49.7694 M1080.32 46.6907 L1080.32 72.576 L1072.87 72.576 L1072.87 65.6895 Q1070.31 69.8214 1066.51 71.8063 Q1062.7 73.7508 1057.19 73.7508 Q1050.22 73.7508 1046.09 69.8619 Q1042 65.9325 1042 59.3701 Q1042 51.7138 1047.1 47.825 Q1052.25 43.9361 1062.41 43.9361 L1072.87 43.9361 L1072.87 43.2069 Q1072.87 38.0623 1069.46 35.2672 Q1066.1 32.4315 1059.98 32.4315 Q1056.09 32.4315 1052.41 33.3632 Q1048.72 34.295 1045.32 36.1584 L1045.32 29.2718 Q1049.41 27.692 1053.26 26.9223 Q1057.11 26.1121 1060.75 26.1121 Q1070.6 26.1121 1075.46 31.2163 Q1080.32 36.3204 1080.32 46.6907 Z" fill="#000000" fill-rule="evenodd" fill-opacity="1" /><path clip-path="url(#clip120)" d="M1103.04 14.324 L1103.04 27.2059 L1118.4 27.2059 L1118.4 32.9987 L1103.04 32.9987 L1103.04 57.6282 Q1103.04 63.1779 1104.54 64.7578 Q1106.08 66.3376 1110.74 66.3376 L1118.4 66.3376 L1118.4 72.576 L1110.74 72.576 Q1102.11 72.576 1098.83 69.3758 Q1095.55 66.1351 1095.55 57.6282 L1095.55 32.9987 L1090.08 32.9987 L1090.08 27.2059 L1095.55 27.2059 L1095.55 14.324 L1103.04 14.324 Z" fill="#000000" fill-rule="evenodd" fill-opacity="1" /><path clip-path="url(#clip120)" d="M1128.2 27.2059 L1135.65 27.2059 L1135.65 72.576 L1128.2 72.576 L1128.2 27.2059 M1128.2 9.54393 L1135.65 9.54393 L1135.65 18.9825 L1128.2 18.9825 L1128.2 9.54393 Z" fill="#000000" fill-rule="evenodd" fill-opacity="1" /><path clip-path="url(#clip120)" d="M1145.9 27.2059 L1153.8 27.2059 L1167.98 65.2844 L1182.16 27.2059 L1190.06 27.2059 L1173.04 72.576 L1162.92 72.576 L1145.9 27.2059 Z" fill="#000000" fill-rule="evenodd" fill-opacity="1" /><path clip-path="url(#clip120)" d="M1239.16 48.0275 L1239.16 51.6733 L1204.88 51.6733 Q1205.37 59.3701 1209.5 63.421 Q1213.68 67.4314 1221.09 67.4314 Q1225.38 67.4314 1229.39 66.3781 Q1233.44 65.3249 1237.41 63.2184 L1237.41 70.267 Q1233.4 71.9684 1229.19 72.8596 Q1224.98 73.7508 1220.64 73.7508 Q1209.79 73.7508 1203.43 67.4314 Q1197.11 61.1119 1197.11 50.3365 Q1197.11 39.1965 1203.1 32.6746 Q1209.14 26.1121 1219.35 26.1121 Q1228.5 26.1121 1233.81 32.0264 Q1239.16 37.9003 1239.16 48.0275 M1231.7 45.84 Q1231.62 39.7232 1228.26 36.0774 Q1224.94 32.4315 1219.43 32.4315 Q1213.19 32.4315 1209.42 35.9558 Q1205.69 39.4801 1205.13 45.8805 L1231.7 45.84 Z" fill="#000000" fill-rule="evenodd" fill-opacity="1" /><path clip-path="url(#clip120)" d="M1278.08 12.096 L1286.27 12.096 L1286.27 36.8875 L1316 36.8875 L1316 12.096 L1324.18 12.096 L1324.18 72.576 L1316 72.576 L1316 43.7741 L1286.27 43.7741 L1286.27 72.576 L1278.08 72.576 L1278.08 12.096 Z" fill="#000000" fill-rule="evenodd" fill-opacity="1" /><path clip-path="url(#clip120)" d="M1378.95 48.0275 L1378.95 51.6733 L1344.68 51.6733 Q1345.17 59.3701 1349.3 63.421 Q1353.47 67.4314 1360.88 67.4314 Q1365.18 67.4314 1369.19 66.3781 Q1373.24 65.3249 1377.21 63.2184 L1377.21 70.267 Q1373.2 71.9684 1368.99 72.8596 Q1364.77 73.7508 1360.44 73.7508 Q1349.58 73.7508 1343.22 67.4314 Q1336.9 61.1119 1336.9 50.3365 Q1336.9 39.1965 1342.9 32.6746 Q1348.93 26.1121 1359.14 26.1121 Q1368.3 26.1121 1373.6 32.0264 Q1378.95 37.9003 1378.95 48.0275 M1371.5 45.84 Q1371.42 39.7232 1368.06 36.0774 Q1364.73 32.4315 1359.22 32.4315 Q1352.99 32.4315 1349.22 35.9558 Q1345.49 39.4801 1344.92 45.8805 L1371.5 45.84 Z" fill="#000000" fill-rule="evenodd" fill-opacity="1" /><path clip-path="url(#clip120)" d="M1411.8 49.7694 Q1402.77 49.7694 1399.29 51.8354 Q1395.8 53.9013 1395.8 58.8839 Q1395.8 62.8538 1398.4 65.2034 Q1401.03 67.5124 1405.53 67.5124 Q1411.72 67.5124 1415.45 63.1374 Q1419.22 58.7219 1419.22 51.4303 L1419.22 49.7694 L1411.8 49.7694 M1426.67 46.6907 L1426.67 72.576 L1419.22 72.576 L1419.22 65.6895 Q1416.67 69.8214 1412.86 71.8063 Q1409.05 73.7508 1403.54 73.7508 Q1396.57 73.7508 1392.44 69.8619 Q1388.35 65.9325 1388.35 59.3701 Q1388.35 51.7138 1393.45 47.825 Q1398.6 43.9361 1408.77 43.9361 L1419.22 43.9361 L1419.22 43.2069 Q1419.22 38.0623 1415.82 35.2672 Q1412.45 32.4315 1406.34 32.4315 Q1402.45 32.4315 1398.76 33.3632 Q1395.07 34.295 1391.67 36.1584 L1391.67 29.2718 Q1395.76 27.692 1399.61 26.9223 Q1403.46 26.1121 1407.11 26.1121 Q1416.95 26.1121 1421.81 31.2163 Q1426.67 36.3204 1426.67 46.6907 Z" fill="#000000" fill-rule="evenodd" fill-opacity="1" /><path clip-path="url(#clip120)" d="M1449.4 14.324 L1449.4 27.2059 L1464.75 27.2059 L1464.75 32.9987 L1449.4 32.9987 L1449.4 57.6282 Q1449.4 63.1779 1450.9 64.7578 Q1452.44 66.3376 1457.09 66.3376 L1464.75 66.3376 L1464.75 72.576 L1457.09 72.576 Q1448.47 72.576 1445.18 69.3758 Q1441.9 66.1351 1441.9 57.6282 L1441.9 32.9987 L1436.43 32.9987 L1436.43 27.2059 L1441.9 27.2059 L1441.9 14.324 L1449.4 14.324 Z" fill="#000000" fill-rule="evenodd" fill-opacity="1" /><path clip-path="url(#clip120)" d="M1537.5 14.0809 L1537.5 22.0612 Q1532.85 19.8332 1528.71 18.7395 Q1524.58 17.6457 1520.73 17.6457 Q1514.05 17.6457 1510.4 20.2383 Q1506.8 22.8309 1506.8 27.611 Q1506.8 31.6214 1509.19 33.6873 Q1511.62 35.7128 1518.34 36.9686 L1523.29 37.9813 Q1532.44 39.7232 1536.78 44.1387 Q1541.15 48.5136 1541.15 55.8863 Q1541.15 64.6767 1535.24 69.2137 Q1529.36 73.7508 1517.98 73.7508 Q1513.69 73.7508 1508.82 72.7785 Q1504 71.8063 1498.82 69.9024 L1498.82 61.4765 Q1503.8 64.2716 1508.58 65.6895 Q1513.36 67.1073 1517.98 67.1073 Q1524.99 67.1073 1528.79 64.3527 Q1532.6 61.598 1532.6 56.4939 Q1532.6 52.0379 1529.85 49.5264 Q1527.13 47.0148 1520.9 45.759 L1515.91 44.7868 Q1506.76 42.9639 1502.67 39.075 Q1498.58 35.1862 1498.58 28.2591 Q1498.58 20.2383 1504.21 15.6203 Q1509.88 11.0023 1519.8 11.0023 Q1524.06 11.0023 1528.47 11.7719 Q1532.89 12.5416 1537.5 14.0809 Z" fill="#000000" fill-rule="evenodd" fill-opacity="1" /><path clip-path="url(#clip120)" d="M1560.96 14.324 L1560.96 27.2059 L1576.31 27.2059 L1576.31 32.9987 L1560.96 32.9987 L1560.96 57.6282 Q1560.96 63.1779 1562.46 64.7578 Q1564 66.3376 1568.66 66.3376 L1576.31 66.3376 L1576.31 72.576 L1568.66 72.576 Q1560.03 72.576 1556.75 69.3758 Q1553.46 66.1351 1553.46 57.6282 L1553.46 32.9987 L1548 32.9987 L1548 27.2059 L1553.46 27.2059 L1553.46 14.324 L1560.96 14.324 Z" fill="#000000" fill-rule="evenodd" fill-opacity="1" /><path clip-path="url(#clip120)" d="M1603.7 32.4315 Q1597.7 32.4315 1594.22 37.1306 Q1590.73 41.7891 1590.73 49.9314 Q1590.73 58.0738 1594.18 62.7728 Q1597.66 67.4314 1603.7 67.4314 Q1609.65 67.4314 1613.13 62.7323 Q1616.62 58.0333 1616.62 49.9314 Q1616.62 41.8701 1613.13 37.1711 Q1609.65 32.4315 1603.7 32.4315 M1603.7 26.1121 Q1613.42 26.1121 1618.97 32.4315 Q1624.52 38.7509 1624.52 49.9314 Q1624.52 61.0714 1618.97 67.4314 Q1613.42 73.7508 1603.7 73.7508 Q1593.93 73.7508 1588.38 67.4314 Q1582.87 61.0714 1582.87 49.9314 Q1582.87 38.7509 1588.38 32.4315 Q1593.93 26.1121 1603.7 26.1121 Z" fill="#000000" fill-rule="evenodd" fill-opacity="1" /><path clip-path="url(#clip120)" d="M1663.16 34.1734 Q1661.91 33.4443 1660.41 33.1202 Q1658.95 32.7556 1657.17 32.7556 Q1650.85 32.7556 1647.45 36.8875 Q1644.08 40.9789 1644.08 48.6757 L1644.08 72.576 L1636.59 72.576 L1636.59 27.2059 L1644.08 27.2059 L1644.08 34.2544 Q1646.43 30.1225 1650.2 28.1376 Q1653.97 26.1121 1659.36 26.1121 Q1660.13 26.1121 1661.06 26.2337 Q1661.99 26.3147 1663.12 26.5172 L1663.16 34.1734 Z" fill="#000000" fill-rule="evenodd" fill-opacity="1" /><path clip-path="url(#clip120)" d="M1707.97 48.0275 L1707.97 51.6733 L1673.7 51.6733 Q1674.18 59.3701 1678.31 63.421 Q1682.49 67.4314 1689.9 67.4314 Q1694.19 67.4314 1698.2 66.3781 Q1702.25 65.3249 1706.22 63.2184 L1706.22 70.267 Q1702.21 71.9684 1698 72.8596 Q1693.79 73.7508 1689.45 73.7508 Q1678.6 73.7508 1672.24 67.4314 Q1665.92 61.1119 1665.92 50.3365 Q1665.92 39.1965 1671.91 32.6746 Q1677.95 26.1121 1688.16 26.1121 Q1697.31 26.1121 1702.62 32.0264 Q1707.97 37.9003 1707.97 48.0275 M1700.51 45.84 Q1700.43 39.7232 1697.07 36.0774 Q1693.75 32.4315 1688.24 32.4315 Q1682 32.4315 1678.23 35.9558 Q1674.51 39.4801 1673.94 45.8805 L1700.51 45.84 Z" fill="#000000" fill-rule="evenodd" fill-opacity="1" /><path clip-path="url(#clip120)" d="M1750.06 34.0924 L1750.06 9.54393 L1757.51 9.54393 L1757.51 72.576 L1750.06 72.576 L1750.06 65.7705 Q1747.71 69.8214 1744.1 71.8063 Q1740.54 73.7508 1735.51 73.7508 Q1727.29 73.7508 1722.1 67.1883 Q1716.96 60.6258 1716.96 49.9314 Q1716.96 39.2371 1722.1 32.6746 Q1727.29 26.1121 1735.51 26.1121 Q1740.54 26.1121 1744.1 28.0971 Q1747.71 30.0415 1750.06 34.0924 M1724.66 49.9314 Q1724.66 58.1548 1728.02 62.8538 Q1731.42 67.5124 1737.34 67.5124 Q1743.25 67.5124 1746.65 62.8538 Q1750.06 58.1548 1750.06 49.9314 Q1750.06 41.7081 1746.65 37.0496 Q1743.25 32.3505 1737.34 32.3505 Q1731.42 32.3505 1728.02 37.0496 Q1724.66 41.7081 1724.66 49.9314 Z" fill="#000000" fill-rule="evenodd" fill-opacity="1" /><path clip-path="url(#clip120)" d="M1819.77 20.1573 L1808.67 50.2555 L1830.91 50.2555 L1819.77 20.1573 M1815.15 12.096 L1824.43 12.096 L1847.48 72.576 L1838.97 72.576 L1833.46 57.061 L1806.2 57.061 L1800.69 72.576 L1792.06 72.576 L1815.15 12.096 Z" fill="#000000" fill-rule="evenodd" fill-opacity="1" /><path clip-path="url(#clip120)" d="M1893.7 45.1919 L1893.7 72.576 L1886.25 72.576 L1886.25 45.4349 Q1886.25 38.994 1883.74 35.7938 Q1881.22 32.5936 1876.2 32.5936 Q1870.16 32.5936 1866.68 36.4419 Q1863.2 40.2903 1863.2 46.9338 L1863.2 72.576 L1855.7 72.576 L1855.7 9.54393 L1863.2 9.54393 L1863.2 34.2544 Q1865.87 30.163 1869.48 28.1376 Q1873.12 26.1121 1877.86 26.1121 Q1885.68 26.1121 1889.69 30.9732 Q1893.7 35.7938 1893.7 45.1919 Z" fill="#000000" fill-rule="evenodd" fill-opacity="1" /><path clip-path="url(#clip120)" d="M1947.37 48.0275 L1947.37 51.6733 L1913.1 51.6733 Q1913.59 59.3701 1917.72 63.421 Q1921.89 67.4314 1929.31 67.4314 Q1933.6 67.4314 1937.61 66.3781 Q1941.66 65.3249 1945.63 63.2184 L1945.63 70.267 Q1941.62 71.9684 1937.41 72.8596 Q1933.2 73.7508 1928.86 73.7508 Q1918.01 73.7508 1911.65 67.4314 Q1905.33 61.1119 1905.33 50.3365 Q1905.33 39.1965 1911.32 32.6746 Q1917.36 26.1121 1927.57 26.1121 Q1936.72 26.1121 1942.03 32.0264 Q1947.37 37.9003 1947.37 48.0275 M1939.92 45.84 Q1939.84 39.7232 1936.48 36.0774 Q1933.16 32.4315 1927.65 32.4315 Q1921.41 32.4315 1917.64 35.9558 Q1913.91 39.4801 1913.35 45.8805 L1939.92 45.84 Z" fill="#000000" fill-rule="evenodd" fill-opacity="1" /><path clip-path="url(#clip120)" d="M1980.23 49.7694 Q1971.19 49.7694 1967.71 51.8354 Q1964.23 53.9013 1964.23 58.8839 Q1964.23 62.8538 1966.82 65.2034 Q1969.45 67.5124 1973.95 67.5124 Q1980.15 67.5124 1983.87 63.1374 Q1987.64 58.7219 1987.64 51.4303 L1987.64 49.7694 L1980.23 49.7694 M1995.09 46.6907 L1995.09 72.576 L1987.64 72.576 L1987.64 65.6895 Q1985.09 69.8214 1981.28 71.8063 Q1977.47 73.7508 1971.96 73.7508 Q1965 73.7508 1960.86 69.8619 Q1956.77 65.9325 1956.77 59.3701 Q1956.77 51.7138 1961.88 47.825 Q1967.02 43.9361 1977.19 43.9361 L1987.64 43.9361 L1987.64 43.2069 Q1987.64 38.0623 1984.24 35.2672 Q1980.88 32.4315 1974.76 32.4315 Q1970.87 32.4315 1967.18 33.3632 Q1963.5 34.295 1960.09 36.1584 L1960.09 29.2718 Q1964.19 27.692 1968.03 26.9223 Q1971.88 26.1121 1975.53 26.1121 Q1985.37 26.1121 1990.23 31.2163 Q1995.09 36.3204 1995.09 46.6907 Z" fill="#000000" fill-rule="evenodd" fill-opacity="1" /><path clip-path="url(#clip120)" d="M2040.3 34.0924 L2040.3 9.54393 L2047.76 9.54393 L2047.76 72.576 L2040.3 72.576 L2040.3 65.7705 Q2037.95 69.8214 2034.35 71.8063 Q2030.78 73.7508 2025.76 73.7508 Q2017.54 73.7508 2012.35 67.1883 Q2007.21 60.6258 2007.21 49.9314 Q2007.21 39.2371 2012.35 32.6746 Q2017.54 26.1121 2025.76 26.1121 Q2030.78 26.1121 2034.35 28.0971 Q2037.95 30.0415 2040.3 34.0924 M2014.9 49.9314 Q2014.9 58.1548 2018.27 62.8538 Q2021.67 67.5124 2027.58 67.5124 Q2033.5 67.5124 2036.9 62.8538 Q2040.3 58.1548 2040.3 49.9314 Q2040.3 41.7081 2036.9 37.0496 Q2033.5 32.3505 2027.58 32.3505 Q2021.67 32.3505 2018.27 37.0496 Q2014.9 41.7081 2014.9 49.9314 Z" fill="#000000" fill-rule="evenodd" fill-opacity="1" /><path clip-path="url(#clip120)" d="M2107.06 32.4315 Q2101.07 32.4315 2097.58 37.1306 Q2094.1 41.7891 2094.1 49.9314 Q2094.1 58.0738 2097.54 62.7728 Q2101.03 67.4314 2107.06 67.4314 Q2113.02 67.4314 2116.5 62.7323 Q2119.98 58.0333 2119.98 49.9314 Q2119.98 41.8701 2116.5 37.1711 Q2113.02 32.4315 2107.06 32.4315 M2107.06 26.1121 Q2116.78 26.1121 2122.33 32.4315 Q2127.88 38.7509 2127.88 49.9314 Q2127.88 61.0714 2122.33 67.4314 Q2116.78 73.7508 2107.06 73.7508 Q2097.3 73.7508 2091.75 67.4314 Q2086.24 61.0714 2086.24 49.9314 Q2086.24 38.7509 2091.75 32.4315 Q2097.3 26.1121 2107.06 26.1121 Z" fill="#000000" fill-rule="evenodd" fill-opacity="1" /><path clip-path="url(#clip120)" d="M2163.21 9.54393 L2163.21 15.7418 L2156.08 15.7418 Q2152.07 15.7418 2150.49 17.3622 Q2148.95 18.9825 2148.95 23.1955 L2148.95 27.2059 L2161.22 27.2059 L2161.22 32.9987 L2148.95 32.9987 L2148.95 72.576 L2141.45 72.576 L2141.45 32.9987 L2134.32 32.9987 L2134.32 27.2059 L2141.45 27.2059 L2141.45 24.0462 Q2141.45 16.471 2144.98 13.0277 Q2148.5 9.54393 2156.16 9.54393 L2163.21 9.54393 Z" fill="#000000" fill-rule="evenodd" fill-opacity="1" /><path clip-path="url(#clip120)" d="M2203.19 14.324 L2203.19 27.2059 L2218.54 27.2059 L2218.54 32.9987 L2203.19 32.9987 L2203.19 57.6282 Q2203.19 63.1779 2204.69 64.7578 Q2206.23 66.3376 2210.89 66.3376 L2218.54 66.3376 L2218.54 72.576 L2210.89 72.576 Q2202.26 72.576 2198.98 69.3758 Q2195.7 66.1351 2195.7 57.6282 L2195.7 32.9987 L2190.23 32.9987 L2190.23 27.2059 L2195.7 27.2059 L2195.7 14.324 L2203.19 14.324 Z" fill="#000000" fill-rule="evenodd" fill-opacity="1" /><path clip-path="url(#clip120)" d="M2266.06 45.1919 L2266.06 72.576 L2258.61 72.576 L2258.61 45.4349 Q2258.61 38.994 2256.09 35.7938 Q2253.58 32.5936 2248.56 32.5936 Q2242.52 32.5936 2239.04 36.4419 Q2235.56 40.2903 2235.56 46.9338 L2235.56 72.576 L2228.06 72.576 L2228.06 9.54393 L2235.56 9.54393 L2235.56 34.2544 Q2238.23 30.163 2241.84 28.1376 Q2245.48 26.1121 2250.22 26.1121 Q2258.04 26.1121 2262.05 30.9732 Q2266.06 35.7938 2266.06 45.1919 Z" fill="#000000" fill-rule="evenodd" fill-opacity="1" /><path clip-path="url(#clip120)" d="M2319.73 48.0275 L2319.73 51.6733 L2285.46 51.6733 Q2285.95 59.3701 2290.08 63.421 Q2294.25 67.4314 2301.67 67.4314 Q2305.96 67.4314 2309.97 66.3781 Q2314.02 65.3249 2317.99 63.2184 L2317.99 70.267 Q2313.98 71.9684 2309.77 72.8596 Q2305.56 73.7508 2301.22 73.7508 Q2290.36 73.7508 2284.01 67.4314 Q2277.69 61.1119 2277.69 50.3365 Q2277.69 39.1965 2283.68 32.6746 Q2289.72 26.1121 2299.93 26.1121 Q2309.08 26.1121 2314.39 32.0264 Q2319.73 37.9003 2319.73 48.0275 M2312.28 45.84 Q2312.2 39.7232 2308.84 36.0774 Q2305.52 32.4315 2300.01 32.4315 Q2293.77 32.4315 2290 35.9558 Q2286.27 39.4801 2285.71 45.8805 L2312.28 45.84 Z" fill="#000000" fill-rule="evenodd" fill-opacity="1" /><path clip-path="url(#clip120)" d="M2358.66 12.096 L2393.42 12.096 L2393.42 18.9825 L2366.85 18.9825 L2366.85 36.8065 L2390.83 36.8065 L2390.83 43.6931 L2366.85 43.6931 L2366.85 72.576 L2358.66 72.576 L2358.66 12.096 Z" fill="#000000" fill-rule="evenodd" fill-opacity="1" /><path clip-path="url(#clip120)" d="M2426.31 34.1734 Q2425.06 33.4443 2423.56 33.1202 Q2422.1 32.7556 2420.32 32.7556 Q2414 32.7556 2410.6 36.8875 Q2407.23 40.9789 2407.23 48.6757 L2407.23 72.576 L2399.74 72.576 L2399.74 27.2059 L2407.23 27.2059 L2407.23 34.2544 Q2409.58 30.1225 2413.35 28.1376 Q2417.12 26.1121 2422.51 26.1121 Q2423.28 26.1121 2424.21 26.2337 Q2425.14 26.3147 2426.27 26.5172 L2426.31 34.1734 Z" fill="#000000" fill-rule="evenodd" fill-opacity="1" /><path clip-path="url(#clip120)" d="M2449.89 32.4315 Q2443.89 32.4315 2440.41 37.1306 Q2436.93 41.7891 2436.93 49.9314 Q2436.93 58.0738 2440.37 62.7728 Q2443.85 67.4314 2449.89 67.4314 Q2455.84 67.4314 2459.33 62.7323 Q2462.81 58.0333 2462.81 49.9314 Q2462.81 41.8701 2459.33 37.1711 Q2455.84 32.4315 2449.89 32.4315 M2449.89 26.1121 Q2459.61 26.1121 2465.16 32.4315 Q2470.71 38.7509 2470.71 49.9314 Q2470.71 61.0714 2465.16 67.4314 Q2459.61 73.7508 2449.89 73.7508 Q2440.13 73.7508 2434.58 67.4314 Q2429.07 61.0714 2429.07 49.9314 Q2429.07 38.7509 2434.58 32.4315 Q2440.13 26.1121 2449.89 26.1121 Z" fill="#000000" fill-rule="evenodd" fill-opacity="1" /><path clip-path="url(#clip120)" d="M2520.78 45.1919 L2520.78 72.576 L2513.33 72.576 L2513.33 45.4349 Q2513.33 38.994 2510.82 35.7938 Q2508.3 32.5936 2503.28 32.5936 Q2497.24 32.5936 2493.76 36.4419 Q2490.28 40.2903 2490.28 46.9338 L2490.28 72.576 L2482.78 72.576 L2482.78 27.2059 L2490.28 27.2059 L2490.28 34.2544 Q2492.95 30.163 2496.56 28.1376 Q2500.2 26.1121 2504.94 26.1121 Q2512.76 26.1121 2516.77 30.9732 Q2520.78 35.7938 2520.78 45.1919 Z" fill="#000000" fill-rule="evenodd" fill-opacity="1" /><path clip-path="url(#clip120)" d="M2543.02 14.324 L2543.02 27.2059 L2558.37 27.2059 L2558.37 32.9987 L2543.02 32.9987 L2543.02 57.6282 Q2543.02 63.1779 2544.52 64.7578 Q2546.06 66.3376 2550.72 66.3376 L2558.37 66.3376 L2558.37 72.576 L2550.72 72.576 Q2542.09 72.576 2538.81 69.3758 Q2535.53 66.1351 2535.53 57.6282 L2535.53 32.9987 L2530.06 32.9987 L2530.06 27.2059 L2535.53 27.2059 L2535.53 14.324 L2543.02 14.324 Z" fill="#000000" fill-rule="evenodd" fill-opacity="1" /><path clip-path="url(#clip123)" d="M557.739 173.254 L557.739 1688.65 L717.743 1688.65 L717.743 173.254 L557.739 173.254 L557.739 173.254  Z" fill="#009af9" fill-rule="evenodd" fill-opacity="1"/>
<polyline clip-path="url(#clip123)" style="stroke:#000000; stroke-linecap:round; stroke-linejoin:round; stroke-width:12; stroke-opacity:1; fill:none" points="557.739,173.254 557.739,1688.65 717.743,1688.65 717.743,173.254 557.739,173.254 "/>
<path clip-path="url(#clip123)" d="M757.744 1174.81 L757.744 1688.65 L917.748 1688.65 L917.748 1174.81 L757.744 1174.81 L757.744 1174.81  Z" fill="#009af9" fill-rule="evenodd" fill-opacity="1"/>
<polyline clip-path="url(#clip123)" style="stroke:#000000; stroke-linecap:round; stroke-linejoin:round; stroke-width:12; stroke-opacity:1; fill:none" points="757.744,1174.81 757.744,1688.65 917.748,1688.65 917.748,1174.81 757.744,1174.81 "/>
<path clip-path="url(#clip123)" d="M957.749 1334.75 L957.749 1688.65 L1117.75 1688.65 L1117.75 1334.75 L957.749 1334.75 L957.749 1334.75  Z" fill="#009af9" fill-rule="evenodd" fill-opacity="1"/>
<polyline clip-path="url(#clip123)" style="stroke:#000000; stroke-linecap:round; stroke-linejoin:round; stroke-width:12; stroke-opacity:1; fill:none" points="957.749,1334.75 957.749,1688.65 1117.75,1688.65 1117.75,1334.75 957.749,1334.75 "/>
<path clip-path="url(#clip123)" d="M1157.75 1415.7 L1157.75 1688.65 L1317.76 1688.65 L1317.76 1415.7 L1157.75 1415.7 L1157.75 1415.7  Z" fill="#009af9" fill-rule="evenodd" fill-opacity="1"/>
<polyline clip-path="url(#clip123)" style="stroke:#000000; stroke-linecap:round; stroke-linejoin:round; stroke-width:12; stroke-opacity:1; fill:none" points="1157.75,1415.7 1157.75,1688.65 1317.76,1688.65 1317.76,1415.7 1157.75,1415.7 "/>
<path clip-path="url(#clip123)" d="M1357.76 1466.31 L1357.76 1688.65 L1517.76 1688.65 L1517.76 1466.31 L1357.76 1466.31 L1357.76 1466.31  Z" fill="#009af9" fill-rule="evenodd" fill-opacity="1"/>
<polyline clip-path="url(#clip123)" style="stroke:#000000; stroke-linecap:round; stroke-linejoin:round; stroke-width:12; stroke-opacity:1; fill:none" points="1357.76,1466.31 1357.76,1688.65 1517.76,1688.65 1517.76,1466.31 1357.76,1466.31 "/>
<path clip-path="url(#clip123)" d="M1557.76 1501.49 L1557.76 1688.65 L1717.77 1688.65 L1717.77 1501.49 L1557.76 1501.49 L1557.76 1501.49  Z" fill="#009af9" fill-rule="evenodd" fill-opacity="1"/>
<polyline clip-path="url(#clip123)" style="stroke:#000000; stroke-linecap:round; stroke-linejoin:round; stroke-width:12; stroke-opacity:1; fill:none" points="1557.76,1501.49 1557.76,1688.65 1717.77,1688.65 1717.77,1501.49 1557.76,1501.49 "/>
<path clip-path="url(#clip123)" d="M1757.77 1527.58 L1757.77 1688.65 L1917.77 1688.65 L1917.77 1527.58 L1757.77 1527.58 L1757.77 1527.58  Z" fill="#009af9" fill-rule="evenodd" fill-opacity="1"/>
<polyline clip-path="url(#clip123)" style="stroke:#000000; stroke-linecap:round; stroke-linejoin:round; stroke-width:12; stroke-opacity:1; fill:none" points="1757.77,1527.58 1757.77,1688.65 1917.77,1688.65 1917.77,1527.58 1757.77,1527.58 "/>
<path clip-path="url(#clip123)" d="M1957.77 1547.8 L1957.77 1688.65 L2117.78 1688.65 L2117.78 1547.8 L1957.77 1547.8 L1957.77 1547.8  Z" fill="#009af9" fill-rule="evenodd" fill-opacity="1"/>
<polyline clip-path="url(#clip123)" style="stroke:#000000; stroke-linecap:round; stroke-linejoin:round; stroke-width:12; stroke-opacity:1; fill:none" points="1957.77,1547.8 1957.77,1688.65 2117.78,1688.65 2117.78,1547.8 1957.77,1547.8 "/>
<path clip-path="url(#clip123)" d="M2157.78 1563.96 L2157.78 1688.65 L2317.78 1688.65 L2317.78 1563.96 L2157.78 1563.96 L2157.78 1563.96  Z" fill="#009af9" fill-rule="evenodd" fill-opacity="1"/>
<polyline clip-path="url(#clip123)" style="stroke:#000000; stroke-linecap:round; stroke-linejoin:round; stroke-width:12; stroke-opacity:1; fill:none" points="2157.78,1563.96 2157.78,1688.65 2317.78,1688.65 2317.78,1563.96 2157.78,1563.96 "/>
<path clip-path="url(#clip123)" d="M2357.78 1577.21 L2357.78 1688.65 L2517.79 1688.65 L2517.79 1577.21 L2357.78 1577.21 L2357.78 1577.21  Z" fill="#009af9" fill-rule="evenodd" fill-opacity="1"/>
<polyline clip-path="url(#clip123)" style="stroke:#000000; stroke-linecap:round; stroke-linejoin:round; stroke-width:12; stroke-opacity:1; fill:none" points="2357.78,1577.21 2357.78,1688.65 2517.79,1688.65 2517.79,1577.21 2357.78,1577.21 "/>
<circle clip-path="url(#clip123)" style="fill:#009af9; stroke:none; fill-opacity:0" cx="637.741" cy="173.254" r="2"/>
<circle clip-path="url(#clip123)" style="fill:#009af9; stroke:none; fill-opacity:0" cx="837.746" cy="1174.81" r="2"/>
<circle clip-path="url(#clip123)" style="fill:#009af9; stroke:none; fill-opacity:0" cx="1037.75" cy="1334.75" r="2"/>
<circle clip-path="url(#clip123)" style="fill:#009af9; stroke:none; fill-opacity:0" cx="1237.76" cy="1415.7" r="2"/>
<circle clip-path="url(#clip123)" style="fill:#009af9; stroke:none; fill-opacity:0" cx="1437.76" cy="1466.31" r="2"/>
<circle clip-path="url(#clip123)" style="fill:#009af9; stroke:none; fill-opacity:0" cx="1637.77" cy="1501.49" r="2"/>
<circle clip-path="url(#clip123)" style="fill:#009af9; stroke:none; fill-opacity:0" cx="1837.77" cy="1527.58" r="2"/>
<circle clip-path="url(#clip123)" style="fill:#009af9; stroke:none; fill-opacity:0" cx="2037.78" cy="1547.8" r="2"/>
<circle clip-path="url(#clip123)" style="fill:#009af9; stroke:none; fill-opacity:0" cx="2237.78" cy="1563.96" r="2"/>
<circle clip-path="url(#clip123)" style="fill:#009af9; stroke:none; fill-opacity:0" cx="2437.79" cy="1577.21" r="2"/>
<path clip-path="url(#clip120)" d="M1981.64 310.936 L2565.18 310.936 L2565.18 181.336 L1981.64 181.336  Z" fill="#ffffff" fill-rule="evenodd" fill-opacity="1"/>
<polyline clip-path="url(#clip120)" style="stroke:#000000; stroke-linecap:round; stroke-linejoin:round; stroke-width:4; stroke-opacity:1; fill:none" points="1981.64,310.936 2565.18,310.936 2565.18,181.336 1981.64,181.336 1981.64,310.936 "/>
<path clip-path="url(#clip120)" d="M2006.83 272.056 L2157.98 272.056 L2157.98 220.216 L2006.83 220.216 L2006.83 272.056  Z" fill="#009af9" fill-rule="evenodd" fill-opacity="1"/>
<polyline clip-path="url(#clip120)" style="stroke:#000000; stroke-linecap:round; stroke-linejoin:round; stroke-width:15; stroke-opacity:1; fill:none" points="2006.83,272.056 2157.98,272.056 2157.98,220.216 2006.83,220.216 2006.83,272.056 "/>
<path clip-path="url(#clip120)" d="M2224.31 267.086 Q2224.31 267.642 2224.07 267.935 Q2223.87 268.198 2223.66 268.257 Q2223.49 268.286 2223.22 268.286 Q2222.46 268.286 2219.83 268.198 Q2217.19 268.11 2216.43 268.11 Q2215.2 268.11 2212.68 268.198 Q2210.16 268.286 2208.93 268.286 Q2208.11 268.286 2208.11 267.613 Q2208.11 267.173 2208.2 266.939 Q2208.29 266.676 2208.52 266.588 Q2208.79 266.471 2208.93 266.471 Q2209.11 266.442 2209.55 266.442 Q2210.13 266.442 2210.75 266.383 Q2211.36 266.295 2212.13 266.119 Q2212.89 265.944 2213.36 265.505 Q2213.85 265.065 2213.85 264.451 Q2213.85 264.187 2213.65 262.021 Q2213.44 259.854 2213.18 257.336 Q2212.92 254.789 2212.89 254.438 L2197.84 254.438 Q2196.46 256.809 2195.5 258.449 Q2194.53 260.088 2194.18 260.644 Q2193.83 261.201 2193.62 261.552 Q2193.42 261.903 2193.3 262.108 Q2192.45 263.66 2192.45 264.334 Q2192.45 266.207 2195.26 266.442 Q2196.23 266.442 2196.23 267.144 Q2196.23 267.671 2195.99 267.964 Q2195.76 268.227 2195.55 268.257 Q2195.38 268.286 2195.09 268.286 Q2194.12 268.286 2192.1 268.198 Q2190.08 268.11 2189.08 268.11 Q2188.23 268.11 2186.48 268.198 Q2184.72 268.286 2183.93 268.286 Q2183.58 268.286 2183.37 268.081 Q2183.17 267.876 2183.17 267.613 Q2183.17 267.203 2183.23 266.969 Q2183.32 266.734 2183.55 266.617 Q2183.78 266.5 2183.9 266.5 Q2184.02 266.471 2184.43 266.442 Q2186.65 266.295 2188.38 265.241 Q2190.14 264.158 2191.81 261.376 L2212.65 226.36 Q2212.86 226.009 2213 225.833 Q2213.15 225.657 2213.44 225.511 Q2213.77 225.364 2214.23 225.364 Q2214.97 225.364 2215.11 225.599 Q2215.26 225.804 2215.35 226.799 L2219.01 264.275 Q2219.09 265.065 2219.15 265.388 Q2219.24 265.68 2219.62 266.002 Q2220.03 266.295 2220.76 266.383 Q2221.52 266.442 2222.93 266.442 Q2223.46 266.442 2223.66 266.471 Q2223.87 266.471 2224.07 266.617 Q2224.31 266.764 2224.31 267.086 M2212.71 252.564 L2210.81 232.801 L2198.98 252.564 L2212.71 252.564 Z" fill="#000000" fill-rule="evenodd" fill-opacity="1" /><path clip-path="url(#clip120)" d="M2244.34 259.181 Q2244.4 258.449 2245.54 258.449 L2282.28 258.449 Q2284.01 258.449 2284.04 259.122 Q2284.04 259.854 2282.4 259.825 L2245.95 259.825 Q2244.34 259.854 2244.34 259.181 M2244.34 247.469 Q2244.34 246.737 2245.6 246.767 L2282.22 246.767 Q2284.01 246.767 2284.04 247.469 Q2284.04 248.143 2282.52 248.143 L2245.54 248.143 Q2244.34 248.143 2244.34 247.469 Z" fill="#000000" fill-rule="evenodd" fill-opacity="1" /><path clip-path="url(#clip120)" d="M2307.16 258.39 L2307.16 256.546 L2325.57 228.409 Q2326.04 227.677 2326.77 227.707 Q2327.45 227.707 2327.59 227.97 Q2327.74 228.234 2327.74 229.258 L2327.74 256.546 L2333.74 256.546 L2333.74 258.39 L2327.74 258.39 L2327.74 263.602 Q2327.74 265.329 2328.44 265.885 Q2329.17 266.442 2332.28 266.442 L2333.54 266.442 L2333.54 268.286 Q2331.08 268.11 2325.4 268.11 Q2319.75 268.11 2317.29 268.286 L2317.29 266.442 L2318.55 266.442 Q2321.65 266.442 2322.38 265.915 Q2323.11 265.358 2323.11 263.602 L2323.11 258.39 L2307.16 258.39 M2308.85 256.546 L2323.46 256.546 L2323.46 234.177 L2308.85 256.546 Z" fill="#000000" fill-rule="evenodd" fill-opacity="1" /><path clip-path="url(#clip120)" d="M2338.28 249.109 Q2338.28 240.296 2340.51 235.495 Q2343.61 228.351 2350.93 228.351 Q2352.48 228.351 2354.1 228.79 Q2355.73 229.2 2357.78 230.81 Q2359.86 232.42 2361.12 235.055 Q2363.52 240.15 2363.52 249.109 Q2363.52 257.863 2361.3 262.635 Q2358.05 269.604 2350.87 269.604 Q2348.18 269.604 2345.43 268.227 Q2342.71 266.851 2340.98 263.543 Q2338.28 258.595 2338.28 249.109 M2343.26 248.377 Q2343.26 257.424 2343.91 261.025 Q2344.64 264.919 2346.63 266.617 Q2348.65 268.286 2350.87 268.286 Q2353.28 268.286 2355.27 266.5 Q2357.29 264.685 2357.9 260.791 Q2358.57 256.955 2358.55 248.377 Q2358.55 240.033 2357.96 236.695 Q2357.17 232.801 2355.06 231.249 Q2352.98 229.668 2350.87 229.668 Q2350.08 229.668 2349.23 229.903 Q2348.42 230.137 2347.21 230.81 Q2346.01 231.484 2345.08 233.152 Q2344.17 234.821 2343.73 237.339 Q2343.26 240.589 2343.26 248.377 Z" fill="#000000" fill-rule="evenodd" fill-opacity="1" /><path clip-path="url(#clip120)" d="M2368.21 249.109 Q2368.21 240.296 2370.44 235.495 Q2373.54 228.351 2380.86 228.351 Q2382.41 228.351 2384.02 228.79 Q2385.66 229.2 2387.71 230.81 Q2389.79 232.42 2391.05 235.055 Q2393.45 240.15 2393.45 249.109 Q2393.45 257.863 2391.23 262.635 Q2387.98 269.604 2380.8 269.604 Q2378.11 269.604 2375.36 268.227 Q2372.63 266.851 2370.91 263.543 Q2368.21 258.595 2368.21 249.109 M2373.19 248.377 Q2373.19 257.424 2373.84 261.025 Q2374.57 264.919 2376.56 266.617 Q2378.58 268.286 2380.8 268.286 Q2383.2 268.286 2385.19 266.5 Q2387.22 264.685 2387.83 260.791 Q2388.5 256.955 2388.47 248.377 Q2388.47 240.033 2387.89 236.695 Q2387.1 232.801 2384.99 231.249 Q2382.91 229.668 2380.8 229.668 Q2380.01 229.668 2379.16 229.903 Q2378.34 230.137 2377.14 230.81 Q2375.94 231.484 2375.01 233.152 Q2374.1 234.821 2373.66 237.339 Q2373.19 240.589 2373.19 248.377 Z" fill="#000000" fill-rule="evenodd" fill-opacity="1" /><path clip-path="url(#clip120)" d="M2398.14 249.109 Q2398.14 240.296 2400.37 235.495 Q2403.47 228.351 2410.79 228.351 Q2412.34 228.351 2413.95 228.79 Q2415.59 229.2 2417.64 230.81 Q2419.72 232.42 2420.98 235.055 Q2423.38 240.15 2423.38 249.109 Q2423.38 257.863 2421.16 262.635 Q2417.91 269.604 2410.73 269.604 Q2408.04 269.604 2405.29 268.227 Q2402.56 266.851 2400.84 263.543 Q2398.14 258.595 2398.14 249.109 M2403.12 248.377 Q2403.12 257.424 2403.76 261.025 Q2404.5 264.919 2406.49 266.617 Q2408.51 268.286 2410.73 268.286 Q2413.13 268.286 2415.12 266.5 Q2417.14 264.685 2417.76 260.791 Q2418.43 256.955 2418.4 248.377 Q2418.4 240.033 2417.82 236.695 Q2417.03 232.801 2414.92 231.249 Q2412.84 229.668 2410.73 229.668 Q2409.94 229.668 2409.09 229.903 Q2408.27 230.137 2407.07 230.81 Q2405.87 231.484 2404.93 233.152 Q2404.03 234.821 2403.59 237.339 Q2403.12 240.589 2403.12 248.377 Z" fill="#000000" fill-rule="evenodd" fill-opacity="1" /><path clip-path="url(#clip120)" d="M2428.07 249.109 Q2428.07 240.296 2430.3 235.495 Q2433.4 228.351 2440.72 228.351 Q2442.27 228.351 2443.88 228.79 Q2445.52 229.2 2447.57 230.81 Q2449.65 232.42 2450.91 235.055 Q2453.31 240.15 2453.31 249.109 Q2453.31 257.863 2451.08 262.635 Q2447.83 269.604 2440.66 269.604 Q2437.97 269.604 2435.22 268.227 Q2432.49 266.851 2430.76 263.543 Q2428.07 258.595 2428.07 249.109 M2433.05 248.377 Q2433.05 257.424 2433.69 261.025 Q2434.42 264.919 2436.42 266.617 Q2438.44 268.286 2440.66 268.286 Q2443.06 268.286 2445.05 266.5 Q2447.07 264.685 2447.69 260.791 Q2448.36 256.955 2448.33 248.377 Q2448.33 240.033 2447.75 236.695 Q2446.96 232.801 2444.85 231.249 Q2442.77 229.668 2440.66 229.668 Q2439.87 229.668 2439.02 229.903 Q2438.2 230.137 2437 230.81 Q2435.8 231.484 2434.86 233.152 Q2433.96 234.821 2433.52 237.339 Q2433.05 240.589 2433.05 248.377 Z" fill="#000000" fill-rule="evenodd" fill-opacity="1" /><path clip-path="url(#clip120)" d="M2506.89 259.708 Q2506.89 259.942 2506.63 260.849 Q2506.36 261.757 2505.72 263.162 Q2505.1 264.568 2504.22 265.856 Q2503.38 267.115 2501.97 268.052 Q2500.59 268.959 2499.01 268.959 Q2496.9 268.959 2495.5 267.554 Q2494.09 266.149 2494.09 264.041 Q2494.09 262.899 2494.88 260.732 Q2498.6 250.836 2498.6 247.294 Q2498.6 243.107 2495.35 243.107 Q2493.51 243.107 2491.84 243.868 Q2490.17 244.629 2489.09 245.683 Q2488 246.737 2487.16 247.938 Q2486.31 249.138 2485.93 249.929 Q2485.57 250.719 2485.49 251.071 L2481.89 265.534 Q2481.59 266.764 2481.39 267.349 Q2481.18 267.935 2480.63 268.432 Q2480.07 268.959 2479.19 268.959 Q2478.46 268.959 2477.93 268.52 Q2477.43 268.081 2477.43 267.32 Q2477.43 267.203 2477.58 266.588 Q2477.73 265.973 2477.93 265.124 Q2478.14 264.275 2478.23 263.777 Q2479.28 259.795 2479.43 259.239 L2481.09 252.271 Q2482 248.816 2482 247.294 Q2482 243.107 2478.75 243.107 Q2477.14 243.107 2475.62 243.722 Q2474.13 244.307 2473.1 245.127 Q2472.08 245.947 2471.14 247.089 Q2470.23 248.201 2469.76 248.963 Q2469.32 249.694 2468.97 250.426 L2468.21 253.413 Q2468.04 254.233 2467.19 257.424 L2465.87 262.84 Q2464.93 266.881 2464.73 267.261 Q2464.44 268.081 2463.79 268.52 Q2463.15 268.959 2462.5 268.959 Q2461.77 268.959 2461.27 268.52 Q2460.78 268.081 2460.78 267.32 Q2460.78 267.203 2460.86 266.764 Q2460.95 266.324 2461.1 265.71 Q2461.24 265.095 2461.3 264.743 L2464.79 250.895 Q2465.43 248.377 2465.58 247.586 Q2465.75 246.767 2465.75 245.859 Q2465.75 243.107 2463.88 243.107 Q2462.36 243.107 2461.36 244.922 Q2460.37 246.737 2459.52 250.251 Q2459.25 251.217 2459.08 251.422 Q2458.93 251.627 2458.49 251.627 Q2457.76 251.598 2457.76 251.012 Q2457.76 250.866 2457.99 249.929 Q2458.23 248.992 2458.67 247.586 Q2459.14 246.152 2459.63 245.215 Q2459.93 244.6 2460.19 244.19 Q2460.45 243.78 2460.98 243.136 Q2461.51 242.492 2462.3 242.141 Q2463.09 241.789 2464.05 241.789 Q2466.19 241.789 2467.77 243.165 Q2469.38 244.542 2469.59 247.001 Q2473.48 241.789 2478.93 241.789 Q2482 241.789 2483.85 243.341 Q2485.57 244.834 2485.78 247.586 Q2489.82 241.789 2495.56 241.789 Q2498.87 241.789 2500.65 243.517 Q2502.44 245.215 2502.44 248.201 Q2502.44 249.753 2501.65 252.71 Q2500.86 255.638 2500.33 257.102 Q2499.8 258.566 2498.78 261.376 Q2497.7 264.07 2497.7 265.651 Q2497.7 266.676 2498.05 267.144 Q2498.4 267.613 2499.16 267.613 Q2500.33 267.613 2501.36 266.939 Q2502.38 266.237 2503.11 265.095 Q2503.87 263.924 2504.37 262.752 Q2504.87 261.552 2505.25 260.205 Q2505.48 259.473 2505.6 259.298 Q2505.75 259.122 2506.16 259.122 Q2506.89 259.122 2506.89 259.708 Z" fill="#000000" fill-rule="evenodd" fill-opacity="1" /><path clip-path="url(#clip120)" d="M2512.81 250.359 Q2512.81 249.601 2512.87 249.375 Q2512.95 249.15 2513.28 248.801 L2521.34 239.825 Q2525.74 234.865 2525.74 230.541 Q2525.74 227.733 2524.27 225.724 Q2522.81 223.716 2520.13 223.716 Q2518.28 223.716 2516.72 224.843 Q2515.17 225.97 2514.45 227.979 Q2514.57 227.938 2515 227.938 Q2516.05 227.938 2516.62 228.594 Q2517.22 229.25 2517.22 230.131 Q2517.22 231.258 2516.48 231.811 Q2515.76 232.344 2515.04 232.344 Q2514.76 232.344 2514.37 232.283 Q2514 232.221 2513.4 231.647 Q2512.81 231.053 2512.81 230.008 Q2512.81 227.077 2515.02 224.741 Q2517.26 222.404 2520.66 222.404 Q2524.51 222.404 2527.03 224.7 Q2529.57 226.975 2529.57 230.541 Q2529.57 231.791 2529.19 232.939 Q2528.82 234.066 2528.3 234.947 Q2527.81 235.828 2526.46 237.242 Q2525.11 238.657 2524.02 239.661 Q2522.93 240.665 2520.5 242.797 L2516.05 247.121 L2523.61 247.121 Q2527.3 247.121 2527.59 246.793 Q2528 246.199 2528.51 243.063 L2529.57 243.063 L2528.39 250.359 L2512.81 250.359 Z" fill="#000000" fill-rule="evenodd" fill-opacity="1" /></svg>
