<?xml version="1.0" encoding="utf-8"?>
<svg xmlns="http://www.w3.org/2000/svg" xmlns:xlink="http://www.w3.org/1999/xlink" width="672" height="480" viewBox="0 0 2688 1920">
<defs>
  <clipPath id="clip510">
    <rect x="0" y="0" width="2688" height="1920"/>
  </clipPath>
</defs>
<path clip-path="url(#clip510)" d="M0 1920 L2688 1920 L2688 0 L0 0  Z" fill="#ffffff" fill-rule="evenodd" fill-opacity="1"/>
<defs>
  <clipPath id="clip511">
    <rect x="537" y="0" width="1883" height="1883"/>
  </clipPath>
</defs>
<defs>
  <clipPath id="clip512">
    <rect x="181" y="47" width="2460" height="1688"/>
  </clipPath>
</defs>
<path clip-path="url(#clip510)" d="M268.826 1734.12 L2640.76 1734.12 L2640.76 47.2441 L268.826 47.2441  Z" fill="#ffffff" fill-rule="evenodd" fill-opacity="1"/>
<defs>
  <clipPath id="clip513">
    <rect x="268" y="47" width="2373" height="1688"/>
  </clipPath>
</defs>
<polyline clip-path="url(#clip513)" style="stroke:#000000; stroke-linecap:round; stroke-linejoin:round; stroke-width:2; stroke-opacity:0.1; fill:none" points="462.68,1734.12 462.68,47.2441 "/>
<polyline clip-path="url(#clip513)" style="stroke:#000000; stroke-linecap:round; stroke-linejoin:round; stroke-width:2; stroke-opacity:0.1; fill:none" points="934.826,1734.12 934.826,47.2441 "/>
<polyline clip-path="url(#clip513)" style="stroke:#000000; stroke-linecap:round; stroke-linejoin:round; stroke-width:2; stroke-opacity:0.1; fill:none" points="1406.97,1734.12 1406.97,47.2441 "/>
<polyline clip-path="url(#clip513)" style="stroke:#000000; stroke-linecap:round; stroke-linejoin:round; stroke-width:2; stroke-opacity:0.1; fill:none" points="1879.12,1734.12 1879.12,47.2441 "/>
<polyline clip-path="url(#clip513)" style="stroke:#000000; stroke-linecap:round; stroke-linejoin:round; stroke-width:2; stroke-opacity:0.1; fill:none" points="2351.26,1734.12 2351.26,47.2441 "/>
<polyline clip-path="url(#clip510)" style="stroke:#000000; stroke-linecap:round; stroke-linejoin:round; stroke-width:4; stroke-opacity:1; fill:none" points="268.826,1734.12 2640.76,1734.12 "/>
<polyline clip-path="url(#clip510)" style="stroke:#000000; stroke-linecap:round; stroke-linejoin:round; stroke-width:4; stroke-opacity:1; fill:none" points="462.68,1734.12 462.68,1715.22 "/>
<polyline clip-path="url(#clip510)" style="stroke:#000000; stroke-linecap:round; stroke-linejoin:round; stroke-width:4; stroke-opacity:1; fill:none" points="934.826,1734.12 934.826,1715.22 "/>
<polyline clip-path="url(#clip510)" style="stroke:#000000; stroke-linecap:round; stroke-linejoin:round; stroke-width:4; stroke-opacity:1; fill:none" points="1406.97,1734.12 1406.97,1715.22 "/>
<polyline clip-path="url(#clip510)" style="stroke:#000000; stroke-linecap:round; stroke-linejoin:round; stroke-width:4; stroke-opacity:1; fill:none" points="1879.12,1734.12 1879.12,1715.22 "/>
<polyline clip-path="url(#clip510)" style="stroke:#000000; stroke-linecap:round; stroke-linejoin:round; stroke-width:4; stroke-opacity:1; fill:none" points="2351.26,1734.12 2351.26,1715.22 "/>
<path clip-path="url(#clip510)" d="M436.441 1780.19 Q439.798 1780.9 441.673 1783.17 Q443.571 1785.44 443.571 1788.77 Q443.571 1793.89 440.052 1796.69 Q436.534 1799.49 430.052 1799.49 Q427.877 1799.49 425.562 1799.05 Q423.27 1798.64 420.816 1797.78 L420.816 1793.27 Q422.761 1794.4 425.076 1794.98 Q427.39 1795.56 429.914 1795.56 Q434.312 1795.56 436.603 1793.82 Q438.918 1792.08 438.918 1788.77 Q438.918 1785.72 436.765 1784.01 Q434.636 1782.27 430.816 1782.27 L426.789 1782.27 L426.789 1778.43 L431.002 1778.43 Q434.451 1778.43 436.279 1777.06 Q438.108 1775.67 438.108 1773.08 Q438.108 1770.42 436.21 1769.01 Q434.335 1767.57 430.816 1767.57 Q428.895 1767.57 426.696 1767.99 Q424.497 1768.4 421.858 1769.28 L421.858 1765.12 Q424.52 1764.38 426.835 1764.01 Q429.173 1763.64 431.233 1763.64 Q436.557 1763.64 439.659 1766.07 Q442.761 1768.47 442.761 1772.59 Q442.761 1775.46 441.117 1777.46 Q439.474 1779.42 436.441 1780.19 Z" fill="#000000" fill-rule="evenodd" fill-opacity="1" /><path clip-path="url(#clip510)" d="M462.437 1767.34 Q458.825 1767.34 456.997 1770.9 Q455.191 1774.45 455.191 1781.58 Q455.191 1788.68 456.997 1792.25 Q458.825 1795.79 462.437 1795.79 Q466.071 1795.79 467.876 1792.25 Q469.705 1788.68 469.705 1781.58 Q469.705 1774.45 467.876 1770.9 Q466.071 1767.34 462.437 1767.34 M462.437 1763.64 Q468.247 1763.64 471.302 1768.24 Q474.381 1772.83 474.381 1781.58 Q474.381 1790.3 471.302 1794.91 Q468.247 1799.49 462.437 1799.49 Q456.626 1799.49 453.548 1794.91 Q450.492 1790.3 450.492 1781.58 Q450.492 1772.83 453.548 1768.24 Q456.626 1763.64 462.437 1763.64 Z" fill="#000000" fill-rule="evenodd" fill-opacity="1" /><path clip-path="url(#clip510)" d="M492.598 1767.34 Q488.987 1767.34 487.159 1770.9 Q485.353 1774.45 485.353 1781.58 Q485.353 1788.68 487.159 1792.25 Q488.987 1795.79 492.598 1795.79 Q496.233 1795.79 498.038 1792.25 Q499.867 1788.68 499.867 1781.58 Q499.867 1774.45 498.038 1770.9 Q496.233 1767.34 492.598 1767.34 M492.598 1763.64 Q498.409 1763.64 501.464 1768.24 Q504.543 1772.83 504.543 1781.58 Q504.543 1790.3 501.464 1794.91 Q498.409 1799.49 492.598 1799.49 Q486.788 1799.49 483.71 1794.91 Q480.654 1790.3 480.654 1781.58 Q480.654 1772.83 483.71 1768.24 Q486.788 1763.64 492.598 1763.64 Z" fill="#000000" fill-rule="evenodd" fill-opacity="1" /><path clip-path="url(#clip510)" d="M907.916 1768.34 L896.111 1786.78 L907.916 1786.78 L907.916 1768.34 M906.689 1764.26 L912.569 1764.26 L912.569 1786.78 L917.499 1786.78 L917.499 1790.67 L912.569 1790.67 L912.569 1798.82 L907.916 1798.82 L907.916 1790.67 L892.314 1790.67 L892.314 1786.16 L906.689 1764.26 Z" fill="#000000" fill-rule="evenodd" fill-opacity="1" /><path clip-path="url(#clip510)" d="M935.231 1767.34 Q931.62 1767.34 929.791 1770.9 Q927.985 1774.45 927.985 1781.58 Q927.985 1788.68 929.791 1792.25 Q931.62 1795.79 935.231 1795.79 Q938.865 1795.79 940.671 1792.25 Q942.499 1788.68 942.499 1781.58 Q942.499 1774.45 940.671 1770.9 Q938.865 1767.34 935.231 1767.34 M935.231 1763.64 Q941.041 1763.64 944.096 1768.24 Q947.175 1772.83 947.175 1781.58 Q947.175 1790.3 944.096 1794.91 Q941.041 1799.49 935.231 1799.49 Q929.421 1799.49 926.342 1794.91 Q923.286 1790.3 923.286 1781.58 Q923.286 1772.83 926.342 1768.24 Q929.421 1763.64 935.231 1763.64 Z" fill="#000000" fill-rule="evenodd" fill-opacity="1" /><path clip-path="url(#clip510)" d="M965.393 1767.34 Q961.782 1767.34 959.953 1770.9 Q958.147 1774.45 958.147 1781.58 Q958.147 1788.68 959.953 1792.25 Q961.782 1795.79 965.393 1795.79 Q969.027 1795.79 970.832 1792.25 Q972.661 1788.68 972.661 1781.58 Q972.661 1774.45 970.832 1770.9 Q969.027 1767.34 965.393 1767.34 M965.393 1763.64 Q971.203 1763.64 974.258 1768.24 Q977.337 1772.83 977.337 1781.58 Q977.337 1790.3 974.258 1794.91 Q971.203 1799.49 965.393 1799.49 Q959.582 1799.49 956.504 1794.91 Q953.448 1790.3 953.448 1781.58 Q953.448 1772.83 956.504 1768.24 Q959.582 1763.64 965.393 1763.64 Z" fill="#000000" fill-rule="evenodd" fill-opacity="1" /><path clip-path="url(#clip510)" d="M1366.59 1764.26 L1384.95 1764.26 L1384.95 1768.2 L1370.87 1768.2 L1370.87 1776.67 Q1371.89 1776.32 1372.91 1776.16 Q1373.93 1775.97 1374.95 1775.97 Q1380.73 1775.97 1384.11 1779.15 Q1387.49 1782.32 1387.49 1787.73 Q1387.49 1793.31 1384.02 1796.41 Q1380.55 1799.49 1374.23 1799.49 Q1372.05 1799.49 1369.78 1799.12 Q1367.54 1798.75 1365.13 1798.01 L1365.13 1793.31 Q1367.22 1794.45 1369.44 1795 Q1371.66 1795.56 1374.14 1795.56 Q1378.14 1795.56 1380.48 1793.45 Q1382.82 1791.34 1382.82 1787.73 Q1382.82 1784.12 1380.48 1782.02 Q1378.14 1779.91 1374.14 1779.91 Q1372.26 1779.91 1370.39 1780.33 Q1368.53 1780.74 1366.59 1781.62 L1366.59 1764.26 Z" fill="#000000" fill-rule="evenodd" fill-opacity="1" /><path clip-path="url(#clip510)" d="M1406.71 1767.34 Q1403.09 1767.34 1401.27 1770.9 Q1399.46 1774.45 1399.46 1781.58 Q1399.46 1788.68 1401.27 1792.25 Q1403.09 1795.79 1406.71 1795.79 Q1410.34 1795.79 1412.15 1792.25 Q1413.97 1788.68 1413.97 1781.58 Q1413.97 1774.45 1412.15 1770.9 Q1410.34 1767.34 1406.71 1767.34 M1406.71 1763.64 Q1412.52 1763.64 1415.57 1768.24 Q1418.65 1772.83 1418.65 1781.58 Q1418.65 1790.3 1415.57 1794.91 Q1412.52 1799.49 1406.71 1799.49 Q1400.9 1799.49 1397.82 1794.91 Q1394.76 1790.3 1394.76 1781.58 Q1394.76 1772.83 1397.82 1768.24 Q1400.9 1763.64 1406.71 1763.64 Z" fill="#000000" fill-rule="evenodd" fill-opacity="1" /><path clip-path="url(#clip510)" d="M1436.87 1767.34 Q1433.26 1767.34 1431.43 1770.9 Q1429.62 1774.45 1429.62 1781.58 Q1429.62 1788.68 1431.43 1792.25 Q1433.26 1795.79 1436.87 1795.79 Q1440.5 1795.79 1442.31 1792.25 Q1444.14 1788.68 1444.14 1781.58 Q1444.14 1774.45 1442.31 1770.9 Q1440.5 1767.34 1436.87 1767.34 M1436.87 1763.64 Q1442.68 1763.64 1445.73 1768.24 Q1448.81 1772.83 1448.81 1781.58 Q1448.81 1790.3 1445.73 1794.91 Q1442.68 1799.49 1436.87 1799.49 Q1431.06 1799.49 1427.98 1794.91 Q1424.92 1790.3 1424.92 1781.58 Q1424.92 1772.83 1427.98 1768.24 Q1431.06 1763.64 1436.87 1763.64 Z" fill="#000000" fill-rule="evenodd" fill-opacity="1" /><path clip-path="url(#clip510)" d="M1849.44 1779.68 Q1846.29 1779.68 1844.44 1781.83 Q1842.61 1783.98 1842.61 1787.73 Q1842.61 1791.46 1844.44 1793.64 Q1846.29 1795.79 1849.44 1795.79 Q1852.59 1795.79 1854.42 1793.64 Q1856.27 1791.46 1856.27 1787.73 Q1856.27 1783.98 1854.42 1781.83 Q1852.59 1779.68 1849.44 1779.68 M1858.72 1765.02 L1858.72 1769.28 Q1856.97 1768.45 1855.16 1768.01 Q1853.38 1767.57 1851.62 1767.57 Q1846.99 1767.57 1844.53 1770.7 Q1842.1 1773.82 1841.76 1780.14 Q1843.12 1778.13 1845.18 1777.06 Q1847.24 1775.97 1849.72 1775.97 Q1854.93 1775.97 1857.94 1779.15 Q1860.97 1782.29 1860.97 1787.73 Q1860.97 1793.06 1857.82 1796.27 Q1854.67 1799.49 1849.44 1799.49 Q1843.45 1799.49 1840.28 1794.91 Q1837.1 1790.3 1837.1 1781.58 Q1837.1 1773.38 1840.99 1768.52 Q1844.88 1763.64 1851.43 1763.64 Q1853.19 1763.64 1854.97 1763.98 Q1856.78 1764.33 1858.72 1765.02 Z" fill="#000000" fill-rule="evenodd" fill-opacity="1" /><path clip-path="url(#clip510)" d="M1879.03 1767.34 Q1875.41 1767.34 1873.59 1770.9 Q1871.78 1774.45 1871.78 1781.58 Q1871.78 1788.68 1873.59 1792.25 Q1875.41 1795.79 1879.03 1795.79 Q1882.66 1795.79 1884.47 1792.25 Q1886.29 1788.68 1886.29 1781.58 Q1886.29 1774.45 1884.47 1770.9 Q1882.66 1767.34 1879.03 1767.34 M1879.03 1763.64 Q1884.84 1763.64 1887.89 1768.24 Q1890.97 1772.83 1890.97 1781.58 Q1890.97 1790.3 1887.89 1794.91 Q1884.84 1799.49 1879.03 1799.49 Q1873.22 1799.49 1870.14 1794.91 Q1867.08 1790.3 1867.08 1781.58 Q1867.08 1772.83 1870.14 1768.24 Q1873.22 1763.64 1879.03 1763.64 Z" fill="#000000" fill-rule="evenodd" fill-opacity="1" /><path clip-path="url(#clip510)" d="M1909.19 1767.34 Q1905.58 1767.34 1903.75 1770.9 Q1901.94 1774.45 1901.94 1781.58 Q1901.94 1788.68 1903.75 1792.25 Q1905.58 1795.79 1909.19 1795.79 Q1912.82 1795.79 1914.63 1792.25 Q1916.46 1788.68 1916.46 1781.58 Q1916.46 1774.45 1914.63 1770.9 Q1912.82 1767.34 1909.19 1767.34 M1909.19 1763.64 Q1915 1763.64 1918.05 1768.24 Q1921.13 1772.83 1921.13 1781.58 Q1921.13 1790.3 1918.05 1794.91 Q1915 1799.49 1909.19 1799.49 Q1903.38 1799.49 1900.3 1794.91 Q1897.24 1790.3 1897.24 1781.58 Q1897.24 1772.83 1900.3 1768.24 Q1903.38 1763.64 1909.19 1763.64 Z" fill="#000000" fill-rule="evenodd" fill-opacity="1" /><path clip-path="url(#clip510)" d="M2309.54 1764.26 L2331.76 1764.26 L2331.76 1766.25 L2319.22 1798.82 L2314.33 1798.82 L2326.14 1768.2 L2309.54 1768.2 L2309.54 1764.26 Z" fill="#000000" fill-rule="evenodd" fill-opacity="1" /><path clip-path="url(#clip510)" d="M2350.88 1767.34 Q2347.27 1767.34 2345.44 1770.9 Q2343.64 1774.45 2343.64 1781.58 Q2343.64 1788.68 2345.44 1792.25 Q2347.27 1795.79 2350.88 1795.79 Q2354.52 1795.79 2356.32 1792.25 Q2358.15 1788.68 2358.15 1781.58 Q2358.15 1774.45 2356.32 1770.9 Q2354.52 1767.34 2350.88 1767.34 M2350.88 1763.64 Q2356.69 1763.64 2359.75 1768.24 Q2362.83 1772.83 2362.83 1781.58 Q2362.83 1790.3 2359.75 1794.91 Q2356.69 1799.49 2350.88 1799.49 Q2345.07 1799.49 2341.99 1794.91 Q2338.94 1790.3 2338.94 1781.58 Q2338.94 1772.83 2341.99 1768.24 Q2345.07 1763.64 2350.88 1763.64 Z" fill="#000000" fill-rule="evenodd" fill-opacity="1" /><path clip-path="url(#clip510)" d="M2381.04 1767.34 Q2377.43 1767.34 2375.6 1770.9 Q2373.8 1774.45 2373.8 1781.58 Q2373.8 1788.68 2375.6 1792.25 Q2377.43 1795.79 2381.04 1795.79 Q2384.68 1795.79 2386.48 1792.25 Q2388.31 1788.68 2388.31 1781.58 Q2388.31 1774.45 2386.48 1770.9 Q2384.68 1767.34 2381.04 1767.34 M2381.04 1763.64 Q2386.85 1763.64 2389.91 1768.24 Q2392.99 1772.83 2392.99 1781.58 Q2392.99 1790.3 2389.91 1794.91 Q2386.85 1799.49 2381.04 1799.49 Q2375.23 1799.49 2372.15 1794.91 Q2369.1 1790.3 2369.1 1781.58 Q2369.1 1772.83 2372.15 1768.24 Q2375.23 1763.64 2381.04 1763.64 Z" fill="#000000" fill-rule="evenodd" fill-opacity="1" /><path clip-path="url(#clip510)" d="M1193.88 1835.78 L1234.08 1835.78 L1234.08 1841.19 L1217.21 1841.19 L1217.21 1883.3 L1210.75 1883.3 L1210.75 1841.19 L1193.88 1841.19 L1193.88 1835.78 Z" fill="#000000" fill-rule="evenodd" fill-opacity="1" /><path clip-path="url(#clip510)" d="M1259.44 1864.01 L1259.44 1866.88 L1232.52 1866.88 Q1232.9 1872.92 1236.14 1876.11 Q1239.42 1879.26 1245.25 1879.26 Q1248.62 1879.26 1251.77 1878.43 Q1254.96 1877.6 1258.07 1875.95 L1258.07 1881.49 Q1254.92 1882.82 1251.61 1883.52 Q1248.3 1884.22 1244.9 1884.22 Q1236.37 1884.22 1231.37 1879.26 Q1226.41 1874.29 1226.41 1865.83 Q1226.41 1857.07 1231.12 1851.95 Q1235.86 1846.79 1243.88 1846.79 Q1251.07 1846.79 1255.24 1851.44 Q1259.44 1856.06 1259.44 1864.01 M1253.59 1862.29 Q1253.52 1857.49 1250.88 1854.62 Q1248.27 1851.76 1243.94 1851.76 Q1239.04 1851.76 1236.08 1854.53 Q1233.15 1857.3 1232.71 1862.33 L1253.59 1862.29 Z" fill="#000000" fill-rule="evenodd" fill-opacity="1" /><path clip-path="url(#clip510)" d="M1296.81 1854.5 Q1299.01 1850.55 1302.06 1848.67 Q1305.12 1846.79 1309.25 1846.79 Q1314.82 1846.79 1317.85 1850.71 Q1320.87 1854.59 1320.87 1861.78 L1320.87 1883.3 L1314.98 1883.3 L1314.98 1861.98 Q1314.98 1856.85 1313.17 1854.37 Q1311.36 1851.89 1307.63 1851.89 Q1303.08 1851.89 1300.44 1854.91 Q1297.8 1857.93 1297.8 1863.15 L1297.8 1883.3 L1291.91 1883.3 L1291.91 1861.98 Q1291.91 1856.82 1290.09 1854.37 Q1288.28 1851.89 1284.49 1851.89 Q1280 1851.89 1277.36 1854.94 Q1274.72 1857.97 1274.72 1863.15 L1274.72 1883.3 L1268.83 1883.3 L1268.83 1847.65 L1274.72 1847.65 L1274.72 1853.19 Q1276.73 1849.91 1279.53 1848.35 Q1282.33 1846.79 1286.18 1846.79 Q1290.06 1846.79 1292.77 1848.77 Q1295.5 1850.74 1296.81 1854.5 Z" fill="#000000" fill-rule="evenodd" fill-opacity="1" /><path clip-path="url(#clip510)" d="M1338.22 1877.95 L1338.22 1896.86 L1332.33 1896.86 L1332.33 1847.65 L1338.22 1847.65 L1338.22 1853.06 Q1340.06 1849.88 1342.87 1848.35 Q1345.7 1846.79 1349.61 1846.79 Q1356.11 1846.79 1360.15 1851.95 Q1364.22 1857.11 1364.22 1865.51 Q1364.22 1873.91 1360.15 1879.07 Q1356.11 1884.22 1349.61 1884.22 Q1345.7 1884.22 1342.87 1882.7 Q1340.06 1881.14 1338.22 1877.95 M1358.14 1865.51 Q1358.14 1859.05 1355.47 1855.39 Q1352.83 1851.7 1348.18 1851.7 Q1343.53 1851.7 1340.86 1855.39 Q1338.22 1859.05 1338.22 1865.51 Q1338.22 1871.97 1340.86 1875.66 Q1343.53 1879.32 1348.18 1879.32 Q1352.83 1879.32 1355.47 1875.66 Q1358.14 1871.97 1358.14 1865.51 Z" fill="#000000" fill-rule="evenodd" fill-opacity="1" /><path clip-path="url(#clip510)" d="M1404.42 1864.01 L1404.42 1866.88 L1377.5 1866.88 Q1377.88 1872.92 1381.12 1876.11 Q1384.4 1879.26 1390.23 1879.26 Q1393.6 1879.26 1396.75 1878.43 Q1399.93 1877.6 1403.05 1875.95 L1403.05 1881.49 Q1399.9 1882.82 1396.59 1883.52 Q1393.28 1884.22 1389.88 1884.22 Q1381.35 1884.22 1376.35 1879.26 Q1371.38 1874.29 1371.38 1865.83 Q1371.38 1857.07 1376.09 1851.95 Q1380.84 1846.79 1388.86 1846.79 Q1396.05 1846.79 1400.22 1851.44 Q1404.42 1856.06 1404.42 1864.01 M1398.57 1862.29 Q1398.5 1857.49 1395.86 1854.62 Q1393.25 1851.76 1388.92 1851.76 Q1384.02 1851.76 1381.06 1854.53 Q1378.13 1857.3 1377.69 1862.33 L1398.57 1862.29 Z" fill="#000000" fill-rule="evenodd" fill-opacity="1" /><path clip-path="url(#clip510)" d="M1434.69 1853.13 Q1433.7 1852.55 1432.53 1852.3 Q1431.38 1852.01 1429.98 1852.01 Q1425.02 1852.01 1422.34 1855.26 Q1419.7 1858.47 1419.7 1864.52 L1419.7 1883.3 L1413.81 1883.3 L1413.81 1847.65 L1419.7 1847.65 L1419.7 1853.19 Q1421.55 1849.94 1424.51 1848.39 Q1427.47 1846.79 1431.7 1846.79 Q1432.3 1846.79 1433.04 1846.89 Q1433.77 1846.95 1434.66 1847.11 L1434.69 1853.13 Z" fill="#000000" fill-rule="evenodd" fill-opacity="1" /><path clip-path="url(#clip510)" d="M1457.03 1865.38 Q1449.94 1865.38 1447.2 1867 Q1444.46 1868.63 1444.46 1872.54 Q1444.46 1875.66 1446.5 1877.51 Q1448.57 1879.32 1452.1 1879.32 Q1456.97 1879.32 1459.9 1875.88 Q1462.86 1872.42 1462.86 1866.69 L1462.86 1865.38 L1457.03 1865.38 M1468.72 1862.96 L1468.72 1883.3 L1462.86 1883.3 L1462.86 1877.89 Q1460.85 1881.14 1457.86 1882.7 Q1454.87 1884.22 1450.54 1884.22 Q1445.07 1884.22 1441.82 1881.17 Q1438.61 1878.08 1438.61 1872.92 Q1438.61 1866.91 1442.62 1863.85 Q1446.66 1860.8 1454.65 1860.8 L1462.86 1860.8 L1462.86 1860.23 Q1462.86 1856.18 1460.19 1853.99 Q1457.54 1851.76 1452.74 1851.76 Q1449.68 1851.76 1446.79 1852.49 Q1443.89 1853.22 1441.22 1854.69 L1441.22 1849.28 Q1444.43 1848.03 1447.45 1847.43 Q1450.48 1846.79 1453.34 1846.79 Q1461.08 1846.79 1464.9 1850.8 Q1468.72 1854.81 1468.72 1862.96 Z" fill="#000000" fill-rule="evenodd" fill-opacity="1" /><path clip-path="url(#clip510)" d="M1486.57 1837.53 L1486.57 1847.65 L1498.63 1847.65 L1498.63 1852.2 L1486.57 1852.2 L1486.57 1871.56 Q1486.57 1875.92 1487.75 1877.16 Q1488.96 1878.4 1492.62 1878.4 L1498.63 1878.4 L1498.63 1883.3 L1492.62 1883.3 Q1485.84 1883.3 1483.26 1880.79 Q1480.68 1878.24 1480.68 1871.56 L1480.68 1852.2 L1476.39 1852.2 L1476.39 1847.65 L1480.68 1847.65 L1480.68 1837.53 L1486.57 1837.53 Z" fill="#000000" fill-rule="evenodd" fill-opacity="1" /><path clip-path="url(#clip510)" d="M1505.73 1869.23 L1505.73 1847.65 L1511.59 1847.65 L1511.59 1869.01 Q1511.59 1874.07 1513.56 1876.62 Q1515.54 1879.13 1519.48 1879.13 Q1524.22 1879.13 1526.96 1876.11 Q1529.73 1873.08 1529.73 1867.86 L1529.73 1847.65 L1535.59 1847.65 L1535.59 1883.3 L1529.73 1883.3 L1529.73 1877.83 Q1527.6 1881.07 1524.77 1882.66 Q1521.96 1884.22 1518.24 1884.22 Q1512.1 1884.22 1508.92 1880.4 Q1505.73 1876.59 1505.73 1869.23 M1520.47 1846.79 L1520.47 1846.79 Z" fill="#000000" fill-rule="evenodd" fill-opacity="1" /><path clip-path="url(#clip510)" d="M1568.31 1853.13 Q1567.32 1852.55 1566.14 1852.3 Q1565 1852.01 1563.6 1852.01 Q1558.63 1852.01 1555.96 1855.26 Q1553.32 1858.47 1553.32 1864.52 L1553.32 1883.3 L1547.43 1883.3 L1547.43 1847.65 L1553.32 1847.65 L1553.32 1853.19 Q1555.16 1849.94 1558.12 1848.39 Q1561.08 1846.79 1565.32 1846.79 Q1565.92 1846.79 1566.65 1846.89 Q1567.38 1846.95 1568.28 1847.11 L1568.31 1853.13 Z" fill="#000000" fill-rule="evenodd" fill-opacity="1" /><path clip-path="url(#clip510)" d="M1603.51 1864.01 L1603.51 1866.88 L1576.58 1866.88 Q1576.96 1872.92 1580.21 1876.11 Q1583.49 1879.26 1589.31 1879.26 Q1592.69 1879.26 1595.84 1878.43 Q1599.02 1877.6 1602.14 1875.95 L1602.14 1881.49 Q1598.99 1882.82 1595.68 1883.52 Q1592.37 1884.22 1588.96 1884.22 Q1580.43 1884.22 1575.44 1879.26 Q1570.47 1874.29 1570.47 1865.83 Q1570.47 1857.07 1575.18 1851.95 Q1579.92 1846.79 1587.95 1846.79 Q1595.14 1846.79 1599.31 1851.44 Q1603.51 1856.06 1603.51 1864.01 M1597.65 1862.29 Q1597.59 1857.49 1594.95 1854.62 Q1592.34 1851.76 1588.01 1851.76 Q1583.11 1851.76 1580.15 1854.53 Q1577.22 1857.3 1576.77 1862.33 L1597.65 1862.29 Z" fill="#000000" fill-rule="evenodd" fill-opacity="1" /><path clip-path="url(#clip510)" d="M1633.3 1833.78 L1646.8 1833.78 L1646.8 1838.33 L1639.16 1838.33 L1639.16 1887.34 L1646.8 1887.34 L1646.8 1891.89 L1633.3 1891.89 L1633.3 1833.78 Z" fill="#000000" fill-rule="evenodd" fill-opacity="1" /><path clip-path="url(#clip510)" d="M1659.53 1835.78 L1665.96 1835.78 L1665.96 1855.86 L1687.28 1835.78 L1695.56 1835.78 L1671.97 1857.93 L1697.24 1883.3 L1688.78 1883.3 L1665.96 1860.42 L1665.96 1883.3 L1659.53 1883.3 L1659.53 1835.78 Z" fill="#000000" fill-rule="evenodd" fill-opacity="1" /><path clip-path="url(#clip510)" d="M1715.71 1833.78 L1715.71 1891.89 L1702.21 1891.89 L1702.21 1887.34 L1709.82 1887.34 L1709.82 1838.33 L1702.21 1838.33 L1702.21 1833.78 L1715.71 1833.78 Z" fill="#000000" fill-rule="evenodd" fill-opacity="1" /><polyline clip-path="url(#clip513)" style="stroke:#000000; stroke-linecap:round; stroke-linejoin:round; stroke-width:2; stroke-opacity:0.1; fill:none" points="268.826,1411.54 2640.76,1411.54 "/>
<polyline clip-path="url(#clip513)" style="stroke:#000000; stroke-linecap:round; stroke-linejoin:round; stroke-width:2; stroke-opacity:0.1; fill:none" points="268.826,1084.39 2640.76,1084.39 "/>
<polyline clip-path="url(#clip513)" style="stroke:#000000; stroke-linecap:round; stroke-linejoin:round; stroke-width:2; stroke-opacity:0.1; fill:none" points="268.826,757.233 2640.76,757.233 "/>
<polyline clip-path="url(#clip513)" style="stroke:#000000; stroke-linecap:round; stroke-linejoin:round; stroke-width:2; stroke-opacity:0.1; fill:none" points="268.826,430.078 2640.76,430.078 "/>
<polyline clip-path="url(#clip513)" style="stroke:#000000; stroke-linecap:round; stroke-linejoin:round; stroke-width:2; stroke-opacity:0.1; fill:none" points="268.826,102.924 2640.76,102.924 "/>
<polyline clip-path="url(#clip510)" style="stroke:#000000; stroke-linecap:round; stroke-linejoin:round; stroke-width:4; stroke-opacity:1; fill:none" points="268.826,1734.12 268.826,47.2441 "/>
<polyline clip-path="url(#clip510)" style="stroke:#000000; stroke-linecap:round; stroke-linejoin:round; stroke-width:4; stroke-opacity:1; fill:none" points="268.826,1411.54 287.723,1411.54 "/>
<polyline clip-path="url(#clip510)" style="stroke:#000000; stroke-linecap:round; stroke-linejoin:round; stroke-width:4; stroke-opacity:1; fill:none" points="268.826,1084.39 287.723,1084.39 "/>
<polyline clip-path="url(#clip510)" style="stroke:#000000; stroke-linecap:round; stroke-linejoin:round; stroke-width:4; stroke-opacity:1; fill:none" points="268.826,757.233 287.723,757.233 "/>
<polyline clip-path="url(#clip510)" style="stroke:#000000; stroke-linecap:round; stroke-linejoin:round; stroke-width:4; stroke-opacity:1; fill:none" points="268.826,430.078 287.723,430.078 "/>
<polyline clip-path="url(#clip510)" style="stroke:#000000; stroke-linecap:round; stroke-linejoin:round; stroke-width:4; stroke-opacity:1; fill:none" points="268.826,102.924 287.723,102.924 "/>
<path clip-path="url(#clip510)" d="M150.265 1424.89 L166.585 1424.89 L166.585 1428.82 L144.64 1428.82 L144.64 1424.89 Q147.302 1422.13 151.886 1417.5 Q156.492 1412.85 157.673 1411.51 Q159.918 1408.98 160.798 1407.25 Q161.7 1405.49 161.7 1403.8 Q161.7 1401.04 159.756 1399.31 Q157.835 1397.57 154.733 1397.57 Q152.534 1397.57 150.08 1398.34 Q147.649 1399.1 144.872 1400.65 L144.872 1395.93 Q147.696 1394.79 150.149 1394.22 Q152.603 1393.64 154.64 1393.64 Q160.011 1393.64 163.205 1396.32 Q166.399 1399.01 166.399 1403.5 Q166.399 1405.63 165.589 1407.55 Q164.802 1409.45 162.696 1412.04 Q162.117 1412.71 159.015 1415.93 Q155.913 1419.12 150.265 1424.89 Z" fill="#000000" fill-rule="evenodd" fill-opacity="1" /><path clip-path="url(#clip510)" d="M186.399 1397.34 Q182.788 1397.34 180.959 1400.91 Q179.154 1404.45 179.154 1411.58 Q179.154 1418.68 180.959 1422.25 Q182.788 1425.79 186.399 1425.79 Q190.033 1425.79 191.839 1422.25 Q193.668 1418.68 193.668 1411.58 Q193.668 1404.45 191.839 1400.91 Q190.033 1397.34 186.399 1397.34 M186.399 1393.64 Q192.209 1393.64 195.265 1398.24 Q198.344 1402.83 198.344 1411.58 Q198.344 1420.3 195.265 1424.91 Q192.209 1429.49 186.399 1429.49 Q180.589 1429.49 177.51 1424.91 Q174.455 1420.3 174.455 1411.58 Q174.455 1402.83 177.51 1398.24 Q180.589 1393.64 186.399 1393.64 Z" fill="#000000" fill-rule="evenodd" fill-opacity="1" /><path clip-path="url(#clip510)" d="M216.561 1397.34 Q212.95 1397.34 211.121 1400.91 Q209.316 1404.45 209.316 1411.58 Q209.316 1418.68 211.121 1422.25 Q212.95 1425.79 216.561 1425.79 Q220.195 1425.79 222.001 1422.25 Q223.83 1418.68 223.83 1411.58 Q223.83 1404.45 222.001 1400.91 Q220.195 1397.34 216.561 1397.34 M216.561 1393.64 Q222.371 1393.64 225.427 1398.24 Q228.506 1402.83 228.506 1411.58 Q228.506 1420.3 225.427 1424.91 Q222.371 1429.49 216.561 1429.49 Q210.751 1429.49 207.672 1424.91 Q204.617 1420.3 204.617 1411.58 Q204.617 1402.83 207.672 1398.24 Q210.751 1393.64 216.561 1393.64 Z" fill="#000000" fill-rule="evenodd" fill-opacity="1" /><path clip-path="url(#clip510)" d="M159.085 1071.18 L147.279 1089.63 L159.085 1089.63 L159.085 1071.18 M157.858 1067.11 L163.737 1067.11 L163.737 1089.63 L168.668 1089.63 L168.668 1093.52 L163.737 1093.52 L163.737 1101.67 L159.085 1101.67 L159.085 1093.52 L143.483 1093.52 L143.483 1089.01 L157.858 1067.11 Z" fill="#000000" fill-rule="evenodd" fill-opacity="1" /><path clip-path="url(#clip510)" d="M186.399 1070.19 Q182.788 1070.19 180.959 1073.75 Q179.154 1077.29 179.154 1084.42 Q179.154 1091.53 180.959 1095.09 Q182.788 1098.63 186.399 1098.63 Q190.033 1098.63 191.839 1095.09 Q193.668 1091.53 193.668 1084.42 Q193.668 1077.29 191.839 1073.75 Q190.033 1070.19 186.399 1070.19 M186.399 1066.48 Q192.209 1066.48 195.265 1071.09 Q198.344 1075.67 198.344 1084.42 Q198.344 1093.15 195.265 1097.76 Q192.209 1102.34 186.399 1102.34 Q180.589 1102.34 177.51 1097.76 Q174.455 1093.15 174.455 1084.42 Q174.455 1075.67 177.51 1071.09 Q180.589 1066.48 186.399 1066.48 Z" fill="#000000" fill-rule="evenodd" fill-opacity="1" /><path clip-path="url(#clip510)" d="M216.561 1070.19 Q212.95 1070.19 211.121 1073.75 Q209.316 1077.29 209.316 1084.42 Q209.316 1091.53 211.121 1095.09 Q212.95 1098.63 216.561 1098.63 Q220.195 1098.63 222.001 1095.09 Q223.83 1091.53 223.83 1084.42 Q223.83 1077.29 222.001 1073.75 Q220.195 1070.19 216.561 1070.19 M216.561 1066.48 Q222.371 1066.48 225.427 1071.09 Q228.506 1075.67 228.506 1084.42 Q228.506 1093.15 225.427 1097.76 Q222.371 1102.34 216.561 1102.34 Q210.751 1102.34 207.672 1097.76 Q204.617 1093.15 204.617 1084.42 Q204.617 1075.67 207.672 1071.09 Q210.751 1066.48 216.561 1066.48 Z" fill="#000000" fill-rule="evenodd" fill-opacity="1" /><path clip-path="url(#clip510)" d="M156.816 755.369 Q153.668 755.369 151.816 757.522 Q149.987 759.675 149.987 763.425 Q149.987 767.152 151.816 769.328 Q153.668 771.48 156.816 771.48 Q159.964 771.48 161.793 769.328 Q163.645 767.152 163.645 763.425 Q163.645 759.675 161.793 757.522 Q159.964 755.369 156.816 755.369 M166.098 740.717 L166.098 744.976 Q164.339 744.143 162.534 743.703 Q160.751 743.263 158.992 743.263 Q154.362 743.263 151.909 746.388 Q149.478 749.513 149.131 755.832 Q150.497 753.819 152.557 752.754 Q154.617 751.666 157.094 751.666 Q162.302 751.666 165.311 754.837 Q168.344 757.985 168.344 763.425 Q168.344 768.749 165.196 771.967 Q162.048 775.184 156.816 775.184 Q150.821 775.184 147.649 770.601 Q144.478 765.994 144.478 757.268 Q144.478 749.073 148.367 744.212 Q152.256 739.328 158.807 739.328 Q160.566 739.328 162.348 739.675 Q164.154 740.022 166.098 740.717 Z" fill="#000000" fill-rule="evenodd" fill-opacity="1" /><path clip-path="url(#clip510)" d="M186.399 743.032 Q182.788 743.032 180.959 746.596 Q179.154 750.138 179.154 757.268 Q179.154 764.374 180.959 767.939 Q182.788 771.48 186.399 771.48 Q190.033 771.48 191.839 767.939 Q193.668 764.374 193.668 757.268 Q193.668 750.138 191.839 746.596 Q190.033 743.032 186.399 743.032 M186.399 739.328 Q192.209 739.328 195.265 743.934 Q198.344 748.518 198.344 757.268 Q198.344 765.994 195.265 770.601 Q192.209 775.184 186.399 775.184 Q180.589 775.184 177.51 770.601 Q174.455 765.994 174.455 757.268 Q174.455 748.518 177.51 743.934 Q180.589 739.328 186.399 739.328 Z" fill="#000000" fill-rule="evenodd" fill-opacity="1" /><path clip-path="url(#clip510)" d="M216.561 743.032 Q212.95 743.032 211.121 746.596 Q209.316 750.138 209.316 757.268 Q209.316 764.374 211.121 767.939 Q212.95 771.48 216.561 771.48 Q220.195 771.48 222.001 767.939 Q223.83 764.374 223.83 757.268 Q223.83 750.138 222.001 746.596 Q220.195 743.032 216.561 743.032 M216.561 739.328 Q222.371 739.328 225.427 743.934 Q228.506 748.518 228.506 757.268 Q228.506 765.994 225.427 770.601 Q222.371 775.184 216.561 775.184 Q210.751 775.184 207.672 770.601 Q204.617 765.994 204.617 757.268 Q204.617 748.518 207.672 743.934 Q210.751 739.328 216.561 739.328 Z" fill="#000000" fill-rule="evenodd" fill-opacity="1" /><path clip-path="url(#clip510)" d="M156.237 430.947 Q152.904 430.947 150.983 432.729 Q149.085 434.511 149.085 437.636 Q149.085 440.761 150.983 442.544 Q152.904 444.326 156.237 444.326 Q159.571 444.326 161.492 442.544 Q163.413 440.738 163.413 437.636 Q163.413 434.511 161.492 432.729 Q159.594 430.947 156.237 430.947 M151.561 428.956 Q148.552 428.215 146.862 426.155 Q145.196 424.095 145.196 421.132 Q145.196 416.988 148.136 414.581 Q151.099 412.173 156.237 412.173 Q161.399 412.173 164.339 414.581 Q167.279 416.988 167.279 421.132 Q167.279 424.095 165.589 426.155 Q163.923 428.215 160.936 428.956 Q164.316 429.743 166.191 432.034 Q168.089 434.326 168.089 437.636 Q168.089 442.659 165.01 445.345 Q161.955 448.03 156.237 448.03 Q150.52 448.03 147.441 445.345 Q144.386 442.659 144.386 437.636 Q144.386 434.326 146.284 432.034 Q148.182 429.743 151.561 428.956 M149.849 421.572 Q149.849 424.257 151.515 425.761 Q153.205 427.266 156.237 427.266 Q159.247 427.266 160.936 425.761 Q162.649 424.257 162.649 421.572 Q162.649 418.886 160.936 417.382 Q159.247 415.877 156.237 415.877 Q153.205 415.877 151.515 417.382 Q149.849 418.886 149.849 421.572 Z" fill="#000000" fill-rule="evenodd" fill-opacity="1" /><path clip-path="url(#clip510)" d="M186.399 415.877 Q182.788 415.877 180.959 419.442 Q179.154 422.984 179.154 430.113 Q179.154 437.22 180.959 440.784 Q182.788 444.326 186.399 444.326 Q190.033 444.326 191.839 440.784 Q193.668 437.22 193.668 430.113 Q193.668 422.984 191.839 419.442 Q190.033 415.877 186.399 415.877 M186.399 412.173 Q192.209 412.173 195.265 416.78 Q198.344 421.363 198.344 430.113 Q198.344 438.84 195.265 443.446 Q192.209 448.03 186.399 448.03 Q180.589 448.03 177.51 443.446 Q174.455 438.84 174.455 430.113 Q174.455 421.363 177.51 416.78 Q180.589 412.173 186.399 412.173 Z" fill="#000000" fill-rule="evenodd" fill-opacity="1" /><path clip-path="url(#clip510)" d="M216.561 415.877 Q212.95 415.877 211.121 419.442 Q209.316 422.984 209.316 430.113 Q209.316 437.22 211.121 440.784 Q212.95 444.326 216.561 444.326 Q220.195 444.326 222.001 440.784 Q223.83 437.22 223.83 430.113 Q223.83 422.984 222.001 419.442 Q220.195 415.877 216.561 415.877 M216.561 412.173 Q222.371 412.173 225.427 416.78 Q228.506 421.363 228.506 430.113 Q228.506 438.84 225.427 443.446 Q222.371 448.03 216.561 448.03 Q210.751 448.03 207.672 443.446 Q204.617 438.84 204.617 430.113 Q204.617 421.363 207.672 416.78 Q210.751 412.173 216.561 412.173 Z" fill="#000000" fill-rule="evenodd" fill-opacity="1" /><path clip-path="url(#clip510)" d="M116.886 116.269 L124.525 116.269 L124.525 89.9033 L116.214 91.5699 L116.214 87.3107 L124.478 85.644 L129.154 85.644 L129.154 116.269 L136.793 116.269 L136.793 120.204 L116.886 120.204 L116.886 116.269 Z" fill="#000000" fill-rule="evenodd" fill-opacity="1" /><path clip-path="url(#clip510)" d="M156.237 88.7227 Q152.626 88.7227 150.798 92.2875 Q148.992 95.8292 148.992 102.959 Q148.992 110.065 150.798 113.63 Q152.626 117.172 156.237 117.172 Q159.872 117.172 161.677 113.63 Q163.506 110.065 163.506 102.959 Q163.506 95.8292 161.677 92.2875 Q159.872 88.7227 156.237 88.7227 M156.237 85.0191 Q162.048 85.0191 165.103 89.6255 Q168.182 94.2088 168.182 102.959 Q168.182 111.686 165.103 116.292 Q162.048 120.875 156.237 120.875 Q150.427 120.875 147.349 116.292 Q144.293 111.686 144.293 102.959 Q144.293 94.2088 147.349 89.6255 Q150.427 85.0191 156.237 85.0191 Z" fill="#000000" fill-rule="evenodd" fill-opacity="1" /><path clip-path="url(#clip510)" d="M186.399 88.7227 Q182.788 88.7227 180.959 92.2875 Q179.154 95.8292 179.154 102.959 Q179.154 110.065 180.959 113.63 Q182.788 117.172 186.399 117.172 Q190.033 117.172 191.839 113.63 Q193.668 110.065 193.668 102.959 Q193.668 95.8292 191.839 92.2875 Q190.033 88.7227 186.399 88.7227 M186.399 85.0191 Q192.209 85.0191 195.265 89.6255 Q198.344 94.2088 198.344 102.959 Q198.344 111.686 195.265 116.292 Q192.209 120.875 186.399 120.875 Q180.589 120.875 177.51 116.292 Q174.455 111.686 174.455 102.959 Q174.455 94.2088 177.51 89.6255 Q180.589 85.0191 186.399 85.0191 Z" fill="#000000" fill-rule="evenodd" fill-opacity="1" /><path clip-path="url(#clip510)" d="M216.561 88.7227 Q212.95 88.7227 211.121 92.2875 Q209.316 95.8292 209.316 102.959 Q209.316 110.065 211.121 113.63 Q212.95 117.172 216.561 117.172 Q220.195 117.172 222.001 113.63 Q223.83 110.065 223.83 102.959 Q223.83 95.8292 222.001 92.2875 Q220.195 88.7227 216.561 88.7227 M216.561 85.0191 Q222.371 85.0191 225.427 89.6255 Q228.506 94.2088 228.506 102.959 Q228.506 111.686 225.427 116.292 Q222.371 120.875 216.561 120.875 Q210.751 120.875 207.672 116.292 Q204.617 111.686 204.617 102.959 Q204.617 94.2088 207.672 89.6255 Q210.751 85.0191 216.561 85.0191 Z" fill="#000000" fill-rule="evenodd" fill-opacity="1" /><path clip-path="url(#clip510)" d="M36.4438 1069.03 Q41.7578 1069.03 46.9751 1071.32 Q52.1603 1073.57 56.0894 1077.25 Q59.9863 1080.89 62.4017 1085.81 Q64.8172 1090.74 64.8172 1095.76 L64.8172 1117.6 Q64.8172 1118.37 64.785 1118.69 Q64.7528 1118.98 64.5917 1119.21 Q64.3985 1119.44 64.012 1119.44 Q63.4001 1119.44 63.1425 1119.18 Q62.8526 1118.92 62.8204 1118.63 Q62.7882 1118.34 62.7882 1117.6 Q62.7882 1115.99 62.6916 1115.02 Q62.595 1114.06 62.4661 1113.45 Q62.3051 1112.8 61.8542 1112.48 Q61.4033 1112.12 61.0169 1111.96 Q60.5982 1111.8 59.6642 1111.58 L24.2378 1102.75 Q23.175 1102.5 23.014 1102.5 Q22.4665 1102.5 22.2732 1102.82 Q22.0478 1103.11 21.9512 1103.94 Q21.8223 1105.55 21.8223 1106.78 Q21.8223 1107.58 21.7901 1107.91 Q21.7579 1108.2 21.5969 1108.45 Q21.4037 1108.68 21.0172 1108.68 Q20.4053 1108.68 20.1476 1108.42 Q19.8578 1108.13 19.8256 1107.81 Q19.7612 1107.49 19.7612 1106.71 L19.7612 1084.56 Q19.7612 1079.76 22.0156 1076.18 Q24.2378 1072.61 28.0059 1070.84 Q31.7417 1069.03 36.4438 1069.03 M34.0284 1074.8 Q27.877 1074.8 24.8497 1078.15 Q21.8223 1081.46 21.8223 1086.71 L21.8223 1093.77 Q21.8223 1095.86 22.2088 1096.38 Q22.5631 1096.89 24.3344 1097.34 L60.5338 1106.39 Q61.7254 1106.71 62.0475 1106.71 Q62.4017 1106.71 62.5306 1106.55 Q62.6272 1106.36 62.6916 1105.84 Q62.7882 1105.26 62.7882 1104.4 L62.7882 1096.96 Q62.7882 1094.09 62.0153 1091.48 Q61.2101 1088.84 59.9541 1086.94 Q58.6658 1085.04 57.5708 1083.82 Q56.4436 1082.59 55.3164 1081.72 Q52.7722 1079.76 49.455 1078.31 Q46.1378 1076.83 43.1104 1076.15 Q40.0509 1075.44 37.7965 1075.12 Q35.5098 1074.8 34.0284 1074.8 Z" fill="#000000" fill-rule="evenodd" fill-opacity="1" /><path clip-path="url(#clip510)" d="M57.1844 1038.7 Q57.4742 1038.44 57.7641 1038.44 Q58.0539 1038.44 58.8913 1039.08 Q59.7286 1039.69 60.8558 1041.01 Q61.9831 1042.33 63.0458 1044.04 Q64.1086 1045.75 64.8172 1048.26 Q65.5579 1050.77 65.5579 1053.41 Q65.5579 1058.15 62.1763 1060.98 Q58.7947 1063.78 53.6095 1063.78 Q50.2923 1063.78 47.3616 1062.69 Q44.3987 1061.59 42.3053 1059.82 Q40.2119 1058.02 38.6982 1055.76 Q37.1523 1053.48 36.4116 1051.09 Q35.6709 1048.71 35.6709 1046.49 Q35.6709 1043.24 37.3134 1041.34 Q38.9559 1039.44 41.2747 1039.44 Q41.8222 1039.44 42.4985 1039.6 Q43.1748 1039.73 44.2376 1040.18 Q45.3004 1040.6 46.3632 1041.69 Q47.3938 1042.79 48.0701 1044.4 Q49.5838 1047.97 49.5838 1054.48 L49.5838 1057.99 Q53.7384 1059.02 56.4436 1059.02 Q57.5064 1059.02 58.6014 1058.82 Q59.6642 1058.63 61.0169 1058.12 Q62.3695 1057.57 63.2391 1056.34 Q64.0764 1055.09 64.0764 1053.28 Q64.0764 1052.71 64.0442 1052.09 Q64.012 1051.45 63.6578 1049.84 Q63.3035 1048.2 62.6916 1046.75 Q62.0797 1045.3 60.7592 1043.46 Q59.4066 1041.59 57.5708 1040.11 Q56.8945 1039.6 56.8945 1039.24 Q56.8945 1038.95 57.1844 1038.7 M41.2747 1041.63 Q39.5034 1041.63 38.3117 1042.95 Q37.1201 1044.24 37.1201 1046.49 Q37.1201 1047.2 37.2812 1048.07 Q37.4422 1048.94 38.1185 1050.39 Q38.7948 1051.8 39.922 1053.06 Q41.017 1054.32 43.1748 1055.57 Q45.3004 1056.83 48.1345 1057.57 L48.1345 1054.86 Q48.1345 1053.93 48.1345 1053.25 Q48.1023 1052.58 47.9735 1051.09 Q47.8447 1049.58 47.6192 1048.49 Q47.3616 1047.39 46.8463 1046.01 Q46.331 1044.62 45.6547 1043.75 Q44.9462 1042.85 43.8189 1042.24 Q42.6917 1041.63 41.2747 1041.63 Z" fill="#000000" fill-rule="evenodd" fill-opacity="1" /><path clip-path="url(#clip510)" d="M55.3809 998.925 Q55.6385 998.925 56.6369 999.214 Q57.6353 999.504 59.1811 1000.21 Q60.727 1000.89 62.1441 1001.82 Q63.5289 1002.76 64.5595 1004.3 Q65.5579 1005.82 65.5579 1007.56 Q65.5579 1009.87 64.012 1011.42 Q62.4661 1012.97 60.1473 1012.97 Q58.8591 1012.97 57.0878 1012.29 Q45.6547 1008.01 41.7256 1008.01 Q37.1201 1008.01 37.1201 1011.58 Q37.1201 1013.35 37.7965 1015.03 Q38.4406 1016.67 39.3423 1017.8 Q40.2441 1018.92 41.5001 1019.96 Q42.7239 1020.95 43.5613 1021.47 Q44.3664 1021.95 45.1716 1022.34 L48.4566 1023.18 Q49.3584 1023.37 52.8688 1024.3 L58.8269 1025.75 Q63.2713 1026.78 63.69 1027.01 Q64.5917 1027.33 65.0748 1028.04 Q65.5579 1028.75 65.5579 1029.46 Q65.5579 1030.26 65.0748 1030.81 Q64.5917 1031.36 63.7544 1031.36 Q63.6256 1031.36 63.1425 1031.26 Q62.6594 1031.16 61.9831 1031 Q61.3067 1030.84 60.9203 1030.78 L45.6869 1026.94 Q42.9172 1026.24 42.0476 1026.07 Q41.1459 1025.88 40.1475 1025.88 Q37.1201 1025.88 37.1201 1027.94 Q37.1201 1029.62 39.1169 1030.71 Q41.1137 1031.81 44.9784 1032.74 Q46.0412 1033.03 46.2666 1033.22 Q46.492 1033.38 46.492 1033.87 Q46.4598 1034.67 45.8157 1034.67 Q45.6547 1034.67 44.5919 1034.42 Q43.5291 1034.16 42.0154 1033.67 Q40.4695 1033.16 39.4389 1032.68 Q38.666 1032.26 38.3117 1032.03 Q37.9253 1031.77 37.1845 1031.16 Q36.4116 1030.52 36.0573 1029.68 Q35.6709 1028.81 35.6709 1027.75 Q35.6709 1025.37 37.2167 1023.63 Q38.7304 1021.89 41.4035 1021.66 Q35.6709 1017.38 35.6709 1011.39 Q35.6709 1007.85 37.5388 1005.82 Q39.4067 1003.79 42.7239 1003.79 Q43.4969 1003.79 44.4953 1003.95 Q45.4614 1004.08 46.6853 1004.4 Q47.9091 1004.69 48.8431 1004.95 Q49.777 1005.2 51.2907 1005.72 Q52.7722 1006.24 53.4163 1006.46 Q54.0604 1006.69 55.5741 1007.23 Q57.0556 1007.75 57.2166 1007.81 Q60.2117 1009.01 61.9186 1009.01 Q63.0458 1009.01 63.5611 1008.65 Q64.0764 1008.26 64.0764 1007.43 Q64.0764 1005.17 61.8542 1003.5 Q59.5998 1001.79 55.9284 1000.7 Q55.1232 1000.44 54.93 1000.31 Q54.7367 1000.15 54.7367 999.698 Q54.7367 998.925 55.3809 998.925 Z" fill="#000000" fill-rule="evenodd" fill-opacity="1" /><path clip-path="url(#clip510)" d="M41.3391 969.371 Q43.1426 969.371 44.1088 970.273 Q45.0428 971.174 45.0428 972.398 Q45.0428 973.397 44.4631 973.944 Q43.8834 974.459 43.1104 974.459 Q41.9832 974.459 41.0814 973.558 Q40.1797 972.624 40.1475 971.271 Q38.9559 971.722 38.2473 972.914 Q37.5066 974.105 37.3134 975.168 Q37.1201 976.199 37.1201 977.229 Q37.1201 979.258 37.7642 980.804 Q38.4084 982.35 39.4067 983.123 Q40.3729 983.896 41.3069 984.25 Q42.2409 984.604 43.046 984.604 Q43.7545 984.604 44.3342 984.443 Q44.8817 984.25 45.3004 983.799 Q45.6869 983.348 45.9445 983.026 Q46.2022 982.672 46.4276 981.899 Q46.6531 981.126 46.7497 980.804 Q46.8141 980.482 47.0073 979.58 Q47.3938 977.712 47.6192 976.875 Q47.8125 976.038 48.36 974.943 Q48.9075 973.815 49.777 972.978 Q51.806 970.949 54.6079 970.949 Q55.6385 970.949 56.8945 971.303 Q58.1506 971.625 59.7286 972.559 Q61.3067 973.493 62.5628 974.91 Q63.8188 976.327 64.6883 978.775 Q65.5579 981.19 65.5579 984.218 Q65.5579 988.437 63.7866 991.045 Q61.9831 993.654 59.1489 993.654 Q57.0878 993.654 55.9606 992.527 Q54.8011 991.4 54.8011 989.95 Q54.8011 988.855 55.4131 988.179 Q55.9928 987.503 57.0878 987.503 Q58.5692 987.503 59.6964 988.694 Q60.8236 989.886 60.5982 991.657 Q64.0764 990.144 64.0764 984.153 Q64.0764 981.899 63.4967 980.16 Q62.8848 978.389 62.0475 977.422 Q61.1779 976.424 60.1151 975.78 Q59.0523 975.136 58.2472 974.943 Q57.442 974.717 56.8301 974.717 Q55.7673 974.717 54.9622 975.136 Q54.157 975.554 53.7061 976.134 Q53.2231 976.682 52.8366 977.744 Q52.4179 978.775 52.2569 979.516 Q52.0959 980.257 51.8382 981.577 Q51.7094 982.189 51.645 982.575 Q51.5484 982.962 51.2907 983.767 Q51.0009 984.54 50.711 985.087 Q50.4211 985.603 49.9059 986.279 Q49.3906 986.955 48.7786 987.374 Q48.1667 987.793 47.265 988.083 Q46.3632 988.372 45.3004 988.372 Q44.3342 988.372 43.1748 988.083 Q42.0154 987.76 40.6628 986.955 Q39.3101 986.118 38.2151 984.926 Q37.1201 983.735 36.4116 981.738 Q35.6709 979.709 35.6709 977.229 Q35.6709 973.622 37.3456 971.497 Q38.9881 969.371 41.3391 969.371 Z" fill="#000000" fill-rule="evenodd" fill-opacity="1" /><path clip-path="url(#clip510)" d="M23.5937 947.772 Q25.0107 947.772 26.0735 948.932 Q27.1041 950.059 27.1041 951.283 Q27.1041 952.41 26.4278 953.118 Q25.7193 953.795 24.7209 953.795 Q23.4004 953.795 22.3054 952.668 Q21.2104 951.54 21.2104 950.22 Q21.2104 949.125 21.8868 948.449 Q22.5631 947.772 23.5937 947.772 M55.3809 947.193 Q55.6385 947.193 56.6691 947.482 Q57.6675 947.772 59.2133 948.481 Q60.727 949.157 62.1441 950.091 Q63.5611 951.025 64.5595 952.571 Q65.5579 954.085 65.5579 955.824 Q65.5579 958.175 64.012 959.721 Q62.4661 961.234 60.1473 961.234 Q58.8913 961.234 54.8656 959.721 Q43.1426 955.341 42.6595 955.18 Q40.8238 954.439 39.2135 954.439 Q38.4728 954.439 38.0219 954.6 Q37.5388 954.761 37.3778 955.083 Q37.1845 955.405 37.1523 955.598 Q37.1201 955.759 37.1201 956.081 Q37.1201 957.981 39.0525 959.753 Q40.9848 961.524 45.3004 962.748 Q46.1056 963.006 46.2988 963.167 Q46.492 963.328 46.492 963.811 Q46.4598 964.616 45.8157 964.616 Q45.6225 964.616 44.8817 964.39 Q44.1088 964.165 42.9494 963.746 Q41.7578 963.328 40.5339 962.587 Q39.2779 961.846 38.1829 960.944 Q37.0879 960.01 36.3794 958.69 Q35.6709 957.37 35.6709 955.888 Q35.6709 953.473 37.249 951.991 Q38.7948 950.478 41.0814 950.478 Q42.3375 950.478 44.5597 951.347 Q47.4582 952.41 48.3922 952.796 L55.3164 955.373 Q57.8285 956.307 58.6014 956.597 Q59.3422 956.854 60.2439 957.08 Q61.1135 957.273 61.9186 957.273 Q63.0458 957.273 63.5611 956.919 Q64.0764 956.532 64.0764 955.695 Q64.0764 953.376 61.7898 951.669 Q59.471 949.962 55.9284 948.964 Q55.8317 948.932 55.6707 948.899 Q54.8656 948.642 54.7689 948.384 Q54.7367 948.255 54.7367 947.998 Q54.7367 947.193 55.3809 947.193 Z" fill="#000000" fill-rule="evenodd" fill-opacity="1" /><path clip-path="url(#clip510)" d="M37.1201 921.31 Q38.0219 921.31 38.2473 921.729 Q38.4406 922.148 38.4406 923.307 L38.4406 929.491 L57.8929 934.386 Q59.5998 934.772 61.0491 934.772 Q62.6594 934.772 63.3679 934.289 Q64.0764 933.774 64.0764 932.711 Q64.0764 930.618 62.1763 928.363 Q60.2761 926.077 55.6385 924.144 Q55.0266 923.887 54.8978 923.758 Q54.7367 923.597 54.7367 923.178 Q54.7367 922.373 55.3809 922.373 Q55.6063 922.373 56.6369 922.824 Q57.6675 923.243 59.1811 924.177 Q60.6948 925.078 62.1119 926.27 Q63.5289 927.429 64.5595 929.201 Q65.5579 930.972 65.5579 932.872 Q65.5579 935.545 63.851 937.252 Q62.1441 938.927 59.471 938.927 Q58.6014 938.927 55.8317 938.251 Q53.0298 937.574 38.4406 933.903 L38.4406 939.732 Q38.4406 940.537 38.4084 940.859 Q38.3762 941.149 38.2151 941.375 Q38.0219 941.568 37.6354 941.568 Q37.0235 941.568 36.7659 941.31 Q36.476 941.052 36.4438 940.73 Q36.3794 940.376 36.3794 939.571 L36.3794 933.387 L25.9125 930.811 Q24.8819 930.553 24.3022 929.909 Q23.6903 929.233 23.6259 928.846 Q23.5293 928.46 23.5293 928.17 Q23.5293 927.301 24.0123 926.785 Q24.4632 926.27 25.3006 926.27 Q25.7515 926.27 36.3794 928.975 L36.3794 923.178 Q36.3794 922.437 36.4116 922.148 Q36.4438 921.826 36.6048 921.568 Q36.7659 921.31 37.1201 921.31 Z" fill="#000000" fill-rule="evenodd" fill-opacity="1" /><path clip-path="url(#clip510)" d="M38.1829 888.088 Q38.6338 888.088 39.6966 888.378 L64.8816 894.691 Q70.4854 896.076 74.4145 900.584 Q78.3436 905.061 78.3436 910.149 Q78.3436 913.209 76.7011 915.174 Q75.0908 917.138 72.611 917.138 Q70.421 917.138 69.3582 915.979 Q68.3276 914.819 68.3276 913.434 Q68.3276 912.984 68.4564 912.501 Q68.5853 912.017 69.1328 911.502 Q69.6803 910.987 70.6142 910.987 Q72.1279 910.987 73.3195 912.307 Q73.867 912.951 73.9958 913.563 Q74.1247 914.143 74.1247 915.141 Q75.0264 914.755 75.6383 914.046 Q76.2502 913.338 76.4757 912.533 Q76.7333 911.728 76.7977 911.212 Q76.8944 910.665 76.8944 910.149 Q76.8944 906.027 72.7398 902.871 Q71.4838 901.937 70.2278 901.261 Q69.0039 900.552 67.4903 900.037 Q66.0088 899.522 65.2036 899.296 Q64.3985 899.038 62.5628 898.588 Q65.5579 901.583 65.5579 905.254 Q65.5579 906.8 65.1392 908.185 Q64.7206 909.538 63.851 910.729 Q62.9492 911.921 61.3711 912.629 Q59.7931 913.306 57.6997 913.306 Q55.4775 913.306 52.4501 912.436 Q49.4228 911.567 43.8512 909.473 Q40.7272 908.346 39.2135 908.346 Q38.4728 908.346 38.0219 908.507 Q37.5388 908.668 37.3778 908.99 Q37.1845 909.312 37.1523 909.505 Q37.1201 909.666 37.1201 909.988 Q37.1201 911.889 39.0525 913.66 Q40.9848 915.431 45.3004 916.655 Q46.1056 916.913 46.2988 917.074 Q46.492 917.235 46.492 917.718 Q46.4598 918.523 45.8157 918.523 Q45.5581 918.523 44.5597 918.233 Q43.5291 917.943 42.0154 917.267 Q40.4695 916.558 39.0847 915.592 Q37.6676 914.626 36.6692 913.112 Q35.6709 911.567 35.6709 909.795 Q35.6709 907.38 37.249 905.898 Q38.7948 904.385 41.0814 904.385 Q42.0154 904.385 42.8528 904.642 Q43.6579 904.868 45.8157 905.705 Q54.5113 909.087 58.7625 909.087 Q59.7931 909.087 60.6626 908.926 Q61.5 908.732 62.3373 908.314 Q63.1425 907.895 63.6256 907.058 Q64.0764 906.188 64.0764 904.997 Q64.0764 903.483 63.3679 902.066 Q62.6272 900.617 61.6288 899.715 Q60.6304 898.781 59.7931 898.233 Q58.9235 897.654 58.4726 897.525 L46.6209 894.562 L41.3391 893.241 Q38.4728 892.63 37.7642 892.34 Q37.0879 891.953 36.7337 891.277 Q36.3794 890.601 36.3794 890.021 Q36.3794 889.216 36.8625 888.668 Q37.3456 888.088 38.1829 888.088 Z" fill="#000000" fill-rule="evenodd" fill-opacity="1" /><path clip-path="url(#clip510)" d="M81.3066 878.081 L15.349 878.081 L15.349 868.13 L16.8626 868.13 L16.8626 873.669 L79.7929 873.669 L79.7929 868.13 L81.3066 868.13 L81.3066 878.081 Z" fill="#000000" fill-rule="evenodd" fill-opacity="1" /><path clip-path="url(#clip510)" d="M39.8254 835.62 Q41.6612 835.62 42.7562 836.747 Q43.8512 837.842 43.8512 839.227 Q43.8512 840.451 43.1426 841.095 Q42.4341 841.739 41.5323 841.739 Q41.1459 841.739 40.6628 841.578 Q40.1475 841.417 39.5356 841.063 Q38.9237 840.677 38.4728 839.871 Q38.0219 839.066 37.9575 837.971 Q37.732 838.197 37.6998 838.261 Q37.3134 838.744 37.1845 839.646 Q37.1201 839.775 37.1201 840.226 Q37.1201 842.448 38.7626 844.702 Q40.3729 846.924 43.4325 849.662 Q47.0073 853.108 48.3278 855.33 Q49.616 845.572 55.252 845.572 Q56.186 845.572 57.3132 845.829 Q59.4388 846.345 60.9847 846.345 Q64.0764 846.345 64.0764 844.251 Q64.0764 842.222 62.0153 840.934 Q59.9541 839.614 55.9284 838.519 Q55.1876 838.358 54.9622 838.197 Q54.7367 838.036 54.7367 837.585 Q54.7367 836.78 55.3809 836.78 Q59.1489 837.52 62.0475 839.163 Q65.5579 841.256 65.5579 844.38 Q65.5579 846.989 63.7544 848.728 Q61.9186 850.435 59.0201 850.435 Q58.3116 850.435 56.7013 850.177 Q56.0572 849.984 55.3164 849.984 Q53.8028 849.984 52.6756 850.821 Q51.5161 851.659 50.9364 853.011 Q50.3567 854.364 50.0991 855.491 Q49.8092 856.586 49.7126 857.649 Q63.3357 860.87 64.1731 861.321 Q64.7528 861.61 65.1392 862.254 Q65.5579 862.899 65.5579 863.575 Q65.5579 864.219 65.107 864.863 Q64.6883 865.475 63.69 865.475 Q63.1747 865.475 62.2407 865.217 L24.2378 855.652 L22.9495 855.459 Q22.5631 855.459 22.3698 855.62 Q22.1444 855.749 21.9834 856.522 Q21.8223 857.263 21.8223 858.744 Q21.8223 859.356 21.7901 859.646 Q21.7579 859.903 21.5969 860.129 Q21.4037 860.354 21.0172 860.354 Q20.4697 860.354 20.1798 860.129 Q19.8578 859.871 19.7934 859.678 Q19.729 859.485 19.6968 859.098 Q19.6646 858.551 19.5035 856.715 Q19.3103 854.879 19.1815 853.301 Q19.0526 851.723 19.0526 851.047 Q19.0526 850.66 19.2459 850.467 Q19.4069 850.242 19.6001 850.209 L19.7612 850.177 L47.587 857.037 Q46.4598 854.203 41.4679 849.726 Q35.6709 844.541 35.6709 840.097 Q35.6709 838.003 36.9591 836.812 Q38.2151 835.62 39.8254 835.62 Z" fill="#000000" fill-rule="evenodd" fill-opacity="1" /><path clip-path="url(#clip510)" d="M38.7626 804.058 Q38.7948 804.058 39.9542 804.251 L69.2294 811.594 Q70.7753 811.981 72.3211 813.076 Q73.8992 814.139 75.2519 815.846 Q76.6367 817.52 77.4741 820.097 Q78.3436 822.641 78.3436 825.572 Q78.3436 830.242 77.3452 832.303 Q76.3791 834.332 74.3179 834.332 Q72.5144 834.332 71.4838 833.205 Q70.4854 832.077 70.4854 830.789 Q70.4854 829.565 71.1939 828.921 Q71.9025 828.277 72.8042 828.277 Q73.8026 828.277 74.801 828.953 Q75.8316 829.63 76.218 830.982 Q76.8944 828.825 76.8944 825.701 Q76.8944 819.098 69.9057 816.264 Q69.8091 816.2 69.7769 816.2 L61.0491 814.01 L60.9847 814.106 Q61.6288 814.654 62.3695 815.523 Q63.0781 816.361 63.9476 818.164 Q64.8172 819.968 64.8172 821.739 Q64.8172 825.443 61.9831 827.987 Q59.1167 830.499 54.3825 830.499 Q50.9364 830.499 47.4904 829.114 Q44.0122 827.697 41.4679 825.507 Q38.8914 823.285 37.2812 820.451 Q35.6709 817.585 35.6709 814.815 Q35.6709 812.883 36.8303 811.24 Q37.9575 809.598 39.8254 808.696 Q38.2795 808.535 37.6354 807.665 Q36.9913 806.763 36.9913 805.991 Q36.9913 805.121 37.4744 804.606 Q37.9253 804.058 38.7626 804.058 M42.7884 809.469 Q42.5951 809.469 42.0798 809.598 Q41.5323 809.726 40.6628 810.113 Q39.7932 810.467 39.0203 811.015 Q38.2473 811.562 37.6998 812.561 Q37.1201 813.527 37.1201 814.751 Q37.1201 816.747 38.7948 818.744 Q40.4373 820.741 42.9816 822.126 Q45.4292 823.414 50.1635 824.638 Q54.8978 825.829 57.3132 825.829 Q59.6964 825.829 61.5322 824.799 Q63.3679 823.768 63.3679 821.546 Q63.3679 818.97 60.9847 816.2 Q58.5048 813.333 56.3792 812.85 L43.7867 809.662 Q43.0138 809.469 42.7884 809.469 Z" fill="#000000" fill-rule="evenodd" fill-opacity="1" /><path clip-path="url(#clip510)" d="M80.3726 803.199 Q80.0505 803.199 79.342 802.941 L17.1203 779.657 Q17.0559 779.657 16.7016 779.496 Q16.3473 779.335 16.1219 779.238 Q15.8643 779.141 15.671 778.948 Q15.4778 778.723 15.4778 778.465 Q15.4778 777.821 16.2829 777.821 Q16.3473 777.821 17.1203 778.014 L79.4064 801.363 Q80.5336 801.75 80.8557 802.007 Q81.1777 802.233 81.1777 802.619 Q81.1777 803.199 80.3726 803.199 Z" fill="#000000" fill-rule="evenodd" fill-opacity="1" /><path clip-path="url(#clip510)" d="M55.3809 716.494 Q55.6385 716.494 56.6369 716.784 Q57.6353 717.074 59.1811 717.782 Q60.727 718.458 62.1441 719.425 Q63.5289 720.359 64.5595 721.904 Q65.5579 723.418 65.5579 725.157 Q65.5579 727.476 64.012 729.022 Q62.4661 730.568 60.1473 730.568 Q58.8913 730.568 56.5081 729.698 Q45.6225 725.608 41.7256 725.608 Q37.1201 725.608 37.1201 729.183 Q37.1201 731.212 37.9575 733.048 Q38.7948 734.883 39.9542 736.075 Q41.1137 737.267 42.4341 738.201 Q43.7545 739.135 44.6241 739.553 Q45.4937 739.94 45.8801 740.036 L61.7898 743.998 Q63.1425 744.32 63.7866 744.545 Q64.4307 744.771 64.9782 745.383 Q65.5579 745.994 65.5579 746.961 Q65.5579 747.766 65.0748 748.345 Q64.5917 748.893 63.7544 748.893 Q63.6256 748.893 62.9492 748.732 Q62.2729 748.571 61.3389 748.345 Q60.405 748.12 59.8575 748.023 Q55.4775 746.864 54.8656 746.703 L47.2006 744.867 Q43.4003 743.869 41.7256 743.869 Q37.1201 743.869 37.1201 747.444 Q37.1201 749.215 37.7965 750.89 Q38.4406 752.532 39.3423 753.659 Q40.2441 754.787 41.5001 755.817 Q42.7239 756.816 43.5613 757.331 Q44.3664 757.814 45.1716 758.2 L48.4566 759.038 Q49.3584 759.231 52.8688 760.165 L58.8269 761.614 Q63.2713 762.645 63.69 762.87 Q64.5917 763.192 65.0748 763.901 Q65.5579 764.609 65.5579 765.318 Q65.5579 766.123 65.0748 766.671 Q64.5917 767.218 63.7544 767.218 Q63.6256 767.218 63.1425 767.121 Q62.6594 767.025 61.9831 766.864 Q61.3067 766.703 60.9203 766.638 L45.6869 762.806 Q42.9172 762.097 42.0476 761.936 Q41.1459 761.743 40.1475 761.743 Q37.1201 761.743 37.1201 763.804 Q37.1201 765.479 39.1169 766.574 Q41.1137 767.669 44.9784 768.603 Q46.0412 768.893 46.2666 769.086 Q46.492 769.247 46.492 769.73 Q46.4598 770.535 45.8157 770.535 Q45.6547 770.535 44.6241 770.278 Q43.5935 770.02 42.0476 769.537 Q40.4695 769.022 39.4389 768.474 Q38.7626 768.152 38.3117 767.862 Q37.8609 767.572 37.1523 766.993 Q36.4438 766.413 36.0573 765.543 Q35.6709 764.674 35.6709 763.611 Q35.6709 761.26 37.1845 759.521 Q38.6982 757.75 41.4035 757.524 Q35.6709 753.241 35.6709 747.25 Q35.6709 743.869 37.3778 741.84 Q39.0203 739.94 42.0476 739.714 Q35.6709 735.27 35.6709 728.958 Q35.6709 725.318 37.571 723.354 Q39.4389 721.389 42.7239 721.389 Q44.4309 721.389 47.6836 722.259 Q50.9042 723.128 52.5145 723.708 Q54.1248 724.288 57.2166 725.415 Q60.1795 726.607 61.9186 726.607 Q63.0458 726.607 63.5611 726.22 Q64.0764 725.834 64.0764 724.996 Q64.0764 723.708 63.3357 722.581 Q62.5628 721.454 61.3067 720.648 Q60.0185 719.811 58.7303 719.264 Q57.4098 718.716 55.9284 718.297 Q55.1232 718.04 54.93 717.911 Q54.7367 717.75 54.7367 717.299 Q54.7367 716.494 55.3809 716.494 Z" fill="#000000" fill-rule="evenodd" fill-opacity="1" /><path clip-path="url(#clip510)" d="M37.8515 709.98 Q36.4764 709.98 35.8226 709.191 Q35.1688 708.402 35.1688 707.388 Q35.1688 706.328 35.8677 705.584 Q36.544 704.818 37.7388 704.818 Q39.0238 704.818 39.7453 705.719 Q40.4667 706.599 40.2863 707.861 Q42.1349 706.757 42.9691 704.728 Q43.8032 702.676 43.8032 700.782 Q43.8032 698.798 42.0898 697.198 Q40.3765 695.575 36.1833 695.575 Q32.6213 695.575 30.5698 696.972 Q28.5183 698.348 28.5183 701.075 L28.5183 703.104 Q28.5183 703.803 28.4507 704.006 Q28.383 704.209 27.9998 704.209 Q27.5489 704.209 27.4587 703.51 Q27.4587 702.811 27.3234 701.707 Q27.2333 699.024 24.9112 697.604 Q22.747 696.319 19.6585 696.319 Q16.8404 696.319 15.6681 697.671 Q14.4733 699.001 14.4733 700.737 Q14.4733 702.36 15.1496 704.141 Q15.826 705.922 17.3364 706.892 Q17.3364 704.029 19.6585 704.029 Q20.6729 704.029 21.3493 704.682 Q22.003 705.314 22.003 706.373 Q22.003 707.388 21.3718 708.064 Q20.718 708.74 19.6134 708.74 Q16.9757 708.74 15.1496 706.396 Q13.3236 704.029 13.3236 700.557 Q13.3236 697.13 15.1271 694.605 Q16.9306 692.058 19.7035 692.058 Q22.4314 692.058 24.6632 693.861 Q26.8951 695.665 27.8194 698.528 Q28.5183 695.011 30.908 692.914 Q33.2751 690.818 36.1833 690.818 Q39.7903 690.818 42.4505 693.658 Q45.0882 696.499 45.0882 700.647 Q45.0882 704.48 43.0141 707.23 Q40.9401 709.98 37.8515 709.98 Z" fill="#000000" fill-rule="evenodd" fill-opacity="1" /><path clip-path="url(#clip510)" d="M79.7929 680.076 L79.7929 674.536 L16.8626 674.536 L16.8626 680.076 L15.349 680.076 L15.349 670.124 L81.3066 670.124 L81.3066 680.076 L79.7929 680.076 Z" fill="#000000" fill-rule="evenodd" fill-opacity="1" /><polyline clip-path="url(#clip513)" style="stroke:#009af9; stroke-linecap:round; stroke-linejoin:round; stroke-width:12; stroke-opacity:1; fill:none" points="335.956,95.0339 339.922,95.0007 344.643,94.9858 349.365,94.9966 354.086,95.0323 358.807,95.0922 363.529,95.1755 368.25,95.2816 372.972,95.4097 377.693,95.5592 382.415,95.7296 387.136,95.9203 391.858,96.1307 396.579,96.3604 401.301,96.609 406.022,96.8758 410.744,97.1606 415.465,97.4629 420.186,97.7823 424.908,98.1184 429.629,98.471 434.351,98.8396 439.072,99.2239 443.794,99.6237 448.515,100.039 453.237,100.468 457.958,100.913 462.68,101.371 467.401,101.844 472.123,102.33 476.844,102.83 481.565,103.344 486.287,103.87 491.008,104.41 495.73,104.962 500.451,105.527 505.173,106.104 509.894,106.694 514.616,107.295 519.337,107.908 524.059,108.533 528.78,109.17 533.502,109.818 538.223,110.477 542.944,111.147 547.666,111.828 552.387,112.52 557.109,113.223 561.83,113.936 566.552,114.66 571.273,115.394 575.995,116.138 580.716,116.892 585.438,117.656 590.159,118.431 594.881,119.215 599.602,120.008 604.323,120.811 609.045,121.624 613.766,122.446 618.488,123.278 623.209,124.118 627.931,124.968 632.652,125.827 637.374,126.695 642.095,127.572 646.817,128.457 651.538,129.352 656.26,130.255 660.981,131.166 665.702,132.086 670.424,133.015 675.145,133.952 679.867,134.897 684.588,135.851 689.31,136.813 694.031,137.783 698.753,138.761 703.474,139.747 708.196,140.741 712.917,141.743 717.638,142.753 722.36,143.771 727.081,144.797 731.803,145.83 736.524,146.871 741.246,147.92 745.967,148.977 750.689,150.041 755.41,151.112 760.132,152.191 764.853,153.278 769.575,154.372 774.296,155.473 779.017,156.582 783.739,157.698 788.46,158.821 793.182,159.951 797.903,161.089 802.625,162.234 807.346,163.386 812.068,164.545 816.789,165.712 821.511,166.885 826.232,168.066 830.954,169.253 835.675,170.448 840.396,171.649 845.118,172.858 849.839,174.073 854.561,175.296 859.282,176.525 864.004,177.761 868.725,179.005 873.447,180.255 878.168,181.511 882.89,182.775 887.611,184.046 892.333,185.323 897.054,186.607 901.775,187.898 906.497,189.196 911.218,190.5 915.94,191.812 920.661,193.13 925.383,194.454 930.104,195.786 934.826,197.124 939.547,198.469 944.269,199.821 948.99,201.18 953.712,202.545 958.433,203.917 963.154,205.296 967.876,206.681 972.597,208.073 977.319,209.472 982.04,210.878 986.762,212.29 991.483,213.71 996.205,215.136 1000.93,216.568 1005.65,218.008 1010.37,219.454 1015.09,220.907 1019.81,222.367 1024.53,223.833 1029.25,225.307 1033.98,226.787 1038.7,228.274 1043.42,229.768 1048.14,231.269 1052.86,232.777 1057.58,234.291 1062.31,235.813 1067.03,237.341 1071.75,238.877 1076.47,240.419 1081.19,241.968 1085.91,243.525 1090.63,245.088 1095.36,246.659 1100.08,248.236 1104.8,249.821 1109.52,251.413 1114.24,253.011 1118.96,254.617 1123.68,256.231 1128.41,257.851 1133.13,259.479 1137.85,261.114 1142.57,262.756 1147.29,264.406 1152.01,266.063 1156.73,267.728 1161.46,269.4 1166.18,271.079 1170.9,272.766 1175.62,274.461 1180.34,276.163 1185.06,277.873 1189.78,279.59 1194.51,281.315 1199.23,283.048 1203.95,284.789 1208.67,286.538 1213.39,288.294 1218.11,290.059 1222.83,291.831 1227.56,293.612 1232.28,295.401 1237,297.197 1241.72,299.002 1246.44,300.816 1251.16,302.637 1255.89,304.467 1260.61,306.305 1265.33,308.152 1270.05,310.008 1274.77,311.872 1279.49,313.744 1284.21,315.626 1288.94,317.516 1293.66,319.415 1298.38,321.323 1303.1,323.24 1307.82,325.167 1312.54,327.102 1317.26,329.046 1321.99,331 1326.71,332.964 1331.43,334.936 1336.15,336.919 1340.87,338.911 1345.59,340.912 1350.31,342.924 1355.04,344.946 1359.76,346.977 1364.48,349.019 1369.2,351.07 1373.92,353.132 1378.64,355.205 1383.36,357.288 1388.09,359.381 1392.81,361.486 1397.53,363.601 1402.25,365.727 1406.97,367.864 1411.69,370.013 1416.41,372.172 1421.14,374.343 1425.86,376.526 1430.58,378.72 1435.3,380.926 1440.02,383.144 1444.74,385.375 1449.46,387.617 1454.19,389.872 1458.91,392.139 1463.63,394.419 1468.35,396.712 1473.07,399.018 1477.79,401.337 1482.52,403.67 1487.24,406.016 1491.96,408.376 1496.68,410.749 1501.4,413.137 1506.12,415.539 1510.84,417.956 1515.57,420.387 1520.29,422.833 1525.01,425.294 1529.73,427.771 1534.45,430.263 1539.17,432.771 1543.89,435.295 1548.62,437.836 1553.34,440.393 1558.06,442.966 1562.78,445.557 1567.5,448.166 1572.22,450.792 1576.94,453.436 1581.67,456.099 1586.39,458.78 1591.11,461.48 1595.83,464.199 1600.55,466.938 1605.27,469.697 1609.99,472.477 1614.72,475.278 1619.44,478.099 1624.16,480.943 1628.88,483.808 1633.6,486.697 1638.32,489.608 1643.04,492.543 1647.77,495.502 1652.49,498.485 1657.21,501.494 1661.93,504.529 1666.65,507.589 1671.37,510.677 1676.1,513.793 1680.82,516.937 1685.54,520.11 1690.26,523.313 1694.98,526.547 1699.7,529.812 1704.42,533.11 1709.15,536.441 1713.87,539.806 1718.59,543.206 1723.31,546.642 1728.03,550.116 1732.75,553.629 1737.47,557.181 1742.2,560.774 1746.92,564.41 1751.64,568.09 1756.36,571.815 1761.08,575.587 1765.8,579.407 1770.52,583.279 1775.25,587.202 1779.97,591.18 1784.69,595.214 1789.41,599.308 1794.13,603.462 1798.85,607.681 1803.57,611.966 1808.3,1648.63 1813.02,1649.35 1817.74,1650.04 1822.46,1650.71 1827.18,1651.36 1831.9,1651.98 1836.62,1652.58 1841.35,1653.17 1846.07,1653.73 1850.79,1654.28 1855.51,1654.82 1860.23,1655.34 1864.95,1655.84 1869.67,1656.34 1874.4,1656.82 1879.12,1657.29 1883.84,1657.74 1888.56,1658.19 1893.28,1658.63 1898,1659.06 1902.73,1659.47 1907.45,1659.88 1912.17,1660.28 1916.89,1660.67 1921.61,1661.06 1926.33,1661.44 1931.05,1661.81 1935.78,1662.17 1940.5,1662.52 1945.22,1662.87 1949.94,1663.22 1954.66,1663.55 1959.38,1663.89 1964.1,1664.21 1968.83,1664.53 1973.55,1664.85 1978.27,1665.16 1982.99,1665.46 1987.71,1665.76 1992.43,1666.06 1997.15,1666.35 2001.88,1666.64 2006.6,1666.92 2011.32,1667.2 2016.04,1667.47 2020.76,1667.74 2025.48,1668.01 2030.2,1668.28 2034.93,1668.53 2039.65,1668.79 2044.37,1669.04 2049.09,1669.29 2053.81,1669.54 2058.53,1669.78 2063.25,1670.02 2067.98,1670.26 2072.7,1670.5 2077.42,1670.73 2082.14,1670.96 2086.86,1671.18 2091.58,1671.41 2096.31,1671.63 2101.03,1671.85 2105.75,1672.06 2110.47,1672.28 2115.19,1672.49 2119.91,1672.7 2124.63,1672.9 2129.36,1673.11 2134.08,1673.31 2138.8,1673.51 2143.52,1673.71 2148.24,1673.91 2152.96,1674.1 2157.68,1674.29 2162.41,1674.48 2167.13,1674.67 2171.85,1674.86 2176.57,1675.04 2181.29,1675.23 2186.01,1675.41 2190.73,1675.59 2195.46,1675.77 2200.18,1675.94 2204.9,1676.12 2209.62,1676.29 2214.34,1676.46 2219.06,1676.63 2223.78,1676.8 2228.51,1676.97 2233.23,1677.13 2237.95,1677.3 2242.67,1677.46 2247.39,1677.62 2252.11,1677.78 2256.83,1677.94 2261.56,1678.1 2266.28,1678.26 2271,1678.41 2275.72,1678.57 2280.44,1678.72 2285.16,1678.87 2289.88,1679.02 2294.61,1679.17 2299.33,1679.32 2304.05,1679.46 2308.77,1679.61 2313.49,1679.75 2318.21,1679.9 2322.94,1680.04 2327.66,1680.18 2332.38,1680.32 2337.1,1680.46 2341.82,1680.6 2346.54,1680.73 2351.26,1680.87 2355.99,1681.01 2360.71,1681.14 2365.43,1681.27 2370.15,1681.41 2374.87,1681.54 2379.59,1681.67 2384.31,1681.8 2389.04,1681.93 2393.76,1682.05 2398.48,1682.18 2403.2,1682.31 2407.92,1682.43 2412.64,1682.56 2417.36,1682.68 2422.09,1682.8 2426.81,1682.93 2431.53,1683.05 2436.25,1683.17 2440.97,1683.29 2445.69,1683.41 2450.41,1683.52 2455.14,1683.64 2459.86,1683.76 2464.58,1683.88 2469.3,1683.99 2474.02,1684.11 2478.74,1684.22 2483.46,1684.33 2488.19,1684.45 2492.91,1684.56 2497.63,1684.67 2502.35,1684.78 2507.07,1684.89 2511.79,1685 2516.52,1685.11 2521.24,1685.22 2525.96,1685.32 2530.68,1685.43 2535.4,1685.54 2540.12,1685.64 2544.84,1685.75 2549.57,1685.85 2554.29,1685.96 2559.01,1686.06 2563.73,1686.16 2568.45,1686.26 2573.17,1686.37 2573.63,1686.38 "/>
<circle clip-path="url(#clip513)" cx="2573.63" cy="1686.38" r="14.4" fill="#e26f46" fill-rule="evenodd" fill-opacity="1" stroke="#000000" stroke-opacity="1" stroke-width="3.84"/>
<path clip-path="url(#clip510)" d="M347.89 1677.89 L883.067 1677.89 L883.067 1522.37 L347.89 1522.37  Z" fill="#ffffff" fill-rule="evenodd" fill-opacity="1"/>
<polyline clip-path="url(#clip510)" style="stroke:#000000; stroke-linecap:round; stroke-linejoin:round; stroke-width:4; stroke-opacity:1; fill:none" points="347.89,1677.89 883.067,1677.89 883.067,1522.37 347.89,1522.37 347.89,1677.89 "/>
<polyline clip-path="url(#clip510)" style="stroke:#009af9; stroke-linecap:round; stroke-linejoin:round; stroke-width:12; stroke-opacity:1; fill:none" points="374.245,1574.21 532.373,1574.21 "/>
<path clip-path="url(#clip510)" d="M563.404 1560.77 L563.404 1587.65 L569.052 1587.65 Q576.205 1587.65 579.515 1584.4 Q582.848 1581.16 582.848 1574.17 Q582.848 1567.23 579.515 1564.01 Q576.205 1560.77 569.052 1560.77 L563.404 1560.77 M558.728 1556.93 L568.335 1556.93 Q578.381 1556.93 583.08 1561.12 Q587.779 1565.28 587.779 1574.17 Q587.779 1583.11 583.057 1587.3 Q578.334 1591.49 568.335 1591.49 L558.728 1591.49 L558.728 1556.93 Z" fill="#000000" fill-rule="evenodd" fill-opacity="1" /><path clip-path="url(#clip510)" d="M617.223 1577.46 L617.223 1579.54 L597.64 1579.54 Q597.918 1583.94 600.279 1586.26 Q602.663 1588.55 606.899 1588.55 Q609.353 1588.55 611.644 1587.95 Q613.959 1587.34 616.228 1586.14 L616.228 1590.17 Q613.936 1591.14 611.529 1591.65 Q609.121 1592.16 606.645 1592.16 Q600.441 1592.16 596.807 1588.55 Q593.196 1584.94 593.196 1578.78 Q593.196 1572.41 596.621 1568.69 Q600.07 1564.94 605.904 1564.94 Q611.135 1564.94 614.168 1568.32 Q617.223 1571.67 617.223 1577.46 M612.964 1576.21 Q612.918 1572.71 610.996 1570.63 Q609.098 1568.55 605.95 1568.55 Q602.385 1568.55 600.233 1570.56 Q598.103 1572.58 597.779 1576.23 L612.964 1576.21 Z" fill="#000000" fill-rule="evenodd" fill-opacity="1" /><path clip-path="url(#clip510)" d="M645.765 1575.84 L645.765 1591.49 L641.505 1591.49 L641.505 1575.98 Q641.505 1572.3 640.07 1570.47 Q638.635 1568.64 635.765 1568.64 Q632.316 1568.64 630.325 1570.84 Q628.334 1573.04 628.334 1576.84 L628.334 1591.49 L624.052 1591.49 L624.052 1565.56 L628.334 1565.56 L628.334 1569.59 Q629.862 1567.25 631.922 1566.09 Q634.005 1564.94 636.714 1564.94 Q641.181 1564.94 643.473 1567.71 Q645.765 1570.47 645.765 1575.84 Z" fill="#000000" fill-rule="evenodd" fill-opacity="1" /><path clip-path="url(#clip510)" d="M670.788 1566.33 L670.788 1570.35 Q668.982 1569.43 667.038 1568.96 Q665.093 1568.5 663.01 1568.5 Q659.839 1568.5 658.241 1569.47 Q656.667 1570.45 656.667 1572.39 Q656.667 1573.87 657.802 1574.73 Q658.936 1575.56 662.362 1576.33 L663.82 1576.65 Q668.357 1577.62 670.255 1579.4 Q672.177 1581.16 672.177 1584.34 Q672.177 1587.95 669.306 1590.05 Q666.459 1592.16 661.459 1592.16 Q659.376 1592.16 657.107 1591.74 Q654.862 1591.35 652.362 1590.54 L652.362 1586.14 Q654.723 1587.37 657.015 1587.99 Q659.306 1588.59 661.552 1588.59 Q664.561 1588.59 666.181 1587.58 Q667.802 1586.53 667.802 1584.66 Q667.802 1582.92 666.621 1582 Q665.464 1581.07 661.505 1580.21 L660.024 1579.87 Q656.066 1579.03 654.306 1577.32 Q652.547 1575.59 652.547 1572.58 Q652.547 1568.92 655.14 1566.93 Q657.732 1564.94 662.501 1564.94 Q664.862 1564.94 666.945 1565.28 Q669.028 1565.63 670.788 1566.33 Z" fill="#000000" fill-rule="evenodd" fill-opacity="1" /><path clip-path="url(#clip510)" d="M678.959 1565.56 L683.218 1565.56 L683.218 1591.49 L678.959 1591.49 L678.959 1565.56 M678.959 1555.47 L683.218 1555.47 L683.218 1560.86 L678.959 1560.86 L678.959 1555.47 Z" fill="#000000" fill-rule="evenodd" fill-opacity="1" /><path clip-path="url(#clip510)" d="M696.343 1558.2 L696.343 1565.56 L705.116 1565.56 L705.116 1568.87 L696.343 1568.87 L696.343 1582.95 Q696.343 1586.12 697.2 1587.02 Q698.079 1587.92 700.741 1587.92 L705.116 1587.92 L705.116 1591.49 L700.741 1591.49 Q695.811 1591.49 693.936 1589.66 Q692.061 1587.81 692.061 1582.95 L692.061 1568.87 L688.936 1568.87 L688.936 1565.56 L692.061 1565.56 L692.061 1558.2 L696.343 1558.2 Z" fill="#000000" fill-rule="evenodd" fill-opacity="1" /><path clip-path="url(#clip510)" d="M721.505 1593.9 Q719.699 1598.52 717.987 1599.94 Q716.274 1601.35 713.403 1601.35 L710 1601.35 L710 1597.78 L712.5 1597.78 Q714.26 1597.78 715.232 1596.95 Q716.204 1596.12 717.385 1593.02 L718.149 1591.07 L707.662 1565.56 L712.176 1565.56 L720.278 1585.84 L728.38 1565.56 L732.894 1565.56 L721.505 1593.9 Z" fill="#000000" fill-rule="evenodd" fill-opacity="1" /><circle clip-path="url(#clip510)" cx="453.309" cy="1626.05" r="23.04" fill="#e26f46" fill-rule="evenodd" fill-opacity="1" stroke="#000000" stroke-opacity="1" stroke-width="6.144"/>
<path clip-path="url(#clip510)" d="M586.598 1611.43 L586.598 1616.36 Q584.237 1614.16 581.552 1613.07 Q578.89 1611.99 575.881 1611.99 Q569.955 1611.99 566.807 1615.62 Q563.659 1619.23 563.659 1626.08 Q563.659 1632.91 566.807 1636.55 Q569.955 1640.16 575.881 1640.16 Q578.89 1640.16 581.552 1639.07 Q584.237 1637.98 586.598 1635.78 L586.598 1640.67 Q584.145 1642.33 581.39 1643.17 Q578.659 1644 575.603 1644 Q567.756 1644 563.242 1639.21 Q558.728 1634.39 558.728 1626.08 Q558.728 1617.75 563.242 1612.96 Q567.756 1608.14 575.603 1608.14 Q578.705 1608.14 581.436 1608.98 Q584.191 1609.79 586.598 1611.43 Z" fill="#000000" fill-rule="evenodd" fill-opacity="1" /><path clip-path="url(#clip510)" d="M608.658 1621.38 Q607.941 1620.97 607.084 1620.78 Q606.251 1620.57 605.232 1620.57 Q601.621 1620.57 599.677 1622.93 Q597.756 1625.27 597.756 1629.67 L597.756 1643.33 L593.473 1643.33 L593.473 1617.4 L597.756 1617.4 L597.756 1621.43 Q599.098 1619.07 601.251 1617.93 Q603.404 1616.78 606.482 1616.78 Q606.922 1616.78 607.455 1616.85 Q607.987 1616.89 608.635 1617.01 L608.658 1621.38 Z" fill="#000000" fill-rule="evenodd" fill-opacity="1" /><path clip-path="url(#clip510)" d="M613.126 1617.4 L617.385 1617.4 L617.385 1643.33 L613.126 1643.33 L613.126 1617.4 M613.126 1607.31 L617.385 1607.31 L617.385 1612.7 L613.126 1612.7 L613.126 1607.31 Z" fill="#000000" fill-rule="evenodd" fill-opacity="1" /><path clip-path="url(#clip510)" d="M630.51 1610.04 L630.51 1617.4 L639.283 1617.4 L639.283 1620.71 L630.51 1620.71 L630.51 1634.79 Q630.51 1637.96 631.367 1638.86 Q632.246 1639.76 634.908 1639.76 L639.283 1639.76 L639.283 1643.33 L634.908 1643.33 Q629.978 1643.33 628.103 1641.5 Q626.228 1639.65 626.228 1634.79 L626.228 1620.71 L623.103 1620.71 L623.103 1617.4 L626.228 1617.4 L626.228 1610.04 L630.51 1610.04 Z" fill="#000000" fill-rule="evenodd" fill-opacity="1" /><path clip-path="url(#clip510)" d="M644.885 1617.4 L649.144 1617.4 L649.144 1643.33 L644.885 1643.33 L644.885 1617.4 M644.885 1607.31 L649.144 1607.31 L649.144 1612.7 L644.885 1612.7 L644.885 1607.31 Z" fill="#000000" fill-rule="evenodd" fill-opacity="1" /><path clip-path="url(#clip510)" d="M676.714 1618.4 L676.714 1622.38 Q674.908 1621.38 673.079 1620.9 Q671.274 1620.39 669.422 1620.39 Q665.278 1620.39 662.987 1623.03 Q660.695 1625.64 660.695 1630.39 Q660.695 1635.13 662.987 1637.77 Q665.278 1640.39 669.422 1640.39 Q671.274 1640.39 673.079 1639.9 Q674.908 1639.39 676.714 1638.4 L676.714 1642.33 Q674.931 1643.17 673.01 1643.58 Q671.112 1644 668.959 1644 Q663.103 1644 659.653 1640.32 Q656.204 1636.64 656.204 1630.39 Q656.204 1624.05 659.677 1620.41 Q663.172 1616.78 669.237 1616.78 Q671.204 1616.78 673.079 1617.19 Q674.954 1617.59 676.714 1618.4 Z" fill="#000000" fill-rule="evenodd" fill-opacity="1" /><path clip-path="url(#clip510)" d="M695.903 1630.3 Q690.741 1630.3 688.751 1631.48 Q686.76 1632.66 686.76 1635.5 Q686.76 1637.77 688.241 1639.11 Q689.746 1640.43 692.315 1640.43 Q695.857 1640.43 697.987 1637.93 Q700.139 1635.41 700.139 1631.24 L700.139 1630.3 L695.903 1630.3 M704.399 1628.54 L704.399 1643.33 L700.139 1643.33 L700.139 1639.39 Q698.681 1641.75 696.505 1642.89 Q694.329 1644 691.181 1644 Q687.2 1644 684.839 1641.78 Q682.501 1639.53 682.501 1635.78 Q682.501 1631.41 685.417 1629.18 Q688.357 1626.96 694.167 1626.96 L700.139 1626.96 L700.139 1626.55 Q700.139 1623.61 698.195 1622.01 Q696.274 1620.39 692.778 1620.39 Q690.556 1620.39 688.45 1620.92 Q686.343 1621.45 684.399 1622.52 L684.399 1618.58 Q686.737 1617.68 688.936 1617.24 Q691.135 1616.78 693.218 1616.78 Q698.843 1616.78 701.621 1619.69 Q704.399 1622.61 704.399 1628.54 Z" fill="#000000" fill-rule="evenodd" fill-opacity="1" /><path clip-path="url(#clip510)" d="M713.172 1607.31 L717.431 1607.31 L717.431 1643.33 L713.172 1643.33 L713.172 1607.31 Z" fill="#000000" fill-rule="evenodd" fill-opacity="1" /><path clip-path="url(#clip510)" d="M745.533 1639.44 L745.533 1653.19 L741.25 1653.19 L741.25 1617.4 L745.533 1617.4 L745.533 1621.34 Q746.875 1619.02 748.912 1617.91 Q750.972 1616.78 753.82 1616.78 Q758.542 1616.78 761.482 1620.53 Q764.445 1624.28 764.445 1630.39 Q764.445 1636.5 761.482 1640.25 Q758.542 1644 753.82 1644 Q750.972 1644 748.912 1642.89 Q746.875 1641.75 745.533 1639.44 M760.023 1630.39 Q760.023 1625.69 758.079 1623.03 Q756.158 1620.34 752.778 1620.34 Q749.398 1620.34 747.454 1623.03 Q745.533 1625.69 745.533 1630.39 Q745.533 1635.09 747.454 1637.77 Q749.398 1640.43 752.778 1640.43 Q756.158 1640.43 758.079 1637.77 Q760.023 1635.09 760.023 1630.39 Z" fill="#000000" fill-rule="evenodd" fill-opacity="1" /><path clip-path="url(#clip510)" d="M781.551 1620.39 Q778.125 1620.39 776.134 1623.07 Q774.144 1625.74 774.144 1630.39 Q774.144 1635.04 776.111 1637.73 Q778.102 1640.39 781.551 1640.39 Q784.954 1640.39 786.944 1637.7 Q788.935 1635.02 788.935 1630.39 Q788.935 1625.78 786.944 1623.1 Q784.954 1620.39 781.551 1620.39 M781.551 1616.78 Q787.107 1616.78 790.278 1620.39 Q793.449 1624 793.449 1630.39 Q793.449 1636.75 790.278 1640.39 Q787.107 1644 781.551 1644 Q775.972 1644 772.801 1640.39 Q769.653 1636.75 769.653 1630.39 Q769.653 1624 772.801 1620.39 Q775.972 1616.78 781.551 1616.78 Z" fill="#000000" fill-rule="evenodd" fill-opacity="1" /><path clip-path="url(#clip510)" d="M800.509 1617.4 L804.768 1617.4 L804.768 1643.33 L800.509 1643.33 L800.509 1617.4 M800.509 1607.31 L804.768 1607.31 L804.768 1612.7 L800.509 1612.7 L800.509 1607.31 Z" fill="#000000" fill-rule="evenodd" fill-opacity="1" /><path clip-path="url(#clip510)" d="M835.231 1627.68 L835.231 1643.33 L830.972 1643.33 L830.972 1627.82 Q830.972 1624.14 829.537 1622.31 Q828.102 1620.48 825.231 1620.48 Q821.782 1620.48 819.792 1622.68 Q817.801 1624.88 817.801 1628.68 L817.801 1643.33 L813.518 1643.33 L813.518 1617.4 L817.801 1617.4 L817.801 1621.43 Q819.329 1619.09 821.389 1617.93 Q823.472 1616.78 826.18 1616.78 Q830.648 1616.78 832.94 1619.55 Q835.231 1622.31 835.231 1627.68 Z" fill="#000000" fill-rule="evenodd" fill-opacity="1" /><path clip-path="url(#clip510)" d="M847.94 1610.04 L847.94 1617.4 L856.713 1617.4 L856.713 1620.71 L847.94 1620.71 L847.94 1634.79 Q847.94 1637.96 848.796 1638.86 Q849.676 1639.76 852.338 1639.76 L856.713 1639.76 L856.713 1643.33 L852.338 1643.33 Q847.407 1643.33 845.532 1641.5 Q843.657 1639.65 843.657 1634.79 L843.657 1620.71 L840.532 1620.71 L840.532 1617.4 L843.657 1617.4 L843.657 1610.04 L847.94 1610.04 Z" fill="#000000" fill-rule="evenodd" fill-opacity="1" /></svg>
