<?xml version="1.0" encoding="utf-8"?>
<svg xmlns="http://www.w3.org/2000/svg" xmlns:xlink="http://www.w3.org/1999/xlink" width="672" height="480" viewBox="0 0 2688 1920">
<defs>
  <clipPath id="clip790">
    <rect x="0" y="0" width="2688" height="1920"/>
  </clipPath>
</defs>
<path clip-path="url(#clip790)" d="M0 1920 L2688 1920 L2688 0 L0 0  Z" fill="#ffffff" fill-rule="evenodd" fill-opacity="1"/>
<defs>
  <clipPath id="clip791">
    <rect x="537" y="0" width="1883" height="1883"/>
  </clipPath>
</defs>
<path clip-path="url(#clip790)" d="M210.238 1734.12 L2640.76 1734.12 L2640.76 47.2441 L210.238 47.2441  Z" fill="#ffffff" fill-rule="evenodd" fill-opacity="1"/>
<defs>
  <clipPath id="clip792">
    <rect x="210" y="47" width="2432" height="1688"/>
  </clipPath>
</defs>
<polyline clip-path="url(#clip792)" style="stroke:#000000; stroke-linecap:round; stroke-linejoin:round; stroke-width:2; stroke-opacity:0.1; fill:none" points="443.607,1734.12 443.607,47.2441 "/>
<polyline clip-path="url(#clip792)" style="stroke:#000000; stroke-linecap:round; stroke-linejoin:round; stroke-width:2; stroke-opacity:0.1; fill:none" points="1056.8,1734.12 1056.8,47.2441 "/>
<polyline clip-path="url(#clip792)" style="stroke:#000000; stroke-linecap:round; stroke-linejoin:round; stroke-width:2; stroke-opacity:0.1; fill:none" points="1669.99,1734.12 1669.99,47.2441 "/>
<polyline clip-path="url(#clip792)" style="stroke:#000000; stroke-linecap:round; stroke-linejoin:round; stroke-width:2; stroke-opacity:0.1; fill:none" points="2283.18,1734.12 2283.18,47.2441 "/>
<polyline clip-path="url(#clip790)" style="stroke:#000000; stroke-linecap:round; stroke-linejoin:round; stroke-width:4; stroke-opacity:1; fill:none" points="210.238,1734.12 2640.76,1734.12 "/>
<polyline clip-path="url(#clip790)" style="stroke:#000000; stroke-linecap:round; stroke-linejoin:round; stroke-width:4; stroke-opacity:1; fill:none" points="443.607,1734.12 443.607,1715.22 "/>
<polyline clip-path="url(#clip790)" style="stroke:#000000; stroke-linecap:round; stroke-linejoin:round; stroke-width:4; stroke-opacity:1; fill:none" points="1056.8,1734.12 1056.8,1715.22 "/>
<polyline clip-path="url(#clip790)" style="stroke:#000000; stroke-linecap:round; stroke-linejoin:round; stroke-width:4; stroke-opacity:1; fill:none" points="1669.99,1734.12 1669.99,1715.22 "/>
<polyline clip-path="url(#clip790)" style="stroke:#000000; stroke-linecap:round; stroke-linejoin:round; stroke-width:4; stroke-opacity:1; fill:none" points="2283.18,1734.12 2283.18,1715.22 "/>
<path clip-path="url(#clip790)" d="M417.368 1780.19 Q420.725 1780.9 422.6 1783.17 Q424.498 1785.44 424.498 1788.77 Q424.498 1793.89 420.979 1796.69 Q417.461 1799.49 410.979 1799.49 Q408.803 1799.49 406.489 1799.05 Q404.197 1798.64 401.743 1797.78 L401.743 1793.27 Q403.688 1794.4 406.003 1794.98 Q408.317 1795.56 410.841 1795.56 Q415.239 1795.56 417.53 1793.82 Q419.845 1792.08 419.845 1788.77 Q419.845 1785.72 417.692 1784.01 Q415.563 1782.27 411.743 1782.27 L407.716 1782.27 L407.716 1778.43 L411.928 1778.43 Q415.378 1778.43 417.206 1777.06 Q419.035 1775.67 419.035 1773.08 Q419.035 1770.42 417.137 1769.01 Q415.262 1767.57 411.743 1767.57 Q409.822 1767.57 407.623 1767.99 Q405.424 1768.4 402.785 1769.28 L402.785 1765.12 Q405.447 1764.38 407.762 1764.01 Q410.1 1763.64 412.16 1763.64 Q417.484 1763.64 420.586 1766.07 Q423.688 1768.47 423.688 1772.59 Q423.688 1775.46 422.044 1777.46 Q420.401 1779.42 417.368 1780.19 Z" fill="#000000" fill-rule="evenodd" fill-opacity="1" /><path clip-path="url(#clip790)" d="M443.363 1767.34 Q439.752 1767.34 437.924 1770.9 Q436.118 1774.45 436.118 1781.58 Q436.118 1788.68 437.924 1792.25 Q439.752 1795.79 443.363 1795.79 Q446.998 1795.79 448.803 1792.25 Q450.632 1788.68 450.632 1781.58 Q450.632 1774.45 448.803 1770.9 Q446.998 1767.34 443.363 1767.34 M443.363 1763.64 Q449.174 1763.64 452.229 1768.24 Q455.308 1772.83 455.308 1781.58 Q455.308 1790.3 452.229 1794.91 Q449.174 1799.49 443.363 1799.49 Q437.553 1799.49 434.475 1794.91 Q431.419 1790.3 431.419 1781.58 Q431.419 1772.83 434.475 1768.24 Q437.553 1763.64 443.363 1763.64 Z" fill="#000000" fill-rule="evenodd" fill-opacity="1" /><path clip-path="url(#clip790)" d="M473.525 1767.34 Q469.914 1767.34 468.086 1770.9 Q466.28 1774.45 466.28 1781.58 Q466.28 1788.68 468.086 1792.25 Q469.914 1795.79 473.525 1795.79 Q477.16 1795.79 478.965 1792.25 Q480.794 1788.68 480.794 1781.58 Q480.794 1774.45 478.965 1770.9 Q477.16 1767.34 473.525 1767.34 M473.525 1763.64 Q479.336 1763.64 482.391 1768.24 Q485.47 1772.83 485.47 1781.58 Q485.47 1790.3 482.391 1794.91 Q479.336 1799.49 473.525 1799.49 Q467.715 1799.49 464.637 1794.91 Q461.581 1790.3 461.581 1781.58 Q461.581 1772.83 464.637 1768.24 Q467.715 1763.64 473.525 1763.64 Z" fill="#000000" fill-rule="evenodd" fill-opacity="1" /><path clip-path="url(#clip790)" d="M1029.89 1768.34 L1018.08 1786.78 L1029.89 1786.78 L1029.89 1768.34 M1028.66 1764.26 L1034.54 1764.26 L1034.54 1786.78 L1039.47 1786.78 L1039.47 1790.67 L1034.54 1790.67 L1034.54 1798.82 L1029.89 1798.82 L1029.89 1790.67 L1014.29 1790.67 L1014.29 1786.16 L1028.66 1764.26 Z" fill="#000000" fill-rule="evenodd" fill-opacity="1" /><path clip-path="url(#clip790)" d="M1057.2 1767.34 Q1053.59 1767.34 1051.76 1770.9 Q1049.96 1774.45 1049.96 1781.58 Q1049.96 1788.68 1051.76 1792.25 Q1053.59 1795.79 1057.2 1795.79 Q1060.84 1795.79 1062.64 1792.25 Q1064.47 1788.68 1064.47 1781.58 Q1064.47 1774.45 1062.64 1770.9 Q1060.84 1767.34 1057.2 1767.34 M1057.2 1763.64 Q1063.01 1763.64 1066.07 1768.24 Q1069.15 1772.83 1069.15 1781.58 Q1069.15 1790.3 1066.07 1794.91 Q1063.01 1799.49 1057.2 1799.49 Q1051.39 1799.49 1048.31 1794.91 Q1045.26 1790.3 1045.26 1781.58 Q1045.26 1772.83 1048.31 1768.24 Q1051.39 1763.64 1057.2 1763.64 Z" fill="#000000" fill-rule="evenodd" fill-opacity="1" /><path clip-path="url(#clip790)" d="M1087.36 1767.34 Q1083.75 1767.34 1081.92 1770.9 Q1080.12 1774.45 1080.12 1781.58 Q1080.12 1788.68 1081.92 1792.25 Q1083.75 1795.79 1087.36 1795.79 Q1091 1795.79 1092.8 1792.25 Q1094.63 1788.68 1094.63 1781.58 Q1094.63 1774.45 1092.8 1770.9 Q1091 1767.34 1087.36 1767.34 M1087.36 1763.64 Q1093.17 1763.64 1096.23 1768.24 Q1099.31 1772.83 1099.31 1781.58 Q1099.31 1790.3 1096.23 1794.91 Q1093.17 1799.49 1087.36 1799.49 Q1081.55 1799.49 1078.48 1794.91 Q1075.42 1790.3 1075.42 1781.58 Q1075.42 1772.83 1078.48 1768.24 Q1081.55 1763.64 1087.36 1763.64 Z" fill="#000000" fill-rule="evenodd" fill-opacity="1" /><path clip-path="url(#clip790)" d="M1629.61 1764.26 L1647.96 1764.26 L1647.96 1768.2 L1633.89 1768.2 L1633.89 1776.67 Q1634.91 1776.32 1635.93 1776.16 Q1636.94 1775.97 1637.96 1775.97 Q1643.75 1775.97 1647.13 1779.15 Q1650.51 1782.32 1650.51 1787.73 Q1650.51 1793.31 1647.04 1796.41 Q1643.56 1799.49 1637.25 1799.49 Q1635.07 1799.49 1632.8 1799.12 Q1630.56 1798.75 1628.15 1798.01 L1628.15 1793.31 Q1630.23 1794.45 1632.45 1795 Q1634.68 1795.56 1637.15 1795.56 Q1641.16 1795.56 1643.5 1793.45 Q1645.83 1791.34 1645.83 1787.73 Q1645.83 1784.12 1643.5 1782.02 Q1641.16 1779.91 1637.15 1779.91 Q1635.28 1779.91 1633.4 1780.33 Q1631.55 1780.74 1629.61 1781.62 L1629.61 1764.26 Z" fill="#000000" fill-rule="evenodd" fill-opacity="1" /><path clip-path="url(#clip790)" d="M1669.72 1767.34 Q1666.11 1767.34 1664.28 1770.9 Q1662.48 1774.45 1662.48 1781.58 Q1662.48 1788.68 1664.28 1792.25 Q1666.11 1795.79 1669.72 1795.79 Q1673.36 1795.79 1675.16 1792.25 Q1676.99 1788.68 1676.99 1781.58 Q1676.99 1774.45 1675.16 1770.9 Q1673.36 1767.34 1669.72 1767.34 M1669.72 1763.64 Q1675.53 1763.64 1678.59 1768.24 Q1681.67 1772.83 1681.67 1781.58 Q1681.67 1790.3 1678.59 1794.91 Q1675.53 1799.49 1669.72 1799.49 Q1663.91 1799.49 1660.83 1794.91 Q1657.78 1790.3 1657.78 1781.58 Q1657.78 1772.83 1660.83 1768.24 Q1663.91 1763.64 1669.72 1763.64 Z" fill="#000000" fill-rule="evenodd" fill-opacity="1" /><path clip-path="url(#clip790)" d="M1699.88 1767.34 Q1696.27 1767.34 1694.44 1770.9 Q1692.64 1774.45 1692.64 1781.58 Q1692.64 1788.68 1694.44 1792.25 Q1696.27 1795.79 1699.88 1795.79 Q1703.52 1795.79 1705.32 1792.25 Q1707.15 1788.68 1707.15 1781.58 Q1707.15 1774.45 1705.32 1770.9 Q1703.52 1767.34 1699.88 1767.34 M1699.88 1763.64 Q1705.69 1763.64 1708.75 1768.24 Q1711.83 1772.83 1711.83 1781.58 Q1711.83 1790.3 1708.75 1794.91 Q1705.69 1799.49 1699.88 1799.49 Q1694.07 1799.49 1691 1794.91 Q1687.94 1790.3 1687.94 1781.58 Q1687.94 1772.83 1691 1768.24 Q1694.07 1763.64 1699.88 1763.64 Z" fill="#000000" fill-rule="evenodd" fill-opacity="1" /><path clip-path="url(#clip790)" d="M2253.5 1779.68 Q2250.36 1779.68 2248.5 1781.83 Q2246.67 1783.98 2246.67 1787.73 Q2246.67 1791.46 2248.5 1793.64 Q2250.36 1795.79 2253.5 1795.79 Q2256.65 1795.79 2258.48 1793.64 Q2260.33 1791.46 2260.33 1787.73 Q2260.33 1783.98 2258.48 1781.83 Q2256.65 1779.68 2253.5 1779.68 M2262.79 1765.02 L2262.79 1769.28 Q2261.03 1768.45 2259.22 1768.01 Q2257.44 1767.57 2255.68 1767.57 Q2251.05 1767.57 2248.6 1770.7 Q2246.17 1773.82 2245.82 1780.14 Q2247.18 1778.13 2249.24 1777.06 Q2251.3 1775.97 2253.78 1775.97 Q2258.99 1775.97 2262 1779.15 Q2265.03 1782.29 2265.03 1787.73 Q2265.03 1793.06 2261.88 1796.27 Q2258.73 1799.49 2253.5 1799.49 Q2247.51 1799.49 2244.34 1794.91 Q2241.17 1790.3 2241.17 1781.58 Q2241.17 1773.38 2245.05 1768.52 Q2248.94 1763.64 2255.49 1763.64 Q2257.25 1763.64 2259.04 1763.98 Q2260.84 1764.33 2262.79 1765.02 Z" fill="#000000" fill-rule="evenodd" fill-opacity="1" /><path clip-path="url(#clip790)" d="M2283.09 1767.34 Q2279.48 1767.34 2277.65 1770.9 Q2275.84 1774.45 2275.84 1781.58 Q2275.84 1788.68 2277.65 1792.25 Q2279.48 1795.79 2283.09 1795.79 Q2286.72 1795.79 2288.53 1792.25 Q2290.36 1788.68 2290.36 1781.58 Q2290.36 1774.45 2288.53 1770.9 Q2286.72 1767.34 2283.09 1767.34 M2283.09 1763.64 Q2288.9 1763.64 2291.95 1768.24 Q2295.03 1772.83 2295.03 1781.58 Q2295.03 1790.3 2291.95 1794.91 Q2288.9 1799.49 2283.09 1799.49 Q2277.28 1799.49 2274.2 1794.91 Q2271.14 1790.3 2271.14 1781.58 Q2271.14 1772.83 2274.2 1768.24 Q2277.28 1763.64 2283.09 1763.64 Z" fill="#000000" fill-rule="evenodd" fill-opacity="1" /><path clip-path="url(#clip790)" d="M2313.25 1767.34 Q2309.64 1767.34 2307.81 1770.9 Q2306 1774.45 2306 1781.58 Q2306 1788.68 2307.81 1792.25 Q2309.64 1795.79 2313.25 1795.79 Q2316.88 1795.79 2318.69 1792.25 Q2320.52 1788.68 2320.52 1781.58 Q2320.52 1774.45 2318.69 1770.9 Q2316.88 1767.34 2313.25 1767.34 M2313.25 1763.64 Q2319.06 1763.64 2322.11 1768.24 Q2325.19 1772.83 2325.19 1781.58 Q2325.19 1790.3 2322.11 1794.91 Q2319.06 1799.49 2313.25 1799.49 Q2307.44 1799.49 2304.36 1794.91 Q2301.3 1790.3 2301.3 1781.58 Q2301.3 1772.83 2304.36 1768.24 Q2307.44 1763.64 2313.25 1763.64 Z" fill="#000000" fill-rule="evenodd" fill-opacity="1" /><path clip-path="url(#clip790)" d="M1146.9 1835.78 L1187.1 1835.78 L1187.1 1841.19 L1170.23 1841.19 L1170.23 1883.3 L1163.77 1883.3 L1163.77 1841.19 L1146.9 1841.19 L1146.9 1835.78 Z" fill="#000000" fill-rule="evenodd" fill-opacity="1" /><path clip-path="url(#clip790)" d="M1212.47 1864.01 L1212.47 1866.88 L1185.54 1866.88 Q1185.92 1872.92 1189.17 1876.11 Q1192.45 1879.26 1198.27 1879.26 Q1201.65 1879.26 1204.8 1878.43 Q1207.98 1877.6 1211.1 1875.95 L1211.1 1881.49 Q1207.95 1882.82 1204.64 1883.52 Q1201.33 1884.22 1197.92 1884.22 Q1189.39 1884.22 1184.4 1879.26 Q1179.43 1874.29 1179.43 1865.83 Q1179.43 1857.07 1184.14 1851.95 Q1188.88 1846.79 1196.9 1846.79 Q1204.1 1846.79 1208.27 1851.44 Q1212.47 1856.06 1212.47 1864.01 M1206.61 1862.29 Q1206.55 1857.49 1203.91 1854.62 Q1201.3 1851.76 1196.97 1851.76 Q1192.07 1851.76 1189.11 1854.53 Q1186.18 1857.3 1185.73 1862.33 L1206.61 1862.29 Z" fill="#000000" fill-rule="evenodd" fill-opacity="1" /><path clip-path="url(#clip790)" d="M1249.84 1854.5 Q1252.03 1850.55 1255.09 1848.67 Q1258.14 1846.79 1262.28 1846.79 Q1267.85 1846.79 1270.87 1850.71 Q1273.9 1854.59 1273.9 1861.78 L1273.9 1883.3 L1268.01 1883.3 L1268.01 1861.98 Q1268.01 1856.85 1266.2 1854.37 Q1264.38 1851.89 1260.66 1851.89 Q1256.11 1851.89 1253.46 1854.91 Q1250.82 1857.93 1250.82 1863.15 L1250.82 1883.3 L1244.93 1883.3 L1244.93 1861.98 Q1244.93 1856.82 1243.12 1854.37 Q1241.31 1851.89 1237.52 1851.89 Q1233.03 1851.89 1230.39 1854.94 Q1227.75 1857.97 1227.75 1863.15 L1227.75 1883.3 L1221.86 1883.3 L1221.86 1847.65 L1227.75 1847.65 L1227.75 1853.19 Q1229.75 1849.91 1232.55 1848.35 Q1235.35 1846.79 1239.2 1846.79 Q1243.09 1846.79 1245.79 1848.77 Q1248.53 1850.74 1249.84 1854.5 Z" fill="#000000" fill-rule="evenodd" fill-opacity="1" /><path clip-path="url(#clip790)" d="M1291.24 1877.95 L1291.24 1896.86 L1285.36 1896.86 L1285.36 1847.65 L1291.24 1847.65 L1291.24 1853.06 Q1293.09 1849.88 1295.89 1848.35 Q1298.72 1846.79 1302.64 1846.79 Q1309.13 1846.79 1313.17 1851.95 Q1317.25 1857.11 1317.25 1865.51 Q1317.25 1873.91 1313.17 1879.07 Q1309.13 1884.22 1302.64 1884.22 Q1298.72 1884.22 1295.89 1882.7 Q1293.09 1881.14 1291.24 1877.95 M1311.17 1865.51 Q1311.17 1859.05 1308.5 1855.39 Q1305.85 1851.7 1301.21 1851.7 Q1296.56 1851.7 1293.89 1855.39 Q1291.24 1859.05 1291.24 1865.51 Q1291.24 1871.97 1293.89 1875.66 Q1296.56 1879.32 1301.21 1879.32 Q1305.85 1879.32 1308.5 1875.66 Q1311.17 1871.97 1311.17 1865.51 Z" fill="#000000" fill-rule="evenodd" fill-opacity="1" /><path clip-path="url(#clip790)" d="M1357.45 1864.01 L1357.45 1866.88 L1330.52 1866.88 Q1330.9 1872.92 1334.15 1876.11 Q1337.43 1879.26 1343.25 1879.26 Q1346.63 1879.26 1349.78 1878.43 Q1352.96 1877.6 1356.08 1875.95 L1356.08 1881.49 Q1352.93 1882.82 1349.62 1883.52 Q1346.31 1884.22 1342.9 1884.22 Q1334.37 1884.22 1329.37 1879.26 Q1324.41 1874.29 1324.41 1865.83 Q1324.41 1857.07 1329.12 1851.95 Q1333.86 1846.79 1341.88 1846.79 Q1349.08 1846.79 1353.25 1851.44 Q1357.45 1856.06 1357.45 1864.01 M1351.59 1862.29 Q1351.53 1857.49 1348.89 1854.62 Q1346.28 1851.76 1341.95 1851.76 Q1337.05 1851.76 1334.09 1854.53 Q1331.16 1857.3 1330.71 1862.33 L1351.59 1862.29 Z" fill="#000000" fill-rule="evenodd" fill-opacity="1" /><path clip-path="url(#clip790)" d="M1387.72 1853.13 Q1386.73 1852.55 1385.55 1852.3 Q1384.41 1852.01 1383.01 1852.01 Q1378.04 1852.01 1375.37 1855.26 Q1372.73 1858.47 1372.73 1864.52 L1372.73 1883.3 L1366.84 1883.3 L1366.84 1847.65 L1372.73 1847.65 L1372.73 1853.19 Q1374.57 1849.94 1377.53 1848.39 Q1380.49 1846.79 1384.72 1846.79 Q1385.33 1846.79 1386.06 1846.89 Q1386.79 1846.95 1387.68 1847.11 L1387.72 1853.13 Z" fill="#000000" fill-rule="evenodd" fill-opacity="1" /><path clip-path="url(#clip790)" d="M1410.06 1865.38 Q1402.96 1865.38 1400.23 1867 Q1397.49 1868.63 1397.49 1872.54 Q1397.49 1875.66 1399.52 1877.51 Q1401.59 1879.32 1405.13 1879.32 Q1410 1879.32 1412.92 1875.88 Q1415.88 1872.42 1415.88 1866.69 L1415.88 1865.38 L1410.06 1865.38 M1421.74 1862.96 L1421.74 1883.3 L1415.88 1883.3 L1415.88 1877.89 Q1413.88 1881.14 1410.89 1882.7 Q1407.9 1884.22 1403.57 1884.22 Q1398.09 1884.22 1394.85 1881.17 Q1391.63 1878.08 1391.63 1872.92 Q1391.63 1866.91 1395.64 1863.85 Q1399.68 1860.8 1407.67 1860.8 L1415.88 1860.8 L1415.88 1860.23 Q1415.88 1856.18 1413.21 1853.99 Q1410.57 1851.76 1405.76 1851.76 Q1402.71 1851.76 1399.81 1852.49 Q1396.91 1853.22 1394.24 1854.69 L1394.24 1849.28 Q1397.46 1848.03 1400.48 1847.43 Q1403.5 1846.79 1406.37 1846.79 Q1414.1 1846.79 1417.92 1850.8 Q1421.74 1854.81 1421.74 1862.96 Z" fill="#000000" fill-rule="evenodd" fill-opacity="1" /><path clip-path="url(#clip790)" d="M1439.6 1837.53 L1439.6 1847.65 L1451.66 1847.65 L1451.66 1852.2 L1439.6 1852.2 L1439.6 1871.56 Q1439.6 1875.92 1440.77 1877.16 Q1441.98 1878.4 1445.64 1878.4 L1451.66 1878.4 L1451.66 1883.3 L1445.64 1883.3 Q1438.86 1883.3 1436.29 1880.79 Q1433.71 1878.24 1433.71 1871.56 L1433.71 1852.2 L1429.41 1852.2 L1429.41 1847.65 L1433.71 1847.65 L1433.71 1837.53 L1439.6 1837.53 Z" fill="#000000" fill-rule="evenodd" fill-opacity="1" /><path clip-path="url(#clip790)" d="M1458.76 1869.23 L1458.76 1847.65 L1464.61 1847.65 L1464.61 1869.01 Q1464.61 1874.07 1466.59 1876.62 Q1468.56 1879.13 1472.51 1879.13 Q1477.25 1879.13 1479.99 1876.11 Q1482.76 1873.08 1482.76 1867.86 L1482.76 1847.65 L1488.61 1847.65 L1488.61 1883.3 L1482.76 1883.3 L1482.76 1877.83 Q1480.62 1881.07 1477.79 1882.66 Q1474.99 1884.22 1471.27 1884.22 Q1465.12 1884.22 1461.94 1880.4 Q1458.76 1876.59 1458.76 1869.23 M1473.49 1846.79 L1473.49 1846.79 Z" fill="#000000" fill-rule="evenodd" fill-opacity="1" /><path clip-path="url(#clip790)" d="M1521.33 1853.13 Q1520.35 1852.55 1519.17 1852.3 Q1518.02 1852.01 1516.62 1852.01 Q1511.66 1852.01 1508.98 1855.26 Q1506.34 1858.47 1506.34 1864.52 L1506.34 1883.3 L1500.45 1883.3 L1500.45 1847.65 L1506.34 1847.65 L1506.34 1853.19 Q1508.19 1849.94 1511.15 1848.39 Q1514.11 1846.79 1518.34 1846.79 Q1518.95 1846.79 1519.68 1846.89 Q1520.41 1846.95 1521.3 1847.11 L1521.33 1853.13 Z" fill="#000000" fill-rule="evenodd" fill-opacity="1" /><path clip-path="url(#clip790)" d="M1556.53 1864.01 L1556.53 1866.88 L1529.61 1866.88 Q1529.99 1872.92 1533.24 1876.11 Q1536.51 1879.26 1542.34 1879.26 Q1545.71 1879.26 1548.86 1878.43 Q1552.05 1877.6 1555.17 1875.95 L1555.17 1881.49 Q1552.02 1882.82 1548.71 1883.52 Q1545.39 1884.22 1541.99 1884.22 Q1533.46 1884.22 1528.46 1879.26 Q1523.5 1874.29 1523.5 1865.83 Q1523.5 1857.07 1528.21 1851.95 Q1532.95 1846.79 1540.97 1846.79 Q1548.16 1846.79 1552.33 1851.44 Q1556.53 1856.06 1556.53 1864.01 M1550.68 1862.29 Q1550.61 1857.49 1547.97 1854.62 Q1545.36 1851.76 1541.03 1851.76 Q1536.13 1851.76 1533.17 1854.53 Q1530.24 1857.3 1529.8 1862.33 L1550.68 1862.29 Z" fill="#000000" fill-rule="evenodd" fill-opacity="1" /><path clip-path="url(#clip790)" d="M1586.33 1833.78 L1599.82 1833.78 L1599.82 1838.33 L1592.18 1838.33 L1592.18 1887.34 L1599.82 1887.34 L1599.82 1891.89 L1586.33 1891.89 L1586.33 1833.78 Z" fill="#000000" fill-rule="evenodd" fill-opacity="1" /><path clip-path="url(#clip790)" d="M1622.45 1839.03 Q1619.91 1839.03 1618.15 1840.81 Q1616.4 1842.56 1616.4 1845.11 Q1616.4 1847.62 1618.15 1849.37 Q1619.91 1851.09 1622.45 1851.09 Q1625 1851.09 1626.75 1849.37 Q1628.5 1847.62 1628.5 1845.11 Q1628.5 1842.59 1626.72 1840.81 Q1624.97 1839.03 1622.45 1839.03 M1622.45 1834.92 Q1624.49 1834.92 1626.37 1835.72 Q1628.24 1836.48 1629.61 1837.95 Q1631.08 1839.38 1631.81 1841.19 Q1632.54 1843.01 1632.54 1845.11 Q1632.54 1849.31 1629.58 1852.24 Q1626.65 1855.13 1622.39 1855.13 Q1618.09 1855.13 1615.23 1852.27 Q1612.36 1849.4 1612.36 1845.11 Q1612.36 1840.84 1615.29 1837.88 Q1618.22 1834.92 1622.45 1834.92 Z" fill="#000000" fill-rule="evenodd" fill-opacity="1" /><path clip-path="url(#clip790)" d="M1680.73 1839.44 L1680.73 1846.22 Q1677.48 1843.2 1673.79 1841.7 Q1670.13 1840.21 1665.99 1840.21 Q1657.85 1840.21 1653.52 1845.2 Q1649.19 1850.17 1649.19 1859.59 Q1649.19 1868.98 1653.52 1873.98 Q1657.85 1878.94 1665.99 1878.94 Q1670.13 1878.94 1673.79 1877.44 Q1677.48 1875.95 1680.73 1872.92 L1680.73 1879.64 Q1677.36 1881.93 1673.57 1883.08 Q1669.81 1884.22 1665.61 1884.22 Q1654.82 1884.22 1648.61 1877.64 Q1642.41 1871.02 1642.41 1859.59 Q1642.41 1848.13 1648.61 1841.54 Q1654.82 1834.92 1665.61 1834.92 Q1669.88 1834.92 1673.63 1836.07 Q1677.42 1837.18 1680.73 1839.44 Z" fill="#000000" fill-rule="evenodd" fill-opacity="1" /><path clip-path="url(#clip790)" d="M1704.09 1833.78 L1704.09 1891.89 L1690.6 1891.89 L1690.6 1887.34 L1698.2 1887.34 L1698.2 1838.33 L1690.6 1838.33 L1690.6 1833.78 L1704.09 1833.78 Z" fill="#000000" fill-rule="evenodd" fill-opacity="1" /><polyline clip-path="url(#clip792)" style="stroke:#000000; stroke-linecap:round; stroke-linejoin:round; stroke-width:2; stroke-opacity:0.1; fill:none" points="210.238,1686.42 2640.76,1686.42 "/>
<polyline clip-path="url(#clip792)" style="stroke:#000000; stroke-linecap:round; stroke-linejoin:round; stroke-width:2; stroke-opacity:0.1; fill:none" points="210.238,1325.78 2640.76,1325.78 "/>
<polyline clip-path="url(#clip792)" style="stroke:#000000; stroke-linecap:round; stroke-linejoin:round; stroke-width:2; stroke-opacity:0.1; fill:none" points="210.238,965.139 2640.76,965.139 "/>
<polyline clip-path="url(#clip792)" style="stroke:#000000; stroke-linecap:round; stroke-linejoin:round; stroke-width:2; stroke-opacity:0.1; fill:none" points="210.238,604.498 2640.76,604.498 "/>
<polyline clip-path="url(#clip792)" style="stroke:#000000; stroke-linecap:round; stroke-linejoin:round; stroke-width:2; stroke-opacity:0.1; fill:none" points="210.238,243.858 2640.76,243.858 "/>
<polyline clip-path="url(#clip790)" style="stroke:#000000; stroke-linecap:round; stroke-linejoin:round; stroke-width:4; stroke-opacity:1; fill:none" points="210.238,1734.12 210.238,47.2441 "/>
<polyline clip-path="url(#clip790)" style="stroke:#000000; stroke-linecap:round; stroke-linejoin:round; stroke-width:4; stroke-opacity:1; fill:none" points="210.238,1686.42 229.135,1686.42 "/>
<polyline clip-path="url(#clip790)" style="stroke:#000000; stroke-linecap:round; stroke-linejoin:round; stroke-width:4; stroke-opacity:1; fill:none" points="210.238,1325.78 229.135,1325.78 "/>
<polyline clip-path="url(#clip790)" style="stroke:#000000; stroke-linecap:round; stroke-linejoin:round; stroke-width:4; stroke-opacity:1; fill:none" points="210.238,965.139 229.135,965.139 "/>
<polyline clip-path="url(#clip790)" style="stroke:#000000; stroke-linecap:round; stroke-linejoin:round; stroke-width:4; stroke-opacity:1; fill:none" points="210.238,604.498 229.135,604.498 "/>
<polyline clip-path="url(#clip790)" style="stroke:#000000; stroke-linecap:round; stroke-linejoin:round; stroke-width:4; stroke-opacity:1; fill:none" points="210.238,243.858 229.135,243.858 "/>
<path clip-path="url(#clip790)" d="M157.973 1672.22 Q154.362 1672.22 152.534 1675.78 Q150.728 1679.32 150.728 1686.45 Q150.728 1693.56 152.534 1697.13 Q154.362 1700.67 157.973 1700.67 Q161.608 1700.67 163.413 1697.13 Q165.242 1693.56 165.242 1686.45 Q165.242 1679.32 163.413 1675.78 Q161.608 1672.22 157.973 1672.22 M157.973 1668.51 Q163.784 1668.51 166.839 1673.12 Q169.918 1677.7 169.918 1686.45 Q169.918 1695.18 166.839 1699.79 Q163.784 1704.37 157.973 1704.37 Q152.163 1704.37 149.085 1699.79 Q146.029 1695.18 146.029 1686.45 Q146.029 1677.7 149.085 1673.12 Q152.163 1668.51 157.973 1668.51 Z" fill="#000000" fill-rule="evenodd" fill-opacity="1" /><path clip-path="url(#clip790)" d="M149.015 1308.5 L167.372 1308.5 L167.372 1312.43 L153.298 1312.43 L153.298 1320.91 Q154.316 1320.56 155.335 1320.4 Q156.353 1320.21 157.372 1320.21 Q163.159 1320.21 166.538 1323.38 Q169.918 1326.55 169.918 1331.97 Q169.918 1337.55 166.446 1340.65 Q162.973 1343.73 156.654 1343.73 Q154.478 1343.73 152.21 1343.36 Q149.964 1342.99 147.557 1342.25 L147.557 1337.55 Q149.64 1338.68 151.862 1339.24 Q154.085 1339.8 156.561 1339.8 Q160.566 1339.8 162.904 1337.69 Q165.242 1335.58 165.242 1331.97 Q165.242 1328.36 162.904 1326.25 Q160.566 1324.15 156.561 1324.15 Q154.686 1324.15 152.811 1324.56 Q150.96 1324.98 149.015 1325.86 L149.015 1308.5 Z" fill="#000000" fill-rule="evenodd" fill-opacity="1" /><path clip-path="url(#clip790)" d="M118.622 978.484 L126.261 978.484 L126.261 952.118 L117.951 953.785 L117.951 949.525 L126.214 947.859 L130.89 947.859 L130.89 978.484 L138.529 978.484 L138.529 982.419 L118.622 982.419 L118.622 978.484 Z" fill="#000000" fill-rule="evenodd" fill-opacity="1" /><path clip-path="url(#clip790)" d="M157.973 950.937 Q154.362 950.937 152.534 954.502 Q150.728 958.044 150.728 965.173 Q150.728 972.28 152.534 975.845 Q154.362 979.386 157.973 979.386 Q161.608 979.386 163.413 975.845 Q165.242 972.28 165.242 965.173 Q165.242 958.044 163.413 954.502 Q161.608 950.937 157.973 950.937 M157.973 947.234 Q163.784 947.234 166.839 951.84 Q169.918 956.424 169.918 965.173 Q169.918 973.9 166.839 978.507 Q163.784 983.09 157.973 983.09 Q152.163 983.09 149.085 978.507 Q146.029 973.9 146.029 965.173 Q146.029 956.424 149.085 951.84 Q152.163 947.234 157.973 947.234 Z" fill="#000000" fill-rule="evenodd" fill-opacity="1" /><path clip-path="url(#clip790)" d="M119.617 617.843 L127.256 617.843 L127.256 591.478 L118.946 593.144 L118.946 588.885 L127.21 587.218 L131.886 587.218 L131.886 617.843 L139.525 617.843 L139.525 621.778 L119.617 621.778 L119.617 617.843 Z" fill="#000000" fill-rule="evenodd" fill-opacity="1" /><path clip-path="url(#clip790)" d="M149.015 587.218 L167.372 587.218 L167.372 591.154 L153.298 591.154 L153.298 599.626 Q154.316 599.279 155.335 599.117 Q156.353 598.931 157.372 598.931 Q163.159 598.931 166.538 602.103 Q169.918 605.274 169.918 610.691 Q169.918 616.269 166.446 619.371 Q162.973 622.45 156.654 622.45 Q154.478 622.45 152.21 622.079 Q149.964 621.709 147.557 620.968 L147.557 616.269 Q149.64 617.403 151.862 617.959 Q154.085 618.515 156.561 618.515 Q160.566 618.515 162.904 616.408 Q165.242 614.302 165.242 610.691 Q165.242 607.079 162.904 604.973 Q160.566 602.866 156.561 602.866 Q154.686 602.866 152.811 603.283 Q150.96 603.7 149.015 604.579 L149.015 587.218 Z" fill="#000000" fill-rule="evenodd" fill-opacity="1" /><path clip-path="url(#clip790)" d="M121.839 257.203 L138.159 257.203 L138.159 261.138 L116.214 261.138 L116.214 257.203 Q118.876 254.448 123.46 249.819 Q128.066 245.166 129.247 243.823 Q131.492 241.3 132.372 239.564 Q133.275 237.805 133.275 236.115 Q133.275 233.36 131.33 231.624 Q129.409 229.888 126.307 229.888 Q124.108 229.888 121.654 230.652 Q119.224 231.416 116.446 232.967 L116.446 228.245 Q119.27 227.111 121.724 226.532 Q124.177 225.953 126.214 225.953 Q131.585 225.953 134.779 228.638 Q137.974 231.323 137.974 235.814 Q137.974 237.944 137.163 239.865 Q136.376 241.763 134.27 244.356 Q133.691 245.027 130.589 248.245 Q127.488 251.439 121.839 257.203 Z" fill="#000000" fill-rule="evenodd" fill-opacity="1" /><path clip-path="url(#clip790)" d="M157.973 229.657 Q154.362 229.657 152.534 233.222 Q150.728 236.763 150.728 243.893 Q150.728 250.999 152.534 254.564 Q154.362 258.106 157.973 258.106 Q161.608 258.106 163.413 254.564 Q165.242 250.999 165.242 243.893 Q165.242 236.763 163.413 233.222 Q161.608 229.657 157.973 229.657 M157.973 225.953 Q163.784 225.953 166.839 230.56 Q169.918 235.143 169.918 243.893 Q169.918 252.62 166.839 257.226 Q163.784 261.809 157.973 261.809 Q152.163 261.809 149.085 257.226 Q146.029 252.62 146.029 243.893 Q146.029 235.143 149.085 230.56 Q152.163 225.953 157.973 225.953 Z" fill="#000000" fill-rule="evenodd" fill-opacity="1" /><path clip-path="url(#clip790)" d="M19.402 1119.5 L37.2578 1119.5 L37.2578 1111.41 Q37.2578 1106.92 34.9343 1104.47 Q32.6108 1102.02 28.314 1102.02 Q24.0489 1102.02 21.7255 1104.47 Q19.402 1106.92 19.402 1111.41 L19.402 1119.5 M14.1184 1125.93 L14.1184 1111.41 Q14.1184 1103.42 17.7469 1099.35 Q21.3435 1095.24 28.314 1095.24 Q35.3481 1095.24 38.9447 1099.35 Q42.5413 1103.42 42.5413 1111.41 L42.5413 1119.5 L61.6384 1119.5 L61.6384 1125.93 L14.1184 1125.93 Z" fill="#000000" fill-rule="evenodd" fill-opacity="1" /><path clip-path="url(#clip790)" d="M31.465 1067.36 Q30.8921 1068.35 30.6375 1069.53 Q30.351 1070.67 30.351 1072.07 Q30.351 1077.04 33.5975 1079.71 Q36.8122 1082.35 42.8596 1082.35 L61.6384 1082.35 L61.6384 1088.24 L25.9905 1088.24 L25.9905 1082.35 L31.5287 1082.35 Q28.2821 1080.51 26.7225 1077.55 Q25.1311 1074.59 25.1311 1070.35 Q25.1311 1069.75 25.2266 1069.02 Q25.2903 1068.28 25.4494 1067.39 L31.465 1067.36 Z" fill="#000000" fill-rule="evenodd" fill-opacity="1" /><path clip-path="url(#clip790)" d="M42.3504 1032.16 L45.2149 1032.16 L45.2149 1059.09 Q51.2623 1058.7 54.4452 1055.46 Q57.5962 1052.18 57.5962 1046.35 Q57.5962 1042.98 56.7687 1039.83 Q55.9411 1036.65 54.2861 1033.53 L59.8242 1033.53 Q61.161 1036.68 61.8612 1039.99 Q62.5615 1043.3 62.5615 1046.7 Q62.5615 1055.23 57.5962 1060.23 Q52.631 1065.2 44.1646 1065.2 Q35.4117 1065.2 30.2873 1060.49 Q25.1311 1055.74 25.1311 1047.72 Q25.1311 1040.53 29.7781 1036.36 Q34.3932 1032.16 42.3504 1032.16 M40.6316 1038.01 Q35.8255 1038.08 32.9609 1040.72 Q30.0964 1043.33 30.0964 1047.66 Q30.0964 1052.56 32.8654 1055.52 Q35.6345 1058.45 40.6634 1058.89 L40.6316 1038.01 Z" fill="#000000" fill-rule="evenodd" fill-opacity="1" /><path clip-path="url(#clip790)" d="M27.0408 999.821 L32.579 999.821 Q31.3059 1002.3 30.6693 1004.98 Q30.0327 1007.65 30.0327 1010.51 Q30.0327 1014.88 31.3695 1017.07 Q32.7063 1019.24 35.3799 1019.24 Q37.4169 1019.24 38.5946 1017.68 Q39.7404 1016.12 40.7908 1011.41 L41.2364 1009.4 Q42.5732 1003.16 45.0239 1000.55 Q47.4429 997.911 51.8034 997.911 Q56.7687 997.911 59.6651 1001.86 Q62.5615 1005.77 62.5615 1012.65 Q62.5615 1015.51 61.9886 1018.63 Q61.4475 1021.72 60.3335 1025.16 L54.2861 1025.16 Q55.973 1021.91 56.8323 1018.76 Q57.6599 1015.61 57.6599 1012.52 Q57.6599 1008.38 56.2594 1006.15 Q54.8271 1003.93 52.249 1003.93 Q49.8619 1003.93 48.5887 1005.55 Q47.3156 1007.14 46.1379 1012.58 L45.6605 1014.62 Q44.5147 1020.06 42.1594 1022.48 Q39.7722 1024.9 35.6345 1024.9 Q30.6056 1024.9 27.8684 1021.34 Q25.1311 1017.77 25.1311 1011.22 Q25.1311 1007.97 25.6085 1005.1 Q26.086 1002.24 27.0408 999.821 Z" fill="#000000" fill-rule="evenodd" fill-opacity="1" /><path clip-path="url(#clip790)" d="M27.0408 965.86 L32.579 965.86 Q31.3059 968.342 30.6693 971.016 Q30.0327 973.689 30.0327 976.554 Q30.0327 980.914 31.3695 983.111 Q32.7063 985.275 35.3799 985.275 Q37.4169 985.275 38.5946 983.715 Q39.7404 982.156 40.7908 977.445 L41.2364 975.44 Q42.5732 969.202 45.0239 966.592 Q47.4429 963.95 51.8034 963.95 Q56.7687 963.95 59.6651 967.897 Q62.5615 971.811 62.5615 978.686 Q62.5615 981.551 61.9886 984.67 Q61.4475 987.758 60.3335 991.195 L54.2861 991.195 Q55.973 987.949 56.8323 984.798 Q57.6599 981.646 57.6599 978.559 Q57.6599 974.421 56.2594 972.193 Q54.8271 969.965 52.249 969.965 Q49.8619 969.965 48.5887 971.589 Q47.3156 973.18 46.1379 978.623 L45.6605 980.66 Q44.5147 986.102 42.1594 988.521 Q39.7722 990.94 35.6345 990.94 Q30.6056 990.94 27.8684 987.376 Q25.1311 983.811 25.1311 977.254 Q25.1311 974.008 25.6085 971.143 Q26.086 968.279 27.0408 965.86 Z" fill="#000000" fill-rule="evenodd" fill-opacity="1" /><path clip-path="url(#clip790)" d="M47.5702 955.229 L25.9905 955.229 L25.9905 949.372 L47.3474 949.372 Q52.4082 949.372 54.9545 947.399 Q57.4689 945.426 57.4689 941.479 Q57.4689 936.736 54.4452 933.999 Q51.4215 931.23 46.2016 931.23 L25.9905 931.23 L25.9905 925.374 L61.6384 925.374 L61.6384 931.23 L56.1639 931.23 Q59.4104 933.363 61.0019 936.195 Q62.5615 938.996 62.5615 942.72 Q62.5615 948.863 58.742 952.046 Q54.9226 955.229 47.5702 955.229 M25.1311 940.492 L25.1311 940.492 Z" fill="#000000" fill-rule="evenodd" fill-opacity="1" /><path clip-path="url(#clip790)" d="M31.465 892.654 Q30.8921 893.641 30.6375 894.818 Q30.351 895.964 30.351 897.365 Q30.351 902.33 33.5975 905.003 Q36.8122 907.645 42.8596 907.645 L61.6384 907.645 L61.6384 913.533 L25.9905 913.533 L25.9905 907.645 L31.5287 907.645 Q28.2821 905.799 26.7225 902.839 Q25.1311 899.879 25.1311 895.646 Q25.1311 895.041 25.2266 894.309 Q25.2903 893.577 25.4494 892.686 L31.465 892.654 Z" fill="#000000" fill-rule="evenodd" fill-opacity="1" /><path clip-path="url(#clip790)" d="M42.3504 857.452 L45.2149 857.452 L45.2149 884.378 Q51.2623 883.997 54.4452 880.75 Q57.5962 877.472 57.5962 871.647 Q57.5962 868.273 56.7687 865.122 Q55.9411 861.939 54.2861 858.82 L59.8242 858.82 Q61.161 861.971 61.8612 865.281 Q62.5615 868.592 62.5615 871.997 Q62.5615 880.527 57.5962 885.524 Q52.631 890.49 44.1646 890.49 Q35.4117 890.49 30.2873 885.779 Q25.1311 881.036 25.1311 873.016 Q25.1311 865.822 29.7781 861.653 Q34.3932 857.452 42.3504 857.452 M40.6316 863.308 Q35.8255 863.372 32.9609 866.013 Q30.0964 868.623 30.0964 872.952 Q30.0964 877.854 32.8654 880.814 Q35.6345 883.742 40.6634 884.188 L40.6316 863.308 Z" fill="#000000" fill-rule="evenodd" fill-opacity="1" /><path clip-path="url(#clip790)" d="M12.1132 827.66 L12.1132 814.165 L16.6647 814.165 L16.6647 821.804 L65.6807 821.804 L65.6807 814.165 L70.2321 814.165 L70.2321 827.66 L12.1132 827.66 Z" fill="#000000" fill-rule="evenodd" fill-opacity="1" /><path clip-path="url(#clip790)" d="M14.1184 801.433 L14.1184 791.853 L46.4562 779.726 L14.1184 767.536 L14.1184 757.956 L61.6384 757.956 L61.6384 764.226 L19.9112 764.226 L52.5037 776.48 L52.5037 782.941 L19.9112 795.195 L61.6384 795.195 L61.6384 801.433 L14.1184 801.433 Z" fill="#000000" fill-rule="evenodd" fill-opacity="1" /><path clip-path="url(#clip790)" d="M19.402 738.763 L37.2578 738.763 L37.2578 730.679 Q37.2578 726.191 34.9343 723.74 Q32.6108 721.289 28.314 721.289 Q24.0489 721.289 21.7255 723.74 Q19.402 726.191 19.402 730.679 L19.402 738.763 M14.1184 745.192 L14.1184 730.679 Q14.1184 722.69 17.7469 718.615 Q21.3435 714.51 28.314 714.51 Q35.3481 714.51 38.9447 718.615 Q42.5413 722.69 42.5413 730.679 L42.5413 738.763 L61.6384 738.763 L61.6384 745.192 L14.1184 745.192 Z" fill="#000000" fill-rule="evenodd" fill-opacity="1" /><path clip-path="url(#clip790)" d="M43.719 692.866 Q43.719 699.964 45.3422 702.701 Q46.9655 705.438 50.8804 705.438 Q53.9996 705.438 55.8457 703.401 Q57.6599 701.333 57.6599 697.8 Q57.6599 692.93 54.2224 690.002 Q50.7531 687.042 45.0239 687.042 L43.719 687.042 L43.719 692.866 M41.3 681.185 L61.6384 681.185 L61.6384 687.042 L56.2276 687.042 Q59.4741 689.047 61.0337 692.039 Q62.5615 695.031 62.5615 699.359 Q62.5615 704.834 59.5059 708.08 Q56.4186 711.295 51.2623 711.295 Q45.2467 711.295 42.1912 707.285 Q39.1357 703.242 39.1357 695.253 L39.1357 687.042 L38.5628 687.042 Q34.5205 687.042 32.3244 689.715 Q30.0964 692.357 30.0964 697.163 Q30.0964 700.219 30.8284 703.115 Q31.5605 706.011 33.0246 708.685 L27.6137 708.685 Q26.3724 705.47 25.7677 702.447 Q25.1311 699.423 25.1311 696.558 Q25.1311 688.824 29.1415 685.005 Q33.1519 681.185 41.3 681.185 Z" fill="#000000" fill-rule="evenodd" fill-opacity="1" /><path clip-path="url(#clip790)" d="M12.1132 655.436 L70.2321 655.436 L70.2321 668.931 L65.6807 668.931 L65.6807 661.324 L16.6647 661.324 L16.6647 668.931 L12.1132 668.931 L12.1132 655.436 Z" fill="#000000" fill-rule="evenodd" fill-opacity="1" /><polyline clip-path="url(#clip792)" style="stroke:#009af9; stroke-linecap:round; stroke-linejoin:round; stroke-width:4; stroke-opacity:1; fill:none" points="279.026,1686.38 284.177,1686.37 290.309,1686.37 296.441,1686.37 302.573,1686.36 308.705,1686.36 314.836,1686.35 320.968,1686.35 327.1,1686.34 333.232,1686.34 339.364,1686.33 345.496,1686.33 351.628,1686.32 357.76,1686.31 363.892,1686.31 370.024,1686.3 376.156,1686.29 382.287,1686.28 388.419,1686.27 394.551,1686.26 400.683,1686.25 406.815,1686.24 412.947,1686.23 419.079,1686.22 425.211,1686.21 431.343,1686.19 437.475,1686.18 443.607,1686.16 449.738,1686.15 455.87,1686.13 462.002,1686.12 468.134,1686.1 474.266,1686.08 480.398,1686.06 486.53,1686.04 492.662,1686.02 498.794,1685.99 504.926,1685.97 511.058,1685.94 517.189,1685.92 523.321,1685.89 529.453,1685.86 535.585,1685.83 541.717,1685.8 547.849,1685.77 553.981,1685.73 560.113,1685.7 566.245,1685.66 572.377,1685.62 578.509,1685.58 584.64,1685.54 590.772,1685.49 596.904,1685.44 603.036,1685.39 609.168,1685.34 615.3,1685.29 621.432,1685.24 627.564,1685.18 633.696,1685.12 639.828,1685.06 645.96,1684.99 652.091,1684.92 658.223,1684.85 664.355,1684.78 670.487,1684.7 676.619,1684.63 682.751,1684.54 688.883,1684.46 695.015,1684.37 701.147,1684.28 707.279,1684.18 713.411,1684.08 719.542,1683.98 725.674,1683.88 731.806,1683.77 737.938,1683.65 744.07,1683.54 750.202,1683.41 756.334,1683.29 762.466,1683.16 768.598,1683.02 774.73,1682.88 780.862,1682.74 786.993,1682.59 793.125,1682.43 799.257,1682.27 805.389,1682.1 811.521,1681.93 817.653,1681.76 823.785,1681.57 829.917,1681.39 836.049,1681.19 842.181,1680.99 848.313,1680.78 854.444,1680.57 860.576,1680.35 866.708,1680.12 872.84,1679.89 878.972,1679.65 885.104,1679.4 891.236,1679.14 897.368,1678.88 903.5,1678.61 909.632,1678.33 915.764,1678.04 921.895,1677.74 928.027,1677.44 934.159,1677.13 940.291,1676.8 946.423,1676.47 952.555,1676.13 958.687,1675.78 964.819,1675.42 970.951,1675.05 977.083,1674.67 983.215,1674.28 989.346,1673.87 995.478,1673.46 1001.61,1673.04 1007.74,1672.6 1013.87,1672.16 1020.01,1671.7 1026.14,1671.23 1032.27,1670.75 1038.4,1670.25 1044.53,1669.75 1050.67,1669.23 1056.8,1668.69 1062.93,1668.15 1069.06,1667.59 1075.19,1667.01 1081.33,1666.43 1087.46,1665.82 1093.59,1665.21 1099.72,1664.57 1105.85,1663.93 1111.98,1663.26 1118.12,1662.59 1124.25,1661.89 1130.38,1661.18 1136.51,1660.46 1142.64,1659.71 1148.78,1658.95 1154.91,1658.17 1161.04,1657.38 1167.17,1656.56 1173.3,1655.73 1179.44,1654.88 1185.57,1654.01 1191.7,1653.12 1197.83,1652.22 1203.96,1651.29 1210.1,1650.34 1216.23,1649.37 1222.36,1648.39 1228.49,1647.38 1234.62,1646.35 1240.75,1645.29 1246.89,1644.22 1253.02,1643.12 1259.15,1642 1265.28,1640.86 1271.41,1639.7 1277.55,1638.51 1283.68,1637.3 1289.81,1636.06 1295.94,1634.8 1302.07,1633.51 1308.21,1632.2 1314.34,1630.86 1320.47,1629.5 1326.6,1628.11 1332.73,1626.69 1338.87,1625.25 1345,1623.78 1351.13,1622.28 1357.26,1620.75 1363.39,1619.19 1369.52,1617.61 1375.66,1615.99 1381.79,1614.35 1387.92,1612.68 1394.05,1610.97 1400.18,1609.24 1406.32,1607.47 1412.45,1605.67 1418.58,1603.84 1424.71,1601.98 1430.84,1600.09 1436.98,1598.16 1443.11,1596.19 1449.24,1594.2 1455.37,1592.17 1461.5,1590.1 1467.64,1588 1473.77,1585.87 1479.9,1583.69 1486.03,1581.48 1492.16,1579.24 1498.29,1576.96 1504.43,1574.64 1510.56,1572.28 1516.69,1569.88 1522.82,1567.44 1528.95,1564.97 1535.09,1562.45 1541.22,1559.89 1547.35,1557.3 1553.48,1554.66 1559.61,1551.98 1565.75,1549.26 1571.88,1546.49 1578.01,1543.68 1584.14,1540.83 1590.27,1537.94 1596.41,1535 1602.54,1532.01 1608.67,1528.98 1614.8,1525.9 1620.93,1522.78 1627.06,1519.61 1633.2,1516.4 1639.33,1513.13 1645.46,1509.82 1651.59,1506.46 1657.72,1503.05 1663.86,1499.59 1669.99,1496.08 1676.12,1492.52 1682.25,1488.91 1688.38,1485.25 1694.52,1481.53 1700.65,1477.76 1706.78,1473.94 1712.91,1470.07 1719.04,1466.14 1725.18,1462.16 1731.31,1458.12 1737.44,1454.02 1743.57,1449.87 1749.7,1445.67 1755.84,1441.4 1761.97,1437.08 1768.1,1432.7 1774.23,1428.26 1780.36,1423.77 1786.49,1419.21 1792.63,1414.59 1798.76,1409.91 1804.89,1405.17 1811.02,1400.37 1817.15,1395.5 1823.29,1390.58 1829.42,1385.58 1835.55,1380.53 1841.68,1375.41 1847.81,1370.22 1853.95,1364.97 1860.08,1359.65 1866.21,1354.27 1872.34,1348.81 1878.47,1343.29 1884.61,1337.7 1890.74,1332.04 1896.87,1326.31 1903,1320.52 1909.13,1314.64 1915.26,1308.7 1921.4,1302.69 1927.53,1296.6 1933.66,1290.44 1939.79,1284.21 1945.92,1277.9 1952.06,1271.51 1958.19,1265.05 1964.32,1258.51 1970.45,1251.9 1976.58,1245.21 1982.72,1238.44 1988.85,1231.59 1994.98,1224.66 2001.11,1217.65 2007.24,1210.56 2013.38,1203.39 2019.51,1196.13 2025.64,1188.79 2031.77,1181.37 2037.9,1173.87 2044.03,1166.28 2050.17,1158.6 2056.3,1150.84 2062.43,1142.99 2068.56,1135.05 2074.69,1127.03 2080.83,1118.91 2086.96,1110.71 2093.09,1102.41 2099.22,1094.03 2105.35,1085.55 2111.49,1076.98 2117.62,1068.31 2123.75,1059.55 2129.88,1050.7 2136.01,1041.75 2142.15,1032.7 2148.28,1023.56 2154.41,1014.32 2160.54,1004.98 2166.67,995.534 2172.8,985.993 2178.94,976.35 2185.07,966.604 2191.2,956.756 2197.33,946.804 2203.46,936.747 2209.6,926.584 2215.73,916.314 2221.86,905.937 2227.99,895.452 2234.12,884.857 2240.26,874.152 2246.39,863.336 2252.52,852.407 2258.65,841.366 2264.78,830.21 2270.92,818.939 2277.05,807.552 2283.18,796.048 2289.31,784.425 2295.44,772.683 2301.57,760.821 2307.71,748.837 2313.84,736.731 2319.97,724.5 2326.1,712.145 2332.23,699.663 2338.37,687.054 2344.5,674.316 2350.63,661.448 2356.76,648.449 2362.89,635.318 2369.03,622.052 2375.16,608.652 2381.29,595.114 2387.42,581.438 2393.55,567.623 2399.69,553.666 2405.82,539.567 2411.95,525.323 2418.08,510.934 2424.21,496.396 2430.35,481.709 2436.48,466.871 2442.61,451.88 2448.74,436.733 2454.87,421.43 2461,405.967 2467.14,390.343 2473.27,374.556 2479.4,358.602 2485.53,342.481 2491.66,326.188 2497.8,309.722 2503.93,293.08 2510.06,276.257 2516.19,259.252 2522.32,242.06 2528.46,224.676 2534.59,207.096 2540.72,189.314 2546.85,171.32 2552.98,153.104 2559.12,134.646 2565.25,115.915 2571.38,96.8401 2571.97,94.9858 "/>
<circle clip-path="url(#clip792)" cx="2571.97" cy="94.9858" r="14.4" fill="#e26f46" fill-rule="evenodd" fill-opacity="1" stroke="#000000" stroke-opacity="1" stroke-width="3.84"/>
<circle clip-path="url(#clip792)" cx="279.026" cy="1686.38" r="14.4" fill="#3da44d" fill-rule="evenodd" fill-opacity="1" stroke="#000000" stroke-opacity="1" stroke-width="3.84"/>
<path clip-path="url(#clip790)" d="M291.255 310.833 L995.624 310.833 L995.624 103.473 L291.255 103.473  Z" fill="#ffffff" fill-rule="evenodd" fill-opacity="1"/>
<polyline clip-path="url(#clip790)" style="stroke:#000000; stroke-linecap:round; stroke-linejoin:round; stroke-width:4; stroke-opacity:1; fill:none" points="291.255,310.833 995.624,310.833 995.624,103.473 291.255,103.473 291.255,310.833 "/>
<polyline clip-path="url(#clip790)" style="stroke:#009af9; stroke-linecap:round; stroke-linejoin:round; stroke-width:4; stroke-opacity:1; fill:none" points="318.261,155.313 480.295,155.313 "/>
<path clip-path="url(#clip790)" d="M529.546 139.167 L529.546 143.728 Q526.884 142.454 524.523 141.829 Q522.162 141.204 519.963 141.204 Q516.144 141.204 514.06 142.686 Q512 144.167 512 146.899 Q512 149.191 513.366 150.371 Q514.755 151.528 518.597 152.246 L521.421 152.825 Q526.653 153.82 529.13 156.343 Q531.63 158.843 531.63 163.056 Q531.63 168.079 528.25 170.672 Q524.894 173.264 518.389 173.264 Q515.935 173.264 513.158 172.709 Q510.403 172.153 507.44 171.065 L507.44 166.251 Q510.287 167.848 513.019 168.658 Q515.75 169.468 518.389 169.468 Q522.394 169.468 524.57 167.894 Q526.746 166.32 526.746 163.403 Q526.746 160.857 525.171 159.422 Q523.621 157.987 520.056 157.269 L517.209 156.714 Q511.977 155.672 509.639 153.45 Q507.301 151.228 507.301 147.269 Q507.301 142.686 510.519 140.047 Q513.759 137.408 519.431 137.408 Q521.861 137.408 524.384 137.848 Q526.908 138.288 529.546 139.167 Z" fill="#000000" fill-rule="evenodd" fill-opacity="1" /><path clip-path="url(#clip790)" d="M550.519 159.561 Q545.357 159.561 543.366 160.741 Q541.375 161.922 541.375 164.769 Q541.375 167.038 542.857 168.38 Q544.361 169.7 546.931 169.7 Q550.472 169.7 552.602 167.2 Q554.755 164.677 554.755 160.51 L554.755 159.561 L550.519 159.561 M559.014 157.802 L559.014 172.593 L554.755 172.593 L554.755 168.658 Q553.296 171.019 551.12 172.153 Q548.944 173.264 545.796 173.264 Q541.815 173.264 539.454 171.042 Q537.116 168.797 537.116 165.047 Q537.116 160.672 540.032 158.45 Q542.972 156.228 548.782 156.228 L554.755 156.228 L554.755 155.811 Q554.755 152.871 552.81 151.274 Q550.889 149.653 547.394 149.653 Q545.171 149.653 543.065 150.186 Q540.958 150.718 539.014 151.783 L539.014 147.848 Q541.352 146.945 543.551 146.505 Q545.75 146.042 547.833 146.042 Q553.458 146.042 556.236 148.959 Q559.014 151.876 559.014 157.802 Z" fill="#000000" fill-rule="evenodd" fill-opacity="1" /><path clip-path="url(#clip790)" d="M572 139.306 L572 146.667 L580.773 146.667 L580.773 149.978 L572 149.978 L572 164.052 Q572 167.223 572.856 168.126 Q573.736 169.028 576.398 169.028 L580.773 169.028 L580.773 172.593 L576.398 172.593 Q571.467 172.593 569.593 170.764 Q567.718 168.913 567.718 164.052 L567.718 149.978 L564.593 149.978 L564.593 146.667 L567.718 146.667 L567.718 139.306 L572 139.306 Z" fill="#000000" fill-rule="evenodd" fill-opacity="1" /><path clip-path="url(#clip790)" d="M585.935 162.362 L585.935 146.667 L590.194 146.667 L590.194 162.2 Q590.194 165.88 591.629 167.732 Q593.065 169.561 595.935 169.561 Q599.384 169.561 601.375 167.362 Q603.389 165.163 603.389 161.366 L603.389 146.667 L607.648 146.667 L607.648 172.593 L603.389 172.593 L603.389 168.612 Q601.838 170.973 599.778 172.13 Q597.741 173.264 595.032 173.264 Q590.565 173.264 588.25 170.487 Q585.935 167.709 585.935 162.362 M596.653 146.042 L596.653 146.042 Z" fill="#000000" fill-rule="evenodd" fill-opacity="1" /><path clip-path="url(#clip790)" d="M631.444 150.649 Q630.726 150.232 629.87 150.047 Q629.037 149.839 628.018 149.839 Q624.407 149.839 622.463 152.2 Q620.541 154.538 620.541 158.936 L620.541 172.593 L616.259 172.593 L616.259 146.667 L620.541 146.667 L620.541 150.695 Q621.884 148.334 624.037 147.2 Q626.189 146.042 629.268 146.042 Q629.708 146.042 630.24 146.112 Q630.773 146.158 631.421 146.274 L631.444 150.649 Z" fill="#000000" fill-rule="evenodd" fill-opacity="1" /><path clip-path="url(#clip790)" d="M647.694 159.561 Q642.532 159.561 640.541 160.741 Q638.55 161.922 638.55 164.769 Q638.55 167.038 640.032 168.38 Q641.537 169.7 644.106 169.7 Q647.648 169.7 649.777 167.2 Q651.93 164.677 651.93 160.51 L651.93 159.561 L647.694 159.561 M656.189 157.802 L656.189 172.593 L651.93 172.593 L651.93 168.658 Q650.472 171.019 648.296 172.153 Q646.12 173.264 642.972 173.264 Q638.99 173.264 636.629 171.042 Q634.291 168.797 634.291 165.047 Q634.291 160.672 637.208 158.45 Q640.148 156.228 645.958 156.228 L651.93 156.228 L651.93 155.811 Q651.93 152.871 649.986 151.274 Q648.064 149.653 644.569 149.653 Q642.347 149.653 640.24 150.186 Q638.134 150.718 636.189 151.783 L636.189 147.848 Q638.527 146.945 640.726 146.505 Q642.925 146.042 645.009 146.042 Q650.634 146.042 653.412 148.959 Q656.189 151.876 656.189 157.802 Z" fill="#000000" fill-rule="evenodd" fill-opacity="1" /><path clip-path="url(#clip790)" d="M669.175 139.306 L669.175 146.667 L677.948 146.667 L677.948 149.978 L669.175 149.978 L669.175 164.052 Q669.175 167.223 670.032 168.126 Q670.911 169.028 673.573 169.028 L677.948 169.028 L677.948 172.593 L673.573 172.593 Q668.643 172.593 666.768 170.764 Q664.893 168.913 664.893 164.052 L664.893 149.978 L661.768 149.978 L661.768 146.667 L664.893 146.667 L664.893 139.306 L669.175 139.306 Z" fill="#000000" fill-rule="evenodd" fill-opacity="1" /><path clip-path="url(#clip790)" d="M683.55 146.667 L687.809 146.667 L687.809 172.593 L683.55 172.593 L683.55 146.667 M683.55 136.575 L687.809 136.575 L687.809 141.968 L683.55 141.968 L683.55 136.575 Z" fill="#000000" fill-rule="evenodd" fill-opacity="1" /><path clip-path="url(#clip790)" d="M706.768 149.653 Q703.342 149.653 701.351 152.339 Q699.36 155.001 699.36 159.653 Q699.36 164.306 701.328 166.991 Q703.319 169.653 706.768 169.653 Q710.17 169.653 712.161 166.968 Q714.152 164.283 714.152 159.653 Q714.152 155.047 712.161 152.362 Q710.17 149.653 706.768 149.653 M706.768 146.042 Q712.323 146.042 715.495 149.653 Q718.666 153.265 718.666 159.653 Q718.666 166.019 715.495 169.653 Q712.323 173.264 706.768 173.264 Q701.189 173.264 698.018 169.653 Q694.87 166.019 694.87 159.653 Q694.87 153.265 698.018 149.653 Q701.189 146.042 706.768 146.042 Z" fill="#000000" fill-rule="evenodd" fill-opacity="1" /><path clip-path="url(#clip790)" d="M747.277 156.945 L747.277 172.593 L743.018 172.593 L743.018 157.084 Q743.018 153.403 741.582 151.575 Q740.147 149.746 737.277 149.746 Q733.828 149.746 731.837 151.945 Q729.846 154.144 729.846 157.94 L729.846 172.593 L725.564 172.593 L725.564 146.667 L729.846 146.667 L729.846 150.695 Q731.374 148.357 733.434 147.2 Q735.518 146.042 738.226 146.042 Q742.693 146.042 744.985 148.82 Q747.277 151.575 747.277 156.945 Z" fill="#000000" fill-rule="evenodd" fill-opacity="1" /><path clip-path="url(#clip790)" d="M774.962 168.704 L774.962 182.454 L770.679 182.454 L770.679 146.667 L774.962 146.667 L774.962 150.603 Q776.304 148.288 778.341 147.177 Q780.402 146.042 783.249 146.042 Q787.971 146.042 790.911 149.792 Q793.874 153.542 793.874 159.653 Q793.874 165.765 790.911 169.515 Q787.971 173.264 783.249 173.264 Q780.402 173.264 778.341 172.153 Q776.304 171.019 774.962 168.704 M789.452 159.653 Q789.452 154.954 787.508 152.292 Q785.587 149.607 782.207 149.607 Q778.827 149.607 776.883 152.292 Q774.962 154.954 774.962 159.653 Q774.962 164.352 776.883 167.038 Q778.827 169.7 782.207 169.7 Q785.587 169.7 787.508 167.038 Q789.452 164.352 789.452 159.653 Z" fill="#000000" fill-rule="evenodd" fill-opacity="1" /><path clip-path="url(#clip790)" d="M815.957 150.649 Q815.239 150.232 814.383 150.047 Q813.55 149.839 812.531 149.839 Q808.92 149.839 806.975 152.2 Q805.054 154.538 805.054 158.936 L805.054 172.593 L800.772 172.593 L800.772 146.667 L805.054 146.667 L805.054 150.695 Q806.397 148.334 808.55 147.2 Q810.702 146.042 813.781 146.042 Q814.221 146.042 814.753 146.112 Q815.286 146.158 815.934 146.274 L815.957 150.649 Z" fill="#000000" fill-rule="evenodd" fill-opacity="1" /><path clip-path="url(#clip790)" d="M841.559 158.565 L841.559 160.649 L821.975 160.649 Q822.253 165.047 824.614 167.362 Q826.999 169.653 831.235 169.653 Q833.688 169.653 835.98 169.052 Q838.295 168.45 840.563 167.246 L840.563 171.274 Q838.272 172.246 835.864 172.755 Q833.457 173.264 830.98 173.264 Q824.776 173.264 821.142 169.653 Q817.531 166.042 817.531 159.885 Q817.531 153.519 820.957 149.792 Q824.406 146.042 830.239 146.042 Q835.471 146.042 838.503 149.422 Q841.559 152.778 841.559 158.565 M837.299 157.315 Q837.253 153.82 835.332 151.737 Q833.434 149.653 830.286 149.653 Q826.721 149.653 824.568 151.667 Q822.438 153.681 822.114 157.339 L837.299 157.315 Z" fill="#000000" fill-rule="evenodd" fill-opacity="1" /><path clip-path="url(#clip790)" d="M865.077 147.431 L865.077 151.459 Q863.271 150.533 861.327 150.07 Q859.383 149.607 857.299 149.607 Q854.128 149.607 852.531 150.579 Q850.957 151.552 850.957 153.496 Q850.957 154.978 852.091 155.834 Q853.225 156.667 856.651 157.431 L858.109 157.755 Q862.646 158.728 864.545 160.51 Q866.466 162.269 866.466 165.44 Q866.466 169.052 863.596 171.158 Q860.748 173.264 855.748 173.264 Q853.665 173.264 851.397 172.848 Q849.151 172.454 846.651 171.644 L846.651 167.246 Q849.012 168.473 851.304 169.098 Q853.596 169.7 855.841 169.7 Q858.85 169.7 860.471 168.681 Q862.091 167.64 862.091 165.765 Q862.091 164.028 860.91 163.103 Q859.753 162.177 855.795 161.32 L854.313 160.973 Q850.355 160.14 848.596 158.427 Q846.836 156.69 846.836 153.681 Q846.836 150.024 849.429 148.033 Q852.022 146.042 856.79 146.042 Q859.151 146.042 861.234 146.39 Q863.318 146.737 865.077 147.431 Z" fill="#000000" fill-rule="evenodd" fill-opacity="1" /><path clip-path="url(#clip790)" d="M889.776 147.431 L889.776 151.459 Q887.97 150.533 886.026 150.07 Q884.082 149.607 881.998 149.607 Q878.827 149.607 877.23 150.579 Q875.656 151.552 875.656 153.496 Q875.656 154.978 876.79 155.834 Q877.924 156.667 881.35 157.431 L882.808 157.755 Q887.345 158.728 889.244 160.51 Q891.165 162.269 891.165 165.44 Q891.165 169.052 888.295 171.158 Q885.447 173.264 880.447 173.264 Q878.364 173.264 876.095 172.848 Q873.85 172.454 871.35 171.644 L871.35 167.246 Q873.711 168.473 876.003 169.098 Q878.295 169.7 880.54 169.7 Q883.549 169.7 885.17 168.681 Q886.79 167.64 886.79 165.765 Q886.79 164.028 885.609 163.103 Q884.452 162.177 880.494 161.32 L879.012 160.973 Q875.054 160.14 873.295 158.427 Q871.535 156.69 871.535 153.681 Q871.535 150.024 874.128 148.033 Q876.72 146.042 881.489 146.042 Q883.85 146.042 885.933 146.39 Q888.017 146.737 889.776 147.431 Z" fill="#000000" fill-rule="evenodd" fill-opacity="1" /><path clip-path="url(#clip790)" d="M897.507 162.362 L897.507 146.667 L901.767 146.667 L901.767 162.2 Q901.767 165.88 903.202 167.732 Q904.637 169.561 907.507 169.561 Q910.956 169.561 912.947 167.362 Q914.961 165.163 914.961 161.366 L914.961 146.667 L919.22 146.667 L919.22 172.593 L914.961 172.593 L914.961 168.612 Q913.41 170.973 911.35 172.13 Q909.313 173.264 906.605 173.264 Q902.137 173.264 899.822 170.487 Q897.507 167.709 897.507 162.362 M908.225 146.042 L908.225 146.042 Z" fill="#000000" fill-rule="evenodd" fill-opacity="1" /><path clip-path="url(#clip790)" d="M943.016 150.649 Q942.299 150.232 941.442 150.047 Q940.609 149.839 939.591 149.839 Q935.979 149.839 934.035 152.2 Q932.114 154.538 932.114 158.936 L932.114 172.593 L927.831 172.593 L927.831 146.667 L932.114 146.667 L932.114 150.695 Q933.456 148.334 935.609 147.2 Q937.762 146.042 940.841 146.042 Q941.28 146.042 941.813 146.112 Q942.345 146.158 942.993 146.274 L943.016 150.649 Z" fill="#000000" fill-rule="evenodd" fill-opacity="1" /><path clip-path="url(#clip790)" d="M968.618 158.565 L968.618 160.649 L949.035 160.649 Q949.313 165.047 951.674 167.362 Q954.058 169.653 958.294 169.653 Q960.748 169.653 963.039 169.052 Q965.354 168.45 967.623 167.246 L967.623 171.274 Q965.331 172.246 962.924 172.755 Q960.516 173.264 958.04 173.264 Q951.836 173.264 948.202 169.653 Q944.59 166.042 944.59 159.885 Q944.59 153.519 948.016 149.792 Q951.465 146.042 957.299 146.042 Q962.53 146.042 965.563 149.422 Q968.618 152.778 968.618 158.565 M964.359 157.315 Q964.313 153.82 962.391 151.737 Q960.493 149.653 957.345 149.653 Q953.78 149.653 951.627 151.667 Q949.498 153.681 949.174 157.339 L964.359 157.315 Z" fill="#000000" fill-rule="evenodd" fill-opacity="1" /><circle clip-path="url(#clip790)" cx="399.278" cy="207.153" r="23.04" fill="#e26f46" fill-rule="evenodd" fill-opacity="1" stroke="#000000" stroke-opacity="1" stroke-width="6.144"/>
<path clip-path="url(#clip790)" d="M535.171 192.535 L535.171 197.466 Q532.81 195.267 530.125 194.179 Q527.463 193.091 524.454 193.091 Q518.528 193.091 515.38 196.725 Q512.232 200.336 512.232 207.188 Q512.232 214.017 515.38 217.651 Q518.528 221.262 524.454 221.262 Q527.463 221.262 530.125 220.174 Q532.81 219.086 535.171 216.887 L535.171 221.771 Q532.718 223.438 529.963 224.271 Q527.232 225.104 524.176 225.104 Q516.329 225.104 511.815 220.313 Q507.301 215.498 507.301 207.188 Q507.301 198.855 511.815 194.063 Q516.329 189.248 524.176 189.248 Q527.278 189.248 530.009 190.082 Q532.764 190.892 535.171 192.535 Z" fill="#000000" fill-rule="evenodd" fill-opacity="1" /><path clip-path="url(#clip790)" d="M557.231 202.489 Q556.514 202.072 555.657 201.887 Q554.824 201.679 553.806 201.679 Q550.194 201.679 548.25 204.04 Q546.329 206.378 546.329 210.776 L546.329 224.433 L542.046 224.433 L542.046 198.507 L546.329 198.507 L546.329 202.535 Q547.671 200.174 549.824 199.04 Q551.977 197.882 555.056 197.882 Q555.495 197.882 556.028 197.952 Q556.56 197.998 557.208 198.114 L557.231 202.489 Z" fill="#000000" fill-rule="evenodd" fill-opacity="1" /><path clip-path="url(#clip790)" d="M561.699 198.507 L565.958 198.507 L565.958 224.433 L561.699 224.433 L561.699 198.507 M561.699 188.415 L565.958 188.415 L565.958 193.808 L561.699 193.808 L561.699 188.415 Z" fill="#000000" fill-rule="evenodd" fill-opacity="1" /><path clip-path="url(#clip790)" d="M579.083 191.146 L579.083 198.507 L587.856 198.507 L587.856 201.818 L579.083 201.818 L579.083 215.892 Q579.083 219.063 579.94 219.966 Q580.819 220.868 583.481 220.868 L587.856 220.868 L587.856 224.433 L583.481 224.433 Q578.551 224.433 576.676 222.604 Q574.801 220.753 574.801 215.892 L574.801 201.818 L571.676 201.818 L571.676 198.507 L574.801 198.507 L574.801 191.146 L579.083 191.146 Z" fill="#000000" fill-rule="evenodd" fill-opacity="1" /><path clip-path="url(#clip790)" d="M593.458 198.507 L597.717 198.507 L597.717 224.433 L593.458 224.433 L593.458 198.507 M593.458 188.415 L597.717 188.415 L597.717 193.808 L593.458 193.808 L593.458 188.415 Z" fill="#000000" fill-rule="evenodd" fill-opacity="1" /><path clip-path="url(#clip790)" d="M625.287 199.503 L625.287 203.484 Q623.481 202.489 621.652 202.003 Q619.847 201.493 617.995 201.493 Q613.852 201.493 611.56 204.132 Q609.268 206.748 609.268 211.493 Q609.268 216.239 611.56 218.878 Q613.852 221.493 617.995 221.493 Q619.847 221.493 621.652 221.007 Q623.481 220.498 625.287 219.503 L625.287 223.438 Q623.504 224.271 621.583 224.688 Q619.685 225.104 617.532 225.104 Q611.676 225.104 608.227 221.424 Q604.778 217.743 604.778 211.493 Q604.778 205.151 608.25 201.517 Q611.745 197.882 617.81 197.882 Q619.777 197.882 621.652 198.299 Q623.527 198.693 625.287 199.503 Z" fill="#000000" fill-rule="evenodd" fill-opacity="1" /><path clip-path="url(#clip790)" d="M644.476 211.401 Q639.314 211.401 637.324 212.581 Q635.333 213.762 635.333 216.609 Q635.333 218.878 636.814 220.22 Q638.319 221.54 640.888 221.54 Q644.43 221.54 646.56 219.04 Q648.712 216.517 648.712 212.35 L648.712 211.401 L644.476 211.401 M652.972 209.642 L652.972 224.433 L648.712 224.433 L648.712 220.498 Q647.254 222.859 645.078 223.993 Q642.902 225.104 639.754 225.104 Q635.773 225.104 633.412 222.882 Q631.074 220.637 631.074 216.887 Q631.074 212.512 633.99 210.29 Q636.93 208.068 642.74 208.068 L648.712 208.068 L648.712 207.651 Q648.712 204.711 646.768 203.114 Q644.847 201.493 641.351 201.493 Q639.129 201.493 637.023 202.026 Q634.916 202.558 632.972 203.623 L632.972 199.688 Q635.31 198.785 637.509 198.345 Q639.708 197.882 641.791 197.882 Q647.416 197.882 650.194 200.799 Q652.972 203.716 652.972 209.642 Z" fill="#000000" fill-rule="evenodd" fill-opacity="1" /><path clip-path="url(#clip790)" d="M661.745 188.415 L666.004 188.415 L666.004 224.433 L661.745 224.433 L661.745 188.415 Z" fill="#000000" fill-rule="evenodd" fill-opacity="1" /><path clip-path="url(#clip790)" d="M694.106 220.544 L694.106 234.294 L689.823 234.294 L689.823 198.507 L694.106 198.507 L694.106 202.443 Q695.448 200.128 697.485 199.017 Q699.546 197.882 702.393 197.882 Q707.115 197.882 710.055 201.632 Q713.018 205.382 713.018 211.493 Q713.018 217.605 710.055 221.355 Q707.115 225.104 702.393 225.104 Q699.546 225.104 697.485 223.993 Q695.448 222.859 694.106 220.544 M708.596 211.493 Q708.596 206.794 706.652 204.132 Q704.731 201.447 701.351 201.447 Q697.971 201.447 696.027 204.132 Q694.106 206.794 694.106 211.493 Q694.106 216.192 696.027 218.878 Q697.971 221.54 701.351 221.54 Q704.731 221.54 706.652 218.878 Q708.596 216.192 708.596 211.493 Z" fill="#000000" fill-rule="evenodd" fill-opacity="1" /><path clip-path="url(#clip790)" d="M730.124 201.493 Q726.698 201.493 724.707 204.179 Q722.717 206.841 722.717 211.493 Q722.717 216.146 724.684 218.831 Q726.675 221.493 730.124 221.493 Q733.527 221.493 735.518 218.808 Q737.508 216.123 737.508 211.493 Q737.508 206.887 735.518 204.202 Q733.527 201.493 730.124 201.493 M730.124 197.882 Q735.68 197.882 738.851 201.493 Q742.022 205.105 742.022 211.493 Q742.022 217.859 738.851 221.493 Q735.68 225.104 730.124 225.104 Q724.545 225.104 721.374 221.493 Q718.226 217.859 718.226 211.493 Q718.226 205.105 721.374 201.493 Q724.545 197.882 730.124 197.882 Z" fill="#000000" fill-rule="evenodd" fill-opacity="1" /><path clip-path="url(#clip790)" d="M749.082 198.507 L753.342 198.507 L753.342 224.433 L749.082 224.433 L749.082 198.507 M749.082 188.415 L753.342 188.415 L753.342 193.808 L749.082 193.808 L749.082 188.415 Z" fill="#000000" fill-rule="evenodd" fill-opacity="1" /><path clip-path="url(#clip790)" d="M783.804 208.785 L783.804 224.433 L779.545 224.433 L779.545 208.924 Q779.545 205.243 778.11 203.415 Q776.675 201.586 773.804 201.586 Q770.355 201.586 768.365 203.785 Q766.374 205.984 766.374 209.78 L766.374 224.433 L762.091 224.433 L762.091 198.507 L766.374 198.507 L766.374 202.535 Q767.902 200.197 769.962 199.04 Q772.045 197.882 774.753 197.882 Q779.221 197.882 781.513 200.66 Q783.804 203.415 783.804 208.785 Z" fill="#000000" fill-rule="evenodd" fill-opacity="1" /><path clip-path="url(#clip790)" d="M796.513 191.146 L796.513 198.507 L805.286 198.507 L805.286 201.818 L796.513 201.818 L796.513 215.892 Q796.513 219.063 797.369 219.966 Q798.249 220.868 800.911 220.868 L805.286 220.868 L805.286 224.433 L800.911 224.433 Q795.98 224.433 794.105 222.604 Q792.23 220.753 792.23 215.892 L792.23 201.818 L789.105 201.818 L789.105 198.507 L792.23 198.507 L792.23 191.146 L796.513 191.146 Z" fill="#000000" fill-rule="evenodd" fill-opacity="1" /><circle clip-path="url(#clip790)" cx="399.278" cy="258.993" r="23.04" fill="#3da44d" fill-rule="evenodd" fill-opacity="1" stroke="#000000" stroke-opacity="1" stroke-width="6.144"/>
<path clip-path="url(#clip790)" d="M507.301 241.713 L536.537 241.713 L536.537 245.648 L524.269 245.648 L524.269 276.273 L519.57 276.273 L519.57 245.648 L507.301 245.648 L507.301 241.713 Z" fill="#000000" fill-rule="evenodd" fill-opacity="1" /><path clip-path="url(#clip790)" d="M548.921 254.329 Q548.204 253.912 547.347 253.727 Q546.514 253.519 545.495 253.519 Q541.884 253.519 539.94 255.88 Q538.019 258.218 538.019 262.616 L538.019 276.273 L533.736 276.273 L533.736 250.347 L538.019 250.347 L538.019 254.375 Q539.361 252.014 541.514 250.88 Q543.667 249.722 546.745 249.722 Q547.185 249.722 547.718 249.792 Q548.25 249.838 548.898 249.954 L548.921 254.329 Z" fill="#000000" fill-rule="evenodd" fill-opacity="1" /><path clip-path="url(#clip790)" d="M553.389 250.347 L557.648 250.347 L557.648 276.273 L553.389 276.273 L553.389 250.347 M553.389 240.255 L557.648 240.255 L557.648 245.648 L553.389 245.648 L553.389 240.255 Z" fill="#000000" fill-rule="evenodd" fill-opacity="1" /><path clip-path="url(#clip790)" d="M570.68 272.384 L570.68 286.134 L566.398 286.134 L566.398 250.347 L570.68 250.347 L570.68 254.283 Q572.023 251.968 574.06 250.857 Q576.12 249.722 578.967 249.722 Q583.69 249.722 586.629 253.472 Q589.592 257.222 589.592 263.333 Q589.592 269.445 586.629 273.195 Q583.69 276.944 578.967 276.944 Q576.12 276.944 574.06 275.833 Q572.023 274.699 570.68 272.384 M585.171 263.333 Q585.171 258.634 583.227 255.972 Q581.305 253.287 577.926 253.287 Q574.546 253.287 572.602 255.972 Q570.68 258.634 570.68 263.333 Q570.68 268.032 572.602 270.718 Q574.546 273.38 577.926 273.38 Q581.305 273.38 583.227 270.718 Q585.171 268.032 585.171 263.333 Z" fill="#000000" fill-rule="evenodd" fill-opacity="1" /><path clip-path="url(#clip790)" d="M596.653 240.255 L600.912 240.255 L600.912 276.273 L596.653 276.273 L596.653 240.255 Z" fill="#000000" fill-rule="evenodd" fill-opacity="1" /><path clip-path="url(#clip790)" d="M632 262.245 L632 264.329 L612.416 264.329 Q612.694 268.727 615.055 271.042 Q617.439 273.333 621.676 273.333 Q624.129 273.333 626.421 272.732 Q628.736 272.13 631.004 270.926 L631.004 274.954 Q628.713 275.926 626.305 276.435 Q623.898 276.944 621.421 276.944 Q615.217 276.944 611.583 273.333 Q607.972 269.722 607.972 263.565 Q607.972 257.199 611.398 253.472 Q614.847 249.722 620.68 249.722 Q625.912 249.722 628.944 253.102 Q632 256.458 632 262.245 M627.74 260.995 Q627.694 257.5 625.773 255.417 Q623.875 253.333 620.726 253.333 Q617.162 253.333 615.009 255.347 Q612.879 257.361 612.555 261.019 L627.74 260.995 Z" fill="#000000" fill-rule="evenodd" fill-opacity="1" /><path clip-path="url(#clip790)" d="M658.18 272.384 L658.18 286.134 L653.898 286.134 L653.898 250.347 L658.18 250.347 L658.18 254.283 Q659.523 251.968 661.56 250.857 Q663.62 249.722 666.467 249.722 Q671.189 249.722 674.129 253.472 Q677.092 257.222 677.092 263.333 Q677.092 269.445 674.129 273.195 Q671.189 276.944 666.467 276.944 Q663.62 276.944 661.56 275.833 Q659.523 274.699 658.18 272.384 M672.671 263.333 Q672.671 258.634 670.726 255.972 Q668.805 253.287 665.425 253.287 Q662.046 253.287 660.101 255.972 Q658.18 258.634 658.18 263.333 Q658.18 268.032 660.101 270.718 Q662.046 273.38 665.425 273.38 Q668.805 273.38 670.726 270.718 Q672.671 268.032 672.671 263.333 Z" fill="#000000" fill-rule="evenodd" fill-opacity="1" /><path clip-path="url(#clip790)" d="M694.198 253.333 Q690.772 253.333 688.782 256.019 Q686.791 258.681 686.791 263.333 Q686.791 267.986 688.759 270.671 Q690.749 273.333 694.198 273.333 Q697.601 273.333 699.592 270.648 Q701.583 267.963 701.583 263.333 Q701.583 258.727 699.592 256.042 Q697.601 253.333 694.198 253.333 M694.198 249.722 Q699.754 249.722 702.925 253.333 Q706.096 256.945 706.096 263.333 Q706.096 269.699 702.925 273.333 Q699.754 276.944 694.198 276.944 Q688.62 276.944 685.448 273.333 Q682.3 269.699 682.3 263.333 Q682.3 256.945 685.448 253.333 Q688.62 249.722 694.198 249.722 Z" fill="#000000" fill-rule="evenodd" fill-opacity="1" /><path clip-path="url(#clip790)" d="M713.157 250.347 L717.416 250.347 L717.416 276.273 L713.157 276.273 L713.157 250.347 M713.157 240.255 L717.416 240.255 L717.416 245.648 L713.157 245.648 L713.157 240.255 Z" fill="#000000" fill-rule="evenodd" fill-opacity="1" /><path clip-path="url(#clip790)" d="M747.879 260.625 L747.879 276.273 L743.619 276.273 L743.619 260.764 Q743.619 257.083 742.184 255.255 Q740.749 253.426 737.879 253.426 Q734.43 253.426 732.439 255.625 Q730.448 257.824 730.448 261.62 L730.448 276.273 L726.166 276.273 L726.166 250.347 L730.448 250.347 L730.448 254.375 Q731.976 252.037 734.036 250.88 Q736.119 249.722 738.828 249.722 Q743.295 249.722 745.587 252.5 Q747.879 255.255 747.879 260.625 Z" fill="#000000" fill-rule="evenodd" fill-opacity="1" /><path clip-path="url(#clip790)" d="M760.587 242.986 L760.587 250.347 L769.36 250.347 L769.36 253.658 L760.587 253.658 L760.587 267.732 Q760.587 270.903 761.443 271.806 Q762.323 272.708 764.985 272.708 L769.36 272.708 L769.36 276.273 L764.985 276.273 Q760.054 276.273 758.179 274.444 Q756.304 272.593 756.304 267.732 L756.304 253.658 L753.179 253.658 L753.179 250.347 L756.304 250.347 L756.304 242.986 L760.587 242.986 Z" fill="#000000" fill-rule="evenodd" fill-opacity="1" /></svg>
