<?xml version="1.0" encoding="utf-8"?>
<svg xmlns="http://www.w3.org/2000/svg" xmlns:xlink="http://www.w3.org/1999/xlink" width="672" height="480" viewBox="0 0 2688 1920">
<defs>
  <clipPath id="clip650">
    <rect x="0" y="0" width="2688" height="1920"/>
  </clipPath>
</defs>
<path clip-path="url(#clip650)" d="M0 1920 L2688 1920 L2688 0 L0 0  Z" fill="#ffffff" fill-rule="evenodd" fill-opacity="1"/>
<defs>
  <clipPath id="clip651">
    <rect x="537" y="0" width="1883" height="1883"/>
  </clipPath>
</defs>
<path clip-path="url(#clip650)" d="M255.816 1734.12 L2640.76 1734.12 L2640.76 47.2441 L255.816 47.2441  Z" fill="#ffffff" fill-rule="evenodd" fill-opacity="1"/>
<defs>
  <clipPath id="clip652">
    <rect x="255" y="47" width="2386" height="1688"/>
  </clipPath>
</defs>
<polyline clip-path="url(#clip652)" style="stroke:#5f9ea0; stroke-linecap:round; stroke-linejoin:round; stroke-width:8; stroke-opacity:0.4; fill:none" stroke-dasharray="32, 16, 4, 16" points="434.529,1734.12 434.529,47.2441 "/>
<polyline clip-path="url(#clip652)" style="stroke:#5f9ea0; stroke-linecap:round; stroke-linejoin:round; stroke-width:8; stroke-opacity:0.4; fill:none" stroke-dasharray="32, 16, 4, 16" points="862.274,1734.12 862.274,47.2441 "/>
<polyline clip-path="url(#clip652)" style="stroke:#5f9ea0; stroke-linecap:round; stroke-linejoin:round; stroke-width:8; stroke-opacity:0.4; fill:none" stroke-dasharray="32, 16, 4, 16" points="1290.02,1734.12 1290.02,47.2441 "/>
<polyline clip-path="url(#clip652)" style="stroke:#5f9ea0; stroke-linecap:round; stroke-linejoin:round; stroke-width:8; stroke-opacity:0.4; fill:none" stroke-dasharray="32, 16, 4, 16" points="1717.77,1734.12 1717.77,47.2441 "/>
<polyline clip-path="url(#clip652)" style="stroke:#5f9ea0; stroke-linecap:round; stroke-linejoin:round; stroke-width:8; stroke-opacity:0.4; fill:none" stroke-dasharray="32, 16, 4, 16" points="2145.51,1734.12 2145.51,47.2441 "/>
<polyline clip-path="url(#clip652)" style="stroke:#5f9ea0; stroke-linecap:round; stroke-linejoin:round; stroke-width:8; stroke-opacity:0.4; fill:none" stroke-dasharray="32, 16, 4, 16" points="2573.26,1734.12 2573.26,47.2441 "/>
<polyline clip-path="url(#clip650)" style="stroke:#000000; stroke-linecap:round; stroke-linejoin:round; stroke-width:4; stroke-opacity:1; fill:none" points="255.816,1734.12 2640.76,1734.12 "/>
<polyline clip-path="url(#clip650)" style="stroke:#000000; stroke-linecap:round; stroke-linejoin:round; stroke-width:4; stroke-opacity:1; fill:none" points="255.816,47.2441 2640.76,47.2441 "/>
<polyline clip-path="url(#clip650)" style="stroke:#000000; stroke-linecap:round; stroke-linejoin:round; stroke-width:4; stroke-opacity:1; fill:none" points="434.529,1734.12 434.529,1715.22 "/>
<polyline clip-path="url(#clip650)" style="stroke:#000000; stroke-linecap:round; stroke-linejoin:round; stroke-width:4; stroke-opacity:1; fill:none" points="862.274,1734.12 862.274,1715.22 "/>
<polyline clip-path="url(#clip650)" style="stroke:#000000; stroke-linecap:round; stroke-linejoin:round; stroke-width:4; stroke-opacity:1; fill:none" points="1290.02,1734.12 1290.02,1715.22 "/>
<polyline clip-path="url(#clip650)" style="stroke:#000000; stroke-linecap:round; stroke-linejoin:round; stroke-width:4; stroke-opacity:1; fill:none" points="1717.77,1734.12 1717.77,1715.22 "/>
<polyline clip-path="url(#clip650)" style="stroke:#000000; stroke-linecap:round; stroke-linejoin:round; stroke-width:4; stroke-opacity:1; fill:none" points="2145.51,1734.12 2145.51,1715.22 "/>
<polyline clip-path="url(#clip650)" style="stroke:#000000; stroke-linecap:round; stroke-linejoin:round; stroke-width:4; stroke-opacity:1; fill:none" points="2573.26,1734.12 2573.26,1715.22 "/>
<path clip-path="url(#clip650)" d="M408.29 1780.19 Q411.647 1780.9 413.522 1783.17 Q415.42 1785.44 415.42 1788.77 Q415.42 1793.89 411.901 1796.69 Q408.383 1799.49 401.901 1799.49 Q399.725 1799.49 397.411 1799.05 Q395.119 1798.64 392.665 1797.78 L392.665 1793.27 Q394.61 1794.4 396.925 1794.98 Q399.239 1795.56 401.762 1795.56 Q406.161 1795.56 408.452 1793.82 Q410.767 1792.08 410.767 1788.77 Q410.767 1785.72 408.614 1784.01 Q406.485 1782.27 402.665 1782.27 L398.638 1782.27 L398.638 1778.43 L402.85 1778.43 Q406.3 1778.43 408.128 1777.06 Q409.957 1775.67 409.957 1773.08 Q409.957 1770.42 408.059 1769.01 Q406.184 1767.57 402.665 1767.57 Q400.744 1767.57 398.545 1767.99 Q396.346 1768.4 393.707 1769.28 L393.707 1765.12 Q396.369 1764.38 398.684 1764.01 Q401.022 1763.64 403.082 1763.64 Q408.406 1763.64 411.508 1766.07 Q414.61 1768.47 414.61 1772.59 Q414.61 1775.46 412.966 1777.46 Q411.323 1779.42 408.29 1780.19 Z" fill="#000000" fill-rule="evenodd" fill-opacity="1" /><path clip-path="url(#clip650)" d="M434.285 1767.34 Q430.674 1767.34 428.846 1770.9 Q427.04 1774.45 427.04 1781.58 Q427.04 1788.68 428.846 1792.25 Q430.674 1795.79 434.285 1795.79 Q437.92 1795.79 439.725 1792.25 Q441.554 1788.68 441.554 1781.58 Q441.554 1774.45 439.725 1770.9 Q437.92 1767.34 434.285 1767.34 M434.285 1763.64 Q440.096 1763.64 443.151 1768.24 Q446.23 1772.83 446.23 1781.58 Q446.23 1790.3 443.151 1794.91 Q440.096 1799.49 434.285 1799.49 Q428.475 1799.49 425.397 1794.91 Q422.341 1790.3 422.341 1781.58 Q422.341 1772.83 425.397 1768.24 Q428.475 1763.64 434.285 1763.64 Z" fill="#000000" fill-rule="evenodd" fill-opacity="1" /><path clip-path="url(#clip650)" d="M464.447 1767.34 Q460.836 1767.34 459.008 1770.9 Q457.202 1774.45 457.202 1781.58 Q457.202 1788.68 459.008 1792.25 Q460.836 1795.79 464.447 1795.79 Q468.082 1795.79 469.887 1792.25 Q471.716 1788.68 471.716 1781.58 Q471.716 1774.45 469.887 1770.9 Q468.082 1767.34 464.447 1767.34 M464.447 1763.64 Q470.257 1763.64 473.313 1768.24 Q476.392 1772.83 476.392 1781.58 Q476.392 1790.3 473.313 1794.91 Q470.257 1799.49 464.447 1799.49 Q458.637 1799.49 455.559 1794.91 Q452.503 1790.3 452.503 1781.58 Q452.503 1772.83 455.559 1768.24 Q458.637 1763.64 464.447 1763.64 Z" fill="#000000" fill-rule="evenodd" fill-opacity="1" /><path clip-path="url(#clip650)" d="M835.365 1768.34 L823.559 1786.78 L835.365 1786.78 L835.365 1768.34 M834.138 1764.26 L840.018 1764.26 L840.018 1786.78 L844.948 1786.78 L844.948 1790.67 L840.018 1790.67 L840.018 1798.82 L835.365 1798.82 L835.365 1790.67 L819.763 1790.67 L819.763 1786.16 L834.138 1764.26 Z" fill="#000000" fill-rule="evenodd" fill-opacity="1" /><path clip-path="url(#clip650)" d="M862.679 1767.34 Q859.068 1767.34 857.24 1770.9 Q855.434 1774.45 855.434 1781.58 Q855.434 1788.68 857.24 1792.25 Q859.068 1795.79 862.679 1795.79 Q866.314 1795.79 868.119 1792.25 Q869.948 1788.68 869.948 1781.58 Q869.948 1774.45 868.119 1770.9 Q866.314 1767.34 862.679 1767.34 M862.679 1763.64 Q868.49 1763.64 871.545 1768.24 Q874.624 1772.83 874.624 1781.58 Q874.624 1790.3 871.545 1794.91 Q868.49 1799.49 862.679 1799.49 Q856.869 1799.49 853.791 1794.91 Q850.735 1790.3 850.735 1781.58 Q850.735 1772.83 853.791 1768.24 Q856.869 1763.64 862.679 1763.64 Z" fill="#000000" fill-rule="evenodd" fill-opacity="1" /><path clip-path="url(#clip650)" d="M892.841 1767.34 Q889.23 1767.34 887.402 1770.9 Q885.596 1774.45 885.596 1781.58 Q885.596 1788.68 887.402 1792.25 Q889.23 1795.79 892.841 1795.79 Q896.476 1795.79 898.281 1792.25 Q900.11 1788.68 900.11 1781.58 Q900.11 1774.45 898.281 1770.9 Q896.476 1767.34 892.841 1767.34 M892.841 1763.64 Q898.651 1763.64 901.707 1768.24 Q904.786 1772.83 904.786 1781.58 Q904.786 1790.3 901.707 1794.91 Q898.651 1799.49 892.841 1799.49 Q887.031 1799.49 883.952 1794.91 Q880.897 1790.3 880.897 1781.58 Q880.897 1772.83 883.952 1768.24 Q887.031 1763.64 892.841 1763.64 Z" fill="#000000" fill-rule="evenodd" fill-opacity="1" /><path clip-path="url(#clip650)" d="M1249.64 1764.26 L1267.99 1764.26 L1267.99 1768.2 L1253.92 1768.2 L1253.92 1776.67 Q1254.94 1776.32 1255.96 1776.16 Q1256.98 1775.97 1257.99 1775.97 Q1263.78 1775.97 1267.16 1779.15 Q1270.54 1782.32 1270.54 1787.73 Q1270.54 1793.31 1267.07 1796.41 Q1263.6 1799.49 1257.28 1799.49 Q1255.1 1799.49 1252.83 1799.12 Q1250.59 1798.75 1248.18 1798.01 L1248.18 1793.31 Q1250.26 1794.45 1252.49 1795 Q1254.71 1795.56 1257.18 1795.56 Q1261.19 1795.56 1263.53 1793.45 Q1265.87 1791.34 1265.87 1787.73 Q1265.87 1784.12 1263.53 1782.02 Q1261.19 1779.91 1257.18 1779.91 Q1255.31 1779.91 1253.43 1780.33 Q1251.58 1780.74 1249.64 1781.62 L1249.64 1764.26 Z" fill="#000000" fill-rule="evenodd" fill-opacity="1" /><path clip-path="url(#clip650)" d="M1289.75 1767.34 Q1286.14 1767.34 1284.31 1770.9 Q1282.51 1774.45 1282.51 1781.58 Q1282.51 1788.68 1284.31 1792.25 Q1286.14 1795.79 1289.75 1795.79 Q1293.39 1795.79 1295.19 1792.25 Q1297.02 1788.68 1297.02 1781.58 Q1297.02 1774.45 1295.19 1770.9 Q1293.39 1767.34 1289.75 1767.34 M1289.75 1763.64 Q1295.56 1763.64 1298.62 1768.24 Q1301.7 1772.83 1301.7 1781.58 Q1301.7 1790.3 1298.62 1794.91 Q1295.56 1799.49 1289.75 1799.49 Q1283.94 1799.49 1280.87 1794.91 Q1277.81 1790.3 1277.81 1781.58 Q1277.81 1772.83 1280.87 1768.24 Q1283.94 1763.64 1289.75 1763.64 Z" fill="#000000" fill-rule="evenodd" fill-opacity="1" /><path clip-path="url(#clip650)" d="M1319.92 1767.34 Q1316.3 1767.34 1314.48 1770.9 Q1312.67 1774.45 1312.67 1781.58 Q1312.67 1788.68 1314.48 1792.25 Q1316.3 1795.79 1319.92 1795.79 Q1323.55 1795.79 1325.36 1792.25 Q1327.18 1788.68 1327.18 1781.58 Q1327.18 1774.45 1325.36 1770.9 Q1323.55 1767.34 1319.92 1767.34 M1319.92 1763.64 Q1325.73 1763.64 1328.78 1768.24 Q1331.86 1772.83 1331.86 1781.58 Q1331.86 1790.3 1328.78 1794.91 Q1325.73 1799.49 1319.92 1799.49 Q1314.11 1799.49 1311.03 1794.91 Q1307.97 1790.3 1307.97 1781.58 Q1307.97 1772.83 1311.03 1768.24 Q1314.11 1763.64 1319.92 1763.64 Z" fill="#000000" fill-rule="evenodd" fill-opacity="1" /><path clip-path="url(#clip650)" d="M1688.09 1779.68 Q1684.94 1779.68 1683.09 1781.83 Q1681.26 1783.98 1681.26 1787.73 Q1681.26 1791.46 1683.09 1793.64 Q1684.94 1795.79 1688.09 1795.79 Q1691.24 1795.79 1693.07 1793.64 Q1694.92 1791.46 1694.92 1787.73 Q1694.92 1783.98 1693.07 1781.83 Q1691.24 1779.68 1688.09 1779.68 M1697.37 1765.02 L1697.37 1769.28 Q1695.61 1768.45 1693.81 1768.01 Q1692.03 1767.57 1690.27 1767.57 Q1685.64 1767.57 1683.18 1770.7 Q1680.75 1773.82 1680.41 1780.14 Q1681.77 1778.13 1683.83 1777.06 Q1685.89 1775.97 1688.37 1775.97 Q1693.58 1775.97 1696.59 1779.15 Q1699.62 1782.29 1699.62 1787.73 Q1699.62 1793.06 1696.47 1796.27 Q1693.32 1799.49 1688.09 1799.49 Q1682.09 1799.49 1678.92 1794.91 Q1675.75 1790.3 1675.75 1781.58 Q1675.75 1773.38 1679.64 1768.52 Q1683.53 1763.64 1690.08 1763.64 Q1691.84 1763.64 1693.62 1763.98 Q1695.43 1764.33 1697.37 1765.02 Z" fill="#000000" fill-rule="evenodd" fill-opacity="1" /><path clip-path="url(#clip650)" d="M1717.67 1767.34 Q1714.06 1767.34 1712.23 1770.9 Q1710.43 1774.45 1710.43 1781.58 Q1710.43 1788.68 1712.23 1792.25 Q1714.06 1795.79 1717.67 1795.79 Q1721.31 1795.79 1723.11 1792.25 Q1724.94 1788.68 1724.94 1781.58 Q1724.94 1774.45 1723.11 1770.9 Q1721.31 1767.34 1717.67 1767.34 M1717.67 1763.64 Q1723.48 1763.64 1726.54 1768.24 Q1729.62 1772.83 1729.62 1781.58 Q1729.62 1790.3 1726.54 1794.91 Q1723.48 1799.49 1717.67 1799.49 Q1711.86 1799.49 1708.78 1794.91 Q1705.73 1790.3 1705.73 1781.58 Q1705.73 1772.83 1708.78 1768.24 Q1711.86 1763.64 1717.67 1763.64 Z" fill="#000000" fill-rule="evenodd" fill-opacity="1" /><path clip-path="url(#clip650)" d="M1747.84 1767.34 Q1744.22 1767.34 1742.4 1770.9 Q1740.59 1774.45 1740.59 1781.58 Q1740.59 1788.68 1742.4 1792.25 Q1744.22 1795.79 1747.84 1795.79 Q1751.47 1795.79 1753.28 1792.25 Q1755.1 1788.68 1755.1 1781.58 Q1755.1 1774.45 1753.28 1770.9 Q1751.47 1767.34 1747.84 1767.34 M1747.84 1763.64 Q1753.65 1763.64 1756.7 1768.24 Q1759.78 1772.83 1759.78 1781.58 Q1759.78 1790.3 1756.7 1794.91 Q1753.65 1799.49 1747.84 1799.49 Q1742.03 1799.49 1738.95 1794.91 Q1735.89 1790.3 1735.89 1781.58 Q1735.89 1772.83 1738.95 1768.24 Q1742.03 1763.64 1747.84 1763.64 Z" fill="#000000" fill-rule="evenodd" fill-opacity="1" /><path clip-path="url(#clip650)" d="M2103.79 1764.26 L2126.01 1764.26 L2126.01 1766.25 L2113.46 1798.82 L2108.58 1798.82 L2120.38 1768.2 L2103.79 1768.2 L2103.79 1764.26 Z" fill="#000000" fill-rule="evenodd" fill-opacity="1" /><path clip-path="url(#clip650)" d="M2145.13 1767.34 Q2141.52 1767.34 2139.69 1770.9 Q2137.88 1774.45 2137.88 1781.58 Q2137.88 1788.68 2139.69 1792.25 Q2141.52 1795.79 2145.13 1795.79 Q2148.76 1795.79 2150.57 1792.25 Q2152.4 1788.68 2152.4 1781.58 Q2152.4 1774.45 2150.57 1770.9 Q2148.76 1767.34 2145.13 1767.34 M2145.13 1763.64 Q2150.94 1763.64 2154 1768.24 Q2157.07 1772.83 2157.07 1781.58 Q2157.07 1790.3 2154 1794.91 Q2150.94 1799.49 2145.13 1799.49 Q2139.32 1799.49 2136.24 1794.91 Q2133.19 1790.3 2133.19 1781.58 Q2133.19 1772.83 2136.24 1768.24 Q2139.32 1763.64 2145.13 1763.64 Z" fill="#000000" fill-rule="evenodd" fill-opacity="1" /><path clip-path="url(#clip650)" d="M2175.29 1767.34 Q2171.68 1767.34 2169.85 1770.9 Q2168.05 1774.45 2168.05 1781.58 Q2168.05 1788.68 2169.85 1792.25 Q2171.68 1795.79 2175.29 1795.79 Q2178.93 1795.79 2180.73 1792.25 Q2182.56 1788.68 2182.56 1781.58 Q2182.56 1774.45 2180.73 1770.9 Q2178.93 1767.34 2175.29 1767.34 M2175.29 1763.64 Q2181.1 1763.64 2184.16 1768.24 Q2187.24 1772.83 2187.24 1781.58 Q2187.24 1790.3 2184.16 1794.91 Q2181.1 1799.49 2175.29 1799.49 Q2169.48 1799.49 2166.4 1794.91 Q2163.35 1790.3 2163.35 1781.58 Q2163.35 1772.83 2166.4 1768.24 Q2169.48 1763.64 2175.29 1763.64 Z" fill="#000000" fill-rule="evenodd" fill-opacity="1" /><path clip-path="url(#clip650)" d="M2543.05 1782.41 Q2539.72 1782.41 2537.79 1784.19 Q2535.9 1785.97 2535.9 1789.1 Q2535.9 1792.22 2537.79 1794.01 Q2539.72 1795.79 2543.05 1795.79 Q2546.38 1795.79 2548.3 1794.01 Q2550.23 1792.2 2550.23 1789.1 Q2550.23 1785.97 2548.3 1784.19 Q2546.41 1782.41 2543.05 1782.41 M2538.37 1780.42 Q2535.36 1779.68 2533.67 1777.62 Q2532.01 1775.56 2532.01 1772.59 Q2532.01 1768.45 2534.95 1766.04 Q2537.91 1763.64 2543.05 1763.64 Q2548.21 1763.64 2551.15 1766.04 Q2554.09 1768.45 2554.09 1772.59 Q2554.09 1775.56 2552.4 1777.62 Q2550.73 1779.68 2547.75 1780.42 Q2551.13 1781.21 2553 1783.5 Q2554.9 1785.79 2554.9 1789.1 Q2554.9 1794.12 2551.82 1796.81 Q2548.77 1799.49 2543.05 1799.49 Q2537.33 1799.49 2534.25 1796.81 Q2531.2 1794.12 2531.2 1789.1 Q2531.2 1785.79 2533.1 1783.5 Q2534.99 1781.21 2538.37 1780.42 M2536.66 1773.03 Q2536.66 1775.72 2538.33 1777.22 Q2540.02 1778.73 2543.05 1778.73 Q2546.06 1778.73 2547.75 1777.22 Q2549.46 1775.72 2549.46 1773.03 Q2549.46 1770.35 2547.75 1768.84 Q2546.06 1767.34 2543.05 1767.34 Q2540.02 1767.34 2538.33 1768.84 Q2536.66 1770.35 2536.66 1773.03 Z" fill="#000000" fill-rule="evenodd" fill-opacity="1" /><path clip-path="url(#clip650)" d="M2573.21 1767.34 Q2569.6 1767.34 2567.77 1770.9 Q2565.97 1774.45 2565.97 1781.58 Q2565.97 1788.68 2567.77 1792.25 Q2569.6 1795.79 2573.21 1795.79 Q2576.85 1795.79 2578.65 1792.25 Q2580.48 1788.68 2580.48 1781.58 Q2580.48 1774.45 2578.65 1770.9 Q2576.85 1767.34 2573.21 1767.34 M2573.21 1763.64 Q2579.02 1763.64 2582.08 1768.24 Q2585.16 1772.83 2585.16 1781.58 Q2585.16 1790.3 2582.08 1794.91 Q2579.02 1799.49 2573.21 1799.49 Q2567.4 1799.49 2564.32 1794.91 Q2561.27 1790.3 2561.27 1781.58 Q2561.27 1772.83 2564.32 1768.24 Q2567.4 1763.64 2573.21 1763.64 Z" fill="#000000" fill-rule="evenodd" fill-opacity="1" /><path clip-path="url(#clip650)" d="M2603.37 1767.34 Q2599.76 1767.34 2597.93 1770.9 Q2596.13 1774.45 2596.13 1781.58 Q2596.13 1788.68 2597.93 1792.25 Q2599.76 1795.79 2603.37 1795.79 Q2607.01 1795.79 2608.81 1792.25 Q2610.64 1788.68 2610.64 1781.58 Q2610.64 1774.45 2608.81 1770.9 Q2607.01 1767.34 2603.37 1767.34 M2603.37 1763.64 Q2609.18 1763.64 2612.24 1768.24 Q2615.32 1772.83 2615.32 1781.58 Q2615.32 1790.3 2612.24 1794.91 Q2609.18 1799.49 2603.37 1799.49 Q2597.56 1799.49 2594.48 1794.91 Q2591.43 1790.3 2591.43 1781.58 Q2591.43 1772.83 2594.48 1768.24 Q2597.56 1763.64 2603.37 1763.64 Z" fill="#000000" fill-rule="evenodd" fill-opacity="1" /><path clip-path="url(#clip650)" d="M1187.37 1835.78 L1227.57 1835.78 L1227.57 1841.19 L1210.7 1841.19 L1210.7 1883.3 L1204.24 1883.3 L1204.24 1841.19 L1187.37 1841.19 L1187.37 1835.78 Z" fill="#000000" fill-rule="evenodd" fill-opacity="1" /><path clip-path="url(#clip650)" d="M1252.94 1864.01 L1252.94 1866.88 L1226.01 1866.88 Q1226.39 1872.92 1229.64 1876.11 Q1232.92 1879.26 1238.74 1879.26 Q1242.12 1879.26 1245.27 1878.43 Q1248.45 1877.6 1251.57 1875.95 L1251.57 1881.49 Q1248.42 1882.82 1245.11 1883.52 Q1241.8 1884.22 1238.39 1884.22 Q1229.86 1884.22 1224.87 1879.26 Q1219.9 1874.29 1219.9 1865.83 Q1219.9 1857.07 1224.61 1851.95 Q1229.35 1846.79 1237.37 1846.79 Q1244.57 1846.79 1248.74 1851.44 Q1252.94 1856.06 1252.94 1864.01 M1247.08 1862.29 Q1247.02 1857.49 1244.38 1854.62 Q1241.77 1851.76 1237.44 1851.76 Q1232.54 1851.76 1229.58 1854.53 Q1226.65 1857.3 1226.2 1862.33 L1247.08 1862.29 Z" fill="#000000" fill-rule="evenodd" fill-opacity="1" /><path clip-path="url(#clip650)" d="M1290.31 1854.5 Q1292.5 1850.55 1295.56 1848.67 Q1298.61 1846.79 1302.75 1846.79 Q1308.32 1846.79 1311.34 1850.71 Q1314.37 1854.59 1314.37 1861.78 L1314.37 1883.3 L1308.48 1883.3 L1308.48 1861.98 Q1308.48 1856.85 1306.67 1854.37 Q1304.85 1851.89 1301.13 1851.89 Q1296.58 1851.89 1293.93 1854.91 Q1291.29 1857.93 1291.29 1863.15 L1291.29 1883.3 L1285.4 1883.3 L1285.4 1861.98 Q1285.4 1856.82 1283.59 1854.37 Q1281.78 1851.89 1277.99 1851.89 Q1273.5 1851.89 1270.86 1854.94 Q1268.22 1857.97 1268.22 1863.15 L1268.22 1883.3 L1262.33 1883.3 L1262.33 1847.65 L1268.22 1847.65 L1268.22 1853.19 Q1270.22 1849.91 1273.02 1848.35 Q1275.82 1846.79 1279.67 1846.79 Q1283.56 1846.79 1286.26 1848.77 Q1289 1850.74 1290.31 1854.5 Z" fill="#000000" fill-rule="evenodd" fill-opacity="1" /><path clip-path="url(#clip650)" d="M1331.71 1877.95 L1331.71 1896.86 L1325.83 1896.86 L1325.83 1847.65 L1331.71 1847.65 L1331.71 1853.06 Q1333.56 1849.88 1336.36 1848.35 Q1339.19 1846.79 1343.11 1846.79 Q1349.6 1846.79 1353.64 1851.95 Q1357.72 1857.11 1357.72 1865.51 Q1357.72 1873.91 1353.64 1879.07 Q1349.6 1884.22 1343.11 1884.22 Q1339.19 1884.22 1336.36 1882.7 Q1333.56 1881.14 1331.71 1877.95 M1351.64 1865.51 Q1351.64 1859.05 1348.97 1855.39 Q1346.32 1851.7 1341.68 1851.7 Q1337.03 1851.7 1334.36 1855.39 Q1331.71 1859.05 1331.71 1865.51 Q1331.71 1871.97 1334.36 1875.66 Q1337.03 1879.32 1341.68 1879.32 Q1346.32 1879.32 1348.97 1875.66 Q1351.64 1871.97 1351.64 1865.51 Z" fill="#000000" fill-rule="evenodd" fill-opacity="1" /><path clip-path="url(#clip650)" d="M1397.92 1864.01 L1397.92 1866.88 L1370.99 1866.88 Q1371.37 1872.92 1374.62 1876.11 Q1377.9 1879.26 1383.72 1879.26 Q1387.1 1879.26 1390.25 1878.43 Q1393.43 1877.6 1396.55 1875.95 L1396.55 1881.49 Q1393.4 1882.82 1390.09 1883.52 Q1386.78 1884.22 1383.37 1884.22 Q1374.84 1884.22 1369.84 1879.26 Q1364.88 1874.29 1364.88 1865.83 Q1364.88 1857.07 1369.59 1851.95 Q1374.33 1846.79 1382.35 1846.79 Q1389.55 1846.79 1393.72 1851.44 Q1397.92 1856.06 1397.92 1864.01 M1392.06 1862.29 Q1392 1857.49 1389.36 1854.62 Q1386.75 1851.76 1382.42 1851.76 Q1377.52 1851.76 1374.56 1854.53 Q1371.63 1857.3 1371.18 1862.33 L1392.06 1862.29 Z" fill="#000000" fill-rule="evenodd" fill-opacity="1" /><path clip-path="url(#clip650)" d="M1428.19 1853.13 Q1427.2 1852.55 1426.02 1852.3 Q1424.88 1852.01 1423.48 1852.01 Q1418.51 1852.01 1415.84 1855.26 Q1413.2 1858.47 1413.2 1864.52 L1413.2 1883.3 L1407.31 1883.3 L1407.31 1847.65 L1413.2 1847.65 L1413.2 1853.19 Q1415.04 1849.94 1418 1848.39 Q1420.96 1846.79 1425.19 1846.79 Q1425.8 1846.79 1426.53 1846.89 Q1427.26 1846.95 1428.15 1847.11 L1428.19 1853.13 Z" fill="#000000" fill-rule="evenodd" fill-opacity="1" /><path clip-path="url(#clip650)" d="M1450.53 1865.38 Q1443.43 1865.38 1440.7 1867 Q1437.96 1868.63 1437.96 1872.54 Q1437.96 1875.66 1439.99 1877.51 Q1442.06 1879.32 1445.6 1879.32 Q1450.47 1879.32 1453.39 1875.88 Q1456.35 1872.42 1456.35 1866.69 L1456.35 1865.38 L1450.53 1865.38 M1462.21 1862.96 L1462.21 1883.3 L1456.35 1883.3 L1456.35 1877.89 Q1454.35 1881.14 1451.36 1882.7 Q1448.37 1884.22 1444.04 1884.22 Q1438.56 1884.22 1435.32 1881.17 Q1432.1 1878.08 1432.1 1872.92 Q1432.1 1866.91 1436.11 1863.85 Q1440.15 1860.8 1448.14 1860.8 L1456.35 1860.8 L1456.35 1860.23 Q1456.35 1856.18 1453.68 1853.99 Q1451.04 1851.76 1446.23 1851.76 Q1443.18 1851.76 1440.28 1852.49 Q1437.38 1853.22 1434.71 1854.69 L1434.71 1849.28 Q1437.93 1848.03 1440.95 1847.43 Q1443.97 1846.79 1446.84 1846.79 Q1454.57 1846.79 1458.39 1850.8 Q1462.21 1854.81 1462.21 1862.96 Z" fill="#000000" fill-rule="evenodd" fill-opacity="1" /><path clip-path="url(#clip650)" d="M1480.07 1837.53 L1480.07 1847.65 L1492.13 1847.65 L1492.13 1852.2 L1480.07 1852.2 L1480.07 1871.56 Q1480.07 1875.92 1481.24 1877.16 Q1482.45 1878.4 1486.11 1878.4 L1492.13 1878.4 L1492.13 1883.3 L1486.11 1883.3 Q1479.33 1883.3 1476.76 1880.79 Q1474.18 1878.24 1474.18 1871.56 L1474.18 1852.2 L1469.88 1852.2 L1469.88 1847.65 L1474.18 1847.65 L1474.18 1837.53 L1480.07 1837.53 Z" fill="#000000" fill-rule="evenodd" fill-opacity="1" /><path clip-path="url(#clip650)" d="M1499.23 1869.23 L1499.23 1847.65 L1505.08 1847.65 L1505.08 1869.01 Q1505.08 1874.07 1507.06 1876.62 Q1509.03 1879.13 1512.98 1879.13 Q1517.72 1879.13 1520.46 1876.11 Q1523.23 1873.08 1523.23 1867.86 L1523.23 1847.65 L1529.08 1847.65 L1529.08 1883.3 L1523.23 1883.3 L1523.23 1877.83 Q1521.09 1881.07 1518.26 1882.66 Q1515.46 1884.22 1511.74 1884.22 Q1505.59 1884.22 1502.41 1880.4 Q1499.23 1876.59 1499.23 1869.23 M1513.96 1846.79 L1513.96 1846.79 Z" fill="#000000" fill-rule="evenodd" fill-opacity="1" /><path clip-path="url(#clip650)" d="M1561.8 1853.13 Q1560.82 1852.55 1559.64 1852.3 Q1558.49 1852.01 1557.09 1852.01 Q1552.13 1852.01 1549.45 1855.26 Q1546.81 1858.47 1546.81 1864.52 L1546.81 1883.3 L1540.92 1883.3 L1540.92 1847.65 L1546.81 1847.65 L1546.81 1853.19 Q1548.66 1849.94 1551.62 1848.39 Q1554.58 1846.79 1558.81 1846.79 Q1559.42 1846.79 1560.15 1846.89 Q1560.88 1846.95 1561.77 1847.11 L1561.8 1853.13 Z" fill="#000000" fill-rule="evenodd" fill-opacity="1" /><path clip-path="url(#clip650)" d="M1597 1864.01 L1597 1866.88 L1570.08 1866.88 Q1570.46 1872.92 1573.71 1876.11 Q1576.98 1879.26 1582.81 1879.26 Q1586.18 1879.26 1589.33 1878.43 Q1592.52 1877.6 1595.64 1875.95 L1595.64 1881.49 Q1592.49 1882.82 1589.18 1883.52 Q1585.86 1884.22 1582.46 1884.22 Q1573.93 1884.22 1568.93 1879.26 Q1563.97 1874.29 1563.97 1865.83 Q1563.97 1857.07 1568.68 1851.95 Q1573.42 1846.79 1581.44 1846.79 Q1588.63 1846.79 1592.8 1851.44 Q1597 1856.06 1597 1864.01 M1591.15 1862.29 Q1591.08 1857.49 1588.44 1854.62 Q1585.83 1851.76 1581.5 1851.76 Q1576.6 1851.76 1573.64 1854.53 Q1570.71 1857.3 1570.27 1862.33 L1591.15 1862.29 Z" fill="#000000" fill-rule="evenodd" fill-opacity="1" /><path clip-path="url(#clip650)" d="M1626.8 1833.78 L1640.29 1833.78 L1640.29 1838.33 L1632.65 1838.33 L1632.65 1887.34 L1640.29 1887.34 L1640.29 1891.89 L1626.8 1891.89 L1626.8 1833.78 Z" fill="#000000" fill-rule="evenodd" fill-opacity="1" /><path clip-path="url(#clip650)" d="M1653.02 1835.78 L1659.45 1835.78 L1659.45 1855.86 L1680.78 1835.78 L1689.05 1835.78 L1665.47 1857.93 L1690.74 1883.3 L1682.27 1883.3 L1659.45 1860.42 L1659.45 1883.3 L1653.02 1883.3 L1653.02 1835.78 Z" fill="#000000" fill-rule="evenodd" fill-opacity="1" /><path clip-path="url(#clip650)" d="M1709.2 1833.78 L1709.2 1891.89 L1695.71 1891.89 L1695.71 1887.34 L1703.31 1887.34 L1703.31 1838.33 L1695.71 1838.33 L1695.71 1833.78 L1709.2 1833.78 Z" fill="#000000" fill-rule="evenodd" fill-opacity="1" /><polyline clip-path="url(#clip652)" style="stroke:#5f9ea0; stroke-linecap:round; stroke-linejoin:round; stroke-width:8; stroke-opacity:0.4; fill:none" stroke-dasharray="32, 16, 4, 16" points="255.816,1733.85 2640.76,1733.85 "/>
<polyline clip-path="url(#clip652)" style="stroke:#5f9ea0; stroke-linecap:round; stroke-linejoin:round; stroke-width:8; stroke-opacity:0.4; fill:none" stroke-dasharray="32, 16, 4, 16" points="255.816,1256.84 2640.76,1256.84 "/>
<polyline clip-path="url(#clip652)" style="stroke:#5f9ea0; stroke-linecap:round; stroke-linejoin:round; stroke-width:8; stroke-opacity:0.4; fill:none" stroke-dasharray="32, 16, 4, 16" points="255.816,779.833 2640.76,779.833 "/>
<polyline clip-path="url(#clip652)" style="stroke:#5f9ea0; stroke-linecap:round; stroke-linejoin:round; stroke-width:8; stroke-opacity:0.4; fill:none" stroke-dasharray="32, 16, 4, 16" points="255.816,302.827 2640.76,302.827 "/>
<polyline clip-path="url(#clip650)" style="stroke:#000000; stroke-linecap:round; stroke-linejoin:round; stroke-width:4; stroke-opacity:1; fill:none" points="255.816,1734.12 255.816,47.2441 "/>
<polyline clip-path="url(#clip650)" style="stroke:#000000; stroke-linecap:round; stroke-linejoin:round; stroke-width:4; stroke-opacity:1; fill:none" points="2640.76,1734.12 2640.76,47.2441 "/>
<polyline clip-path="url(#clip650)" style="stroke:#000000; stroke-linecap:round; stroke-linejoin:round; stroke-width:4; stroke-opacity:1; fill:none" points="255.816,1733.85 274.714,1733.85 "/>
<polyline clip-path="url(#clip650)" style="stroke:#000000; stroke-linecap:round; stroke-linejoin:round; stroke-width:4; stroke-opacity:1; fill:none" points="255.816,1256.84 274.714,1256.84 "/>
<polyline clip-path="url(#clip650)" style="stroke:#000000; stroke-linecap:round; stroke-linejoin:round; stroke-width:4; stroke-opacity:1; fill:none" points="255.816,779.833 274.714,779.833 "/>
<polyline clip-path="url(#clip650)" style="stroke:#000000; stroke-linecap:round; stroke-linejoin:round; stroke-width:4; stroke-opacity:1; fill:none" points="255.816,302.827 274.714,302.827 "/>
<path clip-path="url(#clip650)" d="M128.159 1719.64 Q124.548 1719.64 122.719 1723.21 Q120.913 1726.75 120.913 1733.88 Q120.913 1740.99 122.719 1744.55 Q124.548 1748.09 128.159 1748.09 Q131.793 1748.09 133.599 1744.55 Q135.427 1740.99 135.427 1733.88 Q135.427 1726.75 133.599 1723.21 Q131.793 1719.64 128.159 1719.64 M128.159 1715.94 Q133.969 1715.94 137.025 1720.55 Q140.103 1725.13 140.103 1733.88 Q140.103 1742.61 137.025 1747.21 Q133.969 1751.8 128.159 1751.8 Q122.349 1751.8 119.27 1747.21 Q116.214 1742.61 116.214 1733.88 Q116.214 1725.13 119.27 1720.55 Q122.349 1715.94 128.159 1715.94 Z" fill="#000000" fill-rule="evenodd" fill-opacity="1" /><path clip-path="url(#clip650)" d="M148.321 1745.25 L153.205 1745.25 L153.205 1751.13 L148.321 1751.13 L148.321 1745.25 Z" fill="#000000" fill-rule="evenodd" fill-opacity="1" /><path clip-path="url(#clip650)" d="M173.39 1719.64 Q169.779 1719.64 167.95 1723.21 Q166.145 1726.75 166.145 1733.88 Q166.145 1740.99 167.95 1744.55 Q169.779 1748.09 173.39 1748.09 Q177.024 1748.09 178.83 1744.55 Q180.659 1740.99 180.659 1733.88 Q180.659 1726.75 178.83 1723.21 Q177.024 1719.64 173.39 1719.64 M173.39 1715.94 Q179.2 1715.94 182.256 1720.55 Q185.334 1725.13 185.334 1733.88 Q185.334 1742.61 182.256 1747.21 Q179.2 1751.8 173.39 1751.8 Q167.58 1751.8 164.501 1747.21 Q161.446 1742.61 161.446 1733.88 Q161.446 1725.13 164.501 1720.55 Q167.58 1715.94 173.39 1715.94 Z" fill="#000000" fill-rule="evenodd" fill-opacity="1" /><path clip-path="url(#clip650)" d="M203.552 1719.64 Q199.941 1719.64 198.112 1723.21 Q196.307 1726.75 196.307 1733.88 Q196.307 1740.99 198.112 1744.55 Q199.941 1748.09 203.552 1748.09 Q207.186 1748.09 208.992 1744.55 Q210.82 1740.99 210.82 1733.88 Q210.82 1726.75 208.992 1723.21 Q207.186 1719.64 203.552 1719.64 M203.552 1715.94 Q209.362 1715.94 212.418 1720.55 Q215.496 1725.13 215.496 1733.88 Q215.496 1742.61 212.418 1747.21 Q209.362 1751.8 203.552 1751.8 Q197.742 1751.8 194.663 1747.21 Q191.608 1742.61 191.608 1733.88 Q191.608 1725.13 194.663 1720.55 Q197.742 1715.94 203.552 1715.94 Z" fill="#000000" fill-rule="evenodd" fill-opacity="1" /><path clip-path="url(#clip650)" d="M129.386 1242.64 Q125.775 1242.64 123.946 1246.2 Q122.14 1249.74 122.14 1256.87 Q122.14 1263.98 123.946 1267.55 Q125.775 1271.09 129.386 1271.09 Q133.02 1271.09 134.825 1267.55 Q136.654 1263.98 136.654 1256.87 Q136.654 1249.74 134.825 1246.2 Q133.02 1242.64 129.386 1242.64 M129.386 1238.93 Q135.196 1238.93 138.251 1243.54 Q141.33 1248.12 141.33 1256.87 Q141.33 1265.6 138.251 1270.21 Q135.196 1274.79 129.386 1274.79 Q123.576 1274.79 120.497 1270.21 Q117.441 1265.6 117.441 1256.87 Q117.441 1248.12 120.497 1243.54 Q123.576 1238.93 129.386 1238.93 Z" fill="#000000" fill-rule="evenodd" fill-opacity="1" /><path clip-path="url(#clip650)" d="M149.548 1268.24 L154.432 1268.24 L154.432 1274.12 L149.548 1274.12 L149.548 1268.24 Z" fill="#000000" fill-rule="evenodd" fill-opacity="1" /><path clip-path="url(#clip650)" d="M174.617 1242.64 Q171.006 1242.64 169.177 1246.2 Q167.372 1249.74 167.372 1256.87 Q167.372 1263.98 169.177 1267.55 Q171.006 1271.09 174.617 1271.09 Q178.251 1271.09 180.057 1267.55 Q181.885 1263.98 181.885 1256.87 Q181.885 1249.74 180.057 1246.2 Q178.251 1242.64 174.617 1242.64 M174.617 1238.93 Q180.427 1238.93 183.483 1243.54 Q186.561 1248.12 186.561 1256.87 Q186.561 1265.6 183.483 1270.21 Q180.427 1274.79 174.617 1274.79 Q168.807 1274.79 165.728 1270.21 Q162.673 1265.6 162.673 1256.87 Q162.673 1248.12 165.728 1243.54 Q168.807 1238.93 174.617 1238.93 Z" fill="#000000" fill-rule="evenodd" fill-opacity="1" /><path clip-path="url(#clip650)" d="M195.589 1270.18 L203.228 1270.18 L203.228 1243.82 L194.918 1245.49 L194.918 1241.23 L203.182 1239.56 L207.857 1239.56 L207.857 1270.18 L215.496 1270.18 L215.496 1274.12 L195.589 1274.12 L195.589 1270.18 Z" fill="#000000" fill-rule="evenodd" fill-opacity="1" /><path clip-path="url(#clip650)" d="M129.756 765.632 Q126.145 765.632 124.316 769.196 Q122.511 772.738 122.511 779.868 Q122.511 786.974 124.316 790.539 Q126.145 794.081 129.756 794.081 Q133.39 794.081 135.196 790.539 Q137.025 786.974 137.025 779.868 Q137.025 772.738 135.196 769.196 Q133.39 765.632 129.756 765.632 M129.756 761.928 Q135.566 761.928 138.622 766.534 Q141.7 771.118 141.7 779.868 Q141.7 788.594 138.622 793.201 Q135.566 797.784 129.756 797.784 Q123.946 797.784 120.867 793.201 Q117.812 788.594 117.812 779.868 Q117.812 771.118 120.867 766.534 Q123.946 761.928 129.756 761.928 Z" fill="#000000" fill-rule="evenodd" fill-opacity="1" /><path clip-path="url(#clip650)" d="M149.918 791.233 L154.802 791.233 L154.802 797.113 L149.918 797.113 L149.918 791.233 Z" fill="#000000" fill-rule="evenodd" fill-opacity="1" /><path clip-path="url(#clip650)" d="M174.987 765.632 Q171.376 765.632 169.547 769.196 Q167.742 772.738 167.742 779.868 Q167.742 786.974 169.547 790.539 Q171.376 794.081 174.987 794.081 Q178.622 794.081 180.427 790.539 Q182.256 786.974 182.256 779.868 Q182.256 772.738 180.427 769.196 Q178.622 765.632 174.987 765.632 M174.987 761.928 Q180.797 761.928 183.853 766.534 Q186.932 771.118 186.932 779.868 Q186.932 788.594 183.853 793.201 Q180.797 797.784 174.987 797.784 Q169.177 797.784 166.098 793.201 Q163.043 788.594 163.043 779.868 Q163.043 771.118 166.098 766.534 Q169.177 761.928 174.987 761.928 Z" fill="#000000" fill-rule="evenodd" fill-opacity="1" /><path clip-path="url(#clip650)" d="M199.177 793.178 L215.496 793.178 L215.496 797.113 L193.552 797.113 L193.552 793.178 Q196.214 790.423 200.797 785.794 Q205.404 781.141 206.584 779.798 Q208.83 777.275 209.709 775.539 Q210.612 773.78 210.612 772.09 Q210.612 769.335 208.668 767.599 Q206.746 765.863 203.645 765.863 Q201.445 765.863 198.992 766.627 Q196.561 767.391 193.783 768.942 L193.783 764.22 Q196.608 763.085 199.061 762.507 Q201.515 761.928 203.552 761.928 Q208.922 761.928 212.117 764.613 Q215.311 767.298 215.311 771.789 Q215.311 773.919 214.501 775.84 Q213.714 777.738 211.607 780.331 Q211.029 781.002 207.927 784.219 Q204.825 787.414 199.177 793.178 Z" fill="#000000" fill-rule="evenodd" fill-opacity="1" /><path clip-path="url(#clip650)" d="M128.807 288.625 Q125.196 288.625 123.367 292.19 Q121.562 295.732 121.562 302.861 Q121.562 309.968 123.367 313.533 Q125.196 317.074 128.807 317.074 Q132.441 317.074 134.247 313.533 Q136.075 309.968 136.075 302.861 Q136.075 295.732 134.247 292.19 Q132.441 288.625 128.807 288.625 M128.807 284.922 Q134.617 284.922 137.673 289.528 Q140.751 294.111 140.751 302.861 Q140.751 311.588 137.673 316.195 Q134.617 320.778 128.807 320.778 Q122.997 320.778 119.918 316.195 Q116.863 311.588 116.863 302.861 Q116.863 294.111 119.918 289.528 Q122.997 284.922 128.807 284.922 Z" fill="#000000" fill-rule="evenodd" fill-opacity="1" /><path clip-path="url(#clip650)" d="M148.969 314.227 L153.853 314.227 L153.853 320.107 L148.969 320.107 L148.969 314.227 Z" fill="#000000" fill-rule="evenodd" fill-opacity="1" /><path clip-path="url(#clip650)" d="M174.038 288.625 Q170.427 288.625 168.598 292.19 Q166.793 295.732 166.793 302.861 Q166.793 309.968 168.598 313.533 Q170.427 317.074 174.038 317.074 Q177.672 317.074 179.478 313.533 Q181.307 309.968 181.307 302.861 Q181.307 295.732 179.478 292.19 Q177.672 288.625 174.038 288.625 M174.038 284.922 Q179.848 284.922 182.904 289.528 Q185.983 294.111 185.983 302.861 Q185.983 311.588 182.904 316.195 Q179.848 320.778 174.038 320.778 Q168.228 320.778 165.149 316.195 Q162.094 311.588 162.094 302.861 Q162.094 294.111 165.149 289.528 Q168.228 284.922 174.038 284.922 Z" fill="#000000" fill-rule="evenodd" fill-opacity="1" /><path clip-path="url(#clip650)" d="M208.367 301.472 Q211.723 302.19 213.598 304.459 Q215.496 306.727 215.496 310.06 Q215.496 315.176 211.978 317.977 Q208.459 320.778 201.978 320.778 Q199.802 320.778 197.487 320.338 Q195.196 319.921 192.742 319.065 L192.742 314.551 Q194.686 315.685 197.001 316.264 Q199.316 316.843 201.839 316.843 Q206.237 316.843 208.529 315.107 Q210.844 313.371 210.844 310.06 Q210.844 307.005 208.691 305.292 Q206.561 303.556 202.742 303.556 L198.714 303.556 L198.714 299.713 L202.927 299.713 Q206.376 299.713 208.205 298.347 Q210.033 296.959 210.033 294.366 Q210.033 291.704 208.135 290.292 Q206.26 288.857 202.742 288.857 Q200.82 288.857 198.621 289.273 Q196.422 289.69 193.783 290.57 L193.783 286.403 Q196.445 285.662 198.76 285.292 Q201.098 284.922 203.158 284.922 Q208.482 284.922 211.584 287.352 Q214.686 289.76 214.686 293.88 Q214.686 296.75 213.043 298.741 Q211.399 300.709 208.367 301.472 Z" fill="#000000" fill-rule="evenodd" fill-opacity="1" /><path clip-path="url(#clip650)" d="M61.6384 1129.52 L14.1184 1147.66 L14.1184 1140.95 L54.1269 1125.89 L14.1184 1110.81 L14.1184 1104.12 L61.6384 1122.23 L61.6384 1129.52 Z" fill="#000000" fill-rule="evenodd" fill-opacity="1" /><path clip-path="url(#clip650)" d="M30.0964 1088.69 Q30.0964 1093.4 33.7885 1096.13 Q37.4488 1098.87 43.8463 1098.87 Q50.2438 1098.87 53.9359 1096.17 Q57.5962 1093.43 57.5962 1088.69 Q57.5962 1084.01 53.9041 1081.27 Q50.212 1078.53 43.8463 1078.53 Q37.5124 1078.53 33.8203 1081.27 Q30.0964 1084.01 30.0964 1088.69 M25.1311 1088.69 Q25.1311 1081.05 30.0964 1076.69 Q35.0616 1072.33 43.8463 1072.33 Q52.5991 1072.33 57.5962 1076.69 Q62.5615 1081.05 62.5615 1088.69 Q62.5615 1096.36 57.5962 1100.72 Q52.5991 1105.05 43.8463 1105.05 Q35.0616 1105.05 30.0964 1100.72 Q25.1311 1096.36 25.1311 1088.69 Z" fill="#000000" fill-rule="evenodd" fill-opacity="1" /><path clip-path="url(#clip650)" d="M12.1132 1062.62 L12.1132 1056.76 L61.6384 1056.76 L61.6384 1062.62 L12.1132 1062.62 Z" fill="#000000" fill-rule="evenodd" fill-opacity="1" /><path clip-path="url(#clip650)" d="M47.5702 1045.11 L25.9905 1045.11 L25.9905 1039.26 L47.3474 1039.26 Q52.4082 1039.26 54.9545 1037.28 Q57.4689 1035.31 57.4689 1031.36 Q57.4689 1026.62 54.4452 1023.88 Q51.4215 1021.11 46.2016 1021.11 L25.9905 1021.11 L25.9905 1015.26 L61.6384 1015.26 L61.6384 1021.11 L56.1639 1021.11 Q59.4104 1023.25 61.0019 1026.08 Q62.5615 1028.88 62.5615 1032.6 Q62.5615 1038.75 58.742 1041.93 Q54.9226 1045.11 47.5702 1045.11 M25.1311 1030.38 L25.1311 1030.38 Z" fill="#000000" fill-rule="evenodd" fill-opacity="1" /><path clip-path="url(#clip650)" d="M32.8336 975.44 Q28.8869 973.244 27.009 970.188 Q25.1311 967.133 25.1311 962.995 Q25.1311 957.425 29.046 954.401 Q32.9291 951.378 40.1224 951.378 L61.6384 951.378 L61.6384 957.266 L40.3133 957.266 Q35.1889 957.266 32.7063 959.08 Q30.2237 960.894 30.2237 964.618 Q30.2237 969.17 33.2474 971.811 Q36.2711 974.453 41.491 974.453 L61.6384 974.453 L61.6384 980.342 L40.3133 980.342 Q35.1571 980.342 32.7063 982.156 Q30.2237 983.97 30.2237 987.758 Q30.2237 992.245 33.2792 994.887 Q36.3029 997.529 41.491 997.529 L61.6384 997.529 L61.6384 1003.42 L25.9905 1003.42 L25.9905 997.529 L31.5287 997.529 Q28.2503 995.524 26.6907 992.723 Q25.1311 989.922 25.1311 986.071 Q25.1311 982.188 27.1045 979.482 Q29.0779 976.745 32.8336 975.44 Z" fill="#000000" fill-rule="evenodd" fill-opacity="1" /><path clip-path="url(#clip650)" d="M42.3504 909.205 L45.2149 909.205 L45.2149 936.132 Q51.2623 935.75 54.4452 932.503 Q57.5962 929.225 57.5962 923.4 Q57.5962 920.026 56.7687 916.875 Q55.9411 913.693 54.2861 910.573 L59.8242 910.573 Q61.161 913.724 61.8612 917.035 Q62.5615 920.345 62.5615 923.75 Q62.5615 932.28 57.5962 937.278 Q52.631 942.243 44.1646 942.243 Q35.4117 942.243 30.2873 937.532 Q25.1311 932.79 25.1311 924.769 Q25.1311 917.576 29.7781 913.406 Q34.3932 909.205 42.3504 909.205 M40.6316 915.061 Q35.8255 915.125 32.9609 917.767 Q30.0964 920.377 30.0964 924.705 Q30.0964 929.607 32.8654 932.567 Q35.6345 935.495 40.6634 935.941 L40.6316 915.061 Z" fill="#000000" fill-rule="evenodd" fill-opacity="1" /><path clip-path="url(#clip650)" d="M12.1132 879.413 L12.1132 865.918 L16.6647 865.918 L16.6647 873.557 L65.6807 873.557 L65.6807 865.918 L70.2321 865.918 L70.2321 879.413 L12.1132 879.413 Z" fill="#000000" fill-rule="evenodd" fill-opacity="1" /><path clip-path="url(#clip650)" d="M32.8336 825.687 Q28.8869 823.491 27.009 820.435 Q25.1311 817.379 25.1311 813.242 Q25.1311 807.672 29.046 804.648 Q32.9291 801.624 40.1224 801.624 L61.6384 801.624 L61.6384 807.513 L40.3133 807.513 Q35.1889 807.513 32.7063 809.327 Q30.2237 811.141 30.2237 814.865 Q30.2237 819.416 33.2474 822.058 Q36.2711 824.7 41.491 824.7 L61.6384 824.7 L61.6384 830.588 L40.3133 830.588 Q35.1571 830.588 32.7063 832.402 Q30.2237 834.217 30.2237 838.004 Q30.2237 842.492 33.2792 845.134 Q36.3029 847.776 41.491 847.776 L61.6384 847.776 L61.6384 853.664 L25.9905 853.664 L25.9905 847.776 L31.5287 847.776 Q28.2503 845.77 26.6907 842.97 Q25.1311 840.169 25.1311 836.317 Q25.1311 832.434 27.1045 829.729 Q29.0779 826.992 32.8336 825.687 Z" fill="#000000" fill-rule="evenodd" fill-opacity="1" /><path clip-path="url(#clip650)" d="M36.0165 769.637 Q37.0032 765.021 40.1224 762.443 Q43.2416 759.833 47.8249 759.833 Q54.859 759.833 58.7102 764.671 Q62.5615 769.509 62.5615 778.421 Q62.5615 781.413 61.9567 784.596 Q61.3838 787.747 60.2062 791.121 L53.9996 791.121 Q55.5592 788.447 56.3549 785.264 Q57.1506 782.082 57.1506 778.612 Q57.1506 772.565 54.7635 769.414 Q52.3763 766.231 47.8249 766.231 Q43.6235 766.231 41.2682 769.191 Q38.881 772.119 38.881 777.371 L38.881 782.909 L33.5975 782.909 L33.5975 777.116 Q33.5975 772.374 31.7196 769.859 Q29.8099 767.345 26.2451 767.345 Q22.5848 767.345 20.6433 769.955 Q18.6699 772.533 18.6699 777.371 Q18.6699 780.013 19.2428 783.036 Q19.8158 786.06 21.0252 789.689 L15.2961 789.689 Q14.2776 786.028 13.7683 782.845 Q13.2591 779.631 13.2591 776.798 Q13.2591 769.477 16.6011 765.212 Q19.9112 760.947 25.5767 760.947 Q29.5235 760.947 32.2607 763.207 Q34.9661 765.467 36.0165 769.637 Z" fill="#000000" fill-rule="evenodd" fill-opacity="1" /><path clip-path="url(#clip650)" d="M14.1184 738.063 L14.1184 732.652 L67.6859 749.203 L67.6859 754.614 L14.1184 738.063 Z" fill="#000000" fill-rule="evenodd" fill-opacity="1" /><path clip-path="url(#clip650)" d="M12.1132 726.732 L12.1132 720.843 L41.3637 720.843 L25.9905 703.37 L25.9905 695.89 L42.6686 714.796 L61.6384 695.094 L61.6384 702.733 L44.2282 720.843 L61.6384 720.843 L61.6384 726.732 L12.1132 726.732 Z" fill="#000000" fill-rule="evenodd" fill-opacity="1" /><path clip-path="url(#clip650)" d="M43.4007 665.303 Q37.035 665.303 33.5338 667.944 Q30.0327 670.554 30.0327 675.297 Q30.0327 680.007 33.5338 682.649 Q37.035 685.259 43.4007 685.259 Q49.7346 685.259 53.2357 682.649 Q56.7368 680.007 56.7368 675.297 Q56.7368 670.554 53.2357 667.944 Q49.7346 665.303 43.4007 665.303 M57.2143 659.446 Q66.3172 659.446 70.7414 663.488 Q75.1974 667.531 75.1974 675.87 Q75.1974 678.957 74.72 681.694 Q74.2744 684.432 73.3195 687.01 L67.6222 687.01 Q69.0227 684.432 69.6911 681.917 Q70.3595 679.403 70.3595 676.793 Q70.3595 671.032 67.3358 668.167 Q64.3439 665.303 58.2646 665.303 L55.3682 665.303 Q58.5192 667.117 60.0788 669.95 Q61.6384 672.782 61.6384 676.729 Q61.6384 683.286 56.6414 687.296 Q51.6443 691.307 43.4007 691.307 Q35.1253 691.307 30.1282 687.296 Q25.1311 683.286 25.1311 676.729 Q25.1311 672.782 26.6907 669.95 Q28.2503 667.117 31.4013 665.303 L25.9905 665.303 L25.9905 659.446 L57.2143 659.446 Z" fill="#000000" fill-rule="evenodd" fill-opacity="1" /><path clip-path="url(#clip650)" d="M12.1132 633.697 L70.2321 633.697 L70.2321 647.192 L65.6807 647.192 L65.6807 639.585 L16.6647 639.585 L16.6647 647.192 L12.1132 647.192 L12.1132 633.697 Z" fill="#000000" fill-rule="evenodd" fill-opacity="1" /><polyline clip-path="url(#clip652)" style="stroke:#009af9; stroke-linecap:round; stroke-linejoin:round; stroke-width:12; stroke-opacity:1; fill:none" points="323.315,1686.37 327.592,1686.38 331.87,1686.37 336.147,1686.37 340.424,1686.37 344.702,1686.37 348.979,1686.37 353.257,1686.36 357.534,1686.36 361.812,1686.35 366.089,1686.35 370.367,1686.34 374.644,1686.34 378.922,1686.33 383.199,1686.32 387.476,1686.31 391.754,1686.3 396.031,1686.29 400.309,1686.28 404.586,1686.27 408.864,1686.26 413.141,1686.25 417.419,1686.24 421.696,1686.23 425.974,1686.22 430.251,1686.2 434.529,1686.19 438.806,1686.18 443.083,1686.16 447.361,1686.15 451.638,1686.13 455.916,1686.12 460.193,1686.1 464.471,1686.09 468.748,1686.07 473.026,1686.05 477.303,1686.03 481.581,1686.02 485.858,1686 490.135,1685.98 494.413,1685.96 498.69,1685.94 502.968,1685.92 507.245,1685.9 511.523,1685.88 515.8,1685.86 520.078,1685.84 524.355,1685.82 528.633,1685.8 532.91,1685.78 537.188,1685.76 541.465,1685.73 545.742,1685.71 550.02,1685.69 554.297,1685.67 558.575,1685.64 562.852,1685.62 567.13,1685.59 571.407,1685.57 575.685,1685.54 579.962,1685.52 584.24,1685.49 588.517,1685.47 592.794,1685.44 597.072,1685.42 601.349,1685.39 605.627,1685.36 609.904,1685.33 614.182,1685.31 618.459,1685.28 622.737,1685.25 627.014,1685.22 631.292,1685.19 635.569,1685.17 639.847,1685.14 644.124,1685.11 648.401,1685.08 652.679,1685.05 656.956,1685.02 661.234,1684.99 665.511,1684.95 669.789,1684.92 674.066,1684.89 678.344,1684.86 682.621,1684.83 686.899,1684.8 691.176,1684.76 695.453,1684.73 699.731,1684.7 704.008,1684.66 708.286,1684.63 712.563,1684.6 716.841,1684.56 721.118,1684.53 725.396,1684.49 729.673,1684.46 733.951,1684.42 738.228,1684.39 742.506,1684.35 746.783,1684.31 751.06,1684.28 755.338,1684.24 759.615,1684.2 763.893,1684.17 768.17,1684.13 772.448,1684.09 776.725,1684.05 781.003,1684.01 785.28,1683.98 789.558,1683.94 793.835,1683.9 798.112,1683.86 802.39,1683.82 806.667,1683.78 810.945,1683.74 815.222,1683.7 819.5,1683.66 823.777,1683.61 828.055,1683.57 832.332,1683.53 836.61,1683.49 840.887,1683.45 845.165,1683.4 849.442,1683.36 853.719,1683.32 857.997,1683.27 862.274,1683.23 866.552,1683.19 870.829,1683.14 875.107,1683.1 879.384,1683.05 883.662,1683.01 887.939,1682.96 892.217,1682.91 896.494,1682.87 900.771,1682.82 905.049,1682.77 909.326,1682.73 913.604,1682.68 917.881,1682.63 922.159,1682.58 926.436,1682.54 930.714,1682.49 934.991,1682.44 939.269,1682.39 943.546,1682.34 947.824,1682.29 952.101,1682.24 956.378,1682.19 960.656,1682.14 964.933,1682.08 969.211,1682.03 973.488,1681.98 977.766,1681.93 982.043,1681.87 986.321,1681.82 990.598,1681.77 994.876,1681.71 999.153,1681.66 1003.43,1681.6 1007.71,1681.55 1011.99,1681.49 1016.26,1681.44 1020.54,1681.38 1024.82,1681.33 1029.1,1681.27 1033.37,1681.21 1037.65,1681.15 1041.93,1681.1 1046.21,1681.04 1050.48,1680.98 1054.76,1680.92 1059.04,1680.86 1063.31,1680.8 1067.59,1680.74 1071.87,1680.68 1076.15,1680.62 1080.42,1680.56 1084.7,1680.49 1088.98,1680.43 1093.26,1680.37 1097.53,1680.31 1101.81,1680.24 1106.09,1680.18 1110.37,1680.11 1114.64,1680.05 1118.92,1679.98 1123.2,1679.92 1127.48,1679.85 1131.75,1679.78 1136.03,1679.72 1140.31,1679.65 1144.59,1679.58 1148.86,1679.51 1153.14,1679.44 1157.42,1679.37 1161.7,1679.3 1165.97,1679.23 1170.25,1679.16 1174.53,1679.09 1178.81,1679.02 1183.08,1678.94 1187.36,1678.87 1191.64,1678.79 1195.92,1678.72 1200.19,1678.65 1204.47,1678.57 1208.75,1678.49 1213.03,1678.42 1217.3,1678.34 1221.58,1678.26 1225.86,1678.18 1230.14,1678.1 1234.41,1678.02 1238.69,1677.94 1242.97,1677.86 1247.25,1677.78 1251.52,1677.7 1255.8,1677.61 1260.08,1677.53 1264.36,1677.45 1268.63,1677.36 1272.91,1677.28 1277.19,1677.19 1281.47,1677.1 1285.74,1677.01 1290.02,1676.93 1294.3,1676.84 1298.58,1676.75 1302.85,1676.66 1307.13,1676.56 1311.41,1676.47 1315.68,1676.38 1319.96,1676.28 1324.24,1676.19 1328.52,1676.09 1332.79,1676 1337.07,1675.9 1341.35,1675.8 1345.63,1675.7 1349.9,1675.6 1354.18,1675.5 1358.46,1675.4 1362.74,1675.3 1367.01,1675.19 1371.29,1675.09 1375.57,1674.98 1379.85,1674.87 1384.12,1674.77 1388.4,1674.66 1392.68,1674.55 1396.96,1674.44 1401.23,1674.32 1405.51,1674.21 1409.79,1674.1 1414.07,1673.98 1418.34,1673.86 1422.62,1673.75 1426.9,1673.63 1431.18,1673.51 1435.45,1673.38 1439.73,1673.26 1444.01,1673.14 1448.29,1673.01 1452.56,1672.88 1456.84,1672.75 1461.12,1672.62 1465.4,1672.49 1469.67,1672.36 1473.95,1672.22 1478.23,1672.09 1482.51,1671.95 1486.78,1671.81 1491.06,1671.67 1495.34,1671.52 1499.62,1671.38 1503.89,1671.23 1508.17,1671.08 1512.45,1670.93 1516.73,1670.78 1521,1670.62 1525.28,1670.47 1529.56,1670.31 1533.84,1670.14 1538.11,1669.98 1542.39,1669.81 1546.67,1669.65 1550.95,1669.47 1555.22,1669.3 1559.5,1669.12 1563.78,1668.94 1568.05,1668.76 1572.33,1668.58 1576.61,1668.39 1580.89,1668.2 1585.16,1668 1589.44,1667.81 1593.72,1667.6 1598,1667.4 1602.27,1667.19 1606.55,1666.98 1610.83,1666.76 1615.11,1666.54 1619.38,1666.31 1623.66,1666.08 1627.94,1665.85 1632.22,1665.61 1636.49,1665.36 1640.77,1665.11 1645.05,1664.86 1649.33,1664.59 1653.6,867.535 1657.88,860.534 1662.16,853.699 1666.44,847.014 1670.71,840.469 1674.99,834.051 1679.27,827.753 1683.55,821.566 1687.82,815.484 1692.1,809.5 1696.38,803.609 1700.66,797.807 1704.93,792.088 1709.21,786.449 1713.49,780.887 1717.77,775.397 1722.04,769.977 1726.32,764.624 1730.6,759.335 1734.88,754.108 1739.15,748.94 1743.43,743.828 1747.71,738.772 1751.99,733.769 1756.26,728.816 1760.54,723.913 1764.82,719.057 1769.1,714.248 1773.37,709.483 1777.65,704.761 1781.93,700.08 1786.21,695.44 1790.48,690.839 1794.76,686.277 1799.04,681.75 1803.32,677.26 1807.59,672.805 1811.87,668.383 1816.15,663.994 1820.42,659.637 1824.7,655.311 1828.98,651.015 1833.26,646.749 1837.53,642.511 1841.81,638.302 1846.09,634.119 1850.37,629.964 1854.64,625.834 1858.92,621.729 1863.2,617.649 1867.48,613.594 1871.75,609.561 1876.03,605.552 1880.31,601.566 1884.59,597.601 1888.86,593.658 1893.14,589.736 1897.42,585.834 1901.7,581.953 1905.97,578.092 1910.25,574.249 1914.53,570.426 1918.81,566.622 1923.08,562.835 1927.36,559.066 1931.64,555.315 1935.92,551.581 1940.19,547.864 1944.47,544.163 1948.75,540.478 1953.03,536.809 1957.3,533.156 1961.58,529.518 1965.86,525.895 1970.14,522.287 1974.41,518.694 1978.69,515.114 1982.97,511.549 1987.25,507.997 1991.52,504.459 1995.8,500.934 2000.08,497.422 2004.36,493.923 2008.63,490.437 2012.91,486.963 2017.19,483.501 2021.47,480.051 2025.74,476.613 2030.02,473.187 2034.3,469.772 2038.58,466.368 2042.85,462.976 2047.13,459.594 2051.41,456.223 2055.69,452.863 2059.96,449.513 2064.24,446.174 2068.52,442.845 2072.8,439.525 2077.07,436.216 2081.35,432.916 2085.63,429.625 2089.9,426.344 2094.18,423.073 2098.46,419.81 2102.74,416.557 2107.01,413.312 2111.29,410.076 2115.57,406.849 2119.85,403.63 2124.12,400.42 2128.4,397.218 2132.68,394.024 2136.96,390.839 2141.23,387.661 2145.51,384.491 2149.79,381.329 2154.07,378.174 2158.34,375.027 2162.62,371.888 2166.9,368.756 2171.18,365.631 2175.45,362.513 2179.73,359.402 2184.01,356.299 2188.29,353.202 2192.56,350.112 2196.84,347.029 2201.12,343.952 2205.4,340.883 2209.67,337.819 2213.95,334.762 2218.23,331.711 2222.51,328.667 2226.78,325.629 2231.06,322.596 2235.34,319.57 2239.62,316.55 2243.89,313.536 2248.17,310.527 2252.45,307.524 2256.73,304.527 2261,301.536 2265.28,298.55 2269.56,295.57 2273.84,292.595 2278.11,289.625 2282.39,286.661 2286.67,283.702 2290.95,280.748 2295.22,277.8 2299.5,274.856 2303.78,271.918 2308.06,268.984 2312.33,266.056 2316.61,263.132 2320.89,260.213 2325.17,257.299 2329.44,254.389 2333.72,251.484 2338,248.584 2342.27,245.688 2346.55,242.797 2350.83,239.91 2355.11,237.028 2359.38,234.15 2363.66,231.277 2367.94,228.407 2372.22,225.542 2376.49,222.681 2380.77,219.825 2385.05,216.972 2389.33,214.124 2393.6,211.279 2397.88,208.439 2402.16,205.602 2406.44,202.769 2410.71,199.941 2414.99,197.116 2419.27,194.294 2423.55,191.477 2427.82,188.663 2432.1,185.853 2436.38,183.047 2440.66,180.245 2444.93,177.445 2449.21,174.65 2453.49,171.858 2457.77,169.069 2462.04,166.284 2466.32,163.502 2470.6,160.724 2474.88,157.949 2479.15,155.178 2483.43,152.409 2487.71,149.644 2491.99,146.882 2496.26,144.124 2500.54,141.368 2504.82,138.616 2509.1,135.867 2513.37,133.121 2517.65,130.378 2521.93,127.638 2526.21,124.901 2530.48,122.167 2534.76,119.436 2539.04,116.708 2543.32,113.983 2547.59,111.26 2551.87,108.541 2556.15,105.824 2560.43,103.111 2564.7,100.4 2568.98,97.6913 2573.26,94.9858 "/>
<path clip-path="url(#clip650)" d="M1860.82 1677.89 L2561.26 1677.89 L2561.26 1548.29 L1860.82 1548.29  Z" fill="#ffffff" fill-rule="evenodd" fill-opacity="1"/>
<polyline clip-path="url(#clip650)" style="stroke:#000000; stroke-linecap:round; stroke-linejoin:round; stroke-width:4; stroke-opacity:1; fill:none" points="1860.82,1677.89 2561.26,1677.89 2561.26,1548.29 1860.82,1548.29 1860.82,1677.89 "/>
<polyline clip-path="url(#clip650)" style="stroke:#009af9; stroke-linecap:round; stroke-linejoin:round; stroke-width:15; stroke-opacity:1; fill:none" points="1887.32,1613.09 2046.31,1613.09 "/>
<path clip-path="url(#clip650)" d="M2100.62 1592.91 L2100.62 1598.61 Q2097.29 1597.01 2094.34 1596.23 Q2091.39 1595.45 2088.64 1595.45 Q2083.86 1595.45 2081.26 1597.3 Q2078.68 1599.16 2078.68 1602.57 Q2078.68 1605.43 2080.39 1606.91 Q2082.13 1608.36 2086.93 1609.25 L2090.46 1609.98 Q2097 1611.22 2100.1 1614.38 Q2103.22 1617.5 2103.22 1622.77 Q2103.22 1629.05 2099 1632.29 Q2094.8 1635.53 2086.67 1635.53 Q2083.6 1635.53 2080.13 1634.83 Q2076.69 1634.14 2072.98 1632.78 L2072.98 1626.76 Q2076.54 1628.76 2079.96 1629.77 Q2083.37 1630.78 2086.67 1630.78 Q2091.68 1630.78 2094.4 1628.81 Q2097.12 1626.85 2097.12 1623.2 Q2097.12 1620.02 2095.15 1618.22 Q2093.21 1616.43 2088.75 1615.53 L2085.2 1614.84 Q2078.66 1613.54 2075.73 1610.76 Q2072.81 1607.98 2072.81 1603.03 Q2072.81 1597.3 2076.83 1594.01 Q2080.88 1590.71 2087.97 1590.71 Q2091.01 1590.71 2094.16 1591.26 Q2097.32 1591.81 2100.62 1592.91 Z" fill="#000000" fill-rule="evenodd" fill-opacity="1" /><path clip-path="url(#clip650)" d="M2117.26 1629.83 L2117.26 1647.01 L2111.9 1647.01 L2111.9 1602.28 L2117.26 1602.28 L2117.26 1607.2 Q2118.93 1604.31 2121.48 1602.92 Q2124.05 1601.5 2127.61 1601.5 Q2133.52 1601.5 2137.19 1606.19 Q2140.89 1610.87 2140.89 1618.51 Q2140.89 1626.15 2137.19 1630.84 Q2133.52 1635.53 2127.61 1635.53 Q2124.05 1635.53 2121.48 1634.14 Q2118.93 1632.72 2117.26 1629.83 M2135.37 1618.51 Q2135.37 1612.64 2132.94 1609.31 Q2130.54 1605.96 2126.31 1605.96 Q2122.09 1605.96 2119.66 1609.31 Q2117.26 1612.64 2117.26 1618.51 Q2117.26 1624.39 2119.66 1627.74 Q2122.09 1631.07 2126.31 1631.07 Q2130.54 1631.07 2132.94 1627.74 Q2135.37 1624.39 2135.37 1618.51 Z" fill="#000000" fill-rule="evenodd" fill-opacity="1" /><path clip-path="url(#clip650)" d="M2177.44 1617.15 L2177.44 1619.76 L2152.96 1619.76 Q2153.31 1625.26 2156.26 1628.15 Q2159.24 1631.01 2164.53 1631.01 Q2167.6 1631.01 2170.47 1630.26 Q2173.36 1629.51 2176.2 1628 L2176.2 1633.04 Q2173.33 1634.25 2170.32 1634.89 Q2167.31 1635.53 2164.22 1635.53 Q2156.46 1635.53 2151.92 1631.01 Q2147.41 1626.5 2147.41 1618.8 Q2147.41 1610.85 2151.69 1606.19 Q2156 1601.5 2163.29 1601.5 Q2169.83 1601.5 2173.62 1605.72 Q2177.44 1609.92 2177.44 1617.15 M2172.12 1615.59 Q2172.06 1611.22 2169.66 1608.62 Q2167.28 1606.01 2163.35 1606.01 Q2158.89 1606.01 2156.2 1608.53 Q2153.54 1611.05 2153.13 1615.62 L2172.12 1615.59 Z" fill="#000000" fill-rule="evenodd" fill-opacity="1" /><path clip-path="url(#clip650)" d="M2209.5 1603.52 L2209.5 1608.5 Q2207.24 1607.26 2204.96 1606.65 Q2202.7 1606.01 2200.39 1606.01 Q2195.21 1606.01 2192.34 1609.31 Q2189.48 1612.58 2189.48 1618.51 Q2189.48 1624.44 2192.34 1627.74 Q2195.21 1631.01 2200.39 1631.01 Q2202.7 1631.01 2204.96 1630.41 Q2207.24 1629.77 2209.5 1628.52 L2209.5 1633.44 Q2207.27 1634.49 2204.87 1635.01 Q2202.5 1635.53 2199.81 1635.53 Q2192.49 1635.53 2188.17 1630.93 Q2183.86 1626.33 2183.86 1618.51 Q2183.86 1610.59 2188.2 1606.04 Q2192.57 1601.5 2200.15 1601.5 Q2202.61 1601.5 2204.96 1602.02 Q2207.3 1602.51 2209.5 1603.52 Z" fill="#000000" fill-rule="evenodd" fill-opacity="1" /><path clip-path="url(#clip650)" d="M2218.76 1602.28 L2224.08 1602.28 L2224.08 1634.69 L2218.76 1634.69 L2218.76 1602.28 M2218.76 1589.66 L2224.08 1589.66 L2224.08 1596.41 L2218.76 1596.41 L2218.76 1589.66 Z" fill="#000000" fill-rule="evenodd" fill-opacity="1" /><path clip-path="url(#clip650)" d="M2251.63 1589.66 L2251.63 1594.09 L2246.54 1594.09 Q2243.67 1594.09 2242.54 1595.25 Q2241.44 1596.41 2241.44 1599.42 L2241.44 1602.28 L2250.21 1602.28 L2250.21 1606.42 L2241.44 1606.42 L2241.44 1634.69 L2236.09 1634.69 L2236.09 1606.42 L2231 1606.42 L2231 1602.28 L2236.09 1602.28 L2236.09 1600.02 Q2236.09 1594.61 2238.61 1592.15 Q2241.13 1589.66 2246.59 1589.66 L2251.63 1589.66 Z" fill="#000000" fill-rule="evenodd" fill-opacity="1" /><path clip-path="url(#clip650)" d="M2256.09 1602.28 L2261.41 1602.28 L2261.41 1634.69 L2256.09 1634.69 L2256.09 1602.28 M2256.09 1589.66 L2261.41 1589.66 L2261.41 1596.41 L2256.09 1596.41 L2256.09 1589.66 Z" fill="#000000" fill-rule="evenodd" fill-opacity="1" /><path clip-path="url(#clip650)" d="M2295.87 1603.52 L2295.87 1608.5 Q2293.61 1607.26 2291.33 1606.65 Q2289.07 1606.01 2286.76 1606.01 Q2281.58 1606.01 2278.71 1609.31 Q2275.85 1612.58 2275.85 1618.51 Q2275.85 1624.44 2278.71 1627.74 Q2281.58 1631.01 2286.76 1631.01 Q2289.07 1631.01 2291.33 1630.41 Q2293.61 1629.77 2295.87 1628.52 L2295.87 1633.44 Q2293.64 1634.49 2291.24 1635.01 Q2288.87 1635.53 2286.18 1635.53 Q2278.86 1635.53 2274.55 1630.93 Q2270.23 1626.33 2270.23 1618.51 Q2270.23 1610.59 2274.57 1606.04 Q2278.94 1601.5 2286.52 1601.5 Q2288.98 1601.5 2291.33 1602.02 Q2293.67 1602.51 2295.87 1603.52 Z" fill="#000000" fill-rule="evenodd" fill-opacity="1" /><path clip-path="url(#clip650)" d="M2320.15 1602.28 L2325.79 1602.28 L2335.92 1629.48 L2346.04 1602.28 L2351.69 1602.28 L2339.53 1634.69 L2332.3 1634.69 L2320.15 1602.28 Z" fill="#000000" fill-rule="evenodd" fill-opacity="1" /><path clip-path="url(#clip650)" d="M2371.59 1606.01 Q2367.31 1606.01 2364.82 1609.37 Q2362.33 1612.7 2362.33 1618.51 Q2362.33 1624.33 2364.79 1627.69 Q2367.28 1631.01 2371.59 1631.01 Q2375.85 1631.01 2378.34 1627.66 Q2380.82 1624.3 2380.82 1618.51 Q2380.82 1612.76 2378.34 1609.4 Q2375.85 1606.01 2371.59 1606.01 M2371.59 1601.5 Q2378.54 1601.5 2382.5 1606.01 Q2386.47 1610.53 2386.47 1618.51 Q2386.47 1626.47 2382.5 1631.01 Q2378.54 1635.53 2371.59 1635.53 Q2364.62 1635.53 2360.66 1631.01 Q2356.72 1626.47 2356.72 1618.51 Q2356.72 1610.53 2360.66 1606.01 Q2364.62 1601.5 2371.59 1601.5 Z" fill="#000000" fill-rule="evenodd" fill-opacity="1" /><path clip-path="url(#clip650)" d="M2395.29 1589.66 L2400.62 1589.66 L2400.62 1634.69 L2395.29 1634.69 L2395.29 1589.66 Z" fill="#000000" fill-rule="evenodd" fill-opacity="1" /><path clip-path="url(#clip650)" d="M2411.21 1621.9 L2411.21 1602.28 L2416.53 1602.28 L2416.53 1621.7 Q2416.53 1626.3 2418.32 1628.61 Q2420.12 1630.9 2423.71 1630.9 Q2428.02 1630.9 2430.51 1628.15 Q2433.02 1625.4 2433.02 1620.65 L2433.02 1602.28 L2438.35 1602.28 L2438.35 1634.69 L2433.02 1634.69 L2433.02 1629.71 Q2431.08 1632.66 2428.51 1634.11 Q2425.96 1635.53 2422.58 1635.53 Q2416.99 1635.53 2414.1 1632.05 Q2411.21 1628.58 2411.21 1621.9 M2424.6 1601.5 L2424.6 1601.5 Z" fill="#000000" fill-rule="evenodd" fill-opacity="1" /><path clip-path="url(#clip650)" d="M2474.54 1608.5 Q2476.54 1604.91 2479.32 1603.21 Q2482.1 1601.5 2485.86 1601.5 Q2490.92 1601.5 2493.67 1605.06 Q2496.42 1608.59 2496.42 1615.13 L2496.42 1634.69 L2491.07 1634.69 L2491.07 1615.3 Q2491.07 1610.64 2489.42 1608.39 Q2487.77 1606.13 2484.38 1606.13 Q2480.24 1606.13 2477.84 1608.88 Q2475.44 1611.63 2475.44 1616.37 L2475.44 1634.69 L2470.09 1634.69 L2470.09 1615.3 Q2470.09 1610.61 2468.44 1608.39 Q2466.79 1606.13 2463.35 1606.13 Q2459.27 1606.13 2456.87 1608.91 Q2454.46 1611.66 2454.46 1616.37 L2454.46 1634.69 L2449.11 1634.69 L2449.11 1602.28 L2454.46 1602.28 L2454.46 1607.32 Q2456.29 1604.34 2458.83 1602.92 Q2461.38 1601.5 2464.88 1601.5 Q2468.41 1601.5 2470.87 1603.29 Q2473.36 1605.09 2474.54 1608.5 Z" fill="#000000" fill-rule="evenodd" fill-opacity="1" /><path clip-path="url(#clip650)" d="M2534.76 1617.15 L2534.76 1619.76 L2510.28 1619.76 Q2510.63 1625.26 2513.58 1628.15 Q2516.56 1631.01 2521.85 1631.01 Q2524.92 1631.01 2527.79 1630.26 Q2530.68 1629.51 2533.51 1628 L2533.51 1633.04 Q2530.65 1634.25 2527.64 1634.89 Q2524.63 1635.53 2521.54 1635.53 Q2513.78 1635.53 2509.24 1631.01 Q2504.72 1626.5 2504.72 1618.8 Q2504.72 1610.85 2509.01 1606.19 Q2513.32 1601.5 2520.61 1601.5 Q2527.15 1601.5 2530.94 1605.72 Q2534.76 1609.92 2534.76 1617.15 M2529.43 1615.59 Q2529.38 1611.22 2526.98 1608.62 Q2524.6 1606.01 2520.67 1606.01 Q2516.21 1606.01 2513.52 1608.53 Q2510.86 1611.05 2510.45 1615.62 L2529.43 1615.59 Z" fill="#000000" fill-rule="evenodd" fill-opacity="1" /></svg>
