<?xml version="1.0" encoding="utf-8"?>
<svg xmlns="http://www.w3.org/2000/svg" xmlns:xlink="http://www.w3.org/1999/xlink" width="672" height="480" viewBox="0 0 2688 1920">
<defs>
  <clipPath id="clip090">
    <rect x="0" y="0" width="2688" height="1920"/>
  </clipPath>
</defs>
<path clip-path="url(#clip090)" d="M0 1920 L2688 1920 L2688 0 L0 0  Z" fill="#ffffff" fill-rule="evenodd" fill-opacity="1"/>
<defs>
  <clipPath id="clip091">
    <rect x="537" y="0" width="1883" height="1883"/>
  </clipPath>
</defs>
<path clip-path="url(#clip090)" d="M210.238 1734.12 L2640.76 1734.12 L2640.76 47.2441 L210.238 47.2441  Z" fill="#ffffff" fill-rule="evenodd" fill-opacity="1"/>
<defs>
  <clipPath id="clip092">
    <rect x="210" y="47" width="2432" height="1688"/>
  </clipPath>
</defs>
<polyline clip-path="url(#clip092)" style="stroke:#5f9ea0; stroke-linecap:round; stroke-linejoin:round; stroke-width:8; stroke-opacity:0.4; fill:none" stroke-dasharray="32, 16, 4, 16" points="443.607,1734.12 443.607,47.2441 "/>
<polyline clip-path="url(#clip092)" style="stroke:#5f9ea0; stroke-linecap:round; stroke-linejoin:round; stroke-width:8; stroke-opacity:0.4; fill:none" stroke-dasharray="32, 16, 4, 16" points="1056.8,1734.12 1056.8,47.2441 "/>
<polyline clip-path="url(#clip092)" style="stroke:#5f9ea0; stroke-linecap:round; stroke-linejoin:round; stroke-width:8; stroke-opacity:0.4; fill:none" stroke-dasharray="32, 16, 4, 16" points="1669.99,1734.12 1669.99,47.2441 "/>
<polyline clip-path="url(#clip092)" style="stroke:#5f9ea0; stroke-linecap:round; stroke-linejoin:round; stroke-width:8; stroke-opacity:0.4; fill:none" stroke-dasharray="32, 16, 4, 16" points="2283.18,1734.12 2283.18,47.2441 "/>
<polyline clip-path="url(#clip090)" style="stroke:#000000; stroke-linecap:round; stroke-linejoin:round; stroke-width:4; stroke-opacity:1; fill:none" points="210.238,1734.12 2640.76,1734.12 "/>
<polyline clip-path="url(#clip090)" style="stroke:#000000; stroke-linecap:round; stroke-linejoin:round; stroke-width:4; stroke-opacity:1; fill:none" points="210.238,47.2441 2640.76,47.2441 "/>
<polyline clip-path="url(#clip090)" style="stroke:#000000; stroke-linecap:round; stroke-linejoin:round; stroke-width:4; stroke-opacity:1; fill:none" points="443.607,1734.12 443.607,1715.22 "/>
<polyline clip-path="url(#clip090)" style="stroke:#000000; stroke-linecap:round; stroke-linejoin:round; stroke-width:4; stroke-opacity:1; fill:none" points="1056.8,1734.12 1056.8,1715.22 "/>
<polyline clip-path="url(#clip090)" style="stroke:#000000; stroke-linecap:round; stroke-linejoin:round; stroke-width:4; stroke-opacity:1; fill:none" points="1669.99,1734.12 1669.99,1715.22 "/>
<polyline clip-path="url(#clip090)" style="stroke:#000000; stroke-linecap:round; stroke-linejoin:round; stroke-width:4; stroke-opacity:1; fill:none" points="2283.18,1734.12 2283.18,1715.22 "/>
<path clip-path="url(#clip090)" d="M417.368 1780.19 Q420.725 1780.9 422.6 1783.17 Q424.498 1785.44 424.498 1788.77 Q424.498 1793.89 420.979 1796.69 Q417.461 1799.49 410.979 1799.49 Q408.803 1799.49 406.489 1799.05 Q404.197 1798.64 401.743 1797.78 L401.743 1793.27 Q403.688 1794.4 406.003 1794.98 Q408.317 1795.56 410.841 1795.56 Q415.239 1795.56 417.53 1793.82 Q419.845 1792.08 419.845 1788.77 Q419.845 1785.72 417.692 1784.01 Q415.563 1782.27 411.743 1782.27 L407.716 1782.27 L407.716 1778.43 L411.928 1778.43 Q415.378 1778.43 417.206 1777.06 Q419.035 1775.67 419.035 1773.08 Q419.035 1770.42 417.137 1769.01 Q415.262 1767.57 411.743 1767.57 Q409.822 1767.57 407.623 1767.99 Q405.424 1768.4 402.785 1769.28 L402.785 1765.12 Q405.447 1764.38 407.762 1764.01 Q410.1 1763.64 412.16 1763.64 Q417.484 1763.64 420.586 1766.07 Q423.688 1768.47 423.688 1772.59 Q423.688 1775.46 422.044 1777.46 Q420.401 1779.42 417.368 1780.19 Z" fill="#000000" fill-rule="evenodd" fill-opacity="1" /><path clip-path="url(#clip090)" d="M443.363 1767.34 Q439.752 1767.34 437.924 1770.9 Q436.118 1774.45 436.118 1781.58 Q436.118 1788.68 437.924 1792.25 Q439.752 1795.79 443.363 1795.79 Q446.998 1795.79 448.803 1792.25 Q450.632 1788.68 450.632 1781.58 Q450.632 1774.45 448.803 1770.9 Q446.998 1767.34 443.363 1767.34 M443.363 1763.64 Q449.174 1763.64 452.229 1768.24 Q455.308 1772.83 455.308 1781.58 Q455.308 1790.3 452.229 1794.91 Q449.174 1799.49 443.363 1799.49 Q437.553 1799.49 434.475 1794.91 Q431.419 1790.3 431.419 1781.58 Q431.419 1772.83 434.475 1768.24 Q437.553 1763.64 443.363 1763.64 Z" fill="#000000" fill-rule="evenodd" fill-opacity="1" /><path clip-path="url(#clip090)" d="M473.525 1767.34 Q469.914 1767.34 468.086 1770.9 Q466.28 1774.45 466.28 1781.58 Q466.28 1788.68 468.086 1792.25 Q469.914 1795.79 473.525 1795.79 Q477.16 1795.79 478.965 1792.25 Q480.794 1788.68 480.794 1781.58 Q480.794 1774.45 478.965 1770.9 Q477.16 1767.34 473.525 1767.34 M473.525 1763.64 Q479.336 1763.64 482.391 1768.24 Q485.47 1772.83 485.47 1781.58 Q485.47 1790.3 482.391 1794.91 Q479.336 1799.49 473.525 1799.49 Q467.715 1799.49 464.637 1794.91 Q461.581 1790.3 461.581 1781.58 Q461.581 1772.83 464.637 1768.24 Q467.715 1763.64 473.525 1763.64 Z" fill="#000000" fill-rule="evenodd" fill-opacity="1" /><path clip-path="url(#clip090)" d="M1029.89 1768.34 L1018.08 1786.78 L1029.89 1786.78 L1029.89 1768.34 M1028.66 1764.26 L1034.54 1764.26 L1034.54 1786.78 L1039.47 1786.78 L1039.47 1790.67 L1034.54 1790.67 L1034.54 1798.82 L1029.89 1798.82 L1029.89 1790.67 L1014.29 1790.67 L1014.29 1786.16 L1028.66 1764.26 Z" fill="#000000" fill-rule="evenodd" fill-opacity="1" /><path clip-path="url(#clip090)" d="M1057.2 1767.34 Q1053.59 1767.34 1051.76 1770.9 Q1049.96 1774.45 1049.96 1781.58 Q1049.96 1788.68 1051.76 1792.25 Q1053.59 1795.79 1057.2 1795.79 Q1060.84 1795.79 1062.64 1792.25 Q1064.47 1788.68 1064.47 1781.58 Q1064.47 1774.45 1062.64 1770.9 Q1060.84 1767.34 1057.2 1767.34 M1057.2 1763.64 Q1063.01 1763.64 1066.07 1768.24 Q1069.15 1772.83 1069.15 1781.58 Q1069.15 1790.3 1066.07 1794.91 Q1063.01 1799.49 1057.2 1799.49 Q1051.39 1799.49 1048.31 1794.91 Q1045.26 1790.3 1045.26 1781.58 Q1045.26 1772.83 1048.31 1768.24 Q1051.39 1763.64 1057.2 1763.64 Z" fill="#000000" fill-rule="evenodd" fill-opacity="1" /><path clip-path="url(#clip090)" d="M1087.36 1767.34 Q1083.75 1767.34 1081.92 1770.9 Q1080.12 1774.45 1080.12 1781.58 Q1080.12 1788.68 1081.92 1792.25 Q1083.75 1795.79 1087.36 1795.79 Q1091 1795.79 1092.8 1792.25 Q1094.63 1788.68 1094.63 1781.58 Q1094.63 1774.45 1092.8 1770.9 Q1091 1767.34 1087.36 1767.34 M1087.36 1763.64 Q1093.17 1763.64 1096.23 1768.24 Q1099.31 1772.83 1099.31 1781.58 Q1099.31 1790.3 1096.23 1794.91 Q1093.17 1799.49 1087.36 1799.49 Q1081.55 1799.49 1078.48 1794.91 Q1075.42 1790.3 1075.42 1781.58 Q1075.42 1772.83 1078.48 1768.24 Q1081.55 1763.64 1087.36 1763.64 Z" fill="#000000" fill-rule="evenodd" fill-opacity="1" /><path clip-path="url(#clip090)" d="M1629.61 1764.26 L1647.96 1764.26 L1647.96 1768.2 L1633.89 1768.2 L1633.89 1776.67 Q1634.91 1776.32 1635.93 1776.16 Q1636.94 1775.97 1637.96 1775.97 Q1643.75 1775.97 1647.13 1779.15 Q1650.51 1782.32 1650.51 1787.73 Q1650.51 1793.31 1647.04 1796.41 Q1643.56 1799.49 1637.25 1799.49 Q1635.07 1799.49 1632.8 1799.12 Q1630.56 1798.75 1628.15 1798.01 L1628.15 1793.31 Q1630.23 1794.45 1632.45 1795 Q1634.68 1795.56 1637.15 1795.56 Q1641.16 1795.56 1643.5 1793.45 Q1645.83 1791.34 1645.83 1787.73 Q1645.83 1784.12 1643.5 1782.02 Q1641.16 1779.91 1637.15 1779.91 Q1635.28 1779.91 1633.4 1780.33 Q1631.55 1780.74 1629.61 1781.62 L1629.61 1764.26 Z" fill="#000000" fill-rule="evenodd" fill-opacity="1" /><path clip-path="url(#clip090)" d="M1669.72 1767.34 Q1666.11 1767.34 1664.28 1770.9 Q1662.48 1774.45 1662.48 1781.58 Q1662.48 1788.68 1664.28 1792.25 Q1666.11 1795.79 1669.72 1795.79 Q1673.36 1795.79 1675.16 1792.25 Q1676.99 1788.68 1676.99 1781.58 Q1676.99 1774.45 1675.16 1770.9 Q1673.36 1767.34 1669.72 1767.34 M1669.72 1763.64 Q1675.53 1763.64 1678.59 1768.24 Q1681.67 1772.83 1681.67 1781.58 Q1681.67 1790.3 1678.59 1794.91 Q1675.53 1799.49 1669.72 1799.49 Q1663.91 1799.49 1660.83 1794.91 Q1657.78 1790.3 1657.78 1781.58 Q1657.78 1772.83 1660.83 1768.24 Q1663.91 1763.64 1669.72 1763.64 Z" fill="#000000" fill-rule="evenodd" fill-opacity="1" /><path clip-path="url(#clip090)" d="M1699.88 1767.34 Q1696.27 1767.34 1694.44 1770.9 Q1692.64 1774.45 1692.64 1781.58 Q1692.64 1788.68 1694.44 1792.25 Q1696.27 1795.79 1699.88 1795.79 Q1703.52 1795.79 1705.32 1792.25 Q1707.15 1788.68 1707.15 1781.58 Q1707.15 1774.45 1705.32 1770.9 Q1703.52 1767.34 1699.88 1767.34 M1699.88 1763.64 Q1705.69 1763.64 1708.75 1768.24 Q1711.83 1772.83 1711.83 1781.58 Q1711.83 1790.3 1708.75 1794.91 Q1705.69 1799.49 1699.88 1799.49 Q1694.07 1799.49 1691 1794.91 Q1687.94 1790.3 1687.94 1781.58 Q1687.94 1772.83 1691 1768.24 Q1694.07 1763.64 1699.88 1763.64 Z" fill="#000000" fill-rule="evenodd" fill-opacity="1" /><path clip-path="url(#clip090)" d="M2253.5 1779.68 Q2250.36 1779.68 2248.5 1781.83 Q2246.67 1783.98 2246.67 1787.73 Q2246.67 1791.46 2248.5 1793.64 Q2250.36 1795.79 2253.5 1795.79 Q2256.65 1795.79 2258.48 1793.64 Q2260.33 1791.46 2260.33 1787.73 Q2260.33 1783.98 2258.48 1781.83 Q2256.65 1779.68 2253.5 1779.68 M2262.79 1765.02 L2262.79 1769.28 Q2261.03 1768.45 2259.22 1768.01 Q2257.44 1767.57 2255.68 1767.57 Q2251.05 1767.57 2248.6 1770.7 Q2246.17 1773.82 2245.82 1780.14 Q2247.18 1778.13 2249.24 1777.06 Q2251.3 1775.97 2253.78 1775.97 Q2258.99 1775.97 2262 1779.15 Q2265.03 1782.29 2265.03 1787.73 Q2265.03 1793.06 2261.88 1796.27 Q2258.73 1799.49 2253.5 1799.49 Q2247.51 1799.49 2244.34 1794.91 Q2241.17 1790.3 2241.17 1781.58 Q2241.17 1773.38 2245.05 1768.52 Q2248.94 1763.64 2255.49 1763.64 Q2257.25 1763.64 2259.04 1763.98 Q2260.84 1764.33 2262.79 1765.02 Z" fill="#000000" fill-rule="evenodd" fill-opacity="1" /><path clip-path="url(#clip090)" d="M2283.09 1767.34 Q2279.48 1767.34 2277.65 1770.9 Q2275.84 1774.45 2275.84 1781.58 Q2275.84 1788.68 2277.65 1792.25 Q2279.48 1795.79 2283.09 1795.79 Q2286.72 1795.79 2288.53 1792.25 Q2290.36 1788.68 2290.36 1781.58 Q2290.36 1774.45 2288.53 1770.9 Q2286.72 1767.34 2283.09 1767.34 M2283.09 1763.64 Q2288.9 1763.64 2291.95 1768.24 Q2295.03 1772.83 2295.03 1781.58 Q2295.03 1790.3 2291.95 1794.91 Q2288.9 1799.49 2283.09 1799.49 Q2277.28 1799.49 2274.2 1794.91 Q2271.14 1790.3 2271.14 1781.58 Q2271.14 1772.83 2274.2 1768.24 Q2277.28 1763.64 2283.09 1763.64 Z" fill="#000000" fill-rule="evenodd" fill-opacity="1" /><path clip-path="url(#clip090)" d="M2313.25 1767.34 Q2309.64 1767.34 2307.81 1770.9 Q2306 1774.45 2306 1781.58 Q2306 1788.68 2307.81 1792.25 Q2309.64 1795.79 2313.25 1795.79 Q2316.88 1795.79 2318.69 1792.25 Q2320.52 1788.68 2320.52 1781.58 Q2320.52 1774.45 2318.69 1770.9 Q2316.88 1767.34 2313.25 1767.34 M2313.25 1763.64 Q2319.06 1763.64 2322.11 1768.24 Q2325.19 1772.83 2325.19 1781.58 Q2325.19 1790.3 2322.11 1794.91 Q2319.06 1799.49 2313.25 1799.49 Q2307.44 1799.49 2304.36 1794.91 Q2301.3 1790.3 2301.3 1781.58 Q2301.3 1772.83 2304.36 1768.24 Q2307.44 1763.64 2313.25 1763.64 Z" fill="#000000" fill-rule="evenodd" fill-opacity="1" /><path clip-path="url(#clip090)" d="M1164.58 1835.78 L1204.78 1835.78 L1204.78 1841.19 L1187.91 1841.19 L1187.91 1883.3 L1181.45 1883.3 L1181.45 1841.19 L1164.58 1841.19 L1164.58 1835.78 Z" fill="#000000" fill-rule="evenodd" fill-opacity="1" /><path clip-path="url(#clip090)" d="M1230.15 1864.01 L1230.15 1866.88 L1203.22 1866.88 Q1203.6 1872.92 1206.85 1876.11 Q1210.13 1879.26 1215.95 1879.26 Q1219.33 1879.26 1222.48 1878.43 Q1225.66 1877.6 1228.78 1875.95 L1228.78 1881.49 Q1225.63 1882.82 1222.32 1883.52 Q1219.01 1884.22 1215.6 1884.22 Q1207.07 1884.22 1202.08 1879.26 Q1197.11 1874.29 1197.11 1865.83 Q1197.11 1857.07 1201.82 1851.95 Q1206.56 1846.79 1214.59 1846.79 Q1221.78 1846.79 1225.95 1851.44 Q1230.15 1856.06 1230.15 1864.01 M1224.29 1862.29 Q1224.23 1857.49 1221.59 1854.62 Q1218.98 1851.76 1214.65 1851.76 Q1209.75 1851.76 1206.79 1854.53 Q1203.86 1857.3 1203.41 1862.33 L1224.29 1862.29 Z" fill="#000000" fill-rule="evenodd" fill-opacity="1" /><path clip-path="url(#clip090)" d="M1267.52 1854.5 Q1269.71 1850.55 1272.77 1848.67 Q1275.82 1846.79 1279.96 1846.79 Q1285.53 1846.79 1288.55 1850.71 Q1291.58 1854.59 1291.58 1861.78 L1291.58 1883.3 L1285.69 1883.3 L1285.69 1861.98 Q1285.69 1856.85 1283.88 1854.37 Q1282.06 1851.89 1278.34 1851.89 Q1273.79 1851.89 1271.14 1854.91 Q1268.5 1857.93 1268.5 1863.15 L1268.5 1883.3 L1262.61 1883.3 L1262.61 1861.98 Q1262.61 1856.82 1260.8 1854.37 Q1258.99 1851.89 1255.2 1851.89 Q1250.71 1851.89 1248.07 1854.94 Q1245.43 1857.97 1245.43 1863.15 L1245.43 1883.3 L1239.54 1883.3 L1239.54 1847.65 L1245.43 1847.65 L1245.43 1853.19 Q1247.43 1849.91 1250.23 1848.35 Q1253.03 1846.79 1256.89 1846.79 Q1260.77 1846.79 1263.47 1848.77 Q1266.21 1850.74 1267.52 1854.5 Z" fill="#000000" fill-rule="evenodd" fill-opacity="1" /><path clip-path="url(#clip090)" d="M1308.92 1877.95 L1308.92 1896.86 L1303.04 1896.86 L1303.04 1847.65 L1308.92 1847.65 L1308.92 1853.06 Q1310.77 1849.88 1313.57 1848.35 Q1316.4 1846.79 1320.32 1846.79 Q1326.81 1846.79 1330.85 1851.95 Q1334.93 1857.11 1334.93 1865.51 Q1334.93 1873.91 1330.85 1879.07 Q1326.81 1884.22 1320.32 1884.22 Q1316.4 1884.22 1313.57 1882.7 Q1310.77 1881.14 1308.92 1877.95 M1328.85 1865.51 Q1328.85 1859.05 1326.18 1855.39 Q1323.53 1851.7 1318.89 1851.7 Q1314.24 1851.7 1311.57 1855.39 Q1308.92 1859.05 1308.92 1865.51 Q1308.92 1871.97 1311.57 1875.66 Q1314.24 1879.32 1318.89 1879.32 Q1323.53 1879.32 1326.18 1875.66 Q1328.85 1871.97 1328.85 1865.51 Z" fill="#000000" fill-rule="evenodd" fill-opacity="1" /><path clip-path="url(#clip090)" d="M1375.13 1864.01 L1375.13 1866.88 L1348.2 1866.88 Q1348.58 1872.92 1351.83 1876.11 Q1355.11 1879.26 1360.93 1879.26 Q1364.31 1879.26 1367.46 1878.43 Q1370.64 1877.6 1373.76 1875.95 L1373.76 1881.49 Q1370.61 1882.82 1367.3 1883.52 Q1363.99 1884.22 1360.58 1884.22 Q1352.05 1884.22 1347.06 1879.26 Q1342.09 1874.29 1342.09 1865.83 Q1342.09 1857.07 1346.8 1851.95 Q1351.54 1846.79 1359.56 1846.79 Q1366.76 1846.79 1370.93 1851.44 Q1375.13 1856.06 1375.13 1864.01 M1369.27 1862.29 Q1369.21 1857.49 1366.57 1854.62 Q1363.96 1851.76 1359.63 1851.76 Q1354.73 1851.76 1351.77 1854.53 Q1348.84 1857.3 1348.39 1862.33 L1369.27 1862.29 Z" fill="#000000" fill-rule="evenodd" fill-opacity="1" /><path clip-path="url(#clip090)" d="M1405.4 1853.13 Q1404.41 1852.55 1403.23 1852.3 Q1402.09 1852.01 1400.69 1852.01 Q1395.72 1852.01 1393.05 1855.26 Q1390.41 1858.47 1390.41 1864.52 L1390.41 1883.3 L1384.52 1883.3 L1384.52 1847.65 L1390.41 1847.65 L1390.41 1853.19 Q1392.25 1849.94 1395.21 1848.39 Q1398.17 1846.79 1402.41 1846.79 Q1403.01 1846.79 1403.74 1846.89 Q1404.47 1846.95 1405.37 1847.11 L1405.4 1853.13 Z" fill="#000000" fill-rule="evenodd" fill-opacity="1" /><path clip-path="url(#clip090)" d="M1427.74 1865.38 Q1420.64 1865.38 1417.91 1867 Q1415.17 1868.63 1415.17 1872.54 Q1415.17 1875.66 1417.21 1877.51 Q1419.27 1879.32 1422.81 1879.32 Q1427.68 1879.32 1430.61 1875.88 Q1433.57 1872.42 1433.57 1866.69 L1433.57 1865.38 L1427.74 1865.38 M1439.42 1862.96 L1439.42 1883.3 L1433.57 1883.3 L1433.57 1877.89 Q1431.56 1881.14 1428.57 1882.7 Q1425.58 1884.22 1421.25 1884.22 Q1415.77 1884.22 1412.53 1881.17 Q1409.31 1878.08 1409.31 1872.92 Q1409.31 1866.91 1413.32 1863.85 Q1417.36 1860.8 1425.35 1860.8 L1433.57 1860.8 L1433.57 1860.23 Q1433.57 1856.18 1430.89 1853.99 Q1428.25 1851.76 1423.44 1851.76 Q1420.39 1851.76 1417.49 1852.49 Q1414.6 1853.22 1411.92 1854.69 L1411.92 1849.28 Q1415.14 1848.03 1418.16 1847.43 Q1421.18 1846.79 1424.05 1846.79 Q1431.78 1846.79 1435.6 1850.8 Q1439.42 1854.81 1439.42 1862.96 Z" fill="#000000" fill-rule="evenodd" fill-opacity="1" /><path clip-path="url(#clip090)" d="M1457.28 1837.53 L1457.28 1847.65 L1469.34 1847.65 L1469.34 1852.2 L1457.28 1852.2 L1457.28 1871.56 Q1457.28 1875.92 1458.46 1877.16 Q1459.66 1878.4 1463.33 1878.4 L1469.34 1878.4 L1469.34 1883.3 L1463.33 1883.3 Q1456.55 1883.3 1453.97 1880.79 Q1451.39 1878.24 1451.39 1871.56 L1451.39 1852.2 L1447.09 1852.2 L1447.09 1847.65 L1451.39 1847.65 L1451.39 1837.53 L1457.28 1837.53 Z" fill="#000000" fill-rule="evenodd" fill-opacity="1" /><path clip-path="url(#clip090)" d="M1476.44 1869.23 L1476.44 1847.65 L1482.29 1847.65 L1482.29 1869.01 Q1482.29 1874.07 1484.27 1876.62 Q1486.24 1879.13 1490.19 1879.13 Q1494.93 1879.13 1497.67 1876.11 Q1500.44 1873.08 1500.44 1867.86 L1500.44 1847.65 L1506.29 1847.65 L1506.29 1883.3 L1500.44 1883.3 L1500.44 1877.83 Q1498.3 1881.07 1495.47 1882.66 Q1492.67 1884.22 1488.95 1884.22 Q1482.8 1884.22 1479.62 1880.4 Q1476.44 1876.59 1476.44 1869.23 M1491.18 1846.79 L1491.18 1846.79 Z" fill="#000000" fill-rule="evenodd" fill-opacity="1" /><path clip-path="url(#clip090)" d="M1539.01 1853.13 Q1538.03 1852.55 1536.85 1852.3 Q1535.7 1852.01 1534.3 1852.01 Q1529.34 1852.01 1526.66 1855.26 Q1524.02 1858.47 1524.02 1864.52 L1524.02 1883.3 L1518.13 1883.3 L1518.13 1847.65 L1524.02 1847.65 L1524.02 1853.19 Q1525.87 1849.94 1528.83 1848.39 Q1531.79 1846.79 1536.02 1846.79 Q1536.63 1846.79 1537.36 1846.89 Q1538.09 1846.95 1538.98 1847.11 L1539.01 1853.13 Z" fill="#000000" fill-rule="evenodd" fill-opacity="1" /><path clip-path="url(#clip090)" d="M1574.22 1864.01 L1574.22 1866.88 L1547.29 1866.88 Q1547.67 1872.92 1550.92 1876.11 Q1554.2 1879.26 1560.02 1879.26 Q1563.39 1879.26 1566.55 1878.43 Q1569.73 1877.6 1572.85 1875.95 L1572.85 1881.49 Q1569.7 1882.82 1566.39 1883.52 Q1563.08 1884.22 1559.67 1884.22 Q1551.14 1884.22 1546.14 1879.26 Q1541.18 1874.29 1541.18 1865.83 Q1541.18 1857.07 1545.89 1851.95 Q1550.63 1846.79 1558.65 1846.79 Q1565.84 1846.79 1570.01 1851.44 Q1574.22 1856.06 1574.22 1864.01 M1568.36 1862.29 Q1568.3 1857.49 1565.65 1854.62 Q1563.04 1851.76 1558.72 1851.76 Q1553.81 1851.76 1550.85 1854.53 Q1547.93 1857.3 1547.48 1862.33 L1568.36 1862.29 Z" fill="#000000" fill-rule="evenodd" fill-opacity="1" /><path clip-path="url(#clip090)" d="M1604.01 1833.78 L1617.5 1833.78 L1617.5 1838.33 L1609.86 1838.33 L1609.86 1887.34 L1617.5 1887.34 L1617.5 1891.89 L1604.01 1891.89 L1604.01 1833.78 Z" fill="#000000" fill-rule="evenodd" fill-opacity="1" /><path clip-path="url(#clip090)" d="M1630.23 1835.78 L1636.66 1835.78 L1636.66 1855.86 L1657.99 1835.78 L1666.26 1835.78 L1642.68 1857.93 L1667.95 1883.3 L1659.48 1883.3 L1636.66 1860.42 L1636.66 1883.3 L1630.23 1883.3 L1630.23 1835.78 Z" fill="#000000" fill-rule="evenodd" fill-opacity="1" /><path clip-path="url(#clip090)" d="M1686.41 1833.78 L1686.41 1891.89 L1672.92 1891.89 L1672.92 1887.34 L1680.52 1887.34 L1680.52 1838.33 L1672.92 1838.33 L1672.92 1833.78 L1686.41 1833.78 Z" fill="#000000" fill-rule="evenodd" fill-opacity="1" /><polyline clip-path="url(#clip092)" style="stroke:#5f9ea0; stroke-linecap:round; stroke-linejoin:round; stroke-width:8; stroke-opacity:0.4; fill:none" stroke-dasharray="32, 16, 4, 16" points="210.238,1686.42 2640.76,1686.42 "/>
<polyline clip-path="url(#clip092)" style="stroke:#5f9ea0; stroke-linecap:round; stroke-linejoin:round; stroke-width:8; stroke-opacity:0.4; fill:none" stroke-dasharray="32, 16, 4, 16" points="210.238,1325.78 2640.76,1325.78 "/>
<polyline clip-path="url(#clip092)" style="stroke:#5f9ea0; stroke-linecap:round; stroke-linejoin:round; stroke-width:8; stroke-opacity:0.4; fill:none" stroke-dasharray="32, 16, 4, 16" points="210.238,965.139 2640.76,965.139 "/>
<polyline clip-path="url(#clip092)" style="stroke:#5f9ea0; stroke-linecap:round; stroke-linejoin:round; stroke-width:8; stroke-opacity:0.4; fill:none" stroke-dasharray="32, 16, 4, 16" points="210.238,604.498 2640.76,604.498 "/>
<polyline clip-path="url(#clip092)" style="stroke:#5f9ea0; stroke-linecap:round; stroke-linejoin:round; stroke-width:8; stroke-opacity:0.4; fill:none" stroke-dasharray="32, 16, 4, 16" points="210.238,243.858 2640.76,243.858 "/>
<polyline clip-path="url(#clip090)" style="stroke:#000000; stroke-linecap:round; stroke-linejoin:round; stroke-width:4; stroke-opacity:1; fill:none" points="210.238,1734.12 210.238,47.2441 "/>
<polyline clip-path="url(#clip090)" style="stroke:#000000; stroke-linecap:round; stroke-linejoin:round; stroke-width:4; stroke-opacity:1; fill:none" points="2640.76,1734.12 2640.76,47.2441 "/>
<polyline clip-path="url(#clip090)" style="stroke:#000000; stroke-linecap:round; stroke-linejoin:round; stroke-width:4; stroke-opacity:1; fill:none" points="210.238,1686.42 229.135,1686.42 "/>
<polyline clip-path="url(#clip090)" style="stroke:#000000; stroke-linecap:round; stroke-linejoin:round; stroke-width:4; stroke-opacity:1; fill:none" points="210.238,1325.78 229.135,1325.78 "/>
<polyline clip-path="url(#clip090)" style="stroke:#000000; stroke-linecap:round; stroke-linejoin:round; stroke-width:4; stroke-opacity:1; fill:none" points="210.238,965.139 229.135,965.139 "/>
<polyline clip-path="url(#clip090)" style="stroke:#000000; stroke-linecap:round; stroke-linejoin:round; stroke-width:4; stroke-opacity:1; fill:none" points="210.238,604.498 229.135,604.498 "/>
<polyline clip-path="url(#clip090)" style="stroke:#000000; stroke-linecap:round; stroke-linejoin:round; stroke-width:4; stroke-opacity:1; fill:none" points="210.238,243.858 229.135,243.858 "/>
<path clip-path="url(#clip090)" d="M157.973 1672.22 Q154.362 1672.22 152.534 1675.78 Q150.728 1679.32 150.728 1686.45 Q150.728 1693.56 152.534 1697.13 Q154.362 1700.67 157.973 1700.67 Q161.608 1700.67 163.413 1697.13 Q165.242 1693.56 165.242 1686.45 Q165.242 1679.32 163.413 1675.78 Q161.608 1672.22 157.973 1672.22 M157.973 1668.51 Q163.784 1668.51 166.839 1673.12 Q169.918 1677.7 169.918 1686.45 Q169.918 1695.18 166.839 1699.79 Q163.784 1704.37 157.973 1704.37 Q152.163 1704.37 149.085 1699.79 Q146.029 1695.18 146.029 1686.45 Q146.029 1677.7 149.085 1673.12 Q152.163 1668.51 157.973 1668.51 Z" fill="#000000" fill-rule="evenodd" fill-opacity="1" /><path clip-path="url(#clip090)" d="M149.015 1308.5 L167.372 1308.5 L167.372 1312.43 L153.298 1312.43 L153.298 1320.91 Q154.316 1320.56 155.335 1320.4 Q156.353 1320.21 157.372 1320.21 Q163.159 1320.21 166.538 1323.38 Q169.918 1326.55 169.918 1331.97 Q169.918 1337.55 166.446 1340.65 Q162.973 1343.73 156.654 1343.73 Q154.478 1343.73 152.21 1343.36 Q149.964 1342.99 147.557 1342.25 L147.557 1337.55 Q149.64 1338.68 151.862 1339.24 Q154.085 1339.8 156.561 1339.8 Q160.566 1339.8 162.904 1337.69 Q165.242 1335.58 165.242 1331.97 Q165.242 1328.36 162.904 1326.25 Q160.566 1324.15 156.561 1324.15 Q154.686 1324.15 152.811 1324.56 Q150.96 1324.98 149.015 1325.86 L149.015 1308.5 Z" fill="#000000" fill-rule="evenodd" fill-opacity="1" /><path clip-path="url(#clip090)" d="M118.622 978.484 L126.261 978.484 L126.261 952.118 L117.951 953.785 L117.951 949.525 L126.214 947.859 L130.89 947.859 L130.89 978.484 L138.529 978.484 L138.529 982.419 L118.622 982.419 L118.622 978.484 Z" fill="#000000" fill-rule="evenodd" fill-opacity="1" /><path clip-path="url(#clip090)" d="M157.973 950.937 Q154.362 950.937 152.534 954.502 Q150.728 958.044 150.728 965.173 Q150.728 972.28 152.534 975.845 Q154.362 979.386 157.973 979.386 Q161.608 979.386 163.413 975.845 Q165.242 972.28 165.242 965.173 Q165.242 958.044 163.413 954.502 Q161.608 950.937 157.973 950.937 M157.973 947.234 Q163.784 947.234 166.839 951.84 Q169.918 956.424 169.918 965.173 Q169.918 973.9 166.839 978.507 Q163.784 983.09 157.973 983.09 Q152.163 983.09 149.085 978.507 Q146.029 973.9 146.029 965.173 Q146.029 956.424 149.085 951.84 Q152.163 947.234 157.973 947.234 Z" fill="#000000" fill-rule="evenodd" fill-opacity="1" /><path clip-path="url(#clip090)" d="M119.617 617.843 L127.256 617.843 L127.256 591.478 L118.946 593.144 L118.946 588.885 L127.21 587.218 L131.886 587.218 L131.886 617.843 L139.525 617.843 L139.525 621.778 L119.617 621.778 L119.617 617.843 Z" fill="#000000" fill-rule="evenodd" fill-opacity="1" /><path clip-path="url(#clip090)" d="M149.015 587.218 L167.372 587.218 L167.372 591.154 L153.298 591.154 L153.298 599.626 Q154.316 599.279 155.335 599.117 Q156.353 598.931 157.372 598.931 Q163.159 598.931 166.538 602.103 Q169.918 605.274 169.918 610.691 Q169.918 616.269 166.446 619.371 Q162.973 622.45 156.654 622.45 Q154.478 622.45 152.21 622.079 Q149.964 621.709 147.557 620.968 L147.557 616.269 Q149.64 617.403 151.862 617.959 Q154.085 618.515 156.561 618.515 Q160.566 618.515 162.904 616.408 Q165.242 614.302 165.242 610.691 Q165.242 607.079 162.904 604.973 Q160.566 602.866 156.561 602.866 Q154.686 602.866 152.811 603.283 Q150.96 603.7 149.015 604.579 L149.015 587.218 Z" fill="#000000" fill-rule="evenodd" fill-opacity="1" /><path clip-path="url(#clip090)" d="M121.839 257.203 L138.159 257.203 L138.159 261.138 L116.214 261.138 L116.214 257.203 Q118.876 254.448 123.46 249.819 Q128.066 245.166 129.247 243.823 Q131.492 241.3 132.372 239.564 Q133.275 237.805 133.275 236.115 Q133.275 233.36 131.33 231.624 Q129.409 229.888 126.307 229.888 Q124.108 229.888 121.654 230.652 Q119.224 231.416 116.446 232.967 L116.446 228.245 Q119.27 227.111 121.724 226.532 Q124.177 225.953 126.214 225.953 Q131.585 225.953 134.779 228.638 Q137.974 231.323 137.974 235.814 Q137.974 237.944 137.163 239.865 Q136.376 241.763 134.27 244.356 Q133.691 245.027 130.589 248.245 Q127.488 251.439 121.839 257.203 Z" fill="#000000" fill-rule="evenodd" fill-opacity="1" /><path clip-path="url(#clip090)" d="M157.973 229.657 Q154.362 229.657 152.534 233.222 Q150.728 236.763 150.728 243.893 Q150.728 250.999 152.534 254.564 Q154.362 258.106 157.973 258.106 Q161.608 258.106 163.413 254.564 Q165.242 250.999 165.242 243.893 Q165.242 236.763 163.413 233.222 Q161.608 229.657 157.973 229.657 M157.973 225.953 Q163.784 225.953 166.839 230.56 Q169.918 235.143 169.918 243.893 Q169.918 252.62 166.839 257.226 Q163.784 261.809 157.973 261.809 Q152.163 261.809 149.085 257.226 Q146.029 252.62 146.029 243.893 Q146.029 235.143 149.085 230.56 Q152.163 225.953 157.973 225.953 Z" fill="#000000" fill-rule="evenodd" fill-opacity="1" /><path clip-path="url(#clip090)" d="M19.402 1119.5 L37.2578 1119.5 L37.2578 1111.41 Q37.2578 1106.92 34.9343 1104.47 Q32.6108 1102.02 28.314 1102.02 Q24.0489 1102.02 21.7255 1104.47 Q19.402 1106.92 19.402 1111.41 L19.402 1119.5 M14.1184 1125.93 L14.1184 1111.41 Q14.1184 1103.42 17.7469 1099.35 Q21.3435 1095.24 28.314 1095.24 Q35.3481 1095.24 38.9447 1099.35 Q42.5413 1103.42 42.5413 1111.41 L42.5413 1119.5 L61.6384 1119.5 L61.6384 1125.93 L14.1184 1125.93 Z" fill="#000000" fill-rule="evenodd" fill-opacity="1" /><path clip-path="url(#clip090)" d="M31.465 1067.36 Q30.8921 1068.35 30.6375 1069.53 Q30.351 1070.67 30.351 1072.07 Q30.351 1077.04 33.5975 1079.71 Q36.8122 1082.35 42.8596 1082.35 L61.6384 1082.35 L61.6384 1088.24 L25.9905 1088.24 L25.9905 1082.35 L31.5287 1082.35 Q28.2821 1080.51 26.7225 1077.55 Q25.1311 1074.59 25.1311 1070.35 Q25.1311 1069.75 25.2266 1069.02 Q25.2903 1068.28 25.4494 1067.39 L31.465 1067.36 Z" fill="#000000" fill-rule="evenodd" fill-opacity="1" /><path clip-path="url(#clip090)" d="M42.3504 1032.16 L45.2149 1032.16 L45.2149 1059.09 Q51.2623 1058.7 54.4452 1055.46 Q57.5962 1052.18 57.5962 1046.35 Q57.5962 1042.98 56.7687 1039.83 Q55.9411 1036.65 54.2861 1033.53 L59.8242 1033.53 Q61.161 1036.68 61.8612 1039.99 Q62.5615 1043.3 62.5615 1046.7 Q62.5615 1055.23 57.5962 1060.23 Q52.631 1065.2 44.1646 1065.2 Q35.4117 1065.2 30.2873 1060.49 Q25.1311 1055.74 25.1311 1047.72 Q25.1311 1040.53 29.7781 1036.36 Q34.3932 1032.16 42.3504 1032.16 M40.6316 1038.01 Q35.8255 1038.08 32.9609 1040.72 Q30.0964 1043.33 30.0964 1047.66 Q30.0964 1052.56 32.8654 1055.52 Q35.6345 1058.45 40.6634 1058.89 L40.6316 1038.01 Z" fill="#000000" fill-rule="evenodd" fill-opacity="1" /><path clip-path="url(#clip090)" d="M27.0408 999.821 L32.579 999.821 Q31.3059 1002.3 30.6693 1004.98 Q30.0327 1007.65 30.0327 1010.51 Q30.0327 1014.88 31.3695 1017.07 Q32.7063 1019.24 35.3799 1019.24 Q37.4169 1019.24 38.5946 1017.68 Q39.7404 1016.12 40.7908 1011.41 L41.2364 1009.4 Q42.5732 1003.16 45.0239 1000.55 Q47.4429 997.911 51.8034 997.911 Q56.7687 997.911 59.6651 1001.86 Q62.5615 1005.77 62.5615 1012.65 Q62.5615 1015.51 61.9886 1018.63 Q61.4475 1021.72 60.3335 1025.16 L54.2861 1025.16 Q55.973 1021.91 56.8323 1018.76 Q57.6599 1015.61 57.6599 1012.52 Q57.6599 1008.38 56.2594 1006.15 Q54.8271 1003.93 52.249 1003.93 Q49.8619 1003.93 48.5887 1005.55 Q47.3156 1007.14 46.1379 1012.58 L45.6605 1014.62 Q44.5147 1020.06 42.1594 1022.48 Q39.7722 1024.9 35.6345 1024.9 Q30.6056 1024.9 27.8684 1021.34 Q25.1311 1017.77 25.1311 1011.22 Q25.1311 1007.97 25.6085 1005.1 Q26.086 1002.24 27.0408 999.821 Z" fill="#000000" fill-rule="evenodd" fill-opacity="1" /><path clip-path="url(#clip090)" d="M27.0408 965.86 L32.579 965.86 Q31.3059 968.342 30.6693 971.016 Q30.0327 973.689 30.0327 976.554 Q30.0327 980.914 31.3695 983.111 Q32.7063 985.275 35.3799 985.275 Q37.4169 985.275 38.5946 983.715 Q39.7404 982.156 40.7908 977.445 L41.2364 975.44 Q42.5732 969.202 45.0239 966.592 Q47.4429 963.95 51.8034 963.95 Q56.7687 963.95 59.6651 967.897 Q62.5615 971.811 62.5615 978.686 Q62.5615 981.551 61.9886 984.67 Q61.4475 987.758 60.3335 991.195 L54.2861 991.195 Q55.973 987.949 56.8323 984.798 Q57.6599 981.646 57.6599 978.559 Q57.6599 974.421 56.2594 972.193 Q54.8271 969.965 52.249 969.965 Q49.8619 969.965 48.5887 971.589 Q47.3156 973.18 46.1379 978.623 L45.6605 980.66 Q44.5147 986.102 42.1594 988.521 Q39.7722 990.94 35.6345 990.94 Q30.6056 990.94 27.8684 987.376 Q25.1311 983.811 25.1311 977.254 Q25.1311 974.008 25.6085 971.143 Q26.086 968.279 27.0408 965.86 Z" fill="#000000" fill-rule="evenodd" fill-opacity="1" /><path clip-path="url(#clip090)" d="M47.5702 955.229 L25.9905 955.229 L25.9905 949.372 L47.3474 949.372 Q52.4082 949.372 54.9545 947.399 Q57.4689 945.426 57.4689 941.479 Q57.4689 936.736 54.4452 933.999 Q51.4215 931.23 46.2016 931.23 L25.9905 931.23 L25.9905 925.374 L61.6384 925.374 L61.6384 931.23 L56.1639 931.23 Q59.4104 933.363 61.0019 936.195 Q62.5615 938.996 62.5615 942.72 Q62.5615 948.863 58.742 952.046 Q54.9226 955.229 47.5702 955.229 M25.1311 940.492 L25.1311 940.492 Z" fill="#000000" fill-rule="evenodd" fill-opacity="1" /><path clip-path="url(#clip090)" d="M31.465 892.654 Q30.8921 893.641 30.6375 894.818 Q30.351 895.964 30.351 897.365 Q30.351 902.33 33.5975 905.003 Q36.8122 907.645 42.8596 907.645 L61.6384 907.645 L61.6384 913.533 L25.9905 913.533 L25.9905 907.645 L31.5287 907.645 Q28.2821 905.799 26.7225 902.839 Q25.1311 899.879 25.1311 895.646 Q25.1311 895.041 25.2266 894.309 Q25.2903 893.577 25.4494 892.686 L31.465 892.654 Z" fill="#000000" fill-rule="evenodd" fill-opacity="1" /><path clip-path="url(#clip090)" d="M42.3504 857.452 L45.2149 857.452 L45.2149 884.378 Q51.2623 883.997 54.4452 880.75 Q57.5962 877.472 57.5962 871.647 Q57.5962 868.273 56.7687 865.122 Q55.9411 861.939 54.2861 858.82 L59.8242 858.82 Q61.161 861.971 61.8612 865.281 Q62.5615 868.592 62.5615 871.997 Q62.5615 880.527 57.5962 885.524 Q52.631 890.49 44.1646 890.49 Q35.4117 890.49 30.2873 885.779 Q25.1311 881.036 25.1311 873.016 Q25.1311 865.822 29.7781 861.653 Q34.3932 857.452 42.3504 857.452 M40.6316 863.308 Q35.8255 863.372 32.9609 866.013 Q30.0964 868.623 30.0964 872.952 Q30.0964 877.854 32.8654 880.814 Q35.6345 883.742 40.6634 884.188 L40.6316 863.308 Z" fill="#000000" fill-rule="evenodd" fill-opacity="1" /><path clip-path="url(#clip090)" d="M12.1132 827.66 L12.1132 814.165 L16.6647 814.165 L16.6647 821.804 L65.6807 821.804 L65.6807 814.165 L70.2321 814.165 L70.2321 827.66 L12.1132 827.66 Z" fill="#000000" fill-rule="evenodd" fill-opacity="1" /><path clip-path="url(#clip090)" d="M14.1184 801.433 L14.1184 791.853 L46.4562 779.726 L14.1184 767.536 L14.1184 757.956 L61.6384 757.956 L61.6384 764.226 L19.9112 764.226 L52.5037 776.48 L52.5037 782.941 L19.9112 795.195 L61.6384 795.195 L61.6384 801.433 L14.1184 801.433 Z" fill="#000000" fill-rule="evenodd" fill-opacity="1" /><path clip-path="url(#clip090)" d="M19.402 738.763 L37.2578 738.763 L37.2578 730.679 Q37.2578 726.191 34.9343 723.74 Q32.6108 721.289 28.314 721.289 Q24.0489 721.289 21.7255 723.74 Q19.402 726.191 19.402 730.679 L19.402 738.763 M14.1184 745.192 L14.1184 730.679 Q14.1184 722.69 17.7469 718.615 Q21.3435 714.51 28.314 714.51 Q35.3481 714.51 38.9447 718.615 Q42.5413 722.69 42.5413 730.679 L42.5413 738.763 L61.6384 738.763 L61.6384 745.192 L14.1184 745.192 Z" fill="#000000" fill-rule="evenodd" fill-opacity="1" /><path clip-path="url(#clip090)" d="M43.719 692.866 Q43.719 699.964 45.3422 702.701 Q46.9655 705.438 50.8804 705.438 Q53.9996 705.438 55.8457 703.401 Q57.6599 701.333 57.6599 697.8 Q57.6599 692.93 54.2224 690.002 Q50.7531 687.042 45.0239 687.042 L43.719 687.042 L43.719 692.866 M41.3 681.185 L61.6384 681.185 L61.6384 687.042 L56.2276 687.042 Q59.4741 689.047 61.0337 692.039 Q62.5615 695.031 62.5615 699.359 Q62.5615 704.834 59.5059 708.08 Q56.4186 711.295 51.2623 711.295 Q45.2467 711.295 42.1912 707.285 Q39.1357 703.242 39.1357 695.253 L39.1357 687.042 L38.5628 687.042 Q34.5205 687.042 32.3244 689.715 Q30.0964 692.357 30.0964 697.163 Q30.0964 700.219 30.8284 703.115 Q31.5605 706.011 33.0246 708.685 L27.6137 708.685 Q26.3724 705.47 25.7677 702.447 Q25.1311 699.423 25.1311 696.558 Q25.1311 688.824 29.1415 685.005 Q33.1519 681.185 41.3 681.185 Z" fill="#000000" fill-rule="evenodd" fill-opacity="1" /><path clip-path="url(#clip090)" d="M12.1132 655.436 L70.2321 655.436 L70.2321 668.931 L65.6807 668.931 L65.6807 661.324 L16.6647 661.324 L16.6647 668.931 L12.1132 668.931 L12.1132 655.436 Z" fill="#000000" fill-rule="evenodd" fill-opacity="1" /><polyline clip-path="url(#clip092)" style="stroke:#009af9; stroke-linecap:round; stroke-linejoin:round; stroke-width:12; stroke-opacity:1; fill:none" points="279.026,1686.38 284.177,1686.37 290.309,1686.37 296.441,1686.37 302.573,1686.36 308.705,1686.36 314.836,1686.35 320.968,1686.35 327.1,1686.34 333.232,1686.34 339.364,1686.33 345.496,1686.33 351.628,1686.32 357.76,1686.31 363.892,1686.31 370.024,1686.3 376.156,1686.29 382.287,1686.28 388.419,1686.27 394.551,1686.26 400.683,1686.25 406.815,1686.24 412.947,1686.23 419.079,1686.22 425.211,1686.21 431.343,1686.19 437.475,1686.18 443.607,1686.16 449.738,1686.15 455.87,1686.13 462.002,1686.12 468.134,1686.1 474.266,1686.08 480.398,1686.06 486.53,1686.04 492.662,1686.02 498.794,1685.99 504.926,1685.97 511.058,1685.94 517.189,1685.92 523.321,1685.89 529.453,1685.86 535.585,1685.83 541.717,1685.8 547.849,1685.77 553.981,1685.73 560.113,1685.7 566.245,1685.66 572.377,1685.62 578.509,1685.58 584.64,1685.54 590.772,1685.49 596.904,1685.44 603.036,1685.39 609.168,1685.34 615.3,1685.29 621.432,1685.24 627.564,1685.18 633.696,1685.12 639.828,1685.06 645.96,1684.99 652.091,1684.92 658.223,1684.85 664.355,1684.78 670.487,1684.7 676.619,1684.63 682.751,1684.54 688.883,1684.46 695.015,1684.37 701.147,1684.28 707.279,1684.18 713.411,1684.08 719.542,1683.98 725.674,1683.88 731.806,1683.77 737.938,1683.65 744.07,1683.54 750.202,1683.41 756.334,1683.29 762.466,1683.16 768.598,1683.02 774.73,1682.88 780.862,1682.74 786.993,1682.59 793.125,1682.43 799.257,1682.27 805.389,1682.1 811.521,1681.93 817.653,1681.76 823.785,1681.57 829.917,1681.39 836.049,1681.19 842.181,1680.99 848.313,1680.78 854.444,1680.57 860.576,1680.35 866.708,1680.12 872.84,1679.89 878.972,1679.65 885.104,1679.4 891.236,1679.14 897.368,1678.88 903.5,1678.61 909.632,1678.33 915.764,1678.04 921.895,1677.74 928.027,1677.44 934.159,1677.13 940.291,1676.8 946.423,1676.47 952.555,1676.13 958.687,1675.78 964.819,1675.42 970.951,1675.05 977.083,1674.67 983.215,1674.28 989.346,1673.87 995.478,1673.46 1001.61,1673.04 1007.74,1672.6 1013.87,1672.16 1020.01,1671.7 1026.14,1671.23 1032.27,1670.75 1038.4,1670.25 1044.53,1669.75 1050.67,1669.23 1056.8,1668.69 1062.93,1668.15 1069.06,1667.59 1075.19,1667.01 1081.33,1666.43 1087.46,1665.82 1093.59,1665.21 1099.72,1664.57 1105.85,1663.93 1111.98,1663.26 1118.12,1662.59 1124.25,1661.89 1130.38,1661.18 1136.51,1660.46 1142.64,1659.71 1148.78,1658.95 1154.91,1658.17 1161.04,1657.38 1167.17,1656.56 1173.3,1655.73 1179.44,1654.88 1185.57,1654.01 1191.7,1653.12 1197.83,1652.22 1203.96,1651.29 1210.1,1650.34 1216.23,1649.37 1222.36,1648.39 1228.49,1647.38 1234.62,1646.35 1240.75,1645.29 1246.89,1644.22 1253.02,1643.12 1259.15,1642 1265.28,1640.86 1271.41,1639.7 1277.55,1638.51 1283.68,1637.3 1289.81,1636.06 1295.94,1634.8 1302.07,1633.51 1308.21,1632.2 1314.34,1630.86 1320.47,1629.5 1326.6,1628.11 1332.73,1626.69 1338.87,1625.25 1345,1623.78 1351.13,1622.28 1357.26,1620.75 1363.39,1619.19 1369.52,1617.61 1375.66,1615.99 1381.79,1614.35 1387.92,1612.68 1394.05,1610.97 1400.18,1609.24 1406.32,1607.47 1412.45,1605.67 1418.58,1603.84 1424.71,1601.98 1430.84,1600.09 1436.98,1598.16 1443.11,1596.19 1449.24,1594.2 1455.37,1592.17 1461.5,1590.1 1467.64,1588 1473.77,1585.87 1479.9,1583.69 1486.03,1581.48 1492.16,1579.24 1498.29,1576.96 1504.43,1574.64 1510.56,1572.28 1516.69,1569.88 1522.82,1567.44 1528.95,1564.97 1535.09,1562.45 1541.22,1559.89 1547.35,1557.3 1553.48,1554.66 1559.61,1551.98 1565.75,1549.26 1571.88,1546.49 1578.01,1543.68 1584.14,1540.83 1590.27,1537.94 1596.41,1535 1602.54,1532.01 1608.67,1528.98 1614.8,1525.9 1620.93,1522.78 1627.06,1519.61 1633.2,1516.4 1639.33,1513.13 1645.46,1509.82 1651.59,1506.46 1657.72,1503.05 1663.86,1499.59 1669.99,1496.08 1676.12,1492.52 1682.25,1488.91 1688.38,1485.25 1694.52,1481.53 1700.65,1477.76 1706.78,1473.94 1712.91,1470.07 1719.04,1466.14 1725.18,1462.16 1731.31,1458.12 1737.44,1454.02 1743.57,1449.87 1749.7,1445.67 1755.84,1441.4 1761.97,1437.08 1768.1,1432.7 1774.23,1428.26 1780.36,1423.77 1786.49,1419.21 1792.63,1414.59 1798.76,1409.91 1804.89,1405.17 1811.02,1400.37 1817.15,1395.5 1823.29,1390.58 1829.42,1385.58 1835.55,1380.53 1841.68,1375.41 1847.81,1370.22 1853.95,1364.97 1860.08,1359.65 1866.21,1354.27 1872.34,1348.81 1878.47,1343.29 1884.61,1337.7 1890.74,1332.04 1896.87,1326.31 1903,1320.52 1909.13,1314.64 1915.26,1308.7 1921.4,1302.69 1927.53,1296.6 1933.66,1290.44 1939.79,1284.21 1945.92,1277.9 1952.06,1271.51 1958.19,1265.05 1964.32,1258.51 1970.45,1251.9 1976.58,1245.21 1982.72,1238.44 1988.85,1231.59 1994.98,1224.66 2001.11,1217.65 2007.24,1210.56 2013.38,1203.39 2019.51,1196.13 2025.64,1188.79 2031.77,1181.37 2037.9,1173.87 2044.03,1166.28 2050.17,1158.6 2056.3,1150.84 2062.43,1142.99 2068.56,1135.05 2074.69,1127.03 2080.83,1118.91 2086.96,1110.71 2093.09,1102.41 2099.22,1094.03 2105.35,1085.55 2111.49,1076.98 2117.62,1068.31 2123.75,1059.55 2129.88,1050.7 2136.01,1041.75 2142.15,1032.7 2148.28,1023.56 2154.41,1014.32 2160.54,1004.98 2166.67,995.534 2172.8,985.993 2178.94,976.35 2185.07,966.604 2191.2,956.756 2197.33,946.804 2203.46,936.747 2209.6,926.584 2215.73,916.314 2221.86,905.937 2227.99,895.452 2234.12,884.857 2240.26,874.152 2246.39,863.336 2252.52,852.407 2258.65,841.366 2264.78,830.21 2270.92,818.939 2277.05,807.552 2283.18,796.048 2289.31,784.425 2295.44,772.683 2301.57,760.821 2307.71,748.837 2313.84,736.731 2319.97,724.5 2326.1,712.145 2332.23,699.663 2338.37,687.054 2344.5,674.316 2350.63,661.448 2356.76,648.449 2362.89,635.318 2369.03,622.052 2375.16,608.652 2381.29,595.114 2387.42,581.438 2393.55,567.623 2399.69,553.666 2405.82,539.567 2411.95,525.323 2418.08,510.934 2424.21,496.396 2430.35,481.709 2436.48,466.871 2442.61,451.88 2448.74,436.733 2454.87,421.43 2461,405.967 2467.14,390.343 2473.27,374.556 2479.4,358.602 2485.53,342.481 2491.66,326.188 2497.8,309.722 2503.93,293.08 2510.06,276.257 2516.19,259.252 2522.32,242.06 2528.46,224.676 2534.59,207.096 2540.72,189.314 2546.85,171.32 2552.98,153.104 2559.12,134.646 2565.25,115.915 2571.38,96.8401 2571.97,94.9858 "/>
<circle clip-path="url(#clip092)" cx="279.026" cy="1686.38" r="21.6" fill="#e26f46" fill-rule="evenodd" fill-opacity="1" stroke="#000000" stroke-opacity="1" stroke-width="3.84"/>
<circle clip-path="url(#clip092)" cx="2571.97" cy="94.9858" r="21.6" fill="#3da44d" fill-rule="evenodd" fill-opacity="1" stroke="#000000" stroke-opacity="1" stroke-width="3.84"/>
<path clip-path="url(#clip090)" d="M291.255 362.673 L918.043 362.673 L918.043 103.473 L291.255 103.473  Z" fill="#ffffff" fill-rule="evenodd" fill-opacity="1"/>
<polyline clip-path="url(#clip090)" style="stroke:#000000; stroke-linecap:round; stroke-linejoin:round; stroke-width:4; stroke-opacity:1; fill:none" points="291.255,362.673 918.043,362.673 918.043,103.473 291.255,103.473 291.255,362.673 "/>
<polyline clip-path="url(#clip090)" style="stroke:#009af9; stroke-linecap:round; stroke-linejoin:round; stroke-width:15; stroke-opacity:1; fill:none" points="318.261,168.273 480.295,168.273 "/>
<path clip-path="url(#clip090)" d="M535.108 148.091 L535.108 153.791 Q531.78 152.2 528.829 151.419 Q525.877 150.637 523.129 150.637 Q518.354 150.637 515.75 152.489 Q513.175 154.341 513.175 157.755 Q513.175 160.62 514.882 162.096 Q516.618 163.542 521.421 164.439 L524.952 165.163 Q531.491 166.407 534.587 169.561 Q537.712 172.686 537.712 177.952 Q537.712 184.231 533.487 187.472 Q529.292 190.712 521.161 190.712 Q518.094 190.712 514.622 190.018 Q511.178 189.323 507.475 187.963 L507.475 181.945 Q511.034 183.942 514.448 184.954 Q517.862 185.967 521.161 185.967 Q526.167 185.967 528.887 183.999 Q531.607 182.032 531.607 178.386 Q531.607 175.203 529.639 173.409 Q527.7 171.615 523.244 170.718 L519.685 170.024 Q513.146 168.722 510.224 165.944 Q507.301 163.166 507.301 158.218 Q507.301 152.489 511.323 149.191 Q515.374 145.892 522.463 145.892 Q525.501 145.892 528.655 146.442 Q531.809 146.991 535.108 148.091 Z" fill="#000000" fill-rule="evenodd" fill-opacity="1" /><path clip-path="url(#clip090)" d="M561.323 173.583 Q554.87 173.583 552.382 175.058 Q549.894 176.534 549.894 180.093 Q549.894 182.929 551.745 184.607 Q553.626 186.256 556.838 186.256 Q561.265 186.256 563.927 183.131 Q566.618 179.977 566.618 174.769 L566.618 173.583 L561.323 173.583 M571.942 171.384 L571.942 189.873 L566.618 189.873 L566.618 184.954 Q564.795 187.906 562.075 189.323 Q559.355 190.712 555.42 190.712 Q550.443 190.712 547.492 187.935 Q544.569 185.128 544.569 180.44 Q544.569 174.972 548.215 172.194 Q551.89 169.416 559.153 169.416 L566.618 169.416 L566.618 168.895 Q566.618 165.221 564.187 163.224 Q561.786 161.199 557.417 161.199 Q554.639 161.199 552.006 161.864 Q549.373 162.53 546.942 163.861 L546.942 158.942 Q549.865 157.813 552.613 157.263 Q555.362 156.685 557.966 156.685 Q564.998 156.685 568.47 160.331 Q571.942 163.976 571.942 171.384 Z" fill="#000000" fill-rule="evenodd" fill-opacity="1" /><path clip-path="url(#clip090)" d="M588.175 148.265 L588.175 157.466 L599.141 157.466 L599.141 161.604 L588.175 161.604 L588.175 179.196 Q588.175 183.16 589.245 184.289 Q590.345 185.417 593.672 185.417 L599.141 185.417 L599.141 189.873 L593.672 189.873 Q587.509 189.873 585.165 187.587 Q582.822 185.273 582.822 179.196 L582.822 161.604 L578.915 161.604 L578.915 157.466 L582.822 157.466 L582.822 148.265 L588.175 148.265 Z" fill="#000000" fill-rule="evenodd" fill-opacity="1" /><path clip-path="url(#clip090)" d="M606.896 182.524 L613.001 182.524 L613.001 189.873 L606.896 189.873 L606.896 182.524 Z" fill="#000000" fill-rule="evenodd" fill-opacity="1" /><path clip-path="url(#clip090)" d="M648.967 185.012 L648.967 202.2 L643.614 202.2 L643.614 157.466 L648.967 157.466 L648.967 162.385 Q650.645 159.491 653.192 158.103 Q655.767 156.685 659.326 156.685 Q665.229 156.685 668.903 161.372 Q672.607 166.06 672.607 173.699 Q672.607 181.337 668.903 186.025 Q665.229 190.712 659.326 190.712 Q655.767 190.712 653.192 189.323 Q650.645 187.906 648.967 185.012 M667.08 173.699 Q667.08 167.825 664.65 164.497 Q662.248 161.141 658.024 161.141 Q653.799 161.141 651.369 164.497 Q648.967 167.825 648.967 173.699 Q648.967 179.572 651.369 182.929 Q653.799 186.256 658.024 186.256 Q662.248 186.256 664.65 182.929 Q667.08 179.572 667.08 173.699 Z" fill="#000000" fill-rule="evenodd" fill-opacity="1" /><path clip-path="url(#clip090)" d="M700.211 162.443 Q699.314 161.922 698.243 161.69 Q697.202 161.43 695.929 161.43 Q691.415 161.43 688.984 164.381 Q686.583 167.304 686.583 172.802 L686.583 189.873 L681.23 189.873 L681.23 157.466 L686.583 157.466 L686.583 162.501 Q688.261 159.549 690.952 158.131 Q693.643 156.685 697.491 156.685 Q698.041 156.685 698.706 156.772 Q699.372 156.829 700.182 156.974 L700.211 162.443 Z" fill="#000000" fill-rule="evenodd" fill-opacity="1" /><path clip-path="url(#clip090)" d="M732.213 172.339 L732.213 174.943 L707.734 174.943 Q708.081 180.44 711.033 183.334 Q714.013 186.198 719.308 186.198 Q722.375 186.198 725.24 185.446 Q728.133 184.694 730.969 183.189 L730.969 188.224 Q728.104 189.439 725.095 190.076 Q722.086 190.712 718.99 190.712 Q711.235 190.712 706.692 186.198 Q702.179 181.685 702.179 173.988 Q702.179 166.031 706.461 161.372 Q710.772 156.685 718.064 156.685 Q724.603 156.685 728.394 160.909 Q732.213 165.105 732.213 172.339 M726.889 170.776 Q726.831 166.407 724.43 163.803 Q722.057 161.199 718.122 161.199 Q713.666 161.199 710.975 163.716 Q708.313 166.233 707.908 170.805 L726.889 170.776 Z" fill="#000000" fill-rule="evenodd" fill-opacity="1" /><path clip-path="url(#clip090)" d="M761.611 158.421 L761.611 163.456 Q759.354 162.298 756.924 161.719 Q754.493 161.141 751.889 161.141 Q747.925 161.141 745.928 162.356 Q743.961 163.571 743.961 166.002 Q743.961 167.854 745.379 168.924 Q746.796 169.966 751.079 170.921 L752.902 171.326 Q758.573 172.541 760.946 174.769 Q763.347 176.968 763.347 180.932 Q763.347 185.446 759.759 188.079 Q756.2 190.712 749.95 190.712 Q747.346 190.712 744.511 190.191 Q741.704 189.7 738.579 188.687 L738.579 183.189 Q741.53 184.723 744.395 185.504 Q747.259 186.256 750.066 186.256 Q753.828 186.256 755.853 184.983 Q757.879 183.681 757.879 181.337 Q757.879 179.167 756.403 178.01 Q754.956 176.852 750.008 175.782 L748.156 175.348 Q743.208 174.306 741.009 172.165 Q738.81 169.995 738.81 166.233 Q738.81 161.662 742.051 159.173 Q745.292 156.685 751.252 156.685 Q754.204 156.685 756.808 157.119 Q759.412 157.553 761.611 158.421 Z" fill="#000000" fill-rule="evenodd" fill-opacity="1" /><path clip-path="url(#clip090)" d="M792.485 158.421 L792.485 163.456 Q790.228 162.298 787.797 161.719 Q785.367 161.141 782.763 161.141 Q778.799 161.141 776.802 162.356 Q774.834 163.571 774.834 166.002 Q774.834 167.854 776.252 168.924 Q777.67 169.966 781.952 170.921 L783.775 171.326 Q789.447 172.541 791.819 174.769 Q794.221 176.968 794.221 180.932 Q794.221 185.446 790.633 188.079 Q787.074 190.712 780.824 190.712 Q778.22 190.712 775.384 190.191 Q772.578 189.7 769.453 188.687 L769.453 183.189 Q772.404 184.723 775.268 185.504 Q778.133 186.256 780.94 186.256 Q784.701 186.256 786.727 184.983 Q788.752 183.681 788.752 181.337 Q788.752 179.167 787.277 178.01 Q785.83 176.852 780.882 175.782 L779.03 175.348 Q774.082 174.306 771.883 172.165 Q769.684 169.995 769.684 166.233 Q769.684 161.662 772.925 159.173 Q776.165 156.685 782.126 156.685 Q785.077 156.685 787.682 157.119 Q790.286 157.553 792.485 158.421 Z" fill="#000000" fill-rule="evenodd" fill-opacity="1" /><path clip-path="url(#clip090)" d="M802.149 177.084 L802.149 157.466 L807.473 157.466 L807.473 176.881 Q807.473 181.482 809.267 183.797 Q811.061 186.083 814.649 186.083 Q818.96 186.083 821.449 183.334 Q823.966 180.585 823.966 175.84 L823.966 157.466 L829.29 157.466 L829.29 189.873 L823.966 189.873 L823.966 184.896 Q822.027 187.848 819.452 189.294 Q816.906 190.712 813.521 190.712 Q807.936 190.712 805.043 187.24 Q802.149 183.768 802.149 177.084 M815.546 156.685 L815.546 156.685 Z" fill="#000000" fill-rule="evenodd" fill-opacity="1" /><path clip-path="url(#clip090)" d="M859.035 162.443 Q858.138 161.922 857.068 161.69 Q856.026 161.43 854.753 161.43 Q850.239 161.43 847.809 164.381 Q845.407 167.304 845.407 172.802 L845.407 189.873 L840.054 189.873 L840.054 157.466 L845.407 157.466 L845.407 162.501 Q847.085 159.549 849.776 158.131 Q852.467 156.685 856.316 156.685 Q856.865 156.685 857.531 156.772 Q858.196 156.829 859.006 156.974 L859.035 162.443 Z" fill="#000000" fill-rule="evenodd" fill-opacity="1" /><path clip-path="url(#clip090)" d="M891.038 172.339 L891.038 174.943 L866.559 174.943 Q866.906 180.44 869.857 183.334 Q872.837 186.198 878.133 186.198 Q881.2 186.198 884.064 185.446 Q886.958 184.694 889.793 183.189 L889.793 188.224 Q886.929 189.439 883.92 190.076 Q880.91 190.712 877.814 190.712 Q870.06 190.712 865.517 186.198 Q861.003 181.685 861.003 173.988 Q861.003 166.031 865.285 161.372 Q869.597 156.685 876.888 156.685 Q883.428 156.685 887.218 160.909 Q891.038 165.105 891.038 172.339 M885.714 170.776 Q885.656 166.407 883.254 163.803 Q880.881 161.199 876.946 161.199 Q872.49 161.199 869.799 163.716 Q867.137 166.233 866.732 170.805 L885.714 170.776 Z" fill="#000000" fill-rule="evenodd" fill-opacity="1" /><circle clip-path="url(#clip090)" cx="399.278" cy="233.073" r="28.8" fill="#e26f46" fill-rule="evenodd" fill-opacity="1" stroke="#000000" stroke-opacity="1" stroke-width="5.12"/>
<path clip-path="url(#clip090)" d="M507.301 211.473 L543.846 211.473 L543.846 216.392 L528.511 216.392 L528.511 254.673 L522.637 254.673 L522.637 216.392 L507.301 216.392 L507.301 211.473 Z" fill="#000000" fill-rule="evenodd" fill-opacity="1" /><path clip-path="url(#clip090)" d="M559.326 227.243 Q558.429 226.722 557.359 226.49 Q556.317 226.23 555.044 226.23 Q550.53 226.23 548.1 229.181 Q545.698 232.104 545.698 237.602 L545.698 254.673 L540.345 254.673 L540.345 222.266 L545.698 222.266 L545.698 227.301 Q547.376 224.349 550.067 222.931 Q552.758 221.485 556.606 221.485 Q557.156 221.485 557.822 221.572 Q558.487 221.629 559.297 221.774 L559.326 227.243 Z" fill="#000000" fill-rule="evenodd" fill-opacity="1" /><path clip-path="url(#clip090)" d="M564.911 222.266 L570.235 222.266 L570.235 254.673 L564.911 254.673 L564.911 222.266 M564.911 209.65 L570.235 209.65 L570.235 216.392 L564.911 216.392 L564.911 209.65 Z" fill="#000000" fill-rule="evenodd" fill-opacity="1" /><path clip-path="url(#clip090)" d="M586.525 249.812 L586.525 267 L581.172 267 L581.172 222.266 L586.525 222.266 L586.525 227.185 Q588.204 224.291 590.75 222.903 Q593.325 221.485 596.884 221.485 Q602.787 221.485 606.462 226.172 Q610.165 230.86 610.165 238.499 Q610.165 246.137 606.462 250.825 Q602.787 255.512 596.884 255.512 Q593.325 255.512 590.75 254.123 Q588.204 252.706 586.525 249.812 M604.639 238.499 Q604.639 232.625 602.208 229.297 Q599.806 225.941 595.582 225.941 Q591.357 225.941 588.927 229.297 Q586.525 232.625 586.525 238.499 Q586.525 244.372 588.927 247.729 Q591.357 251.056 595.582 251.056 Q599.806 251.056 602.208 247.729 Q604.639 244.372 604.639 238.499 Z" fill="#000000" fill-rule="evenodd" fill-opacity="1" /><path clip-path="url(#clip090)" d="M618.99 209.65 L624.314 209.65 L624.314 254.673 L618.99 254.673 L618.99 209.65 Z" fill="#000000" fill-rule="evenodd" fill-opacity="1" /><path clip-path="url(#clip090)" d="M663.174 237.139 L663.174 239.743 L638.695 239.743 Q639.042 245.24 641.994 248.134 Q644.974 250.998 650.269 250.998 Q653.336 250.998 656.201 250.246 Q659.094 249.494 661.93 247.989 L661.93 253.024 Q659.065 254.239 656.056 254.876 Q653.047 255.512 649.951 255.512 Q642.196 255.512 637.653 250.998 Q633.14 246.485 633.14 238.788 Q633.14 230.831 637.422 226.172 Q641.733 221.485 649.025 221.485 Q655.564 221.485 659.355 225.709 Q663.174 229.905 663.174 237.139 M657.85 235.576 Q657.792 231.207 655.391 228.603 Q653.018 225.999 649.083 225.999 Q644.627 225.999 641.936 228.516 Q639.274 231.033 638.869 235.605 L657.85 235.576 Z" fill="#000000" fill-rule="evenodd" fill-opacity="1" /><path clip-path="url(#clip090)" d="M695.9 249.812 L695.9 267 L690.547 267 L690.547 222.266 L695.9 222.266 L695.9 227.185 Q697.578 224.291 700.124 222.903 Q702.699 221.485 706.258 221.485 Q712.161 221.485 715.836 226.172 Q719.54 230.86 719.54 238.499 Q719.54 246.137 715.836 250.825 Q712.161 255.512 706.258 255.512 Q702.699 255.512 700.124 254.123 Q697.578 252.706 695.9 249.812 M714.013 238.499 Q714.013 232.625 711.582 229.297 Q709.181 225.941 704.956 225.941 Q700.732 225.941 698.301 229.297 Q695.9 232.625 695.9 238.499 Q695.9 244.372 698.301 247.729 Q700.732 251.056 704.956 251.056 Q709.181 251.056 711.582 247.729 Q714.013 244.372 714.013 238.499 Z" fill="#000000" fill-rule="evenodd" fill-opacity="1" /><path clip-path="url(#clip090)" d="M740.923 225.999 Q736.64 225.999 734.152 229.355 Q731.663 232.683 731.663 238.499 Q731.663 244.314 734.123 247.671 Q736.611 250.998 740.923 250.998 Q745.176 250.998 747.664 247.642 Q750.153 244.286 750.153 238.499 Q750.153 232.74 747.664 229.384 Q745.176 225.999 740.923 225.999 M740.923 221.485 Q747.867 221.485 751.831 225.999 Q755.795 230.512 755.795 238.499 Q755.795 246.456 751.831 250.998 Q747.867 255.512 740.923 255.512 Q733.949 255.512 729.985 250.998 Q726.05 246.456 726.05 238.499 Q726.05 230.512 729.985 225.999 Q733.949 221.485 740.923 221.485 Z" fill="#000000" fill-rule="evenodd" fill-opacity="1" /><path clip-path="url(#clip090)" d="M764.62 222.266 L769.944 222.266 L769.944 254.673 L764.62 254.673 L764.62 222.266 M764.62 209.65 L769.944 209.65 L769.944 216.392 L764.62 216.392 L764.62 209.65 Z" fill="#000000" fill-rule="evenodd" fill-opacity="1" /><path clip-path="url(#clip090)" d="M808.023 235.113 L808.023 254.673 L802.699 254.673 L802.699 235.287 Q802.699 230.686 800.905 228.4 Q799.111 226.114 795.523 226.114 Q791.212 226.114 788.723 228.863 Q786.235 231.612 786.235 236.357 L786.235 254.673 L780.882 254.673 L780.882 222.266 L786.235 222.266 L786.235 227.301 Q788.145 224.378 790.72 222.931 Q793.324 221.485 796.709 221.485 Q802.294 221.485 805.158 224.957 Q808.023 228.4 808.023 235.113 Z" fill="#000000" fill-rule="evenodd" fill-opacity="1" /><path clip-path="url(#clip090)" d="M823.908 213.065 L823.908 222.266 L834.875 222.266 L834.875 226.404 L823.908 226.404 L823.908 243.996 Q823.908 247.96 824.979 249.089 Q826.078 250.217 829.406 250.217 L834.875 250.217 L834.875 254.673 L829.406 254.673 Q823.243 254.673 820.899 252.387 Q818.555 250.073 818.555 243.996 L818.555 226.404 L814.649 226.404 L814.649 222.266 L818.555 222.266 L818.555 213.065 L823.908 213.065 Z" fill="#000000" fill-rule="evenodd" fill-opacity="1" /><circle clip-path="url(#clip090)" cx="399.278" cy="297.873" r="28.8" fill="#3da44d" fill-rule="evenodd" fill-opacity="1" stroke="#000000" stroke-opacity="1" stroke-width="5.12"/>
<path clip-path="url(#clip090)" d="M542.139 279.601 L542.139 285.764 Q539.188 283.015 535.831 281.655 Q532.504 280.295 528.742 280.295 Q521.335 280.295 517.4 284.838 Q513.464 289.352 513.464 297.917 Q513.464 306.452 517.4 310.995 Q521.335 315.509 528.742 315.509 Q532.504 315.509 535.831 314.149 Q539.188 312.789 542.139 310.04 L542.139 316.146 Q539.072 318.229 535.629 319.271 Q532.214 320.312 528.395 320.312 Q518.586 320.312 512.944 314.323 Q507.301 308.304 507.301 297.917 Q507.301 287.5 512.944 281.51 Q518.586 275.492 528.395 275.492 Q532.272 275.492 535.686 276.534 Q539.13 277.546 542.139 279.601 Z" fill="#000000" fill-rule="evenodd" fill-opacity="1" /><path clip-path="url(#clip090)" d="M569.714 292.043 Q568.817 291.522 567.746 291.29 Q566.705 291.03 565.432 291.03 Q560.918 291.03 558.487 293.981 Q556.086 296.904 556.086 302.402 L556.086 319.473 L550.733 319.473 L550.733 287.066 L556.086 287.066 L556.086 292.101 Q557.764 289.149 560.455 287.731 Q563.146 286.285 566.994 286.285 Q567.544 286.285 568.209 286.372 Q568.875 286.429 569.685 286.574 L569.714 292.043 Z" fill="#000000" fill-rule="evenodd" fill-opacity="1" /><path clip-path="url(#clip090)" d="M575.298 287.066 L580.623 287.066 L580.623 319.473 L575.298 319.473 L575.298 287.066 M575.298 274.45 L580.623 274.45 L580.623 281.192 L575.298 281.192 L575.298 274.45 Z" fill="#000000" fill-rule="evenodd" fill-opacity="1" /><path clip-path="url(#clip090)" d="M597.029 277.865 L597.029 287.066 L607.995 287.066 L607.995 291.204 L597.029 291.204 L597.029 308.796 Q597.029 312.76 598.099 313.889 Q599.199 315.017 602.526 315.017 L607.995 315.017 L607.995 319.473 L602.526 319.473 Q596.363 319.473 594.019 317.187 Q591.676 314.873 591.676 308.796 L591.676 291.204 L587.769 291.204 L587.769 287.066 L591.676 287.066 L591.676 277.865 L597.029 277.865 Z" fill="#000000" fill-rule="evenodd" fill-opacity="1" /><path clip-path="url(#clip090)" d="M614.997 287.066 L620.321 287.066 L620.321 319.473 L614.997 319.473 L614.997 287.066 M614.997 274.45 L620.321 274.45 L620.321 281.192 L614.997 281.192 L614.997 274.45 Z" fill="#000000" fill-rule="evenodd" fill-opacity="1" /><path clip-path="url(#clip090)" d="M654.783 288.31 L654.783 293.287 Q652.526 292.043 650.24 291.435 Q647.983 290.799 645.668 290.799 Q640.489 290.799 637.625 294.097 Q634.76 297.367 634.76 303.299 Q634.76 309.23 637.625 312.529 Q640.489 315.798 645.668 315.798 Q647.983 315.798 650.24 315.191 Q652.526 314.554 654.783 313.31 L654.783 318.229 Q652.555 319.271 650.153 319.791 Q647.781 320.312 645.09 320.312 Q637.769 320.312 633.458 315.712 Q629.147 311.111 629.147 303.299 Q629.147 295.37 633.487 290.828 Q637.856 286.285 645.437 286.285 Q647.896 286.285 650.24 286.806 Q652.584 287.297 654.783 288.31 Z" fill="#000000" fill-rule="evenodd" fill-opacity="1" /><path clip-path="url(#clip090)" d="M678.77 303.183 Q672.318 303.183 669.829 304.658 Q667.341 306.134 667.341 309.693 Q667.341 312.529 669.193 314.207 Q671.073 315.856 674.285 315.856 Q678.712 315.856 681.374 312.731 Q684.065 309.577 684.065 304.369 L684.065 303.183 L678.77 303.183 M689.389 300.984 L689.389 319.473 L684.065 319.473 L684.065 314.554 Q682.242 317.506 679.522 318.923 Q676.803 320.312 672.867 320.312 Q667.891 320.312 664.939 317.535 Q662.017 314.728 662.017 310.04 Q662.017 304.572 665.663 301.794 Q669.337 299.016 676.6 299.016 L684.065 299.016 L684.065 298.495 Q684.065 294.821 681.635 292.824 Q679.233 290.799 674.864 290.799 Q672.086 290.799 669.453 291.464 Q666.82 292.13 664.389 293.461 L664.389 288.542 Q667.312 287.413 670.061 286.863 Q672.81 286.285 675.414 286.285 Q682.445 286.285 685.917 289.931 Q689.389 293.576 689.389 300.984 Z" fill="#000000" fill-rule="evenodd" fill-opacity="1" /><path clip-path="url(#clip090)" d="M700.356 274.45 L705.68 274.45 L705.68 319.473 L700.356 319.473 L700.356 274.45 Z" fill="#000000" fill-rule="evenodd" fill-opacity="1" /><path clip-path="url(#clip090)" d="M740.807 314.612 L740.807 331.8 L735.454 331.8 L735.454 287.066 L740.807 287.066 L740.807 291.985 Q742.485 289.091 745.031 287.703 Q747.607 286.285 751.166 286.285 Q757.068 286.285 760.743 290.972 Q764.447 295.66 764.447 303.299 Q764.447 310.937 760.743 315.625 Q757.068 320.312 751.166 320.312 Q747.607 320.312 745.031 318.923 Q742.485 317.506 740.807 314.612 M758.92 303.299 Q758.92 297.425 756.49 294.097 Q754.088 290.741 749.864 290.741 Q745.639 290.741 743.208 294.097 Q740.807 297.425 740.807 303.299 Q740.807 309.172 743.208 312.529 Q745.639 315.856 749.864 315.856 Q754.088 315.856 756.49 312.529 Q758.92 309.172 758.92 303.299 Z" fill="#000000" fill-rule="evenodd" fill-opacity="1" /><path clip-path="url(#clip090)" d="M785.83 290.799 Q781.547 290.799 779.059 294.155 Q776.571 297.483 776.571 303.299 Q776.571 309.114 779.03 312.471 Q781.518 315.798 785.83 315.798 Q790.083 315.798 792.572 312.442 Q795.06 309.086 795.06 303.299 Q795.06 297.54 792.572 294.184 Q790.083 290.799 785.83 290.799 M785.83 286.285 Q792.774 286.285 796.738 290.799 Q800.702 295.312 800.702 303.299 Q800.702 311.256 796.738 315.798 Q792.774 320.312 785.83 320.312 Q778.856 320.312 774.892 315.798 Q770.957 311.256 770.957 303.299 Q770.957 295.312 774.892 290.799 Q778.856 286.285 785.83 286.285 Z" fill="#000000" fill-rule="evenodd" fill-opacity="1" /><path clip-path="url(#clip090)" d="M809.528 287.066 L814.852 287.066 L814.852 319.473 L809.528 319.473 L809.528 287.066 M809.528 274.45 L814.852 274.45 L814.852 281.192 L809.528 281.192 L809.528 274.45 Z" fill="#000000" fill-rule="evenodd" fill-opacity="1" /><path clip-path="url(#clip090)" d="M852.93 299.913 L852.93 319.473 L847.606 319.473 L847.606 300.087 Q847.606 295.486 845.812 293.2 Q844.018 290.914 840.43 290.914 Q836.119 290.914 833.63 293.663 Q831.142 296.412 831.142 301.157 L831.142 319.473 L825.789 319.473 L825.789 287.066 L831.142 287.066 L831.142 292.101 Q833.052 289.178 835.627 287.731 Q838.231 286.285 841.617 286.285 Q847.201 286.285 850.066 289.757 Q852.93 293.2 852.93 299.913 Z" fill="#000000" fill-rule="evenodd" fill-opacity="1" /><path clip-path="url(#clip090)" d="M868.815 277.865 L868.815 287.066 L879.782 287.066 L879.782 291.204 L868.815 291.204 L868.815 308.796 Q868.815 312.76 869.886 313.889 Q870.986 315.017 874.313 315.017 L879.782 315.017 L879.782 319.473 L874.313 319.473 Q868.15 319.473 865.806 317.187 Q863.462 314.873 863.462 308.796 L863.462 291.204 L859.556 291.204 L859.556 287.066 L863.462 287.066 L863.462 277.865 L868.815 277.865 Z" fill="#000000" fill-rule="evenodd" fill-opacity="1" /></svg>
