<?xml version="1.0" encoding="utf-8"?>
<svg xmlns="http://www.w3.org/2000/svg" xmlns:xlink="http://www.w3.org/1999/xlink" width="672" height="480" viewBox="0 0 2688 1920">
<defs>
  <clipPath id="clip650">
    <rect x="0" y="0" width="2688" height="1920"/>
  </clipPath>
</defs>
<path clip-path="url(#clip650)" d="M0 1920 L2688 1920 L2688 0 L0 0  Z" fill="#ffffff" fill-rule="evenodd" fill-opacity="1"/>
<defs>
  <clipPath id="clip651">
    <rect x="537" y="0" width="1883" height="1883"/>
  </clipPath>
</defs>
<path clip-path="url(#clip650)" d="M256.161 1723.26 L2640.76 1723.26 L2640.76 127.792 L256.161 127.792  Z" fill="#ffffff" fill-rule="evenodd" fill-opacity="1"/>
<defs>
  <clipPath id="clip652">
    <rect x="256" y="127" width="2386" height="1596"/>
  </clipPath>
</defs>
<polyline clip-path="url(#clip652)" style="stroke:#000000; stroke-linecap:round; stroke-linejoin:round; stroke-width:2; stroke-opacity:0.1; fill:none" points="323.65,1723.26 323.65,127.792 "/>
<polyline clip-path="url(#clip652)" style="stroke:#000000; stroke-linecap:round; stroke-linejoin:round; stroke-width:2; stroke-opacity:0.1; fill:none" points="773.573,1723.26 773.573,127.792 "/>
<polyline clip-path="url(#clip652)" style="stroke:#000000; stroke-linecap:round; stroke-linejoin:round; stroke-width:2; stroke-opacity:0.1; fill:none" points="1223.5,1723.26 1223.5,127.792 "/>
<polyline clip-path="url(#clip652)" style="stroke:#000000; stroke-linecap:round; stroke-linejoin:round; stroke-width:2; stroke-opacity:0.1; fill:none" points="1673.42,1723.26 1673.42,127.792 "/>
<polyline clip-path="url(#clip652)" style="stroke:#000000; stroke-linecap:round; stroke-linejoin:round; stroke-width:2; stroke-opacity:0.1; fill:none" points="2123.34,1723.26 2123.34,127.792 "/>
<polyline clip-path="url(#clip652)" style="stroke:#000000; stroke-linecap:round; stroke-linejoin:round; stroke-width:2; stroke-opacity:0.1; fill:none" points="2573.27,1723.26 2573.27,127.792 "/>
<polyline clip-path="url(#clip650)" style="stroke:#000000; stroke-linecap:round; stroke-linejoin:round; stroke-width:4; stroke-opacity:1; fill:none" points="256.161,1723.26 2640.76,1723.26 "/>
<polyline clip-path="url(#clip650)" style="stroke:#000000; stroke-linecap:round; stroke-linejoin:round; stroke-width:4; stroke-opacity:1; fill:none" points="323.65,1723.26 323.65,1704.36 "/>
<polyline clip-path="url(#clip650)" style="stroke:#000000; stroke-linecap:round; stroke-linejoin:round; stroke-width:4; stroke-opacity:1; fill:none" points="773.573,1723.26 773.573,1704.36 "/>
<polyline clip-path="url(#clip650)" style="stroke:#000000; stroke-linecap:round; stroke-linejoin:round; stroke-width:4; stroke-opacity:1; fill:none" points="1223.5,1723.26 1223.5,1704.36 "/>
<polyline clip-path="url(#clip650)" style="stroke:#000000; stroke-linecap:round; stroke-linejoin:round; stroke-width:4; stroke-opacity:1; fill:none" points="1673.42,1723.26 1673.42,1704.36 "/>
<polyline clip-path="url(#clip650)" style="stroke:#000000; stroke-linecap:round; stroke-linejoin:round; stroke-width:4; stroke-opacity:1; fill:none" points="2123.34,1723.26 2123.34,1704.36 "/>
<polyline clip-path="url(#clip650)" style="stroke:#000000; stroke-linecap:round; stroke-linejoin:round; stroke-width:4; stroke-opacity:1; fill:none" points="2573.27,1723.26 2573.27,1704.36 "/>
<path clip-path="url(#clip650)" d="M323.65 1756.48 Q320.039 1756.48 318.21 1760.05 Q316.405 1763.59 316.405 1770.72 Q316.405 1777.82 318.21 1781.39 Q320.039 1784.93 323.65 1784.93 Q327.284 1784.93 329.09 1781.39 Q330.918 1777.82 330.918 1770.72 Q330.918 1763.59 329.09 1760.05 Q327.284 1756.48 323.65 1756.48 M323.65 1752.78 Q329.46 1752.78 332.516 1757.38 Q335.594 1761.97 335.594 1770.72 Q335.594 1779.44 332.516 1784.05 Q329.46 1788.63 323.65 1788.63 Q317.84 1788.63 314.761 1784.05 Q311.706 1779.44 311.706 1770.72 Q311.706 1761.97 314.761 1757.38 Q317.84 1752.78 323.65 1752.78 Z" fill="#000000" fill-rule="evenodd" fill-opacity="1" /><path clip-path="url(#clip650)" d="M763.955 1784.03 L771.594 1784.03 L771.594 1757.66 L763.284 1759.33 L763.284 1755.07 L771.548 1753.4 L776.224 1753.4 L776.224 1784.03 L783.863 1784.03 L783.863 1787.96 L763.955 1787.96 L763.955 1784.03 Z" fill="#000000" fill-rule="evenodd" fill-opacity="1" /><path clip-path="url(#clip650)" d="M1218.15 1784.03 L1234.47 1784.03 L1234.47 1787.96 L1212.52 1787.96 L1212.52 1784.03 Q1215.19 1781.27 1219.77 1776.64 Q1224.38 1771.99 1225.56 1770.65 Q1227.8 1768.13 1228.68 1766.39 Q1229.58 1764.63 1229.58 1762.94 Q1229.58 1760.19 1227.64 1758.45 Q1225.72 1756.71 1222.62 1756.71 Q1220.42 1756.71 1217.96 1757.48 Q1215.53 1758.24 1212.76 1759.79 L1212.76 1755.07 Q1215.58 1753.94 1218.03 1753.36 Q1220.49 1752.78 1222.52 1752.78 Q1227.9 1752.78 1231.09 1755.46 Q1234.28 1758.15 1234.28 1762.64 Q1234.28 1764.77 1233.47 1766.69 Q1232.69 1768.59 1230.58 1771.18 Q1230 1771.85 1226.9 1775.07 Q1223.8 1778.26 1218.15 1784.03 Z" fill="#000000" fill-rule="evenodd" fill-opacity="1" /><path clip-path="url(#clip650)" d="M1677.67 1769.33 Q1681.02 1770.05 1682.9 1772.32 Q1684.8 1774.58 1684.8 1777.92 Q1684.8 1783.03 1681.28 1785.83 Q1677.76 1788.63 1671.28 1788.63 Q1669.1 1788.63 1666.79 1788.19 Q1664.5 1787.78 1662.04 1786.92 L1662.04 1782.41 Q1663.99 1783.54 1666.3 1784.12 Q1668.62 1784.7 1671.14 1784.7 Q1675.54 1784.7 1677.83 1782.96 Q1680.14 1781.23 1680.14 1777.92 Q1680.14 1774.86 1677.99 1773.15 Q1675.86 1771.41 1672.04 1771.41 L1668.02 1771.41 L1668.02 1767.57 L1672.23 1767.57 Q1675.68 1767.57 1677.51 1766.2 Q1679.33 1764.82 1679.33 1762.22 Q1679.33 1759.56 1677.44 1758.15 Q1675.56 1756.71 1672.04 1756.71 Q1670.12 1756.71 1667.92 1757.13 Q1665.72 1757.55 1663.08 1758.43 L1663.08 1754.26 Q1665.75 1753.52 1668.06 1753.15 Q1670.4 1752.78 1672.46 1752.78 Q1677.78 1752.78 1680.89 1755.21 Q1683.99 1757.62 1683.99 1761.74 Q1683.99 1764.61 1682.34 1766.6 Q1680.7 1768.57 1677.67 1769.33 Z" fill="#000000" fill-rule="evenodd" fill-opacity="1" /><path clip-path="url(#clip650)" d="M2126.35 1757.48 L2114.55 1775.93 L2126.35 1775.93 L2126.35 1757.48 M2125.13 1753.4 L2131.01 1753.4 L2131.01 1775.93 L2135.94 1775.93 L2135.94 1779.82 L2131.01 1779.82 L2131.01 1787.96 L2126.35 1787.96 L2126.35 1779.82 L2110.75 1779.82 L2110.75 1775.3 L2125.13 1753.4 Z" fill="#000000" fill-rule="evenodd" fill-opacity="1" /><path clip-path="url(#clip650)" d="M2563.55 1753.4 L2581.9 1753.4 L2581.9 1757.34 L2567.83 1757.34 L2567.83 1765.81 Q2568.85 1765.46 2569.86 1765.3 Q2570.88 1765.12 2571.9 1765.12 Q2577.69 1765.12 2581.07 1768.29 Q2584.45 1771.46 2584.45 1776.88 Q2584.45 1782.45 2580.98 1785.56 Q2577.5 1788.63 2571.18 1788.63 Q2569.01 1788.63 2566.74 1788.26 Q2564.49 1787.89 2562.09 1787.15 L2562.09 1782.45 Q2564.17 1783.59 2566.39 1784.14 Q2568.61 1784.7 2571.09 1784.7 Q2575.1 1784.7 2577.43 1782.59 Q2579.77 1780.49 2579.77 1776.88 Q2579.77 1773.26 2577.43 1771.16 Q2575.1 1769.05 2571.09 1769.05 Q2569.22 1769.05 2567.34 1769.47 Q2565.49 1769.88 2563.55 1770.76 L2563.55 1753.4 Z" fill="#000000" fill-rule="evenodd" fill-opacity="1" /><path clip-path="url(#clip650)" d="M1444.25 1840.81 Q1444.25 1842.84 1438.35 1842.84 Q1437.45 1842.84 1436.94 1842.81 Q1436.45 1842.78 1435.68 1842.49 Q1434.91 1842.2 1434.36 1841.65 Q1431.85 1843 1429.24 1845.71 Q1426.63 1848.41 1424.51 1851.83 Q1422.38 1855.21 1421 1859.27 Q1419.64 1863.33 1419.64 1867 Q1419.64 1871.99 1422.41 1874.5 Q1423.54 1875.5 1424.83 1876.05 Q1426.12 1876.59 1430.34 1878.01 Q1433.62 1879.14 1434.72 1879.62 Q1435.81 1880.1 1436.58 1880.97 Q1438.35 1882.75 1438.35 1885.39 Q1438.35 1888.35 1436.23 1890.86 Q1434.14 1893.37 1431.17 1893.37 Q1429.56 1893.37 1428.02 1892.7 Q1426.47 1892.05 1425.67 1891.31 Q1424.86 1890.57 1424.86 1890.22 Q1424.86 1889.9 1425.05 1889.67 Q1425.25 1889.48 1425.5 1889.48 Q1425.79 1889.48 1426.31 1889.93 Q1428.63 1891.92 1431.17 1891.92 Q1432.85 1891.92 1433.85 1890.51 Q1434.88 1889.12 1434.88 1887.58 Q1434.88 1886.71 1434.55 1885.97 Q1434.26 1885.23 1433.85 1884.77 Q1433.46 1884.36 1432.82 1883.97 Q1432.17 1883.58 1431.75 1883.42 Q1431.37 1883.26 1430.79 1883.07 Q1427.28 1881.88 1426.76 1881.68 Q1425.67 1881.33 1425.12 1881.14 Q1424.57 1880.94 1423.51 1880.49 Q1422.45 1880.07 1421.83 1879.72 Q1421.25 1879.36 1420.32 1878.75 Q1419.42 1878.11 1418.9 1877.5 Q1418.39 1876.88 1417.74 1875.98 Q1417.13 1875.05 1416.78 1874.05 Q1416.45 1873.02 1416.23 1871.7 Q1416 1870.35 1416 1868.83 Q1416 1865.16 1417.13 1861.33 Q1418.29 1857.5 1420.13 1854.31 Q1421.96 1851.09 1424.25 1848.25 Q1426.57 1845.42 1428.89 1843.45 Q1431.24 1841.46 1433.36 1840.39 Q1432.62 1838.95 1432.62 1837.11 Q1432.62 1836.82 1432.65 1836.5 Q1432.69 1836.14 1432.75 1835.47 Q1432.85 1834.76 1433.11 1834.34 Q1433.4 1833.89 1433.81 1833.89 Q1434.17 1833.89 1434.39 1834.11 Q1434.62 1834.34 1434.62 1834.73 Q1434.3 1836.24 1434.3 1837.17 Q1434.3 1838.56 1434.75 1839.69 Q1436.55 1839.01 1438.97 1839.01 Q1441.45 1839.01 1442.83 1839.36 Q1444.25 1839.72 1444.25 1840.81 M1442.54 1840.88 Q1441 1840.46 1438.9 1840.46 Q1436.94 1840.46 1435.87 1840.94 Q1436.39 1841.26 1436.84 1841.33 Q1437.29 1841.39 1438.45 1841.39 Q1441.16 1841.39 1442.54 1840.88 Z" fill="#000000" fill-rule="evenodd" fill-opacity="1" /><path clip-path="url(#clip650)" d="M1451.01 1820.71 Q1451.01 1819.92 1452.07 1819.41 L1458.49 1816.36 L1451.98 1813.32 Q1451.01 1812.87 1451.01 1812.08 Q1451.01 1811.63 1451.37 1811.22 Q1451.75 1810.79 1452.25 1810.79 Q1452.61 1810.79 1453.26 1811.29 L1458.99 1815.44 Q1458.29 1807.82 1458.31 1807.59 Q1458.31 1807.14 1458.65 1806.8 Q1458.99 1806.44 1459.55 1806.44 Q1460 1806.44 1460.36 1806.78 Q1460.75 1807.1 1460.75 1807.59 L1460.07 1815.44 L1465.19 1811.65 Q1466.38 1810.77 1466.81 1810.79 Q1467.33 1810.79 1467.69 1811.2 Q1468.05 1811.61 1468.05 1812.08 Q1468.05 1812.87 1466.99 1813.36 L1460.57 1816.41 L1467.08 1819.47 Q1468.05 1819.92 1468.05 1820.71 Q1468.05 1821.16 1467.67 1821.59 Q1467.31 1822 1466.81 1822 Q1466.54 1822 1466.07 1821.73 Q1465.98 1821.68 1465.01 1820.96 Q1464.04 1820.24 1462.53 1819.14 Q1461.04 1818.03 1460.07 1817.33 Q1460.77 1824.95 1460.75 1825.18 Q1460.75 1825.63 1460.41 1825.99 Q1460.07 1826.35 1459.51 1826.35 Q1459.06 1826.35 1458.67 1826.03 Q1458.31 1825.7 1458.31 1825.18 L1458.99 1817.33 L1452.54 1822 Q1451.84 1822 1451.46 1821.66 Q1451.1 1821.3 1451.05 1821.1 Q1451.01 1820.89 1451.01 1820.71 Z" fill="#000000" fill-rule="evenodd" fill-opacity="1" /><polyline clip-path="url(#clip652)" style="stroke:#000000; stroke-linecap:round; stroke-linejoin:round; stroke-width:2; stroke-opacity:0.1; fill:none" points="256.161,1678.1 2640.76,1678.1 "/>
<polyline clip-path="url(#clip652)" style="stroke:#000000; stroke-linecap:round; stroke-linejoin:round; stroke-width:2; stroke-opacity:0.1; fill:none" points="256.161,1301.82 2640.76,1301.82 "/>
<polyline clip-path="url(#clip652)" style="stroke:#000000; stroke-linecap:round; stroke-linejoin:round; stroke-width:2; stroke-opacity:0.1; fill:none" points="256.161,925.526 2640.76,925.526 "/>
<polyline clip-path="url(#clip652)" style="stroke:#000000; stroke-linecap:round; stroke-linejoin:round; stroke-width:2; stroke-opacity:0.1; fill:none" points="256.161,549.236 2640.76,549.236 "/>
<polyline clip-path="url(#clip652)" style="stroke:#000000; stroke-linecap:round; stroke-linejoin:round; stroke-width:2; stroke-opacity:0.1; fill:none" points="256.161,172.947 2640.76,172.947 "/>
<polyline clip-path="url(#clip650)" style="stroke:#000000; stroke-linecap:round; stroke-linejoin:round; stroke-width:4; stroke-opacity:1; fill:none" points="256.161,1723.26 256.161,127.792 "/>
<polyline clip-path="url(#clip650)" style="stroke:#000000; stroke-linecap:round; stroke-linejoin:round; stroke-width:4; stroke-opacity:1; fill:none" points="256.161,1678.1 275.059,1678.1 "/>
<polyline clip-path="url(#clip650)" style="stroke:#000000; stroke-linecap:round; stroke-linejoin:round; stroke-width:4; stroke-opacity:1; fill:none" points="256.161,1301.82 275.059,1301.82 "/>
<polyline clip-path="url(#clip650)" style="stroke:#000000; stroke-linecap:round; stroke-linejoin:round; stroke-width:4; stroke-opacity:1; fill:none" points="256.161,925.526 275.059,925.526 "/>
<polyline clip-path="url(#clip650)" style="stroke:#000000; stroke-linecap:round; stroke-linejoin:round; stroke-width:4; stroke-opacity:1; fill:none" points="256.161,549.236 275.059,549.236 "/>
<polyline clip-path="url(#clip650)" style="stroke:#000000; stroke-linecap:round; stroke-linejoin:round; stroke-width:4; stroke-opacity:1; fill:none" points="256.161,172.947 275.059,172.947 "/>
<path clip-path="url(#clip650)" d="M128.504 1663.9 Q124.893 1663.9 123.064 1667.47 Q121.259 1671.01 121.259 1678.14 Q121.259 1685.25 123.064 1688.81 Q124.893 1692.35 128.504 1692.35 Q132.138 1692.35 133.944 1688.81 Q135.772 1685.25 135.772 1678.14 Q135.772 1671.01 133.944 1667.47 Q132.138 1663.9 128.504 1663.9 M128.504 1660.2 Q134.314 1660.2 137.37 1664.81 Q140.448 1669.39 140.448 1678.14 Q140.448 1686.87 137.37 1691.47 Q134.314 1696.06 128.504 1696.06 Q122.694 1696.06 119.615 1691.47 Q116.56 1686.87 116.56 1678.14 Q116.56 1669.39 119.615 1664.81 Q122.694 1660.2 128.504 1660.2 Z" fill="#000000" fill-rule="evenodd" fill-opacity="1" /><path clip-path="url(#clip650)" d="M148.666 1689.51 L153.55 1689.51 L153.55 1695.38 L148.666 1695.38 L148.666 1689.51 Z" fill="#000000" fill-rule="evenodd" fill-opacity="1" /><path clip-path="url(#clip650)" d="M173.735 1663.9 Q170.124 1663.9 168.295 1667.47 Q166.49 1671.01 166.49 1678.14 Q166.49 1685.25 168.295 1688.81 Q170.124 1692.35 173.735 1692.35 Q177.369 1692.35 179.175 1688.81 Q181.004 1685.25 181.004 1678.14 Q181.004 1671.01 179.175 1667.47 Q177.369 1663.9 173.735 1663.9 M173.735 1660.2 Q179.545 1660.2 182.601 1664.81 Q185.68 1669.39 185.68 1678.14 Q185.68 1686.87 182.601 1691.47 Q179.545 1696.06 173.735 1696.06 Q167.925 1696.06 164.846 1691.47 Q161.791 1686.87 161.791 1678.14 Q161.791 1669.39 164.846 1664.81 Q167.925 1660.2 173.735 1660.2 Z" fill="#000000" fill-rule="evenodd" fill-opacity="1" /><path clip-path="url(#clip650)" d="M203.897 1663.9 Q200.286 1663.9 198.457 1667.47 Q196.652 1671.01 196.652 1678.14 Q196.652 1685.25 198.457 1688.81 Q200.286 1692.35 203.897 1692.35 Q207.531 1692.35 209.337 1688.81 Q211.166 1685.25 211.166 1678.14 Q211.166 1671.01 209.337 1667.47 Q207.531 1663.9 203.897 1663.9 M203.897 1660.2 Q209.707 1660.2 212.763 1664.81 Q215.841 1669.39 215.841 1678.14 Q215.841 1686.87 212.763 1691.47 Q209.707 1696.06 203.897 1696.06 Q198.087 1696.06 195.008 1691.47 Q191.953 1686.87 191.953 1678.14 Q191.953 1669.39 195.008 1664.81 Q198.087 1660.2 203.897 1660.2 Z" fill="#000000" fill-rule="evenodd" fill-opacity="1" /><path clip-path="url(#clip650)" d="M129.499 1287.61 Q125.888 1287.61 124.06 1291.18 Q122.254 1294.72 122.254 1301.85 Q122.254 1308.96 124.06 1312.52 Q125.888 1316.06 129.499 1316.06 Q133.134 1316.06 134.939 1312.52 Q136.768 1308.96 136.768 1301.85 Q136.768 1294.72 134.939 1291.18 Q133.134 1287.61 129.499 1287.61 M129.499 1283.91 Q135.309 1283.91 138.365 1288.52 Q141.444 1293.1 141.444 1301.85 Q141.444 1310.58 138.365 1315.18 Q135.309 1319.77 129.499 1319.77 Q123.689 1319.77 120.61 1315.18 Q117.555 1310.58 117.555 1301.85 Q117.555 1293.1 120.61 1288.52 Q123.689 1283.91 129.499 1283.91 Z" fill="#000000" fill-rule="evenodd" fill-opacity="1" /><path clip-path="url(#clip650)" d="M149.661 1313.22 L154.545 1313.22 L154.545 1319.1 L149.661 1319.1 L149.661 1313.22 Z" fill="#000000" fill-rule="evenodd" fill-opacity="1" /><path clip-path="url(#clip650)" d="M168.758 1315.16 L185.078 1315.16 L185.078 1319.1 L163.133 1319.1 L163.133 1315.16 Q165.795 1312.41 170.379 1307.78 Q174.985 1303.12 176.166 1301.78 Q178.411 1299.26 179.291 1297.52 Q180.193 1295.76 180.193 1294.07 Q180.193 1291.32 178.249 1289.58 Q176.328 1287.85 173.226 1287.85 Q171.027 1287.85 168.573 1288.61 Q166.143 1289.37 163.365 1290.92 L163.365 1286.2 Q166.189 1285.07 168.643 1284.49 Q171.096 1283.91 173.133 1283.91 Q178.504 1283.91 181.698 1286.6 Q184.893 1289.28 184.893 1293.77 Q184.893 1295.9 184.082 1297.82 Q183.295 1299.72 181.189 1302.31 Q180.61 1302.98 177.508 1306.2 Q174.406 1309.4 168.758 1315.16 Z" fill="#000000" fill-rule="evenodd" fill-opacity="1" /><path clip-path="url(#clip650)" d="M194.939 1284.54 L213.295 1284.54 L213.295 1288.47 L199.221 1288.47 L199.221 1296.94 Q200.24 1296.6 201.258 1296.43 Q202.277 1296.25 203.295 1296.25 Q209.082 1296.25 212.462 1299.42 Q215.841 1302.59 215.841 1308.01 Q215.841 1313.59 212.369 1316.69 Q208.897 1319.77 202.578 1319.77 Q200.402 1319.77 198.133 1319.4 Q195.888 1319.03 193.48 1318.29 L193.48 1313.59 Q195.564 1314.72 197.786 1315.28 Q200.008 1315.83 202.485 1315.83 Q206.49 1315.83 208.828 1313.72 Q211.166 1311.62 211.166 1308.01 Q211.166 1304.4 208.828 1302.29 Q206.49 1300.18 202.485 1300.18 Q200.61 1300.18 198.735 1300.6 Q196.883 1301.02 194.939 1301.9 L194.939 1284.54 Z" fill="#000000" fill-rule="evenodd" fill-opacity="1" /><path clip-path="url(#clip650)" d="M128.504 911.324 Q124.893 911.324 123.064 914.889 Q121.259 918.431 121.259 925.56 Q121.259 932.667 123.064 936.232 Q124.893 939.773 128.504 939.773 Q132.138 939.773 133.944 936.232 Q135.772 932.667 135.772 925.56 Q135.772 918.431 133.944 914.889 Q132.138 911.324 128.504 911.324 M128.504 907.621 Q134.314 907.621 137.37 912.227 Q140.448 916.811 140.448 925.56 Q140.448 934.287 137.37 938.894 Q134.314 943.477 128.504 943.477 Q122.694 943.477 119.615 938.894 Q116.56 934.287 116.56 925.56 Q116.56 916.811 119.615 912.227 Q122.694 907.621 128.504 907.621 Z" fill="#000000" fill-rule="evenodd" fill-opacity="1" /><path clip-path="url(#clip650)" d="M148.666 936.926 L153.55 936.926 L153.55 942.806 L148.666 942.806 L148.666 936.926 Z" fill="#000000" fill-rule="evenodd" fill-opacity="1" /><path clip-path="url(#clip650)" d="M163.782 908.246 L182.138 908.246 L182.138 912.181 L168.064 912.181 L168.064 920.653 Q169.082 920.306 170.101 920.144 Q171.119 919.959 172.138 919.959 Q177.925 919.959 181.305 923.13 Q184.684 926.301 184.684 931.718 Q184.684 937.297 181.212 940.398 Q177.74 943.477 171.42 943.477 Q169.244 943.477 166.976 943.107 Q164.731 942.736 162.323 941.996 L162.323 937.297 Q164.407 938.431 166.629 938.986 Q168.851 939.542 171.328 939.542 Q175.332 939.542 177.67 937.435 Q180.008 935.329 180.008 931.718 Q180.008 928.107 177.67 926 Q175.332 923.894 171.328 923.894 Q169.453 923.894 167.578 924.31 Q165.726 924.727 163.782 925.607 L163.782 908.246 Z" fill="#000000" fill-rule="evenodd" fill-opacity="1" /><path clip-path="url(#clip650)" d="M203.897 911.324 Q200.286 911.324 198.457 914.889 Q196.652 918.431 196.652 925.56 Q196.652 932.667 198.457 936.232 Q200.286 939.773 203.897 939.773 Q207.531 939.773 209.337 936.232 Q211.166 932.667 211.166 925.56 Q211.166 918.431 209.337 914.889 Q207.531 911.324 203.897 911.324 M203.897 907.621 Q209.707 907.621 212.763 912.227 Q215.841 916.811 215.841 925.56 Q215.841 934.287 212.763 938.894 Q209.707 943.477 203.897 943.477 Q198.087 943.477 195.008 938.894 Q191.953 934.287 191.953 925.56 Q191.953 916.811 195.008 912.227 Q198.087 907.621 203.897 907.621 Z" fill="#000000" fill-rule="evenodd" fill-opacity="1" /><path clip-path="url(#clip650)" d="M129.499 535.035 Q125.888 535.035 124.06 538.6 Q122.254 542.141 122.254 549.271 Q122.254 556.377 124.06 559.942 Q125.888 563.484 129.499 563.484 Q133.134 563.484 134.939 559.942 Q136.768 556.377 136.768 549.271 Q136.768 542.141 134.939 538.6 Q133.134 535.035 129.499 535.035 M129.499 531.331 Q135.309 531.331 138.365 535.938 Q141.444 540.521 141.444 549.271 Q141.444 557.998 138.365 562.604 Q135.309 567.188 129.499 567.188 Q123.689 567.188 120.61 562.604 Q117.555 557.998 117.555 549.271 Q117.555 540.521 120.61 535.938 Q123.689 531.331 129.499 531.331 Z" fill="#000000" fill-rule="evenodd" fill-opacity="1" /><path clip-path="url(#clip650)" d="M149.661 560.637 L154.545 560.637 L154.545 566.516 L149.661 566.516 L149.661 560.637 Z" fill="#000000" fill-rule="evenodd" fill-opacity="1" /><path clip-path="url(#clip650)" d="M163.55 531.956 L185.772 531.956 L185.772 533.947 L173.226 566.516 L168.342 566.516 L180.147 535.891 L163.55 535.891 L163.55 531.956 Z" fill="#000000" fill-rule="evenodd" fill-opacity="1" /><path clip-path="url(#clip650)" d="M194.939 531.956 L213.295 531.956 L213.295 535.891 L199.221 535.891 L199.221 544.364 Q200.24 544.016 201.258 543.854 Q202.277 543.669 203.295 543.669 Q209.082 543.669 212.462 546.84 Q215.841 550.012 215.841 555.428 Q215.841 561.007 212.369 564.109 Q208.897 567.188 202.578 567.188 Q200.402 567.188 198.133 566.817 Q195.888 566.447 193.48 565.706 L193.48 561.007 Q195.564 562.141 197.786 562.697 Q200.008 563.252 202.485 563.252 Q206.49 563.252 208.828 561.146 Q211.166 559.039 211.166 555.428 Q211.166 551.817 208.828 549.711 Q206.49 547.604 202.485 547.604 Q200.61 547.604 198.735 548.021 Q196.883 548.438 194.939 549.317 L194.939 531.956 Z" fill="#000000" fill-rule="evenodd" fill-opacity="1" /><path clip-path="url(#clip650)" d="M119.314 186.292 L126.953 186.292 L126.953 159.926 L118.643 161.593 L118.643 157.334 L126.907 155.667 L131.583 155.667 L131.583 186.292 L139.221 186.292 L139.221 190.227 L119.314 190.227 L119.314 186.292 Z" fill="#000000" fill-rule="evenodd" fill-opacity="1" /><path clip-path="url(#clip650)" d="M148.666 184.347 L153.55 184.347 L153.55 190.227 L148.666 190.227 L148.666 184.347 Z" fill="#000000" fill-rule="evenodd" fill-opacity="1" /><path clip-path="url(#clip650)" d="M173.735 158.746 Q170.124 158.746 168.295 162.31 Q166.49 165.852 166.49 172.982 Q166.49 180.088 168.295 183.653 Q170.124 187.194 173.735 187.194 Q177.369 187.194 179.175 183.653 Q181.004 180.088 181.004 172.982 Q181.004 165.852 179.175 162.31 Q177.369 158.746 173.735 158.746 M173.735 155.042 Q179.545 155.042 182.601 159.648 Q185.68 164.232 185.68 172.982 Q185.68 181.708 182.601 186.315 Q179.545 190.898 173.735 190.898 Q167.925 190.898 164.846 186.315 Q161.791 181.708 161.791 172.982 Q161.791 164.232 164.846 159.648 Q167.925 155.042 173.735 155.042 Z" fill="#000000" fill-rule="evenodd" fill-opacity="1" /><path clip-path="url(#clip650)" d="M203.897 158.746 Q200.286 158.746 198.457 162.31 Q196.652 165.852 196.652 172.982 Q196.652 180.088 198.457 183.653 Q200.286 187.194 203.897 187.194 Q207.531 187.194 209.337 183.653 Q211.166 180.088 211.166 172.982 Q211.166 165.852 209.337 162.31 Q207.531 158.746 203.897 158.746 M203.897 155.042 Q209.707 155.042 212.763 159.648 Q215.841 164.232 215.841 172.982 Q215.841 181.708 212.763 186.315 Q209.707 190.898 203.897 190.898 Q198.087 190.898 195.008 186.315 Q191.953 181.708 191.953 172.982 Q191.953 164.232 195.008 159.648 Q198.087 155.042 203.897 155.042 Z" fill="#000000" fill-rule="evenodd" fill-opacity="1" /><path clip-path="url(#clip650)" d="M39.4871 921.352 Q40.099 921.352 40.6143 921.48 L52.0796 923.284 Q52.9491 923.381 53.2712 923.574 Q53.5932 923.735 53.5932 924.25 Q53.5932 925.055 52.7559 925.055 Q52.2728 925.055 51.4999 924.862 Q47.8606 924.314 46.2181 924.314 Q45.1231 924.314 44.318 924.54 Q43.4806 924.733 42.9009 925.055 Q42.3212 925.345 41.9347 926.021 Q41.5483 926.698 41.3228 927.342 Q41.0974 927.986 41.0008 929.145 Q40.8719 930.305 40.8397 931.303 Q40.8075 932.302 40.8075 933.944 Q40.8075 937.519 40.9363 938.099 Q41.0974 938.711 41.5805 939.033 Q42.0313 939.322 43.384 939.644 L78.3918 948.404 L79.7766 948.662 Q80.5496 948.662 80.8072 948.179 Q81.0648 947.696 81.2259 946.214 Q81.3869 944.089 81.3869 941.996 Q81.3869 941.931 81.3869 941.802 Q81.3869 941.094 81.4191 940.804 Q81.4191 940.514 81.4835 940.224 Q81.5479 939.934 81.709 939.87 Q81.8378 939.773 82.0954 939.773 Q82.7073 939.773 83.0294 940.031 Q83.3193 940.289 83.3837 940.546 Q83.4159 940.772 83.4159 941.223 Q83.4159 942.124 83.3515 944.057 Q83.2871 945.989 83.2871 946.955 L83.2226 952.43 L83.2871 958.034 Q83.2871 958.904 83.3515 960.739 Q83.4159 962.575 83.4159 963.445 Q83.4159 964.572 82.6107 964.572 Q81.709 964.572 81.5479 964.153 Q81.3869 963.702 81.3869 961.802 Q81.3869 959.129 81.2581 957.68 Q81.1293 956.23 80.6784 955.458 Q80.2275 954.652 79.7766 954.427 Q79.2935 954.202 78.1985 953.944 L42.9975 945.087 Q42.2246 944.83 41.6127 944.83 Q41.2906 944.83 41.1618 944.926 Q41.033 944.991 40.9363 945.409 Q40.8075 945.828 40.8075 946.698 L40.8075 949.274 Q40.8075 951.915 40.9363 953.557 Q41.033 955.168 41.516 956.714 Q41.9991 958.227 42.6755 959.129 Q43.3518 959.999 44.7366 960.965 Q46.1215 961.931 47.7962 962.639 Q49.4709 963.316 52.2084 964.282 Q53.1102 964.604 53.3678 964.797 Q53.5932 964.958 53.5932 965.409 Q53.5932 965.731 53.4 965.989 Q53.1746 966.214 52.8847 966.214 Q51.8219 965.892 51.6931 965.828 L40.0668 961.867 Q39.1328 961.544 38.9718 961.255 Q38.7785 960.933 38.7785 959.741 L38.7785 923.155 Q38.7785 922.575 38.7785 922.382 Q38.7785 922.189 38.843 921.867 Q38.9074 921.545 39.0684 921.448 Q39.2294 921.352 39.4871 921.352 Z" fill="#000000" fill-rule="evenodd" fill-opacity="1" /><path clip-path="url(#clip650)" d="M25.5954 914.742 Q24.8063 914.742 24.2878 913.682 L21.2444 907.257 L18.2009 913.772 Q17.75 914.742 16.961 914.742 Q16.5101 914.742 16.1043 914.381 Q15.676 913.998 15.676 913.502 Q15.676 913.141 16.172 912.487 L20.3201 906.761 Q12.7002 907.46 12.4747 907.438 Q12.0238 907.438 11.6857 907.099 Q11.325 906.761 11.325 906.198 Q11.325 905.747 11.6631 905.386 Q11.9788 905.003 12.4747 905.003 L20.3201 905.679 L16.5327 900.562 Q15.6534 899.367 15.676 898.938 Q15.676 898.42 16.0818 898.059 Q16.4876 897.698 16.961 897.698 Q17.75 897.698 18.246 898.758 L21.2895 905.183 L24.3555 898.668 Q24.8063 897.698 25.5954 897.698 Q26.0463 897.698 26.4746 898.082 Q26.8804 898.442 26.8804 898.938 Q26.8804 899.209 26.6099 899.682 Q26.5648 899.773 25.8434 900.742 Q25.122 901.711 24.0173 903.222 Q22.9126 904.71 22.2138 905.679 Q29.8337 904.98 30.0591 905.003 Q30.51 905.003 30.8707 905.341 Q31.2314 905.679 31.2314 906.243 Q31.2314 906.694 30.9158 907.077 Q30.5776 907.438 30.0591 907.438 L22.2138 906.761 L26.8804 913.209 Q26.8804 913.908 26.5422 914.291 Q26.1815 914.652 25.9786 914.697 Q25.7757 914.742 25.5954 914.742 Z" fill="#000000" fill-rule="evenodd" fill-opacity="1" /><path clip-path="url(#clip650)" d="M248.257 16.7545 L248.257 25.383 Q244.125 21.5346 239.426 19.6307 Q234.767 17.7268 229.501 17.7268 Q219.131 17.7268 213.622 24.0867 Q208.112 30.4061 208.112 42.3968 Q208.112 54.3469 213.622 60.7069 Q219.131 67.0263 229.501 67.0263 Q234.767 67.0263 239.426 65.1223 Q244.125 63.2184 248.257 59.3701 L248.257 67.9175 Q243.963 70.8341 239.142 72.2924 Q234.362 73.7508 229.015 73.7508 Q215.282 73.7508 207.383 65.3654 Q199.484 56.9395 199.484 42.3968 Q199.484 27.8135 207.383 19.4281 Q215.282 11.0023 229.015 11.0023 Q234.443 11.0023 239.223 12.4606 Q244.044 13.8784 248.257 16.7545 Z" fill="#000000" fill-rule="evenodd" fill-opacity="1" /><path clip-path="url(#clip650)" d="M278.152 32.4315 Q272.157 32.4315 268.673 37.1306 Q265.19 41.7891 265.19 49.9314 Q265.19 58.0738 268.633 62.7728 Q272.117 67.4314 278.152 67.4314 Q284.107 67.4314 287.591 62.7323 Q291.075 58.0333 291.075 49.9314 Q291.075 41.8701 287.591 37.1711 Q284.107 32.4315 278.152 32.4315 M278.152 26.1121 Q287.875 26.1121 293.424 32.4315 Q298.974 38.7509 298.974 49.9314 Q298.974 61.0714 293.424 67.4314 Q287.875 73.7508 278.152 73.7508 Q268.39 73.7508 262.84 67.4314 Q257.331 61.0714 257.331 49.9314 Q257.331 38.7509 262.84 32.4315 Q268.39 26.1121 278.152 26.1121 Z" fill="#000000" fill-rule="evenodd" fill-opacity="1" /><path clip-path="url(#clip650)" d="M349.043 45.1919 L349.043 72.576 L341.59 72.576 L341.59 45.4349 Q341.59 38.994 339.078 35.7938 Q336.566 32.5936 331.543 32.5936 Q325.508 32.5936 322.024 36.4419 Q318.54 40.2903 318.54 46.9338 L318.54 72.576 L311.046 72.576 L311.046 27.2059 L318.54 27.2059 L318.54 34.2544 Q321.214 30.163 324.819 28.1376 Q328.465 26.1121 333.204 26.1121 Q341.022 26.1121 345.033 30.9732 Q349.043 35.7938 349.043 45.1919 Z" fill="#000000" fill-rule="evenodd" fill-opacity="1" /><path clip-path="url(#clip650)" d="M393.765 34.0924 L393.765 9.54393 L401.219 9.54393 L401.219 72.576 L393.765 72.576 L393.765 65.7705 Q391.416 69.8214 387.81 71.8063 Q384.246 73.7508 379.223 73.7508 Q370.999 73.7508 365.814 67.1883 Q360.669 60.6258 360.669 49.9314 Q360.669 39.2371 365.814 32.6746 Q370.999 26.1121 379.223 26.1121 Q384.246 26.1121 387.81 28.0971 Q391.416 30.0415 393.765 34.0924 M368.366 49.9314 Q368.366 58.1548 371.728 62.8538 Q375.131 67.5124 381.045 67.5124 Q386.96 67.5124 390.362 62.8538 Q393.765 58.1548 393.765 49.9314 Q393.765 41.7081 390.362 37.0496 Q386.96 32.3505 381.045 32.3505 Q375.131 32.3505 371.728 37.0496 Q368.366 41.7081 368.366 49.9314 Z" fill="#000000" fill-rule="evenodd" fill-opacity="1" /><path clip-path="url(#clip650)" d="M415.802 54.671 L415.802 27.2059 L423.256 27.2059 L423.256 54.3874 Q423.256 60.8284 425.767 64.0691 Q428.279 67.2693 433.302 67.2693 Q439.338 67.2693 442.822 63.421 Q446.346 59.5726 446.346 52.9291 L446.346 27.2059 L453.8 27.2059 L453.8 72.576 L446.346 72.576 L446.346 65.6084 Q443.632 69.7404 440.027 71.7658 Q436.462 73.7508 431.722 73.7508 Q423.904 73.7508 419.853 68.8897 Q415.802 64.0286 415.802 54.671 M434.558 26.1121 L434.558 26.1121 Z" fill="#000000" fill-rule="evenodd" fill-opacity="1" /><path clip-path="url(#clip650)" d="M501.803 28.9478 L501.803 35.9153 Q498.643 34.1734 495.443 33.3227 Q492.283 32.4315 489.043 32.4315 Q481.791 32.4315 477.781 37.0496 Q473.771 41.6271 473.771 49.9314 Q473.771 58.2358 477.781 62.8538 Q481.791 67.4314 489.043 67.4314 Q492.283 67.4314 495.443 66.5807 Q498.643 65.6895 501.803 63.9476 L501.803 70.8341 Q498.684 72.2924 495.321 73.0216 Q492 73.7508 488.232 73.7508 Q477.984 73.7508 471.948 67.3098 Q465.912 60.8689 465.912 49.9314 Q465.912 38.832 471.988 32.472 Q478.105 26.1121 488.718 26.1121 Q492.162 26.1121 495.443 26.8413 Q498.724 27.5299 501.803 28.9478 Z" fill="#000000" fill-rule="evenodd" fill-opacity="1" /><path clip-path="url(#clip650)" d="M522.138 14.324 L522.138 27.2059 L537.491 27.2059 L537.491 32.9987 L522.138 32.9987 L522.138 57.6282 Q522.138 63.1779 523.637 64.7578 Q525.177 66.3376 529.835 66.3376 L537.491 66.3376 L537.491 72.576 L529.835 72.576 Q521.207 72.576 517.925 69.3758 Q514.644 66.1351 514.644 57.6282 L514.644 32.9987 L509.176 32.9987 L509.176 27.2059 L514.644 27.2059 L514.644 14.324 L522.138 14.324 Z" fill="#000000" fill-rule="evenodd" fill-opacity="1" /><path clip-path="url(#clip650)" d="M547.295 27.2059 L554.748 27.2059 L554.748 72.576 L547.295 72.576 L547.295 27.2059 M547.295 9.54393 L554.748 9.54393 L554.748 18.9825 L547.295 18.9825 L547.295 9.54393 Z" fill="#000000" fill-rule="evenodd" fill-opacity="1" /><path clip-path="url(#clip650)" d="M564.997 27.2059 L572.896 27.2059 L587.074 65.2844 L601.253 27.2059 L609.152 27.2059 L592.138 72.576 L582.011 72.576 L564.997 27.2059 Z" fill="#000000" fill-rule="evenodd" fill-opacity="1" /><path clip-path="url(#clip650)" d="M658.249 48.0275 L658.249 51.6733 L623.978 51.6733 Q624.464 59.3701 628.596 63.421 Q632.769 67.4314 640.182 67.4314 Q644.476 67.4314 648.486 66.3781 Q652.537 65.3249 656.507 63.2184 L656.507 70.267 Q652.496 71.9684 648.284 72.8596 Q644.071 73.7508 639.736 73.7508 Q628.88 73.7508 622.52 67.4314 Q616.2 61.1119 616.2 50.3365 Q616.2 39.1965 622.196 32.6746 Q628.232 26.1121 638.44 26.1121 Q647.595 26.1121 652.902 32.0264 Q658.249 37.9003 658.249 48.0275 M650.795 45.84 Q650.714 39.7232 647.352 36.0774 Q644.03 32.4315 638.521 32.4315 Q632.282 32.4315 628.515 35.9558 Q624.788 39.4801 624.221 45.8805 L650.795 45.84 Z" fill="#000000" fill-rule="evenodd" fill-opacity="1" /><path clip-path="url(#clip650)" d="M704.227 14.324 L704.227 27.2059 L719.579 27.2059 L719.579 32.9987 L704.227 32.9987 L704.227 57.6282 Q704.227 63.1779 705.725 64.7578 Q707.265 66.3376 711.923 66.3376 L719.579 66.3376 L719.579 72.576 L711.923 72.576 Q703.295 72.576 700.014 69.3758 Q696.732 66.1351 696.732 57.6282 L696.732 32.9987 L691.264 32.9987 L691.264 27.2059 L696.732 27.2059 L696.732 14.324 L704.227 14.324 Z" fill="#000000" fill-rule="evenodd" fill-opacity="1" /><path clip-path="url(#clip650)" d="M768.19 48.0275 L768.19 51.6733 L733.92 51.6733 Q734.406 59.3701 738.538 63.421 Q742.71 67.4314 750.123 67.4314 Q754.417 67.4314 758.428 66.3781 Q762.479 65.3249 766.448 63.2184 L766.448 70.267 Q762.438 71.9684 758.225 72.8596 Q754.012 73.7508 749.678 73.7508 Q738.821 73.7508 732.461 67.4314 Q726.142 61.1119 726.142 50.3365 Q726.142 39.1965 732.137 32.6746 Q738.173 26.1121 748.381 26.1121 Q757.536 26.1121 762.843 32.0264 Q768.19 37.9003 768.19 48.0275 M760.737 45.84 Q760.656 39.7232 757.293 36.0774 Q753.972 32.4315 748.462 32.4315 Q742.224 32.4315 738.457 35.9558 Q734.73 39.4801 734.163 45.8805 L760.737 45.84 Z" fill="#000000" fill-rule="evenodd" fill-opacity="1" /><path clip-path="url(#clip650)" d="M815.748 35.9153 Q818.543 30.8922 822.432 28.5022 Q826.321 26.1121 831.587 26.1121 Q838.676 26.1121 842.524 31.0947 Q846.373 36.0368 846.373 45.1919 L846.373 72.576 L838.879 72.576 L838.879 45.4349 Q838.879 38.913 836.57 35.7533 Q834.261 32.5936 829.521 32.5936 Q823.728 32.5936 820.366 36.4419 Q817.004 40.2903 817.004 46.9338 L817.004 72.576 L809.51 72.576 L809.51 45.4349 Q809.51 38.8725 807.201 35.7533 Q804.892 32.5936 800.071 32.5936 Q794.359 32.5936 790.997 36.4824 Q787.635 40.3308 787.635 46.9338 L787.635 72.576 L780.14 72.576 L780.14 27.2059 L787.635 27.2059 L787.635 34.2544 Q790.187 30.082 793.752 28.0971 Q797.316 26.1121 802.218 26.1121 Q807.16 26.1121 810.603 28.6237 Q814.087 31.1352 815.748 35.9153 Z" fill="#000000" fill-rule="evenodd" fill-opacity="1" /><path clip-path="url(#clip650)" d="M868.45 65.7705 L868.45 89.8329 L860.956 89.8329 L860.956 27.2059 L868.45 27.2059 L868.45 34.0924 Q870.8 30.0415 874.365 28.0971 Q877.97 26.1121 882.952 26.1121 Q891.216 26.1121 896.361 32.6746 Q901.546 39.2371 901.546 49.9314 Q901.546 60.6258 896.361 67.1883 Q891.216 73.7508 882.952 73.7508 Q877.97 73.7508 874.365 71.8063 Q870.8 69.8214 868.45 65.7705 M893.809 49.9314 Q893.809 41.7081 890.406 37.0496 Q887.044 32.3505 881.13 32.3505 Q875.215 32.3505 871.812 37.0496 Q868.45 41.7081 868.45 49.9314 Q868.45 58.1548 871.812 62.8538 Q875.215 67.5124 881.13 67.5124 Q887.044 67.5124 890.406 62.8538 Q893.809 58.1548 893.809 49.9314 Z" fill="#000000" fill-rule="evenodd" fill-opacity="1" /><path clip-path="url(#clip650)" d="M952.709 48.0275 L952.709 51.6733 L918.438 51.6733 Q918.924 59.3701 923.056 63.421 Q927.229 67.4314 934.642 67.4314 Q938.936 67.4314 942.946 66.3781 Q946.997 65.3249 950.967 63.2184 L950.967 70.267 Q946.957 71.9684 942.744 72.8596 Q938.531 73.7508 934.196 73.7508 Q923.34 73.7508 916.98 67.4314 Q910.661 61.1119 910.661 50.3365 Q910.661 39.1965 916.656 32.6746 Q922.692 26.1121 932.9 26.1121 Q942.055 26.1121 947.362 32.0264 Q952.709 37.9003 952.709 48.0275 M945.255 45.84 Q945.174 39.7232 941.812 36.0774 Q938.49 32.4315 932.981 32.4315 Q926.743 32.4315 922.975 35.9558 Q919.249 39.4801 918.681 45.8805 L945.255 45.84 Z" fill="#000000" fill-rule="evenodd" fill-opacity="1" /><path clip-path="url(#clip650)" d="M991.233 34.1734 Q989.977 33.4443 988.478 33.1202 Q987.02 32.7556 985.238 32.7556 Q978.918 32.7556 975.516 36.8875 Q972.153 40.9789 972.153 48.6757 L972.153 72.576 L964.659 72.576 L964.659 27.2059 L972.153 27.2059 L972.153 34.2544 Q974.503 30.1225 978.27 28.1376 Q982.038 26.1121 987.425 26.1121 Q988.195 26.1121 989.127 26.2337 Q990.058 26.3147 991.193 26.5172 L991.233 34.1734 Z" fill="#000000" fill-rule="evenodd" fill-opacity="1" /><path clip-path="url(#clip650)" d="M1019.67 49.7694 Q1010.64 49.7694 1007.15 51.8354 Q1003.67 53.9013 1003.67 58.8839 Q1003.67 62.8538 1006.26 65.2034 Q1008.9 67.5124 1013.39 67.5124 Q1019.59 67.5124 1023.32 63.1374 Q1027.08 58.7219 1027.08 51.4303 L1027.08 49.7694 L1019.67 49.7694 M1034.54 46.6907 L1034.54 72.576 L1027.08 72.576 L1027.08 65.6895 Q1024.53 69.8214 1020.72 71.8063 Q1016.92 73.7508 1011.41 73.7508 Q1004.44 73.7508 1000.31 69.8619 Q996.216 65.9325 996.216 59.3701 Q996.216 51.7138 1001.32 47.825 Q1006.46 43.9361 1016.63 43.9361 L1027.08 43.9361 L1027.08 43.2069 Q1027.08 38.0623 1023.68 35.2672 Q1020.32 32.4315 1014.2 32.4315 Q1010.31 32.4315 1006.63 33.3632 Q1002.94 34.295 999.537 36.1584 L999.537 29.2718 Q1003.63 27.692 1007.48 26.9223 Q1011.33 26.1121 1014.97 26.1121 Q1024.82 26.1121 1029.68 31.2163 Q1034.54 36.3204 1034.54 46.6907 Z" fill="#000000" fill-rule="evenodd" fill-opacity="1" /><path clip-path="url(#clip650)" d="M1057.26 14.324 L1057.26 27.2059 L1072.62 27.2059 L1072.62 32.9987 L1057.26 32.9987 L1057.26 57.6282 Q1057.26 63.1779 1058.76 64.7578 Q1060.3 66.3376 1064.96 66.3376 L1072.62 66.3376 L1072.62 72.576 L1064.96 72.576 Q1056.33 72.576 1053.05 69.3758 Q1049.77 66.1351 1049.77 57.6282 L1049.77 32.9987 L1044.3 32.9987 L1044.3 27.2059 L1049.77 27.2059 L1049.77 14.324 L1057.26 14.324 Z" fill="#000000" fill-rule="evenodd" fill-opacity="1" /><path clip-path="url(#clip650)" d="M1081.65 54.671 L1081.65 27.2059 L1089.1 27.2059 L1089.1 54.3874 Q1089.1 60.8284 1091.61 64.0691 Q1094.13 67.2693 1099.15 67.2693 Q1105.19 67.2693 1108.67 63.421 Q1112.19 59.5726 1112.19 52.9291 L1112.19 27.2059 L1119.65 27.2059 L1119.65 72.576 L1112.19 72.576 L1112.19 65.6084 Q1109.48 69.7404 1105.87 71.7658 Q1102.31 73.7508 1097.57 73.7508 Q1089.75 73.7508 1085.7 68.8897 Q1081.65 64.0286 1081.65 54.671 M1100.4 26.1121 L1100.4 26.1121 Z" fill="#000000" fill-rule="evenodd" fill-opacity="1" /><path clip-path="url(#clip650)" d="M1161.29 34.1734 Q1160.03 33.4443 1158.54 33.1202 Q1157.08 32.7556 1155.29 32.7556 Q1148.98 32.7556 1145.57 36.8875 Q1142.21 40.9789 1142.21 48.6757 L1142.21 72.576 L1134.72 72.576 L1134.72 27.2059 L1142.21 27.2059 L1142.21 34.2544 Q1144.56 30.1225 1148.33 28.1376 Q1152.09 26.1121 1157.48 26.1121 Q1158.25 26.1121 1159.18 26.2337 Q1160.12 26.3147 1161.25 26.5172 L1161.29 34.1734 Z" fill="#000000" fill-rule="evenodd" fill-opacity="1" /><path clip-path="url(#clip650)" d="M1206.09 48.0275 L1206.09 51.6733 L1171.82 51.6733 Q1172.31 59.3701 1176.44 63.421 Q1180.61 67.4314 1188.03 67.4314 Q1192.32 67.4314 1196.33 66.3781 Q1200.38 65.3249 1204.35 63.2184 L1204.35 70.267 Q1200.34 71.9684 1196.13 72.8596 Q1191.91 73.7508 1187.58 73.7508 Q1176.72 73.7508 1170.36 67.4314 Q1164.04 61.1119 1164.04 50.3365 Q1164.04 39.1965 1170.04 32.6746 Q1176.08 26.1121 1186.28 26.1121 Q1195.44 26.1121 1200.75 32.0264 Q1206.09 37.9003 1206.09 48.0275 M1198.64 45.84 Q1198.56 39.7232 1195.2 36.0774 Q1191.87 32.4315 1186.37 32.4315 Q1180.13 32.4315 1176.36 35.9558 Q1172.63 39.4801 1172.07 45.8805 L1198.64 45.84 Z" fill="#000000" fill-rule="evenodd" fill-opacity="1" /><path clip-path="url(#clip650)" d="M1251.91 65.7705 L1251.91 89.8329 L1244.41 89.8329 L1244.41 27.2059 L1251.91 27.2059 L1251.91 34.0924 Q1254.26 30.0415 1257.82 28.0971 Q1261.43 26.1121 1266.41 26.1121 Q1274.67 26.1121 1279.82 32.6746 Q1285 39.2371 1285 49.9314 Q1285 60.6258 1279.82 67.1883 Q1274.67 73.7508 1266.41 73.7508 Q1261.43 73.7508 1257.82 71.8063 Q1254.26 69.8214 1251.91 65.7705 M1277.27 49.9314 Q1277.27 41.7081 1273.86 37.0496 Q1270.5 32.3505 1264.59 32.3505 Q1258.67 32.3505 1255.27 37.0496 Q1251.91 41.7081 1251.91 49.9314 Q1251.91 58.1548 1255.27 62.8538 Q1258.67 67.5124 1264.59 67.5124 Q1270.5 67.5124 1273.86 62.8538 Q1277.27 58.1548 1277.27 49.9314 Z" fill="#000000" fill-rule="evenodd" fill-opacity="1" /><path clip-path="url(#clip650)" d="M1323.65 34.1734 Q1322.39 33.4443 1320.9 33.1202 Q1319.44 32.7556 1317.65 32.7556 Q1311.34 32.7556 1307.93 36.8875 Q1304.57 40.9789 1304.57 48.6757 L1304.57 72.576 L1297.08 72.576 L1297.08 27.2059 L1304.57 27.2059 L1304.57 34.2544 Q1306.92 30.1225 1310.69 28.1376 Q1314.45 26.1121 1319.84 26.1121 Q1320.61 26.1121 1321.54 26.2337 Q1322.48 26.3147 1323.61 26.5172 L1323.65 34.1734 Z" fill="#000000" fill-rule="evenodd" fill-opacity="1" /><path clip-path="url(#clip650)" d="M1347.23 32.4315 Q1341.23 32.4315 1337.75 37.1306 Q1334.26 41.7891 1334.26 49.9314 Q1334.26 58.0738 1337.71 62.7728 Q1341.19 67.4314 1347.23 67.4314 Q1353.18 67.4314 1356.67 62.7323 Q1360.15 58.0333 1360.15 49.9314 Q1360.15 41.8701 1356.67 37.1711 Q1353.18 32.4315 1347.23 32.4315 M1347.23 26.1121 Q1356.95 26.1121 1362.5 32.4315 Q1368.05 38.7509 1368.05 49.9314 Q1368.05 61.0714 1362.5 67.4314 Q1356.95 73.7508 1347.23 73.7508 Q1337.46 73.7508 1331.91 67.4314 Q1326.4 61.0714 1326.4 49.9314 Q1326.4 38.7509 1331.91 32.4315 Q1337.46 26.1121 1347.23 26.1121 Z" fill="#000000" fill-rule="evenodd" fill-opacity="1" /><path clip-path="url(#clip650)" d="M1403.37 9.54393 L1403.37 15.7418 L1396.24 15.7418 Q1392.23 15.7418 1390.65 17.3622 Q1389.11 18.9825 1389.11 23.1955 L1389.11 27.2059 L1401.39 27.2059 L1401.39 32.9987 L1389.11 32.9987 L1389.11 72.576 L1381.62 72.576 L1381.62 32.9987 L1374.49 32.9987 L1374.49 27.2059 L1381.62 27.2059 L1381.62 24.0462 Q1381.62 16.471 1385.14 13.0277 Q1388.67 9.54393 1396.32 9.54393 L1403.37 9.54393 Z" fill="#000000" fill-rule="evenodd" fill-opacity="1" /><path clip-path="url(#clip650)" d="M1409.61 27.2059 L1417.06 27.2059 L1417.06 72.576 L1409.61 72.576 L1409.61 27.2059 M1409.61 9.54393 L1417.06 9.54393 L1417.06 18.9825 L1409.61 18.9825 L1409.61 9.54393 Z" fill="#000000" fill-rule="evenodd" fill-opacity="1" /><path clip-path="url(#clip650)" d="M1432.66 9.54393 L1440.11 9.54393 L1440.11 72.576 L1432.66 72.576 L1432.66 9.54393 Z" fill="#000000" fill-rule="evenodd" fill-opacity="1" /><path clip-path="url(#clip650)" d="M1494.52 48.0275 L1494.52 51.6733 L1460.25 51.6733 Q1460.73 59.3701 1464.86 63.421 Q1469.04 67.4314 1476.45 67.4314 Q1480.74 67.4314 1484.75 66.3781 Q1488.81 65.3249 1492.78 63.2184 L1492.78 70.267 Q1488.77 71.9684 1484.55 72.8596 Q1480.34 73.7508 1476 73.7508 Q1465.15 73.7508 1458.79 67.4314 Q1452.47 61.1119 1452.47 50.3365 Q1452.47 39.1965 1458.46 32.6746 Q1464.5 26.1121 1474.71 26.1121 Q1483.86 26.1121 1489.17 32.0264 Q1494.52 37.9003 1494.52 48.0275 M1487.06 45.84 Q1486.98 39.7232 1483.62 36.0774 Q1480.3 32.4315 1474.79 32.4315 Q1468.55 32.4315 1464.78 35.9558 Q1461.06 39.4801 1460.49 45.8805 L1487.06 45.84 Z" fill="#000000" fill-rule="evenodd" fill-opacity="1" /><path clip-path="url(#clip650)" d="M1553.74 49.7694 Q1544.71 49.7694 1541.22 51.8354 Q1537.74 53.9013 1537.74 58.8839 Q1537.74 62.8538 1540.33 65.2034 Q1542.97 67.5124 1547.46 67.5124 Q1553.66 67.5124 1557.39 63.1374 Q1561.15 58.7219 1561.15 51.4303 L1561.15 49.7694 L1553.74 49.7694 M1568.61 46.6907 L1568.61 72.576 L1561.15 72.576 L1561.15 65.6895 Q1558.6 69.8214 1554.79 71.8063 Q1550.99 73.7508 1545.48 73.7508 Q1538.51 73.7508 1534.38 69.8619 Q1530.29 65.9325 1530.29 59.3701 Q1530.29 51.7138 1535.39 47.825 Q1540.54 43.9361 1550.7 43.9361 L1561.15 43.9361 L1561.15 43.2069 Q1561.15 38.0623 1557.75 35.2672 Q1554.39 32.4315 1548.27 32.4315 Q1544.38 32.4315 1540.7 33.3632 Q1537.01 34.295 1533.61 36.1584 L1533.61 29.2718 Q1537.7 27.692 1541.55 26.9223 Q1545.4 26.1121 1549.04 26.1121 Q1558.89 26.1121 1563.75 31.2163 Q1568.61 36.3204 1568.61 46.6907 Z" fill="#000000" fill-rule="evenodd" fill-opacity="1" /><path clip-path="url(#clip650)" d="M1621.68 45.1919 L1621.68 72.576 L1614.22 72.576 L1614.22 45.4349 Q1614.22 38.994 1611.71 35.7938 Q1609.2 32.5936 1604.18 32.5936 Q1598.14 32.5936 1594.66 36.4419 Q1591.17 40.2903 1591.17 46.9338 L1591.17 72.576 L1583.68 72.576 L1583.68 9.54393 L1591.17 9.54393 L1591.17 34.2544 Q1593.85 30.163 1597.45 28.1376 Q1601.1 26.1121 1605.84 26.1121 Q1613.65 26.1121 1617.66 30.9732 Q1621.68 35.7938 1621.68 45.1919 Z" fill="#000000" fill-rule="evenodd" fill-opacity="1" /><path clip-path="url(#clip650)" d="M1675.35 48.0275 L1675.35 51.6733 L1641.08 51.6733 Q1641.57 59.3701 1645.7 63.421 Q1649.87 67.4314 1657.28 67.4314 Q1661.58 67.4314 1665.59 66.3781 Q1669.64 65.3249 1673.61 63.2184 L1673.61 70.267 Q1669.6 71.9684 1665.38 72.8596 Q1661.17 73.7508 1656.84 73.7508 Q1645.98 73.7508 1639.62 67.4314 Q1633.3 61.1119 1633.3 50.3365 Q1633.3 39.1965 1639.3 32.6746 Q1645.33 26.1121 1655.54 26.1121 Q1664.7 26.1121 1670 32.0264 Q1675.35 37.9003 1675.35 48.0275 M1667.9 45.84 Q1667.82 39.7232 1664.45 36.0774 Q1661.13 32.4315 1655.62 32.4315 Q1649.38 32.4315 1645.62 35.9558 Q1641.89 39.4801 1641.32 45.8805 L1667.9 45.84 Z" fill="#000000" fill-rule="evenodd" fill-opacity="1" /><path clip-path="url(#clip650)" d="M1708.2 49.7694 Q1699.17 49.7694 1695.69 51.8354 Q1692.2 53.9013 1692.2 58.8839 Q1692.2 62.8538 1694.79 65.2034 Q1697.43 67.5124 1701.92 67.5124 Q1708.12 67.5124 1711.85 63.1374 Q1715.62 58.7219 1715.62 51.4303 L1715.62 49.7694 L1708.2 49.7694 M1723.07 46.6907 L1723.07 72.576 L1715.62 72.576 L1715.62 65.6895 Q1713.06 69.8214 1709.26 71.8063 Q1705.45 73.7508 1699.94 73.7508 Q1692.97 73.7508 1688.84 69.8619 Q1684.75 65.9325 1684.75 59.3701 Q1684.75 51.7138 1689.85 47.825 Q1695 43.9361 1705.16 43.9361 L1715.62 43.9361 L1715.62 43.2069 Q1715.62 38.0623 1712.21 35.2672 Q1708.85 32.4315 1702.73 32.4315 Q1698.85 32.4315 1695.16 33.3632 Q1691.47 34.295 1688.07 36.1584 L1688.07 29.2718 Q1692.16 27.692 1696.01 26.9223 Q1699.86 26.1121 1703.5 26.1121 Q1713.35 26.1121 1718.21 31.2163 Q1723.07 36.3204 1723.07 46.6907 Z" fill="#000000" fill-rule="evenodd" fill-opacity="1" /><path clip-path="url(#clip650)" d="M1768.28 34.0924 L1768.28 9.54393 L1775.73 9.54393 L1775.73 72.576 L1768.28 72.576 L1768.28 65.7705 Q1765.93 69.8214 1762.32 71.8063 Q1758.76 73.7508 1753.73 73.7508 Q1745.51 73.7508 1740.33 67.1883 Q1735.18 60.6258 1735.18 49.9314 Q1735.18 39.2371 1740.33 32.6746 Q1745.51 26.1121 1753.73 26.1121 Q1758.76 26.1121 1762.32 28.0971 Q1765.93 30.0415 1768.28 34.0924 M1742.88 49.9314 Q1742.88 58.1548 1746.24 62.8538 Q1749.64 67.5124 1755.56 67.5124 Q1761.47 67.5124 1764.87 62.8538 Q1768.28 58.1548 1768.28 49.9314 Q1768.28 41.7081 1764.87 37.0496 Q1761.47 32.3505 1755.56 32.3505 Q1749.64 32.3505 1746.24 37.0496 Q1742.88 41.7081 1742.88 49.9314 Z" fill="#000000" fill-rule="evenodd" fill-opacity="1" /><path clip-path="url(#clip650)" d="M1835.04 32.4315 Q1829.04 32.4315 1825.56 37.1306 Q1822.07 41.7891 1822.07 49.9314 Q1822.07 58.0738 1825.52 62.7728 Q1829 67.4314 1835.04 67.4314 Q1840.99 67.4314 1844.48 62.7323 Q1847.96 58.0333 1847.96 49.9314 Q1847.96 41.8701 1844.48 37.1711 Q1840.99 32.4315 1835.04 32.4315 M1835.04 26.1121 Q1844.76 26.1121 1850.31 32.4315 Q1855.86 38.7509 1855.86 49.9314 Q1855.86 61.0714 1850.31 67.4314 Q1844.76 73.7508 1835.04 73.7508 Q1825.27 73.7508 1819.72 67.4314 Q1814.21 61.0714 1814.21 49.9314 Q1814.21 38.7509 1819.72 32.4315 Q1825.27 26.1121 1835.04 26.1121 Z" fill="#000000" fill-rule="evenodd" fill-opacity="1" /><path clip-path="url(#clip650)" d="M1891.18 9.54393 L1891.18 15.7418 L1884.05 15.7418 Q1880.04 15.7418 1878.46 17.3622 Q1876.92 18.9825 1876.92 23.1955 L1876.92 27.2059 L1889.2 27.2059 L1889.2 32.9987 L1876.92 32.9987 L1876.92 72.576 L1869.43 72.576 L1869.43 32.9987 L1862.3 32.9987 L1862.3 27.2059 L1869.43 27.2059 L1869.43 24.0462 Q1869.43 16.471 1872.95 13.0277 Q1876.48 9.54393 1884.13 9.54393 L1891.18 9.54393 Z" fill="#000000" fill-rule="evenodd" fill-opacity="1" /><path clip-path="url(#clip650)" d="M1944.41 49.7694 Q1935.38 49.7694 1931.89 51.8354 Q1928.41 53.9013 1928.41 58.8839 Q1928.41 62.8538 1931 65.2034 Q1933.64 67.5124 1938.13 67.5124 Q1944.33 67.5124 1948.06 63.1374 Q1951.82 58.7219 1951.82 51.4303 L1951.82 49.7694 L1944.41 49.7694 M1959.28 46.6907 L1959.28 72.576 L1951.82 72.576 L1951.82 65.6895 Q1949.27 69.8214 1945.46 71.8063 Q1941.66 73.7508 1936.15 73.7508 Q1929.18 73.7508 1925.05 69.8619 Q1920.96 65.9325 1920.96 59.3701 Q1920.96 51.7138 1926.06 47.825 Q1931.2 43.9361 1941.37 43.9361 L1951.82 43.9361 L1951.82 43.2069 Q1951.82 38.0623 1948.42 35.2672 Q1945.06 32.4315 1938.94 32.4315 Q1935.05 32.4315 1931.37 33.3632 Q1927.68 34.295 1924.28 36.1584 L1924.28 29.2718 Q1928.37 27.692 1932.22 26.9223 Q1936.07 26.1121 1939.71 26.1121 Q1949.56 26.1121 1954.42 31.2163 Q1959.28 36.3204 1959.28 46.6907 Z" fill="#000000" fill-rule="evenodd" fill-opacity="1" /><path clip-path="url(#clip650)" d="M2012.34 45.1919 L2012.34 72.576 L2004.89 72.576 L2004.89 45.4349 Q2004.89 38.994 2002.38 35.7938 Q1999.87 32.5936 1994.84 32.5936 Q1988.81 32.5936 1985.33 36.4419 Q1981.84 40.2903 1981.84 46.9338 L1981.84 72.576 L1974.35 72.576 L1974.35 27.2059 L1981.84 27.2059 L1981.84 34.2544 Q1984.51 30.163 1988.12 28.1376 Q1991.77 26.1121 1996.51 26.1121 Q2004.32 26.1121 2008.33 30.9732 Q2012.34 35.7938 2012.34 45.1919 Z" fill="#000000" fill-rule="evenodd" fill-opacity="1" /><path clip-path="url(#clip650)" d="M2074.2 49.7694 Q2065.17 49.7694 2061.68 51.8354 Q2058.2 53.9013 2058.2 58.8839 Q2058.2 62.8538 2060.79 65.2034 Q2063.43 67.5124 2067.92 67.5124 Q2074.12 67.5124 2077.85 63.1374 Q2081.61 58.7219 2081.61 51.4303 L2081.61 49.7694 L2074.2 49.7694 M2089.07 46.6907 L2089.07 72.576 L2081.61 72.576 L2081.61 65.6895 Q2079.06 69.8214 2075.26 71.8063 Q2071.45 73.7508 2065.94 73.7508 Q2058.97 73.7508 2054.84 69.8619 Q2050.75 65.9325 2050.75 59.3701 Q2050.75 51.7138 2055.85 47.825 Q2061 43.9361 2071.16 43.9361 L2081.61 43.9361 L2081.61 43.2069 Q2081.61 38.0623 2078.21 35.2672 Q2074.85 32.4315 2068.73 32.4315 Q2064.84 32.4315 2061.16 33.3632 Q2057.47 34.295 2054.07 36.1584 L2054.07 29.2718 Q2058.16 27.692 2062.01 26.9223 Q2065.86 26.1121 2069.5 26.1121 Q2079.35 26.1121 2084.21 31.2163 Q2089.07 36.3204 2089.07 46.6907 Z" fill="#000000" fill-rule="evenodd" fill-opacity="1" /><path clip-path="url(#clip650)" d="M2134.28 34.0924 L2134.28 9.54393 L2141.73 9.54393 L2141.73 72.576 L2134.28 72.576 L2134.28 65.7705 Q2131.93 69.8214 2128.32 71.8063 Q2124.76 73.7508 2119.73 73.7508 Q2111.51 73.7508 2106.33 67.1883 Q2101.18 60.6258 2101.18 49.9314 Q2101.18 39.2371 2106.33 32.6746 Q2111.51 26.1121 2119.73 26.1121 Q2124.76 26.1121 2128.32 28.0971 Q2131.93 30.0415 2134.28 34.0924 M2108.88 49.9314 Q2108.88 58.1548 2112.24 62.8538 Q2115.64 67.5124 2121.56 67.5124 Q2127.47 67.5124 2130.87 62.8538 Q2134.28 58.1548 2134.28 49.9314 Q2134.28 41.7081 2130.87 37.0496 Q2127.47 32.3505 2121.56 32.3505 Q2115.64 32.3505 2112.24 37.0496 Q2108.88 41.7081 2108.88 49.9314 Z" fill="#000000" fill-rule="evenodd" fill-opacity="1" /><path clip-path="url(#clip650)" d="M2151.74 27.2059 L2159.64 27.2059 L2173.81 65.2844 L2187.99 27.2059 L2195.89 27.2059 L2178.88 72.576 L2168.75 72.576 L2151.74 27.2059 Z" fill="#000000" fill-rule="evenodd" fill-opacity="1" /><path clip-path="url(#clip650)" d="M2226.8 49.7694 Q2217.77 49.7694 2214.28 51.8354 Q2210.8 53.9013 2210.8 58.8839 Q2210.8 62.8538 2213.39 65.2034 Q2216.02 67.5124 2220.52 67.5124 Q2226.72 67.5124 2230.45 63.1374 Q2234.21 58.7219 2234.21 51.4303 L2234.21 49.7694 L2226.8 49.7694 M2241.67 46.6907 L2241.67 72.576 L2234.21 72.576 L2234.21 65.6895 Q2231.66 69.8214 2227.85 71.8063 Q2224.04 73.7508 2218.54 73.7508 Q2211.57 73.7508 2207.44 69.8619 Q2203.34 65.9325 2203.34 59.3701 Q2203.34 51.7138 2208.45 47.825 Q2213.59 43.9361 2223.76 43.9361 L2234.21 43.9361 L2234.21 43.2069 Q2234.21 38.0623 2230.81 35.2672 Q2227.45 32.4315 2221.33 32.4315 Q2217.44 32.4315 2213.76 33.3632 Q2210.07 34.295 2206.67 36.1584 L2206.67 29.2718 Q2210.76 27.692 2214.61 26.9223 Q2218.45 26.1121 2222.1 26.1121 Q2231.94 26.1121 2236.81 31.2163 Q2241.67 36.3204 2241.67 46.6907 Z" fill="#000000" fill-rule="evenodd" fill-opacity="1" /><path clip-path="url(#clip650)" d="M2294.73 45.1919 L2294.73 72.576 L2287.28 72.576 L2287.28 45.4349 Q2287.28 38.994 2284.77 35.7938 Q2282.26 32.5936 2277.23 32.5936 Q2271.2 32.5936 2267.71 36.4419 Q2264.23 40.2903 2264.23 46.9338 L2264.23 72.576 L2256.74 72.576 L2256.74 27.2059 L2264.23 27.2059 L2264.23 34.2544 Q2266.9 30.163 2270.51 28.1376 Q2274.15 26.1121 2278.89 26.1121 Q2286.71 26.1121 2290.72 30.9732 Q2294.73 35.7938 2294.73 45.1919 Z" fill="#000000" fill-rule="evenodd" fill-opacity="1" /><path clip-path="url(#clip650)" d="M2342.25 28.9478 L2342.25 35.9153 Q2339.09 34.1734 2335.89 33.3227 Q2332.73 32.4315 2329.49 32.4315 Q2322.24 32.4315 2318.23 37.0496 Q2314.22 41.6271 2314.22 49.9314 Q2314.22 58.2358 2318.23 62.8538 Q2322.24 67.4314 2329.49 67.4314 Q2332.73 67.4314 2335.89 66.5807 Q2339.09 65.6895 2342.25 63.9476 L2342.25 70.8341 Q2339.13 72.2924 2335.77 73.0216 Q2332.45 73.7508 2328.68 73.7508 Q2318.43 73.7508 2312.4 67.3098 Q2306.36 60.8689 2306.36 49.9314 Q2306.36 38.832 2312.44 32.472 Q2318.55 26.1121 2329.17 26.1121 Q2332.61 26.1121 2335.89 26.8413 Q2339.17 27.5299 2342.25 28.9478 Z" fill="#000000" fill-rule="evenodd" fill-opacity="1" /><path clip-path="url(#clip650)" d="M2355.21 27.2059 L2362.67 27.2059 L2362.67 72.576 L2355.21 72.576 L2355.21 27.2059 M2355.21 9.54393 L2362.67 9.54393 L2362.67 18.9825 L2355.21 18.9825 L2355.21 9.54393 Z" fill="#000000" fill-rule="evenodd" fill-opacity="1" /><path clip-path="url(#clip650)" d="M2415.98 45.1919 L2415.98 72.576 L2408.52 72.576 L2408.52 45.4349 Q2408.52 38.994 2406.01 35.7938 Q2403.5 32.5936 2398.48 32.5936 Q2392.44 32.5936 2388.96 36.4419 Q2385.47 40.2903 2385.47 46.9338 L2385.47 72.576 L2377.98 72.576 L2377.98 27.2059 L2385.47 27.2059 L2385.47 34.2544 Q2388.15 30.163 2391.75 28.1376 Q2395.4 26.1121 2400.14 26.1121 Q2407.96 26.1121 2411.97 30.9732 Q2415.98 35.7938 2415.98 45.1919 Z" fill="#000000" fill-rule="evenodd" fill-opacity="1" /><path clip-path="url(#clip650)" d="M2460.7 49.3643 Q2460.7 41.2625 2457.34 36.8065 Q2454.01 32.3505 2447.98 32.3505 Q2441.98 32.3505 2438.62 36.8065 Q2435.3 41.2625 2435.3 49.3643 Q2435.3 57.4256 2438.62 61.8816 Q2441.98 66.3376 2447.98 66.3376 Q2454.01 66.3376 2457.34 61.8816 Q2460.7 57.4256 2460.7 49.3643 M2468.15 66.9452 Q2468.15 78.5308 2463.01 84.1616 Q2457.86 89.8329 2447.25 89.8329 Q2443.32 89.8329 2439.84 89.2252 Q2436.35 88.6581 2433.07 87.4428 L2433.07 80.1917 Q2436.35 81.9741 2439.55 82.8248 Q2442.75 83.6755 2446.07 83.6755 Q2453.41 83.6755 2457.05 79.8271 Q2460.7 76.0193 2460.7 68.282 L2460.7 64.5957 Q2458.39 68.6061 2454.78 70.5911 Q2451.18 72.576 2446.16 72.576 Q2437.81 72.576 2432.71 66.2161 Q2427.6 59.8562 2427.6 49.3643 Q2427.6 38.832 2432.71 32.472 Q2437.81 26.1121 2446.16 26.1121 Q2451.18 26.1121 2454.78 28.0971 Q2458.39 30.082 2460.7 34.0924 L2460.7 27.2059 L2468.15 27.2059 L2468.15 66.9452 Z" fill="#000000" fill-rule="evenodd" fill-opacity="1" /><path clip-path="url(#clip650)" d="M2532.85 9.54393 L2532.85 15.7418 L2525.72 15.7418 Q2521.71 15.7418 2520.13 17.3622 Q2518.59 18.9825 2518.59 23.1955 L2518.59 27.2059 L2530.86 27.2059 L2530.86 32.9987 L2518.59 32.9987 L2518.59 72.576 L2511.09 72.576 L2511.09 32.9987 L2503.96 32.9987 L2503.96 27.2059 L2511.09 27.2059 L2511.09 24.0462 Q2511.09 16.471 2514.62 13.0277 Q2518.14 9.54393 2525.8 9.54393 L2532.85 9.54393 Z" fill="#000000" fill-rule="evenodd" fill-opacity="1" /><path clip-path="url(#clip650)" d="M2565.37 34.1734 Q2564.12 33.4443 2562.62 33.1202 Q2561.16 32.7556 2559.38 32.7556 Q2553.06 32.7556 2549.66 36.8875 Q2546.29 40.9789 2546.29 48.6757 L2546.29 72.576 L2538.8 72.576 L2538.8 27.2059 L2546.29 27.2059 L2546.29 34.2544 Q2548.64 30.1225 2552.41 28.1376 Q2556.18 26.1121 2561.57 26.1121 Q2562.34 26.1121 2563.27 26.2337 Q2564.2 26.3147 2565.33 26.5172 L2565.37 34.1734 Z" fill="#000000" fill-rule="evenodd" fill-opacity="1" /><path clip-path="url(#clip650)" d="M2588.95 32.4315 Q2582.95 32.4315 2579.47 37.1306 Q2575.99 41.7891 2575.99 49.9314 Q2575.99 58.0738 2579.43 62.7728 Q2582.91 67.4314 2588.95 67.4314 Q2594.91 67.4314 2598.39 62.7323 Q2601.87 58.0333 2601.87 49.9314 Q2601.87 41.8701 2598.39 37.1711 Q2594.91 32.4315 2588.95 32.4315 M2588.95 26.1121 Q2598.67 26.1121 2604.22 32.4315 Q2609.77 38.7509 2609.77 49.9314 Q2609.77 61.0714 2604.22 67.4314 Q2598.67 73.7508 2588.95 73.7508 Q2579.19 73.7508 2573.64 67.4314 Q2568.13 61.0714 2568.13 49.9314 Q2568.13 38.7509 2573.64 32.4315 Q2579.19 26.1121 2588.95 26.1121 Z" fill="#000000" fill-rule="evenodd" fill-opacity="1" /><path clip-path="url(#clip650)" d="M2659.84 45.1919 L2659.84 72.576 L2652.39 72.576 L2652.39 45.4349 Q2652.39 38.994 2649.88 35.7938 Q2647.36 32.5936 2642.34 32.5936 Q2636.31 32.5936 2632.82 36.4419 Q2629.34 40.2903 2629.34 46.9338 L2629.34 72.576 L2621.84 72.576 L2621.84 27.2059 L2629.34 27.2059 L2629.34 34.2544 Q2632.01 30.163 2635.62 28.1376 Q2639.26 26.1121 2644 26.1121 Q2651.82 26.1121 2655.83 30.9732 Q2659.84 35.7938 2659.84 45.1919 Z" fill="#000000" fill-rule="evenodd" fill-opacity="1" /><path clip-path="url(#clip650)" d="M2682.08 14.324 L2682.08 27.2059 L2697.43 27.2059 L2697.43 32.9987 L2682.08 32.9987 L2682.08 57.6282 Q2682.08 63.1779 2683.58 64.7578 Q2685.12 66.3376 2689.78 66.3376 L2697.43 66.3376 L2697.43 72.576 L2689.78 72.576 Q2681.15 72.576 2677.87 69.3758 Q2674.59 66.1351 2674.59 57.6282 L2674.59 32.9987 L2669.12 32.9987 L2669.12 27.2059 L2674.59 27.2059 L2674.59 14.324 L2682.08 14.324 Z" fill="#000000" fill-rule="evenodd" fill-opacity="1" /><polyline clip-path="url(#clip652)" style="stroke:#009af9; stroke-linecap:round; stroke-linejoin:round; stroke-width:8; stroke-opacity:1; fill:none" points="323.65,172.947 334.955,259.876 346.259,344.447 357.564,426.522 368.868,505.977 380.173,582.7 391.478,656.594 402.782,727.577 414.087,795.582 425.391,860.56 436.696,922.475 448.001,981.31 459.305,1037.06 470.61,1089.75 481.914,1139.39 493.219,1186.04 504.524,1229.74 515.828,1270.56 527.133,1308.59 538.438,1343.91 549.742,1376.62 561.047,1406.82 572.351,1434.63 583.656,1460.14 594.961,1483.5 606.265,1504.8 617.57,1524.18 628.874,1541.76 640.179,1557.65 651.484,1571.98 662.788,1584.85 674.093,1596.39 685.397,1606.69 696.702,1615.87 708.007,1624.01 719.311,1631.22 730.616,1637.58 741.921,1643.18 753.225,1648.09 764.53,1652.38 775.834,1656.12 787.139,1659.37 798.444,1662.18 809.748,1664.61 821.053,1666.7 832.357,1668.5 843.662,1670.03 854.967,1671.34 866.271,1672.46 877.576,1673.4 888.88,1674.2 900.185,1674.87 911.49,1675.43 922.794,1675.91 934.099,1676.3 945.404,1676.63 956.708,1676.9 968.013,1677.12 979.317,1677.31 990.622,1677.46 1001.93,1677.59 1013.23,1677.69 1024.54,1677.77 1035.84,1677.84 1047.15,1677.89 1058.45,1677.94 1069.75,1677.97 1081.06,1678 1092.36,1678.02 1103.67,1678.04 1114.97,1678.05 1126.28,1678.06 1137.58,1678.07 1148.89,1678.08 1160.19,1678.09 1171.5,1678.09 1182.8,1678.09 1194.1,1678.1 1205.41,1678.1 1216.71,1678.1 1228.02,1678.1 1239.32,1678.1 1250.63,1678.1 1261.93,1678.1 1273.24,1678.1 1284.54,1678.1 1295.85,1678.1 1307.15,1678.1 1318.46,1678.1 1329.76,1678.1 1341.06,1678.1 1352.37,1678.1 1363.67,1678.1 1374.98,1678.1 1386.28,1678.1 1397.59,1678.1 1408.89,1678.1 1420.2,1678.1 1431.5,1678.1 1442.81,1678.1 1454.11,1678.1 1465.42,1678.1 1476.72,1678.1 1488.02,1678.1 1499.33,1678.1 1510.63,1678.1 1521.94,1678.1 1533.24,1678.1 1544.55,1678.1 1555.85,1678.1 1567.16,1678.1 1578.46,1678.1 1589.77,1678.1 1601.07,1678.1 1612.38,1678.1 1623.68,1678.1 1634.98,1678.1 1646.29,1678.1 1657.59,1678.1 1668.9,1678.1 1680.2,1678.1 1691.51,1678.1 1702.81,1678.1 1714.12,1678.1 1725.42,1678.1 1736.73,1678.1 1748.03,1678.1 1759.34,1678.1 1770.64,1678.1 1781.94,1678.1 1793.25,1678.1 1804.55,1678.1 1815.86,1678.1 1827.16,1678.1 1838.47,1678.1 1849.77,1678.1 1861.08,1678.1 1872.38,1678.1 1883.69,1678.1 1894.99,1678.1 1906.3,1678.1 1917.6,1678.1 1928.9,1678.1 1940.21,1678.1 1951.51,1678.1 1962.82,1678.1 1974.12,1678.1 1985.43,1678.1 1996.73,1678.1 2008.04,1678.1 2019.34,1678.1 2030.65,1678.1 2041.95,1678.1 2053.26,1678.1 2064.56,1678.1 2075.86,1678.1 2087.17,1678.1 2098.47,1678.1 2109.78,1678.1 2121.08,1678.1 2132.39,1678.1 2143.69,1678.1 2155,1678.1 2166.3,1678.1 2177.61,1678.1 2188.91,1678.1 2200.22,1678.1 2211.52,1678.1 2222.82,1678.1 2234.13,1678.1 2245.43,1678.1 2256.74,1678.1 2268.04,1678.1 2279.35,1678.1 2290.65,1678.1 2301.96,1678.1 2313.26,1678.1 2324.57,1678.1 2335.87,1678.1 2347.18,1678.1 2358.48,1678.1 2369.78,1678.1 2381.09,1678.1 2392.39,1678.1 2403.7,1678.1 2415,1678.1 2426.31,1678.1 2437.61,1678.1 2448.92,1678.1 2460.22,1678.1 2471.53,1678.1 2482.83,1678.1 2494.14,1678.1 2505.44,1678.1 2516.74,1678.1 2528.05,1678.1 2539.35,1678.1 2550.66,1678.1 2561.96,1678.1 2573.27,1678.1 "/>
<polyline clip-path="url(#clip652)" style="stroke:#e26f46; stroke-linecap:round; stroke-linejoin:round; stroke-width:8; stroke-opacity:1; fill:none" points="323.65,172.947 334.955,232.933 346.259,291.395 357.564,348.332 368.868,403.749 380.173,457.649 391.478,510.038 402.782,560.922 414.087,610.308 425.391,658.207 436.696,704.628 448.001,749.583 459.305,793.085 470.61,835.149 481.914,875.79 493.219,915.024 504.524,952.871 515.828,989.349 527.133,1024.48 538.438,1058.28 549.742,1090.78 561.047,1122.01 572.351,1151.97 583.656,1180.71 594.961,1208.24 606.265,1234.6 617.57,1259.81 628.874,1283.91 640.179,1306.91 651.484,1328.85 662.788,1349.76 674.093,1369.67 685.397,1388.62 696.702,1406.62 708.007,1423.71 719.311,1439.93 730.616,1455.3 741.921,1469.86 753.225,1483.62 764.53,1496.64 775.834,1508.92 787.139,1520.51 798.444,1531.44 809.748,1541.72 821.053,1551.39 832.357,1560.48 843.662,1569.02 854.967,1577.02 866.271,1584.52 877.576,1591.54 888.88,1598.1 900.185,1604.24 911.49,1609.96 922.794,1615.3 934.099,1620.27 945.404,1624.89 956.708,1629.19 968.013,1633.18 979.317,1636.89 990.622,1640.32 1001.93,1643.5 1013.23,1646.44 1024.54,1649.16 1035.84,1651.67 1047.15,1653.98 1058.45,1656.12 1069.75,1658.08 1081.06,1659.88 1092.36,1661.54 1103.67,1663.06 1114.97,1664.45 1126.28,1665.73 1137.58,1666.9 1148.89,1667.96 1160.19,1668.94 1171.5,1669.83 1182.8,1670.64 1194.1,1671.37 1205.41,1672.04 1216.71,1672.65 1228.02,1673.2 1239.32,1673.7 1250.63,1674.16 1261.93,1674.57 1273.24,1674.94 1284.54,1675.27 1295.85,1675.57 1307.15,1675.84 1318.46,1676.09 1329.76,1676.31 1341.06,1676.5 1352.37,1676.68 1363.67,1676.84 1374.98,1676.98 1386.28,1677.11 1397.59,1677.22 1408.89,1677.32 1420.2,1677.41 1431.5,1677.5 1442.81,1677.57 1454.11,1677.63 1465.42,1677.69 1476.72,1677.74 1488.02,1677.78 1499.33,1677.82 1510.63,1677.86 1521.94,1677.89 1533.24,1677.91 1544.55,1677.94 1555.85,1677.96 1567.16,1677.98 1578.46,1677.99 1589.77,1678.01 1601.07,1678.02 1612.38,1678.03 1623.68,1678.04 1634.98,1678.05 1646.29,1678.06 1657.59,1678.06 1668.9,1678.07 1680.2,1678.07 1691.51,1678.08 1702.81,1678.08 1714.12,1678.08 1725.42,1678.09 1736.73,1678.09 1748.03,1678.09 1759.34,1678.09 1770.64,1678.1 1781.94,1678.1 1793.25,1678.1 1804.55,1678.1 1815.86,1678.1 1827.16,1678.1 1838.47,1678.1 1849.77,1678.1 1861.08,1678.1 1872.38,1678.1 1883.69,1678.1 1894.99,1678.1 1906.3,1678.1 1917.6,1678.1 1928.9,1678.1 1940.21,1678.1 1951.51,1678.1 1962.82,1678.1 1974.12,1678.1 1985.43,1678.1 1996.73,1678.1 2008.04,1678.1 2019.34,1678.1 2030.65,1678.1 2041.95,1678.1 2053.26,1678.1 2064.56,1678.1 2075.86,1678.1 2087.17,1678.1 2098.47,1678.1 2109.78,1678.1 2121.08,1678.1 2132.39,1678.1 2143.69,1678.1 2155,1678.1 2166.3,1678.1 2177.61,1678.1 2188.91,1678.1 2200.22,1678.1 2211.52,1678.1 2222.82,1678.1 2234.13,1678.1 2245.43,1678.1 2256.74,1678.1 2268.04,1678.1 2279.35,1678.1 2290.65,1678.1 2301.96,1678.1 2313.26,1678.1 2324.57,1678.1 2335.87,1678.1 2347.18,1678.1 2358.48,1678.1 2369.78,1678.1 2381.09,1678.1 2392.39,1678.1 2403.7,1678.1 2415,1678.1 2426.31,1678.1 2437.61,1678.1 2448.92,1678.1 2460.22,1678.1 2471.53,1678.1 2482.83,1678.1 2494.14,1678.1 2505.44,1678.1 2516.74,1678.1 2528.05,1678.1 2539.35,1678.1 2550.66,1678.1 2561.96,1678.1 2573.27,1678.1 "/>
<polyline clip-path="url(#clip652)" style="stroke:#3da44d; stroke-linecap:round; stroke-linejoin:round; stroke-width:8; stroke-opacity:1; fill:none" points="323.65,172.947 334.955,217.749 346.259,261.434 357.564,304.025 368.868,345.545 380.173,386.014 391.478,425.456 402.782,463.889 414.087,501.337 425.391,537.818 436.696,573.353 448.001,607.961 459.305,641.661 470.61,674.474 481.914,706.416 493.219,737.507 504.524,767.764 515.828,797.206 527.133,825.849 538.438,853.71 549.742,880.808 561.047,907.157 572.351,932.774 583.656,957.676 594.961,981.877 606.265,1005.39 617.57,1028.24 628.874,1050.44 640.179,1071.99 651.484,1092.92 662.788,1113.24 674.093,1132.96 685.397,1152.1 696.702,1170.67 708.007,1188.68 719.311,1206.16 730.616,1223.1 741.921,1239.52 753.225,1255.44 764.53,1270.87 775.834,1285.82 787.139,1300.3 798.444,1314.32 809.748,1327.9 821.053,1341.04 832.357,1353.76 843.662,1366.07 854.967,1377.98 866.271,1389.5 877.576,1400.64 888.88,1411.4 900.185,1421.81 911.49,1431.87 922.794,1441.58 934.099,1450.96 945.404,1460.03 956.708,1468.77 968.013,1477.22 979.317,1485.36 990.622,1493.22 1001.93,1500.8 1013.23,1508.11 1024.54,1515.16 1035.84,1521.95 1047.15,1528.5 1058.45,1534.8 1069.75,1540.87 1081.06,1546.72 1092.36,1552.35 1103.67,1557.76 1114.97,1562.97 1126.28,1567.98 1137.58,1572.8 1148.89,1577.43 1160.19,1581.89 1171.5,1586.16 1182.8,1590.27 1194.1,1594.22 1205.41,1598.01 1216.71,1601.65 1228.02,1605.14 1239.32,1608.49 1250.63,1611.7 1261.93,1614.78 1273.24,1617.73 1284.54,1620.56 1295.85,1623.27 1307.15,1625.87 1318.46,1628.35 1329.76,1630.73 1341.06,1633.01 1352.37,1635.19 1363.67,1637.27 1374.98,1639.27 1386.28,1641.17 1397.59,1642.99 1408.89,1644.73 1420.2,1646.4 1431.5,1647.98 1442.81,1649.5 1454.11,1650.95 1465.42,1652.33 1476.72,1653.64 1488.02,1654.9 1499.33,1656.09 1510.63,1657.23 1521.94,1658.32 1533.24,1659.36 1544.55,1660.34 1555.85,1661.28 1567.16,1662.17 1578.46,1663.02 1589.77,1663.83 1601.07,1664.6 1612.38,1665.33 1623.68,1666.03 1634.98,1666.69 1646.29,1667.31 1657.59,1667.91 1668.9,1668.47 1680.2,1669.01 1691.51,1669.52 1702.81,1670 1714.12,1670.46 1725.42,1670.89 1736.73,1671.3 1748.03,1671.69 1759.34,1672.06 1770.64,1672.41 1781.94,1672.74 1793.25,1673.05 1804.55,1673.35 1815.86,1673.63 1827.16,1673.89 1838.47,1674.14 1849.77,1674.38 1861.08,1674.6 1872.38,1674.81 1883.69,1675.01 1894.99,1675.2 1906.3,1675.37 1917.6,1675.54 1928.9,1675.7 1940.21,1675.85 1951.51,1675.99 1962.82,1676.12 1974.12,1676.24 1985.43,1676.36 1996.73,1676.47 2008.04,1676.57 2019.34,1676.67 2030.65,1676.76 2041.95,1676.85 2053.26,1676.93 2064.56,1677 2075.86,1677.08 2087.17,1677.14 2098.47,1677.21 2109.78,1677.27 2121.08,1677.32 2132.39,1677.37 2143.69,1677.42 2155,1677.47 2166.3,1677.51 2177.61,1677.55 2188.91,1677.59 2200.22,1677.62 2211.52,1677.66 2222.82,1677.69 2234.13,1677.71 2245.43,1677.74 2256.74,1677.77 2268.04,1677.79 2279.35,1677.81 2290.65,1677.83 2301.96,1677.85 2313.26,1677.87 2324.57,1677.89 2335.87,1677.9 2347.18,1677.92 2358.48,1677.93 2369.78,1677.94 2381.09,1677.95 2392.39,1677.96 2403.7,1677.97 2415,1677.98 2426.31,1677.99 2437.61,1678 2448.92,1678.01 2460.22,1678.02 2471.53,1678.02 2482.83,1678.03 2494.14,1678.03 2505.44,1678.04 2516.74,1678.04 2528.05,1678.05 2539.35,1678.05 2550.66,1678.06 2561.96,1678.06 2573.27,1678.06 "/>
<polyline clip-path="url(#clip652)" style="stroke:#c271d2; stroke-linecap:round; stroke-linejoin:round; stroke-width:8; stroke-opacity:1; fill:none" points="323.65,172.947 334.955,211.919 346.259,249.924 357.564,286.985 368.868,323.124 380.173,358.365 391.478,392.728 402.782,426.235 414.087,458.907 425.391,490.764 436.696,521.826 448.001,552.111 459.305,581.639 470.61,610.429 481.914,638.497 493.219,665.862 504.524,692.541 515.828,718.55 527.133,743.905 538.438,768.623 549.742,792.718 561.047,816.207 572.351,839.103 583.656,861.421 594.961,883.175 606.265,904.379 617.57,925.046 628.874,945.19 640.179,964.822 651.484,983.956 662.788,1002.6 674.093,1020.78 685.397,1038.49 696.702,1055.74 708.007,1072.56 719.311,1088.95 730.616,1104.92 741.921,1120.48 753.225,1135.64 764.53,1150.41 775.834,1164.8 787.139,1178.82 798.444,1192.48 809.748,1205.78 821.053,1218.75 832.357,1231.37 843.662,1243.67 854.967,1255.65 866.271,1267.32 877.576,1278.69 888.88,1289.76 900.185,1300.54 911.49,1311.04 922.794,1321.26 934.099,1331.22 945.404,1340.91 956.708,1350.35 968.013,1359.55 979.317,1368.5 990.622,1377.21 1001.93,1385.69 1013.23,1393.95 1024.54,1401.99 1035.84,1409.82 1047.15,1417.43 1058.45,1424.85 1069.75,1432.07 1081.06,1439.09 1092.36,1445.93 1103.67,1452.58 1114.97,1459.05 1126.28,1465.35 1137.58,1471.48 1148.89,1477.45 1160.19,1483.25 1171.5,1488.89 1182.8,1494.39 1194.1,1499.73 1205.41,1504.93 1216.71,1509.98 1228.02,1514.9 1239.32,1519.68 1250.63,1524.34 1261.93,1528.86 1273.24,1533.26 1284.54,1537.54 1295.85,1541.7 1307.15,1545.74 1318.46,1549.67 1329.76,1553.5 1341.06,1557.21 1352.37,1560.83 1363.67,1564.34 1374.98,1567.75 1386.28,1571.07 1397.59,1574.29 1408.89,1577.43 1420.2,1580.47 1431.5,1583.43 1442.81,1586.31 1454.11,1589.1 1465.42,1591.82 1476.72,1594.45 1488.02,1597.01 1499.33,1599.5 1510.63,1601.92 1521.94,1604.27 1533.24,1606.55 1544.55,1608.76 1555.85,1610.91 1567.16,1613 1578.46,1615.02 1589.77,1616.99 1601.07,1618.9 1612.38,1620.76 1623.68,1622.56 1634.98,1624.3 1646.29,1626 1657.59,1627.65 1668.9,1629.24 1680.2,1630.79 1691.51,1632.3 1702.81,1633.76 1714.12,1635.17 1725.42,1636.55 1736.73,1637.88 1748.03,1639.17 1759.34,1640.43 1770.64,1641.64 1781.94,1642.82 1793.25,1643.96 1804.55,1645.07 1815.86,1646.15 1827.16,1647.19 1838.47,1648.2 1849.77,1649.18 1861.08,1650.13 1872.38,1651.05 1883.69,1651.94 1894.99,1652.81 1906.3,1653.64 1917.6,1654.46 1928.9,1655.24 1940.21,1656.01 1951.51,1656.74 1962.82,1657.46 1974.12,1658.15 1985.43,1658.82 1996.73,1659.47 2008.04,1660.1 2019.34,1660.71 2030.65,1661.3 2041.95,1661.87 2053.26,1662.42 2064.56,1662.96 2075.86,1663.48 2087.17,1663.98 2098.47,1664.46 2109.78,1664.93 2121.08,1665.39 2132.39,1665.83 2143.69,1666.25 2155,1666.67 2166.3,1667.06 2177.61,1667.45 2188.91,1667.82 2200.22,1668.18 2211.52,1668.53 2222.82,1668.87 2234.13,1669.19 2245.43,1669.51 2256.74,1669.81 2268.04,1670.11 2279.35,1670.39 2290.65,1670.67 2301.96,1670.93 2313.26,1671.19 2324.57,1671.44 2335.87,1671.68 2347.18,1671.91 2358.48,1672.13 2369.78,1672.35 2381.09,1672.56 2392.39,1672.76 2403.7,1672.95 2415,1673.14 2426.31,1673.32 2437.61,1673.5 2448.92,1673.67 2460.22,1673.83 2471.53,1673.99 2482.83,1674.14 2494.14,1674.29 2505.44,1674.43 2516.74,1674.57 2528.05,1674.7 2539.35,1674.83 2550.66,1674.95 2561.96,1675.07 2573.27,1675.18 "/>
<polyline clip-path="url(#clip652)" style="stroke:#ac8d18; stroke-linecap:round; stroke-linejoin:round; stroke-width:12; stroke-opacity:1; fill:none" points="323.65,172.947 334.955,210.294 346.259,246.714 357.564,282.23 368.868,316.866 380.173,350.642 391.478,383.579 402.782,415.7 414.087,447.024 425.391,477.57 436.696,507.358 448.001,536.408 459.305,564.736 470.61,592.362 481.914,619.302 493.219,645.573 504.524,671.193 515.828,696.177 527.133,720.541 538.438,744.301 549.742,767.471 561.047,790.066 572.351,812.101 583.656,833.589 594.961,854.543 606.265,874.978 617.57,894.906 628.874,914.339 640.179,933.29 651.484,951.771 662.788,969.793 674.093,987.368 685.397,1004.51 696.702,1021.22 708.007,1037.52 719.311,1053.41 730.616,1068.91 741.921,1084.03 753.225,1098.77 764.53,1113.15 775.834,1127.16 787.139,1140.83 798.444,1154.16 809.748,1167.17 821.053,1179.84 832.357,1192.21 843.662,1204.26 854.967,1216.02 866.271,1227.49 877.576,1238.67 888.88,1249.57 900.185,1260.2 911.49,1270.57 922.794,1280.68 934.099,1290.55 945.404,1300.16 956.708,1309.54 968.013,1318.68 979.317,1327.6 990.622,1336.3 1001.93,1344.78 1013.23,1353.05 1024.54,1361.12 1035.84,1368.98 1047.15,1376.65 1058.45,1384.13 1069.75,1391.43 1081.06,1398.54 1092.36,1405.48 1103.67,1412.24 1114.97,1418.84 1126.28,1425.27 1137.58,1431.54 1148.89,1437.66 1160.19,1443.63 1171.5,1449.45 1182.8,1455.12 1194.1,1460.65 1205.41,1466.05 1216.71,1471.31 1228.02,1476.44 1239.32,1481.44 1250.63,1486.32 1261.93,1491.08 1273.24,1495.72 1284.54,1500.25 1295.85,1504.66 1307.15,1508.97 1318.46,1513.16 1329.76,1517.25 1341.06,1521.25 1352.37,1525.14 1363.67,1528.93 1374.98,1532.63 1386.28,1536.24 1397.59,1539.76 1408.89,1543.2 1420.2,1546.54 1431.5,1549.81 1442.81,1552.99 1454.11,1556.1 1465.42,1559.12 1476.72,1562.08 1488.02,1564.95 1499.33,1567.76 1510.63,1570.5 1521.94,1573.17 1533.24,1575.77 1544.55,1578.31 1555.85,1580.79 1567.16,1583.2 1578.46,1585.56 1589.77,1587.85 1601.07,1590.09 1612.38,1592.28 1623.68,1594.41 1634.98,1596.48 1646.29,1598.51 1657.59,1600.48 1668.9,1602.41 1680.2,1604.29 1691.51,1606.12 1702.81,1607.91 1714.12,1609.65 1725.42,1611.35 1736.73,1613 1748.03,1614.62 1759.34,1616.19 1770.64,1617.73 1781.94,1619.23 1793.25,1620.69 1804.55,1622.11 1815.86,1623.5 1827.16,1624.86 1838.47,1626.18 1849.77,1627.47 1861.08,1628.72 1872.38,1629.95 1883.69,1631.14 1894.99,1632.31 1906.3,1633.45 1917.6,1634.55 1928.9,1635.63 1940.21,1636.69 1951.51,1637.72 1962.82,1638.72 1974.12,1639.69 1985.43,1640.65 1996.73,1641.58 2008.04,1642.48 2019.34,1643.37 2030.65,1644.23 2041.95,1645.07 2053.26,1645.89 2064.56,1646.69 2075.86,1647.47 2087.17,1648.23 2098.47,1648.97 2109.78,1649.69 2121.08,1650.4 2132.39,1651.09 2143.69,1651.76 2155,1652.41 2166.3,1653.05 2177.61,1653.67 2188.91,1654.28 2200.22,1654.87 2211.52,1655.44 2222.82,1656.01 2234.13,1656.55 2245.43,1657.09 2256.74,1657.61 2268.04,1658.12 2279.35,1658.61 2290.65,1659.1 2301.96,1659.57 2313.26,1660.03 2324.57,1660.48 2335.87,1660.92 2347.18,1661.34 2358.48,1661.76 2369.78,1662.16 2381.09,1662.56 2392.39,1662.94 2403.7,1663.32 2415,1663.69 2426.31,1664.05 2437.61,1664.39 2448.92,1664.73 2460.22,1665.07 2471.53,1665.39 2482.83,1665.71 2494.14,1666.01 2505.44,1666.31 2516.74,1666.61 2528.05,1666.89 2539.35,1667.17 2550.66,1667.44 2561.96,1667.7 2573.27,1667.96 "/>
<path clip-path="url(#clip650)" d="M2033.09 492.014 L2561.27 492.014 L2561.27 180.974 L2033.09 180.974  Z" fill="#ffffff" fill-rule="evenodd" fill-opacity="1"/>
<polyline clip-path="url(#clip650)" style="stroke:#000000; stroke-linecap:round; stroke-linejoin:round; stroke-width:4; stroke-opacity:1; fill:none" points="2033.09,492.014 2561.27,492.014 2561.27,180.974 2033.09,180.974 2033.09,492.014 "/>
<polyline clip-path="url(#clip650)" style="stroke:#009af9; stroke-linecap:round; stroke-linejoin:round; stroke-width:8; stroke-opacity:1; fill:none" points="2059.58,232.814 2218.56,232.814 "/>
<path clip-path="url(#clip650)" d="M2252.46 216.808 L2252.46 224.169 L2261.23 224.169 L2261.23 227.479 L2252.46 227.479 L2252.46 241.553 Q2252.46 244.724 2253.32 245.627 Q2254.2 246.53 2256.86 246.53 L2261.23 246.53 L2261.23 250.094 L2256.86 250.094 Q2251.93 250.094 2250.05 248.266 Q2248.18 246.414 2248.18 241.553 L2248.18 227.479 L2245.05 227.479 L2245.05 224.169 L2248.18 224.169 L2248.18 216.808 L2252.46 216.808 Z" fill="#000000" fill-rule="evenodd" fill-opacity="1" /><path clip-path="url(#clip650)" d="M2284.66 221.229 L2276.35 225.719 L2284.66 230.233 L2283.32 232.502 L2275.54 227.803 L2275.54 236.53 L2272.9 236.53 L2272.9 227.803 L2265.12 232.502 L2263.78 230.233 L2272.09 225.719 L2263.78 221.229 L2265.12 218.937 L2272.9 223.636 L2272.9 214.909 L2275.54 214.909 L2275.54 223.636 L2283.32 218.937 L2284.66 221.229 Z" fill="#000000" fill-rule="evenodd" fill-opacity="1" /><path clip-path="url(#clip650)" d="M2306.16 228.567 L2335.84 228.567 L2335.84 232.456 L2306.16 232.456 L2306.16 228.567 M2306.16 238.011 L2335.84 238.011 L2335.84 241.946 L2306.16 241.946 L2306.16 238.011 Z" fill="#000000" fill-rule="evenodd" fill-opacity="1" /><path clip-path="url(#clip650)" d="M2371 218.613 Q2367.39 218.613 2365.56 222.178 Q2363.76 225.719 2363.76 232.849 Q2363.76 239.956 2365.56 243.52 Q2367.39 247.062 2371 247.062 Q2374.64 247.062 2376.44 243.52 Q2378.27 239.956 2378.27 232.849 Q2378.27 225.719 2376.44 222.178 Q2374.64 218.613 2371 218.613 M2371 214.909 Q2376.81 214.909 2379.87 219.516 Q2382.95 224.099 2382.95 232.849 Q2382.95 241.576 2379.87 246.182 Q2376.81 250.766 2371 250.766 Q2365.19 250.766 2362.11 246.182 Q2359.06 241.576 2359.06 232.849 Q2359.06 224.099 2362.11 219.516 Q2365.19 214.909 2371 214.909 Z" fill="#000000" fill-rule="evenodd" fill-opacity="1" /><path clip-path="url(#clip650)" d="M2391.16 244.215 L2396.05 244.215 L2396.05 250.094 L2391.16 250.094 L2391.16 244.215 Z" fill="#000000" fill-rule="evenodd" fill-opacity="1" /><path clip-path="url(#clip650)" d="M2407.04 246.159 L2414.68 246.159 L2414.68 219.794 L2406.37 221.46 L2406.37 217.201 L2414.64 215.534 L2419.31 215.534 L2419.31 246.159 L2426.95 246.159 L2426.95 250.094 L2407.04 250.094 L2407.04 246.159 Z" fill="#000000" fill-rule="evenodd" fill-opacity="1" /><polyline clip-path="url(#clip650)" style="stroke:#e26f46; stroke-linecap:round; stroke-linejoin:round; stroke-width:8; stroke-opacity:1; fill:none" points="2059.58,284.654 2218.56,284.654 "/>
<path clip-path="url(#clip650)" d="M2252.46 268.648 L2252.46 276.009 L2261.23 276.009 L2261.23 279.319 L2252.46 279.319 L2252.46 293.393 Q2252.46 296.564 2253.32 297.467 Q2254.2 298.37 2256.86 298.37 L2261.23 298.37 L2261.23 301.934 L2256.86 301.934 Q2251.93 301.934 2250.05 300.106 Q2248.18 298.254 2248.18 293.393 L2248.18 279.319 L2245.05 279.319 L2245.05 276.009 L2248.18 276.009 L2248.18 268.648 L2252.46 268.648 Z" fill="#000000" fill-rule="evenodd" fill-opacity="1" /><path clip-path="url(#clip650)" d="M2284.66 273.069 L2276.35 277.559 L2284.66 282.073 L2283.32 284.342 L2275.54 279.643 L2275.54 288.37 L2272.9 288.37 L2272.9 279.643 L2265.12 284.342 L2263.78 282.073 L2272.09 277.559 L2263.78 273.069 L2265.12 270.777 L2272.9 275.476 L2272.9 266.749 L2275.54 266.749 L2275.54 275.476 L2283.32 270.777 L2284.66 273.069 Z" fill="#000000" fill-rule="evenodd" fill-opacity="1" /><path clip-path="url(#clip650)" d="M2306.16 280.407 L2335.84 280.407 L2335.84 284.296 L2306.16 284.296 L2306.16 280.407 M2306.16 289.851 L2335.84 289.851 L2335.84 293.786 L2306.16 293.786 L2306.16 289.851 Z" fill="#000000" fill-rule="evenodd" fill-opacity="1" /><path clip-path="url(#clip650)" d="M2371 270.453 Q2367.39 270.453 2365.56 274.018 Q2363.76 277.559 2363.76 284.689 Q2363.76 291.796 2365.56 295.36 Q2367.39 298.902 2371 298.902 Q2374.64 298.902 2376.44 295.36 Q2378.27 291.796 2378.27 284.689 Q2378.27 277.559 2376.44 274.018 Q2374.64 270.453 2371 270.453 M2371 266.749 Q2376.81 266.749 2379.87 271.356 Q2382.95 275.939 2382.95 284.689 Q2382.95 293.416 2379.87 298.022 Q2376.81 302.606 2371 302.606 Q2365.19 302.606 2362.11 298.022 Q2359.06 293.416 2359.06 284.689 Q2359.06 275.939 2362.11 271.356 Q2365.19 266.749 2371 266.749 Z" fill="#000000" fill-rule="evenodd" fill-opacity="1" /><path clip-path="url(#clip650)" d="M2391.16 296.055 L2396.05 296.055 L2396.05 301.934 L2391.16 301.934 L2391.16 296.055 Z" fill="#000000" fill-rule="evenodd" fill-opacity="1" /><path clip-path="url(#clip650)" d="M2420.4 283.3 Q2423.76 284.018 2425.63 286.286 Q2427.53 288.555 2427.53 291.888 Q2427.53 297.004 2424.01 299.805 Q2420.49 302.606 2414.01 302.606 Q2411.83 302.606 2409.52 302.166 Q2407.23 301.749 2404.77 300.893 L2404.77 296.379 Q2406.72 297.513 2409.03 298.092 Q2411.35 298.67 2413.87 298.67 Q2418.27 298.67 2420.56 296.934 Q2422.88 295.198 2422.88 291.888 Q2422.88 288.833 2420.72 287.12 Q2418.59 285.384 2414.77 285.384 L2410.75 285.384 L2410.75 281.541 L2414.96 281.541 Q2418.41 281.541 2420.24 280.175 Q2422.07 278.786 2422.07 276.194 Q2422.07 273.532 2420.17 272.12 Q2418.29 270.685 2414.77 270.685 Q2412.85 270.685 2410.65 271.101 Q2408.46 271.518 2405.82 272.397 L2405.82 268.231 Q2408.48 267.49 2410.79 267.12 Q2413.13 266.749 2415.19 266.749 Q2420.52 266.749 2423.62 269.18 Q2426.72 271.587 2426.72 275.708 Q2426.72 278.578 2425.08 280.569 Q2423.43 282.536 2420.4 283.3 Z" fill="#000000" fill-rule="evenodd" fill-opacity="1" /><polyline clip-path="url(#clip650)" style="stroke:#3da44d; stroke-linecap:round; stroke-linejoin:round; stroke-width:8; stroke-opacity:1; fill:none" points="2059.58,336.494 2218.56,336.494 "/>
<path clip-path="url(#clip650)" d="M2252.46 320.488 L2252.46 327.849 L2261.23 327.849 L2261.23 331.159 L2252.46 331.159 L2252.46 345.233 Q2252.46 348.404 2253.32 349.307 Q2254.2 350.21 2256.86 350.21 L2261.23 350.21 L2261.23 353.774 L2256.86 353.774 Q2251.93 353.774 2250.05 351.946 Q2248.18 350.094 2248.18 345.233 L2248.18 331.159 L2245.05 331.159 L2245.05 327.849 L2248.18 327.849 L2248.18 320.488 L2252.46 320.488 Z" fill="#000000" fill-rule="evenodd" fill-opacity="1" /><path clip-path="url(#clip650)" d="M2284.66 324.909 L2276.35 329.399 L2284.66 333.913 L2283.32 336.182 L2275.54 331.483 L2275.54 340.21 L2272.9 340.21 L2272.9 331.483 L2265.12 336.182 L2263.78 333.913 L2272.09 329.399 L2263.78 324.909 L2265.12 322.617 L2272.9 327.316 L2272.9 318.589 L2275.54 318.589 L2275.54 327.316 L2283.32 322.617 L2284.66 324.909 Z" fill="#000000" fill-rule="evenodd" fill-opacity="1" /><path clip-path="url(#clip650)" d="M2306.16 332.247 L2335.84 332.247 L2335.84 336.136 L2306.16 336.136 L2306.16 332.247 M2306.16 341.691 L2335.84 341.691 L2335.84 345.626 L2306.16 345.626 L2306.16 341.691 Z" fill="#000000" fill-rule="evenodd" fill-opacity="1" /><path clip-path="url(#clip650)" d="M2361.81 349.839 L2369.45 349.839 L2369.45 323.474 L2361.14 325.14 L2361.14 320.881 L2369.4 319.214 L2374.08 319.214 L2374.08 349.839 L2381.72 349.839 L2381.72 353.774 L2361.81 353.774 L2361.81 349.839 Z" fill="#000000" fill-rule="evenodd" fill-opacity="1" /><path clip-path="url(#clip650)" d="M2391.16 347.895 L2396.05 347.895 L2396.05 353.774 L2391.16 353.774 L2391.16 347.895 Z" fill="#000000" fill-rule="evenodd" fill-opacity="1" /><path clip-path="url(#clip650)" d="M2416.23 322.293 Q2412.62 322.293 2410.79 325.858 Q2408.99 329.399 2408.99 336.529 Q2408.99 343.636 2410.79 347.2 Q2412.62 350.742 2416.23 350.742 Q2419.87 350.742 2421.67 347.2 Q2423.5 343.636 2423.5 336.529 Q2423.5 329.399 2421.67 325.858 Q2419.87 322.293 2416.23 322.293 M2416.23 318.589 Q2422.04 318.589 2425.1 323.196 Q2428.18 327.779 2428.18 336.529 Q2428.18 345.256 2425.1 349.862 Q2422.04 354.446 2416.23 354.446 Q2410.42 354.446 2407.34 349.862 Q2404.29 345.256 2404.29 336.529 Q2404.29 327.779 2407.34 323.196 Q2410.42 318.589 2416.23 318.589 Z" fill="#000000" fill-rule="evenodd" fill-opacity="1" /><polyline clip-path="url(#clip650)" style="stroke:#c271d2; stroke-linecap:round; stroke-linejoin:round; stroke-width:8; stroke-opacity:1; fill:none" points="2059.58,388.334 2218.56,388.334 "/>
<path clip-path="url(#clip650)" d="M2252.46 372.328 L2252.46 379.689 L2261.23 379.689 L2261.23 382.999 L2252.46 382.999 L2252.46 397.073 Q2252.46 400.244 2253.32 401.147 Q2254.2 402.05 2256.86 402.05 L2261.23 402.05 L2261.23 405.614 L2256.86 405.614 Q2251.93 405.614 2250.05 403.786 Q2248.18 401.934 2248.18 397.073 L2248.18 382.999 L2245.05 382.999 L2245.05 379.689 L2248.18 379.689 L2248.18 372.328 L2252.46 372.328 Z" fill="#000000" fill-rule="evenodd" fill-opacity="1" /><path clip-path="url(#clip650)" d="M2284.66 376.749 L2276.35 381.239 L2284.66 385.753 L2283.32 388.022 L2275.54 383.323 L2275.54 392.05 L2272.9 392.05 L2272.9 383.323 L2265.12 388.022 L2263.78 385.753 L2272.09 381.239 L2263.78 376.749 L2265.12 374.457 L2272.9 379.156 L2272.9 370.429 L2275.54 370.429 L2275.54 379.156 L2283.32 374.457 L2284.66 376.749 Z" fill="#000000" fill-rule="evenodd" fill-opacity="1" /><path clip-path="url(#clip650)" d="M2306.16 384.087 L2335.84 384.087 L2335.84 387.976 L2306.16 387.976 L2306.16 384.087 M2306.16 393.531 L2335.84 393.531 L2335.84 397.466 L2306.16 397.466 L2306.16 393.531 Z" fill="#000000" fill-rule="evenodd" fill-opacity="1" /><path clip-path="url(#clip650)" d="M2375.17 386.98 Q2378.52 387.698 2380.4 389.966 Q2382.3 392.235 2382.3 395.568 Q2382.3 400.684 2378.78 403.485 Q2375.26 406.286 2368.78 406.286 Q2366.6 406.286 2364.29 405.846 Q2362 405.429 2359.54 404.573 L2359.54 400.059 Q2361.49 401.193 2363.8 401.772 Q2366.12 402.35 2368.64 402.35 Q2373.04 402.35 2375.33 400.614 Q2377.65 398.878 2377.65 395.568 Q2377.65 392.513 2375.49 390.8 Q2373.36 389.064 2369.54 389.064 L2365.52 389.064 L2365.52 385.221 L2369.73 385.221 Q2373.18 385.221 2375.01 383.855 Q2376.83 382.466 2376.83 379.874 Q2376.83 377.212 2374.94 375.8 Q2373.06 374.365 2369.54 374.365 Q2367.62 374.365 2365.42 374.781 Q2363.22 375.198 2360.59 376.077 L2360.59 371.911 Q2363.25 371.17 2365.56 370.8 Q2367.9 370.429 2369.96 370.429 Q2375.28 370.429 2378.39 372.86 Q2381.49 375.267 2381.49 379.388 Q2381.49 382.258 2379.84 384.249 Q2378.2 386.216 2375.17 386.98 Z" fill="#000000" fill-rule="evenodd" fill-opacity="1" /><path clip-path="url(#clip650)" d="M2391.16 399.735 L2396.05 399.735 L2396.05 405.614 L2391.16 405.614 L2391.16 399.735 Z" fill="#000000" fill-rule="evenodd" fill-opacity="1" /><path clip-path="url(#clip650)" d="M2416.23 374.133 Q2412.62 374.133 2410.79 377.698 Q2408.99 381.239 2408.99 388.369 Q2408.99 395.476 2410.79 399.04 Q2412.62 402.582 2416.23 402.582 Q2419.87 402.582 2421.67 399.04 Q2423.5 395.476 2423.5 388.369 Q2423.5 381.239 2421.67 377.698 Q2419.87 374.133 2416.23 374.133 M2416.23 370.429 Q2422.04 370.429 2425.1 375.036 Q2428.18 379.619 2428.18 388.369 Q2428.18 397.096 2425.1 401.702 Q2422.04 406.286 2416.23 406.286 Q2410.42 406.286 2407.34 401.702 Q2404.29 397.096 2404.29 388.369 Q2404.29 379.619 2407.34 375.036 Q2410.42 370.429 2416.23 370.429 Z" fill="#000000" fill-rule="evenodd" fill-opacity="1" /><polyline clip-path="url(#clip650)" style="stroke:#ac8d18; stroke-linecap:round; stroke-linejoin:round; stroke-width:12; stroke-opacity:1; fill:none" points="2059.58,440.174 2218.56,440.174 "/>
<path clip-path="url(#clip650)" d="M2263.48 432.292 L2263.48 436.32 Q2261.67 435.394 2259.73 434.931 Q2257.78 434.468 2255.7 434.468 Q2252.53 434.468 2250.93 435.441 Q2249.36 436.413 2249.36 438.357 Q2249.36 439.839 2250.49 440.695 Q2251.63 441.529 2255.05 442.292 L2256.51 442.616 Q2261.05 443.589 2262.95 445.371 Q2264.87 447.13 2264.87 450.302 Q2264.87 453.913 2262 456.019 Q2259.15 458.126 2254.15 458.126 Q2252.07 458.126 2249.8 457.709 Q2247.55 457.315 2245.05 456.505 L2245.05 452.107 Q2247.41 453.334 2249.71 453.959 Q2252 454.561 2254.24 454.561 Q2257.25 454.561 2258.87 453.542 Q2260.49 452.501 2260.49 450.626 Q2260.49 448.89 2259.31 447.964 Q2258.16 447.038 2254.2 446.181 L2252.72 445.834 Q2248.76 445.001 2247 443.288 Q2245.24 441.552 2245.24 438.542 Q2245.24 434.885 2247.83 432.894 Q2250.42 430.904 2255.19 430.904 Q2257.55 430.904 2259.64 431.251 Q2261.72 431.598 2263.48 432.292 Z" fill="#000000" fill-rule="evenodd" fill-opacity="1" /><path clip-path="url(#clip650)" d="M2275.86 424.168 L2275.86 431.529 L2284.64 431.529 L2284.64 434.839 L2275.86 434.839 L2275.86 448.913 Q2275.86 452.084 2276.72 452.987 Q2277.6 453.89 2280.26 453.89 L2284.64 453.89 L2284.64 457.454 L2280.26 457.454 Q2275.33 457.454 2273.46 455.626 Q2271.58 453.774 2271.58 448.913 L2271.58 434.839 L2268.46 434.839 L2268.46 431.529 L2271.58 431.529 L2271.58 424.168 L2275.86 424.168 Z" fill="#000000" fill-rule="evenodd" fill-opacity="1" /><path clip-path="url(#clip650)" d="M2312.41 443.427 L2312.41 445.51 L2292.83 445.51 Q2293.11 449.908 2295.47 452.223 Q2297.85 454.515 2302.09 454.515 Q2304.54 454.515 2306.84 453.913 Q2309.15 453.311 2311.42 452.107 L2311.42 456.135 Q2309.13 457.107 2306.72 457.616 Q2304.31 458.126 2301.84 458.126 Q2295.63 458.126 2292 454.515 Q2288.39 450.903 2288.39 444.746 Q2288.39 438.38 2291.81 434.654 Q2295.26 430.904 2301.09 430.904 Q2306.33 430.904 2309.36 434.283 Q2312.41 437.64 2312.41 443.427 M2308.15 442.177 Q2308.11 438.681 2306.19 436.598 Q2304.29 434.515 2301.14 434.515 Q2297.58 434.515 2295.42 436.529 Q2293.29 438.542 2292.97 442.2 L2308.15 442.177 Z" fill="#000000" fill-rule="evenodd" fill-opacity="1" /><path clip-path="url(#clip650)" d="M2331.19 444.422 Q2326.03 444.422 2324.03 445.603 Q2322.04 446.783 2322.04 449.63 Q2322.04 451.899 2323.53 453.241 Q2325.03 454.561 2327.6 454.561 Q2331.14 454.561 2333.27 452.061 Q2335.42 449.538 2335.42 445.371 L2335.42 444.422 L2331.19 444.422 M2339.68 442.663 L2339.68 457.454 L2335.42 457.454 L2335.42 453.519 Q2333.96 455.88 2331.79 457.015 Q2329.61 458.126 2326.46 458.126 Q2322.48 458.126 2320.12 455.903 Q2317.78 453.658 2317.78 449.908 Q2317.78 445.533 2320.7 443.311 Q2323.64 441.089 2329.45 441.089 L2335.42 441.089 L2335.42 440.672 Q2335.42 437.732 2333.48 436.135 Q2331.56 434.515 2328.06 434.515 Q2325.84 434.515 2323.73 435.047 Q2321.63 435.579 2319.68 436.644 L2319.68 432.709 Q2322.02 431.806 2324.22 431.367 Q2326.42 430.904 2328.5 430.904 Q2334.13 430.904 2336.9 433.82 Q2339.68 436.737 2339.68 442.663 Z" fill="#000000" fill-rule="evenodd" fill-opacity="1" /><path clip-path="url(#clip650)" d="M2365.52 435.464 L2365.52 421.436 L2369.77 421.436 L2369.77 457.454 L2365.52 457.454 L2365.52 453.565 Q2364.17 455.88 2362.11 457.015 Q2360.08 458.126 2357.21 458.126 Q2352.51 458.126 2349.54 454.376 Q2346.6 450.626 2346.6 444.515 Q2346.6 438.404 2349.54 434.654 Q2352.51 430.904 2357.21 430.904 Q2360.08 430.904 2362.11 432.038 Q2364.17 433.149 2365.52 435.464 M2351 444.515 Q2351 449.214 2352.92 451.899 Q2354.87 454.561 2358.25 454.561 Q2361.63 454.561 2363.57 451.899 Q2365.52 449.214 2365.52 444.515 Q2365.52 439.816 2363.57 437.154 Q2361.63 434.468 2358.25 434.468 Q2354.87 434.468 2352.92 437.154 Q2351 439.816 2351 444.515 Z" fill="#000000" fill-rule="evenodd" fill-opacity="1" /><path clip-path="url(#clip650)" d="M2389.33 459.862 Q2387.53 464.491 2385.82 465.903 Q2384.1 467.315 2381.23 467.315 L2377.83 467.315 L2377.83 463.751 L2380.33 463.751 Q2382.09 463.751 2383.06 462.917 Q2384.03 462.084 2385.21 458.982 L2385.98 457.038 L2375.49 431.529 L2380.01 431.529 L2388.11 451.806 L2396.21 431.529 L2400.72 431.529 L2389.33 459.862 Z" fill="#000000" fill-rule="evenodd" fill-opacity="1" /><path clip-path="url(#clip650)" d="M2438.2 432.292 L2438.2 436.32 Q2436.39 435.394 2434.45 434.931 Q2432.51 434.468 2430.42 434.468 Q2427.25 434.468 2425.65 435.441 Q2424.08 436.413 2424.08 438.357 Q2424.08 439.839 2425.21 440.695 Q2426.35 441.529 2429.77 442.292 L2431.23 442.616 Q2435.77 443.589 2437.67 445.371 Q2439.59 447.13 2439.59 450.302 Q2439.59 453.913 2436.72 456.019 Q2433.87 458.126 2428.87 458.126 Q2426.79 458.126 2424.52 457.709 Q2422.27 457.315 2419.77 456.505 L2419.77 452.107 Q2422.14 453.334 2424.43 453.959 Q2426.72 454.561 2428.96 454.561 Q2431.97 454.561 2433.59 453.542 Q2435.21 452.501 2435.21 450.626 Q2435.21 448.89 2434.03 447.964 Q2432.88 447.038 2428.92 446.181 L2427.44 445.834 Q2423.48 445.001 2421.72 443.288 Q2419.96 441.552 2419.96 438.542 Q2419.96 434.885 2422.55 432.894 Q2425.14 430.904 2429.91 430.904 Q2432.27 430.904 2434.36 431.251 Q2436.44 431.598 2438.2 432.292 Z" fill="#000000" fill-rule="evenodd" fill-opacity="1" /><path clip-path="url(#clip650)" d="M2450.58 424.168 L2450.58 431.529 L2459.36 431.529 L2459.36 434.839 L2450.58 434.839 L2450.58 448.913 Q2450.58 452.084 2451.44 452.987 Q2452.32 453.89 2454.98 453.89 L2459.36 453.89 L2459.36 457.454 L2454.98 457.454 Q2450.05 457.454 2448.18 455.626 Q2446.3 453.774 2446.3 448.913 L2446.3 434.839 L2443.18 434.839 L2443.18 431.529 L2446.3 431.529 L2446.3 424.168 L2450.58 424.168 Z" fill="#000000" fill-rule="evenodd" fill-opacity="1" /><path clip-path="url(#clip650)" d="M2476.74 444.422 Q2471.58 444.422 2469.59 445.603 Q2467.6 446.783 2467.6 449.63 Q2467.6 451.899 2469.08 453.241 Q2470.58 454.561 2473.15 454.561 Q2476.7 454.561 2478.83 452.061 Q2480.98 449.538 2480.98 445.371 L2480.98 444.422 L2476.74 444.422 M2485.24 442.663 L2485.24 457.454 L2480.98 457.454 L2480.98 453.519 Q2479.52 455.88 2477.34 457.015 Q2475.17 458.126 2472.02 458.126 Q2468.04 458.126 2465.68 455.903 Q2463.34 453.658 2463.34 449.908 Q2463.34 445.533 2466.26 443.311 Q2469.2 441.089 2475.01 441.089 L2480.98 441.089 L2480.98 440.672 Q2480.98 437.732 2479.03 436.135 Q2477.11 434.515 2473.62 434.515 Q2471.39 434.515 2469.29 435.047 Q2467.18 435.579 2465.24 436.644 L2465.24 432.709 Q2467.58 431.806 2469.77 431.367 Q2471.97 430.904 2474.06 430.904 Q2479.68 430.904 2482.46 433.82 Q2485.24 436.737 2485.24 442.663 Z" fill="#000000" fill-rule="evenodd" fill-opacity="1" /><path clip-path="url(#clip650)" d="M2498.22 424.168 L2498.22 431.529 L2507 431.529 L2507 434.839 L2498.22 434.839 L2498.22 448.913 Q2498.22 452.084 2499.08 452.987 Q2499.96 453.89 2502.62 453.89 L2507 453.89 L2507 457.454 L2502.62 457.454 Q2497.69 457.454 2495.82 455.626 Q2493.94 453.774 2493.94 448.913 L2493.94 434.839 L2490.82 434.839 L2490.82 431.529 L2493.94 431.529 L2493.94 424.168 L2498.22 424.168 Z" fill="#000000" fill-rule="evenodd" fill-opacity="1" /><path clip-path="url(#clip650)" d="M2534.77 443.427 L2534.77 445.51 L2515.19 445.51 Q2515.47 449.908 2517.83 452.223 Q2520.21 454.515 2524.45 454.515 Q2526.9 454.515 2529.2 453.913 Q2531.51 453.311 2533.78 452.107 L2533.78 456.135 Q2531.49 457.107 2529.08 457.616 Q2526.67 458.126 2524.2 458.126 Q2517.99 458.126 2514.36 454.515 Q2510.75 450.903 2510.75 444.746 Q2510.75 438.38 2514.17 434.654 Q2517.62 430.904 2523.45 430.904 Q2528.69 430.904 2531.72 434.283 Q2534.77 437.64 2534.77 443.427 M2530.51 442.177 Q2530.47 438.681 2528.55 436.598 Q2526.65 434.515 2523.5 434.515 Q2519.94 434.515 2517.78 436.529 Q2515.65 438.542 2515.33 442.2 L2530.51 442.177 Z" fill="#000000" fill-rule="evenodd" fill-opacity="1" /></svg>
