<?xml version="1.0" encoding="utf-8"?>
<svg xmlns="http://www.w3.org/2000/svg" xmlns:xlink="http://www.w3.org/1999/xlink" width="672" height="480" viewBox="0 0 2688 1920">
<defs>
  <clipPath id="clip260">
    <rect x="0" y="0" width="2688" height="1920"/>
  </clipPath>
</defs>
<path clip-path="url(#clip260)" d="M0 1920 L2688 1920 L2688 0 L0 0  Z" fill="#ffffff" fill-rule="evenodd" fill-opacity="1"/>
<defs>
  <clipPath id="clip261">
    <rect x="537" y="0" width="1883" height="1883"/>
  </clipPath>
</defs>
<defs>
  <clipPath id="clip262">
    <rect x="256" y="127" width="2386" height="1596"/>
  </clipPath>
</defs>
<path clip-path="url(#clip260)" d="M255.816 1734.12 L2640.76 1734.12 L2640.76 47.2441 L255.816 47.2441  Z" fill="#ffffff" fill-rule="evenodd" fill-opacity="1"/>
<defs>
  <clipPath id="clip263">
    <rect x="255" y="47" width="2386" height="1688"/>
  </clipPath>
</defs>
<polyline clip-path="url(#clip263)" style="stroke:#000000; stroke-linecap:round; stroke-linejoin:round; stroke-width:2; stroke-opacity:0.1; fill:none" points="323.315,1734.12 323.315,47.2441 "/>
<polyline clip-path="url(#clip263)" style="stroke:#000000; stroke-linecap:round; stroke-linejoin:round; stroke-width:2; stroke-opacity:0.1; fill:none" points="773.303,1734.12 773.303,47.2441 "/>
<polyline clip-path="url(#clip263)" style="stroke:#000000; stroke-linecap:round; stroke-linejoin:round; stroke-width:2; stroke-opacity:0.1; fill:none" points="1223.29,1734.12 1223.29,47.2441 "/>
<polyline clip-path="url(#clip263)" style="stroke:#000000; stroke-linecap:round; stroke-linejoin:round; stroke-width:2; stroke-opacity:0.1; fill:none" points="1673.28,1734.12 1673.28,47.2441 "/>
<polyline clip-path="url(#clip263)" style="stroke:#000000; stroke-linecap:round; stroke-linejoin:round; stroke-width:2; stroke-opacity:0.1; fill:none" points="2123.27,1734.12 2123.27,47.2441 "/>
<polyline clip-path="url(#clip263)" style="stroke:#000000; stroke-linecap:round; stroke-linejoin:round; stroke-width:2; stroke-opacity:0.1; fill:none" points="2573.26,1734.12 2573.26,47.2441 "/>
<polyline clip-path="url(#clip260)" style="stroke:#000000; stroke-linecap:round; stroke-linejoin:round; stroke-width:4; stroke-opacity:1; fill:none" points="255.816,1734.12 2640.76,1734.12 "/>
<polyline clip-path="url(#clip260)" style="stroke:#000000; stroke-linecap:round; stroke-linejoin:round; stroke-width:4; stroke-opacity:1; fill:none" points="323.315,1734.12 323.315,1715.22 "/>
<polyline clip-path="url(#clip260)" style="stroke:#000000; stroke-linecap:round; stroke-linejoin:round; stroke-width:4; stroke-opacity:1; fill:none" points="773.303,1734.12 773.303,1715.22 "/>
<polyline clip-path="url(#clip260)" style="stroke:#000000; stroke-linecap:round; stroke-linejoin:round; stroke-width:4; stroke-opacity:1; fill:none" points="1223.29,1734.12 1223.29,1715.22 "/>
<polyline clip-path="url(#clip260)" style="stroke:#000000; stroke-linecap:round; stroke-linejoin:round; stroke-width:4; stroke-opacity:1; fill:none" points="1673.28,1734.12 1673.28,1715.22 "/>
<polyline clip-path="url(#clip260)" style="stroke:#000000; stroke-linecap:round; stroke-linejoin:round; stroke-width:4; stroke-opacity:1; fill:none" points="2123.27,1734.12 2123.27,1715.22 "/>
<polyline clip-path="url(#clip260)" style="stroke:#000000; stroke-linecap:round; stroke-linejoin:round; stroke-width:4; stroke-opacity:1; fill:none" points="2573.26,1734.12 2573.26,1715.22 "/>
<path clip-path="url(#clip260)" d="M323.315 1767.34 Q319.704 1767.34 317.875 1770.9 Q316.069 1774.45 316.069 1781.58 Q316.069 1788.68 317.875 1792.25 Q319.704 1795.79 323.315 1795.79 Q326.949 1795.79 328.754 1792.25 Q330.583 1788.68 330.583 1781.58 Q330.583 1774.45 328.754 1770.9 Q326.949 1767.34 323.315 1767.34 M323.315 1763.64 Q329.125 1763.64 332.18 1768.24 Q335.259 1772.83 335.259 1781.58 Q335.259 1790.3 332.18 1794.91 Q329.125 1799.49 323.315 1799.49 Q317.504 1799.49 314.426 1794.91 Q311.37 1790.3 311.37 1781.58 Q311.37 1772.83 314.426 1768.24 Q317.504 1763.64 323.315 1763.64 Z" fill="#000000" fill-rule="evenodd" fill-opacity="1" /><path clip-path="url(#clip260)" d="M763.581 1764.26 L781.937 1764.26 L781.937 1768.2 L767.863 1768.2 L767.863 1776.67 Q768.882 1776.32 769.9 1776.16 Q770.919 1775.97 771.937 1775.97 Q777.724 1775.97 781.104 1779.15 Q784.484 1782.32 784.484 1787.73 Q784.484 1793.31 781.012 1796.41 Q777.539 1799.49 771.22 1799.49 Q769.044 1799.49 766.775 1799.12 Q764.53 1798.75 762.123 1798.01 L762.123 1793.31 Q764.206 1794.45 766.428 1795 Q768.65 1795.56 771.127 1795.56 Q775.132 1795.56 777.47 1793.45 Q779.808 1791.34 779.808 1787.73 Q779.808 1784.12 777.47 1782.02 Q775.132 1779.91 771.127 1779.91 Q769.252 1779.91 767.377 1780.33 Q765.525 1780.74 763.581 1781.62 L763.581 1764.26 Z" fill="#000000" fill-rule="evenodd" fill-opacity="1" /><path clip-path="url(#clip260)" d="M1197.98 1794.89 L1205.62 1794.89 L1205.62 1768.52 L1197.31 1770.19 L1197.31 1765.93 L1205.57 1764.26 L1210.25 1764.26 L1210.25 1794.89 L1217.89 1794.89 L1217.89 1798.82 L1197.98 1798.82 L1197.98 1794.89 Z" fill="#000000" fill-rule="evenodd" fill-opacity="1" /><path clip-path="url(#clip260)" d="M1237.33 1767.34 Q1233.72 1767.34 1231.89 1770.9 Q1230.09 1774.45 1230.09 1781.58 Q1230.09 1788.68 1231.89 1792.25 Q1233.72 1795.79 1237.33 1795.79 Q1240.97 1795.79 1242.77 1792.25 Q1244.6 1788.68 1244.6 1781.58 Q1244.6 1774.45 1242.77 1770.9 Q1240.97 1767.34 1237.33 1767.34 M1237.33 1763.64 Q1243.14 1763.64 1246.2 1768.24 Q1249.28 1772.83 1249.28 1781.58 Q1249.28 1790.3 1246.2 1794.91 Q1243.14 1799.49 1237.33 1799.49 Q1231.52 1799.49 1228.44 1794.91 Q1225.39 1790.3 1225.39 1781.58 Q1225.39 1772.83 1228.44 1768.24 Q1231.52 1763.64 1237.33 1763.64 Z" fill="#000000" fill-rule="evenodd" fill-opacity="1" /><path clip-path="url(#clip260)" d="M1648.47 1794.89 L1656.1 1794.89 L1656.1 1768.52 L1647.79 1770.19 L1647.79 1765.93 L1656.06 1764.26 L1660.73 1764.26 L1660.73 1794.89 L1668.37 1794.89 L1668.37 1798.82 L1648.47 1798.82 L1648.47 1794.89 Z" fill="#000000" fill-rule="evenodd" fill-opacity="1" /><path clip-path="url(#clip260)" d="M1677.86 1764.26 L1696.22 1764.26 L1696.22 1768.2 L1682.15 1768.2 L1682.15 1776.67 Q1683.16 1776.32 1684.18 1776.16 Q1685.2 1775.97 1686.22 1775.97 Q1692.01 1775.97 1695.39 1779.15 Q1698.77 1782.32 1698.77 1787.73 Q1698.77 1793.31 1695.29 1796.41 Q1691.82 1799.49 1685.5 1799.49 Q1683.33 1799.49 1681.06 1799.12 Q1678.81 1798.75 1676.41 1798.01 L1676.41 1793.31 Q1678.49 1794.45 1680.71 1795 Q1682.93 1795.56 1685.41 1795.56 Q1689.41 1795.56 1691.75 1793.45 Q1694.09 1791.34 1694.09 1787.73 Q1694.09 1784.12 1691.75 1782.02 Q1689.41 1779.91 1685.41 1779.91 Q1683.53 1779.91 1681.66 1780.33 Q1679.81 1780.74 1677.86 1781.62 L1677.86 1764.26 Z" fill="#000000" fill-rule="evenodd" fill-opacity="1" /><path clip-path="url(#clip260)" d="M2102.04 1794.89 L2118.36 1794.89 L2118.36 1798.82 L2096.42 1798.82 L2096.42 1794.89 Q2099.08 1792.13 2103.66 1787.5 Q2108.27 1782.85 2109.45 1781.51 Q2111.7 1778.98 2112.57 1777.25 Q2113.48 1775.49 2113.48 1773.8 Q2113.48 1771.04 2111.53 1769.31 Q2109.61 1767.57 2106.51 1767.57 Q2104.31 1767.57 2101.86 1768.34 Q2099.43 1769.1 2096.65 1770.65 L2096.65 1765.93 Q2099.47 1764.79 2101.93 1764.21 Q2104.38 1763.64 2106.42 1763.64 Q2111.79 1763.64 2114.98 1766.32 Q2118.18 1769.01 2118.18 1773.5 Q2118.18 1775.63 2117.37 1777.55 Q2116.58 1779.45 2114.47 1782.04 Q2113.89 1782.71 2110.79 1785.93 Q2107.69 1789.12 2102.04 1794.89 Z" fill="#000000" fill-rule="evenodd" fill-opacity="1" /><path clip-path="url(#clip260)" d="M2138.18 1767.34 Q2134.57 1767.34 2132.74 1770.9 Q2130.93 1774.45 2130.93 1781.58 Q2130.93 1788.68 2132.74 1792.25 Q2134.57 1795.79 2138.18 1795.79 Q2141.81 1795.79 2143.62 1792.25 Q2145.44 1788.68 2145.44 1781.58 Q2145.44 1774.45 2143.62 1770.9 Q2141.81 1767.34 2138.18 1767.34 M2138.18 1763.64 Q2143.99 1763.64 2147.04 1768.24 Q2150.12 1772.83 2150.12 1781.58 Q2150.12 1790.3 2147.04 1794.91 Q2143.99 1799.49 2138.18 1799.49 Q2132.37 1799.49 2129.29 1794.91 Q2126.23 1790.3 2126.23 1781.58 Q2126.23 1772.83 2129.29 1768.24 Q2132.37 1763.64 2138.18 1763.64 Z" fill="#000000" fill-rule="evenodd" fill-opacity="1" /><path clip-path="url(#clip260)" d="M2552.53 1794.89 L2568.85 1794.89 L2568.85 1798.82 L2546.9 1798.82 L2546.9 1794.89 Q2549.57 1792.13 2554.15 1787.5 Q2558.76 1782.85 2559.94 1781.51 Q2562.18 1778.98 2563.06 1777.25 Q2563.96 1775.49 2563.96 1773.8 Q2563.96 1771.04 2562.02 1769.31 Q2560.1 1767.57 2557 1767.57 Q2554.8 1767.57 2552.34 1768.34 Q2549.91 1769.1 2547.14 1770.65 L2547.14 1765.93 Q2549.96 1764.79 2552.41 1764.21 Q2554.87 1763.64 2556.9 1763.64 Q2562.27 1763.64 2565.47 1766.32 Q2568.66 1769.01 2568.66 1773.5 Q2568.66 1775.63 2567.85 1777.55 Q2567.07 1779.45 2564.96 1782.04 Q2564.38 1782.71 2561.28 1785.93 Q2558.18 1789.12 2552.53 1794.89 Z" fill="#000000" fill-rule="evenodd" fill-opacity="1" /><path clip-path="url(#clip260)" d="M2578.71 1764.26 L2597.07 1764.26 L2597.07 1768.2 L2582.99 1768.2 L2582.99 1776.67 Q2584.01 1776.32 2585.03 1776.16 Q2586.05 1775.97 2587.07 1775.97 Q2592.85 1775.97 2596.23 1779.15 Q2599.61 1782.32 2599.61 1787.73 Q2599.61 1793.31 2596.14 1796.41 Q2592.67 1799.49 2586.35 1799.49 Q2584.17 1799.49 2581.9 1799.12 Q2579.66 1798.75 2577.25 1798.01 L2577.25 1793.31 Q2579.33 1794.45 2581.56 1795 Q2583.78 1795.56 2586.26 1795.56 Q2590.26 1795.56 2592.6 1793.45 Q2594.94 1791.34 2594.94 1787.73 Q2594.94 1784.12 2592.6 1782.02 Q2590.26 1779.91 2586.26 1779.91 Q2584.38 1779.91 2582.51 1780.33 Q2580.65 1780.74 2578.71 1781.62 L2578.71 1764.26 Z" fill="#000000" fill-rule="evenodd" fill-opacity="1" /><path clip-path="url(#clip260)" d="M1440.04 1860.95 Q1440.04 1861.85 1439.63 1862.08 Q1439.21 1862.27 1438.05 1862.27 L1431.86 1862.27 L1426.97 1881.73 Q1426.58 1883.43 1426.58 1884.88 Q1426.58 1886.49 1427.06 1887.2 Q1427.58 1887.91 1428.64 1887.91 Q1430.74 1887.91 1432.99 1886.01 Q1435.28 1884.11 1437.21 1879.47 Q1437.47 1878.86 1437.6 1878.73 Q1437.76 1878.57 1438.18 1878.57 Q1438.98 1878.57 1438.98 1879.21 Q1438.98 1879.44 1438.53 1880.47 Q1438.11 1881.5 1437.18 1883.01 Q1436.28 1884.53 1435.08 1885.94 Q1433.92 1887.36 1432.15 1888.39 Q1430.38 1889.39 1428.48 1889.39 Q1425.81 1889.39 1424.1 1887.68 Q1422.43 1885.98 1422.43 1883.3 Q1422.43 1882.43 1423.1 1879.66 Q1423.78 1876.86 1427.45 1862.27 L1421.62 1862.27 Q1420.82 1862.27 1420.49 1862.24 Q1420.2 1862.21 1419.98 1862.05 Q1419.79 1861.85 1419.79 1861.47 Q1419.79 1860.86 1420.04 1860.6 Q1420.3 1860.31 1420.62 1860.28 Q1420.98 1860.21 1421.78 1860.21 L1427.97 1860.21 L1430.54 1849.74 Q1430.8 1848.71 1431.44 1848.13 Q1432.12 1847.52 1432.51 1847.46 Q1432.89 1847.36 1433.18 1847.36 Q1434.05 1847.36 1434.57 1847.84 Q1435.08 1848.3 1435.08 1849.13 Q1435.08 1849.58 1432.38 1860.21 L1438.18 1860.21 Q1438.92 1860.21 1439.21 1860.24 Q1439.53 1860.28 1439.79 1860.44 Q1440.04 1860.6 1440.04 1860.95 Z" fill="#000000" fill-rule="evenodd" fill-opacity="1" /><path clip-path="url(#clip260)" d="M1446.88 1834.14 Q1446.88 1833.35 1447.94 1832.83 L1454.37 1829.79 L1447.85 1826.74 Q1446.88 1826.29 1446.88 1825.5 Q1446.88 1825.05 1447.24 1824.65 Q1447.63 1824.22 1448.12 1824.22 Q1448.48 1824.22 1449.14 1824.71 L1454.86 1828.86 Q1454.16 1821.24 1454.19 1821.02 Q1454.19 1820.56 1454.52 1820.23 Q1454.86 1819.87 1455.43 1819.87 Q1455.88 1819.87 1456.24 1820.2 Q1456.62 1820.52 1456.62 1821.02 L1455.94 1828.86 L1461.06 1825.07 Q1462.26 1824.19 1462.68 1824.22 Q1463.2 1824.22 1463.56 1824.62 Q1463.92 1825.03 1463.92 1825.5 Q1463.92 1826.29 1462.87 1826.79 L1456.44 1829.83 L1462.96 1832.9 Q1463.92 1833.35 1463.92 1834.14 Q1463.92 1834.59 1463.54 1835.02 Q1463.18 1835.42 1462.68 1835.42 Q1462.41 1835.42 1461.94 1835.15 Q1461.85 1835.11 1460.88 1834.38 Q1459.91 1833.66 1458.4 1832.56 Q1456.91 1831.45 1455.94 1830.75 Q1456.64 1838.37 1456.62 1838.6 Q1456.62 1839.05 1456.28 1839.41 Q1455.94 1839.77 1455.38 1839.77 Q1454.93 1839.77 1454.55 1839.46 Q1454.19 1839.12 1454.19 1838.6 L1454.86 1830.75 L1448.41 1835.42 Q1447.72 1835.42 1447.33 1835.08 Q1446.97 1834.72 1446.93 1834.52 Q1446.88 1834.32 1446.88 1834.14 Z" fill="#000000" fill-rule="evenodd" fill-opacity="1" /><polyline clip-path="url(#clip263)" style="stroke:#000000; stroke-linecap:round; stroke-linejoin:round; stroke-width:2; stroke-opacity:0.1; fill:none" points="255.816,1686.38 2640.76,1686.38 "/>
<polyline clip-path="url(#clip263)" style="stroke:#000000; stroke-linecap:round; stroke-linejoin:round; stroke-width:2; stroke-opacity:0.1; fill:none" points="255.816,1288.51 2640.76,1288.51 "/>
<polyline clip-path="url(#clip263)" style="stroke:#000000; stroke-linecap:round; stroke-linejoin:round; stroke-width:2; stroke-opacity:0.1; fill:none" points="255.816,890.642 2640.76,890.642 "/>
<polyline clip-path="url(#clip263)" style="stroke:#000000; stroke-linecap:round; stroke-linejoin:round; stroke-width:2; stroke-opacity:0.1; fill:none" points="255.816,492.776 2640.76,492.776 "/>
<polyline clip-path="url(#clip263)" style="stroke:#000000; stroke-linecap:round; stroke-linejoin:round; stroke-width:2; stroke-opacity:0.1; fill:none" points="255.816,94.9092 2640.76,94.9092 "/>
<polyline clip-path="url(#clip260)" style="stroke:#000000; stroke-linecap:round; stroke-linejoin:round; stroke-width:4; stroke-opacity:1; fill:none" points="255.816,1734.12 255.816,47.2441 "/>
<polyline clip-path="url(#clip260)" style="stroke:#000000; stroke-linecap:round; stroke-linejoin:round; stroke-width:4; stroke-opacity:1; fill:none" points="255.816,1686.38 274.714,1686.38 "/>
<polyline clip-path="url(#clip260)" style="stroke:#000000; stroke-linecap:round; stroke-linejoin:round; stroke-width:4; stroke-opacity:1; fill:none" points="255.816,1288.51 274.714,1288.51 "/>
<polyline clip-path="url(#clip260)" style="stroke:#000000; stroke-linecap:round; stroke-linejoin:round; stroke-width:4; stroke-opacity:1; fill:none" points="255.816,890.642 274.714,890.642 "/>
<polyline clip-path="url(#clip260)" style="stroke:#000000; stroke-linecap:round; stroke-linejoin:round; stroke-width:4; stroke-opacity:1; fill:none" points="255.816,492.776 274.714,492.776 "/>
<polyline clip-path="url(#clip260)" style="stroke:#000000; stroke-linecap:round; stroke-linejoin:round; stroke-width:4; stroke-opacity:1; fill:none" points="255.816,94.9092 274.714,94.9092 "/>
<path clip-path="url(#clip260)" d="M128.159 1672.17 Q124.548 1672.17 122.719 1675.74 Q120.913 1679.28 120.913 1686.41 Q120.913 1693.52 122.719 1697.08 Q124.548 1700.62 128.159 1700.62 Q131.793 1700.62 133.599 1697.08 Q135.427 1693.52 135.427 1686.41 Q135.427 1679.28 133.599 1675.74 Q131.793 1672.17 128.159 1672.17 M128.159 1668.47 Q133.969 1668.47 137.025 1673.08 Q140.103 1677.66 140.103 1686.41 Q140.103 1695.14 137.025 1699.74 Q133.969 1704.33 128.159 1704.33 Q122.349 1704.33 119.27 1699.74 Q116.214 1695.14 116.214 1686.41 Q116.214 1677.66 119.27 1673.08 Q122.349 1668.47 128.159 1668.47 Z" fill="#000000" fill-rule="evenodd" fill-opacity="1" /><path clip-path="url(#clip260)" d="M148.321 1697.78 L153.205 1697.78 L153.205 1703.66 L148.321 1703.66 L148.321 1697.78 Z" fill="#000000" fill-rule="evenodd" fill-opacity="1" /><path clip-path="url(#clip260)" d="M173.39 1672.17 Q169.779 1672.17 167.95 1675.74 Q166.145 1679.28 166.145 1686.41 Q166.145 1693.52 167.95 1697.08 Q169.779 1700.62 173.39 1700.62 Q177.024 1700.62 178.83 1697.08 Q180.659 1693.52 180.659 1686.41 Q180.659 1679.28 178.83 1675.74 Q177.024 1672.17 173.39 1672.17 M173.39 1668.47 Q179.2 1668.47 182.256 1673.08 Q185.334 1677.66 185.334 1686.41 Q185.334 1695.14 182.256 1699.74 Q179.2 1704.33 173.39 1704.33 Q167.58 1704.33 164.501 1699.74 Q161.446 1695.14 161.446 1686.41 Q161.446 1677.66 164.501 1673.08 Q167.58 1668.47 173.39 1668.47 Z" fill="#000000" fill-rule="evenodd" fill-opacity="1" /><path clip-path="url(#clip260)" d="M203.552 1672.17 Q199.941 1672.17 198.112 1675.74 Q196.307 1679.28 196.307 1686.41 Q196.307 1693.52 198.112 1697.08 Q199.941 1700.62 203.552 1700.62 Q207.186 1700.62 208.992 1697.08 Q210.82 1693.52 210.82 1686.41 Q210.82 1679.28 208.992 1675.74 Q207.186 1672.17 203.552 1672.17 M203.552 1668.47 Q209.362 1668.47 212.418 1673.08 Q215.496 1677.66 215.496 1686.41 Q215.496 1695.14 212.418 1699.74 Q209.362 1704.33 203.552 1704.33 Q197.742 1704.33 194.663 1699.74 Q191.608 1695.14 191.608 1686.41 Q191.608 1677.66 194.663 1673.08 Q197.742 1668.47 203.552 1668.47 Z" fill="#000000" fill-rule="evenodd" fill-opacity="1" /><path clip-path="url(#clip260)" d="M129.154 1274.31 Q125.543 1274.31 123.714 1277.87 Q121.909 1281.41 121.909 1288.54 Q121.909 1295.65 123.714 1299.21 Q125.543 1302.76 129.154 1302.76 Q132.788 1302.76 134.594 1299.21 Q136.423 1295.65 136.423 1288.54 Q136.423 1281.41 134.594 1277.87 Q132.788 1274.31 129.154 1274.31 M129.154 1270.6 Q134.964 1270.6 138.02 1275.21 Q141.099 1279.79 141.099 1288.54 Q141.099 1297.27 138.02 1301.88 Q134.964 1306.46 129.154 1306.46 Q123.344 1306.46 120.265 1301.88 Q117.21 1297.27 117.21 1288.54 Q117.21 1279.79 120.265 1275.21 Q123.344 1270.6 129.154 1270.6 Z" fill="#000000" fill-rule="evenodd" fill-opacity="1" /><path clip-path="url(#clip260)" d="M149.316 1299.91 L154.2 1299.91 L154.2 1305.79 L149.316 1305.79 L149.316 1299.91 Z" fill="#000000" fill-rule="evenodd" fill-opacity="1" /><path clip-path="url(#clip260)" d="M168.413 1301.85 L184.733 1301.85 L184.733 1305.79 L162.788 1305.79 L162.788 1301.85 Q165.45 1299.1 170.034 1294.47 Q174.64 1289.82 175.821 1288.47 Q178.066 1285.95 178.946 1284.21 Q179.848 1282.46 179.848 1280.77 Q179.848 1278.01 177.904 1276.28 Q175.983 1274.54 172.881 1274.54 Q170.682 1274.54 168.228 1275.3 Q165.798 1276.07 163.02 1277.62 L163.02 1272.9 Q165.844 1271.76 168.297 1271.18 Q170.751 1270.6 172.788 1270.6 Q178.159 1270.6 181.353 1273.29 Q184.547 1275.97 184.547 1280.46 Q184.547 1282.59 183.737 1284.52 Q182.95 1286.41 180.844 1289.01 Q180.265 1289.68 177.163 1292.9 Q174.061 1296.09 168.413 1301.85 Z" fill="#000000" fill-rule="evenodd" fill-opacity="1" /><path clip-path="url(#clip260)" d="M194.594 1271.23 L212.95 1271.23 L212.95 1275.16 L198.876 1275.16 L198.876 1283.64 Q199.895 1283.29 200.913 1283.13 Q201.932 1282.94 202.95 1282.94 Q208.737 1282.94 212.117 1286.11 Q215.496 1289.28 215.496 1294.7 Q215.496 1300.28 212.024 1303.38 Q208.552 1306.46 202.233 1306.46 Q200.057 1306.46 197.788 1306.09 Q195.543 1305.72 193.135 1304.98 L193.135 1300.28 Q195.219 1301.41 197.441 1301.97 Q199.663 1302.52 202.14 1302.52 Q206.145 1302.52 208.482 1300.42 Q210.82 1298.31 210.82 1294.7 Q210.82 1291.09 208.482 1288.98 Q206.145 1286.88 202.14 1286.88 Q200.265 1286.88 198.39 1287.29 Q196.538 1287.71 194.594 1288.59 L194.594 1271.23 Z" fill="#000000" fill-rule="evenodd" fill-opacity="1" /><path clip-path="url(#clip260)" d="M128.159 876.441 Q124.548 876.441 122.719 880.006 Q120.913 883.547 120.913 890.677 Q120.913 897.783 122.719 901.348 Q124.548 904.89 128.159 904.89 Q131.793 904.89 133.599 901.348 Q135.427 897.783 135.427 890.677 Q135.427 883.547 133.599 880.006 Q131.793 876.441 128.159 876.441 M128.159 872.737 Q133.969 872.737 137.025 877.344 Q140.103 881.927 140.103 890.677 Q140.103 899.404 137.025 904.01 Q133.969 908.594 128.159 908.594 Q122.349 908.594 119.27 904.01 Q116.214 899.404 116.214 890.677 Q116.214 881.927 119.27 877.344 Q122.349 872.737 128.159 872.737 Z" fill="#000000" fill-rule="evenodd" fill-opacity="1" /><path clip-path="url(#clip260)" d="M148.321 902.043 L153.205 902.043 L153.205 907.922 L148.321 907.922 L148.321 902.043 Z" fill="#000000" fill-rule="evenodd" fill-opacity="1" /><path clip-path="url(#clip260)" d="M163.436 873.362 L181.793 873.362 L181.793 877.297 L167.719 877.297 L167.719 885.77 Q168.737 885.422 169.756 885.26 Q170.774 885.075 171.793 885.075 Q177.58 885.075 180.959 888.246 Q184.339 891.418 184.339 896.834 Q184.339 902.413 180.867 905.515 Q177.395 908.594 171.075 908.594 Q168.899 908.594 166.631 908.223 Q164.385 907.853 161.978 907.112 L161.978 902.413 Q164.061 903.547 166.284 904.103 Q168.506 904.658 170.983 904.658 Q174.987 904.658 177.325 902.552 Q179.663 900.445 179.663 896.834 Q179.663 893.223 177.325 891.117 Q174.987 889.01 170.983 889.01 Q169.108 889.01 167.233 889.427 Q165.381 889.844 163.436 890.723 L163.436 873.362 Z" fill="#000000" fill-rule="evenodd" fill-opacity="1" /><path clip-path="url(#clip260)" d="M203.552 876.441 Q199.941 876.441 198.112 880.006 Q196.307 883.547 196.307 890.677 Q196.307 897.783 198.112 901.348 Q199.941 904.89 203.552 904.89 Q207.186 904.89 208.992 901.348 Q210.82 897.783 210.82 890.677 Q210.82 883.547 208.992 880.006 Q207.186 876.441 203.552 876.441 M203.552 872.737 Q209.362 872.737 212.418 877.344 Q215.496 881.927 215.496 890.677 Q215.496 899.404 212.418 904.01 Q209.362 908.594 203.552 908.594 Q197.742 908.594 194.663 904.01 Q191.608 899.404 191.608 890.677 Q191.608 881.927 194.663 877.344 Q197.742 872.737 203.552 872.737 Z" fill="#000000" fill-rule="evenodd" fill-opacity="1" /><path clip-path="url(#clip260)" d="M129.154 478.574 Q125.543 478.574 123.714 482.139 Q121.909 485.681 121.909 492.81 Q121.909 499.917 123.714 503.482 Q125.543 507.023 129.154 507.023 Q132.788 507.023 134.594 503.482 Q136.423 499.917 136.423 492.81 Q136.423 485.681 134.594 482.139 Q132.788 478.574 129.154 478.574 M129.154 474.871 Q134.964 474.871 138.02 479.477 Q141.099 484.06 141.099 492.81 Q141.099 501.537 138.02 506.144 Q134.964 510.727 129.154 510.727 Q123.344 510.727 120.265 506.144 Q117.21 501.537 117.21 492.81 Q117.21 484.06 120.265 479.477 Q123.344 474.871 129.154 474.871 Z" fill="#000000" fill-rule="evenodd" fill-opacity="1" /><path clip-path="url(#clip260)" d="M149.316 504.176 L154.2 504.176 L154.2 510.056 L149.316 510.056 L149.316 504.176 Z" fill="#000000" fill-rule="evenodd" fill-opacity="1" /><path clip-path="url(#clip260)" d="M163.205 475.496 L185.427 475.496 L185.427 477.486 L172.881 510.056 L167.997 510.056 L179.802 479.431 L163.205 479.431 L163.205 475.496 Z" fill="#000000" fill-rule="evenodd" fill-opacity="1" /><path clip-path="url(#clip260)" d="M194.594 475.496 L212.95 475.496 L212.95 479.431 L198.876 479.431 L198.876 487.903 Q199.895 487.556 200.913 487.394 Q201.932 487.209 202.95 487.209 Q208.737 487.209 212.117 490.38 Q215.496 493.551 215.496 498.968 Q215.496 504.546 212.024 507.648 Q208.552 510.727 202.233 510.727 Q200.057 510.727 197.788 510.357 Q195.543 509.986 193.135 509.246 L193.135 504.546 Q195.219 505.681 197.441 506.236 Q199.663 506.792 202.14 506.792 Q206.145 506.792 208.482 504.685 Q210.82 502.579 210.82 498.968 Q210.82 495.357 208.482 493.25 Q206.145 491.144 202.14 491.144 Q200.265 491.144 198.39 491.56 Q196.538 491.977 194.594 492.857 L194.594 475.496 Z" fill="#000000" fill-rule="evenodd" fill-opacity="1" /><path clip-path="url(#clip260)" d="M118.969 108.254 L126.608 108.254 L126.608 81.8884 L118.298 83.5551 L118.298 79.2958 L126.562 77.6292 L131.238 77.6292 L131.238 108.254 L138.876 108.254 L138.876 112.189 L118.969 112.189 L118.969 108.254 Z" fill="#000000" fill-rule="evenodd" fill-opacity="1" /><path clip-path="url(#clip260)" d="M148.321 106.31 L153.205 106.31 L153.205 112.189 L148.321 112.189 L148.321 106.31 Z" fill="#000000" fill-rule="evenodd" fill-opacity="1" /><path clip-path="url(#clip260)" d="M173.39 80.7079 Q169.779 80.7079 167.95 84.2726 Q166.145 87.8143 166.145 94.9439 Q166.145 102.05 167.95 105.615 Q169.779 109.157 173.39 109.157 Q177.024 109.157 178.83 105.615 Q180.659 102.05 180.659 94.9439 Q180.659 87.8143 178.83 84.2726 Q177.024 80.7079 173.39 80.7079 M173.39 77.0042 Q179.2 77.0042 182.256 81.6106 Q185.334 86.1939 185.334 94.9439 Q185.334 103.671 182.256 108.277 Q179.2 112.86 173.39 112.86 Q167.58 112.86 164.501 108.277 Q161.446 103.671 161.446 94.9439 Q161.446 86.1939 164.501 81.6106 Q167.58 77.0042 173.39 77.0042 Z" fill="#000000" fill-rule="evenodd" fill-opacity="1" /><path clip-path="url(#clip260)" d="M203.552 80.7079 Q199.941 80.7079 198.112 84.2726 Q196.307 87.8143 196.307 94.9439 Q196.307 102.05 198.112 105.615 Q199.941 109.157 203.552 109.157 Q207.186 109.157 208.992 105.615 Q210.82 102.05 210.82 94.9439 Q210.82 87.8143 208.992 84.2726 Q207.186 80.7079 203.552 80.7079 M203.552 77.0042 Q209.362 77.0042 212.418 81.6106 Q215.496 86.1939 215.496 94.9439 Q215.496 103.671 212.418 108.277 Q209.362 112.86 203.552 112.86 Q197.742 112.86 194.663 108.277 Q191.608 103.671 191.608 94.9439 Q191.608 86.1939 194.663 81.6106 Q197.742 77.0042 203.552 77.0042 Z" fill="#000000" fill-rule="evenodd" fill-opacity="1" /><path clip-path="url(#clip260)" d="M14.1184 1098.31 L14.1184 1091.88 L33.5975 1091.88 L33.5975 1068.52 L14.1184 1068.52 L14.1184 1062.09 L61.6384 1062.09 L61.6384 1068.52 L39.0084 1068.52 L39.0084 1091.88 L61.6384 1091.88 L61.6384 1098.31 L14.1184 1098.31 Z" fill="#000000" fill-rule="evenodd" fill-opacity="1" /><path clip-path="url(#clip260)" d="M42.3504 1019.06 L45.2149 1019.06 L45.2149 1045.99 Q51.2623 1045.61 54.4452 1042.36 Q57.5962 1039.08 57.5962 1033.26 Q57.5962 1029.88 56.7687 1026.73 Q55.9411 1023.55 54.2861 1020.43 L59.8242 1020.43 Q61.161 1023.58 61.8612 1026.89 Q62.5615 1030.2 62.5615 1033.61 Q62.5615 1042.14 57.5962 1047.13 Q52.631 1052.1 44.1646 1052.1 Q35.4117 1052.1 30.2873 1047.39 Q25.1311 1042.65 25.1311 1034.63 Q25.1311 1027.43 29.7781 1023.26 Q34.3932 1019.06 42.3504 1019.06 M40.6316 1024.92 Q35.8255 1024.98 32.9609 1027.62 Q30.0964 1030.23 30.0964 1034.56 Q30.0964 1039.46 32.8654 1042.42 Q35.6345 1045.35 40.6634 1045.8 L40.6316 1024.92 Z" fill="#000000" fill-rule="evenodd" fill-opacity="1" /><path clip-path="url(#clip260)" d="M43.719 993.248 Q43.719 1000.35 45.3422 1003.08 Q46.9655 1005.82 50.8804 1005.82 Q53.9996 1005.82 55.8457 1003.78 Q57.6599 1001.71 57.6599 998.181 Q57.6599 993.312 54.2224 990.383 Q50.7531 987.423 45.0239 987.423 L43.719 987.423 L43.719 993.248 M41.3 981.567 L61.6384 981.567 L61.6384 987.423 L56.2276 987.423 Q59.4741 989.429 61.0337 992.42 Q62.5615 995.412 62.5615 999.741 Q62.5615 1005.22 59.5059 1008.46 Q56.4186 1011.68 51.2623 1011.68 Q45.2467 1011.68 42.1912 1007.67 Q39.1357 1003.62 39.1357 995.635 L39.1357 987.423 L38.5628 987.423 Q34.5205 987.423 32.3244 990.097 Q30.0964 992.739 30.0964 997.545 Q30.0964 1000.6 30.8284 1003.5 Q31.5605 1006.39 33.0246 1009.07 L27.6137 1009.07 Q26.3724 1005.85 25.7677 1002.83 Q25.1311 999.805 25.1311 996.94 Q25.1311 989.206 29.1415 985.386 Q33.1519 981.567 41.3 981.567 Z" fill="#000000" fill-rule="evenodd" fill-opacity="1" /><path clip-path="url(#clip260)" d="M15.869 963.711 L25.9905 963.711 L25.9905 951.648 L30.542 951.648 L30.542 963.711 L49.8937 963.711 Q54.2542 963.711 55.4955 962.533 Q56.7368 961.324 56.7368 957.664 L56.7368 951.648 L61.6384 951.648 L61.6384 957.664 Q61.6384 964.443 59.124 967.021 Q56.5777 969.599 49.8937 969.599 L30.542 969.599 L30.542 973.896 L25.9905 973.896 L25.9905 969.599 L15.869 969.599 L15.869 963.711 Z" fill="#000000" fill-rule="evenodd" fill-opacity="1" /><path clip-path="url(#clip260)" d="M14.1184 922.971 L14.1184 916.541 L61.6384 916.541 L61.6384 922.971 L14.1184 922.971 Z" fill="#000000" fill-rule="evenodd" fill-opacity="1" /><path clip-path="url(#clip260)" d="M40.1224 874.368 L61.6384 874.368 L61.6384 880.225 L40.3133 880.225 Q35.2526 880.225 32.7381 882.198 Q30.2237 884.172 30.2237 888.118 Q30.2237 892.861 33.2474 895.598 Q36.2711 898.335 41.491 898.335 L61.6384 898.335 L61.6384 904.224 L25.9905 904.224 L25.9905 898.335 L31.5287 898.335 Q28.314 896.235 26.7225 893.402 Q25.1311 890.537 25.1311 886.813 Q25.1311 880.67 28.9505 877.519 Q32.7381 874.368 40.1224 874.368 Z" fill="#000000" fill-rule="evenodd" fill-opacity="1" /><path clip-path="url(#clip260)" d="M15.869 856.895 L25.9905 856.895 L25.9905 844.832 L30.542 844.832 L30.542 856.895 L49.8937 856.895 Q54.2542 856.895 55.4955 855.717 Q56.7368 854.507 56.7368 850.847 L56.7368 844.832 L61.6384 844.832 L61.6384 850.847 Q61.6384 857.627 59.124 860.205 Q56.5777 862.783 49.8937 862.783 L30.542 862.783 L30.542 867.08 L25.9905 867.08 L25.9905 862.783 L15.869 862.783 L15.869 856.895 Z" fill="#000000" fill-rule="evenodd" fill-opacity="1" /><path clip-path="url(#clip260)" d="M42.3504 806.637 L45.2149 806.637 L45.2149 833.564 Q51.2623 833.182 54.4452 829.936 Q57.5962 826.657 57.5962 820.833 Q57.5962 817.459 56.7687 814.308 Q55.9411 811.125 54.2861 808.006 L59.8242 808.006 Q61.161 811.157 61.8612 814.467 Q62.5615 817.777 62.5615 821.183 Q62.5615 829.713 57.5962 834.71 Q52.631 839.675 44.1646 839.675 Q35.4117 839.675 30.2873 834.965 Q25.1311 830.222 25.1311 822.201 Q25.1311 815.008 29.7781 810.839 Q34.3932 806.637 42.3504 806.637 M40.6316 812.494 Q35.8255 812.557 32.9609 815.199 Q30.0964 817.809 30.0964 822.138 Q30.0964 827.039 32.8654 829.999 Q35.6345 832.928 40.6634 833.373 L40.6316 812.494 Z" fill="#000000" fill-rule="evenodd" fill-opacity="1" /><path clip-path="url(#clip260)" d="M43.4007 773.567 Q37.035 773.567 33.5338 776.209 Q30.0327 778.819 30.0327 783.562 Q30.0327 788.272 33.5338 790.914 Q37.035 793.524 43.4007 793.524 Q49.7346 793.524 53.2357 790.914 Q56.7368 788.272 56.7368 783.562 Q56.7368 778.819 53.2357 776.209 Q49.7346 773.567 43.4007 773.567 M57.2143 767.711 Q66.3172 767.711 70.7414 771.753 Q75.1974 775.795 75.1974 784.135 Q75.1974 787.222 74.72 789.959 Q74.2744 792.696 73.3195 795.275 L67.6222 795.275 Q69.0227 792.696 69.6911 790.182 Q70.3595 787.667 70.3595 785.058 Q70.3595 779.297 67.3358 776.432 Q64.3439 773.567 58.2646 773.567 L55.3682 773.567 Q58.5192 775.382 60.0788 778.214 Q61.6384 781.047 61.6384 784.994 Q61.6384 791.551 56.6414 795.561 Q51.6443 799.571 43.4007 799.571 Q35.1253 799.571 30.1282 795.561 Q25.1311 791.551 25.1311 784.994 Q25.1311 781.047 26.6907 778.214 Q28.2503 775.382 31.4013 773.567 L25.9905 773.567 L25.9905 767.711 L57.2143 767.711 Z" fill="#000000" fill-rule="evenodd" fill-opacity="1" /><path clip-path="url(#clip260)" d="M31.465 734.991 Q30.8921 735.978 30.6375 737.156 Q30.351 738.301 30.351 739.702 Q30.351 744.667 33.5975 747.341 Q36.8122 749.983 42.8596 749.983 L61.6384 749.983 L61.6384 755.871 L25.9905 755.871 L25.9905 749.983 L31.5287 749.983 Q28.2821 748.136 26.7225 745.176 Q25.1311 742.216 25.1311 737.983 Q25.1311 737.378 25.2266 736.646 Q25.2903 735.914 25.4494 735.023 L31.465 734.991 Z" fill="#000000" fill-rule="evenodd" fill-opacity="1" /><path clip-path="url(#clip260)" d="M43.719 712.648 Q43.719 719.745 45.3422 722.483 Q46.9655 725.22 50.8804 725.22 Q53.9996 725.22 55.8457 723.183 Q57.6599 721.114 57.6599 717.581 Q57.6599 712.711 54.2224 709.783 Q50.7531 706.823 45.0239 706.823 L43.719 706.823 L43.719 712.648 M41.3 700.967 L61.6384 700.967 L61.6384 706.823 L56.2276 706.823 Q59.4741 708.828 61.0337 711.82 Q62.5615 714.812 62.5615 719.141 Q62.5615 724.615 59.5059 727.862 Q56.4186 731.076 51.2623 731.076 Q45.2467 731.076 42.1912 727.066 Q39.1357 723.024 39.1357 715.035 L39.1357 706.823 L38.5628 706.823 Q34.5205 706.823 32.3244 709.497 Q30.0964 712.138 30.0964 716.944 Q30.0964 720 30.8284 722.896 Q31.5605 725.793 33.0246 728.466 L27.6137 728.466 Q26.3724 725.252 25.7677 722.228 Q25.1311 719.204 25.1311 716.34 Q25.1311 708.605 29.1415 704.786 Q33.1519 700.967 41.3 700.967 Z" fill="#000000" fill-rule="evenodd" fill-opacity="1" /><path clip-path="url(#clip260)" d="M12.1132 688.904 L12.1132 683.047 L61.6384 683.047 L61.6384 688.904 L12.1132 688.904 Z" fill="#000000" fill-rule="evenodd" fill-opacity="1" /><polyline clip-path="url(#clip263)" style="stroke:#009af9; stroke-linecap:round; stroke-linejoin:round; stroke-width:12; stroke-opacity:1; fill:none" points="323.315,1686.38 325.567,1421.62 327.819,1322.78 330.071,1251 332.323,1193.14 334.576,1144.12 336.828,1101.33 339.08,1063.24 341.332,1028.84 343.584,997.45 345.837,968.552 348.089,941.77 350.341,916.811 352.593,893.44 354.845,871.468 357.098,850.741 359.35,831.129 361.602,812.521 363.854,794.826 366.106,777.963 368.359,761.862 370.611,746.462 372.863,731.71 375.115,717.557 377.367,703.963 379.619,690.889 381.872,678.301 384.124,666.169 386.376,654.464 388.628,643.162 390.88,632.24 393.133,621.675 395.385,611.45 397.637,601.546 399.889,591.947 402.141,582.638 404.394,573.604 406.646,564.833 408.898,556.312 411.15,548.03 413.402,539.977 415.655,532.143 417.907,524.518 420.159,517.093 422.411,509.861 424.663,502.814 426.916,495.944 429.168,489.245 431.42,482.711 433.672,476.334 435.924,470.11 438.177,464.033 440.429,458.098 442.681,452.3 444.933,446.633 447.185,441.095 449.438,435.679 451.69,430.384 453.942,425.203 456.194,420.135 458.446,415.175 460.699,410.32 462.951,405.567 465.203,400.912 467.455,396.353 469.707,391.887 471.959,387.512 474.212,383.224 476.464,379.021 478.716,374.901 480.968,370.862 483.22,366.901 485.473,363.015 487.725,359.204 489.977,355.466 492.229,351.797 494.481,348.197 496.734,344.663 498.986,341.194 501.238,337.789 503.49,334.445 505.742,331.162 507.995,327.937 510.247,324.769 512.499,321.658 514.751,318.601 517.003,315.597 519.256,312.645 521.508,309.744 523.76,306.892 526.012,304.089 528.264,301.334 530.517,298.624 532.769,295.96 535.021,293.341 537.273,290.764 539.525,288.23 541.778,285.737 544.03,283.285 546.282,280.872 548.534,278.498 550.786,276.163 553.039,273.864 555.291,271.602 557.543,269.375 559.795,267.184 562.047,265.026 564.299,262.903 566.552,260.812 568.804,258.753 571.056,256.726 573.308,254.729 575.56,252.763 577.813,250.827 580.065,248.92 582.317,247.042 584.569,245.191 586.821,243.368 589.074,241.573 591.326,239.803 593.578,238.06 595.83,236.342 598.082,234.649 600.335,232.98 602.587,231.336 604.839,229.716 607.091,228.118 609.343,226.544 611.596,224.992 613.848,223.462 616.1,221.953 618.352,220.466 620.604,219 622.857,217.554 625.109,216.129 627.361,214.723 629.613,213.336 631.865,211.969 634.118,210.621 636.37,209.291 638.622,207.979 640.874,206.685 643.126,205.409 645.379,204.149 647.631,202.907 649.883,201.682 652.135,200.473 654.387,199.28 656.639,198.103 658.892,196.942 661.144,195.796 663.396,194.665 665.648,193.549 667.9,192.447 670.153,191.36 672.405,190.288 674.657,189.229 676.909,188.184 679.161,187.152 681.414,186.134 683.666,185.129 685.918,184.137 688.17,183.157 690.422,182.19 692.675,181.235 694.927,180.293 697.179,179.362 699.431,178.443 701.683,177.536 703.936,176.64 706.188,175.755 708.44,174.881 710.692,174.018 712.944,173.166 715.197,172.325 717.449,171.494 719.701,170.673 721.953,169.863 724.205,169.062 726.458,168.271 728.71,167.49 730.962,166.718 733.214,165.956 735.466,165.203 737.719,164.459 739.971,163.724 742.223,162.998 744.475,162.281 746.727,161.572 748.98,160.872 751.232,160.18 753.484,159.497 755.736,158.821 757.988,158.154 760.24,157.495 762.493,156.843 764.745,156.199 766.997,155.563 769.249,154.934 771.501,154.313 773.754,153.699 776.006,153.092 778.258,152.492 780.51,151.899 782.762,151.313 785.015,150.734 787.267,150.161 789.519,149.595 791.771,149.036 794.023,148.483 796.276,147.937 798.528,147.397 800.78,146.862 803.032,146.335 805.284,145.813 807.537,145.297 809.789,144.787 812.041,144.282 814.293,143.784 816.545,143.291 818.798,142.803 821.05,142.321 823.302,141.845 825.554,141.374 827.806,140.908 830.059,140.447 832.311,139.992 834.563,139.542 836.815,139.096 839.067,138.656 841.32,138.22 843.572,137.79 845.824,137.364 848.076,136.943 850.328,136.526 852.58,136.114 854.833,135.707 857.085,135.304 859.337,134.905 861.589,134.511 863.841,134.121 866.094,133.735 868.346,133.354 870.598,132.977 872.85,132.604 875.102,132.235 877.355,131.869 879.607,131.508 881.859,131.151 884.111,130.798 886.363,130.448 888.616,130.102 890.868,129.76 893.12,129.422 895.372,129.087 897.624,128.755 899.877,128.428 902.129,128.104 904.381,127.783 906.633,127.465 908.885,127.151 911.138,126.841 913.39,126.533 915.642,126.229 917.894,125.928 920.146,125.631 922.399,125.336 924.651,125.045 926.903,124.756 929.155,124.471 931.407,124.188 933.66,123.909 935.912,123.632 938.164,123.359 940.416,123.088 942.668,122.82 944.92,122.555 947.173,122.292 949.425,122.033 951.677,121.776 953.929,121.521 956.181,121.27 958.434,121.021 960.686,120.774 962.938,120.53 965.19,120.289 967.442,120.05 969.695,119.813 971.947,119.579 974.199,119.347 976.451,119.118 978.703,118.891 980.956,118.666 983.208,118.444 985.46,118.223 987.712,118.005 989.964,117.79 992.217,117.576 994.469,117.365 996.721,117.156 998.973,116.949 1001.23,116.744 1003.48,116.541 1005.73,116.34 1007.98,116.141 1010.23,115.944 1012.49,115.749 1014.74,115.556 1016.99,115.365 1019.24,115.176 1021.5,114.989 1023.75,114.804 1026,114.62 1028.25,114.439 1030.5,114.259 1032.76,114.081 1035.01,113.904 1037.26,113.73 1039.51,113.557 1041.76,113.386 1044.02,113.217 1046.27,113.049 1048.52,112.883 1050.77,112.718 1053.03,112.556 1055.28,112.394 1057.53,112.235 1059.78,112.077 1062.03,111.92 1064.29,111.765 1066.54,111.612 1068.79,111.46 1071.04,111.31 1073.3,111.161 1075.55,111.013 1077.8,110.867 1080.05,110.723 1082.3,110.579 1084.56,110.437 1086.81,110.297 1089.06,110.158 1091.31,110.02 1093.57,109.884 1095.82,109.749 1098.07,109.615 1100.32,109.482 1102.57,109.351 1104.83,109.221 1107.08,109.093 1109.33,108.965 1111.58,108.839 1113.84,108.714 1116.09,108.59 1118.34,108.468 1120.59,108.346 1122.84,108.226 1125.1,108.107 1127.35,107.989 1129.6,107.872 1131.85,107.756 1134.1,107.642 1136.36,107.528 1138.61,107.416 1140.86,107.304 1143.11,107.194 1145.37,107.085 1147.62,106.976 1149.87,106.869 1152.12,106.763 1154.37,106.658 1156.63,106.554 1158.88,106.45 1161.13,106.348 1163.38,106.247 1165.64,106.147 1167.89,106.047 1170.14,105.949 1172.39,105.851 1174.64,105.755 1176.9,105.659 1179.15,105.564 1181.4,105.47 1183.65,105.377 1185.91,105.285 1188.16,105.194 1190.41,105.104 1192.66,105.014 1194.91,104.925 1197.17,104.837 1199.42,104.75 1201.67,104.664 1203.92,104.579 1206.18,104.494 1208.43,104.41 1210.68,104.327 1212.93,104.245 1215.18,104.163 1217.44,104.082 1219.69,104.002 1221.94,103.923 1224.19,103.844 1226.44,103.766 1228.7,103.689 1230.95,103.613 1233.2,103.537 1235.45,103.462 1237.71,103.388 1239.96,103.314 1242.21,103.241 1244.46,103.169 1246.71,103.097 1248.97,103.026 1251.22,102.956 1253.47,102.886 1255.72,102.817 1257.98,102.749 1260.23,102.681 1262.48,102.614 1264.73,102.547 1266.98,102.481 1269.24,102.416 1271.49,102.351 1273.74,102.287 1275.99,102.224 1278.25,102.161 1280.5,102.098 1282.75,102.036 1285,101.975 1287.25,101.914 1289.51,101.854 1291.76,101.795 1294.01,101.735 1296.26,101.677 1298.52,101.619 1300.77,101.561 1303.02,101.504 1305.27,101.448 1307.52,101.392 1309.78,101.337 1312.03,101.282 1314.28,101.227 1316.53,101.173 1318.78,101.12 1321.04,101.067 1323.29,101.014 1325.54,100.962 1327.79,100.911 1330.05,100.859 1332.3,100.809 1334.55,100.759 1336.8,100.709 1339.05,100.66 1341.31,100.611 1343.56,100.562 1345.81,100.514 1348.06,100.467 1350.32,100.42 1352.57,100.373 1354.82,100.327 1357.07,100.281 1359.32,100.235 1361.58,100.19 1363.83,100.145 1366.08,100.101 1368.33,100.057 1370.59,100.014 1372.84,99.9706 1375.09,99.9279 1377.34,99.8855 1379.59,99.8435 1381.85,99.8019 1384.1,99.7607 1386.35,99.7198 1388.6,99.6793 1390.86,99.6392 1393.11,99.5994 1395.36,99.5599 1397.61,99.5208 1399.86,99.4821 1402.12,99.4437 1404.37,99.4056 1406.62,99.3679 1408.87,99.3305 1411.12,99.2934 1413.38,99.2566 1415.63,99.2202 1417.88,99.1841 1420.13,99.1483 1422.39,99.1128 1424.64,99.0777 1426.89,99.0428 1429.14,99.0083 1431.39,98.974 1433.65,98.9401 1435.9,98.9064 1438.15,98.8731 1440.4,98.84 1442.66,98.8072 1444.91,98.7747 1447.16,98.7425 1449.41,98.7106 1451.66,98.6789 1453.92,98.6476 1456.17,98.6165 1458.42,98.5856 1460.67,98.5551 1462.93,98.5248 1465.18,98.4948 1467.43,98.465 1469.68,98.4355 1471.93,98.4062 1474.19,98.3772 1476.44,98.3485 1478.69,98.32 1480.94,98.2917 1483.2,98.2637 1485.45,98.2359 1487.7,98.2084 1489.95,98.1811 1492.2,98.154 1494.46,98.1272 1496.71,98.1006 1498.96,98.0743 1501.21,98.0481 1503.46,98.0222 1505.72,97.9965 1507.97,97.9711 1510.22,97.9458 1512.47,97.9208 1514.73,97.896 1516.98,97.8714 1519.23,97.847 1521.48,97.8228 1523.73,97.7988 1525.99,97.7751 1528.24,97.7515 1530.49,97.7282 1532.74,97.705 1535,97.682 1537.25,97.6593 1539.5,97.6367 1541.75,97.6143 1544,97.5921 1546.26,97.5701 1548.51,97.5483 1550.76,97.5267 1553.01,97.5053 1555.27,97.484 1557.52,97.4629 1559.77,97.4421 1562.02,97.4213 1564.27,97.4008 1566.53,97.3804 1568.78,97.3602 1571.03,97.3402 1573.28,97.3204 1575.54,97.3007 1577.79,97.2812 1580.04,97.2618 1582.29,97.2426 1584.54,97.2236 1586.8,97.2048 1589.05,97.1861 1591.3,97.1675 1593.55,97.1491 1595.8,97.1309 1598.06,97.1128 1600.31,97.0949 1602.56,97.0771 1604.81,97.0595 1607.07,97.042 1609.32,97.0247 1611.57,97.0075 1613.82,96.9905 1616.07,96.9736 1618.33,96.9569 1620.58,96.9403 1622.83,96.9238 1625.08,96.9075 1627.34,96.8913 1629.59,96.8752 1631.84,96.8593 1634.09,96.8435 1636.34,96.8279 1638.6,96.8123 1640.85,96.797 1643.1,96.7817 1645.35,96.7666 1647.61,96.7516 1649.86,96.7367 1652.11,96.7219 1654.36,96.7073 1656.61,96.6928 1658.87,96.6784 1661.12,96.6641 1663.37,96.65 1665.62,96.6359 1667.88,96.622 1670.13,96.6082 1672.38,96.5945 1674.63,96.581 1676.88,96.5675 1679.14,96.5542 1681.39,96.5409 1683.64,96.5278 1685.89,96.5148 1688.14,96.5019 1690.4,96.4891 1692.65,96.4764 1694.9,96.4638 1697.15,96.4514 1699.41,96.439 1701.66,96.4267 1703.91,96.4145 1706.16,96.4025 1708.41,96.3905 1710.67,96.3786 1712.92,96.3669 1715.17,96.3552 1717.42,96.3436 1719.68,96.3321 1721.93,96.3208 1724.18,96.3095 1726.43,96.2983 1728.68,96.2872 1730.94,96.2761 1733.19,96.2652 1735.44,96.2544 1737.69,96.2436 1739.95,96.233 1742.2,96.2224 1744.45,96.2119 1746.7,96.2016 1748.95,96.1913 1751.21,96.181 1753.46,96.1709 1755.71,96.1608 1757.96,96.1509 1760.22,96.141 1762.47,96.1312 1764.72,96.1214 1766.97,96.1118 1769.22,96.1022 1771.48,96.0927 1773.73,96.0833 1775.98,96.074 1778.23,96.0647 1780.48,96.0556 1782.74,96.0465 1784.99,96.0374 1787.24,96.0285 1789.49,96.0196 1791.75,96.0108 1794,96.002 1796.25,95.9934 1798.5,95.9848 1800.75,95.9763 1803.01,95.9678 1805.26,95.9594 1807.51,95.9511 1809.76,95.9428 1812.02,95.9347 1814.27,95.9265 1816.52,95.9185 1818.77,95.9105 1821.02,95.9026 1823.28,95.8947 1825.53,95.887 1827.78,95.8792 1830.03,95.8716 1832.29,95.864 1834.54,95.8564 1836.79,95.8489 1839.04,95.8415 1841.29,95.8342 1843.55,95.8269 1845.8,95.8196 1848.05,95.8125 1850.3,95.8053 1852.56,95.7983 1854.81,95.7913 1857.06,95.7843 1859.31,95.7774 1861.56,95.7706 1863.82,95.7638 1866.07,95.7571 1868.32,95.7504 1870.57,95.7438 1872.82,95.7373 1875.08,95.7307 1877.33,95.7243 1879.58,95.7179 1881.83,95.7115 1884.09,95.7052 1886.34,95.699 1888.59,95.6928 1890.84,95.6866 1893.09,95.6805 1895.35,95.6745 1897.6,95.6685 1899.85,95.6625 1902.1,95.6566 1904.36,95.6508 1906.61,95.645 1908.86,95.6392 1911.11,95.6335 1913.36,95.6278 1915.62,95.6222 1917.87,95.6166 1920.12,95.6111 1922.37,95.6056 1924.63,95.6001 1926.88,95.5947 1929.13,95.5894 1931.38,95.584 1933.63,95.5788 1935.89,95.5735 1938.14,95.5684 1940.39,95.5632 1942.64,95.5581 1944.9,95.553 1947.15,95.548 1949.4,95.543 1951.65,95.5381 1953.9,95.5332 1956.16,95.5283 1958.41,95.5235 1960.66,95.5187 1962.91,95.514 1965.16,95.5093 1967.42,95.5046 1969.67,95.4999 1971.92,95.4953 1974.17,95.4908 1976.43,95.4863 1978.68,95.4818 1980.93,95.4773 1983.18,95.4729 1985.43,95.4685 1987.69,95.4642 1989.94,95.4599 1992.19,95.4556 1994.44,95.4513 1996.7,95.4471 1998.95,95.443 2001.2,95.4388 2003.45,95.4347 2005.7,95.4306 2007.96,95.4266 2010.21,95.4226 2012.46,95.4186 2014.71,95.4146 2016.97,95.4107 2019.22,95.4068 2021.47,95.403 2023.72,95.3992 2025.97,95.3954 2028.23,95.3916 2030.48,95.3879 2032.73,95.3842 2034.98,95.3805 2037.24,95.3768 2039.49,95.3732 2041.74,95.3696 2043.99,95.3661 2046.24,95.3625 2048.5,95.359 2050.75,95.3556 2053,95.3521 2055.25,95.3487 2057.5,95.3453 2059.76,95.3419 2062.01,95.3386 2064.26,95.3353 2066.51,95.332 2068.77,95.3287 2071.02,95.3255 2073.27,95.3223 2075.52,95.3191 2077.77,95.3159 2080.03,95.3128 2082.28,95.3097 2084.53,95.3066 2086.78,95.3036 2089.04,95.3005 2091.29,95.2975 2093.54,95.2945 2095.79,95.2916 2098.04,95.2886 2100.3,95.2857 2102.55,95.2828 2104.8,95.2799 2107.05,95.2771 2109.31,95.2742 2111.56,95.2714 2113.81,95.2687 2116.06,95.2659 2118.31,95.2632 2120.57,95.2604 2122.82,95.2577 2125.07,95.2551 2127.32,95.2524 2129.58,95.2498 2131.83,95.2472 2134.08,95.2446 2136.33,95.242 2138.58,95.2394 2140.84,95.2369 2143.09,95.2344 2145.34,95.2319 2147.59,95.2294 2149.84,95.227 2152.1,95.2246 2154.35,95.2221 2156.6,95.2197 2158.85,95.2174 2161.11,95.215 2163.36,95.2127 2165.61,95.2103 2167.86,95.208 2170.11,95.2058 2172.37,95.2035 2174.62,95.2012 2176.87,95.199 2179.12,95.1968 2181.38,95.1946 2183.63,95.1924 2185.88,95.1903 2188.13,95.1881 2190.38,95.186 2192.64,95.1839 2194.89,95.1818 2197.14,95.1797 2199.39,95.1776 2201.65,95.1756 2203.9,95.1735 2206.15,95.1715 2208.4,95.1695 2210.65,95.1675 2212.91,95.1656 2215.16,95.1636 2217.41,95.1617 2219.66,95.1598 2221.92,95.1579 2224.17,95.156 2226.42,95.1541 2228.67,95.1522 2230.92,95.1504 2233.18,95.1485 2235.43,95.1467 2237.68,95.1449 2239.93,95.1431 2242.18,95.1413 2244.44,95.1396 2246.69,95.1378 2248.94,95.1361 2251.19,95.1344 2253.45,95.1326 2255.7,95.131 2257.95,95.1293 2260.2,95.1276 2262.45,95.1259 2264.71,95.1243 2266.96,95.1227 2269.21,95.121 2271.46,95.1194 2273.72,95.1178 2275.97,95.1163 2278.22,95.1147 2280.47,95.1131 2282.72,95.1116 2284.98,95.11 2287.23,95.1085 2289.48,95.107 2291.73,95.1055 2293.99,95.104 2296.24,95.1026 2298.49,95.1011 2300.74,95.0996 2302.99,95.0982 2305.25,95.0968 2307.5,95.0953 2309.75,95.0939 2312,95.0925 2314.26,95.0912 2316.51,95.0898 2318.76,95.0884 2321.01,95.0871 2323.26,95.0857 2325.52,95.0844 2327.77,95.0831 2330.02,95.0817 2332.27,95.0804 2334.52,95.0791 2336.78,95.0779 2339.03,95.0766 2341.28,95.0753 2343.53,95.0741 2345.79,95.0728 2348.04,95.0716 2350.29,95.0704 2352.54,95.0692 2354.79,95.0679 2357.05,95.0667 2359.3,95.0656 2361.55,95.0644 2363.8,95.0632 2366.06,95.0621 2368.31,95.0609 2370.56,95.0598 2372.81,95.0586 2375.06,95.0575 2377.32,95.0564 2379.57,95.0553 2381.82,95.0542 2384.07,95.0531 2386.33,95.052 2388.58,95.0509 2390.83,95.0499 2393.08,95.0488 2395.33,95.0478 2397.59,95.0467 2399.84,95.0457 2402.09,95.0447 2404.34,95.0436 2406.6,95.0426 2408.85,95.0416 2411.1,95.0406 2413.35,95.0396 2415.6,95.0387 2417.86,95.0377 2420.11,95.0367 2422.36,95.0358 2424.61,95.0348 2426.86,95.0339 2429.12,95.0329 2431.37,95.032 2433.62,95.0311 2435.87,95.0302 2438.13,95.0293 2440.38,95.0284 2442.63,95.0275 2444.88,95.0266 2447.13,95.0257 2449.39,95.0248 2451.64,95.024 2453.89,95.0231 2456.14,95.0223 2458.4,95.0214 2460.65,95.0206 2462.9,95.0197 2465.15,95.0189 2467.4,95.0181 2469.66,95.0173 2471.91,95.0165 2474.16,95.0157 2476.41,95.0149 2478.67,95.0141 2480.92,95.0133 2483.17,95.0125 2485.42,95.0117 2487.67,95.011 2489.93,95.0102 2492.18,95.0095 2494.43,95.0087 2496.68,95.008 2498.94,95.0072 2501.19,95.0065 2503.44,95.0058 2505.69,95.005 2507.94,95.0043 2510.2,95.0036 2512.45,95.0029 2514.7,95.0022 2516.95,95.0015 2519.2,95.0008 2521.46,95.0001 2523.71,94.9995 2525.96,94.9988 2528.21,94.9981 2530.47,94.9975 2532.72,94.9968 2534.97,94.9962 2537.22,94.9955 2539.47,94.9949 2541.73,94.9942 2543.98,94.9936 2546.23,94.993 2548.48,94.9923 2550.74,94.9917 2552.99,94.9911 2555.24,94.9905 2557.49,94.9899 2559.74,94.9893 2562,94.9887 2564.25,94.9881 2566.5,94.9875 2568.75,94.9869 2571.01,94.9864 2573.26,94.9858 "/>
<path clip-path="url(#clip260)" d="M2020.75 1677.89 L2561.26 1677.89 L2561.26 1574.21 L2020.75 1574.21  Z" fill="#ffffff" fill-rule="evenodd" fill-opacity="1"/>
<polyline clip-path="url(#clip260)" style="stroke:#000000; stroke-linecap:round; stroke-linejoin:round; stroke-width:4; stroke-opacity:1; fill:none" points="2020.75,1677.89 2561.26,1677.89 2561.26,1574.21 2020.75,1574.21 2020.75,1677.89 "/>
<polyline clip-path="url(#clip260)" style="stroke:#009af9; stroke-linecap:round; stroke-linejoin:round; stroke-width:12; stroke-opacity:1; fill:none" points="2047.25,1626.05 2206.25,1626.05 "/>
<path clip-path="url(#clip260)" d="M2232.75 1608.77 L2237.42 1608.77 L2237.42 1622.93 L2254.41 1622.93 L2254.41 1608.77 L2259.09 1608.77 L2259.09 1643.33 L2254.41 1643.33 L2254.41 1626.87 L2237.42 1626.87 L2237.42 1643.33 L2232.75 1643.33 L2232.75 1608.77 Z" fill="#000000" fill-rule="evenodd" fill-opacity="1" /><path clip-path="url(#clip260)" d="M2290.38 1629.3 L2290.38 1631.38 L2270.8 1631.38 Q2271.08 1635.78 2273.44 1638.1 Q2275.82 1640.39 2280.06 1640.39 Q2282.51 1640.39 2284.81 1639.79 Q2287.12 1639.18 2289.39 1637.98 L2289.39 1642.01 Q2287.1 1642.98 2284.69 1643.49 Q2282.28 1644 2279.81 1644 Q2273.6 1644 2269.97 1640.39 Q2266.36 1636.78 2266.36 1630.62 Q2266.36 1624.25 2269.78 1620.53 Q2273.23 1616.78 2279.07 1616.78 Q2284.3 1616.78 2287.33 1620.16 Q2290.38 1623.51 2290.38 1629.3 M2286.13 1628.05 Q2286.08 1624.55 2284.16 1622.47 Q2282.26 1620.39 2279.11 1620.39 Q2275.55 1620.39 2273.39 1622.4 Q2271.26 1624.42 2270.94 1628.07 L2286.13 1628.05 Z" fill="#000000" fill-rule="evenodd" fill-opacity="1" /><path clip-path="url(#clip260)" d="M2309.16 1630.3 Q2304 1630.3 2302.01 1631.48 Q2300.01 1632.66 2300.01 1635.5 Q2300.01 1637.77 2301.5 1639.11 Q2303 1640.43 2305.57 1640.43 Q2309.11 1640.43 2311.24 1637.93 Q2313.39 1635.41 2313.39 1631.24 L2313.39 1630.3 L2309.16 1630.3 M2317.65 1628.54 L2317.65 1643.33 L2313.39 1643.33 L2313.39 1639.39 Q2311.94 1641.75 2309.76 1642.89 Q2307.58 1644 2304.44 1644 Q2300.45 1644 2298.09 1641.78 Q2295.76 1639.53 2295.76 1635.78 Q2295.76 1631.41 2298.67 1629.18 Q2301.61 1626.96 2307.42 1626.96 L2313.39 1626.96 L2313.39 1626.55 Q2313.39 1623.61 2311.45 1622.01 Q2309.53 1620.39 2306.03 1620.39 Q2303.81 1620.39 2301.7 1620.92 Q2299.6 1621.45 2297.65 1622.52 L2297.65 1618.58 Q2299.99 1617.68 2302.19 1617.24 Q2304.39 1616.78 2306.47 1616.78 Q2312.1 1616.78 2314.88 1619.69 Q2317.65 1622.61 2317.65 1628.54 Z" fill="#000000" fill-rule="evenodd" fill-opacity="1" /><path clip-path="url(#clip260)" d="M2330.64 1610.04 L2330.64 1617.4 L2339.41 1617.4 L2339.41 1620.71 L2330.64 1620.71 L2330.64 1634.79 Q2330.64 1637.96 2331.5 1638.86 Q2332.38 1639.76 2335.04 1639.76 L2339.41 1639.76 L2339.41 1643.33 L2335.04 1643.33 Q2330.11 1643.33 2328.23 1641.5 Q2326.36 1639.65 2326.36 1634.79 L2326.36 1620.71 L2323.23 1620.71 L2323.23 1617.4 L2326.36 1617.4 L2326.36 1610.04 L2330.64 1610.04 Z" fill="#000000" fill-rule="evenodd" fill-opacity="1" /><path clip-path="url(#clip260)" d="M2360.27 1608.77 L2364.94 1608.77 L2364.94 1643.33 L2360.27 1643.33 L2360.27 1608.77 Z" fill="#000000" fill-rule="evenodd" fill-opacity="1" /><path clip-path="url(#clip260)" d="M2395.62 1627.68 L2395.62 1643.33 L2391.36 1643.33 L2391.36 1627.82 Q2391.36 1624.14 2389.92 1622.31 Q2388.49 1620.48 2385.62 1620.48 Q2382.17 1620.48 2380.18 1622.68 Q2378.19 1624.88 2378.19 1628.68 L2378.19 1643.33 L2373.9 1643.33 L2373.9 1617.4 L2378.19 1617.4 L2378.19 1621.43 Q2379.71 1619.09 2381.77 1617.93 Q2383.86 1616.78 2386.56 1616.78 Q2391.03 1616.78 2393.32 1619.55 Q2395.62 1622.31 2395.62 1627.68 Z" fill="#000000" fill-rule="evenodd" fill-opacity="1" /><path clip-path="url(#clip260)" d="M2408.32 1610.04 L2408.32 1617.4 L2417.1 1617.4 L2417.1 1620.71 L2408.32 1620.71 L2408.32 1634.79 Q2408.32 1637.96 2409.18 1638.86 Q2410.06 1639.76 2412.72 1639.76 L2417.1 1639.76 L2417.1 1643.33 L2412.72 1643.33 Q2407.79 1643.33 2405.92 1641.5 Q2404.04 1639.65 2404.04 1634.79 L2404.04 1620.71 L2400.92 1620.71 L2400.92 1617.4 L2404.04 1617.4 L2404.04 1610.04 L2408.32 1610.04 Z" fill="#000000" fill-rule="evenodd" fill-opacity="1" /><path clip-path="url(#clip260)" d="M2444.87 1629.3 L2444.87 1631.38 L2425.29 1631.38 Q2425.57 1635.78 2427.93 1638.1 Q2430.31 1640.39 2434.55 1640.39 Q2437 1640.39 2439.3 1639.79 Q2441.61 1639.18 2443.88 1637.98 L2443.88 1642.01 Q2441.59 1642.98 2439.18 1643.49 Q2436.77 1644 2434.3 1644 Q2428.09 1644 2424.46 1640.39 Q2420.85 1636.78 2420.85 1630.62 Q2420.85 1624.25 2424.27 1620.53 Q2427.72 1616.78 2433.56 1616.78 Q2438.79 1616.78 2441.82 1620.16 Q2444.87 1623.51 2444.87 1629.3 M2440.62 1628.05 Q2440.57 1624.55 2438.65 1622.47 Q2436.75 1620.39 2433.6 1620.39 Q2430.04 1620.39 2427.88 1622.4 Q2425.75 1624.42 2425.43 1628.07 L2440.62 1628.05 Z" fill="#000000" fill-rule="evenodd" fill-opacity="1" /><path clip-path="url(#clip260)" d="M2468.93 1630.06 Q2468.93 1625.43 2467 1622.89 Q2465.11 1620.34 2461.66 1620.34 Q2458.23 1620.34 2456.31 1622.89 Q2454.41 1625.43 2454.41 1630.06 Q2454.41 1634.67 2456.31 1637.22 Q2458.23 1639.76 2461.66 1639.76 Q2465.11 1639.76 2467 1637.22 Q2468.93 1634.67 2468.93 1630.06 M2473.18 1640.11 Q2473.18 1646.73 2470.25 1649.95 Q2467.31 1653.19 2461.24 1653.19 Q2459 1653.19 2457 1652.84 Q2455.01 1652.52 2453.14 1651.82 L2453.14 1647.68 Q2455.01 1648.7 2456.84 1649.18 Q2458.67 1649.67 2460.57 1649.67 Q2464.76 1649.67 2466.84 1647.47 Q2468.93 1645.3 2468.93 1640.87 L2468.93 1638.77 Q2467.61 1641.06 2465.55 1642.19 Q2463.49 1643.33 2460.62 1643.33 Q2455.85 1643.33 2452.93 1639.69 Q2450.01 1636.06 2450.01 1630.06 Q2450.01 1624.05 2452.93 1620.41 Q2455.85 1616.78 2460.62 1616.78 Q2463.49 1616.78 2465.55 1617.91 Q2467.61 1619.05 2468.93 1621.34 L2468.93 1617.4 L2473.18 1617.4 L2473.18 1640.11 Z" fill="#000000" fill-rule="evenodd" fill-opacity="1" /><path clip-path="url(#clip260)" d="M2496.98 1621.38 Q2496.26 1620.97 2495.41 1620.78 Q2494.57 1620.57 2493.56 1620.57 Q2489.94 1620.57 2488 1622.93 Q2486.08 1625.27 2486.08 1629.67 L2486.08 1643.33 L2481.8 1643.33 L2481.8 1617.4 L2486.08 1617.4 L2486.08 1621.43 Q2487.42 1619.07 2489.57 1617.93 Q2491.73 1616.78 2494.81 1616.78 Q2495.24 1616.78 2495.78 1616.85 Q2496.31 1616.89 2496.96 1617.01 L2496.98 1621.38 Z" fill="#000000" fill-rule="evenodd" fill-opacity="1" /><path clip-path="url(#clip260)" d="M2513.23 1630.3 Q2508.07 1630.3 2506.08 1631.48 Q2504.09 1632.66 2504.09 1635.5 Q2504.09 1637.77 2505.57 1639.11 Q2507.07 1640.43 2509.64 1640.43 Q2513.18 1640.43 2515.31 1637.93 Q2517.47 1635.41 2517.47 1631.24 L2517.47 1630.3 L2513.23 1630.3 M2521.73 1628.54 L2521.73 1643.33 L2517.47 1643.33 L2517.47 1639.39 Q2516.01 1641.75 2513.83 1642.89 Q2511.66 1644 2508.51 1644 Q2504.53 1644 2502.17 1641.78 Q2499.83 1639.53 2499.83 1635.78 Q2499.83 1631.41 2502.74 1629.18 Q2505.68 1626.96 2511.49 1626.96 L2517.47 1626.96 L2517.47 1626.55 Q2517.47 1623.61 2515.52 1622.01 Q2513.6 1620.39 2510.11 1620.39 Q2507.88 1620.39 2505.78 1620.92 Q2503.67 1621.45 2501.73 1622.52 L2501.73 1618.58 Q2504.06 1617.68 2506.26 1617.24 Q2508.46 1616.78 2510.55 1616.78 Q2516.17 1616.78 2518.95 1619.69 Q2521.73 1622.61 2521.73 1628.54 Z" fill="#000000" fill-rule="evenodd" fill-opacity="1" /><path clip-path="url(#clip260)" d="M2530.5 1607.31 L2534.76 1607.31 L2534.76 1643.33 L2530.5 1643.33 L2530.5 1607.31 Z" fill="#000000" fill-rule="evenodd" fill-opacity="1" /></svg>
